<?xml version="1.0" encoding="UTF-8" standalone="no"?>
<svg
   xmlns:dc="http://purl.org/dc/elements/1.1/"
   xmlns:cc="http://creativecommons.org/ns#"
   xmlns:rdf="http://www.w3.org/1999/02/22-rdf-syntax-ns#"
   xmlns:svg="http://www.w3.org/2000/svg"
   xmlns="http://www.w3.org/2000/svg"
   xmlns:sodipodi="http://sodipodi.sourceforge.net/DTD/sodipodi-0.dtd"
   xmlns:inkscape="http://www.inkscape.org/namespaces/inkscape"
   viewBox="0 0 1150.5129 152.63701"
   transform-origin="0 0"
   version="1.1"
   id="svg4"
   sodipodi:docname="line.svg"
   inkscape:version="0.92.4 (5da689c313, 2019-01-14)"
   width="1150.5129"
   height="152.63701">
  <metadata
     id="metadata10">
    <rdf:RDF>
      <cc:Work
         rdf:about="">
        <dc:format>image/svg+xml</dc:format>
        <dc:type
           rdf:resource="http://purl.org/dc/dcmitype/StillImage" />
        <dc:title></dc:title>
      </cc:Work>
    </rdf:RDF>
  </metadata>
  <defs
     id="defs8">
    <clipPath
       clipPathUnits="userSpaceOnUse"
       id="clipPath4545">
      <rect
         style="opacity:1;fill:#c41a26;fill-opacity:0.52582158;stroke:none;stroke-width:30.008255;stroke-linecap:round;stroke-linejoin:round;stroke-miterlimit:4;stroke-dasharray:none;stroke-dashoffset:0;stroke-opacity:1;paint-order:markers fill stroke"
         id="rect4547"
         width="415.93558"
         height="898.38153"
         x="839.9751"
         y="-362.9238" />
    </clipPath>
    <clipPath
       clipPathUnits="userSpaceOnUse"
       id="clipPath4549">
      <rect
         y="-372.63104"
         x="1381.2377"
         height="898.38153"
         width="415.93558"
         id="rect4551"
         style="opacity:1;fill:#c41a26;fill-opacity:0.52582158;stroke:none;stroke-width:30.008255;stroke-linecap:round;stroke-linejoin:round;stroke-miterlimit:4;stroke-dasharray:none;stroke-dashoffset:0;stroke-opacity:1;paint-order:markers fill stroke" />
    </clipPath>
  </defs>
  <sodipodi:namedview
     pagecolor="#ffffff"
     bordercolor="#666666"
     borderopacity="1"
     objecttolerance="10"
     gridtolerance="10"
     guidetolerance="10"
     inkscape:pageopacity="0"
     inkscape:pageshadow="2"
     inkscape:window-width="1836"
     inkscape:window-height="1057"
     id="namedview6"
     showgrid="false"
     inkscape:zoom="0.5"
     inkscape:cx="957.57011"
     inkscape:cy="496.30697"
     inkscape:window-x="76"
     inkscape:window-y="-8"
     inkscape:window-maximized="1"
     inkscape:current-layer="svg4"
     inkscape:snap-intersection-paths="true"
     inkscape:snap-smooth-nodes="true"
     fit-margin-top="0"
     fit-margin-left="0"
     fit-margin-right="0"
     fit-margin-bottom="0" />
  <path
     style="vector-effect:non-scaling-stroke;fill:none;stroke:#341eba;stroke-width:3.20000005;stroke-linecap:round;stroke-linejoin:miter;stroke-miterlimit:4;stroke-dasharray:none;stroke-dashoffset:0;stroke-opacity:1"
     d="m 1151.2227,114.31701 c -29.5,2 -82.3748,6.31592 -135.3438,-0.78125 -33.41272,-4.47689 -22.37499,-39 -20.24999,-52.75 2.73729,-17.71187 -5.94133,-16.789371 -11.15625,-18.46875 -5.21491,-1.679378 -25.51461,-6.911679 -15.61328,-35.8222652 1.11924,-3.2680252 0.61272,-4.4714951 -0.59375,-4.6054688 -2.01078,-0.2232894 -5.96625,2.5245781 -7.58594,3.6367188 -2.5915,1.7794251 -14.60065,8.3838562 -19.69336,31.3105462 -8.73936,39.343422 -10.25976,59.871984 -29.29101,73.796879 -33.10722,24.22409 -82.11419,7.63359 -102.45703,-9.84375 -15.28177,-13.12917 -19.26507,-9.887296 -21.33985,6.93554 -2.24226,18.18066 -7.55959,20.39755 -19.37918,7.93229 -11.81958,-12.46525 -36.4043,-35.79002 -36.86496,-24.7858 -0.46066,11.00422 8.10289,7.215869 14.58233,-8.905713 2.78568,-6.931082 7.67784,-23.327294 8.08564,-35.731008 0.0319,-15.627589 -4.06465,-29.274427 -29.70117,-36.5820311 -22.27325,-6.3489165 -36.4733,2.3352081 -48.38086,11.3496091 -13.74764,10.4074 -19.05098,4.382622 -23.8711,-0.4375 -6.22445,-6.224453 -17.53884,-16.3646057 -32.65234,-5.785156 -15.11904,10.583339 -14.26748,40.91601 -18.99219,62.74414 -6.56488,30.329689 -20.01215,9.864481 -35.67187,-3.638672 -12.54692,-10.819029 -25.00929,-7.706437 -26.33008,-1.076171 -3.3311,16.72185 9.91198,13.037519 18.78125,23.261718 8.07685,9.310714 7.0805,28.942754 -6.71875,34.416014 -34.30318,13.60582 -86.84387,4.45522 -101.98828,-4.84765 C 417.6806,106.52524 415.49686,72.065458 411.29883,44.490838 406.99237,16.203949 395.80822,17.674914 382.76758,22.375604 c -5.7463,2.07134 -15.16429,7.949308 -21.38476,15.736328 -15.09367,18.894831 -4.70792,31.181845 5.26757,46.392578 6.79797,10.365616 9.47269,29.32447 -5.61328,49.83008 -17.45033,23.71936 -77.83367,19.33419 -97.51367,6.92383 -19.36371,-12.21091 -27.73033,-27.01204 -31.36133,-31.98633 -6.79783,-9.312711 -15.47472,-24.065748 -27.53711,-25.941408 -12.06238,-1.87566 -41.60941,0.08561 -50.5,13.597656 -6.27954,9.543732 3.29482,24.878752 -2.14843,36.228512 -5.44325,11.34975 -23.4638,20.6864 -42.62891,7.61719 -19.165116,-13.06921 -36.25255,-39.5471 -50.91602,-41.70703 -14.66346,-2.15994 -18.185375,5.76239 -27.572265,12.64648 -9.38689,6.8841 -31.19335937,5.53907 -31.19335937,5.53907"
     id="path2"
     inkscape:connector-curvature="0"
     sodipodi:nodetypes="csssssssssszsscsssssssssssssssscssssssc" />
  <rect
     style="opacity:1;fill:#c41a26;fill-opacity:0.52582158;stroke:none;stroke-width:29.5855732;stroke-linecap:round;stroke-linejoin:round;stroke-miterlimit:4;stroke-dasharray:none;stroke-dashoffset:0;stroke-opacity:0.57746474;paint-order:markers fill stroke"
     id="rect4559"
     width="1150.5129"
     height="152.63701"
     x="0"
     y="0" />
</svg>
