<?xml version="1.0" encoding="UTF-8" standalone="no"?>
<!-- Created with Inkscape (http://www.inkscape.org/) -->

<svg
   xmlns:dc="http://purl.org/dc/elements/1.1/"
   xmlns:cc="http://creativecommons.org/ns#"
   xmlns:rdf="http://www.w3.org/1999/02/22-rdf-syntax-ns#"
   xmlns:svg="http://www.w3.org/2000/svg"
   xmlns="http://www.w3.org/2000/svg"
   xmlns:sodipodi="http://sodipodi.sourceforge.net/DTD/sodipodi-0.dtd"
   xmlns:inkscape="http://www.inkscape.org/namespaces/inkscape"
   viewBox="0 0 24 24"
   version="1.1"
   id="svg8"
   inkscape:version="0.92.4 (5da689c313, 2019-01-14)"
   sodipodi:docname="colorcircle.svg"
   width="24"
   height="24">
  <defs
     id="defs2" />
  <sodipodi:namedview
     id="base"
     pagecolor="#ffffff"
     bordercolor="#666666"
     borderopacity="1.0"
     inkscape:pageopacity="0.0"
     inkscape:pageshadow="2"
     inkscape:zoom="31.678384"
     inkscape:cx="16.320046"
     inkscape:cy="12.633428"
     inkscape:document-units="mm"
     inkscape:current-layer="svg8"
     showgrid="false"
     units="px"
     inkscape:window-width="1836"
     inkscape:window-height="1057"
     inkscape:window-x="76"
     inkscape:window-y="-8"
     inkscape:window-maximized="1"
     inkscape:snap-bbox="true"
     inkscape:bbox-nodes="true"
     inkscape:snap-intersection-paths="true"
     inkscape:object-paths="true" />
  <metadata
     id="metadata5">
    <rdf:RDF>
      <cc:Work
         rdf:about="">
        <dc:format>image/svg+xml</dc:format>
        <dc:type
           rdf:resource="http://purl.org/dc/dcmitype/StillImage" />
        <dc:title></dc:title>
      </cc:Work>
    </rdf:RDF>
  </metadata>
  <path
     style="opacity:1;fill:#ec183c;fill-opacity:1;stroke:none;stroke-width:3.15088058;stroke-linecap:round;stroke-linejoin:round;stroke-miterlimit:4;stroke-dasharray:none;stroke-dashoffset:0;stroke-opacity:1;paint-order:markers fill stroke"
     d="M 11.119141 0.033203125 A 12 12 0 0 0 0.044921875 11.107422 L 11.119141 0.033203125 z "
     id="rect841" />
  <path
     style="opacity:1;fill:#f6a604;fill-opacity:1;stroke:none;stroke-width:3.15088058;stroke-linecap:round;stroke-linejoin:round;stroke-miterlimit:4;stroke-dasharray:none;stroke-dashoffset:0;stroke-opacity:1;paint-order:markers fill stroke"
     d="M 12 0 A 12 12 0 0 0 11.119141 0.033203125 L 0.044921875 11.107422 A 12 12 0 0 0 0 12 A 12 12 0 0 0 0.60351562 15.707031 L 15.714844 0.59570312 A 12 12 0 0 0 12 0 z "
     id="rect843" />
  <path
     style="opacity:1;fill:#f6e51f;fill-opacity:1;stroke:none;stroke-width:3.15088058;stroke-linecap:round;stroke-linejoin:round;stroke-miterlimit:4;stroke-dasharray:none;stroke-dashoffset:0;stroke-opacity:1;paint-order:markers fill stroke"
     d="M 15.714844 0.59570312 L 0.60351562 15.707031 A 12 12 0 0 0 2.3515625 19.113281 L 19.113281 2.3535156 A 12 12 0 0 0 15.714844 0.59570312 z "
     id="rect845" />
  <path
     style="opacity:1;fill:#7adb05;fill-opacity:1;stroke:none;stroke-width:3.15088058;stroke-linecap:round;stroke-linejoin:round;stroke-miterlimit:4;stroke-dasharray:none;stroke-dashoffset:0;stroke-opacity:1;paint-order:markers fill stroke"
     d="M 19.113281 2.3535156 L 2.3515625 19.113281 A 12 12 0 0 0 4.9375 21.685547 L 21.685547 4.9375 A 12 12 0 0 0 19.113281 2.3535156 z "
     id="rect847" />
  <path
     style="opacity:1;fill:#4fb0f5;fill-opacity:1;stroke:none;stroke-width:3.15088058;stroke-linecap:round;stroke-linejoin:round;stroke-miterlimit:4;stroke-dasharray:none;stroke-dashoffset:0;stroke-opacity:1;paint-order:markers fill stroke"
     d="M 21.685547 4.9375 L 4.9375 21.685547 A 12 12 0 0 0 8.3535156 23.427734 L 23.419922 8.359375 A 12 12 0 0 0 21.685547 4.9375 z "
     id="rect849" />
  <path
     style="opacity:1;fill:#2583f2;fill-opacity:1;stroke:none;stroke-width:3.15088058;stroke-linecap:round;stroke-linejoin:round;stroke-miterlimit:4;stroke-dasharray:none;stroke-dashoffset:0;stroke-opacity:1;paint-order:markers fill stroke"
     d="M 23.419922 8.359375 L 8.3535156 23.427734 A 12 12 0 0 0 12 24 A 12 12 0 0 0 12.982422 23.955078 L 23.949219 12.986328 A 12 12 0 0 0 24 12 A 12 12 0 0 0 23.419922 8.359375 z "
     id="rect851" />
  <path
     style="opacity:1;fill:#9300f6;fill-opacity:1;stroke:none;stroke-width:3.15088058;stroke-linecap:round;stroke-linejoin:round;stroke-miterlimit:4;stroke-dasharray:none;stroke-dashoffset:0;stroke-opacity:1;paint-order:markers fill stroke"
     d="M 23.949219 12.986328 L 12.982422 23.955078 A 12 12 0 0 0 23.949219 12.986328 z "
     id="rect853" />
</svg>
