<?xml version="1.0" standalone="no"?>
<!DOCTYPE svg PUBLIC "-//W3C//DTD SVG 1.1//EN" "http://www.w3.org/Graphics/SVG/1.1/DTD/svg11.dtd" >
<svg xmlns="http://www.w3.org/2000/svg" xmlns:xlink="http://www.w3.org/1999/xlink" version="1.1">
<metadata>
Created by FontForge 20190801 at Thu Feb 24 01:01:17 2022
 By root
</metadata>
<defs>
<font id="mykross" horiz-adv-x="1000" >
  <font-face 
    font-family="mykross"
    font-weight="400"
    font-stretch="normal"
    units-per-em="1000"
    panose-1="2 0 5 3 0 0 0 0 0 0"
    ascent="850"
    descent="-150"
    x-height="789"
    cap-height="711"
    bbox="-1.57143 -151.481 10759.6 850.531"
    underline-thickness="0"
    underline-position="10"
    unicode-range="U+002E-007A"
  />
<missing-glyph 
 />
    <glyph glyph-name=".notdef" 
 />
    <glyph glyph-name=".null" horiz-adv-x="0" 
 />
    <glyph glyph-name="nonmarkingreturn" horiz-adv-x="333" 
 />
    <glyph glyph-name="info" unicode="." 
d="M333 144q2 -21 15 -32.5t34 -11.5h236q23 0 36 12.5t13 32t-13 31.5t-36 12h-60v250q0 20 -13 32.5t-34 12.5h-118q-22 0 -35.5 -12t-13.5 -31.5t13 -32.5q14 -11 36 -11h68v-208h-79q-22 0 -35.5 -12t-13.5 -32zM432 621q0 -25 18.5 -43.5t45 -18.5t45.5 19t18 43
q0 26 -18 44t-45.5 18t-45.5 -18t-18 -44z" />
    <glyph glyph-name="back" unicode="/" 
d="M115 353q0 -20 14 -34l269 -268q16 -14 32 -14q19 0 31.5 12.5t12.5 31.5t-13 32l-92 92l-118 108l95 -6h493q20 0 33 13t13 33t-13 32.5t-33 12.5h-493l-94 -6l117 108l92 93q13 12 13 31.5t-12.5 31.5t-31.5 12t-33 -14l-268 -268q-14 -14 -14 -33z" />
    <glyph glyph-name="0" unicode="0" horiz-adv-x="1375" 
d="M479 762q48 49 113 72t132 14t126 -47t91 -97l81 -138q27 -47 74 -75l136 -83q59 -36 96 -94t46 -127t-14 -134t-71 -115t-112 -72t-133 -14t-125 47t-92 97l-82 138q-21 37 -57 64q-35 -26 -58 -64l-82 -138q-39 -68 -107 -107t-146 -39q-59 0 -113 23t-95 65
q-49 49 -71 115t-14 134t45 127t96 94l137 83q46 28 73 75l75 127q20 38 51 69zM399 489q-34 -41 -78 -68l-136 -83q-43 -26 -70 -68t-33 -93t11 -97t51 -84t82 -52t96 -10t91 33t66 71l82 139q22 36 54 67l-79 48q-53 33 -89 85t-48 112zM714 766q-49 6 -96 -10t-82 -52
q-17 -17 -32 -42l-6 -9q-32 -61 -23 -130q6 -50 33 -92t69 -68l136 -84q63 -39 101 -102l82 -139q25 -43 67 -71t91 -33t96 10t82 52t51 84t10 97t-33 93t-70 68l-136 83q-63 39 -101 103l-81 138q-25 43 -66 71t-92 33zM991 241q18 18 41 28t48 10t48 -10t41 -28
q24 -25 33 -57t0 -66t-33 -58q-18 -18 -41 -28t-48 -10t-48 10t-41 28q-24 25 -32 58t0 65t32 58zM207 241q17 18 41 28t48 9t48 -9t40 -28q24 -25 33 -58t0 -65t-33 -58q-17 -18 -40 -27t-48 -10t-48 10t-41 27q-24 25 -32 58t0 66t32 57zM1080 196q-19 0 -32 -13t-13 -32
t13 -33t32 -14t32 14t13 33t-13 32t-32 13zM327 183q-13 13 -31 13t-32 -13t-13 -32t13 -33t32 -13t31 13t13 33t-13 32zM599 640q17 18 41 28t48 9t48 -9t40 -28q24 -25 33 -57t0 -65t-33 -58q-17 -18 -40 -27t-48 -10t-48 10t-41 27q-24 25 -32 58t0 65t32 57zM688 595
q-19 0 -32 -13t-13 -32t13 -33t32 -13t31 13t13 33t-13 32t-31 13z" />
    <glyph glyph-name="2" unicode="1" 
d="M498 850q78 0 153 -24t137 -70h2v-1l9 -6q10 -7 14 -11q77 -62 124 -149t57 -186l1 -4q1 -2 1 -5t-1 -5q2 -24 2 -39t-1 -23q-5 -113 -59 -213q-63 -117 -176 -186q-110 -68 -239 -74q-132 -6 -251 55t-191 172q-70 109 -79 237q-9 132 49 252q0 1 1 2q18 38 44 73
q-11 26 -13 55q0 43 23 80t62 55t81 14t76 -31q78 30 162 32h12zM457 815q-55 -5 -107 -22l1 -3l5 -6l3 -6l3 -4l5 -10l2 -3l5 -13q0 -3 1 -4l4 -15l1 -10l1 -4l1 -15q0 -49 -63 -152q-37 -59 -74 -107q-5 -7 -13 -7t-14 7l-2 4l-2 1l-6 10l-3 3l-7 9l-3 6l-4 5l-18 26l-3 5
q-3 4 -9 14l-9 14q-2 4 -4 6q-4 6 -5 9l-10 16l-3 6l-6 10l-12 22l-1 3q-17 -25 -30 -52q-15 -86 1 -171q10 -63 19 -93q14 -47 44 -82l2 -2q21 -25 35 -36q25 -20 52 -23q24 -3 61 8q31 9 63 24l7 4q23 13 49 14h1q23 -1 44 -11t35 -27q19 -21 28 -49t6 -57t-17 -48
t-39 -29q-17 -5 -25 -21t-9 -33t8 -33q2 -4 4 -5q90 -9 177 16t157 80t116 133q-27 17 -57 26q-45 -79 -99 -151q-5 -7 -13 -7t-14 7l-5 7q-38 53 -65 96q-12 -13 -19 -25l-1 -1q-12 -17 -19 -24q-11 -10 -24 -10h-5q-17 2 -30 22q-7 11 -16 35l-1 4q-14 42 -9 86q2 17 1 26
t-6 17q-9 12 -29 18q-13 4 -43 8q-37 5 -74 -3q-16 -5 -33 -3t-33 9q-25 17 -36 45t-4 57q7 20 26 32q12 8 40 16q48 14 89 44q29 21 46 39q30 33 31 64q1 15 -6 28q-5 9 -18 25l-2 3q-29 32 -40 73q-15 60 25 135zM42 443l-3 -15q-7 -35 -7 -77q0 -110 49 -207t134 -162
q87 -67 195 -88q-7 21 -5 42t12 41q15 24 42 33q15 5 25 18q16 21 11 55t-26 58t-54 27q-22 -2 -35 -11l-8 -4q-25 -13 -58 -23q-49 -16 -84 -12t-68 29q-19 15 -43 44q-33 39 -50 92q-10 32 -20 99q-5 30 -7 61zM731 368q-32 0 -59 -15t-42 -43t-16 -59q4 -30 14 -51
q20 -42 36 -69q31 -52 67 -101q49 68 88 141q28 55 28 80t-10 48t-29 39q-33 30 -77 30zM498 817h-2q-45 -74 -32 -129q9 -33 34 -60q17 -21 23 -34q11 -21 10 -44q-1 -41 -36 -81q-19 -22 -53 -47l-1 -1q-45 -33 -99 -48q-23 -8 -31 -12q-11 -6 -14 -15q-3 -19 4 -36
t23 -28q7 -5 17 -5q6 0 24 4h1q42 9 84 3h1q36 -5 52 -11q27 -9 42 -29q18 -29 12 -64q-5 -37 7 -73t19 -39q11 9 18 21q10 16 28 36q-17 30 -31 61t-17 65q0 32 14 62t37 51t55 31t63 5q3 -1 8 -1q8 -2 13 -4l13 -4q4 -1 12 -5h1q38 -19 61 -55t22 -80q-3 -41 -22 -77
q31 -10 58 -28q43 86 47 182l1 23q0 23 -3 44q-12 35 -41 59q-27 21 -60 31q-29 7 -59 0q-37 -8 -74 0q-43 9 -63 17q-31 14 -47 40t-18 57t9 58t30 40q22 16 49 13q18 -3 37 6t31 23q-57 38 -122 58t-135 20zM731 334q19 2 37 -6t28 -24t10 -36t-10 -36t-28 -25t-37 -6
q-25 3 -42 22t-17 45t17 44t42 22zM731 301q-14 0 -23 -9t-10 -24t10 -23t23 -10t24 10t9 23t-9 24t-24 9zM783 719q-21 -23 -45 -34t-52 -9q-15 3 -28 -6t-20 -29t-6 -41t13 -40t35 -28q15 -7 53 -15q31 -6 62 1q37 8 73 -1q40 -11 73 -36l6 -6q-19 70 -59 131t-96 106
q-3 3 -9 7zM232 817q-32 0 -59 -15t-42 -43t-16 -59q2 -27 14 -51q43 -90 103 -170q42 58 74 114q42 74 42 107t-15 59t-42 42t-59 16zM232 784q28 0 48 -19t19 -48t-19 -47t-48 -20q-25 3 -42 22t-17 45t17 44t42 22v1zM232 750q-14 0 -23 -9t-10 -24t10 -23t23 -10t24 10
t9 23t-9 24t-24 9z" />
    <glyph glyph-name="1" unicode="2" 
d="M541 833l346 -372q25 -27 25 -63v-548h-299v313h-226v-313h-299v548q0 36 25 63l345 370q17 18 42 19t41 -17zM516 807q-6 6 -14 7t-16 -5l-348 -373q-13 -14 -14 -33v-517h228v313h296v-313h229v512q0 17 -12 34l-3 4z" />
    <glyph glyph-name="3" unicode="3" 
d="M583 212q0 -59 28 -109t76 -79t103 -30t104 30t76 79t28 109t-28 109t-75 79t-105 29q-42 0 -81 -17l-35 71l-59 202q0 5 -2 10t-8 5l-82 31q-6 3 -12 0t-8 -9t1 -12t8 -8l73 -28l59 -180h-301v90h37q6 0 11 5t4 11t-4 12t-11 5h-96q-7 0 -11 -5t-5 -12t5 -11t11 -5h28
v-102l-30 -67q-36 14 -74 14q-57 0 -104 -29t-76 -79t-28 -109t28 -109t76 -79t103.5 -29.5t100.5 26.5t75 73t32 102h67q7 0 12 7l162 244l26 -50q-46 -30 -72 -78t-27 -107zM208 27q-48 0 -88 25t-65 68t-24 92t24 93t65 67t88 25q28 0 61 -12l-75 -166v-1q-1 -2 -1 -5v-1
q0 -4 1 -5v0q0 -1 1 -1l2 -3q0 -1 1 -1v-1l4 -3h1q2 -1 5 -1h176q-4 -47 -28 -86t-64 -61t-84 -23zM296 371q37 -22 61 -60t27 -83h-152zM474 228h-59q-4 55 -32 101t-73 72l27 60h291zM790 397q48 0 89 -25t64 -67t24 -93t-24 -92t-64 -68t-89 -25t-88 25t-64 68t-24 92
q0 48 22 89t59 66l82 -163q5 -9 13 -9q4 0 7 2q6 3 8 9t-1 12l-82 164q32 15 68 15z" />
    <glyph glyph-name="4" unicode="4" 
d="M500 850q-102 0 -195 -39q-89 -38 -158 -107t-108 -159q-39 -93 -39 -195q0 -89 31 -172q29 -80 84 -146v-1q77 -93 189 -141l27 -11l25 -8l27 -7l26 -6q4 0 12 -2q5 0 15 -2l29 -3h8q27 -2 54 0h8l45 5q6 2 11 2l27 6q13 3 26 7l10 3q10 4 15 5l27 11q112 48 189 141v0
q0 1 1 1q55 67 85 149t29 169q0 102 -39 195q-38 89 -107 159t-159 107q-93 39 -195 39zM703 -70l-1 -1l-22 -10l-23 -9l-24 -8q-12 -4 -24 -6q-8 -2 -12 -2l-13 -3l-35 -5q-5 -1 -17 -1q-2 -1 -7 -1q-25 -1 -50 0q-5 0 -7 1l-17 1l-24 3l-24 5q-4 0 -12 2l-13 3q-8 2 -11 4
q-12 3 -24 7l-6 3l-17 6l-22 10l-1 1q-88 42 -151 116q24 89 89 157t152 96q2 -2 5 -3l2 -1q2 -1 4 -3l15 -7l15 -6q35 -12 73 -12t71 12l30 13l6 4q3 1 5 3q88 -29 153 -96t88 -157q-63 -74 -151 -116zM317 483q0 50 25 92t66 67t92 25t92 -25t67 -67t24 -92q0 -53 -28 -97
t-76 -68v0q-1 0 -2 -1q-37 -17 -77 -17t-77 17q-1 1 -2 1q-48 23 -76 68t-28 97zM879 78q-29 84 -90 149t-144 96q34 31 53 73t19 87q0 59 -29 109t-79 79t-109 29t-108 -29t-79 -79t-30 -109q0 -46 19 -88t53 -72q-83 -32 -144 -96t-90 -149q-43 59 -65 129t-23 143
q0 126 64 235q62 106 168 168q109 64 235 64t235 -64q106 -62 168 -168q64 -109 64 -235q0 -74 -23 -145q-23 -68 -65 -127z" />
    <glyph glyph-name="5" unicode="5" horiz-adv-x="1129" 
d="M565 850q31 0 59 -15t45 -43l1 -1l281 -480q4 -8 2 -15t-7 -13t-14 -5q-13 0 -19 11l-281 479q-11 18 -28 28t-39 10t-39 -9t-29 -28l-440 -753h-1q-12 -19 -12 -42q0 -15 6 -30t16 -25q25 -25 58 -25h881q16 0 32 6t26 18t16 26t6 30q0 23 -12 42l-59 101q-5 8 -3 16
t8 13t14 4q13 0 19 -11l58 -100q16 -25 19 -55t-9 -57q-10 -23 -26 -40t-40 -27t-48 -10h-883q-25 0 -48 10t-40 27t-26 40t-9 47q0 33 19 65l441 752v1q17 28 45 43t59 15h1zM565 739q5 0 11 -3t8 -8l430 -733q7 -11 1 -23t-20 -11h-860q-13 -1 -20 11t1 23l430 733
q6 11 19 11zM565 673l-392 -667h783zM565 186q27 0 47 -19t19 -48t-19 -47t-47 -20t-47 20t-20 47t20 48t47 19zM565 141q-9 0 -15 -6t-7 -16t7 -15t15 -7t16 7t6 15t-6 16t-16 6zM982 236q9 0 16 -6t6 -16t-6 -15t-16 -7t-15 7l-7 15q-3 6 7 16t15 6zM565 503q27 0 47 -19
t19 -47q0 -12 -4 -41q-4 -34 -10 -65q-6 -37 -14 -61l-1 -3q-7 -16 -12 -24q-11 -13 -26 -13t-26 15q-6 9 -11 25v0q-9 22 -15 61q-6 31 -10 65q-4 29 -4 41q0 27 20 47t47 19zM565 459q-9 0 -15 -6t-7 -16t2 -31q3 -28 8 -55q6 -35 12 -54q7 26 12 54t7 55q3 23 3 32t-6 15
t-16 6z" />
    <glyph glyph-name="6" unicode="6" horiz-adv-x="1458" 
d="M1342 69q9 -2 17 3t9 13q9 38 3 76t-26 71t-50 56t-68 31q-9 2 -16 -2t-10 -14t3 -16t13 -10q29 -8 53 -25t39 -43t20 -54t-3 -59q-2 -9 3 -17t13 -10zM1430 254q-4 8 -12 11t-16 -1t-11 -12t1 -17q18 -37 23 -78t-6 -82q-11 -46 -38 -84t-66 -63t-86 -32t-91 4
q-61 15 -106 58t-63 105t-3 123q11 48 40 87t71 64l58 -131q-18 -14 -27 -34t-10 -42q0 -39 28 -67t66 -28q25 0 47 13t34 35t12 47q0 40 -27 68t-66 27q-9 0 -18 -2l-58 131q64 23 131 7q58 -14 100 -53q7 -6 16 -5t15 7t5 16t-7 14q-52 47 -119 63q-80 20 -158 -9
l-142 323h175q16 0 28 -12t12 -28t-12 -28t-28 -12h-34q-9 0 -15 -6t-6 -16t7 -15t14 -7h34q33 0 58 25t24 59t-24 59t-58 24h-191q-17 0 -26 -15t-4 -31l38 -87h-428l-29 55h91q20 0 35 15t15 35v46q0 19 -13 34t-32 17l-208 21q-22 2 -38 -13t-17 -38v-67q0 -21 15 -35
t35 -15h68l43 -81l-100 -209q-39 15 -81 18t-83 -7q-54 -13 -98 -46t-73 -80t-37 -103t4 -109t45 -100t79 -74t102 -38t107 5q58 14 105 51t74 89t31 111h98q7 -38 37 -63t68 -25q29 0 53 15t39 39t14 54q0 26 -11 49t-30 37l152 341l79 -180q-51 -29 -87 -76t-49 -104
q-17 -74 5 -145t74 -123t125 -70q53 -13 108 -5t101 38t80 74t44 100q11 48 6 97t-27 92zM1182 182q20 0 35 -15t15 -36t-14 -37t-36 -15t-36 15t-15 37t15 36t36 15zM446 725h-81q-3 0 -5 2t-2 5v67q0 8 7 8l208 -21q7 -2 7 -8v-46q0 -3 -2 -5t-5 -2h-127zM331 -100
q-45 -11 -91 -4t-86 32t-67 63t-38 84t-3 93t31 86q31 53 85 84t114 30q40 0 82 -16l-62 -129q-9 2 -19 2q-38 0 -65 -27t-28 -68t28 -67t65 -28q33 0 58 21t33 53h140q-4 -49 -27 -92t-62 -75t-88 -42zM328 130q0 -21 -15 -36t-36 -15t-36 15t-15 37t15 36t36 15t36 -15
t15 -37zM368 152q-7 32 -33 53l61 129q41 -25 69 -63t38 -85q3 -11 5 -33v-1h-140zM754 64q-27 0 -46 19t-19 46t19 46t46 19t45 -19t19 -46t-19 -46t-45 -19zM781 234q-13 4 -27 4q-39 0 -68 -24t-37 -62h-98q-1 22 -6 44q-13 56 -47 102t-83 75l86 181l143 -267
q5 -8 14 -10t16 2t10 13t-2 16l-148 275h402zM257 303q-2 8 -9 13t-16 3q-37 -9 -67 -31t-51 -56t-26 -71t3 -76q2 -9 10 -13t16 -2t13 10t2 16q-7 29 -2 59t20 55t39 43t53 24q8 3 13 11t2 15z" />
    <glyph glyph-name="7" unicode="7" horiz-adv-x="1563" 
d="M269 -135q9 -1 16 4t9 15t-4 16t-13 10q-66 12 -118 51t-83 99t-30 126q0 70 33 131t91 100t126 47t134 -18l-14 -28q-43 17 -90 17q-68 0 -125 -33t-90 -91t-34 -125t34 -125t90 -91t125 -33q63 0 118 30t90 82t40 114h31q-5 -63 -36 -116t-81 -90t-113 -47
q-8 -3 -13 -10t-3 -16t8 -15t16 -4q95 17 165 82t94 158q21 -19 52 -27v-46h-20q-10 0 -16 -6t-7 -17t7 -17t16 -6h85q10 0 17 6t6 17t-6 17t-17 6h-20v47q38 8 63 38t25 69t-22 66l271 300l25 -69q-87 -40 -138 -120t-52 -177q0 -89 45 -165q43 -73 116 -116
q76 -45 165 -45t165 45q73 43 116 116q45 76 45 165q0 77 -34 146t-97 116t-138 60t-150 -9l-78 210h131q7 -17 23 -27t33 -11q4 0 7 -2t2 -7t-2 -6t-7 -3h-28q-22 -4 -36 -21t-14 -39t14 -39t36 -21h28q35 0 65 18t48 47t17 64t-17 65t-48 48t-65 17q-18 0 -33 -10t-23 -27
h-164q-12 0 -19 -10t-3 -21l24 -62h-467l-15 39q13 7 23 23q6 11 18 11h97q20 0 31 17t4 35q-12 28 -37 46t-56 17h-235q-23 0 -40 -16t-17 -41q0 -28 14 -51t38 -37t51 -14h64l19 -51l-76 -152q-60 25 -125 24q-88 0 -164 -45q-74 -43 -117 -117q-45 -76 -45 -164
q0 -78 35 -146t96 -115t138 -60zM1237 467q76 0 141 -39q64 -37 101 -100q38 -66 38 -142t-38 -140t-102 -102t-140 -38t-140.5 38t-101.5 101q-39 65 -39 141q0 83 45 152t116 102l11 -29q-65 -31 -103 -92t-38 -133q0 -50 19 -95t54 -81t81 -54t96 -19q57 0 108 24t86 69
t48 98q2 9 -3 17t-14 11t-18 -3t-10 -15q-11 -45 -40 -80t-70 -55t-87 -20q-55 0 -102 28t-74 74t-28 101q0 58 30 107t81 75l49 -131q-11 -10 -17 -23t-6 -28q0 -27 20 -46t47 -20t47 20t19 46t-19 47t-47 20h-1l-49 131q39 10 80 4t75 -27t59 -54t33 -73q3 -13 16 -16
t23 5t6 22q-13 55 -48 99t-86 67t-108 24q-32 0 -66 -8l-11 29q39 11 77 11zM1237 207q7 -2 12 -7t4 -13t-4 -13t-12 -8q-7 2 -11 8t-5 13t5 13t11 7zM471 426q58 -35 93 -92t41 -125h-31q-5 58 -36 108t-81 81zM389 209q-5 13 -15 23l63 125q38 -25 62 -64t29 -84h-139z
M326 207q7 -2 12 -7t4 -13t-4 -13t-12 -8q-7 2 -11 8t-5 13t5 13t11 7zM326 -17q-55 0 -101 28t-74 74t-28 101q0 50 23 94t64 73t90 35t96 -11l-63 -125q-29 3 -51 -16t-23 -50q0 -24 16 -43t39 -23t46 8t29 35h139q-6 -51 -34 -92t-73 -64t-95 -24zM739 126v60q-2 8 -8 13
t-14 5t-15 -5t-8 -13v-60q-19 7 -30 24t-12 36q0 24 16 42t40 21t44 -10t26 -37t-5 -45t-34 -31zM1253 746q35 0 60 -24t24 -60t-24 -59t-60 -25h-28q-6 0 -10 5t-5 10t5 11t10 4h28q20 3 34 19t14 36t-14 36t-34 18q-5 1 -8 5t-3 10t3 9t8 5zM1052 616l5 -16l-287 -318
q-31 18 -66 14l-119 320h467zM387 793q0 5 4 8t7 3h235q14 0 26 -6t19 -18h-84q-18 0 -33 -9t-25 -24q-6 -11 -18 -11h-74q-24 0 -40 17t-17 40zM549 581l112 -300q-12 -7 -19 -14q-16 63 -55 115t-95 85z" />
    <glyph glyph-name="8" unicode="8" horiz-adv-x="1200" 
d="M350 685q35 0 67 -12t58 -36q38 -35 52 -84q42 21 89 21q42 0 80 -16t66 -47q37 16 78 15t78 -19t62 -49t35 -72q51 -3 94 -30t67 -72t24 -95q0 -38 -14 -73t-41 -64t-62 -43t-73 -17h-1q-8 2 -13 9t-6 15t5 15t13 8q40 1 73 22t53 54t19 74q0 31 -12 59t-34 49t-50 32
t-60 10q-10 -1 -17 5t-8 16q-5 34 -25 62t-51 43t-65 14t-64 -18q-8 -4 -16 -2t-14 8q-21 29 -53 45t-68 15q-51 0 -91 -30q-42 -32 -55 -84q-2 -7 -7 -12t-12 -6q-35 -5 -65 -22t-52 -45q-36 -46 -37 -105q34 4 65 -8q20 20 46 31t53 11q44 0 80 -25t51 -67q46 -11 79 -45
t41 -81h87q8 -2 14 -8t5 -15t-5 -15t-14 -9h-86q-5 -40 -27 -72t-56 -51t-75 -18h-352q-38 0 -70 19t-51 51t-19 70q0 35 17 66t45 50t63 23q7 25 23 45t39 33q-3 65 29 121q-52 22 -83 69t-31 102q0 50 25 93t68 67t92 25zM461 210q-22 0 -41 -10t-33 -27q-5 -8 -14 -10
t-17 3q-18 11 -39 12t-41 -9t-31 -26t-15 -39q-1 -9 -8 -14t-16 -6h-3q-39 0 -66 -27t-27 -66t27 -66t66 -27h352q30 0 56 15t41 41t15 56q0 42 -27 74t-69 38q-7 1 -12 6t-7 11q-8 31 -33 51t-58 20zM901 38zM145 329q7 7 17 7t17 -7t7 -17t-7 -17l-43 -42q-7 -7 -16 -7
t-17 7t-8 16t7 17zM350 638q-37 0 -69 -18t-50 -51t-19 -69q0 -45 27 -81t69 -50q49 55 121 70q17 51 57 86q-9 49 -47 81t-89 32zM84 523q10 0 17 -6t6 -17t-6 -16t-17 -7h-60q-14 0 -20 12t0 24t20 11zM103 748q7 7 17 7t16 -7l43 -43q7 -7 7 -17t-7 -16t-17 -7t-17 7
l-43 42q-8 7 -8 17t8 17h1zM564 748q7 7 17 7t17 -7t6 -17t-7 -17l-42 -42q-7 -7 -17 -7t-17 7t-7 17t7 16zM350 850q10 0 17 -6t6 -17v-61q2 -7 0 -14t-9 -12t-14 -5t-14 5t-8 12t-1 14v61q0 10 7 17t16 6z" />
    <glyph glyph-name="9" unicode="9" horiz-adv-x="1042" 
d="M1042 639q0 6 -4 11t-11 5t-11 -5t-5 -11v-402q0 -14 -10 -24t-23 -10t-24 10t-10 24v549q0 14 10 24t24 9t23 -9t10 -24v-75q0 -6 5 -11t11 -4t11 5t4 10v75q0 26 -19 45t-45 19t-45 -19t-19 -45v-16q-50 -55 -118 -85t-143 -30h-229q-21 0 -36 -13t-19 -34h-3
q-20 0 -38 -7t-33 -22t-21 -33t-8 -39q0 -27 14 -50t36 -36t50 -14h5q5 -13 14 -23q16 -16 39 -16h2v-27q-29 -3 -55 -17t-44 -38l-14 -18q-12 -15 -19 -22q-11 -11 -26 -15v19q0 14 -9 24t-24 9h-51q-11 0 -20 -7t-12 -18h-119q-14 0 -23 -9t-10 -24v-309q0 -13 10 -23
t23 -10h119q3 -11 12 -18t20 -6h51q13 0 23 9t10 23v23h10q18 0 30 -5q6 -2 21 -9q38 -16 65 -24q46 -13 96 -13h100q21 0 36 15t14 36v22q0 15 -6 25q13 6 21 18t8 28v23q0 15 -8 26q12 7 19 19t7 25v23q0 17 -9 29q10 7 16 18t5 24v22q0 21 -14 36t-36 15h-42l14 101h38
q75 0 143 -30t118 -86v-15q0 -27 19 -45t45 -19t46 19t18 45v402zM366 437q-29 0 -49 21t-21 49t21 50t49 20h2v-140h-2zM424 399q-10 0 -17 7t-8 16v177q0 11 8 18t17 7h181v-225h-181zM238 -109q0 -1 -1 -2t-2 0h-51q-1 -1 -2 0t-1 2v216q0 6 -4 11t-11 4t-10 -4t-5 -11
v-193h-118q-2 0 -2 2v309q0 2 2 3h118v-50q0 -6 5 -10t10 -5t11 5t4 10v72q0 2 3 2h51q3 0 3 -2v-359zM663 216v-22q0 -8 -6 -14t-14 -6h-13q-6 0 -11 -4t-4 -11t5 -11t11 -5t13 -6t6 -14v-23q0 -8 -6 -14t-14 -6h-18q-6 0 -10 -4t-5 -11t5 -10l24 -11q8 -4 6 -14v-23
q0 -8 -6 -14t-14 -6h-22q-6 0 -10 -5t-5 -11t5 -11t11 -4t13 -6t6 -14v-22q0 -8 -6 -14t-14 -6h-100q-43 0 -84 11q-24 7 -59 21q-20 9 -28 11q-20 8 -46 7h-5v256q25 5 44 21q11 9 26 30q9 12 13 16q14 18 34 29t41 14v-27q0 -19 14 -33t33 -14h170q8 0 14 -6t6 -14z
M570 267h-97q-7 0 -11 5t-5 11v85h127zM653 399h-17v225h17q73 0 141 27t120 76v-431q-53 50 -120 77t-141 26z" />
    <glyph glyph-name="profil" unicode=":" 
d="M519 792q-77 0 -144 -39q-64 -38 -102 -102q-39 -67 -39 -144.5t39 -143.5q38 -65 102 -103q67 -39 144.5 -39t143.5 39q65 38 103 103q39 66 39 143.5t-39 144.5q-38 64 -103 102q-66 39 -144 39zM519 709q56 0 102.5 -27t73.5 -73.5t27 -102t-27 -102t-73.5 -73.5
t-102 -27t-102 27t-73.5 73.5t-27 102t27 102t73.5 73.5t101.5 27zM380 181h-7q-25 0 -40 -3t-30 -14.5t-22 -26.5q-11 -24 -32 -83q-8 -23 -7 -44q0 -28 15 -49.5t44 -37.5q25 -15 70 -30q65 -21 144.5 -22t142.5 17h1q41 12 59 19q28 10 48 22q26 17 37 39q7 13 8 28.5
t-3 29.5q-8 32 -24 72l-7 16q-8 25 -22 40q-10 10 -24.5 16.5t-29.5 8.5q-31 0 -62 1h-109l-150 1v0zM380 98h1h2q79 -1 147 -1q77 0 108 -1q24 0 53 -1h4l3 -8q3 -10 11 -28q13 -31 18 -53q1 -1 0.5 -1.5l-2.5 -2.5l-3 -2q-17 -10 -87 -32q-46 -13 -117 -12q-73 1 -121 17
q-33 10 -54 23q-16 8 -18 13l-1 1q-1 2 -1 3l4 13q18 49 28 71q11 0 25 1z" />
    <glyph glyph-name="upublciznij" unicode=";" 
d="M594 195v-78h146q49 0 86 18.5t56 48.5q20 34 20 74q0 52 -27 91q-28 41 -74 58q0 56 -17 97q-18 45 -50 78t-75 51t-93 18q-42 0 -75 -13q-36 -13 -62.5 -33.5t-48.5 -51.5q-26 7 -58 0q-26 -5 -53 -24q-23 -18 -38.5 -43.5t-17.5 -59.5q-38 -8 -63 -29t-39 -53
q-14 -29 -14 -70q0 -43 21 -79q20 -34 60 -57q39 -21 91 -21h129v78h-129q-32 0 -52 11t-30.5 30t-10.5 41q0 42 26.5 67t72.5 25q7 0 6 7q-1 43 15 70q18 25 48 34q29 7 65 -2q6 -1 9 3q16 29 35 48q21 21 48.5 32.5t63.5 11.5q45 0 81 -22t57.5 -57.5t23.5 -79.5
q1 -14 0 -29q0 -10 -2 -26q0 -7 6 -7q45 -8 68 -29.5t23 -57.5q0 -31 -20.5 -50.5t-64.5 -19.5h-143zM496 -32q15 0 25 11t10 23v278l-5 51l18 -24l38 -39q11 -9 23.5 -9t21 8t8.5 20.5t-9 21.5l-103 97q-6 6 -14 9q-6 3 -12.5 3t-14 -3.5t-14.5 -8.5l-102 -97
q-10 -10 -10 -22t9 -20t22 -8t23 9l37 39l19 24l-5 -51v-278q0 -14 10 -24t25 -10z" />
    <glyph glyph-name="radial_off" unicode="&#x3c;" 
d="M500 767q-113 0 -210 -57q-95 -55 -150 -150q-57 -97 -57 -210t57 -210q55 -95 150 -150q97 -57 210 -57t210 57q95 55 150 150q57 97 57 210t-57 210q-55 95 -150 150q-97 57 -210 57zM500 683q91 0 169 -45q75 -44 119 -119q45 -78 45 -169t-45 -169q-44 -75 -119 -119
q-78 -45 -169 -45t-169 45q-75 44 -119 119q-45 78 -45 169t45 169q44 75 119 119q78 45 169 45z" />
    <glyph glyph-name="select" unicode="=" 
d="M788 550q-16 0 -27 -11l-323 -323l-149 148q-11 11 -26.5 11t-26.5 -11t-11 -26.5t11 -26.5l202 -202l376 377q11 11 11 26.5t-11 26.5t-26 11z" />
    <glyph glyph-name="radial_on" unicode="&#x3e;" 
d="M500 767q-113 0 -210 -57q-95 -55 -150 -150q-57 -97 -57 -210t57 -210q55 -95 150 -150q97 -57 210 -57t210 57q95 55 150 150q57 97 57 210t-57 210q-55 95 -150 150q-97 57 -210 57zM500 683q91 0 169 -45q75 -44 119 -119q45 -78 45 -169t-45 -169q-44 -75 -119 -119
q-78 -45 -169 -45t-169 45q-75 44 -119 119q-45 78 -45 169t45 169q44 75 119 119q78 45 169 45zM500 600q-68 0 -125.5 -33.5t-91 -91t-33.5 -125.5t33.5 -125.5t91 -91t125.5 -33.5t125.5 33.5t91 91t33.5 125.5t-33.5 125.5t-91 91t-125.5 33.5z" />
    <glyph glyph-name="signal" unicode="?" 
d="M499 17q18 0 29 8q13 7 21.5 21t8.5 29.5t-8.5 29.5t-21.5 21.5t-29 7.5t-29.5 -7.5t-22 -21.5t-8.5 -29.5t8.5 -29.5t21 -21.5t30.5 -7.5zM499 196q17 0 26 10q11 11 11 27q1 25 1 76.5t1 77.5q0 53 1 79v78q1 25 1 75q0 17 -12.5 28.5t-29 11.5t-29 -11.5t-12.5 -28.5
q0 -50 1 -75v-78l2 -79v-78l2 -76q0 -17 10 -27t27 -10zM591 397l-2 -117q31 -11 53 -28q21 -13 43 -36q6 -6 13.5 -5t12.5 5l55 55q5 4 6 10.5t-4 11.5q-30 36 -76.5 64t-100.5 40zM406 397q-51 -11 -101 -40q-44 -25 -76 -64q-4 -4 -4 -11q0 -4 5 -11l57 -55q6 -6 12.5 -6
t13.5 7q16 18 43 37q25 16 52 27zM403 613q-68 -13 -124 -37q-61 -24 -109 -59q-52 -36 -85 -78l-1 -2q-3 -6 -3 -9q2 -8 6 -12l50 -51q5 -5 13 -5t12 6q52 55 111 87.5t132 46.5zM593 613l-1 -113q73 -14 130 -47q64 -36 113 -88q7 -5 12 -5q9 2 13 7l51 49q5 7 5 12.5
t-4 10.5q-37 43 -86 78t-107.5 59.5t-125.5 36.5z" />
    <glyph glyph-name="rower" unicode="@" 
d="M688 767q-34 0 -59 -24t-25 -59t25 -59t59 -25t59 25t24 59t-24 59t-59 24zM560 621q-26 -2 -44 -21l-166 -183l-4 -5q-14 -19 -12 -43t20 -40q4 -4 14 -10l9 -6l130 -65l-65 -129l-2 -5q-5 -15 1 -29t20 -22t31 -2t24 20l68 136q12 30 1 61t-41 45l-77 38l132 144
l115 -82l9 -6q41 -25 88 -25h48q16 1 27 13t10 29t-12 29t-30 12h-50q-24 3 -41 16l-156 111l-2 3q-21 18 -45 16zM208 350q-56 0 -104 -28t-76 -76t-28 -104t28 -105t76 -76t105 -28t104 28t76 76t28 105t-28 104t-76 76t-105 28zM792 350q-57 0 -105 -28t-76 -76t-28 -104
t28 -105t76 -76t105 -28t104 28t76 76t28 105t-28 104t-76 76t-104 28zM208 267q34 0 63 -17t46 -45t16 -63t-16 -63t-46 -45t-63 -17t-62 17t-46 45t-17 63t17 63t46 45t62 17zM792 267q34 0 63 -17t45 -45t17 -63t-17 -63t-45 -45t-63 -17t-63 17t-45 45t-17 63t17 63
t45 45t63 17z" />
    <glyph glyph-name="explor" unicode="A" 
d="M733 793q-33 0 -64 -12t-55 -37q-30 -30 -42 -69t-5 -79t31 -74l71 -93q16 -21 41 -28t48 0t40 28l70 93q25 33 32 74t-5 79t-42 69q-24 24 -55 37t-65 12zM733 737q22 0 43 -8t37 -25q30 -30 33 -72t-23 -76l-70 -93q-7 -10 -19 -10t-20 10l-70 93q-26 34 -23 76t33 72
q16 16 37 25t42 8zM733 683q-27 0 -46 -19t-20 -47t20 -47t47 -20t47 20t19 47t-19 47t-48 19zM733 627q5 0 8 -2t2 -7l-2 -8q-1 -3 -7 -3t-8 3t-3 7t3 7t7 3zM269 443q-42 0 -80 -15t-68 -46q-37 -37 -52 -85t-7 -99t39 -92l101 -133q16 -21 42 -29t51 0t41 29l101 133
q31 41 40 92t-7 99t-52 85q-30 30 -69 46t-80 15zM269 387q30 0 59 -11t50 -34q27 -27 38 -62t5 -72t-30 -67l-100 -134q-8 -11 -21 -11t-23 11l-100 134q-23 30 -29 67t5 72t38 62q22 22 50 34t58 11zM658 345q-28 0 -51 -14t-38 -37t-14 -52t14 -52t38 -38t51 -14h177
q29 0 50 -20t20 -49t-20 -49t-50 -21h-418q-12 0 -20 -9t-9 -20t9 -20t20 -8h418q34 0 64 17t46 47t17 63t-17 63t-46 46t-64 17h-177q-19 0 -32 14t-14 33t14 33t32 13h75q12 0 21 9t8 20t-8 20t-21 8h-75zM267 317q-34 0 -59 -24t-25 -59t25 -59t59 -25t59 25t24 58
t-24 59t-59 25zM267 260q11 0 19 -8t7 -19t-7 -18t-19 -8t-19 8t-8 18t8 19t19 8z" />
    <glyph glyph-name="bike" unicode="B" 
d="M597 712q-12 0 -20 -8t-8 -21t8 -20t20 -8h41l48 -126l-294 -37l-41 82h5q12 0 20 9t8 20t-8 20t-20 8h-81q-12 0 -20 -8t-8 -20t8 -20t20 -9h14l1 -4l52 -105l-38 -47q-42 24 -90 24t-90 -24t-66 -67t-25 -91t25 -90t66 -66t91 -25t91 25t66 66t24 90q0 35 -12 67
t-36 55l24 30l100 -166q7 -13 22 -14t24 10l190 228l21 -53q-42 -24 -66 -65t-25 -91t25 -91t66 -66t90 -25t91 25t66 66t24 90t-24 91t-66 67t-91 24q-13 0 -37 -4l-98 255q-3 8 -10 14t-16 5h-61zM630 465l-130 -156l-78 130zM215 385q29 0 53 -12l-76 -95q-7 -9 -6 -21
t11 -19t21 -6t19 11l76 95q26 -36 26 -78q0 -34 -16 -62t-45 -45t-63 -17t-63 17t-45 45t-17 62t17 63t45 46t63 16zM819 385q34 0 63 -16t45 -46t16 -63t-16 -62t-45 -45t-63 -17t-62 17t-46 45t-17 61t15 61t40 44l43 -114q4 -11 15 -16t22 0t16 15t0 22l-43 113q6 1 17 1
z" />
    <glyph glyph-name="chevron-down" unicode="C" 
d="M323 419q-15 0 -26 -11t-11 -26t11 -27l177 -177q11 -11 27 -11t26 11l176 177q11 11 11 27t-11 26t-26 11t-27 -11l-150 -150l-150 150q-11 11 -27 11z" />
    <glyph glyph-name="discovery" unicode="D" 
d="M500 788q-85 1 -165 -33t-143 -95t-96 -139t-33 -164t30 -168t89 -141t136 -96t164 -39t163 24q82 28 147 87t104 139t41 165q5 83 -23 164t-84 145t-131 103q-94 48 -199 48zM495 704q53 1 103 -13t93 -43q75 -47 120 -128t43 -170q1 -79 -34 -152t-99 -125t-141 -68
q-73 -18 -148 -2t-139 60t-100 111q-40 67 -46 149q-6 79 23 155t86 128q46 46 110 72q62 24 129 26zM328 558q-12 0 -23 -8q-15 -13 -13 -35q2 -19 14 -36q14 -24 41 -74l27 -48q18 -36 45 -66t59 -51l145 -80q18 -13 35 -17q21 -5 37 8t13 34q-1 19 -14 36q-23 40 -67 122
q-39 77 -108 119l-142 78q-27 19 -49 18zM500 392q16 0 28 -10t14 -26t-6 -29t-23 -17t-29 2t-21 18t-3 28t14 24t26 10z" />
    <glyph glyph-name="edit-1" unicode="E" 
d="M735 725q-45 0 -75 -29l-27 -27l177 -177l26 28q20 20 27 47t-1 55t-28 47l-25 25q-15 15 -34 23t-40 8zM583 589q-14 0 -27 -5t-23 -16l-359 -358q-18 -18 -20 -46l-5 -82v-9q2 -29 25 -48t51 -18l80 6q27 2 45 20l359 359q20 21 20 51t-20 50l-76 75q-21 21 -50 21z
M583 512l70 -70l-355 -354l-74 -6l4 76z" />
    <glyph glyph-name="filtr" unicode="F" 
d="M313 718q-44 0 -78 -26q-33 -23 -49 -62t-9 -79q6 -44 37 -75l-2 2l134 -165l1 -2q22 -22 22 -55v-71q0 -28 13 -52t35 -42l77 -54q27 -19 60 -14t55 30t22 57v146q0 32 22 56l135 166l-2 -2q31 31 38 75q6 40 -10 79t-48 62q-35 26 -79 26h-374zM313 643h222h152
q29 0 47 -19t19 -47t-21 -49l-135 -167l2 3q-20 -22 -31 -50t-12 -58v-146q0 -10 -5 -13t-14 1l-76 54q-17 14 -17 33v71q0 30 -11 58t-32 50l2 -3l-135 167q-21 21 -20 49t18 47t47 19z" />
    <glyph glyph-name="navigate" unicode="G" 
d="M771 709q-27 6 -52 -4l-627 -261q-26 -11 -40 -34t-14 -49t16 -48t41 -33l223 -83q4 -2 8 -8l83 -223q9 -26 32 -42t49 -16t49 14t34 40l261 628q10 25 5 52t-24 44q-21 19 -44 23zM748 636q8 3 15 -3t2 -15l-262 -627q-1 -5 -4 -7t-8 -1q-8 0 -12 9l-83 223
q-7 18 -20 32t-32 20l-223 83q-5 2 -6 5l-2 7q-2 8 8 12z" />
    <glyph glyph-name="home" unicode="H" 
d="M500 712q-44 0 -83 -25l-179 -118q-31 -20 -48 -53t-18 -70v-310q0 -40 20 -74t55 -54t74 -20h23q35 0 60 25t24 59v139q0 6 4 10t10 4h116q6 0 10 -4t4 -10v-139q0 -34 25 -59t59 -25h23q40 0 75 20t54 54t20 74v310q0 37 -17 70t-49 53l-179 118q-39 25 -83 25z
M500 655q28 0 52 -15l179 -118q19 -13 30 -33t11 -43v-310q0 -38 -27 -64t-66 -27h-23q-12 0 -20 8t-8 19v139q0 29 -20 50t-50 20h-116q-29 0 -49 -20t-21 -50v-139q0 -11 -8 -19t-20 -8h-23q-39 0 -66 27t-27 64v310q0 23 11 43t31 33l178 118q24 15 52 15z" />
    <glyph glyph-name="like=off" unicode="I" 
d="M464 711q-39 0 -71 -24t-43 -64l-50 -195q-4 -14 -4 -26v-260q0 -32 17 -60t44 -44t60 -17h227q36 0 66 20t43 54l93 231q15 37 4 75t-42 62t-71 24h-188l22 88q8 29 -1 58t-31 50t-52 26h-2q-14 2 -21 2zM464 636q6 0 8 -1q16 -3 24 -14t3 -28l-27 -102q-5 -19 3 -37
t23 -30t36 -12h203q23 0 36 -18t3 -40l-92 -231q-5 -13 -15 -20t-25 -7h-227q-19 0 -32 14t-14 32v260l1 3v3l1 1l50 195q4 13 16 23t25 9zM167 388q-16 0 -27 -11t-11 -27v-250q0 -15 12 -26t26 -11t26 11t11 26v250q0 15 -11 27t-26 11z" />
    <glyph glyph-name="like=on" unicode="J" 
d="M464 711q-39 0 -71 -24t-43 -64l-50 -197q-4 -14 -4 -24v-260q0 -33 16 -61t44 -44t61 -16h227q36 0 66 20t43 54l93 231q15 38 4 76t-42 61t-71 24h-188l22 88q8 30 0 59t-31 49t-53 26h-2q-14 2 -21 2zM167 408q-25 0 -42 -17t-17 -41v-250q0 -24 17 -41t42 -17t41 17
t17 41v250q0 24 -17 41t-41 17z" />
    <glyph glyph-name="comment" unicode="K" 
d="M501 716q-68 0 -132 -20t-120 -59q-76 -54 -116 -133q-38 -77 -35 -163t48 -162l-51 -152q-3 -8 -1 -16t7 -16t15 -9t16 0l188 40q87 -39 183 -39t179 38q87 38 145 109q60 72 75 162q14 88 -17 171q-32 86 -104 148q-55 47 -122 73t-140 28h-18zM333 381q13 0 23 -9
t9 -22v0q0 -13 -9 -22t-23 -10t-22 10t-9 22v0q0 13 9 22t22 9zM500 381q13 0 22 -9t9 -22v0q0 -13 -9 -22t-22 -10t-22 10t-9 22v0q0 13 9 22t22 9zM667 381q13 0 22 -9t9 -22v0q0 -13 -9 -22t-22 -10t-22 10t-9 22v0q0 13 9 22t22 9z" />
    <glyph glyph-name="like" unicode="L" horiz-adv-x="1057" 
d="M614 783q-37 0 -63 -26t-27 -64v-57q0 -63 -31 -118q-30 -51 -82 -84t-115 -41v-328q0 -40 20 -74t53 -54t74 -20h402q26 -2 51 22q27 27 37 74l56 281q0 37 -26 63t-63 26h-172q-10 0 -17 7t-7 17v286q0 38 -26 64t-64 26zM100 383q-14 0 -23 -9t-10 -24v-400
q0 -13 10 -23t23 -10h114q14 0 24 9t9 24v433h-147z" />
    <glyph glyph-name="download" unicode="M" 
d="M292 756q-31 0 -57 -15t-42 -42t-16 -57v-584q0 -31 16 -57t42 -42t57 -15h416q31 0 58 15t42 42t15 57v459q0 13 -9 22l-209 208q-9 9 -22 9h-291zM604 704l167 -166h-146q-9 0 -15 6t-6 14v146zM500 423q13 0 22 -9t9 -22v-175l72 72q9 9 22 9t22 -9t9 -22t-9 -22
l-125 -125q-9 -9 -22 -9t-22 9l-125 125q-9 9 -9 22t9 22t22 9t22 -9l72 -72v175q0 13 9 22t22 9z" />
    <glyph glyph-name="more" unicode="N" horiz-adv-x="5000" 
d="M375 725q102 0 189 -51q85 -50 135 -135q51 -87 51 -189t-51 -189q-50 -85 -135 -135q-87 -51 -189 -51t-189 51q-85 50 -135 135q-51 87 -51 189t51 189q50 85 135 135q87 51 189 51zM2500 725q102 0 189 -51q85 -50 135 -135q51 -87 51 -189t-51 -189
q-50 -85 -135 -135q-87 -51 -189 -51t-189 51q-85 50 -135 135q-51 87 -51 189t51 189q50 85 135 135q87 51 189 51zM4625 725q102 0 189 -51q85 -50 135 -135q51 -87 51 -189t-51 -189q-50 -85 -135 -135q-87 -51 -189 -51t-189 51q-85 50 -135 135q-51 87 -51 189t51 189
q50 85 135 135q87 51 189 51z" />
    <glyph glyph-name="map" unicode="O" 
d="M133 64q0 -23 14 -36t36 -14q17 0 33 10l135 73v595l-14 -6q-5 -2 -15 -8l-153 -87q-20 -11 -28 -25t-8 -36v-466zM403 107l161 -90l6 -3l8 -3q7 -4 14 -5v580l-174 103q-10 4 -15 5v-587zM644 8q1 1 4 1l3 1q4 2 6 4l173 97q20 12 29 27t8 35v462q0 26 -14 38t-39 12
q-19 0 -36 -10l-134 -74v-593z" />
    <glyph glyph-name="profile" unicode="P" 
d="M500 750q-54 0 -100 -27t-73 -73t-27 -100t27 -100t73 -73t100 -27t100 27t73 73t27 100t-27 100t-73 73t-100 27zM500 693q39 0 72 -19t52 -52t19 -72t-19 -72t-52 -52t-72 -19t-72 19t-52 52t-19 72t19 72t52 52t72 19zM500 314q-121 0 -225 -61q-35 -20 -55 -55
t-20 -75l1 -56l14 -19l28 -20q84 -47 178 -63t188 4t174 70q8 5 13 14t4 17v53q0 40 -20 75t-55 55q-51 30 -108 46t-117 15zM500 257q105 0 197 -53v0q22 -12 34 -33t12 -48v-40q-74 -45 -158 -60t-169 0t-159 60v40q0 26 12 48t34 33q92 53 197 53z" />
    <glyph glyph-name="public" unicode="Q" 
d="M500 -150q102 0 195 39q89 38 159 107t107 159q39 93 39 195t-39 195q-38 89 -107 159t-159 107q-93 39 -195 39t-195 -39q-89 -38 -158 -107t-108 -159q-39 -93 -39 -195t39 -195q38 -89 108 -159t158 -107q93 -39 195 -39zM262 466q71 50 155 67t167 0t154 -67l118 -82
q12 -8 16 -21t0 -26t-16 -21l-118 -82q-71 -50 -154 -67t-167 0t-155 67l-118 82q-11 8 -15 21t0 26t15 21zM625 350q0 -34 -17 -62t-45 -46t-63 -17t-62 17t-46 46t-17 62t17 63t46 45t62 17t63 -17t45 -45t17 -63z" />
    <glyph glyph-name="routeadded" unicode="R" 
d="M500 834q-81 0 -155 -30q-77 -31 -137 -91q-79 -79 -107 -187q-28 -104 0 -209q28 -108 107 -187l239 -239q23 -22 54 -22t52 22l239 239q79 79 107 187q28 105 0 209q-28 108 -107 187q-60 60 -137 91q-74 30 -155 30zM414 669h181q34 0 51 -18t16 -49v-400
q0 -13 -7 -22t-21 -9q-8 0 -15 6l-24 20l-89 88q-1 3 -4 0l-96 -95l-16 -13q-7 -6 -16 -6q-12 0 -19 8t-8 23v400q0 33 17 50t50 17zM62 421q35 -136 87 -350l-88 357q-2 7 1 -7z" />
    <glyph glyph-name="save=off" unicode="S" 
d="M342 14q13 0 26 8t30 25l116 119q3 3 5 0l117 -119q20 -20 29 -25q13 -8 26 -8q24 0 38 16t13 40v552q0 48 -25 76t-75 27h-250q-48 0 -74 -26t-26 -77v-552q0 -27 14 -41t36 -15zM378 143q-2 -2 -5 -1t-4 5v467q0 17 8 25t23 7h233q16 0 24 -8t8 -24v-467q0 -4 -3 -5
t-6 1l-113 113q-13 13 -26 13t-27 -13z" />
    <glyph glyph-name="save=on" unicode="T" 
d="M333 -11q-9 -8 -23 -8q-18 0 -28 11t-11 33v570q0 47 24 72t72 24h258q48 0 72 -24t24 -72v-570q0 -20 -11 -33q-9 -11 -28 -11q-15 0 -24 8l-32 29l-127 125q-3 3 -6 0l-127 -125q-22 -22 -33 -29z" />
    <glyph glyph-name="user" unicode="U" 
d="M500 850q-17 0 -29 -12t-13 -30v-43q-97 -10 -178.5 -61.5t-133 -133t-61.5 -178.5h-43q-17 0 -29 -12t-13 -30t13 -29t29 -13h43q10 -97 61.5 -178.5t133 -133t178.5 -61.5v-43q0 -17 13 -30t29 -12t30 12t12 30v43q97 10 178.5 61.5t133 133t61.5 178.5h43q17 0 30 13
t12 29t-12 30t-30 12h-43q-10 97 -61.5 178.5t-133 133t-178.5 61.5v43q0 17 -12 30t-30 12zM500 683q91 0 169 -45q75 -44 119 -119q45 -78 45 -169t-45 -169q-44 -75 -119 -119q-78 -45 -169 -45t-169 45q-75 44 -119 119q-45 78 -45 169t45 169q44 75 119 119
q78 45 169 45zM500 433q-34 0 -58 -24t-25 -59t25 -58t58 -25t59 25t24 58t-24 59t-59 24z" />
    <glyph glyph-name="share" unicode="V" 
d="M500 260q14 0 25 11t10 24v345l-3 51l20 -26l47 -49q9 -11 22 -11t22 9t9 21t-9 22l-116 111q-12 12 -27 12t-26 -12l-116 -111q-10 -10 -10 -22t9 -21t21 -9q15 0 24 11l46 49l21 26l-3 -51v-345q0 -14 10 -24t24 -11zM300 -19h400q57 0 87 30t29 86v338q0 57 -29 86
t-87 29h-92v-75h86q47 0 47 -48v-323q0 -24 -12 -36t-35 -12h-388q-23 0 -35 12t-12 36v323q0 48 47 48h87v75h-93q-57 0 -86 -29t-30 -86v-338q0 -57 30 -86t86 -30z" />
    <glyph glyph-name="system=android" unicode="W" 
d="M750 763q-44 0 -81 -22t-59 -59t-22 -82q0 -26 7 -47l-228 -133q-22 24 -52 38t-65 13q-44 0 -81 -22t-59 -59t-22 -82t22 -81t59 -59t81 -22q40 0 75 18t56 49l209 -87q-2 -8 -2 -26q0 -44 22 -81t59 -60t81 -22t82 22t59 60t22 81t-22 82t-59 59t-82 22q-40 0 -74 -18
t-57 -50l-209 87q3 14 3 26q0 24 -8 48l228 132q22 -24 53 -37t64 -13q44 0 82 22t59 59t22 81t-22 82t-59 59t-82 22zM750 688q37 0 63 -25t25 -63t-25 -62t-63 -25t-62 25t-25 62t25 63t62 25zM250 396q37 0 63 -25t25 -62t-25 -62t-63 -26t-62 26t-25 62t25 62t62 25z
M750 188q37 0 63 -25t25 -63t-25 -62t-63 -25t-62 25t-25 62t25 63t62 25z" />
    <glyph glyph-name="exit" unicode="X" 
d="M206 102q-13 -13 -13 -32t13 -32t33 -14t32 12l249 250l250 -250q13 -13 33 -12t33 14t13 32t-14 32l-249 250l249 249q14 13 14 33t-13 32t-33 14t-33 -13l-250 -250l-249 250q-13 13 -32 13t-33 -13t-13 -33t13 -33l249 -249z" />
    <glyph glyph-name="more-1" unicode="Y" 
d="M274 359q0 31 -21 53t-53 21q-22 0 -38 -9t-27 -28q-10 -16 -10 -37t11 -38t26 -26t38 -10t37 10q18 9 28 26t9 38zM555 359q0 30 -22 52t-52 22q-22 0 -38 -9t-26 -27t-10 -37t10 -38t26 -27t38 -10t37 10t27 26q10 20 10 38zM836 359q0 31 -21 53t-54 21q-21 0 -37 -9
t-28 -28q-9 -16 -9 -36t9 -39q11 -18 28 -27t38 -9t37 10t27 26t10 38z" />
    <glyph glyph-name="sortowanie" unicode="Z" 
d="M208 600q-17 0 -29 -12t-12 -30t12 -29t29 -12h584q17 0 29 12t12 29t-12 30t-29 12h-584zM208 392q-17 0 -29 -12t-12 -30t12 -29t29 -13h355q17 0 29 13t12 29t-12 30t-29 12h-355zM208 183q-17 0 -29 -12t-12 -29t12 -29t29 -13h167q17 0 30 13t12 29t-12 29t-30 12
h-167z" />
    <glyph glyph-name="pauza" unicode="[" 
d="M317 656q-28 0 -47 -19t-20 -48v-478q0 -28 20 -47t47 -20h33q28 0 48 20t19 47v478q0 28 -19 48t-48 19h-33zM650 656q-28 0 -47 -19t-20 -48v-478q0 -28 20 -47t47 -20h33q28 0 48 20t19 47v478q0 28 -19 48t-48 19h-33z" />
    <glyph glyph-name="play" unicode="]" 
d="M802 404q20 -12 28 -33t0 -42t-28 -33l-500 -289q-20 -12 -42 -8t-37 22t-15 40v578q0 23 15 40t37 22t42 -8z" />
    <glyph glyph-name="a" unicode="a" 
d="M942 142q-5 0 -7 1q-8 3 -11 11t1 15q37 88 37 181q0 125 -63 233q-61 105 -166 166q-108 63 -233 63q-22 0 -44 -3q-8 -1 -14 5t-7 13t4 14t13 7q24 2 48 2q102 0 195 -39q89 -38 159 -107t107 -159q39 -93 39 -196t-40 -196q-5 -11 -18 -11zM500 -150q-102 0 -195 39
q-89 38 -158 107t-108 159q-39 93 -39 195q0 99 38 192q3 7 11 11t14 0t11 -10t0 -15q-36 -85 -36 -178q0 -125 63 -233q62 -104 166 -166q108 -63 233 -63q73 0 142 22t128 65q6 5 14 4t13 -8t4 -15t-9 -12q-64 -46 -138 -70t-154 -24zM229 619v127q0 15 -2 24t-8 15
t-14 10t-19 3t-19 -5q-6 -3 -16 -13q-5 8 -14 13t-20 5t-18 -5q-4 -2 -11 -11v13h-34v-176h35v127q0 9 5 15t13 5t12 -5t5 -15v-127h35v127q0 9 5 15t13 5t12 -5t5 -15v-127h35zM371 795h-39l-23 -120l-23 120h-39l44 -175l-3 -13q-3 -11 -10 -14t-22 -4v-31q28 0 42 6
q18 9 24 33zM608 266l182 235h-104q-26 0 -41 -4t-27 -12q-10 -5 -20 -15q-3 -3 -128 -158l-37 -46l246 -185l16 -9q5 -3 19 -9q10 -4 28 -7q15 -3 41 -3h104zM345 266l280 363h-119q-32 0 -47 -4t-32 -14q-13 -8 -22 -17l-68 -86q-192 -242 -193 -242l171 -129l19 -10
q11 -7 22 -11q9 -3 31 -7q20 -3 48 -3h119z" />
    <glyph glyph-name="b" unicode="b" horiz-adv-x="1273" 
d="M798 217l310 406h-177q-41 0 -70 -8q-25 -7 -47 -20q-19 -10 -33 -26q-6 -6 -234 -293l-47 -59l418 -319l28 -16q12 -8 33 -16q10 -4 37 -10l9 -2q25 -4 70 -4h178zM342 219l476 631h-203q-48 0 -80 -9q-27 -8 -54 -22l-2 -2q-26 -18 -35 -29q-7 -7 -225 -287t-219 -282
l291 -223l31 -18q18 -11 38 -18q16 -7 53 -14q35 -5 81 -5h203z" />
    <glyph glyph-name="c" unicode="c" horiz-adv-x="10759" 
d="M846 850h-483l-363 -993h44q87 0 169 9q88 11 153 32q69 22 119 59q37 26 60 70zM2115 850h-534l-885 -491l539 -404q29 -15 57 -33q24 -15 68 -32q38 -13 97 -24q57 -9 146 -9h369l-686 527zM6437 796q-103 52 -300 52h-1072q-95 0 -172 -13t-151 -42q-63 -24 -116 -65
q-48 -39 -63 -83l-217 -587q-15 -49 6 -85t67.5 -62.5t120.5 -41.5q76 -14 163 -14h1071q87 0 177 11q88 13 154 37q64 22 118 61q48 37 67 91l213 587q37 102 -66 154zM5833 132q-7 -18 -23 -30q-20 -15 -42 -24t-55 -14t-62 -6h-821l186 507q7 18 24 31t42 23t55 15t61 5
h821zM4236 794q-100 54 -301 54h-1504l-359 -990h47q80 0 170 8q78 7 158 33q140 51 191 191l200 549h980l-70 -182q-7 -18 -23 -30q-18 -14 -41 -23t-56 -15q-25 -4 -51 -5h-727l88 -65l497 -371q36 -19 57 -33q28 -17 69 -32t97 -23q54 -10 146 -10h369l-429 325h25
q162 11 270 57q128 54 162 149l97 258q37 102 -62 155zM7162 595q18 14 42 24q26 9 55 15q33 5 62 5h1306q42 108 -68 159t-313 50h-1012q-92 0 -173 -12t-156 -42t-123 -71t-73 -103l-60 -165q-20 -54 3 -92t73 -64t126 -41q81 -13 160 -13h1034l-47 -125q-7 -10 -16 -18
q-19 -14 -42 -23q-27 -11 -55 -16q-31 -5 -62 -5h-1320q-19 -50 7 -89t80 -65t133 -39q75 -13 164 -13h1031q210 0 355 51t186 159l69 196q20 51 -6 89t-81 62q-65 26 -135 35q-83 11 -166 11h-1039l42 117q7 14 19 23zM9284 595q17 14 43 24t53 15q33 5 62 5h1306
q42 108 -68 159t-313 50h-1012q-87 0 -173 -13q-80 -12 -155 -41t-123 -71q-51 -41 -74 -103l-60 -165q-20 -54 3 -92t73 -64t126 -41q81 -13 160 -13h1034l-47 -125q-7 -10 -16 -18q-19 -14 -42 -23t-55 -15t-62 -6h-1320q-19 -50 7 -89t80 -65t134 -39q75 -13 163 -13
h1031q210 0 355 51t186 159l70 196q18 52 -7 90t-81 61q-65 26 -135 35q-82 11 -165 11h-1040l42 117q7 14 20 23z" />
    <glyph glyph-name="e" unicode="d" horiz-adv-x="2269" 
d="M513 850l-45 -120l-30 -112h-23l11 112l1 120h-100v-442h97l-1 57l44 87l42 -144h91l-68 238l83 204h-102zM154 677h31v43l26 1v32l-26 -1v47h46v32h-77v-154zM21 814q0 10 4 14t14 3t13 -3t4 -14q3 -50 0 -101q0 -9 -4 -13t-13 -4t-14 4t-4 13q-3 50 0 101zM12 669
q10 -11 36 -11t35 11q12 11 12 36q2 49 0 98q0 26 -11 37t-36 10t-35 -10t-13 -37v-98q2 -25 12 -36zM2038 605q16 -28 61 -41l52 -13q15 -3 23 -13t10 -24q3 -32 0 -63t-39 -31q-39 0 -42 31q-2 20 -1 40l1 45h-79q-2 -17 -2 -34v-33q1 -20 10 -41q7 -15 18 -28l9 -11h158
l13 11q15 13 24 28q14 21 14 41q1 7 1 22v23q-1 45 -22 78q-21 30 -69 42l-45 10q-15 3 -21 14t-8 23q-3 31 0 63t42 31t39 -31q1 -14 1 -42q0 -15 -2 -43h82q1 17 1 35v33q-3 66 -31 95t-91 28q-65 0 -94 -29t-31 -94q-1 -22 0 -46q0 -46 18 -76zM1845 469q1 7 1 22v23
q-1 45 -22 78q-21 30 -69 42l-45 10q-15 3 -21 14t-8 23q-3 32 0 63t40 31q40 0 41 -31q1 -14 1 -42q0 -15 -2 -43h81l2 35v33q-3 66 -31 95t-92 28t-93 -29t-32 -94v-46q2 -47 19 -76t61 -41l52 -13q15 -3 23 -13t10 -24q3 -32 0 -63t-40 -31t-41 31q-2 20 -1 40l1 45h-79
q-3 -17 -3 -34t1 -33q1 -28 20 -57q9 -14 18 -23h152l14 11q17 13 27 28q15 21 15 41zM1343 470q0 -24 -10 -33t-35 -10t-33 9t-12 34q-6 130 0 261q2 24 12 33t34 9t34 -10t10 -32q6 -130 0 -261zM1421 727q-3 66 -31 95t-93 28t-93 -29t-30 -94l-1 -87v-83l1 -88
q1 -29 11 -54q6 -17 14 -26q1 -1 51 0h102q52 -1 52 0q4 5 9 25q7 26 8 55l2 87v83zM922 651q-3 -32 -42 -32h-34v154h34q39 0 42 -32q3 -45 0 -90zM1018 728q-1 65 -32 94q-28 28 -96 28h-120l-1 -461h90v130h26l36 -130h92l-44 146q24 14 36 40t13 66q1 11 1 30v27
q0 19 -1 30zM2135 -131h115v58l-115 -1v-57zM2269 215h-77v-125l11 -125h56l10 125v125zM2005 196l4 -143l16 -154h-22l-48 297h-128v-346h72l-6 145l-13 172h21l51 -317h125l-1 346h-71zM1577 4l6 83l5 90h17l4 -90l6 -83h-38zM1531 196l-50 -346h74l8 79h66l8 -79h75
l-49 346h-132zM1294 -5q0 -6 1 -16v-12l-1 -27q-2 -19 -9 -26t-25 -7t-26 8t-8 25q-3 102 0 204q0 17 8 25t25 7t26 -7t7 -25v-28q0 -19 -1 -28h72v52q-1 20 -7 40l-6 16h-175l-5 -7q-6 -9 -10 -20q-5 -14 -5 -29l-1 -67v-63q0 -43 1 -66q0 -50 24 -72t81 -22t80 21t25 73
v51h-71zM775 196v-114q0 -73 -1 -146q0 -29 -33 -29t-34 28l-1 147q0 67 1 114h-71v-27q-2 -139 0 -225q0 -50 24 -72t81 -22t80 22t24 72q2 126 0 252h-70zM440 -59q-2 -20 -9 -27t-26 -6t-28 7t-9 26q-5 102 0 203q0 19 10 26t27 7t26 -7t9 -26q5 -101 0 -203zM498 140
q0 15 -7 29q-5 11 -13 20l-7 7h-156l-7 -7q-7 -9 -12 -20q-7 -14 -7 -29v-196q2 -52 26 -73t79 -21t79 21t25 73l2 66v63zM119 113l-7 -100h-13l-7 100l-20 83h-72l69 -239v-107h72v106l71 240h-72z" />
    <glyph glyph-name="d" unicode="e" horiz-adv-x="5500" 
d="M1618 521h-189l-142 -389h17q22 0 66 4q33 5 60 13t47 22q16 13 23 28zM2115 521h-209l-347 -192l211 -158l22 -13q10 -6 27 -13q14 -4 38 -9q30 -4 57 -4h145l-269 207zM3807 500q-39 20 -117 20h-420q-41 0 -67 -5q-31 -5 -60 -16q-24 -10 -44 -26t-26 -32l-85 -230
q-6 -17 2 -33q10 -15 27 -25t47 -16q24 -5 64 -5h420q40 0 70 4t59 14q25 9 46 24q18 14 26 36l84 230q15 39 -26 60zM3570 240q-3 -7 -9 -12q-4 -3 -16 -9q-5 -2 -15 -4l-7 -2q-14 -2 -24 -2h-321l73 199q3 7 9 12t16 9t21 5q8 2 25 2h321zM2945 499q-39 21 -118 21h-589
l-140 -387h18q34 0 68 3t61 13q55 20 74 75l79 214h383l-27 -71q-3 -7 -8 -11t-17 -10q-14 -4 -23 -5l-19 -2h-285l230 -171l6 -3q11 -6 16 -10l5 -3q13 -7 22 -9q12 -5 38 -10q23 -3 57 -3h145l-168 127h9q65 5 106 22q50 21 64 58l37 101q15 40 -24 61zM4091 421
q6 6 17 10t21 5q8 2 24 2h511q8 22 2 37t-28 26q-42 19 -123 19h-396q-40 0 -68 -5q-34 -5 -62 -16t-47 -27t-28 -41l-24 -65q-8 -22 1 -36t29 -25q18 -10 50 -15t62 -6h405l-19 -49q-2 -4 -6 -7q-10 -6 -17 -9q-10 -4 -21 -6t-24 -2h-517q-8 -21 2 -35t32 -25q19 -9 52 -16
q35 -5 64 -5h404q81 0 138 20t74 62l27 77q7 20 -2 35t-32 24q-26 10 -53 14q-32 4 -65 4h-407l16 46q3 5 8 9zM4922 421q6 6 16 10t21 5q8 2 25 2h511q8 22 2 37t-29 26q-41 19 -122 19h-396q-34 0 -68 -5q-31 -4 -60 -15t-49 -28t-29 -41l-24 -65q-7 -20 2 -36
q7 -14 28 -24t51 -16t61 -6h405l-18 -49q-3 -4 -7 -7t-16 -9q-5 -2 -14 -4l-7 -2q-12 -2 -25 -2h-517q-8 -20 3 -35q8 -14 30 -24t55 -16t63 -6h403q81 0 139 20q56 19 73 62l27 77q7 20 -3 36t-31 23q-26 10 -53 14q-32 4 -64 4h-408l17 46q3 5 8 9zM802 224l314 405h-180
q-46 0 -71 -7t-46 -20t-35 -26l-285 -352l424 -319q16 -8 29 -16t33 -16t47 -11q30 -5 71 -5h180zM347 224l484 626h-206q-49 0 -82 -9q-29 -7 -54 -22q-21 -13 -38 -30q-6 -6 -287 -360l-164 -205l295 -222q22 -12 32 -19q19 -10 39 -17q26 -9 54 -14q35 -5 82 -5h206z" />
    <glyph glyph-name="f" unicode="f" horiz-adv-x="1200" 
d="M1113 50q36 0 62 -25t25 -63v-25q0 -36 -25 -62t-62 -25h-1025q-36 0 -62 25t-26 62v25q0 37 26 63t62 25h1025zM663 850q26 0 44 -18t18 -44v-288h138q16 0 27 -11t11 -26t-11 -26l-263 -275q-11 -12 -27 -12t-27 12l-263 275q-7 8 -9 19t3 22t14 16t20 6h137v288
q0 26 19 44t44 18h125z" />
    <glyph glyph-name="g" unicode="g" 
d="M1000 664l-59 98h-324v-195h324zM0 547l59 -98h324v196h-324zM441 850h118v-1000h-118v1000z" />
    <glyph glyph-name="h" unicode="h" horiz-adv-x="1500" 
d="M886 772l-255 -341l194 -258l-109 -82l-307 409l-409 -546h1500l-614 819v-1z" />
    <glyph glyph-name="i" unicode="i" horiz-adv-x="1313" 
d="M766 157q0 -75 37 -138.5t100 -100.5t136 -37t138 38q62 36 99 100t37 138t-37 139t-99 99q-64 38 -138 38q-59 0 -107 -22l-46 91l-77 256q0 7 -3 13t-10 7l-108 40q-8 2 -15 -1t-11 -11t1 -15t10 -11l96 -36l78 -228h-396v114h48q9 0 15 6t6 15t-6 15t-15 6h-126
q-9 0 -15 -6t-6 -15t6 -15t15 -6h37v-130l-40 -85q-45 18 -97 18q-74 0 -136 -37t-99.5 -100.5t-37.5 -138.5t37 -138.5t100 -100.5t136 -37q70 0 131 34t99 93t42 129h88q11 0 17 9l213 310l33 -64q-61 -38 -95 -100t-35 -135zM273 -78q-62 0 -115 32t-85 86t-32 117
t32 117t85 86t115 32q41 0 81 -14l-99 -212v-1q-1 -3 -1 -6v-2q0 -5 1 -6v0q1 -1 2 -1q0 -2 1 -3l1 -2q0 -1 1 -1v-1q4 -2 6 -4h1q2 -1 6 -1h231q-5 -60 -37 -109t-83 -79t-111 -28zM389 360q49 -29 80 -77t35 -105h-199zM623 178h-78q-5 69 -41 127t-97 92l36 78h383z
M1039 392q63 0 117 -32t85 -86t31 -117t-31 -117t-85 -86t-116 -32t-116 32t-85 86t-32 117q0 61 29 114t78 84l107 -208q8 -12 18 -12q3 0 10 4t9 11t-1 15l-107 209q42 18 89 18z" />
    <glyph glyph-name="j" unicode="j" 
d="M500 850q-102 0 -195 -39q-89 -38 -158 -107t-108 -159q-39 -93 -39 -195t39 -195q38 -89 108 -159t158 -107q93 -39 195 -39t195 39q89 38 159 107t107 159q39 93 39 195t-39 195q-38 89 -107 159t-159 107q-93 39 -195 39zM500 810q125 0 232 -63q104 -61 165 -165
q63 -107 63 -232t-63 -232q-61 -104 -165 -165q-107 -63 -232 -63t-232 63q-104 61 -165 165q-63 107 -63 232t63 232q61 104 165 165q107 63 232 63zM500 697q-9 0 -15 -6t-6 -15v-359l256 -123q8 -4 16 -1t12 11t1 16t-11 12l-232 111v333q0 9 -6 15t-15 6z" />
    <glyph glyph-name="k" unicode="k" horiz-adv-x="1114" 
d="M195 730q-96 -74 -147 -178q-50 -101 -47 -212q2 -113 59 -214l10 -16l-68 -204l-1 -6q-2 -10 2 -21t11 -17t18 -10t20 -1l254 54l-14 6q120 -58 257 -60q133 -2 252 50q123 54 205 154t102 220t-23 235q-44 117 -143 202t-231 119q-128 32 -258 10q-134 -23 -241 -99z
M885 648q83 -71 119 -167q35 -94 19 -191q-16 -100 -84 -182t-174 -129q-102 -44 -216 -42q-117 1 -219 51l-7 3q-10 3 -21 1l-195 -42l51 152q6 20 -5 37q-59 87 -66 188q-6 99 39 189q46 92 137 157t205 84q111 19 221 -9q112 -29 196 -101v1zM557 392q15 0 27 -10t15 -25
v-8q0 -16 -11 -28t-28 -13t-29 8t-17 25v8q0 18 13 31t30 12zM328 392q15 0 27 -10t15 -25l1 -8q0 -16 -11 -28t-28 -13t-29 8t-17 25l-1 8q0 18 13 31t30 12zM785 392q15 0 27 -10t15 -25l1 -8q0 -16 -11 -28t-28 -13t-29 8t-17 25l-1 8q0 18 13 31t30 12z" />
    <glyph glyph-name="l" unicode="l" horiz-adv-x="1056" 
d="M614 850q41 0 76 -19t56 -52t25 -73v-256h129q41 0 76 -19t56 -55t24 -78v-13l-57 -287q-15 -65 -55 -106t-90 -42h-411q-38 0 -73 13t-64 37l-4 3l-1 -3q-12 -21 -32 -34t-44 -15l-11 -1h-114q-38 0 -66 25t-33 64l-1 11v400q0 39 26 67t63 33h182q48 0 89 23t67 63
t29 87l1 13v57q0 43 21 79t57 57t79 21zM614 764q-27 0 -47 -17t-24 -45v-66q0 -66 -30 -125q-29 -56 -80 -94t-116 -49h-3v-303q0 -33 16 -61t42 -46t58 -21l13 -1h403q19 -2 38 16t27 51l4 13l56 277q0 27 -17 48t-45 23l-9 1h-172q-15 0 -27 10t-15 25v293q0 30 -21 51
t-51 20zM228 365h-128q-5 0 -9 -2t-5 -8v-405q0 -10 10 -13l4 -1h114q5 0 9 2t5 8l1 4z" />
    <glyph glyph-name="m" unicode="m" horiz-adv-x="795" 
d="M141 850q-38 0 -70 -19t-52 -51t-19 -71v-718q0 -38 19 -71t52 -51t70 -19h513q38 0 71 19t51 51t19 71v564q0 4 -1 8v0q-1 7 -5 13l-1 1q-3 4 -7 8l-252 251q-3 5 -8 8v0q-10 6 -21 6h-359zM141 773h321v-176q4 -34 30 -57t59 -23h167v-526q0 -27 -18 -46t-46 -18h-513
q-27 0 -45 18t-19 46v718q0 27 19 46t45 18zM539 719l125 -125h-117q-8 3 -8 12v113zM398 440q-16 0 -27 -11t-12 -28v-215l-88 89l-5 4q-12 8 -26 6t-24 -13t-10 -26t10 -26l154 -154q2 -1 5 -4h1l5 -3l3 -1q1 -1 3 -1h1q8 -2 17 -1q3 0 4 1l7 3h1l2 2l3 2q2 2 3 2l154 154
l4 6q8 11 7 25t-11 24l-6 4q-11 8 -25 7t-24 -11l-88 -89v215l-1 7q-2 14 -12 23t-25 9z" />
    <glyph glyph-name="n" unicode="n" 
d="M100 160l210 -210l-310 -100zM658 720l212 -212l-488 -488l-212 212zM775 835q15 15 35 15t35 -15l140 -140q15 -15 15 -35t-15 -35l-45 -45l-210 210z" />
    <glyph glyph-name="o" unicode="o" horiz-adv-x="909" 
d="M714 827q45 0 83 -22t60 -60t22 -82t-22 -83t-60 -60t-83 -22q-57 0 -102 35l-9 8l-277 -158l1 -2l3 -31q0 -7 -2 -21l-1 -10l-1 -2l277 -158l1 1q38 34 89 41l11 1h10q45 0 83 -22t60 -60t22 -82t-22 -83t-60 -60t-83 -22q-35 0 -67 14t-56 41t-33 61t-7 69l1 11l1 1
l-277 158l-1 -1q-38 -34 -89 -40l-21 -2q-45 0 -83 22t-60 60t-22 83t22 83t60 60t83 22q57 0 102 -36l9 -7l277 158l-1 2l-3 31q0 44 22 82t60 60t83 22zM714 100q-25 0 -43 -18t-19 -44t19 -45t44 -18t44 18t18 45t-18 44t-45 18zM165 413q-26 0 -44 -18t-19 -45t19 -44
t44 -18t44 18t18 44t-18 45t-44 18zM714 725q-25 0 -43 -18t-19 -44t19 -44t44 -19t44 19t18 44t-18 44t-45 18z" />
    <glyph glyph-name="p" unicode="p" horiz-adv-x="827" 
d="M413 850q-112 0 -208 -56q-94 -55 -149 -149q-56 -96 -56 -208q0 -78 29 -151t82 -130h-1l314 -306l284 297h-1q57 58 89 133t31 157t-31 158t-90 135t-135 89t-158 31zM413 611q47 0 88 -23t64 -64t23 -87t-23 -88t-64 -63t-87 -24t-88 24t-63 64t-24 87t24 87t63 64
t87 23z" />
    <glyph glyph-name="q" unicode="q" horiz-adv-x="810" 
d="M387 811q95 0 177 -42t136 -120t65 -170t-21 -179q-16 -40 -43 -74l-314 -367l-304 355q-37 43 -53 86q-33 86 -21 179t66 170t135 120t177 42zM387 716q-72 0 -132 -31t-101 -90t-50 -128t15 -134q9 -22 28 -47l8 -10l232 -270l233 271q25 30 35 57q24 65 15 134
t-49 127t-101 90t-133 31zM387 586q45 0 84 -22t61 -61t22 -85t-22 -84t-61 -60t-84 -23t-83 23t-62 61t-23 84t23 84t61 61t84 22zM387 491q-30 0 -51 -21t-21 -52t21 -51t51 -21t51 22t21 51t-21 51t-51 21z" />
    <glyph glyph-name="r" unicode="r" horiz-adv-x="900" 
d="M742 337v93q0 66 -27 126t-76 102t-112 62v42q0 36 -26 62t-62 26t-61 -26t-26 -62v-42q-63 -19 -112 -62t-76 -102t-27 -126v-93q0 -90 -33 -173t-96 -147q-7 -6 -9 -15t3 -18t11 -13t16 -4h267q11 -51 51 -84t93 -33t93 33t50 84h267q9 0 17 4t11 13t2 18t-9 15
q-62 64 -95 147t-34 173zM140 50q43 62 66 136t22 152v86q0 61 29 113t77 83t106 30t106 -30t77 -83t28 -113v-86q0 -79 23 -152t66 -136h-600z" />
    <glyph glyph-name="s" unicode="s" 
d="M400 850q76 0 146 -27t125 -78t88 -119t40 -142t-15 -147t-68 -132l269 -270q14 -14 15 -34t-12 -35t-33 -17t-36 11l-4 5l-270 269q-68 -53 -151 -73t-167 -4t-156 65t-114 123t-54 158t15 167t83 146t135 99t164 35zM400 750q-81 0 -151 -41q-68 -40 -108 -108
q-41 -70 -41 -151t41 -151q40 -68 108 -108q70 -41 151 -41t151 41q68 40 108 108q41 70 41 151t-41 151q-40 68 -108 108q-70 41 -151 41z" />
    <glyph glyph-name="t" unicode="t" 
d="M900 300q27 0 50 -13t37 -37t13 -50v-250q0 -27 -13 -50t-37 -37t-50 -13h-800q-27 0 -50 13t-36 37t-14 50v250q0 27 14 50t36 37t50 13h800zM900 200h-800v-250h800v250zM900 850q27 0 50 -13t37 -37t13 -50v-250q0 -27 -13 -50t-37 -36t-50 -14h-800q-27 0 -50 14
t-36 36t-14 50v250q0 27 14 50t36 37t50 13h800zM900 750h-800v-250h800v250z" />
    <glyph glyph-name="u" unicode="u" horiz-adv-x="800" 
d="M700 850q27 0 50 -13t37 -37t13 -50v-550l-400 -350h-300q-27 0 -50 13t-36 37t-14 50v800q0 27 14 50t36 37t50 13h600zM350 325h350v425h-600v-800h250v375zM450 27l227 198h-227v-198zM600 575q21 1 37 -12t16 -35t-12 -36t-35 -17h-406q-21 -1 -36 13t-17 34t13 37
t34 16h406z" />
    <glyph glyph-name="v" unicode="v" horiz-adv-x="1429" 
d="M714 850q160 0 305 -65q140 -62 247 -175t163 -260q-56 -146 -163 -259t-247 -176q-145 -65 -304 -65t-305 65q-140 62 -247 176t-163 259q56 146 163 260t247 175q145 65 304 65zM714 683q-88 0 -164 -45q-73 -45 -116 -120q-44 -77 -44 -168t44 -168q43 -75 116 -120
q76 -45 165 -45t163 45t117 120q44 77 44 168t-44 168q-43 75 -117.5 120t-163.5 45zM714 550q53 0 98 -27t71 -73t26 -100t-26 -100t-71 -73t-98 -27t-97 27t-71 73t-26 100t26 100t71 73t97 27z" />
    <glyph glyph-name="w" unicode="w" horiz-adv-x="1429" 
d="M786 -7q30 0 51 -21t21 -51t-21 -50t-51 -21h-143q-30 0 -50 21t-21 50t21 51t50 21h143zM1071 421q29 0 50 -21t21 -50t-21 -50t-50 -21h-714q-29 0 -50 21t-21 50t21 50t50 21h714zM1357 850q30 0 51 -21t21 -50t-21 -51t-51 -21h-1286q-30 0 -50 21t-21 51t21 50
t50 21h1286z" />
    <glyph glyph-name="x" unicode="x" 
d="M52 798q15 15 36 15t35 -15l377 -377l377 377q14 14 34 15t35 -12t17 -33t-11 -36l-4 -5l-377 -377l377 -377l4 -5q13 -16 11 -36t-17 -33t-35 -12t-34 15l-377 377l-377 -377q-14 -14 -34 -15t-35 12t-17 33t11 36l4 5l377 377l-377 377l-4 5q-12 15 -10 34t14 32z" />
    <glyph glyph-name="y" unicode="y" horiz-adv-x="1333" 
d="M486 770q18 -18 20 -43t-14 -45l-6 -7l-258 -258h1039l8 -1q25 -4 41 -24t15 -46t-20 -44t-44 -19h-1039l264 -264q17 -21 15 -48t-22 -44t-47 -17t-46 20l-378 379q-15 20 -13 45t19 43l372 373q20 19 47 19t47 -19z" />
    <glyph glyph-name="z" unicode="z" horiz-adv-x="1333" 
d="M1294 615l-703 -725q-19 -19 -43 -30t-51 -10t-51 10t-44 30l-363 374q-26 27 -35 63t0 70t35 62q18 19 43 30t52 11t51 -11t43 -30l269 -277l609 628q19 19 43 30t51 10t51 -10t43 -30q26 -27 35 -62t0 -70t-35 -63z" />
  </font>
</defs>
</svg>
