<?xml version="1.0" standalone="no"?>
<!DOCTYPE svg PUBLIC "-//W3C//DTD SVG 1.1//EN" "http://www.w3.org/Graphics/SVG/1.1/DTD/svg11.dtd" >
<svg xmlns="http://www.w3.org/2000/svg" xmlns:xlink="http://www.w3.org/1999/xlink" version="1.1">
<metadata>
Created by FontForge 20190801 at Thu Dec 17 13:35:48 2015
 By root
DIN 2014 is a contemporary version of a well-known DIN typeface. The Regular performs well in long text settings, while Light and Bold faces are extremely legible at large sizes. Type family spans 18 faces: 6 Upright with the matching Italics of normal width and 6 Narrow ones. The typeface was designed by Vasily Biryukov and released by Paratype in 2015.
</metadata>
<defs>
<font id="DIN2014-Demi" horiz-adv-x="519" >
  <font-face 
    font-family="DIN 2014 Demi"
    font-weight="600"
    font-stretch="normal"
    units-per-em="1000"
    panose-1="2 11 6 4 2 2 2 2 2 4"
    ascent="779"
    descent="-221"
    x-height="500"
    cap-height="690"
    bbox="-360 -273 3054 1007"
    underline-thickness="50"
    underline-position="-100"
    stemh="93"
    stemv="106"
    unicode-range="U+0020-1F4F1"
  />
<missing-glyph horiz-adv-x="250" 
 />
    <glyph glyph-name="afii10017.var.accented" unicode="&#x410;`" horiz-adv-x="595" 
d="M126 0h-124l240 690h110l240 -690h-123l-47 143h-249zM297 522l-92 -279h184zM249 744l80 129h126l-103 -129h-103z" />
    <glyph glyph-name="afii10022.var.accented" unicode="&#x415;`" horiz-adv-x="533" 
d="M76 690h423v-101h-307v-182h277v-100h-277v-207h307v-100h-423v690zM221 744l80 129h126l-103 -129h-103z" />
    <glyph glyph-name="afii10026.var.accented" unicode="&#x418;`" horiz-adv-x="667" 
d="M76 690h116v-471l305 471h95v-690h-116v466l-304 -466h-96v690zM271 744l80 129h126l-103 -129h-103z" />
    <glyph glyph-name="afii10032.var.accented" unicode="&#x41e;`" horiz-adv-x="613" 
d="M565 301c0 -217 -104 -310 -259 -310c-154 0 -258 93 -258 310v88c0 217 104 310 258 310c155 0 259 -93 259 -310v-88zM164 389v-88c0 -149 50 -209 142 -209s143 60 143 209v88c0 149 -51 209 -143 209s-142 -60 -142 -209zM233 744l80 129h126l-103 -129h-103z" />
    <glyph glyph-name="afii10037.var.accented" unicode="&#x423;`" horiz-adv-x="580" 
d="M454 690h120l-222 -561c-43 -108 -97 -138 -226 -138v103c73 0 102 10 126 66l-236 530h127l166 -382zM244 744l80 129h126l-103 -129h-103z" />
    <glyph glyph-name="afii10045.var.accented" unicode="&#x42b;`" horiz-adv-x="798" 
d="M76 690h116v-262h105c181 0 250 -103 250 -214s-69 -214 -257 -214h-214v690zM723 690v-690h-116v690h116zM293 328h-101v-228h101c97 0 138 46 138 114c0 67 -41 114 -138 114zM325 744l80 129h126l-103 -129h-103z" />
    <glyph glyph-name="afii10047.var.accented" unicode="&#x42d;`" horiz-adv-x="587" 
d="M191 297v100h231c-2 143 -52 201 -142 201c-75 0 -121 -38 -138 -122h-112c22 150 114 223 250 223c155 0 258 -93 258 -310v-88c0 -217 -103 -310 -258 -310c-136 0 -227 68 -249 223h111c18 -84 60 -122 138 -122c92 0 141 61 142 205h-231zM217 744l80 129h126
l-103 -129h-103z" />
    <glyph glyph-name="afii10048.var.accented" unicode="&#x42e;`" horiz-adv-x="818" 
d="M770 306c0 -223 -91 -315 -241 -315c-151 0 -242 92 -242 316h-95v-307h-116v690h116v-283h95c6 206 96 292 242 292c150 0 241 -92 241 -315v-78zM403 380v-70c0 -153 37 -218 126 -218c88 0 125 65 125 218v70c0 152 -37 218 -125 218c-89 0 -126 -66 -126 -218z
M268 744l80 129h126l-103 -129h-103z" />
    <glyph glyph-name="afii10049.var.accented" unicode="&#x42f;`" horiz-adv-x="610" 
d="M144 0h-128l168 294c-89 27 -140 90 -140 191c0 137 97 205 256 205h234v-690h-116v280h-119zM306 380h112v209h-112c-99 0 -146 -28 -146 -104c0 -72 37 -105 146 -105zM254 744l80 129h126l-103 -129h-103z" />
    <glyph glyph-name="afii10023.var.accented" unicode="&#x401;`" horiz-adv-x="533" 
d="M76 690h423v-101h-307v-182h277v-100h-277v-207h307v-100h-423v690zM130 764v105h108v-105h-108zM336 764v105h109v-105h-109zM235 878l80 129h126l-103 -129h-103z" />
    <glyph glyph-name="afii10065.var.accented" unicode="&#x430;`" horiz-adv-x="488" 
d="M32 147c0 107 79 148 186 148h108v42c0 63 -24 80 -99 80c-54 0 -81 -6 -105 -45l-77 54c36 59 90 83 189 83c128 0 197 -40 197 -173v-336h-105v46c-24 -39 -55 -55 -116 -55c-110 0 -178 56 -178 156zM326 189v24h-100c-63 0 -89 -22 -89 -66c0 -46 34 -65 85 -65
c65 0 104 20 104 107zM179 567l70 158h122l-91 -158h-101z" />
    <glyph glyph-name="afii10070.var.accented" unicode="&#x435;`" horiz-adv-x="487" 
d="M354 132l80 -56c-35 -61 -91 -85 -179 -85c-143 0 -219 93 -219 226v68c0 147 72 224 203 224c137 0 202 -82 202 -230v-55h-299v-2c0 -78 30 -139 109 -139c59 0 83 18 103 49zM239 416c-62 0 -91 -42 -96 -110h191c-4 73 -34 110 -95 110zM186 567l70 158h122l-91 -158
h-101z" />
    <glyph glyph-name="afii10074.var.accented" unicode="&#x438;`" horiz-adv-x="534" 
d="M164 500v-312l216 312h96v-500h-106v321l-219 -321h-94v500h107zM210 567l70 158h122l-91 -158h-101z" />
    <glyph glyph-name="afii10080.var.accented" unicode="&#x43e;`" horiz-adv-x="497" 
d="M461 282v-63c0 -133 -65 -228 -212 -228c-140 0 -213 90 -213 228v63c0 147 78 227 213 227s212 -80 212 -227zM249 83c76 0 106 61 106 139v58c0 87 -35 136 -106 136c-72 0 -107 -50 -107 -136v-58c0 -78 26 -139 107 -139zM186 567l70 158h122l-91 -158h-101z" />
    <glyph glyph-name="afii10085.var.accented" unicode="&#x443;`" horiz-adv-x="473" 
d="M5 500h113l127 -352l114 352h110l-176 -520c-43 -128 -80 -170 -220 -170v98c70 0 98 11 123 86zM191 567l70 158h122l-91 -158h-101z" />
    <glyph glyph-name="afii10093.var.accented" unicode="&#x44b;`" horiz-adv-x="651" 
d="M57 500h107v-181h62c138 0 210 -50 210 -158c0 -101 -66 -161 -192 -161h-187v500zM487 500h106v-500h-106v500zM164 227v-135h67c58 0 89 23 89 70c0 43 -27 65 -101 65h-55zM253 567l70 158h122l-91 -158h-101z" />
    <glyph glyph-name="afii10095.var.accented" unicode="&#x44d;`" horiz-adv-x="454" 
d="M137 210v87h175c-3 72 -39 119 -114 119c-40 0 -74 -15 -95 -45l-81 57c38 51 99 81 173 81c145 0 223 -82 223 -224v-68c0 -138 -77 -226 -223 -226c-80 0 -142 28 -174 85l79 56c20 -34 56 -49 98 -49c86 0 113 59 114 127h-175zM152 567l70 158h122l-91 -158h-101z
" />
    <glyph glyph-name="afii10096.var.accented" unicode="&#x44e;`" horiz-adv-x="679" 
d="M643 285v-68c0 -134 -65 -226 -199 -226c-121 0 -197 78 -199 218h-81v-209h-107v500h107v-199h81c5 135 78 208 199 208c126 0 199 -78 199 -224zM444 83c67 0 93 57 93 138v60c0 91 -32 135 -93 135s-92 -45 -92 -135v-60c0 -82 21 -138 92 -138zM216 567l70 158h122
l-91 -158h-101z" />
    <glyph glyph-name="afii10097.var.accented" unicode="&#x44f;`" horiz-adv-x="500" 
d="M442 0h-106v184h-82l-113 -184h-115l124 201c-63 23 -102 72 -102 147c0 80 52 152 198 152h196v-500zM336 275v133h-82c-60 0 -90 -22 -90 -64c0 -48 30 -69 99 -69h73zM214 567l70 158h122l-91 -158h-101z" />
    <glyph glyph-name="afii10071.var.accented" unicode="&#x451;`" horiz-adv-x="487" 
d="M354 132l80 -56c-35 -61 -91 -85 -179 -85c-143 0 -219 93 -219 226v68c0 147 72 224 203 224c137 0 202 -82 202 -230v-55h-299v-2c0 -78 30 -139 109 -139c59 0 83 18 103 49zM239 416c-62 0 -91 -42 -96 -110h191c-4 73 -34 110 -95 110zM181 717l70 158h122l-91 -158
h-101zM78 585v105h109v-105h-109zM285 585v105h108v-105h-108z" />
    <glyph glyph-name="fi" unicode="fi" horiz-adv-x="481" 
d="M17 500h64v31c0 118 43 159 163 159h31v-96h-23c-56 0 -65 -25 -65 -83v-11h244v-500h-106v408h-138v-408h-106v408h-64v92z" />
    <glyph glyph-name="fl" unicode="fl" horiz-adv-x="534" 
d="M325 157v437h-73c-56 0 -65 -25 -65 -83v-11h88v-92h-88v-408h-106v408h-64v92h64v31c0 118 43 159 163 159h188v-508c0 -54 10 -88 76 -88v-94c-130 0 -183 42 -183 157z" />
    <glyph glyph-name=".notdef" horiz-adv-x="250" 
 />
    <glyph glyph-name="space" unicode=" " horiz-adv-x="250" 
 />
    <glyph glyph-name="exclam" unicode="!" horiz-adv-x="235" 
d="M172 690v-501h-109v501h109zM177 0v118h-119v-118h119z" />
    <glyph glyph-name="quotedbl" unicode="&#x22;" horiz-adv-x="344" 
d="M145 690v-177h-105v177h105zM304 690v-177h-104v177h104z" />
    <glyph glyph-name="numbersign" unicode="#" horiz-adv-x="611" 
d="M36 498h116l36 192h110l-36 -192h120l36 192h110l-36 -192h92v-97h-110l-20 -106h93v-97h-111l-37 -198h-109l36 198h-120l-36 -198h-111l37 198h-97v97h115l20 106h-98v97zM244 401l-20 -106h120l20 106h-120z" />
    <glyph glyph-name="dollar" unicode="$" horiz-adv-x="522" 
d="M498 583l-88 -63c-25 35 -53 62 -99 73v-202c129 -31 196 -81 196 -201c0 -94 -57 -181 -192 -196v-110h-97v110c-89 10 -155 47 -203 113l91 63c31 -39 64 -65 115 -74l1 6v201c-122 31 -190 92 -190 203c0 95 56 175 186 190v116h97v-117c82 -11 142 -49 183 -112z
M391 185c0 43 -18 72 -80 95v-177v-7c59 12 80 49 80 89zM148 507c0 -47 25 -73 74 -92v179c-47 -11 -74 -41 -74 -87z" />
    <glyph glyph-name="percent" unicode="%" horiz-adv-x="744" 
d="M510 690h106l-385 -690h-107zM724 196v-52c0 -90 -43 -153 -149 -153c-94 0 -146 56 -146 153v52c0 97 54 152 146 152c96 0 149 -54 149 -152zM576 66c43 0 63 31 63 79v49c0 53 -22 78 -63 78c-40 0 -61 -26 -61 -78v-49c0 -49 16 -79 61 -79zM319 547v-52
c0 -90 -43 -153 -149 -153c-95 0 -147 56 -147 153v52c0 97 54 152 147 152c96 0 149 -54 149 -152zM170 417c44 0 63 31 63 79v49c0 53 -21 78 -63 78c-39 0 -60 -26 -60 -78v-49c0 -49 16 -79 60 -79z" />
    <glyph glyph-name="ampersand" unicode="&#x26;" horiz-adv-x="660" 
d="M39 184c0 92 55 153 118 202c-40 49 -68 97 -68 156c0 95 76 157 181 157c125 0 178 -69 178 -137c0 -77 -73 -130 -146 -183l154 -170c14 33 21 72 21 113h108c0 -70 -18 -139 -54 -196l115 -126h-139l-46 50c-49 -37 -113 -59 -192 -59c-152 0 -230 95 -230 193z
M272 92c49 0 88 13 119 34l-172 190c-40 -35 -68 -73 -68 -120c0 -64 49 -104 121 -104zM202 542c0 -34 20 -67 42 -96c52 35 95 68 95 109c0 26 -22 55 -68 55c-41 0 -69 -24 -69 -68z" />
    <glyph glyph-name="quotesingle" unicode="'" horiz-adv-x="185" 
d="M145 690v-177h-105v177h105z" />
    <glyph glyph-name="parenleft" unicode="(" horiz-adv-x="317" 
d="M298 -33l-61 -83c-141 95 -171 163 -171 274v380c0 111 30 178 171 274l61 -84c-93 -68 -126 -105 -126 -213v-334c0 -108 33 -145 126 -214z" />
    <glyph glyph-name="parenright" unicode=")" horiz-adv-x="317" 
d="M87 -116l-61 83c93 69 126 106 126 214v334c0 108 -33 145 -126 213l61 84c141 -96 171 -163 171 -274v-380c0 -111 -30 -179 -171 -274z" />
    <glyph glyph-name="asterisk" unicode="*" horiz-adv-x="421" 
d="M249 690l-5 -110l93 59l42 -72l-96 -52l96 -51l-42 -71l-93 57l5 -109h-83l3 108l-92 -57l-42 72l97 51l-96 52l41 72l92 -58l-3 109h83z" />
    <glyph glyph-name="plus" unicode="+" horiz-adv-x="522" 
d="M57 308v92h147v149h93v-149h149v-92h-149v-148h-93v148h-147z" />
    <glyph glyph-name="comma" unicode="," horiz-adv-x="238" 
d="M178 138v-190l-118 -101v291h118z" />
    <glyph glyph-name="hyphen" unicode="-" horiz-adv-x="319" 
d="M30 242v94h259v-94h-259z" />
    <glyph glyph-name="period" unicode="." horiz-adv-x="258" 
d="M198 138v-138h-138v138h138z" />
    <glyph glyph-name="slash" unicode="/" horiz-adv-x="485" 
d="M145 -116h-98l336 928h98z" />
    <glyph glyph-name="zero" unicode="0" horiz-adv-x="522" 
d="M478 202c0 -143 -102 -211 -217 -211s-217 68 -217 211v285c0 147 102 212 217 212s217 -65 217 -211v-286zM362 481c0 74 -39 117 -101 117c-63 0 -102 -43 -102 -117v-272c0 -74 39 -117 102 -117c62 0 101 43 101 117v272z" />
    <glyph glyph-name="one" unicode="1" horiz-adv-x="522" 
d="M340 690v-690h-116v565l-99 -68v117l106 76h109z" />
    <glyph glyph-name="two" unicode="2" horiz-adv-x="522" 
d="M462 100v-100h-417v82l237 278c45 52 70 97 70 145c0 63 -47 95 -98 95c-54 0 -95 -33 -98 -95h-106c0 117 94 194 208 194c118 0 209 -80 209 -196c0 -87 -60 -155 -104 -208l-163 -195h262z" />
    <glyph glyph-name="three" unicode="3" horiz-adv-x="522" 
d="M190 306v100h48c72 0 111 38 111 103c0 50 -39 91 -98 91c-56 0 -93 -37 -98 -85h-106c3 111 97 184 208 184c121 0 209 -83 209 -187c0 -75 -44 -127 -98 -154c63 -28 108 -82 108 -167c0 -109 -78 -200 -211 -200c-140 0 -219 80 -225 189h106c8 -50 43 -88 114 -88
c60 0 101 44 101 102c0 70 -41 112 -121 112h-48z" />
    <glyph glyph-name="four" unicode="4" horiz-adv-x="522" 
d="M253 690h123l-221 -485h162v188h116v-188h63v-101h-63v-104h-116v104h-303v82z" />
    <glyph glyph-name="five" unicode="5" horiz-adv-x="522" 
d="M261 367c-41 0 -67 -22 -84 -51h-105v374h374v-109h-261v-146c21 21 53 40 106 40c115 0 182 -89 182 -249c0 -151 -72 -235 -210 -235c-112 0 -200 70 -210 180h114c12 -50 44 -79 94 -79c59 0 96 39 96 130c0 95 -28 145 -96 145z" />
    <glyph glyph-name="six" unicode="6" horiz-adv-x="522" 
d="M366 690l-140 -293c20 10 44 13 66 13c108 0 186 -87 186 -204c0 -139 -93 -215 -217 -215c-123 0 -218 75 -218 213c0 51 25 113 56 181l141 305h126zM159 203c0 -67 38 -111 102 -111c63 0 101 44 101 111c0 66 -38 111 -101 111c-64 0 -102 -45 -102 -111z" />
    <glyph glyph-name="seven" unicode="7" horiz-adv-x="522" 
d="M162 476h-100v214h406v-89l-207 -601h-121l208 589h-186v-113z" />
    <glyph glyph-name="eight" unicode="8" horiz-adv-x="522" 
d="M38 193c0 78 50 141 104 165c-55 28 -94 86 -94 151c0 119 102 190 213 190c112 0 213 -71 213 -190c0 -65 -39 -123 -94 -151c56 -24 104 -87 104 -165c0 -126 -104 -202 -223 -202s-223 76 -223 202zM154 200c0 -60 45 -109 107 -109c60 0 108 49 108 109
c0 67 -57 108 -108 108c-53 0 -107 -41 -107 -108zM163 501c0 -55 43 -99 98 -99c54 0 98 44 98 99c0 54 -44 97 -98 97c-55 0 -98 -43 -98 -97z" />
    <glyph glyph-name="nine" unicode="9" horiz-adv-x="522" 
d="M157 0l139 293c-20 -11 -44 -14 -66 -14c-108 0 -186 87 -186 205c0 139 94 215 217 215c124 0 218 -75 218 -213c0 -51 -25 -113 -56 -181l-140 -305h-126zM363 487c0 67 -37 111 -102 111c-63 0 -101 -44 -101 -111c0 -66 38 -111 101 -111c65 0 102 45 102 111z" />
    <glyph glyph-name="colon" unicode=":" horiz-adv-x="233" 
d="M178 500v-119h-118v119h118zM178 118v-118h-118v118h118z" />
    <glyph glyph-name="semicolon" unicode=";" horiz-adv-x="233" 
d="M178 118v-182l-118 -102v284h118zM178 500v-119h-118v119h118z" />
    <glyph glyph-name="less" unicode="&#x3c;" horiz-adv-x="522" 
d="M411 460l-208 -112l208 -111v-120l-325 183v97l325 183v-120z" />
    <glyph glyph-name="equal" unicode="=" horiz-adv-x="522" 
d="M67 377v99h389v-99h-389zM67 206v98h389v-98h-389z" />
    <glyph glyph-name="greater" unicode="&#x3e;" horiz-adv-x="522" 
d="M316 348l-208 112v120l325 -183v-97l-325 -183v120z" />
    <glyph glyph-name="question" unicode="?" horiz-adv-x="486" 
d="M291 189h-102v72c0 37 6 60 34 86l47 43c45 42 70 72 70 121c0 57 -43 88 -92 88c-51 0 -93 -29 -94 -85h-111c0 119 93 185 205 185c113 0 208 -66 208 -191c0 -80 -49 -137 -102 -187l-31 -30c-21 -20 -32 -34 -32 -68v-34zM299 0v118h-118v-118h118z" />
    <glyph glyph-name="at" unicode="@" horiz-adv-x="898" 
d="M631 484v-250c0 -67 24 -84 57 -84c51 0 71 48 71 135c0 226 -154 308 -310 308c-222 0 -307 -168 -307 -317c0 -214 144 -316 312 -316c87 0 149 15 221 51l39 -76c-37 -29 -133 -67 -265 -67c-208 0 -413 139 -413 408c0 261 197 409 413 409c229 0 416 -145 416 -400
c0 -136 -58 -227 -176 -227c-56 0 -102 20 -128 67c-21 -45 -61 -67 -130 -67c-110 0 -168 77 -168 190v52c0 125 67 189 168 189c41 0 71 -10 94 -27v22h106zM446 150c59 0 79 34 79 96v50c0 71 -24 101 -79 101c-54 0 -76 -35 -76 -101v-41c0 -68 21 -105 76 -105z" />
    <glyph glyph-name="A" unicode="A" horiz-adv-x="595" 
d="M126 0h-124l240 690h110l240 -690h-123l-47 143h-249zM297 522l-92 -279h184z" />
    <glyph glyph-name="B" unicode="B" horiz-adv-x="602" 
d="M76 690h222c162 0 245 -60 245 -179c0 -71 -41 -128 -101 -150c78 -22 123 -76 123 -163c0 -104 -66 -198 -245 -198h-244v690zM192 308v-208h121c93 0 136 38 136 104c0 73 -48 104 -150 104h-107zM192 590v-182h113c86 0 122 39 122 96c0 54 -27 86 -137 86h-98z" />
    <glyph glyph-name="C" unicode="C" horiz-adv-x="587" 
d="M557 476h-112c-18 84 -63 122 -139 122c-92 0 -142 -60 -142 -209v-88c0 -147 50 -209 142 -209c79 0 121 38 139 122h111c-23 -155 -113 -223 -250 -223c-154 0 -258 93 -258 310v88c0 217 104 310 258 310c137 0 228 -73 251 -223z" />
    <glyph glyph-name="D" unicode="D" horiz-adv-x="616" 
d="M309 0h-233v690h233c155 0 259 -83 259 -304v-82c0 -221 -104 -304 -259 -304zM309 100c99 0 143 62 143 204v82c0 142 -44 203 -143 203h-117v-489h117z" />
    <glyph glyph-name="E" unicode="E" horiz-adv-x="533" 
d="M76 690h423v-101h-307v-182h277v-100h-277v-207h307v-100h-423v690z" />
    <glyph glyph-name="F" unicode="F" horiz-adv-x="525" 
d="M76 690h423v-101h-307v-198h277v-100h-277v-291h-116v690z" />
    <glyph glyph-name="G" unicode="G" horiz-adv-x="608" 
d="M309 354h251v-53c0 -217 -99 -310 -254 -310c-154 0 -258 93 -258 310v83c0 222 104 315 258 315c140 0 229 -78 251 -223h-112c-17 80 -61 122 -139 122c-92 0 -142 -60 -142 -209v-88c0 -149 50 -209 142 -209c88 0 132 52 140 161h-137v101z" />
    <glyph glyph-name="H" unicode="H" horiz-adv-x="648" 
d="M192 690v-283h264v283h116v-690h-116v307h-264v-307h-116v690h116z" />
    <glyph glyph-name="I" unicode="I" horiz-adv-x="287" 
d="M202 690v-690h-116v690h116z" />
    <glyph glyph-name="J" unicode="J" horiz-adv-x="509" 
d="M-3 87l97 55c22 -30 56 -50 101 -50c81 0 122 44 122 181v417h116v-417c0 -204 -88 -282 -233 -282c-88 0 -160 32 -203 96z" />
    <glyph glyph-name="K" unicode="K" horiz-adv-x="642" 
d="M633 0h-139l-200 315l-102 -131v-184h-116v690h116v-333l254 333h142l-218 -278z" />
    <glyph glyph-name="L" unicode="L" horiz-adv-x="503" 
d="M192 690v-590h307v-100h-423v690h116z" />
    <glyph glyph-name="M" unicode="M" horiz-adv-x="771" 
d="M186 690l199 -400l199 400h111v-690h-112v462l-158 -329h-82l-155 326v-459h-112v690h110z" />
    <glyph glyph-name="N" unicode="N" horiz-adv-x="648" 
d="M460 690h112v-690h-103l-281 469v-469h-112v690h100l284 -475v475z" />
    <glyph glyph-name="O" unicode="O" horiz-adv-x="613" 
d="M565 301c0 -217 -104 -310 -259 -310c-154 0 -258 93 -258 310v88c0 217 104 310 258 310c155 0 259 -93 259 -310v-88zM164 389v-88c0 -149 50 -209 142 -209s143 60 143 209v88c0 149 -51 209 -143 209s-142 -60 -142 -209z" />
    <glyph glyph-name="P" unicode="P" horiz-adv-x="589" 
d="M311 252h-119v-252h-116v690h235c159 0 254 -76 254 -218c0 -140 -94 -220 -254 -220zM192 352h107c106 0 150 41 150 120c0 75 -44 117 -150 117h-107v-237z" />
    <glyph glyph-name="Q" unicode="Q" horiz-adv-x="617" 
d="M565 301c0 -73 -12 -133 -34 -179l93 -83l-65 -74l-88 78c-43 -36 -100 -52 -165 -52c-154 0 -258 93 -258 310v88c0 217 104 310 258 310c155 0 259 -93 259 -310v-88zM164 389v-88c0 -149 50 -209 142 -209c33 0 60 8 82 24l-88 79l67 75l72 -65c7 26 10 58 10 96v88
c0 149 -51 209 -143 209s-142 -60 -142 -209z" />
    <glyph glyph-name="R" unicode="R" horiz-adv-x="611" 
d="M587 0h-128l-133 280h-134v-280h-116v690h235c159 0 254 -69 254 -206c0 -95 -45 -156 -125 -185zM192 380h111c98 0 146 26 146 104s-48 105 -146 105h-111v-209z" />
    <glyph glyph-name="S" unicode="S" horiz-adv-x="573" 
d="M523 586l-88 -63c-34 47 -71 75 -149 75c-71 0 -113 -32 -113 -90c0 -66 52 -92 148 -113c139 -30 211 -82 211 -206c0 -103 -69 -198 -235 -198c-118 0 -201 36 -258 113l91 63c41 -49 82 -75 161 -75c95 0 125 42 125 92c0 55 -31 89 -151 115
c-133 28 -208 92 -208 209c0 104 68 191 230 191c110 0 187 -37 236 -113z" />
    <glyph glyph-name="T" unicode="T" horiz-adv-x="527" 
d="M7 690h513v-101h-198v-589h-116v589h-199v101z" />
    <glyph glyph-name="U" unicode="U" horiz-adv-x="668" 
d="M476 690h116v-410c0 -204 -105 -289 -258 -289s-258 85 -258 288v411h116v-411c0 -132 47 -187 142 -187s142 55 142 187v411z" />
    <glyph glyph-name="V" unicode="V" horiz-adv-x="608" 
d="M6 690h127l170 -505l172 505h127l-245 -690h-106z" />
    <glyph glyph-name="W" unicode="W" horiz-adv-x="868" 
d="M433 502l-150 -502h-112l-163 690h124l106 -493l141 493h107l144 -496l106 496h124l-163 -690h-113z" />
    <glyph glyph-name="X" unicode="X" horiz-adv-x="574" 
d="M143 0h-127l199 356l-178 334h127l123 -236l124 236h126l-179 -334l200 -356h-126l-145 251z" />
    <glyph glyph-name="Y" unicode="Y" horiz-adv-x="571" 
d="M12 690h135l138 -276l139 276h134l-215 -402v-288h-116v288z" />
    <glyph glyph-name="Z" unicode="Z" 
d="M30 690h453v-77l-305 -513h315v-100h-463v77l305 512h-305v101z" />
    <glyph glyph-name="bracketleft" unicode="[" horiz-adv-x="335" 
d="M70 -102v894h224v-92h-118v-710h118v-92h-224z" />
    <glyph glyph-name="backslash" unicode="\" horiz-adv-x="485" 
d="M35 812h98l336 -928h-98z" />
    <glyph glyph-name="bracketright" unicode="]" horiz-adv-x="335" 
d="M41 792h224v-894h-224v91h118v712h-118v91z" />
    <glyph glyph-name="asciicircum" unicode="^" horiz-adv-x="522" 
d="M209 690h103l176 -253h-120l-107 156l-103 -156h-123z" />
    <glyph glyph-name="underscore" unicode="_" horiz-adv-x="526" 
d="M0 -78h526v-85h-526v85z" />
    <glyph glyph-name="grave" unicode="`" horiz-adv-x="329" 
d="M190 725l70 -158h-101l-91 158h122z" />
    <glyph glyph-name="a" unicode="a" horiz-adv-x="488" 
d="M32 147c0 107 79 148 186 148h108v42c0 63 -24 80 -99 80c-54 0 -81 -6 -105 -45l-77 54c36 59 90 83 189 83c128 0 197 -40 197 -173v-336h-105v46c-24 -39 -55 -55 -116 -55c-110 0 -178 56 -178 156zM326 189v24h-100c-63 0 -89 -22 -89 -66c0 -46 34 -65 85 -65
c65 0 104 20 104 107z" />
    <glyph glyph-name="b" unicode="b" horiz-adv-x="515" 
d="M160 690v-229c27 33 67 48 120 48c122 0 199 -80 199 -227v-63c0 -133 -65 -228 -199 -228c-56 0 -95 15 -120 45v-36h-103v690h103zM266 83c77 0 106 61 106 139v58c0 87 -34 136 -106 136c-69 0 -105 -48 -106 -130v-64c0 -78 28 -139 106 -139z" />
    <glyph glyph-name="c" unicode="c" horiz-adv-x="445" 
d="M353 132l81 -56c-33 -59 -92 -85 -178 -85c-140 0 -220 90 -220 226v68c0 144 81 224 224 224c76 0 139 -28 174 -81l-82 -57c-19 27 -51 45 -94 45c-78 0 -116 -50 -116 -136v-58c0 -78 28 -139 116 -139c42 0 76 15 95 49z" />
    <glyph glyph-name="d" unicode="d" 
d="M355 465v225h106v-690h-106v35c-27 -28 -65 -44 -120 -44c-133 0 -199 95 -199 226v68c0 144 78 224 199 224c52 0 92 -15 120 -44zM249 83c80 0 106 61 106 139v64c0 82 -37 130 -106 130c-72 0 -107 -49 -107 -136v-58c0 -78 30 -139 107 -139z" />
    <glyph glyph-name="e" unicode="e" horiz-adv-x="487" 
d="M354 132l80 -56c-35 -61 -91 -85 -179 -85c-143 0 -219 93 -219 226v68c0 147 72 224 203 224c137 0 202 -82 202 -230v-55h-299v-2c0 -78 30 -139 109 -139c59 0 83 18 103 49zM239 416c-62 0 -91 -42 -96 -110h191c-4 73 -34 110 -95 110z" />
    <glyph glyph-name="f" unicode="f" horiz-adv-x="294" 
d="M17 500h64v31c0 118 43 159 163 159h31v-96h-23c-56 0 -65 -25 -65 -83v-11h88v-92h-88v-408h-106v408h-64v92z" />
    <glyph glyph-name="g" unicode="g" 
d="M355 465v35h106v-490c0 -154 -88 -206 -218 -206c-90 0 -146 23 -186 87l75 54c22 -33 53 -50 108 -50c80 0 115 34 115 115v23c-27 -28 -67 -42 -120 -42c-133 0 -199 95 -199 226v68c0 144 78 224 199 224c54 0 93 -16 120 -44zM249 83c80 0 106 61 106 139v58
c0 86 -35 136 -106 136c-72 0 -107 -49 -107 -136v-58c0 -78 30 -139 107 -139z" />
    <glyph glyph-name="h" unicode="h" horiz-adv-x="526" 
d="M57 0v690h107v-233c21 30 57 52 122 52c103 0 182 -52 182 -196v-313h-106v301c0 88 -40 113 -95 113c-66 0 -103 -45 -103 -112v-302h-107z" />
    <glyph glyph-name="i" unicode="i" horiz-adv-x="251" 
d="M72 0v500h107v-500h-107zM67 581v109h117v-109h-117z" />
    <glyph glyph-name="j" unicode="j" horiz-adv-x="244" 
d="M181 500v-531c0 -117 -51 -159 -181 -159v94c66 0 75 34 75 84v512h106zM70 581v109h116v-109h-116z" />
    <glyph glyph-name="k" unicode="k" horiz-adv-x="495" 
d="M331 500h131l-191 -215l221 -285h-129l-165 202l-34 -38v-164h-107v690h107v-385z" />
    <glyph glyph-name="l" unicode="l" horiz-adv-x="282" 
d="M57 157v533h107v-508c0 -54 10 -88 76 -88v-94c-130 0 -183 42 -183 157z" />
    <glyph glyph-name="m" unicode="m" horiz-adv-x="798" 
d="M57 0v500h105v-45c20 30 58 54 117 54c63 0 113 -25 143 -72c33 45 84 72 146 72c108 0 173 -66 173 -196v-313h-107v301c0 82 -34 113 -89 113c-53 0 -91 -40 -93 -107v-307h-106v301c0 85 -37 113 -88 113c-55 0 -94 -42 -94 -112v-302h-107z" />
    <glyph glyph-name="n" unicode="n" horiz-adv-x="526" 
d="M57 0v500h105v-45c22 30 58 54 124 54c103 0 182 -52 182 -196v-313h-106v301c0 88 -40 113 -95 113c-66 0 -103 -45 -103 -112v-302h-107z" />
    <glyph glyph-name="o" unicode="o" horiz-adv-x="497" 
d="M461 282v-63c0 -133 -65 -228 -212 -228c-140 0 -213 90 -213 228v63c0 147 78 227 213 227s212 -80 212 -227zM249 83c76 0 106 61 106 139v58c0 87 -35 136 -106 136c-72 0 -107 -50 -107 -136v-58c0 -78 26 -139 107 -139z" />
    <glyph glyph-name="p" unicode="p" 
d="M482 285v-68c0 -130 -64 -226 -197 -226c-58 0 -96 14 -121 41v-222h-107v690h107v-40c25 31 65 49 122 49c120 0 196 -81 196 -224zM270 83c76 0 106 61 106 139v58c0 87 -35 136 -106 136c-70 0 -105 -48 -106 -130v-64c0 -78 25 -139 106 -139z" />
    <glyph glyph-name="q" unicode="q" 
d="M355 465v35h106v-690h-106v224c-27 -28 -67 -43 -120 -43c-133 0 -199 95 -199 226v68c0 144 78 224 199 224c54 0 93 -16 120 -44zM249 83c76 0 106 55 106 127v70c0 86 -35 136 -106 136c-72 0 -107 -49 -107 -136v-58c0 -78 30 -139 107 -139z" />
    <glyph glyph-name="r" unicode="r" horiz-adv-x="403" 
d="M413 435l-85 -60c-16 23 -38 39 -72 39c-54 0 -92 -40 -92 -112v-302h-107v500h105v-45c19 29 53 54 112 54c64 0 108 -25 139 -74z" />
    <glyph glyph-name="s" unicode="s" horiz-adv-x="465" 
d="M413 426l-79 -57c-24 31 -49 45 -109 45c-45 0 -78 -15 -78 -51c0 -42 37 -55 95 -62c111 -13 183 -52 183 -158c0 -92 -63 -152 -192 -152c-102 0 -160 28 -201 83l81 58c23 -31 53 -47 119 -47c55 0 87 20 87 55c0 41 -26 53 -104 63c-95 12 -175 52 -175 157
c0 89 65 149 187 149c82 0 147 -21 186 -83z" />
    <glyph glyph-name="t" unicode="t" horiz-adv-x="324" 
d="M17 408v92h64v110h106v-110h106v-92h-106v-229c0 -58 9 -83 65 -83h41v-96h-49c-120 0 -163 41 -163 159v249h-64z" />
    <glyph glyph-name="u" unicode="u" horiz-adv-x="526" 
d="M468 500v-500h-105v45c-23 -36 -53 -54 -123 -54c-103 0 -183 53 -183 197v312h107v-301c0 -89 40 -114 96 -114c66 0 102 44 102 113v302h106z" />
    <glyph glyph-name="v" unicode="v" horiz-adv-x="504" 
d="M381 500h119l-195 -500h-102l-199 500h118l130 -357z" />
    <glyph glyph-name="w" unicode="w" horiz-adv-x="716" 
d="M358 340l-122 -340h-89l-141 500h111l84 -315l112 315h82l119 -317l84 317h112l-142 -500h-88z" />
    <glyph glyph-name="x" unicode="x" horiz-adv-x="485" 
d="M477 0h-121l-114 167l-114 -167h-120l172 256l-156 244h121l97 -158l98 158h120l-156 -244z" />
    <glyph glyph-name="y" unicode="y" horiz-adv-x="473" 
d="M5 500h113l127 -352l114 352h110l-176 -520c-43 -128 -80 -170 -220 -170v98c70 0 98 11 123 86z" />
    <glyph glyph-name="z" unicode="z" horiz-adv-x="449" 
d="M35 77l239 331h-238v92h377v-77l-237 -331h241v-92h-382v77z" />
    <glyph glyph-name="braceleft" unicode="{" horiz-adv-x="323" 
d="M206 616v-200c0 -43 -14 -60 -45 -70c31 -10 45 -41 45 -70v-200c0 -71 25 -79 73 -79h18v-92h-33c-102 0 -164 25 -164 155v187c0 38 -15 52 -50 52h-19v94h19c35 0 50 14 50 52v187c0 130 62 155 164 155h33v-92h-18c-48 0 -73 -8 -73 -79z" />
    <glyph glyph-name="bar" unicode="|" horiz-adv-x="274" 
d="M185 812v-928h-100v928h100z" />
    <glyph glyph-name="braceright" unicode="}" horiz-adv-x="317" 
d="M121 416v200c0 71 -24 79 -72 79h-18v92h33c102 0 164 -25 164 -155v-187c0 -38 15 -52 50 -52h19v-94h-19c-35 0 -50 -14 -50 -52v-187c0 -130 -62 -155 -164 -155h-33v92h18c48 0 72 8 72 79v200c0 29 14 60 45 70c-31 10 -45 27 -45 70z" />
    <glyph glyph-name="asciitilde" unicode="~" horiz-adv-x="522" 
d="M345 267c-85 0 -109 45 -169 45c-39 0 -70 -17 -93 -46l-73 59c39 48 96 80 166 80c86 0 109 -45 169 -45c39 0 71 18 94 47l72 -59c-40 -49 -97 -81 -166 -81z" />
    <glyph glyph-name="uni00A0" unicode="&#xa0;" horiz-adv-x="250" 
 />
    <glyph glyph-name="exclamdown" unicode="&#xa1;" horiz-adv-x="235" 
d="M172 -190v501h-109v-501h109zM177 500v-118h-119v118h119z" />
    <glyph glyph-name="cent" unicode="&#xa2;" horiz-adv-x="522" 
d="M389 134l81 -57c-27 -47 -70 -73 -131 -81v-112h-96v113c-110 18 -171 102 -171 222v64c0 125 61 202 171 220v119h96v-118c56 -9 103 -36 131 -78l-82 -57c-19 28 -51 46 -94 46c-78 0 -116 -50 -116 -137v-54c0 -79 28 -139 116 -139c42 0 76 14 95 49z" />
    <glyph glyph-name="sterling" unicode="&#xa3;" horiz-adv-x="522" 
d="M25 0v100h72v195h-72v101h72v22c0 204 88 281 215 281c82 0 146 -29 189 -96l-96 -55c-20 27 -48 50 -90 50c-66 0 -102 -45 -102 -180v-22h142v-101h-142v-195h268v-100h-456z" />
    <glyph glyph-name="currency" unicode="&#xa4;" horiz-adv-x="522" 
d="M62 366c0 36 9 71 26 100l-73 74l72 72l72 -73c30 18 65 28 102 28s71 -10 101 -28l74 74l72 -72l-74 -74c18 -30 28 -64 28 -101s-10 -72 -28 -102l74 -73l-72 -72l-74 74c-30 -17 -64 -27 -101 -27s-72 10 -101 27l-73 -73l-72 72l73 73c-17 30 -26 64 -26 101z
M160 366c0 -58 44 -105 101 -105c59 0 103 47 103 105s-44 106 -103 106c-57 0 -101 -48 -101 -106z" />
    <glyph glyph-name="yen" unicode="&#xa5;" horiz-adv-x="522" 
d="M59 228h138v60h-138v97h84l-120 305h128l104 -301l115 301h129l-132 -305h84v-97h-138v-60h138v-97h-138v-131h-116v131h-138v97z" />
    <glyph glyph-name="brokenbar" unicode="&#xa6;" horiz-adv-x="258" 
d="M190 243v-243h-116v243h116zM190 690v-243h-116v243h116z" />
    <glyph glyph-name="section" unicode="&#xa7;" horiz-adv-x="518" 
d="M75 -40h109c3 -30 14 -55 65 -55c48 0 69 23 69 54c0 35 -24 60 -93 82c-98 32 -179 69 -179 209c0 77 36 132 95 161c-40 27 -69 66 -69 127c0 91 69 153 179 153c116 0 172 -55 173 -151h-109c-3 30 -13 55 -65 55c-48 0 -68 -23 -68 -54c0 -36 23 -60 95 -83
c95 -31 176 -68 176 -208c0 -77 -36 -132 -95 -161c40 -27 69 -67 69 -127c0 -92 -69 -153 -179 -153c-116 0 -172 55 -173 151zM344 250c0 55 -34 94 -94 94s-95 -35 -95 -94c0 -67 40 -95 95 -95c59 0 94 35 94 95z" />
    <glyph glyph-name="dieresis" unicode="&#xa8;" horiz-adv-x="420" 
d="M52 585v105h109v-105h-109zM259 585v105h108v-105h-108z" />
    <glyph glyph-name="copyright" unicode="&#xa9;" horiz-adv-x="967" 
d="M41 250c0 246 197 440 440 440s440 -194 440 -440s-197 -440 -440 -440s-440 194 -440 440zM143 250c0 -192 149 -346 338 -346c190 0 337 154 337 346s-147 345 -337 345c-189 0 -338 -153 -338 -345zM584 132l81 -56c-33 -59 -92 -85 -178 -85c-140 0 -220 90 -220 226
v68c0 144 81 224 224 224c76 0 139 -28 174 -81l-82 -57c-19 27 -51 45 -94 45c-78 0 -116 -50 -116 -136v-58c0 -78 28 -139 116 -139c42 0 76 15 95 49z" />
    <glyph glyph-name="ordfeminine" unicode="&#xaa;" horiz-adv-x="316" 
d="M20 466c0 68 46 96 119 96h67v21c0 37 -16 49 -60 49c-36 0 -51 -8 -67 -34l-52 36c22 39 59 58 124 58c82 0 127 -26 127 -101v-217h-72v26c-17 -24 -37 -30 -75 -30c-66 0 -111 32 -111 96zM206 492v13h-59c-40 0 -54 -13 -54 -39s20 -37 50 -37c38 0 63 11 63 63z" />
    <glyph glyph-name="guillemotleft" unicode="&#xab;" 
d="M30 283l232 231v-125l-108 -106l108 -107v-124zM239 283l232 231v-125l-107 -106l107 -107v-124z" />
    <glyph glyph-name="logicalnot" unicode="&#xac;" 
d="M472 176h-105v130h-336v97h441v-227z" />
    <glyph glyph-name="uni00AD" unicode="&#xad;" horiz-adv-x="319" 
d="M30 242v94h259v-94h-259z" />
    <glyph glyph-name="registered" unicode="&#xae;" horiz-adv-x="558" 
d="M20 501c0 142 116 258 257 258c142 0 258 -116 258 -258s-116 -258 -258 -258c-141 0 -257 116 -257 258zM86 501c0 -105 86 -191 191 -191c106 0 191 86 191 191s-85 191 -191 191c-105 0 -191 -86 -191 -191zM233 374h-60v261h109c72 0 100 -42 100 -81
s-20 -64 -52 -77l65 -103h-69l-56 93h-37v-93zM233 518h37c35 0 50 9 50 35c0 21 -16 31 -45 31h-42v-66z" />
    <glyph glyph-name="macron" unicode="&#xaf;" horiz-adv-x="402" 
d="M62 585v94h277v-94h-277z" />
    <glyph glyph-name="degree" unicode="&#xb0;" horiz-adv-x="308" 
d="M16 559c0 78 62 138 138 138s138 -60 138 -138s-62 -138 -138 -138s-138 60 -138 138zM96 559c0 -34 25 -60 58 -60c32 0 57 26 57 60c0 33 -25 59 -57 59c-33 0 -58 -26 -58 -59z" />
    <glyph glyph-name="plusminus" unicode="&#xb1;" horiz-adv-x="503" 
d="M57 348v92h148v149h93v-149h148v-92h-148v-115h-93v115h-148zM57 114v93h389v-93h-389z" />
    <glyph glyph-name="twosuperior" unicode="&#xb2;" horiz-adv-x="278" 
d="M255 434v-60h-221v57l105 95c25 22 38 40 38 63c0 24 -16 38 -36 38c-22 0 -39 -15 -41 -39h-69c0 67 53 105 111 105c65 0 108 -36 108 -99c0 -43 -24 -74 -59 -105l-60 -55h124z" />
    <glyph glyph-name="threesuperior" unicode="&#xb3;" horiz-adv-x="301" 
d="M114 509v55h16c30 0 48 12 48 36c0 20 -15 31 -35 31c-24 0 -37 -13 -40 -32h-71c0 56 49 94 112 94s104 -32 104 -87c0 -36 -22 -57 -47 -68c32 -10 53 -37 53 -72c0 -63 -47 -95 -110 -95c-72 0 -113 43 -116 96h72c3 -19 16 -33 43 -33c21 0 39 11 39 37
c0 22 -14 38 -52 38h-16z" />
    <glyph glyph-name="acute" unicode="&#xb4;" horiz-adv-x="384" 
d="M96 567l70 158h122l-91 -158h-101z" />
    <glyph glyph-name="mu" unicode="&#x3bc;" horiz-adv-x="510" 
d="M157 -137h-106v637h106v-306c0 -90 46 -109 97 -109c65 0 101 44 101 113v302h99v-500h-98v45c-23 -37 -56 -54 -116 -54c-35 0 -62 7 -83 21v-149z" />
    <glyph glyph-name="mu" unicode="&#xb5;" horiz-adv-x="510" 
d="M157 -137h-106v637h106v-306c0 -90 46 -109 97 -109c65 0 101 44 101 113v302h99v-500h-98v45c-23 -37 -56 -54 -116 -54c-35 0 -62 7 -83 21v-149z" />
    <glyph glyph-name="paragraph" unicode="&#xb6;" horiz-adv-x="628" 
d="M540 690v-880h-112v779h-81v-779h-112v500c-105 0 -190 85 -190 190s85 190 190 190h305z" />
    <glyph glyph-name="periodcentered" unicode="&#xb7;" horiz-adv-x="216" 
d="M171 411v-126h-126v126h126z" />
    <glyph glyph-name="cedilla" unicode="&#xb8;" horiz-adv-x="347" 
d="M118 -71l19 96l71 -3l-12 -44c35 -13 56 -37 56 -74c0 -54 -49 -83 -115 -83c-18 0 -34 1 -42 3l14 59c6 -1 11 -1 19 -1c20 0 39 5 39 24s-23 23 -49 23z" />
    <glyph glyph-name="onesuperior" unicode="&#xb9;" horiz-adv-x="277" 
d="M200 690v-316h-73v237l-57 -39v75l61 43h69z" />
    <glyph glyph-name="ordmasculine" unicode="&#xba;" horiz-adv-x="344" 
d="M305 555v-45c0 -84 -48 -139 -137 -139c-82 0 -136 50 -136 139v45c0 91 56 138 136 138c82 0 137 -46 137 -138zM168 437c40 0 64 27 64 73v44c0 51 -26 72 -64 72s-63 -21 -63 -72v-44c0 -47 20 -73 63 -73z" />
    <glyph glyph-name="guillemotright" unicode="&#xbb;" 
d="M257 514l232 -231l-232 -231v124l107 107l-107 106v125zM47 514l232 -231l-232 -231v124l108 107l-108 106v125z" />
    <glyph glyph-name="onequarter" unicode="&#xbc;" horiz-adv-x="634" 
d="M190 690v-316h-73v237l-57 -39v75l61 43h69zM449 316h85l-123 -201h67v50h72v-50h39v-62h-39v-53h-72v53h-160v55zM486 690h106l-474 -690h-107z" />
    <glyph glyph-name="onehalf" unicode="&#xbd;" horiz-adv-x="630" 
d="M190 690v-316h-73v237l-57 -39v75l61 43h69zM590 60v-60h-221v57l105 95c25 22 38 40 38 63c0 24 -16 38 -36 38c-22 0 -39 -15 -41 -39h-69c0 67 53 105 111 105c65 0 108 -36 108 -99c0 -43 -24 -74 -59 -105l-60 -55h124zM486 690h106l-474 -690h-107z" />
    <glyph glyph-name="threequarters" unicode="&#xbe;" horiz-adv-x="619" 
d="M103 509v55h16c30 0 48 12 48 36c0 20 -15 31 -35 31c-24 0 -37 -13 -40 -32h-71c0 56 49 94 112 94s104 -32 104 -87c0 -36 -22 -57 -47 -68c32 -10 53 -37 53 -72c0 -63 -47 -95 -110 -95c-72 0 -113 43 -116 96h72c3 -19 16 -33 43 -33c21 0 39 11 39 37
c0 22 -14 38 -52 38h-16zM449 316h85l-123 -201h67v50h72v-50h39v-62h-39v-53h-72v53h-160v55zM486 690h106l-474 -690h-107z" />
    <glyph glyph-name="questiondown" unicode="&#xbf;" horiz-adv-x="486" 
d="M208 311h102v-72c0 -37 -6 -60 -34 -86l-47 -43c-45 -42 -70 -72 -70 -121c0 -57 43 -88 92 -88c51 0 93 29 94 85h111c0 -119 -93 -185 -205 -185c-113 0 -208 66 -208 191c0 80 49 137 102 187l31 30c21 20 32 34 32 68v34zM200 382v118h118v-118h-118z" />
    <glyph glyph-name="Agrave" unicode="&#xc0;" horiz-adv-x="595" 
d="M126 0h-124l240 690h110l240 -690h-123l-47 143h-249zM297 522l-92 -279h184zM264 873l80 -129h-104l-103 129h127z" />
    <glyph glyph-name="Aacute" unicode="&#xc1;" horiz-adv-x="595" 
d="M126 0h-124l240 690h110l240 -690h-123l-47 143h-249zM297 522l-92 -279h184zM249 744l80 129h126l-103 -129h-103z" />
    <glyph glyph-name="Acircumflex" unicode="&#xc2;" horiz-adv-x="595" 
d="M126 0h-124l240 690h110l240 -690h-123l-47 143h-249zM297 522l-92 -279h184zM247 880h100l138 -142h-117l-71 75l-71 -75h-117z" />
    <glyph glyph-name="Atilde" unicode="&#xc3;" horiz-adv-x="595" 
d="M126 0h-124l240 690h110l240 -690h-123l-47 143h-249zM297 522l-92 -279h184zM358 744c-48 0 -79 28 -117 28c-20 0 -40 -10 -55 -26l-59 60c29 34 70 56 113 56c44 0 77 -28 116 -28c19 0 38 9 54 26l58 -60c-28 -34 -69 -56 -110 -56z" />
    <glyph glyph-name="Adieresis" unicode="&#xc4;" horiz-adv-x="595" 
d="M126 0h-124l240 690h110l240 -690h-123l-47 143h-249zM297 522l-92 -279h184zM140 764v105h108v-105h-108zM346 764v105h109v-105h-109z" />
    <glyph glyph-name="Aring" unicode="&#xc5;" horiz-adv-x="595" 
d="M126 0h-124l228 655c-29 17 -46 45 -46 82c0 61 49 99 113 99c65 0 114 -38 114 -99c0 -37 -19 -65 -47 -82l228 -655h-123l-47 143h-249zM297 522l-92 -279h184zM251 737c0 -25 20 -38 46 -38c27 0 46 13 46 38c0 26 -19 38 -46 38c-26 0 -46 -12 -46 -38z" />
    <glyph glyph-name="AE" unicode="&#xc6;" horiz-adv-x="878" 
d="M136 0h-134l391 690h450v-101h-307v-182h277v-100h-277v-207h307v-100h-423v147h-202zM273 247h147v263z" />
    <glyph glyph-name="Ccedilla" unicode="&#xc7;" horiz-adv-x="587" 
d="M264 -71l12 63c-137 11 -228 106 -228 309v88c0 217 104 310 258 310c137 0 228 -73 251 -223h-112c-18 84 -63 122 -139 122c-92 0 -142 -60 -142 -209v-88c0 -147 50 -209 142 -209c79 0 121 38 139 122h111c-21 -140 -96 -209 -210 -221l-4 -15c35 -13 56 -37 56 -74
c0 -54 -49 -83 -115 -83c-18 0 -34 1 -42 3l14 59c6 -1 11 -1 19 -1c20 0 39 5 39 24s-23 23 -49 23z" />
    <glyph glyph-name="Egrave" unicode="&#xc8;" horiz-adv-x="533" 
d="M76 690h423v-101h-307v-182h277v-100h-277v-207h307v-100h-423v690zM282 873l80 -129h-104l-103 129h127z" />
    <glyph glyph-name="Eacute" unicode="&#xc9;" horiz-adv-x="533" 
d="M76 690h423v-101h-307v-182h277v-100h-277v-207h307v-100h-423v690zM221 744l80 129h126l-103 -129h-103z" />
    <glyph glyph-name="Ecircumflex" unicode="&#xca;" horiz-adv-x="533" 
d="M76 690h423v-101h-307v-182h277v-100h-277v-207h307v-100h-423v690zM237 880h100l138 -142h-117l-71 75l-71 -75h-117z" />
    <glyph glyph-name="Edieresis" unicode="&#xcb;" horiz-adv-x="533" 
d="M76 690h423v-101h-307v-182h277v-100h-277v-207h307v-100h-423v690zM130 764v105h108v-105h-108zM336 764v105h109v-105h-109z" />
    <glyph glyph-name="Igrave" unicode="&#xcc;" horiz-adv-x="287" 
d="M202 690v-690h-116v690h116zM123 873l80 -129h-104l-103 129h127z" />
    <glyph glyph-name="Iacute" unicode="&#xcd;" horiz-adv-x="287" 
d="M202 690v-690h-116v690h116zM86 744l80 129h126l-103 -129h-103z" />
    <glyph glyph-name="Icircumflex" unicode="&#xce;" horiz-adv-x="287" 
d="M202 690v-690h-116v690h116zM94 880h100l138 -142h-117l-71 75l-71 -75h-117z" />
    <glyph glyph-name="Idieresis" unicode="&#xcf;" horiz-adv-x="287" 
d="M202 690v-690h-116v690h116zM-14 764v105h108v-105h-108zM192 764v105h109v-105h-109z" />
    <glyph glyph-name="Eth" unicode="&#xd0;" horiz-adv-x="620" 
d="M313 0h-233v307h-90v100h90v283h233c155 0 259 -83 259 -304v-82c0 -221 -104 -304 -259 -304zM313 100c99 0 143 62 143 204v82c0 142 -44 203 -143 203h-117v-182h155v-100h-155v-207h117z" />
    <glyph glyph-name="Ntilde" unicode="&#xd1;" horiz-adv-x="648" 
d="M460 690h112v-690h-103l-281 469v-469h-112v690h100l284 -475v475zM384 744c-48 0 -79 28 -117 28c-20 0 -40 -10 -55 -26l-59 60c29 34 70 56 113 56c44 0 77 -28 116 -28c19 0 38 9 54 26l58 -60c-28 -34 -69 -56 -110 -56z" />
    <glyph glyph-name="Ograve" unicode="&#xd2;" horiz-adv-x="613" 
d="M565 301c0 -217 -104 -310 -259 -310c-154 0 -258 93 -258 310v88c0 217 104 310 258 310c155 0 259 -93 259 -310v-88zM164 389v-88c0 -149 50 -209 142 -209s143 60 143 209v88c0 149 -51 209 -143 209s-142 -60 -142 -209zM298 873l80 -129h-104l-103 129h127z" />
    <glyph glyph-name="Oacute" unicode="&#xd3;" horiz-adv-x="613" 
d="M565 301c0 -217 -104 -310 -259 -310c-154 0 -258 93 -258 310v88c0 217 104 310 258 310c155 0 259 -93 259 -310v-88zM164 389v-88c0 -149 50 -209 142 -209s143 60 143 209v88c0 149 -51 209 -143 209s-142 -60 -142 -209zM233 744l80 129h126l-103 -129h-103z" />
    <glyph glyph-name="Ocircumflex" unicode="&#xd4;" horiz-adv-x="613" 
d="M565 301c0 -217 -104 -310 -259 -310c-154 0 -258 93 -258 310v88c0 217 104 310 258 310c155 0 259 -93 259 -310v-88zM164 389v-88c0 -149 50 -209 142 -209s143 60 143 209v88c0 149 -51 209 -143 209s-142 -60 -142 -209zM256 880h100l138 -142h-117l-71 75l-71 -75
h-117z" />
    <glyph glyph-name="Otilde" unicode="&#xd5;" horiz-adv-x="613" 
d="M565 301c0 -217 -104 -310 -259 -310c-154 0 -258 93 -258 310v88c0 217 104 310 258 310c155 0 259 -93 259 -310v-88zM164 389v-88c0 -149 50 -209 142 -209s143 60 143 209v88c0 149 -51 209 -143 209s-142 -60 -142 -209zM366 744c-48 0 -79 28 -117 28
c-20 0 -40 -10 -55 -26l-59 60c29 34 70 56 113 56c44 0 77 -28 116 -28c19 0 38 9 54 26l58 -60c-28 -34 -69 -56 -110 -56z" />
    <glyph glyph-name="Odieresis" unicode="&#xd6;" horiz-adv-x="613" 
d="M565 301c0 -217 -104 -310 -259 -310c-154 0 -258 93 -258 310v88c0 217 104 310 258 310c155 0 259 -93 259 -310v-88zM164 389v-88c0 -149 50 -209 142 -209s143 60 143 209v88c0 149 -51 209 -143 209s-142 -60 -142 -209zM149 764v105h108v-105h-108zM355 764v105
h109v-105h-109z" />
    <glyph glyph-name="multiply" unicode="&#xd7;" horiz-adv-x="535" 
d="M149 167l-66 66l121 121l-121 122l65 65l122 -122l122 122l65 -65l-122 -122l122 -121l-66 -66l-121 121z" />
    <glyph glyph-name="Oslash" unicode="&#xd8;" horiz-adv-x="613" 
d="M192 -116h-98l55 153c-64 47 -101 133 -101 264v88c0 217 104 310 258 310c28 0 55 -3 79 -10l45 123h98l-59 -164c60 -48 96 -132 96 -259v-88c0 -217 -104 -310 -259 -310c-26 0 -50 3 -73 8zM164 389v-88c0 -65 9 -113 28 -147l158 438c-13 4 -28 6 -44 6
c-92 0 -142 -60 -142 -209zM449 389c0 60 -8 105 -24 138l-157 -431c12 -3 24 -4 38 -4c92 0 143 60 143 209v88z" />
    <glyph glyph-name="Ugrave" unicode="&#xd9;" horiz-adv-x="668" 
d="M476 690h116v-410c0 -204 -105 -289 -258 -289s-258 85 -258 288v411h116v-411c0 -132 47 -187 142 -187s142 55 142 187v411zM322 873l80 -129h-104l-103 129h127z" />
    <glyph glyph-name="Uacute" unicode="&#xda;" horiz-adv-x="668" 
d="M476 690h116v-410c0 -204 -105 -289 -258 -289s-258 85 -258 288v411h116v-411c0 -132 47 -187 142 -187s142 55 142 187v411zM265 744l80 129h126l-103 -129h-103z" />
    <glyph glyph-name="Ucircumflex" unicode="&#xdb;" horiz-adv-x="668" 
d="M476 690h116v-410c0 -204 -105 -289 -258 -289s-258 85 -258 288v411h116v-411c0 -132 47 -187 142 -187s142 55 142 187v411zM284 880h100l138 -142h-117l-71 75l-71 -75h-117z" />
    <glyph glyph-name="Udieresis" unicode="&#xdc;" horiz-adv-x="668" 
d="M476 690h116v-410c0 -204 -105 -289 -258 -289s-258 85 -258 288v411h116v-411c0 -132 47 -187 142 -187s142 55 142 187v411zM177 764v105h108v-105h-108zM383 764v105h109v-105h-109z" />
    <glyph glyph-name="Yacute" unicode="&#xdd;" horiz-adv-x="571" 
d="M12 690h135l138 -276l139 276h134l-215 -402v-288h-116v288zM225 744l80 129h126l-103 -129h-103z" />
    <glyph glyph-name="Thorn" unicode="&#xde;" horiz-adv-x="589" 
d="M311 139h-119v-139h-116v690h116v-113h119c159 0 254 -76 254 -217s-94 -221 -254 -221zM192 240h107c106 0 150 41 150 120c0 74 -44 117 -150 117h-107v-237z" />
    <glyph glyph-name="germandbls" unicode="&#xdf;" 
d="M462 564c0 -43 -17 -76 -61 -97c50 -18 61 -56 61 -115v-212c0 -120 -45 -140 -147 -140h-53v91h36c42 0 58 17 58 61v198c0 47 -12 67 -58 67h-36v87h36c37 0 58 19 58 52c0 31 -24 56 -87 56c-73 0 -105 -38 -105 -121v-491h-107v499c0 128 66 200 212 200
c143 0 193 -68 193 -135z" />
    <glyph glyph-name="agrave" unicode="&#xe0;" horiz-adv-x="488" 
d="M32 147c0 107 79 148 186 148h108v42c0 63 -24 80 -99 80c-54 0 -81 -6 -105 -45l-77 54c36 59 90 83 189 83c128 0 197 -40 197 -173v-336h-105v46c-24 -39 -55 -55 -116 -55c-110 0 -178 56 -178 156zM326 189v24h-100c-63 0 -89 -22 -89 -66c0 -46 34 -65 85 -65
c65 0 104 20 104 107zM244 725l70 -158h-101l-91 158h122z" />
    <glyph glyph-name="aacute" unicode="&#xe1;" horiz-adv-x="488" 
d="M32 147c0 107 79 148 186 148h108v42c0 63 -24 80 -99 80c-54 0 -81 -6 -105 -45l-77 54c36 59 90 83 189 83c128 0 197 -40 197 -173v-336h-105v46c-24 -39 -55 -55 -116 -55c-110 0 -178 56 -178 156zM326 189v24h-100c-63 0 -89 -22 -89 -66c0 -46 34 -65 85 -65
c65 0 104 20 104 107zM179 567l70 158h122l-91 -158h-101z" />
    <glyph glyph-name="acircumflex" unicode="&#xe2;" horiz-adv-x="488" 
d="M32 147c0 107 79 148 186 148h108v42c0 63 -24 80 -99 80c-54 0 -81 -6 -105 -45l-77 54c36 59 90 83 189 83c128 0 197 -40 197 -173v-336h-105v46c-24 -39 -55 -55 -116 -55c-110 0 -178 56 -178 156zM326 189v24h-100c-63 0 -89 -22 -89 -66c0 -46 34 -65 85 -65
c65 0 104 20 104 107zM194 700h100l108 -142h-102l-56 77l-56 -77h-102z" />
    <glyph glyph-name="atilde" unicode="&#xe3;" horiz-adv-x="488" 
d="M32 147c0 107 79 148 186 148h108v42c0 63 -24 80 -99 80c-54 0 -81 -6 -105 -45l-77 54c36 59 90 83 189 83c128 0 197 -40 197 -173v-336h-105v46c-24 -39 -55 -55 -116 -55c-110 0 -178 56 -178 156zM326 189v24h-100c-63 0 -89 -22 -89 -66c0 -46 34 -65 85 -65
c65 0 104 20 104 107zM307 572c-48 0 -79 28 -116 28c-21 0 -40 -10 -56 -27l-58 59c28 34 69 56 112 56c45 0 77 -29 117 -29c18 0 37 10 53 27l58 -58c-27 -34 -68 -56 -110 -56z" />
    <glyph glyph-name="adieresis" unicode="&#xe4;" horiz-adv-x="488" 
d="M32 147c0 107 79 148 186 148h108v42c0 63 -24 80 -99 80c-54 0 -81 -6 -105 -45l-77 54c36 59 90 83 189 83c128 0 197 -40 197 -173v-336h-105v46c-24 -39 -55 -55 -116 -55c-110 0 -178 56 -178 156zM326 189v24h-100c-63 0 -89 -22 -89 -66c0 -46 34 -65 85 -65
c65 0 104 20 104 107zM79 585v105h109v-105h-109zM286 585v105h108v-105h-108z" />
    <glyph glyph-name="aring" unicode="&#xe5;" horiz-adv-x="488" 
d="M32 147c0 107 79 148 186 148h108v42c0 63 -24 80 -99 80c-54 0 -81 -6 -105 -45l-77 54c36 59 90 83 189 83c128 0 197 -40 197 -173v-336h-105v46c-24 -39 -55 -55 -116 -55c-110 0 -178 56 -178 156zM326 189v24h-100c-63 0 -89 -22 -89 -66c0 -46 34 -65 85 -65
c65 0 104 20 104 107zM128 646c0 62 49 110 117 110s117 -48 117 -110s-49 -109 -117 -109s-117 47 -117 109zM199 646c0 -29 19 -50 46 -50s46 21 46 50c0 30 -19 49 -46 49s-46 -19 -46 -49z" />
    <glyph glyph-name="ae" unicode="&#xe6;" horiz-adv-x="775" 
d="M642 132l80 -56c-35 -61 -91 -85 -179 -85c-80 0 -134 28 -166 79c-35 -53 -89 -79 -167 -79c-112 0 -178 57 -178 154c0 110 80 150 188 150h106v40c0 61 -21 82 -97 82c-59 0 -85 -9 -107 -45l-77 52c35 58 96 85 191 85c75 0 125 -19 153 -57c30 36 75 57 138 57
c126 0 199 -72 203 -220v-67h-299v-2c0 -88 39 -137 110 -137c55 0 81 16 101 49zM326 189v24h-100c-62 0 -89 -23 -89 -66c0 -48 35 -65 85 -65c62 0 104 18 104 107zM528 416c-62 0 -92 -41 -97 -112h191c-3 70 -31 112 -94 112z" />
    <glyph glyph-name="ccedilla" unicode="&#xe7;" horiz-adv-x="445" 
d="M208 -71l12 64c-118 14 -184 100 -184 224v68c0 144 81 224 224 224c76 0 139 -28 174 -81l-82 -57c-19 27 -51 45 -94 45c-78 0 -116 -50 -116 -136v-58c0 -78 28 -139 116 -139c42 0 76 15 95 49l81 -56c-29 -51 -77 -77 -144 -83l-4 -15c35 -13 56 -37 56 -74
c0 -54 -49 -83 -115 -83c-18 0 -34 1 -42 3l14 59c6 -1 11 -1 19 -1c20 0 39 5 39 24s-23 23 -49 23z" />
    <glyph glyph-name="egrave" unicode="&#xe8;" horiz-adv-x="487" 
d="M354 132l80 -56c-35 -61 -91 -85 -179 -85c-143 0 -219 93 -219 226v68c0 147 72 224 203 224c137 0 202 -82 202 -230v-55h-299v-2c0 -78 30 -139 109 -139c59 0 83 18 103 49zM239 416c-62 0 -91 -42 -96 -110h191c-4 73 -34 110 -95 110zM244 725l70 -158h-101
l-91 158h122z" />
    <glyph glyph-name="eacute" unicode="&#xe9;" horiz-adv-x="487" 
d="M354 132l80 -56c-35 -61 -91 -85 -179 -85c-143 0 -219 93 -219 226v68c0 147 72 224 203 224c137 0 202 -82 202 -230v-55h-299v-2c0 -78 30 -139 109 -139c59 0 83 18 103 49zM239 416c-62 0 -91 -42 -96 -110h191c-4 73 -34 110 -95 110zM175 567l70 158h122l-91 -158
h-101z" />
    <glyph glyph-name="ecircumflex" unicode="&#xea;" horiz-adv-x="487" 
d="M354 132l80 -56c-35 -61 -91 -85 -179 -85c-143 0 -219 93 -219 226v68c0 147 72 224 203 224c137 0 202 -82 202 -230v-55h-299v-2c0 -78 30 -139 109 -139c59 0 83 18 103 49zM239 416c-62 0 -91 -42 -96 -110h191c-4 73 -34 110 -95 110zM189 700h100l108 -142h-102
l-56 77l-56 -77h-102z" />
    <glyph glyph-name="edieresis" unicode="&#xeb;" horiz-adv-x="487" 
d="M354 132l80 -56c-35 -61 -91 -85 -179 -85c-143 0 -219 93 -219 226v68c0 147 72 224 203 224c137 0 202 -82 202 -230v-55h-299v-2c0 -78 30 -139 109 -139c59 0 83 18 103 49zM239 416c-62 0 -91 -42 -96 -110h191c-4 73 -34 110 -95 110zM81 585v105h109v-105h-109z
M288 585v105h108v-105h-108z" />
    <glyph glyph-name="igrave" unicode="&#xec;" horiz-adv-x="251" 
d="M72 0v500h107v-500h-107zM104 725l70 -158h-101l-91 158h122z" />
    <glyph glyph-name="iacute" unicode="&#xed;" horiz-adv-x="251" 
d="M72 0v500h107v-500h-107zM68 567l70 158h122l-91 -158h-101z" />
    <glyph glyph-name="icircumflex" unicode="&#xee;" horiz-adv-x="251" 
d="M72 0v500h107v-500h-107zM71 700h100l108 -142h-102l-56 77l-56 -77h-102z" />
    <glyph glyph-name="idieresis" unicode="&#xef;" horiz-adv-x="251" 
d="M72 0v500h107v-500h-107zM-37 585v105h109v-105h-109zM170 585v105h108v-105h-108z" />
    <glyph glyph-name="eth" unicode="&#xf0;" horiz-adv-x="501" 
d="M168 564l26 46l-55 22l41 76l55 -23l31 55l67 -38l-27 -49c114 -56 155 -108 155 -263v-171c0 -133 -65 -228 -212 -228c-140 0 -213 90 -213 228v63c0 147 78 227 210 227c46 0 90 -13 119 -41c-8 53 -33 80 -99 111l-29 -52zM249 83c76 0 106 61 106 139v58
c0 87 -35 136 -106 136c-72 0 -107 -50 -107 -136v-58c0 -78 26 -139 107 -139z" />
    <glyph glyph-name="ntilde" unicode="&#xf1;" horiz-adv-x="526" 
d="M57 0v500h105v-45c22 30 58 54 124 54c103 0 182 -52 182 -196v-313h-106v301c0 88 -40 113 -95 113c-66 0 -103 -45 -103 -112v-302h-107zM323 572c-48 0 -79 28 -116 28c-21 0 -40 -10 -56 -27l-58 59c28 34 69 56 112 56c45 0 77 -29 117 -29c18 0 37 10 53 27l58 -58
c-27 -34 -68 -56 -110 -56z" />
    <glyph glyph-name="ograve" unicode="&#xf2;" horiz-adv-x="497" 
d="M461 282v-63c0 -133 -65 -228 -212 -228c-140 0 -213 90 -213 228v63c0 147 78 227 213 227s212 -80 212 -227zM249 83c76 0 106 61 106 139v58c0 87 -35 136 -106 136c-72 0 -107 -50 -107 -136v-58c0 -78 26 -139 107 -139zM252 725l70 -158h-101l-91 158h122z" />
    <glyph glyph-name="oacute" unicode="&#xf3;" horiz-adv-x="497" 
d="M461 282v-63c0 -133 -65 -228 -212 -228c-140 0 -213 90 -213 228v63c0 147 78 227 213 227s212 -80 212 -227zM249 83c76 0 106 61 106 139v58c0 87 -35 136 -106 136c-72 0 -107 -50 -107 -136v-58c0 -78 26 -139 107 -139zM186 567l70 158h122l-91 -158h-101z" />
    <glyph glyph-name="ocircumflex" unicode="&#xf4;" horiz-adv-x="497" 
d="M461 282v-63c0 -133 -65 -228 -212 -228c-140 0 -213 90 -213 228v63c0 147 78 227 213 227s212 -80 212 -227zM249 83c76 0 106 61 106 139v58c0 87 -35 136 -106 136c-72 0 -107 -50 -107 -136v-58c0 -78 26 -139 107 -139zM199 700h100l108 -142h-102l-56 77l-56 -77
h-102z" />
    <glyph glyph-name="otilde" unicode="&#xf5;" horiz-adv-x="497" 
d="M461 282v-63c0 -133 -65 -228 -212 -228c-140 0 -213 90 -213 228v63c0 147 78 227 213 227s212 -80 212 -227zM249 83c76 0 106 61 106 139v58c0 87 -35 136 -106 136c-72 0 -107 -50 -107 -136v-58c0 -78 26 -139 107 -139zM309 572c-48 0 -79 28 -116 28
c-21 0 -40 -10 -56 -27l-58 59c28 34 69 56 112 56c45 0 77 -29 117 -29c18 0 37 10 53 27l58 -58c-27 -34 -68 -56 -110 -56z" />
    <glyph glyph-name="odieresis" unicode="&#xf6;" horiz-adv-x="497" 
d="M461 282v-63c0 -133 -65 -228 -212 -228c-140 0 -213 90 -213 228v63c0 147 78 227 213 227s212 -80 212 -227zM249 83c76 0 106 61 106 139v58c0 87 -35 136 -106 136c-72 0 -107 -50 -107 -136v-58c0 -78 26 -139 107 -139zM91 585v105h109v-105h-109zM298 585v105h108
v-105h-108z" />
    <glyph glyph-name="divide" unicode="&#xf7;" horiz-adv-x="503" 
d="M57 307v94h389v-94h-389zM197 464v107h107v-107h-107zM197 138v106h107v-106h-107z" />
    <glyph glyph-name="oslash" unicode="&#xf8;" horiz-adv-x="497" 
d="M140 -79h-77l50 111c-51 39 -77 104 -77 187v63c0 147 78 227 213 227c27 0 51 -4 73 -10l37 83h77l-51 -113c49 -38 76 -101 76 -187v-63c0 -133 -65 -228 -212 -228c-27 0 -52 3 -74 9zM142 222c0 -34 5 -64 17 -88l124 277c-10 3 -22 5 -34 5
c-72 0 -107 -50 -107 -136v-58zM249 83c76 0 106 61 106 139v58c0 34 -6 62 -17 84l-124 -277c10 -3 22 -4 35 -4z" />
    <glyph glyph-name="ugrave" unicode="&#xf9;" horiz-adv-x="526" 
d="M468 500v-500h-105v45c-23 -36 -53 -54 -123 -54c-103 0 -183 53 -183 197v312h107v-301c0 -89 40 -114 96 -114c66 0 102 44 102 113v302h106zM273 725l70 -158h-101l-91 158h122z" />
    <glyph glyph-name="uacute" unicode="&#xfa;" horiz-adv-x="526" 
d="M468 500v-500h-105v45c-23 -36 -53 -54 -123 -54c-103 0 -183 53 -183 197v312h107v-301c0 -89 40 -114 96 -114c66 0 102 44 102 113v302h106zM206 567l70 158h122l-91 -158h-101z" />
    <glyph glyph-name="ucircumflex" unicode="&#xfb;" horiz-adv-x="526" 
d="M468 500v-500h-105v45c-23 -36 -53 -54 -123 -54c-103 0 -183 53 -183 197v312h107v-301c0 -89 40 -114 96 -114c66 0 102 44 102 113v302h106zM213 700h100l108 -142h-102l-56 77l-56 -77h-102z" />
    <glyph glyph-name="udieresis" unicode="&#xfc;" horiz-adv-x="526" 
d="M468 500v-500h-105v45c-23 -36 -53 -54 -123 -54c-103 0 -183 53 -183 197v312h107v-301c0 -89 40 -114 96 -114c66 0 102 44 102 113v302h106zM105 585v105h109v-105h-109zM312 585v105h108v-105h-108z" />
    <glyph glyph-name="yacute" unicode="&#xfd;" horiz-adv-x="473" 
d="M5 500h113l127 -352l114 352h110l-176 -520c-43 -128 -80 -170 -220 -170v98c70 0 98 11 123 86zM190 567l70 158h122l-91 -158h-101z" />
    <glyph glyph-name="thorn" unicode="&#xfe;" 
d="M482 285v-68c0 -130 -64 -226 -197 -226c-58 0 -96 14 -121 41v-222h-107v880h107v-230c25 31 65 49 122 49c120 0 196 -81 196 -224zM270 83c76 0 106 61 106 139v58c0 87 -35 136 -106 136c-70 0 -105 -48 -106 -130v-64c0 -78 25 -139 106 -139z" />
    <glyph glyph-name="ydieresis" unicode="&#xff;" horiz-adv-x="473" 
d="M5 500h113l127 -352l114 352h110l-176 -520c-43 -128 -80 -170 -220 -170v98c70 0 98 11 123 86zM85 585v105h109v-105h-109zM292 585v105h108v-105h-108z" />
    <glyph glyph-name="Amacron" unicode="&#x100;" horiz-adv-x="595" 
d="M126 0h-124l240 690h110l240 -690h-123l-47 143h-249zM297 522l-92 -279h184zM139 755v94h317v-94h-317z" />
    <glyph glyph-name="amacron" unicode="&#x101;" horiz-adv-x="488" 
d="M32 147c0 107 79 148 186 148h108v42c0 63 -24 80 -99 80c-54 0 -81 -6 -105 -45l-77 54c36 59 90 83 189 83c128 0 197 -40 197 -173v-336h-105v46c-24 -39 -55 -55 -116 -55c-110 0 -178 56 -178 156zM326 189v24h-100c-63 0 -89 -22 -89 -66c0 -46 34 -65 85 -65
c65 0 104 20 104 107zM103 585v94h277v-94h-277z" />
    <glyph glyph-name="Abreve" unicode="&#x102;" horiz-adv-x="595" 
d="M126 0h-124l240 690h110l240 -690h-123l-47 143h-249zM297 522l-92 -279h184zM389 879h97c0 -100 -78 -152 -188 -152s-189 52 -189 152h97c6 -36 29 -63 92 -63s86 27 91 63z" />
    <glyph glyph-name="abreve" unicode="&#x103;" horiz-adv-x="488" 
d="M32 147c0 107 79 148 186 148h108v42c0 63 -24 80 -99 80c-54 0 -81 -6 -105 -45l-77 54c36 59 90 83 189 83c128 0 197 -40 197 -173v-336h-105v46c-24 -39 -55 -55 -116 -55c-110 0 -178 56 -178 156zM326 189v24h-100c-63 0 -89 -22 -89 -66c0 -46 34 -65 85 -65
c65 0 104 20 104 107zM315 690h80c-3 -82 -55 -126 -143 -126s-141 44 -144 126h81c4 -35 20 -56 63 -56s59 21 63 56z" />
    <glyph glyph-name="Aogonek" unicode="&#x104;" horiz-adv-x="595" 
d="M126 0h-124l240 690h110l240 -690c-33 -25 -53 -42 -53 -64c0 -20 15 -25 35 -25c7 0 14 1 20 2l13 -59c-8 -3 -25 -4 -46 -4c-49 0 -107 19 -107 76c0 29 12 53 35 74h-20l-47 143h-249zM297 522l-92 -279h184z" />
    <glyph glyph-name="aogonek" unicode="&#x105;" horiz-adv-x="493" 
d="M32 147c0 107 79 148 186 148h108v42c0 63 -24 80 -99 80c-54 0 -81 -6 -105 -45l-77 54c36 59 90 83 189 83c128 0 197 -40 197 -173v-336c-34 -25 -54 -42 -54 -64c0 -20 16 -25 35 -25c7 0 14 1 20 2l14 -59c-8 -3 -25 -4 -47 -4c-49 0 -107 19 -107 76
c0 29 13 53 34 74v46c-24 -39 -55 -55 -116 -55c-110 0 -178 56 -178 156zM326 189v24h-100c-63 0 -89 -22 -89 -66c0 -46 34 -65 85 -65c65 0 104 20 104 107z" />
    <glyph glyph-name="Cacute" unicode="&#x106;" horiz-adv-x="587" 
d="M557 476h-112c-18 84 -63 122 -139 122c-92 0 -142 -60 -142 -209v-88c0 -147 50 -209 142 -209c79 0 121 38 139 122h111c-23 -155 -113 -223 -250 -223c-154 0 -258 93 -258 310v88c0 217 104 310 258 310c137 0 228 -73 251 -223zM214 744l80 129h126l-103 -129h-103z
" />
    <glyph glyph-name="cacute" unicode="&#x107;" horiz-adv-x="445" 
d="M353 132l81 -56c-33 -59 -92 -85 -178 -85c-140 0 -220 90 -220 226v68c0 144 81 224 224 224c76 0 139 -28 174 -81l-82 -57c-19 27 -51 45 -94 45c-78 0 -116 -50 -116 -136v-58c0 -78 28 -139 116 -139c42 0 76 15 95 49zM192 567l70 158h122l-91 -158h-101z" />
    <glyph glyph-name="Ccircumflex" unicode="&#x108;" horiz-adv-x="587" 
d="M557 476h-112c-18 84 -63 122 -139 122c-92 0 -142 -60 -142 -209v-88c0 -147 50 -209 142 -209c79 0 121 38 139 122h111c-23 -155 -113 -223 -250 -223c-154 0 -258 93 -258 310v88c0 217 104 310 258 310c137 0 228 -73 251 -223zM255 880h100l138 -142h-117l-71 75
l-71 -75h-117z" />
    <glyph glyph-name="ccircumflex" unicode="&#x109;" horiz-adv-x="445" 
d="M353 132l81 -56c-33 -59 -92 -85 -178 -85c-140 0 -220 90 -220 226v68c0 144 81 224 224 224c76 0 139 -28 174 -81l-82 -57c-19 27 -51 45 -94 45c-78 0 -116 -50 -116 -136v-58c0 -78 28 -139 116 -139c42 0 76 15 95 49zM206 700h100l108 -142h-102l-56 77l-56 -77
h-102z" />
    <glyph glyph-name="Cdotaccent" unicode="&#x10a;" horiz-adv-x="587" 
d="M557 476h-112c-18 84 -63 122 -139 122c-92 0 -142 -60 -142 -209v-88c0 -147 50 -209 142 -209c79 0 121 38 139 122h111c-23 -155 -113 -223 -250 -223c-154 0 -258 93 -258 310v88c0 217 104 310 258 310c137 0 228 -73 251 -223zM245 768v101h118v-101h-118z" />
    <glyph glyph-name="cdotaccent" unicode="&#x10b;" horiz-adv-x="445" 
d="M353 132l81 -56c-33 -59 -92 -85 -178 -85c-140 0 -220 90 -220 226v68c0 144 81 224 224 224c76 0 139 -28 174 -81l-82 -57c-19 27 -51 45 -94 45c-78 0 -116 -50 -116 -136v-58c0 -78 28 -139 116 -139c42 0 76 15 95 49zM185 581v109h116v-109h-116z" />
    <glyph glyph-name="Ccaron" unicode="&#x10c;" horiz-adv-x="587" 
d="M557 476h-112c-18 84 -63 122 -139 122c-92 0 -142 -60 -142 -209v-88c0 -147 50 -209 142 -209c79 0 121 38 139 122h111c-23 -155 -113 -223 -250 -223c-154 0 -258 93 -258 310v88c0 217 104 310 258 310c137 0 228 -73 251 -223zM353 738h-100l-138 142h117l71 -75
l71 75h117z" />
    <glyph glyph-name="ccaron" unicode="&#x10d;" horiz-adv-x="445" 
d="M353 132l81 -56c-33 -59 -92 -85 -178 -85c-140 0 -220 90 -220 226v68c0 144 81 224 224 224c76 0 139 -28 174 -81l-82 -57c-19 27 -51 45 -94 45c-78 0 -116 -50 -116 -136v-58c0 -78 28 -139 116 -139c42 0 76 15 95 49zM303 558h-100l-108 142h102l56 -77l56 77h102
z" />
    <glyph glyph-name="Dcaron" unicode="&#x10e;" horiz-adv-x="616" 
d="M309 0h-233v690h233c155 0 259 -83 259 -304v-82c0 -221 -104 -304 -259 -304zM309 100c99 0 143 62 143 204v82c0 142 -44 203 -143 203h-117v-489h117zM332 738h-100l-138 142h117l71 -75l71 75h117z" />
    <glyph glyph-name="dcaron" unicode="&#x10f;" horiz-adv-x="555" 
d="M355 465v225h106v-690h-106v35c-27 -28 -65 -44 -120 -44c-133 0 -199 95 -199 226v68c0 144 78 224 199 224c52 0 92 -15 120 -44zM249 83c80 0 106 61 106 139v64c0 82 -37 130 -106 130c-72 0 -107 -49 -107 -136v-58c0 -78 30 -139 107 -139zM618 689v-114l-119 -102
v216h119z" />
    <glyph glyph-name="Dcroat" unicode="&#x110;" horiz-adv-x="630" 
d="M323 0h-233v307h-100v100h100v283h233c155 0 259 -83 259 -304v-82c0 -221 -104 -304 -259 -304zM323 100c99 0 143 62 143 204v82c0 142 -44 203 -143 203h-117v-182h153v-100h-153v-207h117z" />
    <glyph glyph-name="dcroat" unicode="&#x111;" horiz-adv-x="541" 
d="M355 637v53h106v-53h84v-90h-84v-547h-106v35c-27 -28 -65 -44 -120 -44c-133 0 -199 95 -199 226v68c0 144 78 224 199 224c52 0 92 -15 120 -44v82h-141v90h141zM249 83c80 0 106 61 106 139v64c0 82 -37 130 -106 130c-72 0 -107 -49 -107 -136v-58
c0 -78 30 -139 107 -139z" />
    <glyph glyph-name="Emacron" unicode="&#x112;" horiz-adv-x="533" 
d="M76 690h423v-101h-307v-182h277v-100h-277v-207h307v-100h-423v690zM129 755v94h317v-94h-317z" />
    <glyph glyph-name="emacron" unicode="&#x113;" horiz-adv-x="487" 
d="M354 132l80 -56c-35 -61 -91 -85 -179 -85c-143 0 -219 93 -219 226v68c0 147 72 224 203 224c137 0 202 -82 202 -230v-55h-299v-2c0 -78 30 -139 109 -139c59 0 83 18 103 49zM239 416c-62 0 -91 -42 -96 -110h191c-4 73 -34 110 -95 110zM101 585v94h277v-94h-277z
" />
    <glyph glyph-name="Edotaccent" unicode="&#x116;" horiz-adv-x="533" 
d="M76 690h423v-101h-307v-182h277v-100h-277v-207h307v-100h-423v690zM228 768v101h118v-101h-118z" />
    <glyph glyph-name="edotaccent" unicode="&#x117;" horiz-adv-x="487" 
d="M354 132l80 -56c-35 -61 -91 -85 -179 -85c-143 0 -219 93 -219 226v68c0 147 72 224 203 224c137 0 202 -82 202 -230v-55h-299v-2c0 -78 30 -139 109 -139c59 0 83 18 103 49zM239 416c-62 0 -91 -42 -96 -110h191c-4 73 -34 110 -95 110zM180 581v109h116v-109h-116z
" />
    <glyph glyph-name="Eogonek" unicode="&#x118;" horiz-adv-x="533" 
d="M76 690h423v-101h-307v-182h277v-100h-277v-207h307v-100h-113c-34 -25 -54 -42 -54 -64c0 -20 16 -25 35 -25c7 0 14 1 20 2l14 -59c-8 -3 -25 -4 -47 -4c-49 0 -107 19 -107 76c0 29 13 53 36 74h-207v690z" />
    <glyph glyph-name="eogonek" unicode="&#x119;" horiz-adv-x="487" 
d="M354 132l80 -56c-26 -46 -64 -71 -118 -80c-31 -23 -48 -39 -48 -60c0 -20 16 -25 35 -25c7 0 14 1 20 2l14 -59c-8 -3 -25 -4 -47 -4c-49 0 -107 19 -107 76c0 26 10 48 29 68c-115 16 -176 104 -176 223v68c0 147 72 224 203 224c137 0 202 -82 202 -230v-55h-299v-2
c0 -78 30 -139 109 -139c59 0 83 18 103 49zM239 416c-62 0 -91 -42 -96 -110h191c-4 73 -34 110 -95 110z" />
    <glyph glyph-name="Ecaron" unicode="&#x11a;" horiz-adv-x="533" 
d="M76 690h423v-101h-307v-182h277v-100h-277v-207h307v-100h-423v690zM337 738h-100l-138 142h117l71 -75l71 75h117z" />
    <glyph glyph-name="ecaron" unicode="&#x11b;" horiz-adv-x="487" 
d="M354 132l80 -56c-35 -61 -91 -85 -179 -85c-143 0 -219 93 -219 226v68c0 147 72 224 203 224c137 0 202 -82 202 -230v-55h-299v-2c0 -78 30 -139 109 -139c59 0 83 18 103 49zM239 416c-62 0 -91 -42 -96 -110h191c-4 73 -34 110 -95 110zM293 558h-100l-108 142h102
l56 -77l56 77h102z" />
    <glyph glyph-name="Gcircumflex" unicode="&#x11c;" horiz-adv-x="608" 
d="M309 354h251v-53c0 -217 -99 -310 -254 -310c-154 0 -258 93 -258 310v83c0 222 104 315 258 315c140 0 229 -78 251 -223h-112c-17 80 -61 122 -139 122c-92 0 -142 -60 -142 -209v-88c0 -149 50 -209 142 -209c88 0 132 52 140 161h-137v101zM253 880h100l138 -142
h-117l-71 75l-71 -75h-117z" />
    <glyph glyph-name="gcircumflex" unicode="&#x11d;" 
d="M355 465v35h106v-490c0 -154 -88 -206 -218 -206c-90 0 -146 23 -186 87l75 54c22 -33 53 -50 108 -50c80 0 115 34 115 115v23c-27 -28 -67 -42 -120 -42c-133 0 -199 95 -199 226v68c0 144 78 224 199 224c54 0 93 -16 120 -44zM249 83c80 0 106 61 106 139v58
c0 86 -35 136 -106 136c-72 0 -107 -49 -107 -136v-58c0 -78 30 -139 107 -139zM229 700h100l108 -142h-102l-56 77l-56 -77h-102z" />
    <glyph glyph-name="Gbreve" unicode="&#x11e;" horiz-adv-x="608" 
d="M309 354h251v-53c0 -217 -99 -310 -254 -310c-154 0 -258 93 -258 310v83c0 222 104 315 258 315c140 0 229 -78 251 -223h-112c-17 80 -61 122 -139 122c-92 0 -142 -60 -142 -209v-88c0 -149 50 -209 142 -209c88 0 132 52 140 161h-137v101zM394 879h97
c0 -100 -78 -152 -188 -152s-189 52 -189 152h97c6 -36 29 -63 92 -63s86 27 91 63z" />
    <glyph glyph-name="gbreve" unicode="&#x11f;" 
d="M355 465v35h106v-490c0 -154 -88 -206 -218 -206c-90 0 -146 23 -186 87l75 54c22 -33 53 -50 108 -50c80 0 115 34 115 115v23c-27 -28 -67 -42 -120 -42c-133 0 -199 95 -199 226v68c0 144 78 224 199 224c54 0 93 -16 120 -44zM249 83c80 0 106 61 106 139v58
c0 86 -35 136 -106 136c-72 0 -107 -49 -107 -136v-58c0 -78 30 -139 107 -139zM345 690h80c-3 -82 -55 -126 -143 -126s-141 44 -144 126h81c4 -35 20 -56 63 -56s59 21 63 56z" />
    <glyph glyph-name="Gdotaccent" unicode="&#x120;" horiz-adv-x="608" 
d="M309 354h251v-53c0 -217 -99 -310 -254 -310c-154 0 -258 93 -258 310v83c0 222 104 315 258 315c140 0 229 -78 251 -223h-112c-17 80 -61 122 -139 122c-92 0 -142 -60 -142 -209v-88c0 -149 50 -209 142 -209c88 0 132 52 140 161h-137v101zM247 768v101h118v-101
h-118z" />
    <glyph glyph-name="gdotaccent" unicode="&#x121;" 
d="M355 465v35h106v-490c0 -154 -88 -206 -218 -206c-90 0 -146 23 -186 87l75 54c22 -33 53 -50 108 -50c80 0 115 34 115 115v23c-27 -28 -67 -42 -120 -42c-133 0 -199 95 -199 226v68c0 144 78 224 199 224c54 0 93 -16 120 -44zM249 83c80 0 106 61 106 139v58
c0 86 -35 136 -106 136c-72 0 -107 -49 -107 -136v-58c0 -78 30 -139 107 -139zM202 581v109h116v-109h-116z" />
    <glyph glyph-name="Gcommaaccent" unicode="&#x122;" horiz-adv-x="608" 
d="M309 354h251v-53c0 -217 -99 -310 -254 -310c-154 0 -258 93 -258 310v83c0 222 104 315 258 315c140 0 229 -78 251 -223h-112c-17 80 -61 122 -139 122c-92 0 -142 -60 -142 -209v-88c0 -149 50 -209 142 -209c88 0 132 52 140 161h-137v101zM364 -57v-114l-119 -102
v216h119z" />
    <glyph glyph-name="gcommaaccent" unicode="&#x123;" 
d="M355 465v35h106v-490c0 -154 -88 -206 -218 -206c-90 0 -146 23 -186 87l75 54c22 -33 53 -50 108 -50c80 0 115 34 115 115v23c-27 -28 -67 -42 -120 -42c-133 0 -199 95 -199 226v68c0 144 78 224 199 224c54 0 93 -16 120 -44zM249 83c80 0 106 61 106 139v58
c0 86 -35 136 -106 136c-72 0 -107 -49 -107 -136v-58c0 -78 30 -139 107 -139zM199 565v114l119 102v-216h-119z" />
    <glyph glyph-name="Hcircumflex" unicode="&#x124;" horiz-adv-x="648" 
d="M192 690v-283h264v283h116v-690h-116v307h-264v-307h-116v690h116zM274 880h100l138 -142h-117l-71 75l-71 -75h-117z" />
    <glyph glyph-name="hcircumflex" unicode="&#x125;" horiz-adv-x="526" 
d="M57 0v690h107v-233c21 30 57 52 122 52c103 0 182 -52 182 -196v-313h-106v301c0 88 -40 113 -95 113c-66 0 -103 -45 -103 -112v-302h-107zM61 866h100l108 -142h-102l-56 77l-56 -77h-102z" />
    <glyph glyph-name="Hbar" unicode="&#x126;" horiz-adv-x="661" 
d="M199 690v-118h264v118h116v-118h92v-104h-92v-468h-116v307h-264v-307h-116v468h-93v104h93v118h116zM199 407h264v61h-264v-61z" />
    <glyph glyph-name="hbar" unicode="&#x127;" horiz-adv-x="532" 
d="M-23 547v90h86v53h107v-53h146v-90h-146v-90c21 30 57 52 122 52c103 0 182 -52 182 -196v-313h-106v301c0 88 -40 113 -95 113c-66 0 -103 -45 -103 -112v-302h-107v547h-86z" />
    <glyph glyph-name="Imacron" unicode="&#x12a;" horiz-adv-x="287" 
d="M202 690v-690h-116v690h116zM-14 755v94h317v-94h-317z" />
    <glyph glyph-name="imacron" unicode="&#x12b;" horiz-adv-x="251" 
d="M72 0v500h107v-500h-107zM-17 585v94h277v-94h-277z" />
    <glyph glyph-name="Iogonek" unicode="&#x12e;" horiz-adv-x="287" 
d="M202 690v-690c-34 -25 -54 -42 -54 -64c0 -20 16 -25 35 -25c7 0 14 1 20 2l14 -59c-8 -3 -25 -4 -47 -4c-49 0 -107 19 -107 76c0 29 13 53 36 74h-13v690h116z" />
    <glyph glyph-name="iogonek" unicode="&#x12f;" horiz-adv-x="251" 
d="M72 0v500h107v-500c-34 -25 -54 -42 -54 -64c0 -20 16 -25 35 -25c7 0 14 1 20 2l14 -59c-8 -3 -25 -4 -47 -4c-49 0 -107 19 -107 76c0 29 13 53 32 74zM67 581v109h117v-109h-117z" />
    <glyph glyph-name="Idotaccent" unicode="&#x130;" horiz-adv-x="287" 
d="M202 690v-690h-116v690h116zM85 768v101h118v-101h-118z" />
    <glyph glyph-name="dotlessi" unicode="&#x131;" horiz-adv-x="251" 
d="M72 0v500h107v-500h-107z" />
    <glyph glyph-name="Jcircumflex" unicode="&#x134;" horiz-adv-x="509" 
d="M-3 87l97 55c22 -30 56 -50 101 -50c81 0 122 44 122 181v417h116v-417c0 -204 -88 -282 -233 -282c-88 0 -160 32 -203 96zM332 880h100l138 -142h-117l-71 75l-71 -75h-117z" />
    <glyph glyph-name="jcircumflex" unicode="&#x135;" horiz-adv-x="244" 
d="M181 500v-531c0 -117 -51 -159 -181 -159v94c66 0 75 34 75 84v512h106zM75 700h100l108 -142h-102l-56 77l-56 -77h-102z" />
    <glyph glyph-name="Kcommaaccent" unicode="&#x136;" horiz-adv-x="642" 
d="M633 0h-139l-200 315l-102 -131v-184h-116v690h116v-333l254 333h142l-218 -278zM381 -57v-114l-119 -102v216h119z" />
    <glyph glyph-name="kcommaaccent" unicode="&#x137;" horiz-adv-x="495" 
d="M331 500h131l-191 -215l221 -285h-129l-165 202l-34 -38v-164h-107v690h107v-385zM316 -57v-114l-119 -102v216h119z" />
    <glyph glyph-name="Lacute" unicode="&#x139;" horiz-adv-x="503" 
d="M192 690v-590h307v-100h-423v690h116zM88 744l80 129h126l-103 -129h-103z" />
    <glyph glyph-name="lacute" unicode="&#x13a;" horiz-adv-x="282" 
d="M57 157v533h107v-508c0 -54 10 -88 76 -88v-94c-130 0 -183 42 -183 157zM62 734l70 158h122l-91 -158h-101z" />
    <glyph glyph-name="Lcommaaccent" unicode="&#x13b;" horiz-adv-x="503" 
d="M192 690v-590h307v-100h-423v690h116zM347 -57v-114l-119 -102v216h119z" />
    <glyph glyph-name="lcommaaccent" unicode="&#x13c;" horiz-adv-x="282" 
d="M57 157v533h107v-508c0 -54 10 -88 76 -88v-94c-130 0 -183 42 -183 157zM213 -57v-114l-119 -102v216h119z" />
    <glyph glyph-name="Lcaron" unicode="&#x13d;" horiz-adv-x="503" 
d="M192 690v-590h307v-100h-423v690h116zM418 721v-174l-113 -96v270h113z" />
    <glyph glyph-name="lcaron" unicode="&#x13e;" horiz-adv-x="284" 
d="M57 157v533h107v-508c0 -54 10 -88 76 -88v-94c-130 0 -183 42 -183 157zM341 689v-114l-119 -102v216h119z" />
    <glyph glyph-name="Ldot" unicode="&#x13f;" horiz-adv-x="503" 
d="M192 690v-590h307v-100h-423v690h116zM332 341v109h116v-109h-116z" />
    <glyph glyph-name="ldot" unicode="&#x140;" horiz-adv-x="344" 
d="M57 157v533h107v-508c0 -54 10 -88 76 -88v-94c-130 0 -183 42 -183 157zM227 352v101h118v-101h-118z" />
    <glyph glyph-name="Lslash" unicode="&#x141;" horiz-adv-x="530" 
d="M219 690v-216l112 90l59 -75l-171 -137v-252h307v-100h-423v259l-63 -50l-59 75l122 97v309h116z" />
    <glyph glyph-name="lslash" unicode="&#x142;" horiz-adv-x="290" 
d="M30 236l-40 60l97 67v327h107v-254l69 48l40 -59l-109 -76v-167c0 -54 10 -88 76 -88v-94c-130 0 -183 42 -183 157v118z" />
    <glyph glyph-name="Nacute" unicode="&#x143;" horiz-adv-x="648" 
d="M460 690h112v-690h-103l-281 469v-469h-112v690h100l284 -475v475zM265 744l80 129h126l-103 -129h-103z" />
    <glyph glyph-name="nacute" unicode="&#x144;" horiz-adv-x="526" 
d="M57 0v500h105v-45c22 30 58 54 124 54c103 0 182 -52 182 -196v-313h-106v301c0 88 -40 113 -95 113c-66 0 -103 -45 -103 -112v-302h-107zM200 567l70 158h122l-91 -158h-101z" />
    <glyph glyph-name="Ncommaaccent" unicode="&#x145;" horiz-adv-x="648" 
d="M460 690h112v-690h-103l-281 469v-469h-112v690h100l284 -475v475zM386 -57v-114l-119 -102v216h119z" />
    <glyph glyph-name="ncommaaccent" unicode="&#x146;" horiz-adv-x="526" 
d="M57 0v500h105v-45c22 30 58 54 124 54c103 0 182 -52 182 -196v-313h-106v301c0 88 -40 113 -95 113c-66 0 -103 -45 -103 -112v-302h-107zM324 -57v-114l-119 -102v216h119z" />
    <glyph glyph-name="Ncaron" unicode="&#x147;" horiz-adv-x="648" 
d="M460 690h112v-690h-103l-281 469v-469h-112v690h100l284 -475v475zM374 738h-100l-138 142h117l71 -75l71 75h117z" />
    <glyph glyph-name="ncaron" unicode="&#x148;" horiz-adv-x="526" 
d="M57 0v500h105v-45c22 30 58 54 124 54c103 0 182 -52 182 -196v-313h-106v301c0 88 -40 113 -95 113c-66 0 -103 -45 -103 -112v-302h-107zM314 558h-100l-108 142h102l56 -77l56 77h102z" />
    <glyph glyph-name="Omacron" unicode="&#x14c;" horiz-adv-x="613" 
d="M565 301c0 -217 -104 -310 -259 -310c-154 0 -258 93 -258 310v88c0 217 104 310 258 310c155 0 259 -93 259 -310v-88zM164 389v-88c0 -149 50 -209 142 -209s143 60 143 209v88c0 149 -51 209 -143 209s-142 -60 -142 -209zM148 755v94h317v-94h-317z" />
    <glyph glyph-name="omacron" unicode="&#x14d;" horiz-adv-x="497" 
d="M461 282v-63c0 -133 -65 -228 -212 -228c-140 0 -213 90 -213 228v63c0 147 78 227 213 227s212 -80 212 -227zM249 83c76 0 106 61 106 139v58c0 87 -35 136 -106 136c-72 0 -107 -50 -107 -136v-58c0 -78 26 -139 107 -139zM111 585v94h277v-94h-277z" />
    <glyph glyph-name="Ohungarumlaut" unicode="&#x150;" horiz-adv-x="613" 
d="M565 301c0 -217 -104 -310 -259 -310c-154 0 -258 93 -258 310v88c0 217 104 310 258 310c155 0 259 -93 259 -310v-88zM164 389v-88c0 -149 50 -209 142 -209s143 60 143 209v88c0 149 -51 209 -143 209s-142 -60 -142 -209zM143 744l80 129h127l-103 -129h-104z
M332 744l90 129h126l-113 -129h-103z" />
    <glyph glyph-name="ohungarumlaut" unicode="&#x151;" horiz-adv-x="497" 
d="M461 282v-63c0 -133 -65 -228 -212 -228c-140 0 -213 90 -213 228v63c0 147 78 227 213 227s212 -80 212 -227zM249 83c76 0 106 61 106 139v58c0 87 -35 136 -106 136c-72 0 -107 -50 -107 -136v-58c0 -78 26 -139 107 -139zM108 567l70 158h122l-91 -158h-101zM273 567
l90 158h122l-111 -158h-101z" />
    <glyph glyph-name="OE" unicode="&#x152;" horiz-adv-x="906" 
d="M872 690v-101h-307v-182h277v-100h-277v-207h307v-100h-423v39c-34 -33 -81 -48 -143 -48c-154 0 -258 93 -258 310v88c0 217 104 310 258 310c62 0 109 -15 143 -48v39h423zM164 389v-88c0 -149 50 -209 142 -209c89 0 143 57 143 198v99c0 149 -51 209 -143 209
s-142 -60 -142 -209z" />
    <glyph glyph-name="oe" unicode="&#x153;" horiz-adv-x="806" 
d="M673 132l80 -56c-35 -59 -86 -85 -181 -85c-73 0 -128 27 -162 77c-30 -48 -82 -77 -161 -77c-138 0 -213 88 -213 226v68c0 142 77 224 213 224c74 0 127 -26 159 -73c31 47 81 73 152 73c133 0 200 -84 200 -229v-58h-299v-5c0 -84 39 -134 109 -134c58 0 83 18 103 49
zM249 83c75 0 106 60 106 134v68c0 83 -37 131 -106 131c-70 0 -107 -49 -107 -131v-68c0 -75 27 -134 107 -134zM557 416c-61 0 -91 -43 -95 -112h191c-3 70 -31 112 -96 112z" />
    <glyph glyph-name="Racute" unicode="&#x154;" horiz-adv-x="611" 
d="M587 0h-128l-133 280h-134v-280h-116v690h235c159 0 254 -69 254 -206c0 -95 -45 -156 -125 -185zM192 380h111c98 0 146 26 146 104s-48 105 -146 105h-111v-209zM215 744l80 129h126l-103 -129h-103z" />
    <glyph glyph-name="racute" unicode="&#x155;" horiz-adv-x="403" 
d="M413 435l-85 -60c-16 23 -38 39 -72 39c-54 0 -92 -40 -92 -112v-302h-107v500h105v-45c19 29 53 54 112 54c64 0 108 -25 139 -74zM142 567l70 158h122l-91 -158h-101z" />
    <glyph glyph-name="Rcommaaccent" unicode="&#x156;" horiz-adv-x="611" 
d="M587 0h-128l-133 280h-134v-280h-116v690h235c159 0 254 -69 254 -206c0 -95 -45 -156 -125 -185zM192 380h111c98 0 146 26 146 104s-48 105 -146 105h-111v-209zM369 -57v-114l-119 -102v216h119z" />
    <glyph glyph-name="rcommaaccent" unicode="&#x157;" horiz-adv-x="403" 
d="M413 435l-85 -60c-16 23 -38 39 -72 39c-54 0 -92 -40 -92 -112v-302h-107v500h105v-45c19 29 53 54 112 54c64 0 108 -25 139 -74zM171 -57v-114l-119 -102v216h119z" />
    <glyph glyph-name="Rcaron" unicode="&#x158;" horiz-adv-x="611" 
d="M587 0h-128l-133 280h-134v-280h-116v690h235c159 0 254 -69 254 -206c0 -95 -45 -156 -125 -185zM192 380h111c98 0 146 26 146 104s-48 105 -146 105h-111v-209zM351 738h-100l-138 142h117l71 -75l71 75h117z" />
    <glyph glyph-name="rcaron" unicode="&#x159;" horiz-adv-x="403" 
d="M413 435l-85 -60c-16 23 -38 39 -72 39c-54 0 -92 -40 -92 -112v-302h-107v500h105v-45c19 29 53 54 112 54c64 0 108 -25 139 -74zM281 558h-100l-108 142h102l56 -77l56 77h102z" />
    <glyph glyph-name="Sacute" unicode="&#x15a;" horiz-adv-x="573" 
d="M523 586l-88 -63c-34 47 -71 75 -149 75c-71 0 -113 -32 -113 -90c0 -66 52 -92 148 -113c139 -30 211 -82 211 -206c0 -103 -69 -198 -235 -198c-118 0 -201 36 -258 113l91 63c41 -49 82 -75 161 -75c95 0 125 42 125 92c0 55 -31 89 -151 115
c-133 28 -208 92 -208 209c0 104 68 191 230 191c110 0 187 -37 236 -113zM219 744l80 129h126l-103 -129h-103z" />
    <glyph glyph-name="sacute" unicode="&#x15b;" horiz-adv-x="465" 
d="M413 426l-79 -57c-24 31 -49 45 -109 45c-45 0 -78 -15 -78 -51c0 -42 37 -55 95 -62c111 -13 183 -52 183 -158c0 -92 -63 -152 -192 -152c-102 0 -160 28 -201 83l81 58c23 -31 53 -47 119 -47c55 0 87 20 87 55c0 41 -26 53 -104 63c-95 12 -175 52 -175 157
c0 89 65 149 187 149c82 0 147 -21 186 -83zM162 567l70 158h122l-91 -158h-101z" />
    <glyph glyph-name="Scircumflex" unicode="&#x15c;" horiz-adv-x="573" 
d="M523 586l-88 -63c-34 47 -71 75 -149 75c-71 0 -113 -32 -113 -90c0 -66 52 -92 148 -113c139 -30 211 -82 211 -206c0 -103 -69 -198 -235 -198c-118 0 -201 36 -258 113l91 63c41 -49 82 -75 161 -75c95 0 125 42 125 92c0 55 -31 89 -151 115
c-133 28 -208 92 -208 209c0 104 68 191 230 191c110 0 187 -37 236 -113zM241 880h100l138 -142h-117l-71 75l-71 -75h-117z" />
    <glyph glyph-name="scircumflex" unicode="&#x15d;" horiz-adv-x="465" 
d="M413 426l-79 -57c-24 31 -49 45 -109 45c-45 0 -78 -15 -78 -51c0 -42 37 -55 95 -62c111 -13 183 -52 183 -158c0 -92 -63 -152 -192 -152c-102 0 -160 28 -201 83l81 58c23 -31 53 -47 119 -47c55 0 87 20 87 55c0 41 -26 53 -104 63c-95 12 -175 52 -175 157
c0 89 65 149 187 149c82 0 147 -21 186 -83zM180 700h100l108 -142h-102l-56 77l-56 -77h-102z" />
    <glyph glyph-name="Scedilla" unicode="&#x15e;" horiz-adv-x="573" 
d="M244 -71l12 64c-97 7 -167 43 -217 111l91 63c41 -49 82 -75 161 -75c95 0 125 42 125 92c0 55 -31 89 -151 115c-133 28 -208 92 -208 209c0 104 68 191 230 191c110 0 187 -37 236 -113l-88 -63c-34 47 -71 75 -149 75c-71 0 -113 -32 -113 -90c0 -66 52 -92 148 -113
c139 -30 211 -82 211 -206c0 -97 -61 -187 -206 -197l-4 -14c35 -13 56 -37 56 -74c0 -54 -49 -83 -115 -83c-18 0 -34 1 -42 3l14 59c6 -1 11 -1 19 -1c20 0 39 5 39 24s-23 23 -49 23z" />
    <glyph glyph-name="scedilla" unicode="&#x15f;" horiz-adv-x="465" 
d="M189 -71l12 63c-83 6 -133 33 -169 82l81 58c23 -31 53 -47 119 -47c55 0 87 20 87 55c0 41 -26 53 -104 63c-95 12 -175 52 -175 157c0 89 65 149 187 149c82 0 147 -21 186 -83l-79 -57c-24 31 -49 45 -109 45c-45 0 -78 -15 -78 -51c0 -42 37 -55 95 -62
c111 -13 183 -52 183 -158c0 -83 -51 -139 -154 -150l-4 -15c35 -13 56 -37 56 -74c0 -54 -49 -83 -115 -83c-18 0 -34 1 -42 3l14 59c6 -1 11 -1 19 -1c20 0 39 5 39 24s-23 23 -49 23z" />
    <glyph glyph-name="Scaron" unicode="&#x160;" horiz-adv-x="573" 
d="M523 586l-88 -63c-34 47 -71 75 -149 75c-71 0 -113 -32 -113 -90c0 -66 52 -92 148 -113c139 -30 211 -82 211 -206c0 -103 -69 -198 -235 -198c-118 0 -201 36 -258 113l91 63c41 -49 82 -75 161 -75c95 0 125 42 125 92c0 55 -31 89 -151 115
c-133 28 -208 92 -208 209c0 104 68 191 230 191c110 0 187 -37 236 -113zM334 738h-100l-138 142h117l71 -75l71 75h117z" />
    <glyph glyph-name="scaron" unicode="&#x161;" horiz-adv-x="465" 
d="M413 426l-79 -57c-24 31 -49 45 -109 45c-45 0 -78 -15 -78 -51c0 -42 37 -55 95 -62c111 -13 183 -52 183 -158c0 -92 -63 -152 -192 -152c-102 0 -160 28 -201 83l81 58c23 -31 53 -47 119 -47c55 0 87 20 87 55c0 41 -26 53 -104 63c-95 12 -175 52 -175 157
c0 89 65 149 187 149c82 0 147 -21 186 -83zM280 558h-100l-108 142h102l56 -77l56 77h102z" />
    <glyph glyph-name="Tcedilla" unicode="&#x162;" horiz-adv-x="527" 
d="M214 -71l14 71h-22v589h-199v101h513v-101h-198v-589h-24l-6 -22c35 -13 56 -37 56 -74c0 -54 -49 -83 -115 -83c-18 0 -34 1 -42 3l14 59c6 -1 11 -1 19 -1c20 0 39 5 39 24s-23 23 -49 23z" />
    <glyph glyph-name="tcedilla" unicode="&#x163;" horiz-adv-x="324" 
d="M157 -71l15 78c-66 16 -91 61 -91 152v249h-64v92h64v110h106v-110h106v-92h-106v-229c0 -58 9 -83 65 -83h41v-96h-52l-6 -22c35 -13 56 -37 56 -74c0 -54 -49 -83 -115 -83c-18 0 -34 1 -42 3l14 59c6 -1 11 -1 19 -1c20 0 39 5 39 24s-23 23 -49 23z" />
    <glyph glyph-name="Tcaron" unicode="&#x164;" horiz-adv-x="527" 
d="M7 690h513v-101h-198v-589h-116v589h-199v101zM313 738h-100l-138 142h117l71 -75l71 75h117z" />
    <glyph glyph-name="tcaron" unicode="&#x165;" horiz-adv-x="369" 
d="M17 408v92h64v110h106v-110h106v-92h-106v-229c0 -58 9 -83 65 -83h41v-96h-49c-120 0 -163 41 -163 159v249h-64zM429 689v-114l-119 -102v216h119z" />
    <glyph glyph-name="Umacron" unicode="&#x16a;" horiz-adv-x="668" 
d="M476 690h116v-410c0 -204 -105 -289 -258 -289s-258 85 -258 288v411h116v-411c0 -132 47 -187 142 -187s142 55 142 187v411zM175 755v94h317v-94h-317z" />
    <glyph glyph-name="umacron" unicode="&#x16b;" horiz-adv-x="526" 
d="M468 500v-500h-105v45c-23 -36 -53 -54 -123 -54c-103 0 -183 53 -183 197v312h107v-301c0 -89 40 -114 96 -114c66 0 102 44 102 113v302h106zM125 585v94h277v-94h-277z" />
    <glyph glyph-name="Ubreve" unicode="&#x16c;" horiz-adv-x="668" 
d="M476 690h116v-410c0 -204 -105 -289 -258 -289s-258 85 -258 288v411h116v-411c0 -132 47 -187 142 -187s142 55 142 187v411zM426 879h97c0 -100 -78 -152 -188 -152s-189 52 -189 152h97c6 -36 29 -63 92 -63s86 27 91 63z" />
    <glyph glyph-name="ubreve" unicode="&#x16d;" horiz-adv-x="526" 
d="M468 500v-500h-105v45c-23 -36 -53 -54 -123 -54c-103 0 -183 53 -183 197v312h107v-301c0 -89 40 -114 96 -114c66 0 102 44 102 113v302h106zM326 690h80c-3 -82 -55 -126 -143 -126s-141 44 -144 126h81c4 -35 20 -56 63 -56s59 21 63 56z" />
    <glyph glyph-name="Uring" unicode="&#x16e;" horiz-adv-x="668" 
d="M476 690h116v-410c0 -204 -105 -289 -258 -289s-258 85 -258 288v411h116v-411c0 -132 47 -187 142 -187s142 55 142 187v411zM221 800c0 61 49 99 113 99c65 0 114 -38 114 -99c0 -60 -49 -98 -114 -98c-64 0 -113 38 -113 98zM288 800c0 -25 20 -38 46 -38
c27 0 46 13 46 38c0 26 -19 38 -46 38c-26 0 -46 -12 -46 -38z" />
    <glyph glyph-name="uring" unicode="&#x16f;" horiz-adv-x="526" 
d="M468 500v-500h-105v45c-23 -36 -53 -54 -123 -54c-103 0 -183 53 -183 197v312h107v-301c0 -89 40 -114 96 -114c66 0 102 44 102 113v302h106zM147 646c0 62 49 110 117 110s117 -48 117 -110s-49 -109 -117 -109s-117 47 -117 109zM218 646c0 -29 19 -50 46 -50
s46 21 46 50c0 30 -19 49 -46 49s-46 -19 -46 -49z" />
    <glyph glyph-name="Uhungarumlaut" unicode="&#x170;" horiz-adv-x="668" 
d="M476 690h116v-410c0 -204 -105 -289 -258 -289s-258 85 -258 288v411h116v-411c0 -132 47 -187 142 -187s142 55 142 187v411zM178 744l80 129h127l-103 -129h-104zM367 744l90 129h126l-113 -129h-103z" />
    <glyph glyph-name="uhungarumlaut" unicode="&#x171;" horiz-adv-x="526" 
d="M468 500v-500h-105v45c-23 -36 -53 -54 -123 -54c-103 0 -183 53 -183 197v312h107v-301c0 -89 40 -114 96 -114c66 0 102 44 102 113v302h106zM126 567l70 158h122l-91 -158h-101zM291 567l90 158h122l-111 -158h-101z" />
    <glyph glyph-name="Uogonek" unicode="&#x172;" horiz-adv-x="668" 
d="M476 690h116v-410c0 -180 -82 -268 -206 -285c-28 -22 -45 -38 -45 -58s16 -25 35 -25c7 0 14 1 20 2l14 -59c-8 -3 -25 -4 -47 -4c-49 0 -107 19 -107 76c0 26 10 48 29 67c-126 17 -209 104 -209 285v411h116v-411c0 -132 47 -187 142 -187s142 55 142 187v411z" />
    <glyph glyph-name="uogonek" unicode="&#x173;" horiz-adv-x="526" 
d="M468 500v-497l1 -3c-34 -25 -54 -42 -54 -64c0 -20 16 -25 35 -25c7 0 14 1 20 2l14 -59c-8 -3 -25 -4 -47 -4c-49 0 -107 19 -107 76c0 29 13 53 33 74v45c-23 -36 -53 -54 -123 -54c-103 0 -183 53 -183 197v312h107v-301c0 -89 40 -114 96 -114c66 0 102 44 102 113
v302h106z" />
    <glyph glyph-name="Ydieresis" unicode="&#x178;" horiz-adv-x="571" 
d="M12 690h135l138 -276l139 276h134l-215 -402v-288h-116v288zM128 764v105h108v-105h-108zM334 764v105h109v-105h-109z" />
    <glyph glyph-name="Zacute" unicode="&#x179;" 
d="M30 690h453v-77l-305 -513h315v-100h-463v77l305 512h-305v101zM194 744l80 129h126l-103 -129h-103z" />
    <glyph glyph-name="zacute" unicode="&#x17a;" horiz-adv-x="449" 
d="M35 77l239 331h-238v92h377v-77l-237 -331h241v-92h-382v77zM172 567l70 158h122l-91 -158h-101z" />
    <glyph glyph-name="Zdotaccent" unicode="&#x17b;" 
d="M30 690h453v-77l-305 -513h315v-100h-463v77l305 512h-305v101zM203 768v101h118v-101h-118z" />
    <glyph glyph-name="zdotaccent" unicode="&#x17c;" horiz-adv-x="449" 
d="M35 77l239 331h-238v92h377v-77l-237 -331h241v-92h-382v77zM173 581v109h116v-109h-116z" />
    <glyph glyph-name="Zcaron" unicode="&#x17d;" 
d="M30 690h453v-77l-305 -513h315v-100h-463v77l305 512h-305v101zM317 738h-100l-138 142h117l71 -75l71 75h117z" />
    <glyph glyph-name="zcaron" unicode="&#x17e;" horiz-adv-x="449" 
d="M35 77l239 331h-238v92h377v-77l-237 -331h241v-92h-382v77zM284 558h-100l-108 142h102l56 -77l56 77h102z" />
    <glyph glyph-name="uni018F" unicode="&#x18f;" horiz-adv-x="603" 
d="M48 301v58h396v30c0 149 -50 209 -142 209c-77 0 -122 -42 -138 -122h-112c21 145 110 223 250 223c155 0 258 -93 258 -315v-83c0 -217 -103 -310 -258 -310c-154 0 -254 93 -254 310zM302 92c83 0 131 45 140 166h-281c7 -112 52 -166 141 -166z" />
    <glyph glyph-name="florin" unicode="&#x192;" horiz-adv-x="522" 
d="M128 500h64v31c0 118 48 159 168 159h31v-101h-21c-56 0 -65 -24 -65 -79v-10h86v-101h-86v-430c0 -117 -58 -159 -188 -159v101c66 0 75 31 75 81v407h-64v101z" />
    <glyph glyph-name="uni01DD" unicode="&#x1dd;" horiz-adv-x="487" 
d="M133 368l-80 56c35 61 91 85 179 85c143 0 219 -93 219 -226v-68c0 -147 -72 -224 -203 -224c-137 0 -202 82 -202 230v55h299v2c0 78 -30 139 -109 139c-59 0 -83 -18 -103 -49zM248 84c62 0 91 42 96 110h-191c4 -73 34 -110 95 -110z" />
    <glyph glyph-name="Scommaaccent" unicode="&#x218;" horiz-adv-x="573" 
d="M523 586l-88 -63c-34 47 -71 75 -149 75c-71 0 -113 -32 -113 -90c0 -66 52 -92 148 -113c139 -30 211 -82 211 -206c0 -103 -69 -198 -235 -198c-118 0 -201 36 -258 113l91 63c41 -49 82 -75 161 -75c95 0 125 42 125 92c0 55 -31 89 -151 115
c-133 28 -208 92 -208 209c0 104 68 191 230 191c110 0 187 -37 236 -113zM361 -57v-114l-118 -102v216h118z" />
    <glyph glyph-name="scommaaccent" unicode="&#x219;" horiz-adv-x="465" 
d="M413 426l-79 -57c-24 31 -49 45 -109 45c-45 0 -78 -15 -78 -51c0 -42 37 -55 95 -62c111 -13 183 -52 183 -158c0 -92 -63 -152 -192 -152c-102 0 -160 28 -201 83l81 58c23 -31 53 -47 119 -47c55 0 87 20 87 55c0 41 -26 53 -104 63c-95 12 -175 52 -175 157
c0 89 65 149 187 149c82 0 147 -21 186 -83zM296 -57v-114l-119 -102v216h119z" />
    <glyph glyph-name="Tcommaaccent" unicode="&#x21a;" horiz-adv-x="527" 
d="M7 690h513v-101h-198v-589h-116v589h-199v101zM323 -57v-114l-119 -102v216h119z" />
    <glyph glyph-name="tcommaaccent" unicode="&#x21b;" horiz-adv-x="324" 
d="M17 408v92h64v110h106v-110h106v-92h-106v-229c0 -58 9 -83 65 -83h41v-96h-49c-120 0 -163 41 -163 159v249h-64zM250 -57v-114l-119 -102v216h119z" />
    <glyph glyph-name="uni0237" unicode="&#x237;" horiz-adv-x="244" 
d="M181 500v-531c0 -117 -51 -159 -181 -159v94c66 0 75 34 75 84v512h106z" />
    <glyph glyph-name="uni0259" unicode="&#x259;" horiz-adv-x="487" 
d="M133 368l-80 56c35 61 91 85 179 85c143 0 219 -93 219 -226v-68c0 -147 -72 -224 -203 -224c-137 0 -202 82 -202 230v55h299v2c0 78 -30 139 -109 139c-59 0 -83 -18 -103 -49zM248 84c62 0 91 42 96 110h-191c4 -73 34 -110 95 -110z" />
    <glyph glyph-name="afii57929" unicode="&#x2bc;" horiz-adv-x="170" 
d="M153 500v-146l-118 -102v248h118z" />
    <glyph glyph-name="circumflex" unicode="&#x2c6;" horiz-adv-x="411" 
d="M155 700h100l108 -142h-102l-56 77l-56 -77h-102z" />
    <glyph glyph-name="caron" unicode="&#x2c7;" horiz-adv-x="411" 
d="M255 558h-100l-108 142h102l56 -77l56 77h102z" />
    <glyph glyph-name="breve" unicode="&#x2d8;" horiz-adv-x="406" 
d="M266 690h80c-3 -82 -55 -126 -143 -126s-141 44 -144 126h81c4 -35 20 -56 63 -56s59 21 63 56z" />
    <glyph glyph-name="dotaccent" unicode="&#x2d9;" horiz-adv-x="315" 
d="M99 581v109h116v-109h-116z" />
    <glyph glyph-name="ring" unicode="&#x2da;" horiz-adv-x="380" 
d="M73 646c0 62 49 110 117 110s117 -48 117 -110s-49 -109 -117 -109s-117 47 -117 109zM144 646c0 -29 19 -50 46 -50s46 21 46 50c0 30 -19 49 -46 49s-46 -19 -46 -49z" />
    <glyph glyph-name="ogonek" unicode="&#x2db;" horiz-adv-x="339" 
d="M216 54l15 -54c-34 -25 -54 -42 -54 -64c0 -20 16 -25 35 -25c7 0 14 1 20 2l14 -59c-8 -3 -25 -4 -47 -4c-49 0 -107 19 -107 76c0 56 48 92 124 128z" />
    <glyph glyph-name="tilde" unicode="&#x2dc;" horiz-adv-x="429" 
d="M274 572c-48 0 -79 28 -116 28c-21 0 -40 -10 -56 -27l-58 59c28 34 69 56 112 56c45 0 77 -29 117 -29c18 0 37 10 53 27l58 -58c-27 -34 -68 -56 -110 -56z" />
    <glyph glyph-name="hungarumlaut" unicode="&#x2dd;" horiz-adv-x="482" 
d="M52 567l70 158h122l-91 -158h-101zM217 567l90 158h122l-111 -158h-101z" />
    <glyph glyph-name="acutecomb" unicode="&#x301;" horiz-adv-x="0" 
d="M-291 567l70 158h122l-91 -158h-101z" />
    <glyph glyph-name="uni0394" unicode="&#x2206;" horiz-adv-x="564" 
d="M544 0h-524l199 690h125zM396 100l-115 437l-114 -437h229z" />
    <glyph glyph-name="uni0394" unicode="&#x394;" horiz-adv-x="564" 
d="M544 0h-524l199 690h125zM396 100l-115 437l-114 -437h229z" />
    <glyph glyph-name="uni03A9" unicode="&#x2126;" horiz-adv-x="625" 
d="M502 100h69v-100h-200v100c48 28 84 69 84 204v85c0 149 -50 209 -142 209c-93 0 -143 -60 -143 -209v-85c0 -135 36 -177 84 -204v-100h-200v100h69c-46 47 -69 101 -69 204v85c0 217 104 310 259 310c154 0 258 -93 258 -310v-85c0 -103 -23 -157 -69 -204z" />
    <glyph glyph-name="uni03A9" unicode="&#x3a9;" horiz-adv-x="625" 
d="M502 100h69v-100h-200v100c48 28 84 69 84 204v85c0 149 -50 209 -142 209c-93 0 -143 -60 -143 -209v-85c0 -135 36 -177 84 -204v-100h-200v100h69c-46 47 -69 101 -69 204v85c0 217 104 310 259 310c154 0 258 -93 258 -310v-85c0 -103 -23 -157 -69 -204z" />
    <glyph glyph-name="pi" unicode="&#x3c0;" horiz-adv-x="572" 
d="M362 157v251h-192v-408h-103v408h-79v92h557v-92h-76v-226c0 -54 10 -88 76 -88v-94c-130 0 -183 42 -183 157z" />
    <glyph glyph-name="afii10023" unicode="&#x401;" horiz-adv-x="533" 
d="M76 690h423v-101h-307v-182h277v-100h-277v-207h307v-100h-423v690zM128 764v105h108v-105h-108zM334 764v105h109v-105h-109z" />
    <glyph glyph-name="afii10051" unicode="&#x402;" horiz-adv-x="727" 
d="M1 690h514v-101h-199v-204c20 18 77 47 150 47c160 0 221 -73 221 -225v-46c0 -154 -103 -161 -182 -161h-26v97h26c50 0 66 27 66 77v28c0 99 -43 129 -129 129c-63 0 -103 -24 -126 -57v-274h-116v589h-199v101z" />
    <glyph glyph-name="afii10052" unicode="&#x403;" horiz-adv-x="487" 
d="M487 690v-101h-295v-589h-116v690h411zM218 744l80 129h126l-103 -129h-103z" />
    <glyph glyph-name="afii10053" unicode="&#x404;" horiz-adv-x="582" 
d="M555 476h-112c-18 84 -63 122 -139 122c-91 0 -140 -58 -142 -201h232v-100h-232c1 -144 51 -205 142 -205c79 0 121 38 139 122h111c-23 -155 -113 -223 -250 -223c-154 0 -258 93 -258 310v88c0 217 104 310 258 310c137 0 228 -73 251 -223z" />
    <glyph glyph-name="afii10054" unicode="&#x405;" horiz-adv-x="573" 
d="M523 586l-88 -63c-34 47 -71 75 -149 75c-71 0 -113 -32 -113 -90c0 -66 52 -92 148 -113c139 -30 211 -82 211 -206c0 -103 -69 -198 -235 -198c-118 0 -201 36 -258 113l91 63c41 -49 82 -75 161 -75c95 0 125 42 125 92c0 55 -31 89 -151 115
c-133 28 -208 92 -208 209c0 104 68 191 230 191c110 0 187 -37 236 -113z" />
    <glyph glyph-name="afii10055" unicode="&#x406;" horiz-adv-x="287" 
d="M202 690v-690h-116v690h116zM85 768v101h118v-101h-118z" />
    <glyph glyph-name="afii10056" unicode="&#x407;" horiz-adv-x="287" 
d="M202 690v-690h-116v690h116zM-14 764v105h108v-105h-108zM192 764v105h109v-105h-109z" />
    <glyph glyph-name="afii10057" unicode="&#x408;" horiz-adv-x="509" 
d="M-3 87l97 55c22 -30 56 -50 101 -50c81 0 122 44 122 181v417h116v-417c0 -204 -88 -282 -233 -282c-88 0 -160 32 -203 96z" />
    <glyph glyph-name="afii10058" unicode="&#x409;" horiz-adv-x="980" 
d="M133 690h440v-262h125c181 0 249 -103 249 -214s-68 -214 -249 -214h-241v589h-208v-79c0 -225 -10 -317 -35 -382c-32 -83 -98 -121 -198 -137v125c41 8 75 25 92 70c19 50 25 140 25 324v180zM694 328h-121v-228h121c97 0 137 46 137 114c0 67 -40 114 -137 114z" />
    <glyph glyph-name="afii10059" unicode="&#x40a;" horiz-adv-x="978" 
d="M192 690v-283h264v283h116v-262h125c180 0 249 -103 249 -214s-69 -214 -249 -214h-241v307h-264v-307h-116v690h116zM692 328h-120v-228h120c97 0 138 46 138 114c0 67 -41 114 -138 114z" />
    <glyph glyph-name="afii10060" unicode="&#x40b;" horiz-adv-x="733" 
d="M7 690h513v-101h-198v-204c20 18 76 47 150 47c160 0 220 -73 220 -225v-207h-116v202c0 99 -42 129 -129 129c-62 0 -102 -24 -125 -57v-274h-116v589h-199v101z" />
    <glyph glyph-name="afii10061" unicode="&#x40c;" horiz-adv-x="614" 
d="M602 0h-138l-196 297h-76v-297h-116v690h116v-293h73l172 293h128l-197 -337zM238 744l80 129h126l-103 -129h-103z" />
    <glyph glyph-name="afii10062" unicode="&#x40e;" horiz-adv-x="580" 
d="M454 690h120l-222 -561c-43 -108 -97 -138 -226 -138v103c73 0 102 10 126 66l-236 530h127l166 -382zM373 879h107c0 -100 -62 -147 -183 -147s-184 47 -184 147h108c0 -39 15 -70 76 -70s76 31 76 70z" />
    <glyph glyph-name="afii10145" unicode="&#x40f;" horiz-adv-x="638" 
d="M381 -130h-108v130h-197v690h116v-590h270v590h116v-690h-197v-130z" />
    <glyph glyph-name="afii10017" unicode="&#x410;" horiz-adv-x="595" 
d="M126 0h-124l240 690h110l240 -690h-123l-47 143h-249zM297 522l-92 -279h184z" />
    <glyph glyph-name="afii10018" unicode="&#x411;" horiz-adv-x="596" 
d="M518 690v-101h-326v-161h124c181 0 249 -103 249 -214s-68 -214 -249 -214h-240v690h442zM312 328h-120v-228h120c97 0 137 46 137 114c0 67 -40 114 -137 114z" />
    <glyph glyph-name="afii10019" unicode="&#x412;" horiz-adv-x="602" 
d="M76 690h222c162 0 245 -60 245 -179c0 -71 -41 -128 -101 -150c78 -22 123 -76 123 -163c0 -104 -66 -198 -245 -198h-244v690zM192 308v-208h121c93 0 136 38 136 104c0 73 -48 104 -150 104h-107zM192 590v-182h113c86 0 122 39 122 96c0 54 -27 86 -137 86h-98z" />
    <glyph glyph-name="afii10020" unicode="&#x413;" horiz-adv-x="487" 
d="M487 690v-101h-295v-589h-116v690h411z" />
    <glyph glyph-name="afii10021" unicode="&#x414;" horiz-adv-x="683" 
d="M118 -130h-108v230h39c22 19 43 60 56 100c21 65 32 155 32 317v173h440v-590h86v-230h-108v130h-437v-130zM211 156c-7 -21 -17 -39 -28 -56h278v489h-208v-72c0 -187 -15 -284 -42 -361z" />
    <glyph glyph-name="afii10022" unicode="&#x415;" horiz-adv-x="533" 
d="M76 690h423v-101h-307v-182h277v-100h-277v-207h307v-100h-423v690z" />
    <glyph glyph-name="afii10024" unicode="&#x416;" horiz-adv-x="890" 
d="M139 0h-133l209 349l-172 341h124l145 -293h75v293h116v-293h75l145 293h124l-172 -341l209 -349h-133l-177 297h-71v-297h-116v297h-71z" />
    <glyph glyph-name="afii10025" unicode="&#x417;" horiz-adv-x="577" 
d="M211 308v100h70c87 0 122 41 122 99c0 54 -32 92 -113 92c-78 0 -115 -34 -136 -94h-104c14 121 122 194 241 194c131 0 228 -65 228 -185c0 -72 -37 -120 -101 -151c73 -24 123 -84 123 -165c0 -114 -81 -207 -247 -207c-140 0 -232 64 -261 204h112
c29 -70 66 -103 146 -103c90 0 134 40 134 109s-48 107 -149 107h-65z" />
    <glyph glyph-name="afii10026" unicode="&#x418;" horiz-adv-x="667" 
d="M76 690h116v-471l305 471h95v-690h-116v466l-304 -466h-96v690z" />
    <glyph glyph-name="afii10027" unicode="&#x419;" horiz-adv-x="667" 
d="M76 690h116v-471l305 471h95v-690h-116v466l-304 -466h-96v690zM419 879h107c0 -100 -62 -147 -183 -147s-184 47 -184 147h108c0 -39 15 -70 76 -70s76 31 76 70z" />
    <glyph glyph-name="afii10028" unicode="&#x41a;" horiz-adv-x="614" 
d="M602 0h-138l-196 297h-76v-297h-116v690h116v-293h73l172 293h128l-197 -337z" />
    <glyph glyph-name="afii10029" unicode="&#x41b;" horiz-adv-x="649" 
d="M133 690h440v-690h-116v589h-208v-79c0 -225 -10 -317 -35 -382c-32 -83 -98 -121 -198 -137v125c41 8 75 25 92 70c19 50 25 140 25 324v180z" />
    <glyph glyph-name="afii10030" unicode="&#x41c;" horiz-adv-x="771" 
d="M186 690l199 -400l199 400h111v-690h-112v462l-158 -329h-82l-155 326v-459h-112v690h110z" />
    <glyph glyph-name="afii10031" unicode="&#x41d;" horiz-adv-x="648" 
d="M192 690v-283h264v283h116v-690h-116v307h-264v-307h-116v690h116z" />
    <glyph glyph-name="afii10032" unicode="&#x41e;" horiz-adv-x="613" 
d="M565 301c0 -217 -104 -310 -259 -310c-154 0 -258 93 -258 310v88c0 217 104 310 258 310c155 0 259 -93 259 -310v-88zM164 389v-88c0 -149 50 -209 142 -209s143 60 143 209v88c0 149 -51 209 -143 209s-142 -60 -142 -209z" />
    <glyph glyph-name="afii10033" unicode="&#x41f;" horiz-adv-x="654" 
d="M76 690h502v-690h-116v589h-270v-589h-116v690z" />
    <glyph glyph-name="afii10034" unicode="&#x420;" horiz-adv-x="589" 
d="M311 252h-119v-252h-116v690h235c159 0 254 -76 254 -218c0 -140 -94 -220 -254 -220zM192 352h107c106 0 150 41 150 120c0 75 -44 117 -150 117h-107v-237z" />
    <glyph glyph-name="afii10035" unicode="&#x421;" horiz-adv-x="587" 
d="M557 476h-112c-18 84 -63 122 -139 122c-92 0 -142 -60 -142 -209v-88c0 -147 50 -209 142 -209c79 0 121 38 139 122h111c-23 -155 -113 -223 -250 -223c-154 0 -258 93 -258 310v88c0 217 104 310 258 310c137 0 228 -73 251 -223z" />
    <glyph glyph-name="afii10036" unicode="&#x422;" horiz-adv-x="527" 
d="M7 690h513v-101h-198v-589h-116v589h-199v101z" />
    <glyph glyph-name="afii10037" unicode="&#x423;" horiz-adv-x="580" 
d="M454 690h120l-222 -561c-43 -108 -97 -138 -226 -138v103c73 0 102 10 126 66l-236 530h127l166 -382z" />
    <glyph glyph-name="afii10038" unicode="&#x424;" horiz-adv-x="768" 
d="M326 638v52h116v-52c157 0 280 -64 280 -277v-32c0 -213 -123 -277 -280 -277v-52h-116v52c-157 0 -280 64 -280 277v32c0 213 123 277 280 277zM442 538v-386c99 0 164 35 164 177v32c0 142 -65 177 -164 177zM162 329c0 -142 66 -177 164 -177v386
c-98 0 -164 -35 -164 -177v-32z" />
    <glyph glyph-name="afii10039" unicode="&#x425;" horiz-adv-x="574" 
d="M143 0h-127l199 356l-178 334h127l123 -236l124 236h126l-179 -334l200 -356h-126l-145 251z" />
    <glyph glyph-name="afii10040" unicode="&#x426;" horiz-adv-x="685" 
d="M192 690v-590h270v590h116v-590h94v-230h-109v130h-487v690h116z" />
    <glyph glyph-name="afii10041" unicode="&#x427;" horiz-adv-x="594" 
d="M143 690v-199c0 -107 35 -144 136 -144c71 0 106 19 123 51v292h116v-690h-116v283c-21 -17 -63 -36 -144 -36c-176 0 -231 75 -231 244v199h116z" />
    <glyph glyph-name="afii10042" unicode="&#x428;" horiz-adv-x="902" 
d="M192 690v-590h201v590h116v-590h201v590h116v-690h-750v690h116z" />
    <glyph glyph-name="afii10043" unicode="&#x429;" horiz-adv-x="934" 
d="M192 690v-590h201v590h116v-590h201v590h116v-590h93v-230h-108v130h-735v690h116z" />
    <glyph glyph-name="afii10044" unicode="&#x42a;" horiz-adv-x="651" 
d="M-24 690h269v-262h125c180 0 249 -103 249 -214s-69 -214 -249 -214h-241v589h-153v101zM366 328h-121v-228h121c96 0 137 46 137 114c0 67 -41 114 -137 114z" />
    <glyph glyph-name="afii10045" unicode="&#x42b;" horiz-adv-x="798" 
d="M76 690h116v-262h105c181 0 250 -103 250 -214s-69 -214 -257 -214h-214v690zM723 690v-690h-116v690h116zM293 328h-101v-228h101c97 0 138 46 138 114c0 67 -41 114 -138 114z" />
    <glyph glyph-name="afii10046" unicode="&#x42c;" horiz-adv-x="598" 
d="M76 690h116v-262h124c181 0 249 -103 249 -214s-68 -214 -249 -214h-240v690zM312 328h-120v-228h120c97 0 137 46 137 114c0 67 -40 114 -137 114z" />
    <glyph glyph-name="afii10047" unicode="&#x42d;" horiz-adv-x="587" 
d="M191 297v100h231c-2 143 -52 201 -142 201c-75 0 -121 -38 -138 -122h-112c22 150 114 223 250 223c155 0 258 -93 258 -310v-88c0 -217 -103 -310 -258 -310c-136 0 -227 68 -249 223h111c18 -84 60 -122 138 -122c92 0 141 61 142 205h-231z" />
    <glyph glyph-name="afii10048" unicode="&#x42e;" horiz-adv-x="818" 
d="M770 306c0 -223 -91 -315 -241 -315c-151 0 -242 92 -242 316h-95v-307h-116v690h116v-283h95c6 206 96 292 242 292c150 0 241 -92 241 -315v-78zM403 380v-70c0 -153 37 -218 126 -218c88 0 125 65 125 218v70c0 152 -37 218 -125 218c-89 0 -126 -66 -126 -218z" />
    <glyph glyph-name="afii10049" unicode="&#x42f;" horiz-adv-x="610" 
d="M144 0h-128l168 294c-89 27 -140 90 -140 191c0 137 97 205 256 205h234v-690h-116v280h-119zM306 380h112v209h-112c-99 0 -146 -28 -146 -104c0 -72 37 -105 146 -105z" />
    <glyph glyph-name="afii10065" unicode="&#x430;" horiz-adv-x="488" 
d="M32 147c0 107 79 148 186 148h108v42c0 63 -24 80 -99 80c-54 0 -81 -6 -105 -45l-77 54c36 59 90 83 189 83c128 0 197 -40 197 -173v-336h-105v46c-24 -39 -55 -55 -116 -55c-110 0 -178 56 -178 156zM326 189v24h-100c-63 0 -89 -22 -89 -66c0 -46 34 -65 85 -65
c65 0 104 20 104 107z" />
    <glyph glyph-name="afii10066" unicode="&#x431;" horiz-adv-x="500" 
d="M401 722l57 -71c-17 -32 -42 -47 -93 -50l-94 -6c-55 -3 -84 -18 -105 -53c-9 -16 -15 -42 -20 -77c29 27 67 44 118 44c127 0 199 -80 199 -224v-68c0 -131 -65 -226 -212 -226c-141 0 -213 90 -213 226v65c0 125 13 246 44 308c26 52 78 95 166 100l100 7
c31 2 42 11 53 25zM251 83c76 0 106 61 106 139v63c0 82 -35 131 -106 131c-72 0 -107 -50 -107 -131v-63c0 -78 26 -139 107 -139z" />
    <glyph glyph-name="afii10067" unicode="&#x432;" horiz-adv-x="495" 
d="M57 500h194c116 0 182 -44 182 -129c0 -49 -32 -84 -66 -99c55 -17 95 -63 95 -128c0 -73 -49 -144 -187 -144h-218v500zM164 218v-131h90c59 0 92 18 92 66c0 47 -29 65 -102 65h-80zM164 413v-111h71c58 0 82 22 82 56s-21 55 -90 55h-63z" />
    <glyph glyph-name="afii10068" unicode="&#x433;" horiz-adv-x="367" 
d="M377 500v-92h-213v-408h-107v500h320z" />
    <glyph glyph-name="afii10069" unicode="&#x434;" horiz-adv-x="553" 
d="M115 -117h-101v209h39c13 10 26 30 39 62c20 51 23 139 23 224v122h352v-408h68v-209h-100v117h-320v-117zM181 106c-3 -5 -5 -10 -8 -14h188v316h-143v-47c0 -101 -8 -196 -37 -255z" />
    <glyph glyph-name="afii10070" unicode="&#x435;" horiz-adv-x="487" 
d="M354 132l80 -56c-35 -61 -91 -85 -179 -85c-143 0 -219 93 -219 226v68c0 147 72 224 203 224c137 0 202 -82 202 -230v-55h-299v-2c0 -78 30 -139 109 -139c59 0 83 18 103 49zM239 416c-62 0 -91 -42 -96 -110h191c-4 73 -34 110 -95 110z" />
    <glyph glyph-name="afii10072" unicode="&#x436;" horiz-adv-x="681" 
d="M543 500h113l-117 -243l138 -257h-121l-107 207h-55v-207h-107v207h-55l-107 -207h-121l138 257l-117 243h113l96 -203h53v203h107v-203h52z" />
    <glyph glyph-name="afii10073" unicode="&#x437;" horiz-adv-x="451" 
d="M137 218v84h49c59 0 89 24 89 63c0 32 -23 56 -76 56c-43 0 -70 -14 -99 -45l-76 54c29 36 81 79 187 79c115 0 180 -56 180 -128c0 -55 -30 -92 -73 -112c50 -18 92 -60 92 -128c0 -82 -62 -150 -197 -150c-100 0 -160 31 -195 86l73 55c20 -28 49 -53 115 -53
c55 0 88 28 88 72c0 41 -30 67 -111 67h-46z" />
    <glyph glyph-name="afii10074" unicode="&#x438;" horiz-adv-x="534" 
d="M164 500v-312l216 312h96v-500h-106v321l-219 -321h-94v500h107z" />
    <glyph glyph-name="afii10075" unicode="&#x439;" horiz-adv-x="534" 
d="M164 500v-312l216 312h96v-500h-106v321l-219 -321h-94v500h107zM322 690h89c0 -87 -58 -124 -146 -124s-147 37 -147 124h90c0 -35 15 -58 57 -58s57 23 57 58z" />
    <glyph glyph-name="afii10076" unicode="&#x43a;" horiz-adv-x="482" 
d="M342 500h120l-149 -242l164 -258h-125l-131 207h-57v-207h-107v500h107v-203h53z" />
    <glyph glyph-name="afii10077" unicode="&#x43b;" horiz-adv-x="515" 
d="M99 500h359v-500h-107v408h-149v-134c0 -90 -8 -142 -29 -188c-29 -62 -86 -93 -160 -98v98c34 10 57 27 71 64c14 40 15 94 15 169v181z" />
    <glyph glyph-name="afii10078" unicode="&#x43c;" horiz-adv-x="636" 
d="M154 500l164 -290l164 290h96v-500h-106v298l-119 -214h-77l-112 211v-295h-107v500h97z" />
    <glyph glyph-name="afii10079" unicode="&#x43d;" horiz-adv-x="520" 
d="M164 500v-199h192v199h106v-500h-106v209h-192v-209h-107v500h107z" />
    <glyph glyph-name="afii10080" unicode="&#x43e;" horiz-adv-x="497" 
d="M461 282v-63c0 -133 -65 -228 -212 -228c-140 0 -213 90 -213 228v63c0 147 78 227 213 227s212 -80 212 -227zM249 83c76 0 106 61 106 139v58c0 87 -35 136 -106 136c-72 0 -107 -50 -107 -136v-58c0 -78 26 -139 107 -139z" />
    <glyph glyph-name="afii10081" unicode="&#x43f;" horiz-adv-x="520" 
d="M57 500h405v-500h-106v408h-192v-408h-107v500z" />
    <glyph glyph-name="afii10082" unicode="&#x440;" 
d="M482 285v-68c0 -130 -64 -226 -197 -226c-58 0 -96 14 -121 41v-222h-107v690h107v-40c25 31 65 49 122 49c120 0 196 -81 196 -224zM270 83c76 0 106 61 106 139v58c0 87 -35 136 -106 136c-70 0 -105 -48 -106 -130v-64c0 -78 25 -139 106 -139z" />
    <glyph glyph-name="afii10083" unicode="&#x441;" horiz-adv-x="445" 
d="M353 132l81 -56c-33 -59 -92 -85 -178 -85c-140 0 -220 90 -220 226v68c0 144 81 224 224 224c76 0 139 -28 174 -81l-82 -57c-19 27 -51 45 -94 45c-78 0 -116 -50 -116 -136v-58c0 -78 28 -139 116 -139c42 0 76 15 95 49z" />
    <glyph glyph-name="afii10084" unicode="&#x442;" horiz-adv-x="414" 
d="M0 500h414v-92h-154v-408h-106v408h-154v92z" />
    <glyph glyph-name="afii10085" unicode="&#x443;" horiz-adv-x="473" 
d="M5 500h113l127 -352l114 352h110l-176 -520c-43 -128 -80 -170 -220 -170v98c70 0 98 11 123 86z" />
    <glyph glyph-name="afii10086" unicode="&#x444;" horiz-adv-x="676" 
d="M391 690v-181c164 0 248 -78 248 -224v-68c0 -142 -82 -226 -248 -226v-181h-106v181c-167 0 -249 84 -249 226v68c0 146 84 224 249 224v181h106zM142 220c0 -87 40 -137 143 -137v333c-93 0 -143 -39 -143 -135v-61zM533 281c0 96 -49 135 -142 135v-333
c103 0 142 50 142 137v61z" />
    <glyph glyph-name="afii10087" unicode="&#x445;" horiz-adv-x="485" 
d="M477 0h-121l-114 167l-114 -167h-120l172 256l-156 244h121l97 -158l98 158h120l-156 -244z" />
    <glyph glyph-name="afii10088" unicode="&#x446;" horiz-adv-x="548" 
d="M530 -117h-100v117h-373v500h107v-408h192v408h106v-408h68v-209z" />
    <glyph glyph-name="afii10089" unicode="&#x447;" horiz-adv-x="475" 
d="M140 500v-134c0 -84 42 -98 89 -98c50 0 72 21 82 40v192h107v-500h-107v200c-20 -17 -60 -27 -99 -27c-103 0 -178 40 -178 183v144h106z" />
    <glyph glyph-name="afii10090" unicode="&#x448;" horiz-adv-x="730" 
d="M673 0h-616v500h107v-408h148v408h106v-408h148v408h107v-500z" />
    <glyph glyph-name="afii10091" unicode="&#x449;" horiz-adv-x="759" 
d="M740 -117h-100v117h-583v500h107v-408h148v408h106v-408h148v408h107v-408h67v-209z" />
    <glyph glyph-name="afii10092" unicode="&#x44a;" horiz-adv-x="540" 
d="M-16 500h235v-181h88c138 0 210 -50 210 -158c0 -96 -59 -161 -192 -161h-213v408h-128v92zM219 227v-135h94c57 0 88 23 88 70c0 43 -27 65 -100 65h-82z" />
    <glyph glyph-name="afii10093" unicode="&#x44b;" horiz-adv-x="651" 
d="M57 500h107v-181h62c138 0 210 -50 210 -158c0 -101 -66 -161 -192 -161h-187v500zM487 500h106v-500h-106v500zM164 227v-135h67c58 0 89 23 89 70c0 43 -27 65 -101 65h-55z" />
    <glyph glyph-name="afii10094" unicode="&#x44c;" horiz-adv-x="485" 
d="M57 500h107v-181h88c138 0 210 -50 210 -158c0 -96 -59 -161 -192 -161h-213v500zM164 227v-135h94c57 0 88 23 88 70c0 43 -27 65 -100 65h-82z" />
    <glyph glyph-name="afii10095" unicode="&#x44d;" horiz-adv-x="454" 
d="M137 210v87h175c-3 72 -39 119 -114 119c-40 0 -74 -15 -95 -45l-81 57c38 51 99 81 173 81c145 0 223 -82 223 -224v-68c0 -138 -77 -226 -223 -226c-80 0 -142 28 -174 85l79 56c20 -34 56 -49 98 -49c86 0 113 59 114 127h-175z" />
    <glyph glyph-name="afii10096" unicode="&#x44e;" horiz-adv-x="679" 
d="M643 285v-68c0 -134 -65 -226 -199 -226c-121 0 -197 78 -199 218h-81v-209h-107v500h107v-199h81c5 135 78 208 199 208c126 0 199 -78 199 -224zM444 83c67 0 93 57 93 138v60c0 91 -32 135 -93 135s-92 -45 -92 -135v-60c0 -82 21 -138 92 -138z" />
    <glyph glyph-name="afii10097" unicode="&#x44f;" horiz-adv-x="500" 
d="M442 0h-106v184h-82l-113 -184h-115l124 201c-63 23 -102 72 -102 147c0 80 52 152 198 152h196v-500zM336 275v133h-82c-60 0 -90 -22 -90 -64c0 -48 30 -69 99 -69h73z" />
    <glyph glyph-name="afii10071" unicode="&#x451;" horiz-adv-x="487" 
d="M354 132l80 -56c-35 -61 -91 -85 -179 -85c-143 0 -219 93 -219 226v68c0 147 72 224 203 224c137 0 202 -82 202 -230v-55h-299v-2c0 -78 30 -139 109 -139c59 0 83 18 103 49zM239 416c-62 0 -91 -42 -96 -110h191c-4 73 -34 110 -95 110zM78 585v105h109v-105h-109z
M285 585v105h108v-105h-108z" />
    <glyph glyph-name="afii10099" unicode="&#x452;" horiz-adv-x="526" 
d="M-29 547v87h94v56h106v-56h150v-87h-150v-122c22 31 58 51 122 51c104 0 183 -52 183 -196v-311c0 -114 -55 -159 -162 -159h-13v93h12c36 0 57 13 57 66v299c0 89 -41 114 -96 114c-66 0 -103 -45 -103 -113v-269h-106v547h-94z" />
    <glyph glyph-name="afii10100" unicode="&#x453;" horiz-adv-x="367" 
d="M377 500v-92h-213v-408h-107v500h320zM153 567l70 158h122l-91 -158h-101z" />
    <glyph glyph-name="afii10101" unicode="&#x454;" horiz-adv-x="459" 
d="M311 297v-87h-175c1 -68 28 -127 114 -127c43 0 78 15 98 49l80 -56c-33 -57 -95 -85 -175 -85c-146 0 -223 88 -223 226v68c0 142 78 224 223 224c74 0 136 -30 173 -81l-81 -57c-21 30 -55 45 -95 45c-75 0 -112 -47 -114 -119h175z" />
    <glyph glyph-name="afii10102" unicode="&#x455;" horiz-adv-x="465" 
d="M413 426l-79 -57c-24 31 -49 45 -109 45c-45 0 -78 -15 -78 -51c0 -42 37 -55 95 -62c111 -13 183 -52 183 -158c0 -92 -63 -152 -192 -152c-102 0 -160 28 -201 83l81 58c23 -31 53 -47 119 -47c55 0 87 20 87 55c0 41 -26 53 -104 63c-95 12 -175 52 -175 157
c0 89 65 149 187 149c82 0 147 -21 186 -83z" />
    <glyph glyph-name="afii10103" unicode="&#x456;" horiz-adv-x="251" 
d="M72 0v500h107v-500h-107zM67 581v109h117v-109h-117z" />
    <glyph glyph-name="afii10104" unicode="&#x457;" horiz-adv-x="251" 
d="M72 0v500h107v-500h-107zM-37 585v105h109v-105h-109zM170 585v105h108v-105h-108z" />
    <glyph glyph-name="afii10105" unicode="&#x458;" horiz-adv-x="244" 
d="M181 500v-531c0 -117 -51 -159 -181 -159v94c66 0 75 34 75 84v512h106zM70 581v109h116v-109h-116z" />
    <glyph glyph-name="afii10106" unicode="&#x459;" horiz-adv-x="779" 
d="M99 500h359v-181h88c138 0 210 -50 210 -158c0 -96 -59 -161 -192 -161h-213v408h-149v-134c0 -90 -8 -142 -29 -188c-29 -62 -86 -93 -160 -98v98c34 10 57 27 71 64c14 40 15 94 15 169v181zM458 227v-135h94c57 0 88 23 88 70c0 43 -27 65 -100 65h-82z" />
    <glyph glyph-name="afii10107" unicode="&#x45a;" horiz-adv-x="784" 
d="M164 500v-199h192v199h106v-181h89c138 0 210 -50 210 -158c0 -96 -60 -161 -193 -161h-212v209h-192v-209h-107v500h107zM462 227v-135h94c58 0 89 23 89 70c0 43 -27 65 -101 65h-82z" />
    <glyph glyph-name="afii10108" unicode="&#x45b;" horiz-adv-x="526" 
d="M-29 547v87h94v56h106v-56h150v-87h-150v-122c22 31 58 51 122 51c104 0 183 -52 183 -196v-280h-106v268c0 89 -41 114 -96 114c-66 0 -103 -45 -103 -113v-269h-106v547h-94z" />
    <glyph glyph-name="afii10109" unicode="&#x45c;" horiz-adv-x="482" 
d="M342 500h120l-149 -242l164 -258h-125l-131 207h-57v-207h-107v500h107v-203h53zM189 567l70 158h122l-91 -158h-101z" />
    <glyph glyph-name="afii10110" unicode="&#x45e;" horiz-adv-x="473" 
d="M5 500h113l127 -352l114 352h110l-176 -520c-43 -128 -80 -170 -220 -170v98c70 0 98 11 123 86zM301 690h89c0 -87 -58 -124 -146 -124s-147 37 -147 124h90c0 -35 15 -58 57 -58s57 23 57 58z" />
    <glyph glyph-name="afii10193" unicode="&#x45f;" horiz-adv-x="526" 
d="M304 -117h-88v117h-159v500h107v-408h192v408h106v-500h-158v-117z" />
    <glyph glyph-name="afii10146" unicode="&#x462;" horiz-adv-x="598" 
d="M76 690h116v-77h167v-101h-167v-84h124c181 0 249 -103 249 -214s-68 -214 -249 -214h-240v512h-86v101h86v77zM312 328h-120v-228h120c97 0 137 46 137 114c0 67 -40 114 -137 114z" />
    <glyph glyph-name="afii10194" unicode="&#x463;" horiz-adv-x="485" 
d="M-29 413v87h86v190h107v-190h157v-87h-157v-94h88c138 0 210 -50 210 -158c0 -96 -59 -161 -192 -161h-213v413h-86zM164 227v-135h94c57 0 88 23 88 70c0 43 -27 65 -100 65h-82z" />
    <glyph glyph-name="afii10147" unicode="&#x472;" horiz-adv-x="613" 
d="M565 301c0 -217 -104 -310 -259 -310c-154 0 -258 93 -258 310v88c0 217 104 310 258 310c155 0 259 -93 259 -310v-88zM306 92c92 0 143 60 143 209v6h-285v-6c0 -149 50 -209 142 -209zM306 598c-88 0 -138 -56 -142 -191h284c-4 135 -54 191 -142 191z" />
    <glyph glyph-name="afii10195" unicode="&#x473;" horiz-adv-x="497" 
d="M461 282v-63c0 -133 -65 -228 -212 -228c-140 0 -213 90 -213 228v63c0 147 78 227 213 227s212 -80 212 -227zM249 83c71 0 103 54 106 126h-213c3 -72 30 -126 107 -126zM249 416c-66 0 -101 -42 -107 -115h212c-5 74 -40 115 -105 115z" />
    <glyph glyph-name="afii10148" unicode="&#x474;" horiz-adv-x="610" 
d="M6 690h128l170 -504l128 377c31 91 76 136 199 136v-99c-49 0 -68 -21 -87 -73l-186 -527h-107z" />
    <glyph glyph-name="afii10196" unicode="&#x475;" horiz-adv-x="502" 
d="M512 509v-92c-41 0 -52 -20 -69 -62l-138 -355h-102l-199 500h118l130 -357l97 264c31 84 67 102 163 102z" />
    <glyph glyph-name="afii10050" unicode="&#x490;" horiz-adv-x="487" 
d="M384 690v108h103v-209h-295v-589h-116v690h308z" />
    <glyph glyph-name="afii10098" unicode="&#x491;" horiz-adv-x="367" 
d="M281 500v93h96v-185h-213v-408h-107v500h224z" />
    <glyph glyph-name="uni0492" unicode="&#x492;" horiz-adv-x="491" 
d="M491 690v-101h-295v-182h155v-100h-155v-307h-116v307h-90v100h90v283h411z" />
    <glyph glyph-name="uni0493" unicode="&#x493;" horiz-adv-x="390" 
d="M400 500v-92h-213v-107h116v-92h-116v-209h-107v209h-92v92h92v199h320z" />
    <glyph glyph-name="uni0496" unicode="&#x496;" horiz-adv-x="933" 
d="M139 0h-133l209 349l-172 341h124l145 -293h75v293h116v-293h75l145 293h124l-172 -341l149 -249h96v-230h-109v130h-60l-177 297h-71v-297h-116v297h-71z" />
    <glyph glyph-name="uni0497" unicode="&#x497;" horiz-adv-x="711" 
d="M543 500h113l-117 -243l88 -165h74v-209h-101v117h-44l-107 207h-55v-207h-107v207h-55l-107 -207h-121l138 257l-117 243h113l96 -203h53v203h107v-203h52z" />
    <glyph glyph-name="uni0498" unicode="&#x498;" horiz-adv-x="577" 
d="M348 -130h-109v125c-109 15 -181 79 -206 200h112c29 -70 66 -103 146 -103c90 0 134 40 134 109s-48 107 -149 107h-65v100h70c87 0 122 41 122 99c0 54 -32 92 -113 92c-78 0 -115 -34 -136 -94h-104c14 121 122 194 241 194c131 0 228 -65 228 -185
c0 -72 -37 -120 -101 -151c73 -24 123 -84 123 -165c0 -101 -64 -186 -193 -203v-125z" />
    <glyph glyph-name="uni0499" unicode="&#x499;" horiz-adv-x="451" 
d="M267 -117h-101v111c-73 8 -119 37 -148 83l73 55c20 -28 49 -53 115 -53c55 0 88 28 88 72c0 41 -30 67 -111 67h-46v84h49c59 0 89 24 89 63c0 32 -23 56 -76 56c-43 0 -70 -14 -99 -45l-76 54c29 36 81 79 187 79c115 0 180 -56 180 -128c0 -55 -30 -92 -73 -112
c50 -18 92 -60 92 -128c0 -70 -46 -130 -143 -146v-112z" />
    <glyph glyph-name="uni049A" unicode="&#x49a;" horiz-adv-x="646" 
d="M632 -130h-108v130h-60l-196 297h-76v-297h-116v690h116v-293h73l172 293h128l-197 -337l167 -253h97v-230z" />
    <glyph glyph-name="uni049B" unicode="&#x49b;" horiz-adv-x="507" 
d="M342 500h120l-149 -242l105 -166h77v-209h-100v117h-43l-131 207h-57v-207h-107v500h107v-203h53z" />
    <glyph glyph-name="uni049C" unicode="&#x49c;" horiz-adv-x="689" 
d="M677 0h-138l-196 297h-24v-111h-93v111h-34v-297h-116v690h116v-293h34v119h93v-119h21l172 293h128l-197 -337z" />
    <glyph glyph-name="uni049D" unicode="&#x49d;" horiz-adv-x="542" 
d="M403 500h119l-149 -242l164 -258h-125l-130 207h-11v-102h-85v102h-22v-207h-107v500h107v-203h22v103h85v-103h7z" />
    <glyph glyph-name="uni04A0" unicode="&#x4a0;" horiz-adv-x="668" 
d="M656 0h-138l-196 297h-76v-297h-116v589h-154v101h270v-293h73l172 293h128l-197 -337z" />
    <glyph glyph-name="uni04A1" unicode="&#x4a1;" horiz-adv-x="537" 
d="M397 500h120l-149 -242l164 -258h-125l-131 207h-57v-207h-107v408h-128v92h235v-203h53z" />
    <glyph glyph-name="uni04A2" unicode="&#x4a2;" horiz-adv-x="679" 
d="M192 690v-283h264v283h116v-590h94v-230h-109v130h-101v307h-264v-307h-116v690h116z" />
    <glyph glyph-name="uni04A3" unicode="&#x4a3;" horiz-adv-x="548" 
d="M164 500v-199h192v199h106v-408h68v-209h-100v117h-74v209h-192v-209h-107v500h107z" />
    <glyph glyph-name="uni04AA" unicode="&#x4aa;" horiz-adv-x="587" 
d="M361 -130h-109v126c-124 20 -204 114 -204 305v88c0 217 104 310 258 310c137 0 228 -73 251 -223h-112c-18 84 -63 122 -139 122c-92 0 -142 -60 -142 -209v-88c0 -147 50 -209 142 -209c79 0 121 38 139 122h111c-20 -133 -89 -202 -195 -219v-125z" />
    <glyph glyph-name="uni04AB" unicode="&#x4ab;" horiz-adv-x="445" 
d="M308 -117h-100v112c-110 18 -172 102 -172 222v68c0 144 81 224 224 224c76 0 139 -28 174 -81l-82 -57c-19 27 -51 45 -94 45c-78 0 -116 -50 -116 -136v-58c0 -78 28 -139 116 -139c42 0 76 15 95 49l81 -56c-26 -47 -68 -73 -126 -81v-112z" />
    <glyph glyph-name="uni04AE" unicode="&#x4ae;" horiz-adv-x="571" 
d="M12 690h135l138 -276l139 276h134l-215 -402v-288h-116v288z" />
    <glyph glyph-name="uni04AF" unicode="&#x4af;" horiz-adv-x="504" 
d="M381 500h119l-193 -495v-195h-106v195l-197 495h118l130 -357z" />
    <glyph glyph-name="uni04B0" unicode="&#x4b0;" horiz-adv-x="571" 
d="M12 690h135l138 -276l139 276h134l-207 -387h127v-100h-135v-203h-116v203h-133v100h125z" />
    <glyph glyph-name="uni04B1" unicode="&#x4b1;" horiz-adv-x="504" 
d="M381 500h119l-195 -500h105v-92h-105v-98h-102v98h-108v92h108l-199 500h118l130 -357z" />
    <glyph glyph-name="uni04B2" unicode="&#x4b2;" horiz-adv-x="611" 
d="M143 0h-127l199 356l-178 334h127l123 -236l124 236h126l-179 -334l144 -256h95v-230h-109v130h-56l-145 251z" />
    <glyph glyph-name="uni04B3" unicode="&#x4b3;" horiz-adv-x="505" 
d="M495 -117h-100v117h-39l-114 167l-114 -167h-120l172 256l-156 244h121l97 -158l98 158h120l-156 -244l111 -164h80v-209z" />
    <glyph glyph-name="uni04B6" unicode="&#x4b6;" horiz-adv-x="625" 
d="M143 690v-199c0 -107 35 -144 136 -144c71 0 106 19 123 51v292h116v-590h93v-230h-108v130h-101v283c-21 -17 -63 -36 -144 -36c-176 0 -231 75 -231 244v199h116z" />
    <glyph glyph-name="uni04B7" unicode="&#x4b7;" horiz-adv-x="507" 
d="M143 500v-134c0 -84 42 -98 89 -98c50 0 72 21 82 40v192h107v-408h68v-209h-101v117h-74v200c-20 -17 -60 -27 -99 -27c-103 0 -178 40 -178 183v144h106z" />
    <glyph glyph-name="uni04B8" unicode="&#x4b8;" horiz-adv-x="605" 
d="M331 468v-117c42 7 69 23 82 47v292h116v-690h-116v283c-13 -11 -41 -24 -82 -31v-115h-100v110c-155 8 -204 84 -204 244v199h116v-199c0 -88 23 -129 88 -141v118h100z" />
    <glyph glyph-name="uni04B9" unicode="&#x4b9;" horiz-adv-x="501" 
d="M143 500v-134c0 -64 23 -87 56 -95v107h84v-103c25 7 44 19 54 32v193h106v-500h-106v200c-13 -8 -33 -15 -54 -20v-96h-84v89c-95 4 -162 47 -162 183v144h106z" />
    <glyph glyph-name="uni04BA" unicode="&#x4ba;" horiz-adv-x="594" 
d="M450 0v264c0 107 -35 144 -135 144c-71 0 -106 -18 -123 -51v-357h-116v690h116v-217c20 17 62 36 144 36c176 0 230 -76 230 -244v-265h-116z" />
    <glyph glyph-name="uni04BB" unicode="&#x4bb;" horiz-adv-x="526" 
d="M57 0v690h107v-233c21 30 57 52 122 52c103 0 182 -52 182 -196v-313h-106v301c0 88 -40 113 -95 113c-66 0 -103 -45 -103 -112v-302h-107z" />
    <glyph glyph-name="uni04D8" unicode="&#x4d8;" horiz-adv-x="603" 
d="M48 301v58h396v30c0 149 -50 209 -142 209c-77 0 -122 -42 -138 -122h-112c21 145 110 223 250 223c155 0 258 -93 258 -315v-83c0 -217 -103 -310 -258 -310c-154 0 -254 93 -254 310zM302 92c83 0 131 45 140 166h-281c7 -112 52 -166 141 -166z" />
    <glyph glyph-name="afii10846" unicode="&#x4d9;" horiz-adv-x="487" 
d="M133 368l-80 56c35 61 91 85 179 85c143 0 219 -93 219 -226v-68c0 -147 -72 -224 -203 -224c-137 0 -202 82 -202 230v55h299v2c0 78 -30 139 -109 139c-59 0 -83 -18 -103 -49zM248 84c62 0 91 42 96 110h-191c4 -73 34 -110 95 -110z" />
    <glyph glyph-name="uni04E2" unicode="&#x4e2;" horiz-adv-x="667" 
d="M76 690h116v-471l305 471h95v-690h-116v466l-304 -466h-96v690zM175 755v94h317v-94h-317z" />
    <glyph glyph-name="uni04E3" unicode="&#x4e3;" horiz-adv-x="534" 
d="M164 500v-312l216 312h96v-500h-106v321l-219 -321h-94v500h107zM129 585v94h277v-94h-277z" />
    <glyph glyph-name="uni04E8" unicode="&#x4e8;" horiz-adv-x="613" 
d="M565 301c0 -217 -104 -310 -259 -310c-154 0 -258 93 -258 310v88c0 217 104 310 258 310c155 0 259 -93 259 -310v-88zM306 92c92 0 143 60 143 209v6h-285v-6c0 -149 50 -209 142 -209zM306 598c-88 0 -138 -56 -142 -191h284c-4 135 -54 191 -142 191z" />
    <glyph glyph-name="uni04E9" unicode="&#x4e9;" horiz-adv-x="497" 
d="M461 282v-63c0 -133 -65 -228 -212 -228c-140 0 -213 90 -213 228v63c0 147 78 227 213 227s212 -80 212 -227zM249 83c71 0 103 54 106 126h-213c3 -72 30 -126 107 -126zM249 416c-66 0 -101 -42 -107 -115h212c-5 74 -40 115 -105 115z" />
    <glyph glyph-name="uni04EE" unicode="&#x4ee;" horiz-adv-x="580" 
d="M454 690h120l-222 -561c-43 -108 -97 -138 -226 -138v103c73 0 102 10 126 66l-236 530h127l166 -382zM143 755v94h317v-94h-317z" />
    <glyph glyph-name="uni04EF" unicode="&#x4ef;" horiz-adv-x="473" 
d="M5 500h113l127 -352l114 352h110l-176 -520c-43 -128 -80 -170 -220 -170v98c70 0 98 11 123 86zM101 585v94h277v-94h-277z" />
    <glyph glyph-name="uni1E9E" unicode="&#x1e9e;" horiz-adv-x="606" 
d="M533 639l-107 -184c79 -14 107 -55 107 -134v-181c0 -120 -49 -140 -151 -140h-81v100h59c42 0 57 18 57 62v140c0 46 -11 66 -57 66h-59v78l83 139c-13 5 -45 13 -77 13c-79 0 -115 -30 -115 -113v-485h-116v493c0 125 70 206 231 206c101 0 195 -39 226 -60z" />
    <glyph glyph-name="uni2010" unicode="&#x2010;" horiz-adv-x="319" 
d="M30 242v94h259v-94h-259z" />
    <glyph glyph-name="uni2011" unicode="&#x2011;" horiz-adv-x="319" 
d="M30 242v94h259v-94h-259z" />
    <glyph glyph-name="figuredash" unicode="&#x2012;" horiz-adv-x="522" 
d="M62 299v100h398v-100h-398z" />
    <glyph glyph-name="endash" unicode="&#x2013;" horiz-adv-x="509" 
d="M60 239v100h389v-100h-389z" />
    <glyph glyph-name="emdash" unicode="&#x2014;" horiz-adv-x="694" 
d="M20 239v100h654v-100h-654z" />
    <glyph glyph-name="quoteleft" unicode="&#x2018;" horiz-adv-x="231" 
d="M52 534v168l119 102v-270h-119z" />
    <glyph glyph-name="quoteright" unicode="&#x2019;" horiz-adv-x="237" 
d="M165 721v-174l-113 -96v270h113z" />
    <glyph glyph-name="quotesinglbase" unicode="&#x201a;" horiz-adv-x="238" 
d="M178 118v-168l-118 -102v270h118z" />
    <glyph glyph-name="quotedblleft" unicode="&#x201c;" horiz-adv-x="386" 
d="M37 534v168l119 102v-270h-119zM211 534v168l118 102v-270h-118z" />
    <glyph glyph-name="quotedblright" unicode="&#x201d;" horiz-adv-x="386" 
d="M156 721v-168l-119 -102v270h119zM329 721v-168l-118 -102v270h118z" />
    <glyph glyph-name="quotedblbase" unicode="&#x201e;" horiz-adv-x="407" 
d="M352 118v-168l-119 -102v270h119zM178 118v-168l-118 -102v270h118z" />
    <glyph glyph-name="dagger" unicode="&#x2020;" horiz-adv-x="556" 
d="M27 500h193v190h116v-190h192v-101h-192v-589h-116v589h-193v101z" />
    <glyph glyph-name="daggerdbl" unicode="&#x2021;" horiz-adv-x="556" 
d="M27 500h193v190h116v-190h192v-101h-192v-299h192v-100h-192v-190h-116v190h-193v100h193v299h-193v101z" />
    <glyph glyph-name="bullet" unicode="&#x2022;" horiz-adv-x="297" 
d="M47 341c0 56 46 102 102 102s102 -46 102 -102s-46 -102 -102 -102s-102 46 -102 102z" />
    <glyph glyph-name="ellipsis" unicode="&#x2026;" horiz-adv-x="840" 
d="M198 138v-138h-138v138h138zM780 138v-138h-138v138h138zM489 138v-138h-138v138h138z" />
    <glyph glyph-name="perthousand" unicode="&#x2030;" horiz-adv-x="1082" 
d="M510 690h106l-385 -690h-107zM724 196v-52c0 -90 -43 -153 -149 -153c-94 0 -146 56 -146 153v52c0 97 54 152 146 152c96 0 149 -54 149 -152zM576 66c43 0 63 31 63 79v49c0 53 -22 78 -63 78c-40 0 -61 -26 -61 -78v-49c0 -49 16 -79 61 -79zM319 547v-52
c0 -90 -43 -153 -149 -153c-95 0 -147 56 -147 153v52c0 97 54 152 147 152c96 0 149 -54 149 -152zM170 417c44 0 63 31 63 79v49c0 53 -21 78 -63 78c-39 0 -60 -26 -60 -78v-49c0 -49 16 -79 60 -79zM1054 196v-52c0 -90 -43 -153 -149 -153c-95 0 -147 56 -147 153v52
c0 97 54 152 147 152c96 0 149 -54 149 -152zM905 66c44 0 63 31 63 79v49c0 53 -21 78 -63 78c-39 0 -60 -26 -60 -78v-49c0 -49 16 -79 60 -79z" />
    <glyph glyph-name="guilsinglleft" unicode="&#x2039;" horiz-adv-x="330" 
d="M30 283l232 231v-125l-108 -106l108 -107v-124z" />
    <glyph glyph-name="guilsinglright" unicode="&#x203a;" horiz-adv-x="330" 
d="M58 514l232 -231l-232 -231v124l107 107l-107 106v125z" />
    <glyph glyph-name="fraction" unicode="&#x2044;" horiz-adv-x="566" 
d="M481 690h106l-474 -690h-107z" />
    <glyph glyph-name="uni2074" unicode="&#x2074;" horiz-adv-x="345" 
d="M162 690h85l-123 -201h67v50h72v-50h39v-62h-39v-53h-72v53h-160v55z" />
    <glyph glyph-name="Euro" unicode="&#x20ac;" horiz-adv-x="522" 
d="M9 313h67v60h-67v97h71c19 159 95 229 218 229c130 0 194 -78 208 -223h-112c-11 88 -38 122 -96 122c-62 0 -94 -33 -103 -128h125v-97h-128v-60h128v-97h-124c11 -85 42 -124 102 -124c58 0 85 37 96 122h111c-16 -150 -79 -223 -207 -223c-121 0 -198 73 -217 225h-72
v97z" />
    <glyph glyph-name="uni20B4" unicode="&#x20b4;" horiz-adv-x="522" 
d="M6 227v94h511v-94h-346c-7 -13 -9 -27 -9 -43c0 -50 29 -92 110 -92c60 0 89 26 130 75l89 -62c-61 -78 -117 -114 -226 -114c-151 0 -219 95 -219 194c0 15 2 29 5 42h-45zM6 370v95h343c7 12 10 26 10 43c0 58 -35 90 -97 90c-57 0 -86 -27 -120 -75l-86 63
c48 73 115 113 205 113c151 0 215 -87 214 -187c0 -17 -3 -33 -7 -47h49v-95h-511z" />
    <glyph glyph-name="uni20B8" unicode="&#x20b8;" horiz-adv-x="522" 
d="M11 540h501v-101h-193v-439h-116v439h-192v101zM11 690h501v-101h-501v101z" />
    <glyph glyph-name="uni20BD" unicode="&#x20bd;" horiz-adv-x="522" 
d="M9 252v100h86v338h169c159 0 255 -76 255 -218c0 -140 -95 -220 -255 -220h-53v-45h116v-100h-116v-107h-116v107h-86v100h86v45h-86zM211 352h42c106 0 150 41 150 120c0 75 -44 117 -150 117h-42v-237z" />
    <glyph glyph-name="afii61352" unicode="&#x2116;" horiz-adv-x="947" 
d="M923 537v-47c0 -94 -47 -163 -152 -163c-98 0 -152 64 -152 163v47c0 103 56 162 152 162c97 0 152 -59 152 -162zM642 187v98h259v-98h-259zM771 414c41 0 60 35 60 80v39c0 52 -21 79 -60 79s-61 -28 -61 -79v-39c0 -46 16 -80 61 -80zM454 690h112v-690h-103l-281 469
v-469h-112v690h100l284 -475v475z" />
    <glyph glyph-name="trademark" unicode="&#x2122;" horiz-adv-x="898" 
d="M496 690l135 -235l135 235h88v-417h-94v232l-94 -161h-76l-88 161v-232h-93v417h87zM27 690h345v-85h-126v-332h-94v332h-125v85z" />
    <glyph glyph-name="uni2190" unicode="&#x2190;" horiz-adv-x="875" 
d="M523 -92h-110l-353 353l353 353h110l-314 -314h606v-78h-606z" />
    <glyph glyph-name="uni2191" unicode="&#x2191;" horiz-adv-x="826" 
d="M766 286v-110l-314 314v-606h-78v606l-314 -314v110l353 353z" />
    <glyph glyph-name="uni2192" unicode="&#x2192;" horiz-adv-x="875" 
d="M462 -92h-110l314 314h-606v78h606l-314 314h110l353 -353z" />
    <glyph glyph-name="uni2193" unicode="&#x2193;" horiz-adv-x="826" 
d="M60 236v110l314 -314v606h78v-606l314 314v-110l-353 -353z" />
    <glyph glyph-name="uni2196" unicode="&#x2196;" horiz-adv-x="698" 
d="M137 -78l-77 78v500h500l78 -77h-445l428 -429l-55 -55l-429 428v-445z" />
    <glyph glyph-name="uni2197" unicode="&#x2197;" horiz-adv-x="698" 
d="M638 0l-77 -78v445l-429 -428l-55 55l428 429h-445l78 77h500v-500z" />
    <glyph glyph-name="uni2198" unicode="&#x2198;" horiz-adv-x="698" 
d="M561 578l77 -78v-500h-500l-78 77h445l-428 429l55 55l429 -428v445z" />
    <glyph glyph-name="uni2199" unicode="&#x2199;" horiz-adv-x="698" 
d="M60 500l77 78v-445l429 428l55 -55l-428 -429h445l-78 -77h-500v500z" />
    <glyph glyph-name="uni21A3" unicode="&#x21a3;" horiz-adv-x="1320" 
d="M238 442l111 -111h780l-60 60l50 51l161 -161l-161 -161l-50 50l60 61h-780l-111 -111l-51 50l111 111l-111 110zM91 442l160 -161l-160 -161l-51 50l110 111l-110 110z" />
    <glyph glyph-name="partialdiff" unicode="&#x2202;" horiz-adv-x="502" 
d="M461 466v-247c0 -133 -65 -228 -212 -228c-140 0 -213 90 -213 228v63c0 147 78 227 208 227c49 0 84 -12 111 -32c-1 88 -42 130 -115 130c-40 0 -76 -15 -111 -39l-52 69c41 37 106 62 170 62c142 0 214 -81 214 -233zM249 83c76 0 106 61 106 139v58
c0 87 -35 136 -106 136c-72 0 -107 -50 -107 -136v-58c0 -78 26 -139 107 -139z" />
    <glyph glyph-name="product" unicode="&#x220f;" horiz-adv-x="638" 
d="M70 690h498v-880h-116v779h-266v-779h-116v880z" />
    <glyph glyph-name="summation" unicode="&#x2211;" 
d="M490 690v-100h-312l185 -292v-98l-185 -290h312v-100h-460v83l228 357l-228 357v83h460z" />
    <glyph glyph-name="minus" unicode="&#x2212;" horiz-adv-x="503" 
d="M57 307v94h389v-94h-389z" />
    <glyph glyph-name="uni2215" unicode="&#x2215;" horiz-adv-x="485" 
d="M145 -116h-98l336 928h98z" />
    <glyph glyph-name="radical" unicode="&#x221a;" horiz-adv-x="659" 
d="M14 500h194l138 -326l114 516h277v-101h-185l-143 -589h-108l-179 399h-108v101z" />
    <glyph glyph-name="infinity" unicode="&#x221e;" horiz-adv-x="787" 
d="M392 274c-50 -63 -109 -111 -185 -111c-105 0 -175 80 -175 179s70 179 178 179c73 0 139 -46 188 -109c50 63 106 109 180 109c106 0 177 -80 177 -179s-71 -179 -173 -179c-78 0 -140 48 -190 111zM580 261c43 0 80 31 80 81c0 48 -37 80 -84 80
c-50 0 -77 -32 -117 -78c40 -49 75 -83 121 -83zM209 261c52 0 85 34 124 82c-39 46 -76 79 -124 79c-45 0 -83 -32 -83 -80c0 -50 38 -81 83 -81z" />
    <glyph glyph-name="integral" unicode="&#x222b;" horiz-adv-x="299" 
d="M82 -9v540c0 118 47 159 166 159h31v-100h-22c-53 0 -65 -22 -65 -82v-539c0 -118 -47 -159 -167 -159h-31v100h23c55 0 65 23 65 81z" />
    <glyph glyph-name="approxequal" unicode="&#x2248;" horiz-adv-x="500" 
d="M417 476l42 -76c-33 -32 -64 -52 -112 -52c-69 0 -136 53 -194 53c-28 0 -48 -13 -70 -31l-42 77c36 35 68 52 110 52c68 0 140 -53 198 -53c28 0 47 12 68 30zM417 309l42 -75c-33 -33 -64 -53 -112 -53c-69 0 -136 53 -194 53c-28 0 -48 -13 -70 -31l-42 77
c36 35 68 52 110 52c68 0 140 -53 198 -53c28 0 47 12 68 30z" />
    <glyph glyph-name="notequal" unicode="&#x2260;" horiz-adv-x="500" 
d="M55 377v99h208l72 166l85 -35l-57 -131h81v-99h-124l-31 -73h155v-98h-198l-68 -159l-85 35l53 124h-91v98h134l31 73h-165z" />
    <glyph glyph-name="lessequal" unicode="&#x2264;" horiz-adv-x="436" 
d="M105 401l232 231v-125l-107 -106l107 -107v-124zM105 201v123l232 -229v-125z" />
    <glyph glyph-name="greaterequal" unicode="&#x2265;" horiz-adv-x="436" 
d="M105 632l232 -231l-232 -231v124l108 107l-108 106v125zM337 324v-123l-232 -231v125z" />
    <glyph glyph-name="uni231A" unicode="&#x231a;" horiz-adv-x="666" 
d="M185 -205v235c-75 45 -125 127 -125 220s50 174 125 219v235h261v-234c64 -38 110 -104 122 -180h38v-80h-38c-12 -77 -58 -142 -122 -180v-235h-261zM105 250c0 -116 95 -211 211 -211s210 95 210 211s-94 210 -210 210s-211 -94 -211 -210zM482 318l-166 -93l-133 75
l-6 20l20 5l119 -70l153 87l19 -5z" />
    <glyph glyph-name="uni23F2" unicode="&#x23f2;" horiz-adv-x="1072" 
d="M60 342c0 263 213 476 476 476s476 -213 476 -476s-213 -476 -476 -476s-476 213 -476 476zM114 342c0 -233 189 -422 422 -422s421 189 421 422s-188 421 -421 421s-422 -188 -422 -421zM871 508l-335 -192l-248 142l-10 35l36 10l222 -129l309 179l36 -9zM802 364h126
v-46h-126v46zM513 -50v126h46v-126h-46zM145 364h126v-46h-126v46zM513 607v126h46v-126h-46z" />
    <glyph glyph-name="uni2550" unicode="&#x2550;" horiz-adv-x="2158" 
d="M2158 403v-100h-2158v100h2158zM2158 257v-101h-2158v101h2158z" />
    <glyph glyph-name="lozenge" unicode="&#x25ca;" horiz-adv-x="558" 
d="M221 587h118l193 -291l-193 -296h-118l-195 296zM279 494l-127 -198l127 -204l126 204z" />
    <glyph glyph-name="uni261D" unicode="&#x261d;" horiz-adv-x="705" 
d="M645 -28h-370l-215 292s72 69 144 -6l71 -74v450c0 42 20 61 50 61s50 -19 50 -58v-229h36c38 0 54 -16 54 -54h36c38 0 54 -16 54 -54h34c40 0 56 -16 56 -51v-277zM275 -243v161h370v-161h-370zM565 -135c-16 0 -28 -11 -28 -27s12 -28 28 -28c17 0 27 12 27 28
s-11 27 -27 27z" />
    <glyph glyph-name="uni261E" unicode="&#x261e;" horiz-adv-x="1061" 
d="M278 51v370l292 215s69 -72 -6 -144l-74 -71h450c42 0 61 -20 61 -50s-19 -50 -58 -50h-229v-36c0 -38 -16 -54 -54 -54v-36c0 -38 -16 -54 -54 -54v-34c0 -40 -16 -56 -51 -56h-277zM60 421h164v-370h-164v370zM169 131c0 16 -11 28 -27 28s-28 -12 -28 -28
c0 -17 12 -27 28 -27s27 11 27 27z" />
    <glyph glyph-name="uni26F3" unicode="&#x26f3;" horiz-adv-x="674" 
d="M60 513c0 153 124 277 277 277s277 -124 277 -277c0 -54 -17 -113 -82 -216l-195 -307l-197 309c-64 102 -80 160 -80 214zM226 513c0 -61 50 -110 111 -110s110 49 110 110c0 62 -49 110 -110 110s-111 -48 -111 -110z" />
    <glyph glyph-name="uni2709" unicode="&#x2709;" horiz-adv-x="1236" 
d="M60 578h1116v-60l-558 -334l-558 334v60zM60 481l338 -201l-338 -243v444zM1176 0h-1116l366 263l192 -114l192 114zM838 280l338 201v-444z" />
    <glyph glyph-name="uniF040" unicode="&#xf040;" horiz-adv-x="3054" 
d="M1629 444l113 -113h1312v-100h-1310l-115 -115l-51 50l114 114l-114 114zM0 231v100h1312l113 113l51 -50l-114 -114l114 -114l-51 -50l-115 115h-1310z" />
    <glyph glyph-name="uniF041" unicode="&#xf041;" horiz-adv-x="2855" 
d="M1558 432l74 -43l-34 -58h1257v-100h-1314l-58 -100l-74 42zM1372 432l74 -43l-149 -258l-74 42l33 58h-1256v100h1314z" />
    <glyph glyph-name="uniF042" unicode="&#xf042;" horiz-adv-x="2825" 
d="M1449 231v100h1376v-100h-1376zM1256 331v-100h-1256v100h1256z" />
    <glyph glyph-name="uniF043" unicode="&#xf043;" horiz-adv-x="705" 
d="M275 -28h370v277c0 35 -16 51 -56 51h-34c0 38 -16 54 -54 54h-36c0 38 -16 54 -54 54h-36v229c0 39 -20 58 -50 58s-50 -19 -50 -61v-450l-71 74c-72 75 -144 6 -144 6zM275 -82v-161h370v161h-370zM565 -135c16 0 27 -11 27 -27s-10 -28 -27 -28c-16 0 -28 12 -28 28
s12 27 28 27zM83 660h158v-55h-158v55zM409 660h158v-55h-158v55zM297 725v158h55v-158h-55z" />
    <glyph glyph-name="uniF044" unicode="&#xf044;" horiz-adv-x="931" 
d="M177 126l324 -154h370v277c0 35 -16 51 -56 51h-34c0 38 -16 54 -54 54h-36c0 38 -16 54 -54 54h-36v229c0 39 -20 58 -50 58s-50 -19 -50 -61v-478l-201 45c-101 23 -123 -75 -123 -75zM501 -82v-161h370v161h-370zM553 814h158v-158h-55v103h-103v55zM218 15h-158v158
h55v-103h103v-55zM791 -135c16 0 27 -11 27 -27s-10 -28 -27 -28c-16 0 -28 12 -28 28s12 27 28 27z" />
    <glyph glyph-name="uniF045" unicode="&#xf045;" horiz-adv-x="903" 
d="M370 665h503v-55h-498v-202h36c38 0 54 -16 54 -54h36c38 0 54 -16 54 -54h34c40 0 56 -16 56 -51v-277h-370l-215 292s72 69 144 -6l71 -74v450c0 42 20 61 50 61c21 0 38 -10 45 -30zM275 -243v161h370v-161h-370zM87 637l112 112l39 -39l-73 -73l73 -73l-39 -39z
M565 -135c-16 0 -28 -11 -28 -27s12 -28 28 -28c17 0 27 12 27 28s-11 27 -27 27z" />
    <glyph glyph-name="uniF046" unicode="&#xf046;" horiz-adv-x="952" 
d="M892 -28h-370l-215 292s72 69 144 -6l71 -74v426h-492v55h497c7 20 24 30 45 30c30 0 50 -19 50 -58v-229h36c38 0 54 -16 54 -54h36c38 0 54 -16 54 -54h34c40 0 56 -16 56 -51v-277zM522 -243v161h370v-161h-370zM816 637l-112 -112l-39 39l73 73l-73 73l39 39z
M812 -135c-16 0 -28 -11 -28 -27s12 -28 28 -28c17 0 27 12 27 28s-11 27 -27 27z" />
    <glyph glyph-name="uniF047" unicode="&#xf047;" horiz-adv-x="1010" 
d="M866 510v-634h-55v603l-137 -79l17 -31c19 -33 14 -55 -19 -73l18 -32c19 -33 13 -54 -20 -73l17 -30c20 -35 14 -56 -17 -74c-40 -24 -239 -139 -239 -139l-185 321l145 332s96 -28 67 -128l-29 -99l391 226c37 21 62 13 78 -13c15 -26 8 -53 -26 -73zM60 162l140 81
l184 -321l-139 -81zM726 690l112 112l112 -112l-39 -39l-73 73l-73 -73zM276 -20c-16 0 -28 -11 -28 -27s12 -28 28 -28c17 0 27 12 27 28s-11 27 -27 27z" />
    <glyph glyph-name="uniF048" unicode="&#xf048;" horiz-adv-x="1145" 
d="M245 137l186 321l360 40s24 -97 -77 -122l-100 -24l332 -192v603h55v-635l4 -2c36 -21 42 -47 27 -74c-15 -26 -42 -33 -76 -14l-198 115l-18 -30c-19 -33 -41 -40 -73 -21l-18 -31c-19 -33 -41 -38 -74 -19l-17 -30c-20 -35 -42 -40 -73 -22c-40 22 -240 137 -240 137z
M245 565l140 -80l-186 -320l-139 80zM973 -163l-112 112l39 39l73 -73l73 73l39 -39zM172 301c-16 0 -28 -11 -28 -27s12 -28 28 -28c17 0 27 12 27 28s-11 27 -27 27z" />
    <glyph glyph-name="uniF400" unicode="&#xf400;" horiz-adv-x="0" 
d="M-291 567l70 158h122l-91 -158h-101z" />
    <glyph glyph-name="uniF401" unicode="&#xf401;" horiz-adv-x="0" 
d="M-360 744l80 129h126l-103 -129h-103z" />
    <glyph glyph-name="uniF406" unicode="&#xf406;" horiz-adv-x="512" 
d="M347 879h97c0 -100 -78 -152 -188 -152s-189 52 -189 152h97c6 -36 29 -63 92 -63s86 27 91 63z" />
    <glyph glyph-name="uniF407" unicode="&#xf407;" horiz-adv-x="411" 
d="M150 -71l19 96l71 -3l-12 -44c35 -13 56 -37 56 -74c0 -54 -49 -83 -115 -83c-18 0 -34 1 -42 3l14 59c6 -1 11 -1 19 -1c20 0 39 5 39 24s-23 23 -49 23z" />
    <glyph glyph-name="uniF408" unicode="&#xf408;" horiz-adv-x="512" 
d="M206 880h100l138 -142h-117l-71 75l-71 -75h-117z" />
    <glyph glyph-name="uniF409" unicode="&#xf409;" horiz-adv-x="383" 
d="M250 -57v-114l-118 -102v216h118z" />
    <glyph glyph-name="uniF40A" unicode="&#xf40a;" horiz-adv-x="185" 
d="M172 690v-144l-118 -101v245h118z" />
    <glyph glyph-name="uniF40B" unicode="&#xf40b;" horiz-adv-x="383" 
d="M132 768v101h118v-101h-118z" />
    <glyph glyph-name="uniF40C" unicode="&#xf40c;" horiz-adv-x="438" 
d="M105 800c0 61 49 99 113 99c65 0 114 -38 114 -99c0 -60 -49 -98 -114 -98c-64 0 -113 38 -113 98zM172 800c0 -25 20 -38 46 -38c27 0 46 13 46 38c0 26 -19 38 -46 38c-26 0 -46 -12 -46 -38z" />
    <glyph glyph-name="uniF40D" unicode="&#xf40d;" horiz-adv-x="495" 
d="M308 744c-48 0 -79 28 -117 28c-20 0 -40 -10 -55 -26l-59 60c29 34 70 56 113 56c44 0 77 -28 116 -28c19 0 38 9 54 26l58 -60c-28 -34 -69 -56 -110 -56z" />
    <glyph glyph-name="uniF40E" unicode="&#xf40e;" horiz-adv-x="409" 
d="M236 46l30 -46c-34 -25 -54 -42 -54 -64c0 -20 16 -25 35 -25c7 0 14 1 20 2l14 -59c-8 -3 -25 -4 -47 -4c-49 0 -107 19 -107 76c0 52 42 87 109 120z" />
    <glyph glyph-name="dollar.fitted" unicode="&#xf5f5;" horiz-adv-x="573" 
d="M523 586l-88 -63c-27 36 -55 61 -102 71v-202c131 -30 199 -83 199 -203c0 -95 -58 -182 -195 -196v-109h-98v111c-88 10 -153 45 -200 109l91 63c32 -38 64 -62 113 -71l1 6v202c-120 30 -187 93 -187 204c0 93 54 172 182 188v116h98v-116c84 -10 145 -46 186 -110z
M416 184c0 42 -19 72 -83 96v-185c62 11 83 47 83 89zM173 508c0 -46 24 -72 71 -91v176c-46 -10 -71 -40 -71 -85z" />
    <glyph glyph-name="Euro.fitted" unicode="&#xf5f6;" horiz-adv-x="628" 
d="M7 313h82v60h-82v97h88c23 159 119 229 252 229c137 0 228 -73 251 -223h-112c-18 84 -63 122 -139 122c-73 0 -120 -38 -136 -128h169v-97h-175v-60h175v-97h-168c17 -86 63 -124 135 -124c79 0 121 38 139 122h111c-23 -155 -113 -223 -250 -223
c-132 0 -227 68 -252 225h-88v97z" />
    <glyph glyph-name="cent.fitted" unicode="&#xf5f7;" horiz-adv-x="445" 
d="M353 134l81 -57c-27 -47 -70 -73 -131 -81v-112h-96v113c-110 18 -171 102 -171 222v64c0 125 61 202 171 220v119h96v-118c56 -9 103 -36 131 -78l-82 -57c-19 28 -51 46 -94 46c-78 0 -116 -50 -116 -137v-54c0 -79 28 -139 116 -139c42 0 76 14 95 49z" />
    <glyph glyph-name="sterling.fitted" unicode="&#xf5f8;" horiz-adv-x="520" 
d="M25 0v100h72v195h-72v101h72v22c0 204 88 281 215 281c82 0 146 -29 189 -96l-96 -55c-20 27 -48 50 -90 50c-66 0 -102 -45 -102 -180v-22h142v-101h-142v-195h268v-100h-456z" />
    <glyph glyph-name="yen.fitted" unicode="&#xf5f9;" horiz-adv-x="578" 
d="M89 228h142v60h-142v97h90l-163 305h135l138 -276l139 276h134l-163 -305h90v-97h-142v-60h142v-97h-142v-131h-116v131h-142v97z" />
    <glyph glyph-name="florin.fitted" unicode="&#xf5fa;" horiz-adv-x="316" 
d="M32 500h64v31c0 118 48 159 168 159h30v-101h-20c-56 0 -65 -24 -65 -79v-10h85v-101h-85v-430c0 -117 -58 -159 -188 -159v101c66 0 75 31 75 81v407h-64v101z" />
    <glyph glyph-name="uni20B4.fitted" unicode="&#xf5fb;" horiz-adv-x="590" 
d="M39 227v94h512v-94h-346c-7 -13 -9 -27 -9 -43c0 -50 29 -92 109 -92c61 0 89 26 130 75l90 -62c-62 -78 -117 -114 -226 -114c-152 0 -219 95 -219 194c0 15 1 29 4 42h-45zM39 370v95h344c6 12 10 26 10 43c0 58 -36 90 -97 90c-58 0 -87 -27 -120 -75l-87 63
c48 73 116 113 206 113c150 0 214 -87 214 -187c0 -17 -3 -33 -7 -47h49v-95h-512z" />
    <glyph glyph-name="uni20BD.fitted" unicode="&#xf5fc;" horiz-adv-x="522" 
d="M9 252v100h86v338h169c159 0 255 -76 255 -218c0 -140 -95 -220 -255 -220h-53v-45h116v-100h-116v-107h-116v107h-86v100h86v45h-86zM211 352h42c106 0 150 41 150 120c0 75 -44 117 -150 117h-42v-237z" />
    <glyph glyph-name="uni20B8.fitted" unicode="&#xf5fd;" horiz-adv-x="527" 
d="M7 540h513v-101h-198v-439h-116v439h-199v101zM7 690h513v-101h-513v101z" />
    <glyph glyph-name="currency.fitted" unicode="&#xf5fe;" horiz-adv-x="557" 
d="M79 366c0 36 9 71 26 100l-73 74l72 72l72 -73c30 18 65 28 102 28s71 -10 101 -28l74 74l72 -72l-74 -74c18 -30 28 -64 28 -101s-10 -72 -28 -102l74 -73l-72 -72l-74 74c-30 -17 -64 -27 -101 -27s-72 10 -101 27l-73 -73l-72 72l73 73c-17 30 -26 64 -26 101z
M177 366c0 -58 44 -105 101 -105c59 0 103 47 103 105s-44 106 -103 106c-57 0 -101 -48 -101 -106z" />
    <glyph glyph-name="uniF639" unicode="&#xf639;" horiz-adv-x="546" 
d="M490 202c0 -143 -102 -211 -217 -211s-217 68 -217 211v285c0 147 102 212 217 212s217 -65 217 -211v-286zM374 481c0 74 -39 117 -101 117c-63 0 -102 -43 -102 -117v-272c0 -74 39 -117 102 -117c62 0 101 43 101 117v272z" />
    <glyph glyph-name="uniF63A" unicode="&#xf63a;" horiz-adv-x="507" 
d="M452 100v-100h-417v82l237 278c45 52 70 97 70 145c0 63 -47 95 -98 95c-54 0 -95 -33 -98 -95h-106c0 117 94 194 208 194c118 0 209 -80 209 -196c0 -87 -60 -155 -104 -208l-163 -195h262z" />
    <glyph glyph-name="uniF63B" unicode="&#xf63b;" horiz-adv-x="502" 
d="M181 306v100h48c72 0 111 38 111 103c0 50 -39 91 -98 91c-56 0 -93 -37 -98 -85h-106c3 111 97 184 208 184c121 0 209 -83 209 -187c0 -75 -44 -127 -98 -154c63 -28 108 -82 108 -167c0 -109 -78 -200 -211 -200c-140 0 -219 80 -225 189h106c8 -50 43 -88 114 -88
c60 0 101 44 101 102c0 70 -41 112 -121 112h-48z" />
    <glyph glyph-name="uniF63C" unicode="&#xf63c;" horiz-adv-x="525" 
d="M255 690h123l-221 -485h162v188h116v-188h63v-101h-63v-104h-116v104h-303v82z" />
    <glyph glyph-name="uniF63D" unicode="&#xf63d;" horiz-adv-x="508" 
d="M256 367c-41 0 -67 -22 -84 -51h-105v374h374v-109h-261v-146c21 21 53 40 106 40c115 0 182 -89 182 -249c0 -151 -72 -235 -210 -235c-112 0 -200 70 -210 180h114c12 -50 44 -79 94 -79c59 0 96 39 96 130c0 95 -28 145 -96 145z" />
    <glyph glyph-name="uniF63E" unicode="&#xf63e;" horiz-adv-x="507" 
d="M359 690l-140 -293c20 10 44 13 66 13c108 0 186 -87 186 -204c0 -139 -93 -215 -217 -215c-123 0 -218 75 -218 213c0 51 25 113 56 181l141 305h126zM152 203c0 -67 38 -111 102 -111c63 0 101 44 101 111c0 66 -38 111 -101 111c-64 0 -102 -45 -102 -111z" />
    <glyph glyph-name="uniF63F" unicode="&#xf63f;" horiz-adv-x="441" 
d="M118 476h-100v214h406v-89l-207 -601h-121l208 589h-186v-113z" />
    <glyph glyph-name="uniF640" unicode="&#xf640;" horiz-adv-x="518" 
d="M36 193c0 78 50 141 104 165c-55 28 -94 86 -94 151c0 119 102 190 213 190c112 0 213 -71 213 -190c0 -65 -39 -123 -94 -151c56 -24 104 -87 104 -165c0 -126 -104 -202 -223 -202s-223 76 -223 202zM152 200c0 -60 45 -109 107 -109c60 0 108 49 108 109
c0 67 -57 108 -108 108c-53 0 -107 -41 -107 -108zM161 501c0 -55 43 -99 98 -99c54 0 98 44 98 99c0 54 -44 97 -98 97c-55 0 -98 -43 -98 -97z" />
    <glyph glyph-name="uniF641" unicode="&#xf641;" horiz-adv-x="507" 
d="M149 0l139 293c-20 -11 -44 -14 -66 -14c-108 0 -186 87 -186 205c0 139 94 215 217 215c124 0 218 -75 218 -213c0 -51 -25 -113 -56 -181l-140 -305h-126zM355 487c0 67 -37 111 -102 111c-63 0 -101 -44 -101 -111c0 -66 38 -111 101 -111c65 0 102 45 102 111z" />
    <glyph glyph-name="uniF6BA" unicode="&#xf6ba;" horiz-adv-x="319" 
d="M30 298v94h259v-94h-259z" />
    <glyph glyph-name="uniF6BB" unicode="&#xf6bb;" horiz-adv-x="509" 
d="M60 295v100h389v-100h-389z" />
    <glyph glyph-name="uniF6BC" unicode="&#xf6bc;" horiz-adv-x="694" 
d="M20 295v100h654v-100h-654z" />
    <glyph glyph-name="uniF6C3" unicode="&#xf6c3;" horiz-adv-x="323" 
d="M221 -57v-114l-119 -102v216h119z" />
    <glyph glyph-name="uniF6C9" unicode="&#xf6c9;" horiz-adv-x="406" 
d="M100 744l80 129h126l-103 -129h-103z" />
    <glyph glyph-name="uniF6CA" unicode="&#xf6ca;" horiz-adv-x="512" 
d="M306 738h-100l-138 142h117l71 -75l71 75h117z" />
    <glyph glyph-name="uniF6CB" unicode="&#xf6cb;" horiz-adv-x="482" 
d="M83 764v105h108v-105h-108zM289 764v105h109v-105h-109z" />
    <glyph glyph-name="uniF6CE" unicode="&#xf6ce;" horiz-adv-x="389" 
d="M218 873l80 -129h-104l-103 129h127z" />
    <glyph glyph-name="uniF6CF" unicode="&#xf6cf;" horiz-adv-x="572" 
d="M83 744l80 129h127l-103 -129h-104zM272 744l90 129h126l-113 -129h-103z" />
    <glyph glyph-name="uniF6D0" unicode="&#xf6d0;" horiz-adv-x="483" 
d="M83 755v94h317v-94h-317z" />
    <glyph glyph-name="uniF6D1" unicode="&#xf6d1;" horiz-adv-x="472" 
d="M312 879h107c0 -100 -62 -147 -183 -147s-184 47 -184 147h108c0 -39 15 -70 76 -70s76 31 76 70z" />
    <glyph glyph-name="uniF6D4" unicode="&#xf6d4;" horiz-adv-x="412" 
d="M263 690h89c0 -87 -58 -124 -146 -124s-147 37 -147 124h90c0 -35 15 -58 57 -58s57 23 57 58z" />
    <glyph glyph-name="uniF6DC" unicode="&#xf6dc;" horiz-adv-x="325" 
d="M250 690v-690h-116v565l-99 -68v117l106 76h109z" />
    <glyph glyph-name="uniFEFF" unicode="&#xfeff;" horiz-adv-x="0" 
 />
    <glyph glyph-name="uniF4D3" unicode="&#x1f4d3;" horiz-adv-x="752" 
d="M60 60v815c0 34 27 61 61 61h510c33 0 61 -27 61 -61v-815c0 -33 -28 -60 -61 -60h-510c-34 0 -61 27 -61 60zM334 66c0 -23 18 -41 42 -41c22 0 41 18 41 41s-19 41 -41 41c-24 0 -42 -18 -42 -41zM648 823h-544v-691h544v691zM357 879c0 -10 8 -18 18 -18s18 8 18 18
s-8 17 -18 17s-18 -7 -18 -17z" />
    <glyph glyph-name="uniF4F1" unicode="&#x1f4f1;" horiz-adv-x="552" 
d="M60 60v715c0 34 27 61 61 61h310c33 0 61 -27 61 -61v-715c0 -33 -28 -60 -61 -60h-310c-34 0 -61 27 -61 60zM234 66c0 -23 18 -41 42 -41c22 0 41 18 41 41s-19 41 -41 41c-24 0 -42 -18 -42 -41zM448 723h-344v-591h344v591zM323 790h-94c-7 0 -11 -6 -11 -12
s3 -12 11 -12h94c8 0 11 6 11 12s-4 12 -11 12z" />
    <glyph glyph-name="uni2197.ss02" horiz-adv-x="667" 
d="M607 0h-78v367l-414 -414l-55 55l414 414h-367v78h500v-500z" />
    <glyph glyph-name="uni2199.ss02" horiz-adv-x="667" 
d="M60 500h78v-367l414 414l55 -55l-414 -414h367v-78h-500v500z" />
    <glyph glyph-name="a.ss01" 
d="M36 217v68c0 144 78 224 199 224c54 0 93 -16 120 -44v35h106v-500h-106v34c-27 -28 -67 -43 -120 -43c-133 0 -199 95 -199 226zM249 83c76 0 106 55 106 127v76c0 82 -37 130 -106 130c-72 0 -107 -49 -107 -136v-58c0 -78 30 -139 107 -139z" />
    <glyph glyph-name="uni2198.ss02" horiz-adv-x="667" 
d="M529 500h78v-500h-500v78h367l-414 414l55 55l414 -414v367z" />
    <glyph glyph-name="afii10069.ss01" 
d="M461 466v-247c0 -133 -65 -228 -212 -228c-140 0 -213 90 -213 228v63c0 147 78 227 208 227c49 0 84 -12 111 -32c-1 88 -42 130 -115 130c-40 0 -76 -15 -111 -39l-52 69c41 37 106 62 170 62c142 0 214 -81 214 -233zM249 83c76 0 106 61 106 139v58
c0 87 -35 136 -106 136c-72 0 -107 -50 -107 -136v-58c0 -78 26 -139 107 -139z" />
    <glyph glyph-name="afii10074.ss01" horiz-adv-x="526" 
d="M468 500v-500h-105v45c-23 -36 -53 -54 -123 -54c-103 0 -183 53 -183 197v312h107v-301c0 -89 40 -114 96 -114c66 0 102 44 102 113v302h106z" />
    <glyph glyph-name="afii10075.ss01" horiz-adv-x="526" 
d="M468 500v-500h-105v45c-23 -36 -53 -54 -123 -54c-103 0 -183 53 -183 197v312h107v-301c0 -89 40 -114 96 -114c66 0 102 44 102 113v302h106zM320 690h89c0 -87 -58 -124 -146 -124s-147 37 -147 124h90c0 -35 15 -58 57 -58s57 23 57 58z" />
    <glyph glyph-name="afii10081.ss01" horiz-adv-x="526" 
d="M57 0v500h105v-45c22 30 58 54 124 54c103 0 182 -52 182 -196v-313h-106v301c0 88 -40 113 -95 113c-66 0 -103 -45 -103 -112v-302h-107z" />
    <glyph glyph-name="afii10084.ss01" horiz-adv-x="798" 
d="M57 0v500h105v-45c20 30 58 54 117 54c63 0 113 -25 143 -72c33 45 84 72 146 72c108 0 173 -66 173 -196v-313h-107v301c0 82 -34 113 -89 113c-53 0 -91 -40 -93 -107v-307h-106v301c0 85 -37 113 -88 113c-55 0 -94 -42 -94 -112v-302h-107z" />
    <glyph glyph-name="uni2193.ss02" horiz-adv-x="826" 
d="M60 246l55 55l259 -259v586h78v-586l259 259l55 -55l-353 -353z" />
    <glyph glyph-name="uni2196.ss02" horiz-adv-x="667" 
d="M138 0h-78v500h500v-78h-367l414 -414l-55 -55l-414 414v-367z" />
    <glyph glyph-name="uni261E.ss02" horiz-adv-x="1061" 
d="M278 51v370l292 215s69 -72 -6 -144l-74 -71h450c42 0 61 -20 61 -50s-19 -50 -58 -50h-229v-36c0 -38 -16 -54 -54 -54v-36c0 -38 -16 -54 -54 -54v-34c0 -40 -16 -56 -51 -56h-277zM60 421h164v-370h-164v370zM86 396v-319h20v319h-20zM198 77v319h-20v-319h20z
M132 396v-222h20v222h-20zM132 112v-35h20v35h-20z" />
    <glyph glyph-name="uni2191.ss02" horiz-adv-x="826" 
d="M766 276l-55 -55l-259 259v-586h-78v586l-259 -259l-55 55l353 353z" />
    <glyph glyph-name="uni2192.ss02" horiz-adv-x="855" 
d="M442 -92l-55 55l259 259h-586v78h586l-259 259l55 55l353 -353z" />
    <glyph glyph-name="acircumflex.ss01" 
d="M36 217v68c0 144 78 224 199 224c54 0 93 -16 120 -44v35h106v-500h-106v34c-27 -28 -67 -43 -120 -43c-133 0 -199 95 -199 226zM249 83c76 0 106 55 106 127v76c0 82 -37 130 -106 130c-72 0 -107 -49 -107 -136v-58c0 -78 30 -139 107 -139zM205 700h100l108 -142
h-102l-56 77l-56 -77h-102z" />
    <glyph glyph-name="atilde.ss01" 
d="M36 217v68c0 144 78 224 199 224c54 0 93 -16 120 -44v35h106v-500h-106v34c-27 -28 -67 -43 -120 -43c-133 0 -199 95 -199 226zM249 83c76 0 106 55 106 127v76c0 82 -37 130 -106 130c-72 0 -107 -49 -107 -136v-58c0 -78 30 -139 107 -139zM319 572
c-48 0 -79 28 -116 28c-21 0 -40 -10 -56 -27l-58 59c28 34 69 56 112 56c45 0 77 -29 117 -29c18 0 37 10 53 27l58 -58c-27 -34 -68 -56 -110 -56z" />
    <glyph glyph-name="adieresis.ss01" 
d="M36 217v68c0 144 78 224 199 224c54 0 93 -16 120 -44v35h106v-500h-106v34c-27 -28 -67 -43 -120 -43c-133 0 -199 95 -199 226zM249 83c76 0 106 55 106 127v76c0 82 -37 130 -106 130c-72 0 -107 -49 -107 -136v-58c0 -78 30 -139 107 -139zM101 585v105h109v-105
h-109zM308 585v105h108v-105h-108z" />
    <glyph glyph-name="aring.ss01" 
d="M36 217v68c0 144 78 224 199 224c54 0 93 -16 120 -44v35h106v-500h-106v34c-27 -28 -67 -43 -120 -43c-133 0 -199 95 -199 226zM249 83c76 0 106 55 106 127v76c0 82 -37 130 -106 130c-72 0 -107 -49 -107 -136v-58c0 -78 30 -139 107 -139zM140 646
c0 62 49 110 117 110s117 -48 117 -110s-49 -109 -117 -109s-117 47 -117 109zM211 646c0 -29 19 -50 46 -50s46 21 46 50c0 30 -19 49 -46 49s-46 -19 -46 -49z" />
    <glyph glyph-name="egrave.ss01" horiz-adv-x="487" 
d="M354 132l80 -56c-35 -61 -91 -85 -179 -85c-143 0 -219 93 -219 226v68c0 147 78 224 209 224c137 0 196 -69 196 -156c0 -84 -60 -146 -196 -146h-103c4 -71 35 -124 109 -124c59 0 83 18 103 49zM245 416c-67 0 -102 -48 -103 -125h103c60 0 90 19 90 62s-29 63 -90 63
zM257 725l70 -158h-101l-91 158h122z" />
    <glyph glyph-name="eacute.ss01" horiz-adv-x="487" 
d="M354 132l80 -56c-35 -61 -91 -85 -179 -85c-143 0 -219 93 -219 226v68c0 147 78 224 209 224c137 0 196 -69 196 -156c0 -84 -60 -146 -196 -146h-103c4 -71 35 -124 109 -124c59 0 83 18 103 49zM245 416c-67 0 -102 -48 -103 -125h103c60 0 90 19 90 62s-29 63 -90 63
zM187 567l70 158h122l-91 -158h-101z" />
    <glyph glyph-name="ecircumflex.ss01" horiz-adv-x="487" 
d="M354 132l80 -56c-35 -61 -91 -85 -179 -85c-143 0 -219 93 -219 226v68c0 147 78 224 209 224c137 0 196 -69 196 -156c0 -84 -60 -146 -196 -146h-103c4 -71 35 -124 109 -124c59 0 83 18 103 49zM245 416c-67 0 -102 -48 -103 -125h103c60 0 90 19 90 62s-29 63 -90 63
zM202 700h100l108 -142h-102l-56 77l-56 -77h-102z" />
    <glyph glyph-name="edieresis.ss01" horiz-adv-x="487" 
d="M354 132l80 -56c-35 -61 -91 -85 -179 -85c-143 0 -219 93 -219 226v68c0 147 78 224 209 224c137 0 196 -69 196 -156c0 -84 -60 -146 -196 -146h-103c4 -71 35 -124 109 -124c59 0 83 18 103 49zM245 416c-67 0 -102 -48 -103 -125h103c60 0 90 19 90 62s-29 63 -90 63
zM92 585v105h109v-105h-109zM299 585v105h108v-105h-108z" />
    <glyph glyph-name="afii10065.ss01" 
d="M36 217v68c0 144 78 224 199 224c54 0 93 -16 120 -44v35h106v-500h-106v34c-27 -28 -67 -43 -120 -43c-133 0 -199 95 -199 226zM249 83c76 0 106 55 106 127v76c0 82 -37 130 -106 130c-72 0 -107 -49 -107 -136v-58c0 -78 30 -139 107 -139z" />
    <glyph glyph-name="afii10070.ss01" horiz-adv-x="487" 
d="M354 132l80 -56c-35 -61 -91 -85 -179 -85c-143 0 -219 93 -219 226v68c0 147 78 224 209 224c137 0 196 -69 196 -156c0 -84 -60 -146 -196 -146h-103c4 -71 35 -124 109 -124c59 0 83 18 103 49zM245 416c-67 0 -102 -48 -103 -125h103c60 0 90 19 90 62s-29 63 -90 63
z" />
    <glyph glyph-name="afii10071.ss01" horiz-adv-x="487" 
d="M354 132l80 -56c-35 -61 -91 -85 -179 -85c-143 0 -219 93 -219 226v68c0 147 78 224 209 224c137 0 196 -69 196 -156c0 -84 -60 -146 -196 -146h-103c4 -71 35 -124 109 -124c59 0 83 18 103 49zM245 416c-67 0 -102 -48 -103 -125h103c60 0 90 19 90 62s-29 63 -90 63
zM92 585v105h109v-105h-109zM299 585v105h108v-105h-108z" />
    <glyph glyph-name="aogonek.ss01" 
d="M461 500v-500c-34 -25 -54 -42 -54 -64c0 -20 16 -25 35 -25c7 0 14 1 20 2l14 -59c-8 -3 -25 -4 -47 -4c-49 0 -107 19 -107 76c0 29 16 55 33 69v39c-27 -28 -67 -43 -120 -43c-133 0 -199 95 -199 226v68c0 144 78 224 199 224c54 0 93 -16 120 -44v35h106zM249 83
c76 0 106 55 106 127v76c0 82 -37 130 -106 130c-72 0 -107 -49 -107 -136v-58c0 -78 30 -139 107 -139z" />
    <glyph glyph-name="abreve.ss01" 
d="M36 217v68c0 144 78 224 199 224c54 0 93 -16 120 -44v35h106v-500h-106v34c-27 -28 -67 -43 -120 -43c-133 0 -199 95 -199 226zM249 83c76 0 106 55 106 127v76c0 82 -37 130 -106 130c-72 0 -107 -49 -107 -136v-58c0 -78 30 -139 107 -139zM330 690h80
c-3 -82 -55 -126 -143 -126s-141 44 -144 126h81c4 -35 20 -56 63 -56s59 21 63 56z" />
    <glyph glyph-name="eogonek.ss01" horiz-adv-x="487" 
d="M354 132l80 -56c-24 -41 -56 -65 -101 -76c-34 -25 -54 -42 -54 -64c0 -20 16 -25 35 -25c7 0 14 1 20 2l14 -59c-8 -3 -25 -4 -47 -4c-49 0 -107 19 -107 76c0 26 10 48 28 67c-122 12 -186 101 -186 224v68c0 147 78 224 209 224c137 0 196 -69 196 -156
c0 -84 -60 -146 -196 -146h-103c4 -71 35 -124 109 -124c59 0 83 18 103 49zM245 416c-67 0 -102 -48 -103 -125h103c60 0 90 19 90 62s-29 63 -90 63z" />
    <glyph glyph-name="ecaron.ss01" horiz-adv-x="487" 
d="M354 132l80 -56c-35 -61 -91 -85 -179 -85c-143 0 -219 93 -219 226v68c0 147 78 224 209 224c137 0 196 -69 196 -156c0 -84 -60 -146 -196 -146h-103c4 -71 35 -124 109 -124c59 0 83 18 103 49zM245 416c-67 0 -102 -48 -103 -125h103c60 0 90 19 90 62s-29 63 -90 63
zM297 558h-100l-108 142h102l56 -77l56 77h102z" />
    <glyph glyph-name="amacron.ss01" 
d="M36 217v68c0 144 78 224 199 224c54 0 93 -16 120 -44v35h106v-500h-106v34c-27 -28 -67 -43 -120 -43c-133 0 -199 95 -199 226zM249 83c76 0 106 55 106 127v76c0 82 -37 130 -106 130c-72 0 -107 -49 -107 -136v-58c0 -78 30 -139 107 -139zM122 585v94h277v-94h-277z
" />
    <glyph glyph-name="emacron.ss01" horiz-adv-x="487" 
d="M354 132l80 -56c-35 -61 -91 -85 -179 -85c-143 0 -219 93 -219 226v68c0 147 78 224 209 224c137 0 196 -69 196 -156c0 -84 -60 -146 -196 -146h-103c4 -71 35 -124 109 -124c59 0 83 18 103 49zM245 416c-67 0 -102 -48 -103 -125h103c60 0 90 19 90 62s-29 63 -90 63
zM107 585v94h277v-94h-277z" />
    <glyph glyph-name="edotaccent.ss01" horiz-adv-x="487" 
d="M354 132l80 -56c-35 -61 -91 -85 -179 -85c-143 0 -219 93 -219 226v68c0 147 78 224 209 224c137 0 196 -69 196 -156c0 -84 -60 -146 -196 -146h-103c4 -71 35 -124 109 -124c59 0 83 18 103 49zM245 416c-67 0 -102 -48 -103 -125h103c60 0 90 19 90 62s-29 63 -90 63
zM190 581v109h116v-109h-116z" />
    <glyph glyph-name="afii10065.var.accented.ss01" 
d="M36 217v68c0 144 78 224 199 224c54 0 93 -16 120 -44v35h106v-500h-106v34c-27 -28 -67 -43 -120 -43c-133 0 -199 95 -199 226zM249 83c76 0 106 55 106 127v76c0 82 -37 130 -106 130c-72 0 -107 -49 -107 -136v-58c0 -78 30 -139 107 -139zM198 567l70 158h122
l-91 -158h-101z" />
    <glyph glyph-name="afii10070.var.accented.ss01" horiz-adv-x="487" 
d="M354 132l80 -56c-35 -61 -91 -85 -179 -85c-143 0 -219 93 -219 226v68c0 147 78 224 209 224c137 0 196 -69 196 -156c0 -84 -60 -146 -196 -146h-103c4 -71 35 -124 109 -124c59 0 83 18 103 49zM245 416c-67 0 -102 -48 -103 -125h103c60 0 90 19 90 62s-29 63 -90 63
zM187 567l70 158h122l-91 -158h-101z" />
    <glyph glyph-name="afii10074.var.accented.ss01" horiz-adv-x="526" 
d="M468 500v-500h-105v45c-23 -36 -53 -54 -123 -54c-103 0 -183 53 -183 197v312h107v-301c0 -89 40 -114 96 -114c66 0 102 44 102 113v302h106zM206 567l70 158h122l-91 -158h-101z" />
    <glyph glyph-name="afii10071.var.accented.ss01" horiz-adv-x="487" 
d="M354 132l80 -56c-35 -61 -91 -85 -179 -85c-143 0 -219 93 -219 226v68c0 147 78 224 209 224c137 0 196 -69 196 -156c0 -84 -60 -146 -196 -146h-103c4 -71 35 -124 109 -124c59 0 83 18 103 49zM245 416c-67 0 -102 -48 -103 -125h103c60 0 90 19 90 62s-29 63 -90 63
zM181 717l70 158h122l-91 -158h-101zM78 585v105h109v-105h-109zM285 585v105h108v-105h-108z" />
    <glyph glyph-name="uni04E3.ss01" horiz-adv-x="526" 
d="M468 500v-500h-105v45c-23 -36 -53 -54 -123 -54c-103 0 -183 53 -183 197v312h107v-301c0 -89 40 -114 96 -114c66 0 102 44 102 113v302h106zM125 585v94h277v-94h-277z" />
    <glyph glyph-name="afii10193.ss01" horiz-adv-x="526" 
d="M468 500v-500h-105v45c-18 -28 -39 -45 -79 -51v-111h-88v112c-81 13 -139 70 -139 193v312h107v-301c0 -89 40 -114 96 -114c66 0 102 44 102 113v302h106z" />
    <glyph glyph-name="uni2190.ss02" horiz-adv-x="855" 
d="M468 -37l-55 -55l-353 353l353 353l55 -55l-259 -259h586v-78h-586z" />
    <glyph glyph-name="aacute.ss01" 
d="M36 217v68c0 144 78 224 199 224c54 0 93 -16 120 -44v35h106v-500h-106v34c-27 -28 -67 -43 -120 -43c-133 0 -199 95 -199 226zM249 83c76 0 106 55 106 127v76c0 82 -37 130 -106 130c-72 0 -107 -49 -107 -136v-58c0 -78 30 -139 107 -139zM198 567l70 158h122
l-91 -158h-101z" />
    <glyph glyph-name="agrave.ss01" 
d="M36 217v68c0 144 78 224 199 224c54 0 93 -16 120 -44v35h106v-500h-106v34c-27 -28 -67 -43 -120 -43c-133 0 -199 95 -199 226zM249 83c76 0 106 55 106 127v76c0 82 -37 130 -106 130c-72 0 -107 -49 -107 -136v-58c0 -78 30 -139 107 -139zM267 725l70 -158h-101
l-91 158h122z" />
    <glyph glyph-name="afii10091.ss01" horiz-adv-x="806" 
d="M721 500v-408h67v-209h-100v117h-72v45c-22 -31 -51 -54 -111 -54c-63 0 -111 24 -140 71c-33 -45 -78 -71 -139 -71c-107 0 -169 66 -169 196v313h107v-301c0 -82 31 -114 85 -114s87 43 87 113v302h106v-301c0 -85 34 -114 84 -114c55 0 88 43 88 113v302h107z" />
    <glyph glyph-name="afii10090.ss01" horiz-adv-x="779" 
d="M336 198v302h106v-301c0 -85 34 -114 84 -114c55 0 88 43 88 113v302h107v-500h-105v45c-22 -31 -51 -54 -111 -54c-63 0 -111 24 -140 71c-33 -45 -78 -71 -139 -71c-107 0 -169 66 -169 196v313h107v-301c0 -82 31 -114 85 -114s87 43 87 113z" />
    <glyph glyph-name="afii10088.ss01" horiz-adv-x="554" 
d="M468 500v-408h68v-209h-100v117h-73v45c-23 -36 -53 -54 -123 -54c-103 0 -183 53 -183 197v312h107v-301c0 -89 40 -114 96 -114c66 0 102 44 102 113v302h106z" />
    <glyph glyph-name="e.ss01" horiz-adv-x="487" 
d="M354 132l80 -56c-35 -61 -91 -85 -179 -85c-143 0 -219 93 -219 226v68c0 147 78 224 209 224c137 0 196 -69 196 -156c0 -84 -60 -146 -196 -146h-103c4 -71 35 -124 109 -124c59 0 83 18 103 49zM245 416c-67 0 -102 -48 -103 -125h103c60 0 90 19 90 62s-29 63 -90 63
z" />
    </font>
</defs>
</svg>
