<?xml version="1.0" standalone="no"?>
<!DOCTYPE svg PUBLIC "-//W3C//DTD SVG 1.1//EN" "http://www.w3.org/Graphics/SVG/1.1/DTD/svg11.dtd" >
<svg xmlns="http://www.w3.org/2000/svg" xmlns:xlink="http://www.w3.org/1999/xlink" version="1.1">
<metadata>
Created by FontForge 20190801 at Sun Jan 31 01:56:15 2016
 By root
Copyright (c) 2014 ParaType Inc., ParaType Ltd. All rights reserved.
</metadata>
<defs>
<font id="DIN2014Narrow-Bold" horiz-adv-x="478" >
  <font-face 
    font-family="DIN 2014 Narrow"
    font-weight="700"
    font-stretch="normal"
    units-per-em="1000"
    panose-1="2 11 7 6 2 2 2 2 2 4"
    ascent="779"
    descent="-221"
    x-height="500"
    cap-height="690"
    bbox="-323 -297 3054 1010"
    underline-thickness="50"
    underline-position="-150"
    unicode-range="U+0020-1F4F1"
  />
<missing-glyph horiz-adv-x="213" 
 />
    <glyph glyph-name="afii10017.var.accented" unicode="&#x410;`" horiz-adv-x="528" 
d="M352 131h-176l-33 -131h-146l199 690h136l199 -690h-146zM204 249h120l-60 243zM323 742h-122l67 129h140z" />
    <glyph glyph-name="afii10022.var.accented" unicode="&#x415;`" horiz-adv-x="446" 
d="M58 0v690h364v-118h-224v-156h199v-118h-199v-180h224v-118h-364zM291 742h-122l67 129h140z" />
    <glyph glyph-name="afii10026.var.accented" unicode="&#x418;`" horiz-adv-x="584" 
d="M57 0v690h140v-399l214 399h115v-690h-140v393l-213 -393h-116zM350 742h-122l67 129h140z" />
    <glyph glyph-name="afii10032.var.accented" unicode="&#x41e;`" horiz-adv-x="536" 
d="M496 394v-98q0 -153 -59 -229t-169 -76t-169 76t-59 229v98q0 153 59 229t169 76t169 -76t59 -229zM180 394v-98q0 -101 21 -144t67 -43t67 43t21 144v98q0 101 -21 144t-67 43t-67 -43t-21 -144zM320 742h-122l67 129h140z" />
    <glyph glyph-name="afii10037.var.accented" unicode="&#x423;`" horiz-adv-x="494" 
d="M268 349l88 341h138l-162 -524q-33 -103 -81 -139t-150 -36v122q45 0 66.5 10.5t33.5 42.5l-194 524h153zM315 742h-122l67 129h140z" />
    <glyph glyph-name="afii10045.var.accented" unicode="&#x42b;`" horiz-adv-x="728" 
d="M58 0v690h140v-253h65q109 0 167 -59.5t58 -159.5q0 -96 -57 -157t-168 -61h-205zM252 319h-54v-201h54q96 0 96 100q0 101 -96 101zM670 0h-140v690h140v-690zM401 742h-122l67 129h140z" />
    <glyph glyph-name="afii10047.var.accented" unicode="&#x42d;`" horiz-adv-x="505" 
d="M325 288h-155v118h155q-2 93 -22.5 134t-65.5 41q-67 0 -78 -105h-133q14 110 68.5 166.5t142.5 56.5q108 0 168 -77t60 -228v-98q0 -150 -60 -227.5t-168 -77.5q-182 0 -211 223h133q7 -56 25 -80.5t53 -24.5q45 0 66 43.5t22 135.5zM296 742h-122l67 129h140z" />
    <glyph glyph-name="afii10048.var.accented" unicode="&#x42e;`" horiz-adv-x="741" 
d="M267 290v8h-69v-298h-140v690h140v-274h69q6 283 217 283q217 0 217 -299v-110q0 -299 -217 -299t-217 299zM561 302v86q0 106 -16 149.5t-61 43.5t-61 -43.5t-16 -149.5v-86q0 -106 16 -149.5t61 -43.5t61 43.5t16 149.5zM364 742h-122l67 129h140z" />
    <glyph glyph-name="afii10049.var.accented" unicode="&#x42f;`" horiz-adv-x="526" 
d="M269 271l-111 -271h-147l129 292q-107 47 -107 189q0 101 59 155t163 54h213v-690h-140v271h-59zM270 389h58v182h-58q-97 0 -97 -90q0 -50 20.5 -71t76.5 -21zM336 742h-122l67 129h140z" />
    <glyph glyph-name="afii10023.var.accented" unicode="&#x401;`" horiz-adv-x="446" 
d="M58 0v690h364v-118h-224v-156h199v-118h-199v-180h224v-118h-364zM303 881h-122l67 129h140zM204 752h-124v117h124v-117zM401 752h-124v117h124v-117z" />
    <glyph glyph-name="afii10065.var.accented" unicode="&#x430;`" horiz-adv-x="426" 
d="M22 148q0 74 42.5 113t116.5 39h75v29q0 45 -12.5 59.5t-54.5 14.5q-28 0 -43.5 -8.5t-27.5 -31.5l-90 63q24 44 65 63.5t109 19.5q91 0 135.5 -41.5t44.5 -139.5v-328h-126v44q-26 -53 -89 -53q-65 0 -105 42t-40 115zM256 187v19h-57q-52 0 -52 -56t50 -56q33 0 46 21
t13 72zM259 567h-120l59 158h136z" />
    <glyph glyph-name="afii10070.var.accented" unicode="&#x435;`" horiz-adv-x="420" 
d="M285 141l92 -63q-22 -46 -58.5 -66.5t-99.5 -20.5q-92 0 -141.5 61t-49.5 165v68q0 109 47 166.5t131 57.5q179 0 179 -234v-57h-229q2 -65 15 -92t49 -27q27 0 39.5 8.5t25.5 33.5zM156 309h100q-5 92 -49 92q-45 0 -51 -92zM261 567h-120l59 158h136z" />
    <glyph glyph-name="afii10074.var.accented" unicode="&#x438;`" horiz-adv-x="457" 
d="M43 500h128v-254l139 254h103v-500h-128v261l-138 -261h-104v500zM280 567h-120l59 158h136z" />
    <glyph glyph-name="afii10080.var.accented" unicode="&#x43e;`" horiz-adv-x="428" 
d="M28 219v62q0 110 49 169t137 59t137 -59t49 -169v-62q0 -110 -49 -169t-137 -59t-137 59t-49 169zM156 277v-54q0 -66 13 -95t45 -29t45 29t13 95v54q0 66 -13 95t-45 29t-45 -29t-13 -95zM261 567h-120l59 158h136z" />
    <glyph glyph-name="afii10085.var.accented" unicode="&#x443;`" horiz-adv-x="413" 
d="M149 -2l-144 502h136l74 -316l70 316h128l-147 -530q-27 -95 -68 -127q-41 -33 -131 -33v114q43 0 60.5 15.5t21.5 58.5zM268 567h-120l59 158h136z" />
    <glyph glyph-name="afii10093.var.accented" unicode="&#x44b;`" horiz-adv-x="587" 
d="M44 0v500h128v-172h37q177 0 177 -163q0 -79 -45 -122t-131 -43h-166zM200 220h-28v-112h37q49 0 49 57q0 28 -13.5 41.5t-44.5 13.5zM543 0h-128v500h128v-500zM340 567h-120l59 158h136z" />
    <glyph glyph-name="afii10095.var.accented" unicode="&#x44d;`" horiz-adv-x="387" 
d="M231 204h-118v99h117q-2 52 -17.5 75t-49.5 23q-39 0 -59 -39l-92 65q43 82 150 82q96 0 146.5 -57.5t50.5 -166.5v-68q0 -104 -51.5 -165t-140.5 -61q-116 0 -156 87l91 63q20 -42 61 -42q37 0 51.5 25t16.5 80zM229 567h-120l59 158h136z" />
    <glyph glyph-name="afii10096.var.accented" unicode="&#x44e;`" horiz-adv-x="605" 
d="M399 -9q-82 0 -129.5 55t-48.5 155h-50v-201h-128v500h128v-190h50q4 95 51.5 147t126.5 52q82 0 130 -56.5t48 -157.5v-90q0 -101 -48 -157.5t-130 -56.5zM449 212v76q0 113 -50 113t-50 -113v-76q0 -113 50 -113t50 113zM317 567h-120l59 158h136z" />
    <glyph glyph-name="afii10097.var.accented" unicode="&#x44f;`" horiz-adv-x="430" 
d="M386 500v-500h-128v178h-32l-82 -178h-129l98 201q-73 42 -73 139q0 74 44 117t131 43h171zM222 284h36v108h-40q-50 0 -50 -53q0 -55 54 -55zM299 567h-120l59 158h136z" />
    <glyph glyph-name="afii10071.var.accented" unicode="&#x451;`" horiz-adv-x="420" 
d="M285 141l92 -63q-22 -46 -58.5 -66.5t-99.5 -20.5q-92 0 -141.5 61t-49.5 165v68q0 109 47 166.5t131 57.5q179 0 179 -234v-57h-229q2 -65 15 -92t49 -27q27 0 39.5 8.5t25.5 33.5zM156 309h100q-5 92 -49 92q-45 0 -51 -92zM185 573h-124v117h124v-117zM349 573h-123
v117h123v-117zM267 718h-120l59 158h136z" />
    <glyph glyph-name="fi" unicode="fi" horiz-adv-x="468" 
d="M424 0h-128v392h-103v-392h-128v392h-53v108h53v27q0 91 36.5 127t119.5 36h35v-112h-22q-23 0 -32 -16t-9 -55v-7h231v-500z" />
    <glyph glyph-name="fl" unicode="fl" horiz-adv-x="501" 
d="M306 160v418h-72q-23 0 -32 -16t-9 -55v-7h63v-108h-63v-392h-128v392h-53v108h53v27q0 91 36.5 127t119.5 36h213v-501q0 -79 54 -79v-110q-95 0 -138.5 36.5t-43.5 123.5z" />
    <glyph glyph-name=".notdef" horiz-adv-x="213" 
 />
    <glyph glyph-name=".null" horiz-adv-x="0" 
 />
    <glyph glyph-name="nonmarkingreturn" horiz-adv-x="333" 
 />
    <glyph glyph-name="space" unicode=" " horiz-adv-x="213" 
 />
    <glyph glyph-name="exclam" unicode="!" horiz-adv-x="232" 
d="M53 690h126v-501h-126v501zM184 0h-136v136h136v-136z" />
    <glyph glyph-name="quotedbl" unicode="&#x22;" horiz-adv-x="342" 
d="M34 690h120v-183h-120v183zM189 690h119v-183h-119v183z" />
    <glyph glyph-name="numbersign" unicode="#" horiz-adv-x="545" 
d="M49 389v112h89l35 189h128l-35 -189h64l35 189h128l-35 -189h63v-112h-84l-16 -85h63v-112h-84l-36 -192h-127l35 192h-64l-35 -192h-129l36 192h-68v112h89l16 85h-68zM309 389h-64l-16 -85h64z" />
    <glyph glyph-name="dollar" unicode="$" 
d="M448 583l-103 -75q-24 52 -56 64v-169q88 -28 127 -76t39 -137q0 -75 -41 -128t-114 -67v-111h-116v111q-104 15 -166 110l102 77q31 -53 73 -67v177q-84 29 -123 79.5t-39 131.5q0 77 40 128.5t113 63.5v117h116v-117q100 -21 148 -112zM315 187q0 48 -28 69v-137
q28 16 28 68zM171 504q0 -44 24 -66v132q-24 -15 -24 -66z" />
    <glyph glyph-name="percent" unicode="%" horiz-adv-x="647" 
d="M105 0l322 690h117l-322 -690h-117zM275 563v-85q0 -64 -33.5 -100t-94.5 -36t-94.5 36t-33.5 100v85q0 64 33.5 100t94.5 36t94.5 -36t33.5 -100zM175 479v83q0 49 -28 49t-28 -49v-83q0 -49 28 -49t28 49zM630 212v-85q0 -64 -33.5 -100t-94.5 -36t-94.5 36t-33.5 100
v85q0 64 33.5 100t94.5 36t94.5 -36t33.5 -100zM530 128v83q0 49 -28 49t-28 -49v-83q0 -49 28 -49t28 49z" />
    <glyph glyph-name="ampersand" unicode="&#x26;" horiz-adv-x="571" 
d="M30 183q0 109 97 200q-55 85 -55 159q0 71 46.5 114t121.5 43t119 -41q45 -40 45 -96q0 -49 -28 -90t-90 -97l92 -144q7 35 7 91h128q0 -108 -45 -195l95 -127h-150l-27 42q-64 -51 -147 -51q-97 0 -153 55q-56 56 -56 137zM245 109q36 0 63 24l-111 165q-31 -40 -31 -98
q0 -37 21 -64t58 -27zM202 542q0 -41 24 -86q56 53 56 98q0 21 -11 34.5t-29 13.5q-40 0 -40 -60z" />
    <glyph glyph-name="quotesingle" unicode="'" horiz-adv-x="174" 
d="M20 690h120v-183h-120v183z" />
    <glyph glyph-name="parenleft" unicode="(" horiz-adv-x="276" 
d="M268 -17l-69 -99q-84 64 -116 124q-30 60 -30 147v386q0 87 30 146q33 62 116 125l69 -99q-52 -52 -71 -88q-17 -36 -17 -110v-334q0 -74 17 -110q19 -36 71 -88z" />
    <glyph glyph-name="parenright" unicode=")" horiz-adv-x="276" 
d="M88 -116l-69 99q54 53 70 88q18 35 18 110v334q0 75 -18 110q-16 35 -70 88l69 99q84 -64 115 -125q31 -58 31 -146v-386q0 -88 -31 -147q-30 -60 -115 -124z" />
    <glyph glyph-name="asterisk" unicode="*" horiz-adv-x="359" 
d="M130 690h88l-4 -101l65 55l44 -82l-68 -46l68 -47l-44 -81l-65 53l4 -100h-88l4 98l-63 -52l-44 82l69 46l-69 47l44 82l63 -53z" />
    <glyph glyph-name="plus" unicode="+" 
d="M184 300h-111v108h111v141h110v-141h111v-108h-111v-140h-110v140z" />
    <glyph glyph-name="comma" unicode="," horiz-adv-x="238" 
d="M51 156h136v-202l-136 -116v318z" />
    <glyph glyph-name="hyphen" unicode="-" horiz-adv-x="266" 
d="M241 233h-216v112h216v-112z" />
    <glyph glyph-name="period" unicode="." horiz-adv-x="258" 
d="M51 156h156v-156h-156v156z" />
    <glyph glyph-name="slash" unicode="/" horiz-adv-x="418" 
d="M429 812l-278 -928h-111l278 928h111z" />
    <glyph glyph-name="zero" unicode="0" 
d="M32 206v278q0 106 56 160.5t151 54.5t151 -54.5t56 -160.5v-278q0 -106 -56 -160.5t-151 -54.5t-151 54.5t-56 160.5zM306 211v268q0 55 -15 78.5t-52 23.5t-52 -23.5t-15 -78.5v-268q0 -55 15 -78.5t52 -23.5t52 23.5t15 78.5z" />
    <glyph glyph-name="one" unicode="1" 
d="M204 690h124v-690h-140v535l-82 -65v144z" />
    <glyph glyph-name="two" unicode="2" 
d="M227 118h186v-118h-366v90l189 272q45 66 45 137q0 41 -16 62.5t-43 21.5q-60 0 -60 -84h-120q0 89 55 144q56 56 138 56q78 0 132 -58q54 -57 54 -142q0 -51 -24 -105q-10 -25 -32 -59q-9 -15 -18 -28l-15 -23z" />
    <glyph glyph-name="three" unicode="3" 
d="M215 297h-44v118h44q30 0 48.5 23.5t18.5 64.5q0 35 -16.5 57.5t-43.5 22.5q-49 0 -60 -74h-121q5 85 56 137q53 53 132 53q82 0 138 -56q55 -55 55 -134q0 -92 -80 -151q88 -52 88 -165q0 -87 -50 -145q-50 -57 -144 -57q-92 0 -146 53t-57 141h120q10 -76 73 -76
q31 0 47.5 25t16.5 66q0 97 -75 97z" />
    <glyph glyph-name="four" unicode="4" 
d="M12 195l195 495h150l-185 -473h95v176h140v-176h53v-119h-53v-98h-140v98h-255v97z" />
    <glyph glyph-name="five" unicode="5" 
d="M241 355q-37 0 -50 -51h-126v386h346v-127h-209v-115q28 33 79 33q67 0 109.5 -65.5t42.5 -180.5q0 -244 -188 -244q-79 0 -135 49t-64 138h138q12 -69 57 -69q52 0 52 119q0 127 -52 127z" />
    <glyph glyph-name="six" unicode="6" 
d="M200 690h146l-123 -282q25 11 53 11q67 0 115 -59q49 -58 49 -147q0 -110 -59 -166t-148 -56q-90 0 -148 54q-59 56 -59 158q0 81 56 207zM166 207q0 -98 67 -98t67 98q0 97 -67 97t-67 -97z" />
    <glyph glyph-name="seven" unicode="7" 
d="M176 571v-107h-120v226h370v-98l-163 -592h-142l159 571h-104z" />
    <glyph glyph-name="eight" unicode="8" 
d="M439 510q0 -50 -21 -90t-58 -62q37 -21 62.5 -67t25.5 -99q0 -93 -60 -147t-149 -54t-149 54t-60 147q0 53 25.5 99t62.5 67q-37 22 -58 62t-21 90q0 90 58 139q59 50 142 50q82 0 141 -50t59 -139zM308 205q0 43 -19.5 69.5t-49.5 26.5t-49.5 -26.5t-19.5 -69.5
q0 -42 19 -69.5t50 -27.5t50 27.5t19 69.5zM177 496q0 -37 17.5 -62t44.5 -25t44.5 25t17.5 62q0 36 -17.5 60.5t-44.5 24.5t-44.5 -24.5t-17.5 -60.5z" />
    <glyph glyph-name="nine" unicode="9" 
d="M278 0h-146l123 282q-25 -11 -53 -11q-66 0 -116 59q-48 58 -48 147q0 110 59 166t148 56q90 0 148 -55q59 -54 59 -157q0 -81 -56 -207zM312 483q0 98 -67 98t-67 -98q0 -97 67 -97t67 97z" />
    <glyph glyph-name="colon" unicode=":" horiz-adv-x="229" 
d="M51 500h136v-137h-136v137zM51 136h136v-136h-136v136z" />
    <glyph glyph-name="semicolon" unicode=";" horiz-adv-x="229" 
d="M51 136h136v-188l-136 -117v305zM51 500h136v-137h-136v137z" />
    <glyph glyph-name="less" unicode="&#x3c;" 
d="M360 580v-150l-131 -88l131 -88v-150l-271 183v110z" />
    <glyph glyph-name="equal" unicode="=" 
d="M401 359h-324v120h324v-120zM401 182h-324v119h324v-119z" />
    <glyph glyph-name="greater" unicode="&#x3e;" 
d="M118 254l131 88l-131 88v150l271 -183v-110l-271 -183v150z" />
    <glyph glyph-name="question" unicode="?" horiz-adv-x="424" 
d="M261 220v-31h-121v69q0 58 35 99l37 42q28 32 39 55t11 55q0 73 -49 73q-23 0 -37.5 -18.5t-13.5 -49.5h-131q0 89 52 137t130 48q80 0 136 -50q55 -49 55 -141q0 -98 -85 -189l-28 -32l-17 -20q-13 -21 -13 -47zM269 0h-136v136h136v-136z" />
    <glyph glyph-name="at" unicode="@" horiz-adv-x="770" 
d="M426 484h128v-243q0 -48 4.5 -61.5t21.5 -13.5q39 0 39 127q0 150 -64 217t-171 67q-62 0 -109 -26t-72 -72q-47 -88 -47 -203q0 -149 64 -225q64 -75 168 -75q56 0 96 11.5t89 40.5l46 -92q-92 -68 -235 -68q-141 0 -246 100q-51 50 -80.5 130t-29.5 178q0 96 29 176
t80 129q104 104 247 104q159 0 261 -104t102 -289q0 -108 -44 -171t-119 -63q-80 0 -115 65q-29 -65 -109 -65q-67 0 -106 50.5t-39 139.5v52q0 91 39 140t103 49q41 0 69 -24v19zM382 166q24 0 34 19.5t10 65.5v54q0 42 -10 59t-34 17q-39 0 -39 -85v-38q0 -49 9 -70.5
t30 -21.5z" />
    <glyph glyph-name="A" unicode="A" horiz-adv-x="528" 
d="M352 131h-176l-33 -131h-146l199 690h136l199 -690h-146zM204 249h120l-60 243z" />
    <glyph glyph-name="B" unicode="B" horiz-adv-x="519" 
d="M58 0v690h199q103 0 159.5 -46.5t56.5 -134.5q0 -99 -70 -147q88 -46 88 -164q0 -90 -55.5 -144t-160.5 -54h-217zM250 299h-59v-181h69q91 0 91 91q0 48 -23.5 69t-77.5 21zM240 572h-49v-155h62q80 0 80 79q0 39 -21 57.5t-72 18.5z" />
    <glyph glyph-name="C" unicode="C" horiz-adv-x="505" 
d="M479 476h-133q-10 105 -78 105q-47 0 -67.5 -44t-20.5 -143v-98q0 -97 21 -142t67 -45q35 0 53 24.5t25 80.5h133q-29 -223 -211 -223q-108 0 -168 77.5t-60 227.5v98q0 151 60 228t168 77q88 0 142.5 -56.5t68.5 -166.5z" />
    <glyph glyph-name="D" unicode="D" horiz-adv-x="539" 
d="M272 0h-214v690h214q227 0 227 -300v-90q0 -300 -227 -300zM198 119h74q49 0 68 42t19 139v90q0 97 -19 139t-68 42h-74v-452z" />
    <glyph glyph-name="E" unicode="E" horiz-adv-x="446" 
d="M58 0v690h364v-118h-224v-156h199v-118h-199v-180h224v-118h-364z" />
    <glyph glyph-name="F" unicode="F" horiz-adv-x="441" 
d="M58 0v690h364v-118h-224v-172h199v-118h-199v-282h-140z" />
    <glyph glyph-name="G" unicode="G" horiz-adv-x="521" 
d="M479 476h-133q-10 105 -78 105q-47 0 -67.5 -44t-20.5 -143v-98q0 -97 21 -142t67 -45q38 0 57 31t22 101h-77v118h211v-62q0 -155 -51.5 -230.5t-161.5 -75.5q-108 0 -168 77.5t-60 227.5v98q0 151 60 228t168 77q88 0 142.5 -56.5t68.5 -166.5z" />
    <glyph glyph-name="H" unicode="H" horiz-adv-x="569" 
d="M58 690h140v-274h172v274h140v-690h-140v298h-172v-298h-140v690z" />
    <glyph glyph-name="I" unicode="I" horiz-adv-x="273" 
d="M66 690h140v-690h-140v690z" />
    <glyph glyph-name="J" unicode="J" horiz-adv-x="442" 
d="M-8 94l111 70q30 -48 72 -48q39 0 54 31.5t15 117.5v425h140v-425q0 -274 -198 -274q-131 0 -194 103z" />
    <glyph glyph-name="K" unicode="K" horiz-adv-x="545" 
d="M353 434l182 -434h-152l-119 288l-67 -112v-176h-140v690h140v-287l151 287h160z" />
    <glyph glyph-name="L" unicode="L" horiz-adv-x="426" 
d="M58 690h140v-572h223v-118h-363v690z" />
    <glyph glyph-name="M" unicode="M" horiz-adv-x="686" 
d="M387 164h-88l-101 212v-376h-140v690h132l153 -327l153 327h132v-690h-140v376z" />
    <glyph glyph-name="N" unicode="N" horiz-adv-x="569" 
d="M370 307v383h140v-690h-117l-195 377v-377h-140v690h116z" />
    <glyph glyph-name="O" unicode="O" horiz-adv-x="536" 
d="M496 394v-98q0 -153 -59 -229t-169 -76t-169 76t-59 229v98q0 153 59 229t169 76t169 -76t59 -229zM180 394v-98q0 -101 21 -144t67 -43t67 43t21 144v98q0 101 -21 144t-67 43t-67 -43t-21 -144z" />
    <glyph glyph-name="P" unicode="P" horiz-adv-x="509" 
d="M274 243h-76v-243h-140v690h216q103 0 161.5 -57t58.5 -164t-58.5 -166.5t-161.5 -59.5zM198 571v-210h52q56 0 80 25.5t24 82.5q0 52 -25 77t-79 25h-52z" />
    <glyph glyph-name="Q" unicode="Q" horiz-adv-x="543" 
d="M496 394v-98q0 -102 -27 -170l83 -88l-84 -78l-67 71q-52 -40 -133 -40q-110 0 -169 76t-59 229v98q0 153 59 229t169 76t169 -76t59 -229zM314 124l-77 84l83 78l34 -37q2 38 2 47v98q0 101 -21 144t-67 43t-67 -43t-21 -144v-98q0 -101 21 -144t67 -43q28 0 46 15z" />
    <glyph glyph-name="R" unicode="R" horiz-adv-x="531" 
d="M398 295l117 -295h-147l-101 271h-69v-271h-140v690h216q103 0 161.5 -54.5t58.5 -156.5q0 -135 -96 -184zM198 571v-182h60q50 0 73 20.5t23 69.5q0 50 -23.5 71t-72.5 21h-60z" />
    <glyph glyph-name="S" unicode="S" horiz-adv-x="494" 
d="M455 587l-101 -73q-46 67 -99 67q-71 0 -71 -76q0 -38 22.5 -59.5t80.5 -40.5q95 -31 136 -78q40 -46 40 -135q0 -88 -54 -145q-54 -56 -151 -56q-151 0 -228 113l105 74q29 -37 54 -53t59 -16q75 0 75 77q0 37 -23.5 60t-85.5 43q-88 29 -129 80.5t-41 135.5
q0 89 53 141.5t152 52.5q148 0 206 -112z" />
    <glyph glyph-name="T" unicode="T" horiz-adv-x="454" 
d="M7 571v119h440v-119h-150v-571h-140v571h-150z" />
    <glyph glyph-name="U" unicode="U" horiz-adv-x="570" 
d="M58 279v411h140v-411q0 -91 20 -130.5t67 -39.5t67 39.5t20 130.5v411h140v-411q0 -143 -59.5 -215.5t-167.5 -72.5t-167.5 72.5t-59.5 215.5z" />
    <glyph glyph-name="V" unicode="V" horiz-adv-x="522" 
d="M261 233l109 457h149l-194 -690h-128l-194 690h149z" />
    <glyph glyph-name="W" unicode="W" horiz-adv-x="777" 
d="M509 0l-120 455l-120 -455h-133l-130 690h153l61 -431l102 431h134l102 -431l61 431h153l-130 -690h-133z" />
    <glyph glyph-name="X" unicode="X" horiz-adv-x="515" 
d="M257 234l-96 -234h-150l158 356l-140 334h150l78 -219l80 219h150l-141 -334l158 -356h-149z" />
    <glyph glyph-name="Y" unicode="Y" horiz-adv-x="507" 
d="M165 690l88 -253l88 253h160l-178 -408v-282h-140v282l-178 408h160z" />
    <glyph glyph-name="Z" unicode="Z" horiz-adv-x="437" 
d="M26 571v119h382v-92l-220 -480h229v-118h-391v92l223 479h-223z" />
    <glyph glyph-name="bracketleft" unicode="[" horiz-adv-x="296" 
d="M274 -102h-214v894h214v-108h-87v-678h87v-108z" />
    <glyph glyph-name="backslash" unicode="\" horiz-adv-x="417" 
d="M132 812l278 -928h-111l-278 928h111z" />
    <glyph glyph-name="bracketright" unicode="]" horiz-adv-x="296" 
d="M22 792h214v-894h-214v108h87v678h-87v108z" />
    <glyph glyph-name="asciicircum" unicode="^" horiz-adv-x="460" 
d="M32 437l142 253h112l142 -253h-144l-54 129l-54 -129h-144z" />
    <glyph glyph-name="underscore" unicode="_" horiz-adv-x="439" 
d="M0 -169v103h439v-103h-439z" />
    <glyph glyph-name="grave" unicode="`" horiz-adv-x="300" 
d="M52 725h136l59 -158h-120z" />
    <glyph glyph-name="a" unicode="a" horiz-adv-x="426" 
d="M22 148q0 74 42.5 113t116.5 39h75v29q0 45 -12.5 59.5t-54.5 14.5q-28 0 -43.5 -8.5t-27.5 -31.5l-90 63q24 44 65 63.5t109 19.5q91 0 135.5 -41.5t44.5 -139.5v-328h-126v44q-26 -53 -89 -53q-65 0 -105 42t-40 115zM256 187v19h-57q-52 0 -52 -56t50 -56q33 0 46 21
t13 72z" />
    <glyph glyph-name="b" unicode="b" horiz-adv-x="444" 
d="M43 690h128v-217q30 36 82 36q74 0 118.5 -59t44.5 -165v-68q0 -104 -43.5 -165t-119.5 -61q-53 0 -82 36v-27h-128v690zM230 99q34 0 46 29.5t12 96.5v52q0 66 -13 95t-45 29q-59 0 -59 -117v-61q-1 -63 10 -91.5t49 -32.5z" />
    <glyph glyph-name="c" unicode="c" horiz-adv-x="382" 
d="M285 141l91 -63q-40 -87 -156 -87q-89 0 -140.5 61t-51.5 165v68q0 109 50.5 166.5t146.5 57.5q107 0 150 -82l-92 -65q-19 39 -59 39q-39 0 -53.5 -28.5t-14.5 -95.5v-52q0 -68 14 -97t54 -29q42 0 61 42z" />
    <glyph glyph-name="d" unicode="d" horiz-adv-x="445" 
d="M273 473v217h128v-690h-128v27q-29 -36 -82 -36q-76 0 -119.5 61t-43.5 165v68q0 106 44.5 165t118.5 59q52 0 82 -36zM214 99q38 4 49 32.5t10 91.5v61q0 117 -59 117q-32 0 -45 -29t-13 -95v-52q0 -67 12 -96.5t46 -29.5z" />
    <glyph glyph-name="e" unicode="e" horiz-adv-x="420" 
d="M285 141l92 -63q-22 -46 -58.5 -66.5t-99.5 -20.5q-92 0 -141.5 61t-49.5 165v68q0 109 47 166.5t131 57.5q179 0 179 -234v-57h-229q2 -65 15 -92t49 -27q27 0 39.5 8.5t25.5 33.5zM156 309h100q-5 92 -49 92q-45 0 -51 -92z" />
    <glyph glyph-name="f" unicode="f" horiz-adv-x="268" 
d="M12 392v108h53v27q0 91 36.5 127t119.5 36h35v-112h-22q-23 0 -32 -16t-9 -55v-7h63v-108h-63v-392h-128v392h-53z" />
    <glyph glyph-name="g" unicode="g" horiz-adv-x="445" 
d="M273 473v27h128v-490q0 -116 -51 -161t-139 -45q-63 0 -103 20t-70 68l86 67q29 -48 76 -48q42 0 57.5 21t15.5 78v17q-29 -36 -82 -36q-76 0 -119.5 61t-43.5 165v68q0 106 44.5 165t118.5 59q52 0 82 -36zM214 99q38 4 49 32.5t10 91.5v61q0 117 -59 117q-32 0 -45 -29
t-13 -95v-52q0 -67 12 -96.5t46 -29.5z" />
    <glyph glyph-name="h" unicode="h" horiz-adv-x="457" 
d="M172 0h-128v690h128v-228q32 47 95 47q66 0 106 -49t40 -147v-313h-128v293q0 60 -11 83t-41 23q-61 0 -61 -105v-294z" />
    <glyph glyph-name="i" unicode="i" horiz-adv-x="241" 
d="M185 0h-128v500h128v-500zM185 566h-128v124h128v-124z" />
    <glyph glyph-name="j" unicode="j" horiz-adv-x="226" 
d="M50 500h128v-527q0 -90 -42.5 -126.5t-135.5 -36.5v110q50 0 50 71v509zM178 566h-128v124h128v-124z" />
    <glyph glyph-name="k" unicode="k" horiz-adv-x="433" 
d="M172 328l91 172h144l-119 -187l143 -313h-141l-83 189l-35 -53v-136h-128v690h128v-362z" />
    <glyph glyph-name="l" unicode="l" horiz-adv-x="254" 
d="M44 160v530h128v-501q0 -79 54 -79v-110q-95 0 -138.5 36.5t-43.5 123.5z" />
    <glyph glyph-name="m" unicode="m" horiz-adv-x="680" 
d="M171 0h-128v500h125v-42q28 51 93 51q69 0 108 -67q43 67 117 67q72 0 111.5 -50.5t39.5 -145.5v-313h-128v293q0 56 -12 81t-40 25q-53 0 -53 -98v-301h-128v293q0 106 -52 106q-53 0 -53 -105v-294z" />
    <glyph glyph-name="n" unicode="n" horiz-adv-x="457" 
d="M172 0h-128v500h125v-39q30 48 98 48q66 0 106 -49t40 -147v-313h-128v293q0 60 -11 83t-41 23q-61 0 -61 -105v-294z" />
    <glyph glyph-name="o" unicode="o" horiz-adv-x="428" 
d="M28 219v62q0 110 49 169t137 59t137 -59t49 -169v-62q0 -110 -49 -169t-137 -59t-137 59t-49 169zM156 277v-54q0 -66 13 -95t45 -29t45 29t13 95v54q0 66 -13 95t-45 29t-45 -29t-13 -95z" />
    <glyph glyph-name="p" unicode="p" horiz-adv-x="444" 
d="M43 500h128v-27q30 36 82 36q74 0 118.5 -59t44.5 -165v-68q0 -104 -43.5 -165t-119.5 -61q-53 0 -82 36v-217h-128v690zM230 99q34 0 46 29.5t12 96.5v52q0 66 -13 95t-45 29q-59 0 -59 -117v-61q-1 -63 10 -91.5t49 -32.5z" />
    <glyph glyph-name="q" unicode="q" horiz-adv-x="445" 
d="M273 473v27h128v-690h-128v217q-29 -36 -82 -36q-76 0 -119.5 61t-43.5 165v68q0 106 44.5 165t118.5 59q52 0 82 -36zM214 99q38 4 49 32.5t10 91.5v61q0 117 -59 117q-32 0 -45 -29t-13 -95v-52q0 -67 12 -96.5t46 -29.5z" />
    <glyph glyph-name="r" unicode="r" horiz-adv-x="362" 
d="M370 430l-96 -69q-20 38 -48 38q-54 0 -54 -105v-294h-128v500h125v-39q31 48 87 48q75 0 114 -79z" />
    <glyph glyph-name="s" unicode="s" horiz-adv-x="405" 
d="M370 425l-92 -65q-26 39 -74 39q-43 0 -43 -41q0 -21 13.5 -31t53.5 -18q77 -15 112 -53t35 -109q0 -73 -45 -114.5t-126 -41.5q-129 0 -182 83l95 69q13 -23 32 -32.5t53 -9.5q45 0 45 41q0 23 -13.5 34t-52.5 20q-72 17 -109.5 54.5t-37.5 104.5q0 72 45 113t125 41
q124 0 166 -84z" />
    <glyph glyph-name="t" unicode="t" horiz-adv-x="293" 
d="M65 392h-53v108h53v110h128v-110h76v-108h-76v-209q0 -39 9 -55t32 -16h35v-112h-48q-83 0 -119.5 36t-36.5 127v229z" />
    <glyph glyph-name="u" unicode="u" horiz-adv-x="457" 
d="M285 500h128v-500h-125v38q-15 -25 -35 -36t-55 -11q-70 0 -112 48.5t-42 147.5v313h128v-293q0 -60 11 -83t41 -23q61 0 61 105v294z" />
    <glyph glyph-name="v" unicode="v" horiz-adv-x="432" 
d="M274 0h-116l-158 500h141l75 -324l75 324h141z" />
    <glyph glyph-name="w" unicode="w" horiz-adv-x="606" 
d="M492 0h-104l-85 313l-85 -313h-104l-112 500h131l48 -284l72 284h100l72 -284l48 284h131z" />
    <glyph glyph-name="x" unicode="x" horiz-adv-x="419" 
d="M282 256l132 -256h-135l-69 152l-69 -152h-135l132 256l-122 244h134l60 -143l60 143h135z" />
    <glyph glyph-name="y" unicode="y" horiz-adv-x="413" 
d="M149 -2l-144 502h136l74 -316l70 316h128l-147 -530q-27 -95 -68 -127q-41 -33 -131 -33v114q43 0 60.5 15.5t21.5 58.5z" />
    <glyph glyph-name="z" unicode="z" horiz-adv-x="382" 
d="M25 0v89l170 303h-167v108h323v-89l-171 -303h179v-108h-334z" />
    <glyph glyph-name="braceleft" unicode="{" horiz-adv-x="286" 
d="M174 346q21 -8 29 -23t8 -47v-190q0 -46 9 -59.5t38 -13.5h8v-108h-39q-70 0 -107 32q-36 31 -36 123v178q0 28 -9.5 40t-32.5 12h-15v112h15q23 0 32.5 12t9.5 40v178q0 92 36 123q37 32 107 32h39v-108h-8q-29 0 -38 -13.5t-9 -59.5v-190q0 -32 -8 -47t-29 -23z" />
    <glyph glyph-name="bar" unicode="|" horiz-adv-x="264" 
d="M72 812h121v-928h-121v928z" />
    <glyph glyph-name="braceright" unicode="}" horiz-adv-x="277" 
d="M119 346q-21 8 -29 23t-8 47v190q0 46 -9 59.5t-38 13.5h-8v108h39q70 0 107 -32q36 -31 36 -123v-178q0 -28 9.5 -40t32.5 -12h15v-112h-15q-23 0 -32.5 -12t-9.5 -40v-178q0 -92 -36 -123q-37 -32 -107 -32h-39v108h8q29 0 38 13.5t9 59.5v190q0 32 8 47t29 23z" />
    <glyph glyph-name="asciitilde" unicode="~" 
d="M310 259q-41 0 -81 22q-41 23 -62 23q-41 0 -70 -45l-81 69q60 86 151 86q40 0 81 -23q40 -22 62 -22q42 0 70 46l81 -70q-62 -86 -151 -86z" />
    <glyph glyph-name="uni00A0" unicode="&#xa0;" horiz-adv-x="213" 
 />
    <glyph glyph-name="exclamdown" unicode="&#xa1;" horiz-adv-x="232" 
d="M179 -190h-126v501h126v-501zM48 500h136v-136h-136v136z" />
    <glyph glyph-name="cent" unicode="&#xa2;" 
d="M314 -116h-114v115q-63 19 -98 76.5t-35 141.5v68q0 182 133 216v121h114v-118q68 -17 100 -77l-92 -65q-20 39 -59 39t-53.5 -28.5t-14.5 -95.5v-52q0 -68 14 -97t54 -29q41 0 61 42l91 -63q-31 -67 -101 -82v-112z" />
    <glyph glyph-name="sterling" unicode="&#xa3;" 
d="M444 0h-413v118h63v159h-63v119h63v31q0 138 51 205t143 67q114 0 177 -102l-111 -66q-27 50 -63 50q-57 0 -57 -154v-31h103v-119h-103v-159h210v-118z" />
    <glyph glyph-name="currency" unicode="&#xa4;" 
d="M65 367q0 55 19 94l-69 82l91 76l58 -70q38 18 75 18q40 0 74 -19l60 71l91 -76l-70 -83q19 -42 19 -93t-19 -93l70 -83l-90 -76l-60 71q-35 -19 -75 -19q-42 0 -75 18l-59 -70l-90 76l69 82q-19 42 -19 94zM192 437q-17 -26 -17 -70t17 -70t47 -26t47 26t17 70t-17 70
t-47 26t-47 -26z" />
    <glyph glyph-name="yen" unicode="&#xa5;" 
d="M169 282h-115v112h71l-114 296h160l68 -253l68 253h160l-115 -296h73v-112h-116v-51h116v-112h-116v-119h-140v119h-115v112h115v51z" />
    <glyph glyph-name="brokenbar" unicode="&#xa6;" horiz-adv-x="249" 
d="M58 243h140v-243h-140v243zM58 690h140v-243h-140v243z" />
    <glyph glyph-name="section" unicode="&#xa7;" horiz-adv-x="467" 
d="M62 -35h124q1 -46 32 -46q30 0 30 46q0 45 -58 70q-84 37 -119 79q-35 44 -35 133q0 112 81 163q-53 50 -53 125q0 72 43 114t118 42t114.5 -40t40.5 -116h-124q-4 46 -33 46q-31 0 -31 -43q0 -25 13.5 -42.5t50.5 -34.5q80 -31 114 -75q35 -44 35 -133q0 -109 -82 -164
q53 -50 53 -124q0 -72 -42.5 -114t-116.5 -42q-76 0 -115.5 40t-39.5 116zM220 169q57 0 57 81q0 39 -15 60t-42 21q-56 0 -56 -81t56 -81z" />
    <glyph glyph-name="dieresis" unicode="&#xa8;" horiz-adv-x="360" 
d="M160 573h-124v117h124v-117zM324 573h-123v117h123v-117z" />
    <glyph glyph-name="copyright" unicode="&#xa9;" horiz-adv-x="945" 
d="M157 -62q-128 128 -128 312t128 312q130 128 312 128q183 0 311 -128q129 -128 129 -312t-129 -312q-128 -128 -311 -128q-182 0 -312 128zM469 -77q135 0 227 95t92 232q0 136 -92 231t-227 95q-134 0 -227 -95t-93 -231q0 -138 93 -232q93 -95 227 -95zM560 142l95 -66
q-49 -85 -182 -85q-105 0 -164 60.5t-59 165.5v68q0 109 59 166.5t171 57.5q122 0 175 -83l-96 -67q-30 42 -82 42q-100 0 -100 -124v-52q0 -60 21 -93q23 -33 79 -33q58 0 83 43z" />
    <glyph glyph-name="ordfeminine" unicode="&#xaa;" horiz-adv-x="279" 
d="M14 467q0 98 110 98h40v15q0 25 -7.5 34.5t-30.5 9.5q-33 0 -45 -30l-63 38q27 60 120 60q58 0 85.5 -23.5t27.5 -77.5v-217h-87v23q-20 -27 -59 -27q-38 0 -64.5 26t-26.5 71zM164 489v11h-30q-32 0 -32 -31t27 -31q19 0 27 11t8 40z" />
    <glyph glyph-name="guillemotleft" unicode="&#xab;" horiz-adv-x="446" 
d="M220 206v-154l-194 231l194 231v-154l-64 -77zM410 206v-154l-194 231l194 231v-154l-64 -77z" />
    <glyph glyph-name="logicalnot" unicode="&#xac;" 
d="M427 412v-245h-129v133h-248v112h377z" />
    <glyph glyph-name="uni00AD" unicode="&#xad;" horiz-adv-x="266" 
d="M241 233h-216v112h216v-112z" />
    <glyph glyph-name="registered" unicode="&#xae;" horiz-adv-x="541" 
d="M83 316q-77 77 -77 185t77 185t185 77t185 -77t77 -185t-77 -185t-185 -77t-185 77zM136 633q-55 -55 -55 -132t55 -132t132 -55t132 55t55 132t-55 132t-132 55t-132 -55zM229 464v-90h-67v261h111q49 0 75 -23t26 -60q0 -55 -48 -76l61 -102h-76l-51 90h-31zM229 579
v-59h30q46 0 46 31q0 28 -41 28h-35z" />
    <glyph glyph-name="overscore" unicode="&#xaf;" horiz-adv-x="340" 
d="M290 573h-240v111h240v-111z" />
    <glyph glyph-name="degree" unicode="&#xb0;" horiz-adv-x="304" 
d="M52 458q-41 41 -41 101q0 59 41 100t100 41t100 -41t41 -100q0 -60 -41 -101q-40 -40 -100 -40t-100 40zM202 559q0 22 -14 37t-36 15t-37 -15t-15 -37t15 -37.5t37 -15.5t36 15t14 38z" />
    <glyph glyph-name="plusminus" unicode="&#xb1;" 
d="M184 340h-111v108h111v141h110v-141h111v-108h-111v-105h-110v105zM405 104h-332v108h332v-108z" />
    <glyph glyph-name="twosuperior" unicode="&#xb2;" horiz-adv-x="243" 
d="M140 442h91v-68h-202v63l83 89q30 32 30 58q0 31 -20 31q-22 0 -23 -33h-78q0 52 30.5 81.5t79.5 29.5q45 0 72.5 -27.5t27.5 -73.5q0 -22 -10 -43q-10 -25 -46 -68z" />
    <glyph glyph-name="threesuperior" unicode="&#xb3;" horiz-adv-x="272" 
d="M120 507h-11v59h11q26 0 26 30q0 25 -19 25t-23 -27h-82q1 46 30.5 72.5t77.5 26.5q46 0 75.5 -24t29.5 -65q0 -38 -34 -66q37 -24 37 -71q0 -44 -29.5 -70t-78.5 -26q-50 0 -79.5 27.5t-31.5 73.5h84q1 -27 24 -27q22 0 22 30q0 32 -29 32z" />
    <glyph glyph-name="acute" unicode="&#xb4;" horiz-adv-x="343" 
d="M194 567h-120l59 158h136z" />
    <glyph glyph-name="mu" unicode="&#x3bc;" 
d="M183 -137h-128v637h128v-293q0 -60 11 -83t41 -23q61 0 61 105v294h128v-500h-125v38q-29 -47 -74 -47q-22 0 -42 11v-139z" />
    <glyph glyph-name="mu" unicode="&#xb5;" 
d="M183 -137h-128v637h128v-293q0 -60 11 -83t41 -23q61 0 61 105v294h128v-500h-125v38q-29 -47 -74 -47q-22 0 -42 11v-139z" />
    <glyph glyph-name="paragraph" unicode="&#xb6;" horiz-adv-x="630" 
d="M228 690h335v-880h-133v761h-69v-761h-133v500q-80 0 -135 55t-55 135q0 79 55 134q56 56 135 56z" />
    <glyph glyph-name="middot" unicode="&#xb7;" horiz-adv-x="206" 
d="M28 423h150v-150h-150v150z" />
    <glyph glyph-name="cedilla" unicode="&#xb8;" horiz-adv-x="295" 
d="M91 -72l17 97l79 -3l-9 -44q44 -21 44 -72q0 -41 -30 -63.5t-79 -22.5q-30 0 -41 4l13 65q16 -2 17 -2q23 0 23 21q0 20 -34 20z" />
    <glyph glyph-name="onesuperior" unicode="&#xb9;" horiz-adv-x="248" 
d="M115 690h80v-316h-88v221l-47 -37v89z" />
    <glyph glyph-name="ordmasculine" unicode="&#xba;" horiz-adv-x="303" 
d="M267 555v-46q0 -67 -33 -102.5t-88 -35.5t-88 35.5t-33 102.5v46q0 67 33 102.5t88 35.5t88 -35.5t33 -102.5zM179 510v44q0 59 -33 59t-33 -59v-44q0 -59 33 -59t33 59z" />
    <glyph glyph-name="guillemotright" unicode="&#xbb;" horiz-adv-x="445" 
d="M225 514l194 -231l-194 -231v154l64 77l-64 77v154zM35 514l194 -231l-194 -231v154l64 77l-64 77v154z" />
    <glyph glyph-name="onequarter" unicode="&#xbc;" horiz-adv-x="573" 
d="M277 111l110 205h96l-102 -198h36v45h88v-45h32v-71h-32v-47h-88v47h-140v64zM11 0l396 690h120l-396 -690h-120zM110 690h80v-316h-88v221l-47 -37v89z" />
    <glyph glyph-name="onehalf" unicode="&#xbd;" horiz-adv-x="557" 
d="M11 0l396 690h120l-396 -690h-120zM110 690h80v-316h-88v221l-47 -37v89zM433 68h91v-68h-202v63l83 89q30 32 30 58q0 31 -20 31q-21 0 -23 -33h-78q0 52 30.5 81.5t79.5 29.5q44 0 72 -27.5t28 -73.5q0 -22 -10 -43q-10 -25 -46 -68z" />
    <glyph glyph-name="threequarters" unicode="&#xbe;" horiz-adv-x="557" 
d="M283 111l110 205h96l-102 -198h36v45h88v-45h32v-71h-32v-47h-88v47h-140v64zM17 0l396 690h120l-396 -690h-120zM112 507h-11v59h11q26 0 26 30q0 25 -19 25t-23 -27h-82q1 46 30.5 72.5t77.5 26.5q46 0 75.5 -24t29.5 -65q0 -38 -34 -66q37 -24 37 -71q0 -44 -29.5 -70
t-78.5 -26q-50 0 -79.5 27.5t-31.5 73.5h84q1 -27 24 -27q22 0 22 30q0 32 -29 32z" />
    <glyph glyph-name="questiondown" unicode="&#xbf;" horiz-adv-x="424" 
d="M175 280v31h121v-69q0 -58 -35 -99l-37 -42q-28 -32 -39 -55t-11 -55q0 -73 49 -73q23 0 37.5 18.5t13.5 49.5h131q0 -89 -53 -137q-52 -48 -129 -48q-80 0 -136 50q-55 49 -55 141q0 98 85 189l28 32q6 7 16 20q14 16 14 47zM303 364h-136v136h136v-136z" />
    <glyph glyph-name="Agrave" unicode="&#xc0;" horiz-adv-x="528" 
d="M352 131h-176l-33 -131h-146l199 690h136l199 -690h-146zM204 249h120l-60 243zM108 871h140l67 -129h-122z" />
    <glyph glyph-name="Aacute" unicode="&#xc1;" horiz-adv-x="528" 
d="M352 131h-176l-33 -131h-146l199 690h136l199 -690h-146zM204 249h120l-60 243zM326 742h-122l67 129h140z" />
    <glyph glyph-name="Acircumflex" unicode="&#xc2;" horiz-adv-x="528" 
d="M352 131h-176l-33 -131h-146l199 690h136l199 -690h-146zM204 249h120l-60 243zM318 738l-54 75l-54 -75h-123l119 142h116l119 -142h-123z" />
    <glyph glyph-name="Atilde" unicode="&#xc3;" horiz-adv-x="528" 
d="M352 131h-176l-33 -131h-146l199 690h136l199 -690h-146zM204 249h120l-60 243zM318 738q-29 0 -62 16t-47 16q-27 0 -46 -28l-69 61q21 30 51 48t60 18q26 0 59 -16q35 -16 50 -16q23 0 44 29l68 -61q-45 -67 -108 -67z" />
    <glyph glyph-name="Adieresis" unicode="&#xc4;" horiz-adv-x="528" 
d="M352 131h-176l-33 -131h-146l199 690h136l199 -690h-146zM204 249h120l-60 243zM228 752h-124v117h124v-117zM425 752h-124v117h124v-117z" />
    <glyph glyph-name="Aring" unicode="&#xc5;" horiz-adv-x="528" 
d="M149 737q0 45 32 72t83 27q52 0 84.5 -27t32.5 -72q0 -48 -41 -77l191 -660h-146l-33 131h-176l-33 -131h-146l190 661q-38 27 -38 76zM204 249h120l-60 243zM264 706q37 0 37 31t-37 31q-36 0 -36 -31t36 -31z" />
    <glyph glyph-name="AE" unicode="&#xc6;" horiz-adv-x="767" 
d="M155 0h-158l325 690h420v-119h-224v-155h199v-118h-199v-180h224v-118h-364v131h-163zM378 487l-109 -238h109v238z" />
    <glyph glyph-name="Ccedilla" unicode="&#xc7;" horiz-adv-x="505" 
d="M216 -72l12 66q-89 13 -138.5 89.5t-49.5 212.5v98q0 151 60 228t168 77q88 0 142.5 -56.5t68.5 -166.5h-133q-10 105 -78 105q-47 0 -67.5 -44t-20.5 -143v-98q0 -97 21 -142t67 -45q35 0 53 24.5t25 80.5h133q-26 -201 -174 -220l-3 -16q21 -9 33.5 -28.5t12.5 -43.5
q0 -42 -29.5 -64t-79.5 -22q-30 0 -42 4l14 65q14 -2 16 -2q23 0 23 21q0 20 -34 20z" />
    <glyph glyph-name="Egrave" unicode="&#xc8;" horiz-adv-x="446" 
d="M58 0v690h364v-118h-224v-156h199v-118h-199v-180h224v-118h-364zM107 871h140l67 -129h-122z" />
    <glyph glyph-name="Eacute" unicode="&#xc9;" horiz-adv-x="446" 
d="M58 0v690h364v-118h-224v-156h199v-118h-199v-180h224v-118h-364zM283 742h-122l67 129h140z" />
    <glyph glyph-name="Ecircumflex" unicode="&#xca;" horiz-adv-x="446" 
d="M58 0v690h364v-118h-224v-156h199v-118h-199v-180h224v-118h-364zM294 738l-54 75l-54 -75h-123l119 142h116l119 -142h-123z" />
    <glyph glyph-name="Edieresis" unicode="&#xcb;" horiz-adv-x="446" 
d="M58 0v690h364v-118h-224v-156h199v-118h-199v-180h224v-118h-364zM203 752h-124v117h124v-117zM400 752h-124v117h124v-117z" />
    <glyph glyph-name="Igrave" unicode="&#xcc;" horiz-adv-x="273" 
d="M66 690h140v-690h-140v690zM-12 871h140l67 -129h-122z" />
    <glyph glyph-name="Iacute" unicode="&#xcd;" horiz-adv-x="273" 
d="M66 690h140v-690h-140v690zM193 742h-122l67 129h140z" />
    <glyph glyph-name="Icircumflex" unicode="&#xce;" horiz-adv-x="273" 
d="M66 690h140v-690h-140v690zM190 738l-54 75l-54 -75h-123l119 142h116l119 -142h-123z" />
    <glyph glyph-name="Idieresis" unicode="&#xcf;" horiz-adv-x="273" 
d="M66 690h140v-690h-140v690zM100 752h-124v117h124v-117zM297 752h-124v117h124v-117z" />
    <glyph glyph-name="Eth" unicode="&#xd0;" horiz-adv-x="547" 
d="M66 298h-75v118h75v274h214q227 0 227 -300v-90q0 -300 -227 -300h-214v298zM206 119h74q49 0 68 42t19 139v90q0 97 -19 139t-68 42h-74v-155h94v-118h-94v-179z" />
    <glyph glyph-name="Ntilde" unicode="&#xd1;" horiz-adv-x="569" 
d="M370 307v383h140v-690h-117l-195 377v-377h-140v690h116zM333 738q-29 0 -62 16t-47 16q-27 0 -46 -28l-69 61q21 30 51 48t60 18q26 0 59 -16q35 -16 50 -16q23 0 44 29l68 -61q-45 -67 -108 -67z" />
    <glyph glyph-name="Ograve" unicode="&#xd2;" horiz-adv-x="536" 
d="M496 394v-98q0 -153 -59 -229t-169 -76t-169 76t-59 229v98q0 153 59 229t169 76t169 -76t59 -229zM180 394v-98q0 -101 21 -144t67 -43t67 43t21 144v98q0 101 -21 144t-67 43t-67 -43t-21 -144zM131 871h140l67 -129h-122z" />
    <glyph glyph-name="Oacute" unicode="&#xd3;" horiz-adv-x="536" 
d="M496 394v-98q0 -153 -59 -229t-169 -76t-169 76t-59 229v98q0 153 59 229t169 76t169 -76t59 -229zM180 394v-98q0 -101 21 -144t67 -43t67 43t21 144v98q0 101 -21 144t-67 43t-67 -43t-21 -144zM320 742h-122l67 129h140z" />
    <glyph glyph-name="Ocircumflex" unicode="&#xd4;" horiz-adv-x="536" 
d="M496 394v-98q0 -153 -59 -229t-169 -76t-169 76t-59 229v98q0 153 59 229t169 76t169 -76t59 -229zM180 394v-98q0 -101 21 -144t67 -43t67 43t21 144v98q0 101 -21 144t-67 43t-67 -43t-21 -144zM322 738l-54 75l-54 -75h-123l119 142h116l119 -142h-123z" />
    <glyph glyph-name="Otilde" unicode="&#xd5;" horiz-adv-x="536" 
d="M496 394v-98q0 -153 -59 -229t-169 -76t-169 76t-59 229v98q0 153 59 229t169 76t169 -76t59 -229zM180 394v-98q0 -101 21 -144t67 -43t67 43t21 144v98q0 101 -21 144t-67 43t-67 -43t-21 -144zM326 738q-29 0 -62 16t-47 16q-27 0 -46 -28l-69 61q21 30 51 48t60 18
q26 0 59 -16q35 -16 50 -16q23 0 44 29l68 -61q-45 -67 -108 -67z" />
    <glyph glyph-name="Odieresis" unicode="&#xd6;" horiz-adv-x="536" 
d="M496 394v-98q0 -153 -59 -229t-169 -76t-169 76t-59 229v98q0 153 59 229t169 76t169 -76t59 -229zM180 394v-98q0 -101 21 -144t67 -43t67 43t21 144v98q0 101 -21 144t-67 43t-67 -43t-21 -144zM232 752h-124v117h124v-117zM429 752h-124v117h124v-117z" />
    <glyph glyph-name="multiply" unicode="&#xd7;" 
d="M239 437l96 113l82 -70l-107 -126l107 -125l-82 -70l-96 112l-96 -112l-82 70l107 125l-107 126l82 70z" />
    <glyph glyph-name="Oslash" unicode="&#xd8;" horiz-adv-x="536" 
d="M188 -116h-122l50 164q-76 73 -76 248v98q0 153 59 229t169 76q20 0 45 -4l36 117h122l-52 -170q77 -75 77 -248v-98q0 -153 -59 -229t-169 -76q-21 0 -46 4zM356 296v98q0 5 -0.5 19.5t-0.5 17.5l-98 -321q2 -1 11 -1q46 0 67 43t21 144zM180 394v-98q0 -29 1 -36
l97 320q-2 1 -10 1q-46 0 -67 -43t-21 -144z" />
    <glyph glyph-name="Ugrave" unicode="&#xd9;" horiz-adv-x="570" 
d="M58 279v411h140v-411q0 -91 20 -130.5t67 -39.5t67 39.5t20 130.5v411h140v-411q0 -143 -59.5 -215.5t-167.5 -72.5t-167.5 72.5t-59.5 215.5zM144 871h140l67 -129h-122z" />
    <glyph glyph-name="Uacute" unicode="&#xda;" horiz-adv-x="570" 
d="M58 279v411h140v-411q0 -91 20 -130.5t67 -39.5t67 39.5t20 130.5v411h140v-411q0 -143 -59.5 -215.5t-167.5 -72.5t-167.5 72.5t-59.5 215.5zM333 742h-122l67 129h140z" />
    <glyph glyph-name="Ucircumflex" unicode="&#xdb;" horiz-adv-x="570" 
d="M58 279v411h140v-411q0 -91 20 -130.5t67 -39.5t67 39.5t20 130.5v411h140v-411q0 -143 -59.5 -215.5t-167.5 -72.5t-167.5 72.5t-59.5 215.5zM339 738l-54 75l-54 -75h-123l119 142h116l119 -142h-123z" />
    <glyph glyph-name="Udieresis" unicode="&#xdc;" horiz-adv-x="570" 
d="M58 279v411h140v-411q0 -91 20 -130.5t67 -39.5t67 39.5t20 130.5v411h140v-411q0 -143 -59.5 -215.5t-167.5 -72.5t-167.5 72.5t-59.5 215.5zM249 752h-124v117h124v-117zM446 752h-124v117h124v-117z" />
    <glyph glyph-name="Yacute" unicode="&#xdd;" horiz-adv-x="507" 
d="M165 690l88 -253l88 253h160l-178 -408v-282h-140v282l-178 408h160zM310 742h-122l67 129h140z" />
    <glyph glyph-name="Thorn" unicode="&#xde;" horiz-adv-x="509" 
d="M274 136h-76v-136h-140v690h140v-107h76q103 0 161.5 -57t58.5 -164t-58.5 -166.5t-161.5 -59.5zM198 464v-210h52q56 0 80 25.5t24 82.5q0 52 -25 77t-79 25h-52z" />
    <glyph glyph-name="germandbls" unicode="&#xdf;" horiz-adv-x="445" 
d="M401 565q0 -66 -53 -98q30 -12 41.5 -38.5t11.5 -76.5v-212q0 -83 -29 -112q-28 -28 -91 -28h-68v106h26q34 0 34 52v191q0 32 -7 45.5t-27 13.5h-26v99h26q34 0 34 47q0 46 -44 46q-31 0 -44 -24.5t-13 -75.5v-500h-128v499q0 97 47.5 148.5t137.5 51.5
q81 0 126.5 -38.5t45.5 -95.5z" />
    <glyph glyph-name="agrave" unicode="&#xe0;" horiz-adv-x="426" 
d="M22 148q0 74 42.5 113t116.5 39h75v29q0 45 -12.5 59.5t-54.5 14.5q-28 0 -43.5 -8.5t-27.5 -31.5l-90 63q24 44 65 63.5t109 19.5q91 0 135.5 -41.5t44.5 -139.5v-328h-126v44q-26 -53 -89 -53q-65 0 -105 42t-40 115zM256 187v19h-57q-52 0 -52 -56t50 -56q33 0 46 21
t13 72zM90 725h136l59 -158h-120z" />
    <glyph glyph-name="aacute" unicode="&#xe1;" horiz-adv-x="426" 
d="M22 148q0 74 42.5 113t116.5 39h75v29q0 45 -12.5 59.5t-54.5 14.5q-28 0 -43.5 -8.5t-27.5 -31.5l-90 63q24 44 65 63.5t109 19.5q91 0 135.5 -41.5t44.5 -139.5v-328h-126v44q-26 -53 -89 -53q-65 0 -105 42t-40 115zM256 187v19h-57q-52 0 -52 -56t50 -56q33 0 46 21
t13 72zM259 567h-120l59 158h136z" />
    <glyph glyph-name="acircumflex" unicode="&#xe2;" horiz-adv-x="426" 
d="M22 148q0 74 42.5 113t116.5 39h75v29q0 45 -12.5 59.5t-54.5 14.5q-28 0 -43.5 -8.5t-27.5 -31.5l-90 63q24 44 65 63.5t109 19.5q91 0 135.5 -41.5t44.5 -139.5v-328h-126v44q-26 -53 -89 -53q-65 0 -105 42t-40 115zM256 187v19h-57q-52 0 -52 -56t50 -56q33 0 46 21
t13 72zM53 568l96 142h118l96 -142h-120l-35 70l-35 -70h-120z" />
    <glyph glyph-name="atilde" unicode="&#xe3;" horiz-adv-x="426" 
d="M22 148q0 74 42.5 113t116.5 39h75v29q0 45 -12.5 59.5t-54.5 14.5q-28 0 -43.5 -8.5t-27.5 -31.5l-90 63q24 44 65 63.5t109 19.5q91 0 135.5 -41.5t44.5 -139.5v-328h-126v44q-26 -53 -89 -53q-65 0 -105 42t-40 115zM256 187v19h-57q-52 0 -52 -56t50 -56q33 0 46 21
t13 72zM260 561q-29 0 -62 16t-47 16q-27 0 -46 -28l-67 59q47 68 112 68q26 0 59 -16t49 -16q23 0 44 29l66 -61q-45 -67 -108 -67z" />
    <glyph glyph-name="adieresis" unicode="&#xe4;" horiz-adv-x="426" 
d="M22 148q0 74 42.5 113t116.5 39h75v29q0 45 -12.5 59.5t-54.5 14.5q-28 0 -43.5 -8.5t-27.5 -31.5l-90 63q24 44 65 63.5t109 19.5q91 0 135.5 -41.5t44.5 -139.5v-328h-126v44q-26 -53 -89 -53q-65 0 -105 42t-40 115zM256 187v19h-57q-52 0 -52 -56t50 -56q33 0 46 21
t13 72zM181 573h-124v117h124v-117zM345 573h-123v117h123v-117z" />
    <glyph glyph-name="aring" unicode="&#xe5;" horiz-adv-x="426" 
d="M22 148q0 74 42.5 113t116.5 39h75v29q0 45 -12.5 59.5t-54.5 14.5q-28 0 -43.5 -8.5t-27.5 -31.5l-90 63q24 44 65 63.5t109 19.5q91 0 135.5 -41.5t44.5 -139.5v-328h-126v44q-26 -53 -89 -53q-65 0 -105 42t-40 115zM256 187v19h-57q-52 0 -52 -56t50 -56q33 0 46 21
t13 72zM127 567q-34 31 -34 79t34 79t89 31t89 -31t34 -79t-34 -79q-35 -30 -89 -30t-89 30zM179 646q0 -20 10 -32t27 -12q37 0 37 44q0 43 -37 43t-37 -43z" />
    <glyph glyph-name="ae" unicode="&#xe6;" horiz-adv-x="648" 
d="M514 141l92 -63q-22 -46 -58.5 -66.5t-99.5 -20.5q-90 0 -135 63q-47 -63 -139 -63q-70 0 -111 41.5t-41 115.5t42.5 113t116.5 39h75v29q0 45 -12.5 59.5t-54.5 14.5q-28 0 -43.5 -8.5t-27.5 -31.5l-90 63q24 44 65 63.5t109 19.5q83 0 120 -46q40 46 113 46
q179 0 179 -234v-57h-229q2 -65 15 -92t49 -27q27 0 39.5 8.5t25.5 33.5zM256 187v19h-57q-52 0 -52 -56t50 -56q33 0 46 21t13 72zM385 309h100q-5 92 -49 92q-45 0 -51 -92z" />
    <glyph glyph-name="ccedilla" unicode="&#xe7;" horiz-adv-x="382" 
d="M169 -72l11 67q-72 13 -112 72t-40 150v68q0 109 50.5 166.5t146.5 57.5q107 0 150 -82l-92 -65q-19 39 -59 39q-39 0 -53.5 -28.5t-14.5 -95.5v-52q0 -68 14 -97t54 -29q42 0 61 42l91 -63q-34 -74 -117 -84l-3 -16q44 -21 44 -72q0 -41 -30 -63.5t-79 -22.5
q-30 0 -41 4l13 65q16 -2 17 -2q23 0 23 21q0 20 -34 20z" />
    <glyph glyph-name="egrave" unicode="&#xe8;" horiz-adv-x="420" 
d="M285 141l92 -63q-22 -46 -58.5 -66.5t-99.5 -20.5q-92 0 -141.5 61t-49.5 165v68q0 109 47 166.5t131 57.5q179 0 179 -234v-57h-229q2 -65 15 -92t49 -27q27 0 39.5 8.5t25.5 33.5zM156 309h100q-5 92 -49 92q-45 0 -51 -92zM98 725h136l59 -158h-120z" />
    <glyph glyph-name="eacute" unicode="&#xe9;" horiz-adv-x="420" 
d="M285 141l92 -63q-22 -46 -58.5 -66.5t-99.5 -20.5q-92 0 -141.5 61t-49.5 165v68q0 109 47 166.5t131 57.5q179 0 179 -234v-57h-229q2 -65 15 -92t49 -27q27 0 39.5 8.5t25.5 33.5zM156 309h100q-5 92 -49 92q-45 0 -51 -92zM258 567h-120l59 158h136z" />
    <glyph glyph-name="ecircumflex" unicode="&#xea;" horiz-adv-x="420" 
d="M285 141l92 -63q-22 -46 -58.5 -66.5t-99.5 -20.5q-92 0 -141.5 61t-49.5 165v68q0 109 47 166.5t131 57.5q179 0 179 -234v-57h-229q2 -65 15 -92t49 -27q27 0 39.5 8.5t25.5 33.5zM156 309h100q-5 92 -49 92q-45 0 -51 -92zM55 568l96 142h118l96 -142h-120l-35 70
l-35 -70h-120z" />
    <glyph glyph-name="edieresis" unicode="&#xeb;" horiz-adv-x="420" 
d="M285 141l92 -63q-22 -46 -58.5 -66.5t-99.5 -20.5q-92 0 -141.5 61t-49.5 165v68q0 109 47 166.5t131 57.5q179 0 179 -234v-57h-229q2 -65 15 -92t49 -27q27 0 39.5 8.5t25.5 33.5zM156 309h100q-5 92 -49 92q-45 0 -51 -92zM186 573h-124v117h124v-117zM350 573h-123
v117h123v-117z" />
    <glyph glyph-name="igrave" unicode="&#xec;" horiz-adv-x="241" 
d="M185 0h-128v500h128v-500zM-14 725h136l59 -158h-120z" />
    <glyph glyph-name="iacute" unicode="&#xed;" horiz-adv-x="241" 
d="M185 0h-128v500h128v-500zM178 567h-120l59 158h136z" />
    <glyph glyph-name="icircumflex" unicode="&#xee;" horiz-adv-x="241" 
d="M185 0h-128v500h128v-500zM-35 568l96 142h118l96 -142h-120l-35 70l-35 -70h-120z" />
    <glyph glyph-name="idieresis" unicode="&#xef;" horiz-adv-x="241" 
d="M185 0h-128v500h128v-500zM100 573h-124v117h124v-117zM264 573h-123v117h123v-117z" />
    <glyph glyph-name="eth" unicode="&#xf0;" horiz-adv-x="434" 
d="M205 522l-75 35l21 45l-45 21l40 87l46 -20l21 46l75 -35l-23 -49q68 -40 101.5 -98t33.5 -146v-189q0 -110 -49 -169t-137 -59t-137 59t-49 169v62q0 107 46 167.5t123 60.5q53 0 87 -27q-9 50 -60 81zM156 277v-54q0 -66 13 -95t45 -29t45 29t13 95v54q0 66 -13 95
t-45 29t-45 -29t-13 -95z" />
    <glyph glyph-name="ntilde" unicode="&#xf1;" horiz-adv-x="457" 
d="M172 0h-128v500h125v-39q30 48 98 48q66 0 106 -49t40 -147v-313h-128v293q0 60 -11 83t-41 23q-61 0 -61 -105v-294zM285 561q-29 0 -62 16t-47 16q-27 0 -46 -28l-67 59q47 68 112 68q25 0 58 -16t50 -16q23 0 44 29l66 -61q-45 -67 -108 -67z" />
    <glyph glyph-name="ograve" unicode="&#xf2;" horiz-adv-x="428" 
d="M28 219v62q0 110 49 169t137 59t137 -59t49 -169v-62q0 -110 -49 -169t-137 -59t-137 59t-49 169zM156 277v-54q0 -66 13 -95t45 -29t45 29t13 95v54q0 66 -13 95t-45 29t-45 -29t-13 -95zM84 725h136l59 -158h-120z" />
    <glyph glyph-name="oacute" unicode="&#xf3;" horiz-adv-x="428" 
d="M28 219v62q0 110 49 169t137 59t137 -59t49 -169v-62q0 -110 -49 -169t-137 -59t-137 59t-49 169zM156 277v-54q0 -66 13 -95t45 -29t45 29t13 95v54q0 66 -13 95t-45 29t-45 -29t-13 -95zM276 567h-120l59 158h136z" />
    <glyph glyph-name="ocircumflex" unicode="&#xf4;" horiz-adv-x="428" 
d="M28 219v62q0 110 49 169t137 59t137 -59t49 -169v-62q0 -110 -49 -169t-137 -59t-137 59t-49 169zM156 277v-54q0 -66 13 -95t45 -29t45 29t13 95v54q0 66 -13 95t-45 29t-45 -29t-13 -95zM59 568l96 142h118l96 -142h-120l-35 70l-35 -70h-120z" />
    <glyph glyph-name="otilde" unicode="&#xf5;" horiz-adv-x="428" 
d="M28 219v62q0 110 49 169t137 59t137 -59t49 -169v-62q0 -110 -49 -169t-137 -59t-137 59t-49 169zM156 277v-54q0 -66 13 -95t45 -29t45 29t13 95v54q0 66 -13 95t-45 29t-45 -29t-13 -95zM270 561q-29 0 -62 16t-47 16q-27 0 -46 -28l-67 59q47 68 112 68q26 0 59 -16
t49 -16q23 0 44 29l66 -61q-45 -67 -108 -67z" />
    <glyph glyph-name="odieresis" unicode="&#xf6;" horiz-adv-x="428" 
d="M28 219v62q0 110 49 169t137 59t137 -59t49 -169v-62q0 -110 -49 -169t-137 -59t-137 59t-49 169zM156 277v-54q0 -66 13 -95t45 -29t45 29t13 95v54q0 66 -13 95t-45 29t-45 -29t-13 -95zM194 573h-124v117h124v-117zM358 573h-123v117h123v-117z" />
    <glyph glyph-name="divide" unicode="&#xf7;" 
d="M405 298h-332v112h332v-112zM300 460h-121v121h121v-121zM300 128h-121v120h121v-120z" />
    <glyph glyph-name="oslash" unicode="&#xf8;" horiz-adv-x="428" 
d="M170 -5l-25 -74h-91l39 112q-65 59 -65 186v62q0 110 49 169t137 59q28 0 43 -4l27 77h91l-40 -116q65 -59 65 -185v-62q0 -110 -49 -169t-137 -59q-27 0 -44 4zM272 223v63l-65 -187h7q32 0 45 29t13 95zM222 401h-8q-32 0 -45 -29t-13 -95v-63z" />
    <glyph glyph-name="ugrave" unicode="&#xf9;" horiz-adv-x="457" 
d="M285 500h128v-500h-125v38q-15 -25 -35 -36t-55 -11q-70 0 -112 48.5t-42 147.5v313h128v-293q0 -60 11 -83t41 -23q61 0 61 105v294zM107 725h136l59 -158h-120z" />
    <glyph glyph-name="uacute" unicode="&#xfa;" horiz-adv-x="457" 
d="M285 500h128v-500h-125v38q-15 -25 -35 -36t-55 -11q-70 0 -112 48.5t-42 147.5v313h128v-293q0 -60 11 -83t41 -23q61 0 61 105v294zM281 567h-120l59 158h136z" />
    <glyph glyph-name="ucircumflex" unicode="&#xfb;" horiz-adv-x="457" 
d="M285 500h128v-500h-125v38q-15 -25 -35 -36t-55 -11q-70 0 -112 48.5t-42 147.5v313h128v-293q0 -60 11 -83t41 -23q61 0 61 105v294zM73 568l96 142h118l96 -142h-120l-35 70l-35 -70h-120z" />
    <glyph glyph-name="udieresis" unicode="&#xfc;" horiz-adv-x="457" 
d="M285 500h128v-500h-125v38q-15 -25 -35 -36t-55 -11q-70 0 -112 48.5t-42 147.5v313h128v-293q0 -60 11 -83t41 -23q61 0 61 105v294zM208 573h-124v117h124v-117zM372 573h-123v117h123v-117z" />
    <glyph glyph-name="yacute" unicode="&#xfd;" horiz-adv-x="413" 
d="M149 -2l-144 502h136l74 -316l70 316h128l-147 -530q-27 -95 -68 -127q-41 -33 -131 -33v114q43 0 60.5 15.5t21.5 58.5zM271 567h-120l59 158h136z" />
    <glyph glyph-name="thorn" unicode="&#xfe;" horiz-adv-x="444" 
d="M43 690h128v-217q30 36 82 36q74 0 118.5 -59t44.5 -165v-68q0 -104 -43.5 -165t-119.5 -61q-53 0 -82 36v-217h-128v880zM230 99q34 0 46 29.5t12 96.5v52q0 66 -13 95t-45 29q-59 0 -59 -117v-61q-1 -63 10 -91.5t49 -32.5z" />
    <glyph glyph-name="ydieresis" unicode="&#xff;" horiz-adv-x="413" 
d="M149 -2l-144 502h136l74 -316l70 316h128l-147 -530q-27 -95 -68 -127q-41 -33 -131 -33v114q43 0 60.5 15.5t21.5 58.5zM194 573h-124v117h124v-117zM358 573h-123v117h123v-117z" />
    <glyph glyph-name="Amacron" unicode="&#x100;" horiz-adv-x="528" 
d="M352 131h-176l-33 -131h-146l199 690h136l199 -690h-146zM204 249h120l-60 243zM401 744h-274v112h274v-112z" />
    <glyph glyph-name="amacron" unicode="&#x101;" horiz-adv-x="426" 
d="M22 148q0 74 42.5 113t116.5 39h75v29q0 45 -12.5 59.5t-54.5 14.5q-28 0 -43.5 -8.5t-27.5 -31.5l-90 63q24 44 65 63.5t109 19.5q91 0 135.5 -41.5t44.5 -139.5v-328h-126v44q-26 -53 -89 -53q-65 0 -105 42t-40 115zM256 187v19h-57q-52 0 -52 -56t50 -56q33 0 46 21
t13 72zM329 573h-240v111h240v-111z" />
    <glyph glyph-name="Abreve" unicode="&#x102;" horiz-adv-x="528" 
d="M352 131h-176l-33 -131h-146l199 690h136l199 -690h-146zM204 249h120l-60 243zM322 879h111q0 -70 -47 -111t-122 -41t-122 41t-47 111h111q10 -54 58 -54t58 54z" />
    <glyph glyph-name="abreve" unicode="&#x103;" horiz-adv-x="426" 
d="M22 148q0 74 42.5 113t116.5 39h75v29q0 45 -12.5 59.5t-54.5 14.5q-28 0 -43.5 -8.5t-27.5 -31.5l-90 63q24 44 65 63.5t109 19.5q91 0 135.5 -41.5t44.5 -139.5v-328h-126v44q-26 -53 -89 -53q-65 0 -105 42t-40 115zM256 187v19h-57q-52 0 -52 -56t50 -56q33 0 46 21
t13 72zM267 690h93q-2 -63 -40.5 -97.5t-99.5 -34.5t-99.5 34.5t-40.5 97.5h93q5 -53 47 -53t47 53z" />
    <glyph glyph-name="Aogonek" unicode="&#x104;" horiz-adv-x="528" 
d="M195 690h136l199 -690q-31 -40 -31 -61q0 -22 17 -22q6 0 16 2l13 -65q-12 -4 -44 -4q-43 0 -71 19.5t-28 56.5q0 39 32 74h-50l-33 131h-176l-33 -131h-146zM203 249h120l-60 243z" />
    <glyph glyph-name="aogonek" unicode="&#x105;" horiz-adv-x="435" 
d="M22 148q0 74 42.5 113t116.5 39h76v29q0 45 -13 59.5t-55 14.5q-28 0 -43.5 -8.5t-27.5 -31.5l-90 63q24 44 65 63.5t109 19.5q91 0 135.5 -41.5t44.5 -139.5v-328q-1 -2 -22 -31q-9 -16 -9 -30q0 -22 18 -22q5 0 15 2l13 -65q-11 -4 -44 -4q-39 0 -69 18t-30 58t31 74
h-28v44q-26 -53 -90 -53q-65 0 -105 42t-40 115zM257 187v19h-58q-52 0 -52 -56t50 -56q33 0 46.5 21t13.5 72z" />
    <glyph glyph-name="Cacute" unicode="&#x106;" horiz-adv-x="505" 
d="M479 476h-133q-10 105 -78 105q-47 0 -67.5 -44t-20.5 -143v-98q0 -97 21 -142t67 -45q35 0 53 24.5t25 80.5h133q-29 -223 -211 -223q-108 0 -168 77.5t-60 227.5v98q0 151 60 228t168 77q88 0 142.5 -56.5t68.5 -166.5zM318 742h-122l67 129h140z" />
    <glyph glyph-name="cacute" unicode="&#x107;" horiz-adv-x="382" 
d="M285 141l91 -63q-40 -87 -156 -87q-89 0 -140.5 61t-51.5 165v68q0 109 50.5 166.5t146.5 57.5q107 0 150 -82l-92 -65q-19 39 -59 39q-39 0 -53.5 -28.5t-14.5 -95.5v-52q0 -68 14 -97t54 -29q42 0 61 42zM271 567h-120l59 158h136z" />
    <glyph glyph-name="Ccircumflex" unicode="&#x108;" horiz-adv-x="505" 
d="M479 476h-133q-10 105 -78 105q-47 0 -67.5 -44t-20.5 -143v-98q0 -97 21 -142t67 -45q35 0 53 24.5t25 80.5h133q-29 -223 -211 -223q-108 0 -168 77.5t-60 227.5v98q0 151 60 228t168 77q88 0 142.5 -56.5t68.5 -166.5zM322 738l-54 75l-54 -75h-123l119 142h116
l119 -142h-123z" />
    <glyph glyph-name="ccircumflex" unicode="&#x109;" horiz-adv-x="382" 
d="M285 141l91 -63q-40 -87 -156 -87q-89 0 -140.5 61t-51.5 165v68q0 109 50.5 166.5t146.5 57.5q107 0 150 -82l-92 -65q-19 39 -59 39q-39 0 -53.5 -28.5t-14.5 -95.5v-52q0 -68 14 -97t54 -29q42 0 61 42zM62 568l96 142h118l96 -142h-120l-35 70l-35 -70h-120z" />
    <glyph glyph-name="Cdotaccent" unicode="&#x10a;" horiz-adv-x="505" 
d="M479 476h-133q-10 105 -78 105q-47 0 -67.5 -44t-20.5 -143v-98q0 -97 21 -142t67 -45q35 0 53 24.5t25 80.5h133q-29 -223 -211 -223q-108 0 -168 77.5t-60 227.5v98q0 151 60 228t168 77q88 0 142.5 -56.5t68.5 -166.5zM336 759h-140v110h140v-110z" />
    <glyph glyph-name="cdotaccent" unicode="&#x10b;" horiz-adv-x="382" 
d="M285 141l91 -63q-40 -87 -156 -87q-89 0 -140.5 61t-51.5 165v68q0 109 50.5 166.5t146.5 57.5q107 0 150 -82l-92 -65q-19 39 -59 39q-39 0 -53.5 -28.5t-14.5 -95.5v-52q0 -68 14 -97t54 -29q42 0 61 42zM279 566h-128v124h128v-124z" />
    <glyph glyph-name="Ccaron" unicode="&#x10c;" horiz-adv-x="505" 
d="M479 476h-133q-10 105 -78 105q-47 0 -67.5 -44t-20.5 -143v-98q0 -97 21 -142t67 -45q35 0 53 24.5t25 80.5h133q-29 -223 -211 -223q-108 0 -168 77.5t-60 227.5v98q0 151 60 228t168 77q88 0 142.5 -56.5t68.5 -166.5zM94 880h123l54 -75l54 75h123l-119 -142h-116z
" />
    <glyph glyph-name="ccaron" unicode="&#x10d;" horiz-adv-x="382" 
d="M285 141l91 -63q-40 -87 -156 -87q-89 0 -140.5 61t-51.5 165v68q0 109 50.5 166.5t146.5 57.5q107 0 150 -82l-92 -65q-19 39 -59 39q-39 0 -53.5 -28.5t-14.5 -95.5v-52q0 -68 14 -97t54 -29q42 0 61 42zM372 710l-96 -142h-118l-96 142h120l35 -70l35 70h120z" />
    <glyph glyph-name="Dcaron" unicode="&#x10e;" horiz-adv-x="539" 
d="M272 0h-214v690h214q227 0 227 -300v-90q0 -300 -227 -300zM198 119h74q49 0 68 42t19 139v90q0 97 -19 139t-68 42h-74v-452zM77 880h123l54 -75l54 75h123l-119 -142h-116z" />
    <glyph glyph-name="dcaron" unicode="&#x10f;" horiz-adv-x="523" 
d="M273 473v217h128v-690h-128v27q-29 -36 -82 -36q-76 0 -119.5 61t-43.5 165v68q0 106 44.5 165t118.5 59q52 0 82 -36zM214 99q38 4 49 32.5t10 91.5v61q0 117 -59 117q-32 0 -45 -29t-13 -95v-52q0 -67 12 -96.5t46 -29.5zM456 689h137v-129l-137 -117v246z" />
    <glyph glyph-name="Dcroat" unicode="&#x110;" horiz-adv-x="547" 
d="M66 298h-75v118h75v274h214q227 0 227 -300v-90q0 -300 -227 -300h-214v298zM206 119h74q49 0 68 42t19 139v90q0 97 -19 139t-68 42h-74v-155h94v-118h-94v-179z" />
    <glyph glyph-name="dslash" unicode="&#x111;" horiz-adv-x="444" 
d="M273 473v65h-108v105h108v47h128v-47h63v-105h-63v-538h-128v27q-29 -36 -82 -36q-76 0 -119.5 61t-43.5 165v68q0 106 44.5 165t118.5 59q52 0 82 -36zM214 99q38 4 49 32.5t10 91.5v61q0 117 -59 117q-32 0 -45 -29t-13 -95v-52q0 -67 12 -96.5t46 -29.5z" />
    <glyph glyph-name="Emacron" unicode="&#x112;" horiz-adv-x="446" 
d="M58 0v690h364v-118h-224v-156h199v-118h-199v-180h224v-118h-364zM377 744h-274v112h274v-112z" />
    <glyph glyph-name="emacron" unicode="&#x113;" horiz-adv-x="420" 
d="M285 141l92 -63q-22 -46 -58.5 -66.5t-99.5 -20.5q-92 0 -141.5 61t-49.5 165v68q0 109 47 166.5t131 57.5q179 0 179 -234v-57h-229q2 -65 15 -92t49 -27q27 0 39.5 8.5t25.5 33.5zM156 309h100q-5 92 -49 92q-45 0 -51 -92zM330 573h-240v111h240v-111z" />
    <glyph glyph-name="Edotaccent" unicode="&#x116;" horiz-adv-x="446" 
d="M58 0v690h364v-118h-224v-156h199v-118h-199v-180h224v-118h-364zM310 759h-140v110h140v-110z" />
    <glyph glyph-name="edotaccent" unicode="&#x117;" horiz-adv-x="420" 
d="M285 141l92 -63q-22 -46 -58.5 -66.5t-99.5 -20.5q-92 0 -141.5 61t-49.5 165v68q0 109 47 166.5t131 57.5q179 0 179 -234v-57h-229q2 -65 15 -92t49 -27q27 0 39.5 8.5t25.5 33.5zM156 309h100q-5 92 -49 92q-45 0 -51 -92zM274 566h-128v124h128v-124z" />
    <glyph glyph-name="Eogonek" unicode="&#x118;" horiz-adv-x="446" 
d="M58 0v690h364v-119h-224v-155h199v-118h-199v-180h224v-118h-93q-31 -40 -31 -61q0 -22 17 -22q6 0 16 2l13 -65q-12 -4 -44 -4q-43 0 -71 19.5t-28 56.5q0 39 32 74h-175z" />
    <glyph glyph-name="eogonek" unicode="&#x119;" horiz-adv-x="420" 
d="M285 141l92 -63q-31 -67 -101 -81q-28 -38 -28 -58q0 -22 18 -22q5 0 15 2l13 -65q-11 -4 -44 -4q-42 0 -70.5 19t-28.5 57q0 37 26 69q-73 14 -111 72.5t-38 149.5v68q0 109 47 166.5t131 57.5q179 0 179 -234v-57h-229q2 -65 15 -92t49 -27q27 0 39.5 8.5t25.5 33.5z
M156 309h100q-5 92 -49 92q-45 0 -51 -92z" />
    <glyph glyph-name="Ecaron" unicode="&#x11a;" horiz-adv-x="446" 
d="M58 0v690h364v-118h-224v-156h199v-118h-199v-180h224v-118h-364zM63 880h123l54 -75l54 75h123l-119 -142h-116z" />
    <glyph glyph-name="ecaron" unicode="&#x11b;" horiz-adv-x="420" 
d="M285 141l92 -63q-22 -46 -58.5 -66.5t-99.5 -20.5q-92 0 -141.5 61t-49.5 165v68q0 109 47 166.5t131 57.5q179 0 179 -234v-57h-229q2 -65 15 -92t49 -27q27 0 39.5 8.5t25.5 33.5zM156 309h100q-5 92 -49 92q-45 0 -51 -92zM365 710l-96 -142h-118l-96 142h120l35 -70
l35 70h120z" />
    <glyph glyph-name="Gcircumflex" unicode="&#x11c;" horiz-adv-x="521" 
d="M479 476h-133q-10 105 -78 105q-47 0 -67.5 -44t-20.5 -143v-98q0 -97 21 -142t67 -45q38 0 57 31t22 101h-77v118h211v-62q0 -155 -51.5 -230.5t-161.5 -75.5q-108 0 -168 77.5t-60 227.5v98q0 151 60 228t168 77q88 0 142.5 -56.5t68.5 -166.5zM322 738l-54 75l-54 -75
h-123l119 142h116l119 -142h-123z" />
    <glyph glyph-name="gcircumflex" unicode="&#x11d;" horiz-adv-x="445" 
d="M273 473v27h128v-490q0 -116 -51 -161t-139 -45q-63 0 -103 20t-70 68l86 67q29 -48 76 -48q42 0 57.5 21t15.5 78v17q-29 -36 -82 -36q-76 0 -119.5 61t-43.5 165v68q0 106 44.5 165t118.5 59q52 0 82 -36zM214 99q38 4 49 32.5t10 91.5v61q0 117 -59 117q-32 0 -45 -29
t-13 -95v-52q0 -67 12 -96.5t46 -29.5zM83 568l96 142h118l96 -142h-120l-35 70l-35 -70h-120z" />
    <glyph glyph-name="Gbreve" unicode="&#x11e;" horiz-adv-x="521" 
d="M479 476h-133q-10 105 -78 105q-47 0 -67.5 -44t-20.5 -143v-98q0 -97 21 -142t67 -45q38 0 57 31t22 101h-77v118h211v-62q0 -155 -51.5 -230.5t-161.5 -75.5q-108 0 -168 77.5t-60 227.5v98q0 151 60 228t168 77q88 0 142.5 -56.5t68.5 -166.5zM324 879h111
q0 -70 -47 -111t-122 -41t-122 41t-47 111h111q10 -54 58 -54t58 54z" />
    <glyph glyph-name="gbreve" unicode="&#x11f;" horiz-adv-x="445" 
d="M273 473v27h128v-490q0 -116 -51 -161t-139 -45q-63 0 -103 20t-70 68l86 67q29 -48 76 -48q42 0 57.5 21t15.5 78v17q-29 -36 -82 -36q-76 0 -119.5 61t-43.5 165v68q0 106 44.5 165t118.5 59q52 0 82 -36zM214 99q38 4 49 32.5t10 91.5v61q0 117 -59 117q-32 0 -45 -29
t-13 -95v-52q0 -67 12 -96.5t46 -29.5zM285 690h93q-2 -63 -40.5 -97.5t-99.5 -34.5t-99.5 34.5t-40.5 97.5h93q5 -53 47 -53t47 53z" />
    <glyph glyph-name="Gdotaccent" unicode="&#x120;" horiz-adv-x="521" 
d="M479 476h-133q-10 105 -78 105q-47 0 -67.5 -44t-20.5 -143v-98q0 -97 21 -142t67 -45q38 0 57 31t22 101h-77v118h211v-62q0 -155 -51.5 -230.5t-161.5 -75.5q-108 0 -168 77.5t-60 227.5v98q0 151 60 228t168 77q88 0 142.5 -56.5t68.5 -166.5zM336 759h-140v110h140
v-110z" />
    <glyph glyph-name="gdotaccent" unicode="&#x121;" horiz-adv-x="445" 
d="M273 473v27h128v-490q0 -116 -51 -161t-139 -45q-63 0 -103 20t-70 68l86 67q29 -48 76 -48q42 0 57.5 21t15.5 78v17q-29 -36 -82 -36q-76 0 -119.5 61t-43.5 165v68q0 106 44.5 165t118.5 59q52 0 82 -36zM214 99q38 4 49 32.5t10 91.5v61q0 117 -59 117q-32 0 -45 -29
t-13 -95v-52q0 -67 12 -96.5t46 -29.5zM309 566h-128v124h128v-124z" />
    <glyph glyph-name="Gcommaaccent" unicode="&#x122;" horiz-adv-x="521" 
d="M479 476h-133q-10 105 -78 105q-47 0 -67.5 -44t-20.5 -143v-98q0 -97 21 -142t67 -45q38 0 57 31t22 101h-77v118h211v-62q0 -155 -51.5 -230.5t-161.5 -75.5q-108 0 -168 77.5t-60 227.5v98q0 151 60 228t168 77q88 0 142.5 -56.5t68.5 -166.5zM192 -51h137v-129
l-137 -117v246z" />
    <glyph glyph-name="gcommaaccent" unicode="&#x123;" horiz-adv-x="445" 
d="M273 473v27h128v-490q0 -116 -51 -161t-139 -45q-63 0 -103 20t-70 68l86 67q29 -48 76 -48q42 0 57.5 21t15.5 78v17q-29 -36 -82 -36q-76 0 -119.5 61t-43.5 165v68q0 106 44.5 165t118.5 59q52 0 82 -36zM214 99q38 4 49 32.5t10 91.5v61q0 117 -59 117q-32 0 -45 -29
t-13 -95v-52q0 -67 12 -96.5t46 -29.5zM287 542h-137v129l137 117v-246z" />
    <glyph glyph-name="Hcircumflex" unicode="&#x124;" horiz-adv-x="569" 
d="M58 690h140v-274h172v274h140v-690h-140v298h-172v-298h-140v690zM338 738l-54 75l-54 -75h-123l119 142h116l119 -142h-123z" />
    <glyph glyph-name="hcircumflex" unicode="&#x125;" horiz-adv-x="457" 
d="M172 0h-128v690h128v-228q32 47 95 47q66 0 106 -49t40 -147v-313h-128v293q0 60 -11 83t-41 23q-61 0 -61 -105v-294zM-56 734l96 142h118l96 -142h-120l-35 70l-35 -70h-120z" />
    <glyph glyph-name="Hbar" unicode="&#x126;" horiz-adv-x="586" 
d="M67 690h140v-97h172v97h140v-97h75v-125h-75v-468h-140v298h-172v-298h-140v468h-75v125h75v97zM207 468v-52h172v52h-172z" />
    <glyph glyph-name="hbar" unicode="&#x127;" horiz-adv-x="454" 
d="M41 538h-63v105h63v47h128v-47h105v-105h-105v-77q30 48 95 48q66 0 106 -49t40 -147v-313h-128v293q0 60 -11 83t-41 23q-61 0 -61 -105v-294h-128v538z" />
    <glyph glyph-name="Imacron" unicode="&#x12a;" horiz-adv-x="273" 
d="M66 690h140v-690h-140v690zM273 744h-274v112h274v-112z" />
    <glyph glyph-name="imacron" unicode="&#x12b;" horiz-adv-x="241" 
d="M185 0h-128v500h128v-500zM240 573h-240v111h240v-111z" />
    <glyph glyph-name="Iogonek" unicode="&#x12e;" horiz-adv-x="271" 
d="M65 690h140v-690q-31 -40 -31 -61q0 -22 17 -22q6 0 16 2l13 -65q-12 -4 -44 -4q-43 0 -71 19.5t-28 56.5q0 39 32 74h-44v690z" />
    <glyph glyph-name="iogonek" unicode="&#x12f;" horiz-adv-x="241" 
d="M88 0h-31v500h128v-500q-1 -2 -22 -31q-9 -17 -9 -30q0 -22 18 -22q5 0 15 2l13 -65q-11 -4 -44 -4q-39 0 -69 18t-30 58t31 74zM185 566h-128v124h128v-124z" />
    <glyph glyph-name="Idot" unicode="&#x130;" horiz-adv-x="273" 
d="M66 690h140v-690h-140v690zM206 759h-140v110h140v-110z" />
    <glyph glyph-name="dotlessi" unicode="&#x131;" horiz-adv-x="241" 
d="M185 0h-128v500h128v-500z" />
    <glyph glyph-name="Jcircumflex" unicode="&#x134;" horiz-adv-x="442" 
d="M-8 94l111 70q30 -48 72 -48q39 0 54 31.5t15 117.5v425h140v-425q0 -274 -198 -274q-131 0 -194 103zM365 738l-54 75l-54 -75h-123l119 142h116l119 -142h-123z" />
    <glyph glyph-name="jcircumflex" unicode="&#x135;" horiz-adv-x="214" 
d="M50 500h128v-527q0 -90 -42.5 -126.5t-135.5 -36.5v110q50 0 50 71v509zM-48 568l96 142h118l96 -142h-120l-35 70l-35 -70h-120z" />
    <glyph glyph-name="Kcommaaccent" unicode="&#x136;" horiz-adv-x="545" 
d="M353 434l182 -434h-152l-119 288l-67 -112v-176h-140v690h140v-287l151 287h160zM203 -51h137v-129l-137 -117v246z" />
    <glyph glyph-name="kcommaaccent" unicode="&#x137;" horiz-adv-x="433" 
d="M172 328l91 172h144l-119 -187l143 -313h-141l-83 189l-35 -53v-136h-128v690h128v-362zM151 -51h137v-129l-137 -117v246z" />
    <glyph glyph-name="Lacute" unicode="&#x139;" horiz-adv-x="426" 
d="M58 690h140v-572h223v-118h-363v690zM186 742h-122l67 129h140z" />
    <glyph glyph-name="lacute" unicode="&#x13a;" horiz-adv-x="254" 
d="M44 160v530h128v-501q0 -79 54 -79v-110q-95 0 -138.5 36.5t-43.5 123.5zM168 723h-120l59 158h136z" />
    <glyph glyph-name="Lcommaaccent" unicode="&#x13b;" horiz-adv-x="426" 
d="M58 690h140v-572h223v-118h-363v690zM163 -51h137v-129l-137 -117v246z" />
    <glyph glyph-name="lcommaaccent" unicode="&#x13c;" horiz-adv-x="254" 
d="M44 160v530h128v-501q0 -79 54 -79v-110q-95 0 -138.5 36.5t-43.5 123.5zM59 -51h137v-129l-137 -117v246z" />
    <glyph glyph-name="Lcaron" unicode="&#x13d;" horiz-adv-x="426" 
d="M38 690h140v-572h223v-118h-363v690zM262 706h134v-165l-134 -114v279z" />
    <glyph glyph-name="lcaron" unicode="&#x13e;" horiz-adv-x="254" 
d="M44 160v530h128v-501q0 -79 54 -79v-110q-95 0 -138.5 36.5t-43.5 123.5zM202 689h137v-129l-137 -117v246z" />
    <glyph glyph-name="Ldot" unicode="&#x13f;" horiz-adv-x="449" 
d="M38 690h140v-572h223v-118h-363v690zM411 323h-128v124h128v-124z" />
    <glyph glyph-name="ldot" unicode="&#x140;" horiz-adv-x="371" 
d="M44 160v530h128v-501q0 -79 54 -79v-110q-95 0 -138.5 36.5t-43.5 123.5zM365 344h-140v110h140v-110z" />
    <glyph glyph-name="Lslash" unicode="&#x141;" horiz-adv-x="474" 
d="M105 237l-52 -44l-76 89l128 109v299h140v-179l66 57l76 -89l-142 -122v-239h223v-118h-363v237z" />
    <glyph glyph-name="lslash" unicode="&#x142;" horiz-adv-x="324" 
d="M102 271l-50 -35l-61 86l111 78v290h128v-200l41 29l61 -85l-102 -72v-173q0 -79 54 -79v-110q-95 0 -138.5 36.5t-43.5 123.5v111z" />
    <glyph glyph-name="Nacute" unicode="&#x143;" horiz-adv-x="569" 
d="M370 307v383h140v-690h-117l-195 377v-377h-140v690h116zM335 742h-122l67 129h140z" />
    <glyph glyph-name="nacute" unicode="&#x144;" horiz-adv-x="457" 
d="M172 0h-128v500h125v-39q30 48 98 48q66 0 106 -49t40 -147v-313h-128v293q0 60 -11 83t-41 23q-61 0 -61 -105v-294zM270 567h-120l59 158h136z" />
    <glyph glyph-name="Ncommaaccent" unicode="&#x145;" horiz-adv-x="569" 
d="M370 307v383h140v-690h-117l-195 377v-377h-140v690h116zM212 -51h137v-129l-137 -117v246z" />
    <glyph glyph-name="ncommaaccent" unicode="&#x146;" horiz-adv-x="457" 
d="M172 0h-128v500h125v-39q30 48 98 48q66 0 106 -49t40 -147v-313h-128v293q0 60 -11 83t-41 23q-61 0 -61 -105v-294zM160 -51h137v-129l-137 -117v246z" />
    <glyph glyph-name="Ncaron" unicode="&#x147;" horiz-adv-x="569" 
d="M370 307v383h140v-690h-117l-195 377v-377h-140v690h116zM107 880h123l54 -75l54 75h123l-119 -142h-116z" />
    <glyph glyph-name="ncaron" unicode="&#x148;" horiz-adv-x="457" 
d="M172 0h-128v500h125v-39q30 48 98 48q66 0 106 -49t40 -147v-313h-128v293q0 60 -11 83t-41 23q-61 0 -61 -105v-294zM383 710l-96 -142h-118l-96 142h120l35 -70l35 70h120z" />
    <glyph glyph-name="Omacron" unicode="&#x14c;" horiz-adv-x="536" 
d="M496 394v-98q0 -153 -59 -229t-169 -76t-169 76t-59 229v98q0 153 59 229t169 76t169 -76t59 -229zM180 394v-98q0 -101 21 -144t67 -43t67 43t21 144v98q0 101 -21 144t-67 43t-67 -43t-21 -144zM405 744h-274v112h274v-112z" />
    <glyph glyph-name="omacron" unicode="&#x14d;" horiz-adv-x="428" 
d="M28 219v62q0 110 49 169t137 59t137 -59t49 -169v-62q0 -110 -49 -169t-137 -59t-137 59t-49 169zM156 277v-54q0 -66 13 -95t45 -29t45 29t13 95v54q0 66 -13 95t-45 29t-45 -29t-13 -95zM334 573h-240v111h240v-111z" />
    <glyph glyph-name="Ohungarumlaut" unicode="&#x150;" horiz-adv-x="536" 
d="M496 394v-98q0 -153 -59 -229t-169 -76t-169 76t-59 229v98q0 153 59 229t169 76t169 -76t59 -229zM180 394v-98q0 -101 21 -144t67 -43t67 43t21 144v98q0 101 -21 144t-67 43t-67 -43t-21 -144zM208 742h-122l67 129h140zM411 742h-122l67 129h140z" />
    <glyph glyph-name="ohungarumlaut" unicode="&#x151;" horiz-adv-x="428" 
d="M28 219v62q0 110 49 169t137 59t137 -59t49 -169v-62q0 -110 -49 -169t-137 -59t-137 59t-49 169zM156 277v-54q0 -66 13 -95t45 -29t45 29t13 95v54q0 66 -13 95t-45 29t-45 -29t-13 -95zM180 567h-120l59 158h136zM351 567h-120l59 158h136z" />
    <glyph glyph-name="OE" unicode="&#x152;" horiz-adv-x="745" 
d="M356 668v22h364v-119h-224v-155h199v-118h-199v-180h224v-118h-364v20q-41 -29 -100 -29q-101 0 -158.5 77.5t-57.5 227.5v98q0 150 57.5 227.5t158.5 77.5q60 0 100 -31zM180 394v-98q0 -101 21 -144t67 -43q44 0 65 38.5t23 128.5v118q0 101 -21 144t-67 43t-67 -43
t-21 -144z" />
    <glyph glyph-name="oe" unicode="&#x153;" horiz-adv-x="664" 
d="M529 141l92 -63q-22 -46 -58.5 -66.5t-99.5 -20.5q-82 0 -126 56q-42 -56 -123 -56q-88 0 -137 59t-49 169v62q0 110 49 169t137 59q78 0 120 -54q40 54 116 54q179 0 179 -234v-57h-229q2 -65 15 -92t49 -27q27 0 39.5 8.5t25.5 33.5zM156 277v-54q0 -66 13 -95t45 -29
t45 29t13 95v54q0 66 -13 95t-45 29t-45 -29t-13 -95zM400 309h100q-5 92 -49 92q-45 0 -51 -92z" />
    <glyph glyph-name="Racute" unicode="&#x154;" horiz-adv-x="531" 
d="M398 295l117 -295h-147l-101 271h-69v-271h-140v690h216q103 0 161.5 -54.5t58.5 -156.5q0 -135 -96 -184zM198 571v-182h60q50 0 73 20.5t23 69.5q0 50 -23.5 71t-72.5 21h-60zM297 742h-122l67 129h140z" />
    <glyph glyph-name="racute" unicode="&#x155;" horiz-adv-x="362" 
d="M370 430l-96 -69q-20 38 -48 38q-54 0 -54 -105v-294h-128v500h125v-39q31 48 87 48q75 0 114 -79zM231 567h-120l59 158h136z" />
    <glyph glyph-name="Rcommaaccent" unicode="&#x156;" horiz-adv-x="531" 
d="M398 295l117 -295h-147l-101 271h-69v-271h-140v690h216q103 0 161.5 -54.5t58.5 -156.5q0 -135 -96 -184zM198 571v-182h60q50 0 73 20.5t23 69.5q0 50 -23.5 71t-72.5 21h-60zM206 -51h137v-129l-137 -117v246z" />
    <glyph glyph-name="rcommaaccent" unicode="&#x157;" horiz-adv-x="362" 
d="M370 430l-96 -69q-20 38 -48 38q-54 0 -54 -105v-294h-128v500h125v-39q31 48 87 48q75 0 114 -79zM39 -51h137v-129l-137 -117v246z" />
    <glyph glyph-name="Rcaron" unicode="&#x158;" horiz-adv-x="531" 
d="M398 295l117 -295h-147l-101 271h-69v-271h-140v690h216q103 0 161.5 -54.5t58.5 -156.5q0 -135 -96 -184zM198 571v-182h60q50 0 73 20.5t23 69.5q0 50 -23.5 71t-72.5 21h-60zM82 880h123l54 -75l54 75h123l-119 -142h-116z" />
    <glyph glyph-name="rcaron" unicode="&#x159;" horiz-adv-x="362" 
d="M370 430l-96 -69q-20 38 -48 38q-54 0 -54 -105v-294h-128v500h125v-39q31 48 87 48q75 0 114 -79zM348 710l-96 -142h-118l-96 142h120l35 -70l35 70h120z" />
    <glyph glyph-name="Sacute" unicode="&#x15a;" horiz-adv-x="494" 
d="M455 587l-101 -73q-46 67 -99 67q-71 0 -71 -76q0 -38 22.5 -59.5t80.5 -40.5q95 -31 136 -78q40 -46 40 -135q0 -88 -54 -145q-54 -56 -151 -56q-151 0 -228 113l105 74q29 -37 54 -53t59 -16q75 0 75 77q0 37 -23.5 60t-85.5 43q-88 29 -129 80.5t-41 135.5
q0 89 53 141.5t152 52.5q148 0 206 -112zM295 742h-122l67 129h140z" />
    <glyph glyph-name="sacute" unicode="&#x15b;" horiz-adv-x="405" 
d="M370 425l-92 -65q-26 39 -74 39q-43 0 -43 -41q0 -21 13.5 -31t53.5 -18q77 -15 112 -53t35 -109q0 -73 -45 -114.5t-126 -41.5q-129 0 -182 83l95 69q13 -23 32 -32.5t53 -9.5q45 0 45 41q0 23 -13.5 34t-52.5 20q-72 17 -109.5 54.5t-37.5 104.5q0 72 45 113t125 41
q124 0 166 -84zM245 567h-120l59 158h136z" />
    <glyph glyph-name="Scircumflex" unicode="&#x15c;" horiz-adv-x="494" 
d="M455 587l-101 -73q-46 67 -99 67q-71 0 -71 -76q0 -38 22.5 -59.5t80.5 -40.5q95 -31 136 -78q40 -46 40 -135q0 -88 -54 -145q-54 -56 -151 -56q-151 0 -228 113l105 74q29 -37 54 -53t59 -16q75 0 75 77q0 37 -23.5 60t-85.5 43q-88 29 -129 80.5t-41 135.5
q0 89 53 141.5t152 52.5q148 0 206 -112zM305 738l-54 75l-54 -75h-123l119 142h116l119 -142h-123z" />
    <glyph glyph-name="scircumflex" unicode="&#x15d;" horiz-adv-x="405" 
d="M370 425l-92 -65q-26 39 -74 39q-43 0 -43 -41q0 -21 13.5 -31t53.5 -18q77 -15 112 -53t35 -109q0 -73 -45 -114.5t-126 -41.5q-129 0 -182 83l95 69q13 -23 32 -32.5t53 -9.5q45 0 45 41q0 23 -13.5 34t-52.5 20q-72 17 -109.5 54.5t-37.5 104.5q0 72 45 113t125 41
q124 0 166 -84zM46 568l96 142h118l96 -142h-120l-35 70l-35 -70h-120z" />
    <glyph glyph-name="Scedilla" unicode="&#x15e;" horiz-adv-x="494" 
d="M201 -72l12 66q-118 12 -183 110l105 74q29 -37 54 -53t59 -16q75 0 75 77q0 39 -23 61.5t-85 42.5q-89 30 -130 81t-41 134q0 89 53 141.5t152 52.5q148 0 206 -112l-101 -73q-46 67 -99 67q-71 0 -71 -76q0 -39 22 -60.5t80 -40.5q97 -32 136 -77q41 -47 41 -135
q0 -81 -46 -135t-127 -64l-3 -15q21 -9 33.5 -28.5t12.5 -43.5q0 -42 -29.5 -64t-79.5 -22q-30 0 -42 4l14 65q14 -2 16 -2q23 0 23 21q0 20 -34 20z" />
    <glyph glyph-name="scedilla" unicode="&#x15f;" horiz-adv-x="405" 
d="M155 -72l11 65q-99 9 -144 81l95 69q13 -23 32 -32.5t53 -9.5q45 0 45 41q0 23 -13.5 34t-52.5 20q-72 17 -109.5 54.5t-37.5 104.5q0 72 45 113t125 41q124 0 166 -84l-92 -65q-26 39 -74 39q-43 0 -43 -41q0 -21 13.5 -31t53.5 -18q77 -15 112 -53t35 -109
q0 -63 -34 -103t-96 -50l-3 -16q44 -21 44 -72q0 -41 -30 -63.5t-79 -22.5q-30 0 -41 4l13 65q16 -2 17 -2q23 0 23 21q0 20 -34 20z" />
    <glyph glyph-name="Scaron" unicode="&#x160;" horiz-adv-x="494" 
d="M455 587l-101 -73q-46 67 -99 67q-71 0 -71 -76q0 -38 22.5 -59.5t80.5 -40.5q95 -31 136 -78q40 -46 40 -135q0 -88 -54 -145q-54 -56 -151 -56q-151 0 -228 113l105 74q29 -37 54 -53t59 -16q75 0 75 77q0 37 -23.5 60t-85.5 43q-88 29 -129 80.5t-41 135.5
q0 89 53 141.5t152 52.5q148 0 206 -112zM74 880h123l54 -75l54 75h123l-119 -142h-116z" />
    <glyph glyph-name="scaron" unicode="&#x161;" horiz-adv-x="405" 
d="M370 425l-92 -65q-26 39 -74 39q-43 0 -43 -41q0 -21 13.5 -31t53.5 -18q77 -15 112 -53t35 -109q0 -73 -45 -114.5t-126 -41.5q-129 0 -182 83l95 69q13 -23 32 -32.5t53 -9.5q45 0 45 41q0 23 -13.5 34t-52.5 20q-72 17 -109.5 54.5t-37.5 104.5q0 72 45 113t125 41
q124 0 166 -84zM364 710l-96 -142h-118l-96 142h120l35 -70l35 70h120z" />
    <glyph glyph-name="Tcedilla" unicode="&#x162;" horiz-adv-x="454" 
d="M173 -72l13 72h-29v571h-150v119h440v-119h-150v-571h-34l-4 -22q21 -9 33.5 -28.5t12.5 -43.5q0 -42 -29.5 -64t-79.5 -22q-30 0 -42 4l14 65q14 -2 16 -2q23 0 23 21q0 20 -34 20z" />
    <glyph glyph-name="tcedilla" unicode="&#x163;" horiz-adv-x="293" 
d="M137 -72l14 80q-45 12 -65.5 49t-20.5 106v229h-53v108h53v110h128v-110h76v-108h-76v-209q0 -39 9 -55t32 -16h35v-112h-41l-4 -22q44 -21 44 -72q0 -41 -30 -63.5t-79 -22.5q-30 0 -41 4l13 65q16 -2 17 -2q23 0 23 21q0 20 -34 20z" />
    <glyph glyph-name="Tcaron" unicode="&#x164;" horiz-adv-x="454" 
d="M7 571v119h440v-119h-150v-571h-140v571h-150zM50 880h123l54 -75l54 75h123l-119 -142h-116z" />
    <glyph glyph-name="tcaron" unicode="&#x165;" horiz-adv-x="331" 
d="M65 392h-53v108h53v110h128v-110h76v-108h-76v-209q0 -39 9 -55t32 -16h35v-112h-48q-83 0 -119.5 36t-36.5 127v229zM296 689h137v-129l-137 -117v246z" />
    <glyph glyph-name="Umacron" unicode="&#x16a;" horiz-adv-x="570" 
d="M58 279v411h140v-411q0 -91 20 -130.5t67 -39.5t67 39.5t20 130.5v411h140v-411q0 -143 -59.5 -215.5t-167.5 -72.5t-167.5 72.5t-59.5 215.5zM422 744h-274v112h274v-112z" />
    <glyph glyph-name="umacron" unicode="&#x16b;" horiz-adv-x="457" 
d="M285 500h128v-500h-125v38q-15 -25 -35 -36t-55 -11q-70 0 -112 48.5t-42 147.5v313h128v-293q0 -60 11 -83t41 -23q61 0 61 105v294zM348 573h-240v111h240v-111z" />
    <glyph glyph-name="Ubreve" unicode="&#x16c;" horiz-adv-x="570" 
d="M58 279v411h140v-411q0 -91 20 -130.5t67 -39.5t67 39.5t20 130.5v411h140v-411q0 -143 -59.5 -215.5t-167.5 -72.5t-167.5 72.5t-59.5 215.5zM343 879h111q0 -70 -47 -111t-122 -41t-122 41t-47 111h111q11 -54 58 -54t58 54z" />
    <glyph glyph-name="ubreve" unicode="&#x16d;" horiz-adv-x="457" 
d="M285 500h128v-500h-125v38q-15 -25 -35 -36t-55 -11q-70 0 -112 48.5t-42 147.5v313h128v-293q0 -60 11 -83t41 -23q61 0 61 105v294zM275 690h93q-2 -63 -40.5 -97.5t-99.5 -34.5t-99.5 34.5t-40.5 97.5h93q5 -53 47 -53t47 53z" />
    <glyph glyph-name="Uring" unicode="&#x16e;" horiz-adv-x="570" 
d="M58 279v411h140v-411q0 -91 20 -130.5t67 -39.5t67 39.5t20 130.5v411h140v-411q0 -143 -59.5 -215.5t-167.5 -72.5t-167.5 72.5t-59.5 215.5zM169 800q0 45 32 72t83 27q52 0 84.5 -27t32.5 -72q0 -44 -32.5 -71t-84.5 -27q-51 0 -83 27t-32 71zM284 769q37 0 37 31
t-37 31q-36 0 -36 -31t36 -31z" />
    <glyph glyph-name="uring" unicode="&#x16f;" horiz-adv-x="457" 
d="M285 500h128v-500h-125v38q-15 -25 -35 -36t-55 -11q-70 0 -112 48.5t-42 147.5v313h128v-293q0 -60 11 -83t41 -23q61 0 61 105v294zM139 567q-34 31 -34 79t34 79t89 31t89 -31t34 -79t-34 -79q-34 -30 -89 -30q-54 0 -89 30zM191 646q0 -20 10 -32t27 -12q37 0 37 44
q0 43 -37 43t-37 -43z" />
    <glyph glyph-name="Uhungarumlaut" unicode="&#x170;" horiz-adv-x="570" 
d="M58 279v411h140v-411q0 -91 20 -130.5t67 -39.5t67 39.5t20 130.5v411h140v-411q0 -143 -59.5 -215.5t-167.5 -72.5t-167.5 72.5t-59.5 215.5zM229 742h-122l67 129h140zM432 742h-122l67 129h140z" />
    <glyph glyph-name="uhungarumlaut" unicode="&#x171;" horiz-adv-x="457" 
d="M285 500h128v-500h-125v38q-15 -25 -35 -36t-55 -11q-70 0 -112 48.5t-42 147.5v313h128v-293q0 -60 11 -83t41 -23q61 0 61 105v294zM196 567h-120l59 158h136zM367 567h-120l59 158h136z" />
    <glyph glyph-name="Uogonek" unicode="&#x172;" horiz-adv-x="570" 
d="M58 279v411h140v-411q0 -91 20 -130.5t67 -39.5t67 39.5t20 130.5v411h140v-411q0 -143 -59.5 -215.5t-167.5 -72.5t-167.5 72.5t-59.5 215.5zM302 49l32 -49q-31 -40 -31 -61q0 -22 17 -22q6 0 16 2l13 -65q-12 -4 -44 -4q-43 0 -71 19.5t-28 56.5q0 64 96 123z" />
    <glyph glyph-name="uogonek" unicode="&#x173;" horiz-adv-x="457" 
d="M284 500h128v-500q-1 -2 -22 -31q-9 -16 -9 -30q0 -22 18 -22q5 0 15 2l13 -65q-11 -4 -44 -4q-39 0 -69 18t-30 58t31 74h-28v38q-15 -25 -35 -36t-55 -11q-70 0 -112 48.5t-42 147.5v313h128v-293q0 -60 11 -83t41 -23q61 0 61 105v294z" />
    <glyph glyph-name="Ydieresis" unicode="&#x178;" horiz-adv-x="507" 
d="M165 690l88 -253l88 253h160l-178 -408v-282h-140v282l-178 408h160zM217 752h-124v117h124v-117zM414 752h-124v117h124v-117z" />
    <glyph glyph-name="Zacute" unicode="&#x179;" horiz-adv-x="437" 
d="M26 571v119h382v-92l-220 -480h229v-118h-391v92l223 479h-223zM272 742h-122l67 129h140z" />
    <glyph glyph-name="zacute" unicode="&#x17a;" horiz-adv-x="382" 
d="M25 0v89l170 303h-167v108h323v-89l-171 -303h179v-108h-334zM247 567h-120l59 158h136z" />
    <glyph glyph-name="Zdotaccent" unicode="&#x17b;" horiz-adv-x="437" 
d="M26 571v119h382v-92l-220 -480h229v-118h-391v92l223 479h-223zM293 759h-140v110h140v-110z" />
    <glyph glyph-name="zdotaccent" unicode="&#x17c;" horiz-adv-x="382" 
d="M25 0v89l170 303h-167v108h323v-89l-171 -303h179v-108h-334zM258 566h-128v124h128v-124z" />
    <glyph glyph-name="Zcaron" unicode="&#x17d;" horiz-adv-x="437" 
d="M26 571v119h382v-92l-220 -480h229v-118h-391v92l223 479h-223zM43 880h123l54 -75l54 75h123l-119 -142h-116z" />
    <glyph glyph-name="zcaron" unicode="&#x17e;" horiz-adv-x="382" 
d="M25 0v89l170 303h-167v108h323v-89l-171 -303h179v-108h-334zM350 710l-96 -142h-118l-96 142h120l35 -70l35 70h120z" />
    <glyph glyph-name="uni018F" unicode="&#x18f;" horiz-adv-x="513" 
d="M175 476h-133q14 110 68.5 166.5t142.5 56.5q108 0 168 -77t60 -228v-98q0 -150 -60 -227.5t-168 -77.5q-110 0 -161.5 75.5t-51.5 230.5v72h301v25q0 99 -20.5 143t-67.5 44q-67 0 -78 -105zM253 109q78 0 87 142h-166q0 -142 79 -142z" />
    <glyph glyph-name="florin" unicode="&#x192;" 
d="M109 381v119h53v27q0 88 40.5 125.5t124.5 37.5h35v-119h-18q-45 0 -45 -71h63v-119h-63v-395q0 -94 -47 -135t-143 -41v119q29 0 41 16.5t12 53.5v382h-53z" />
    <glyph glyph-name="uni01DD" unicode="&#x1dd;" horiz-adv-x="420" 
d="M135 359l-92 63q22 46 58.5 66.5t99.5 20.5q92 0 141.5 -61t49.5 -165v-68q0 -109 -47 -166.5t-131 -57.5q-179 0 -179 234v57h229q-2 65 -15 92t-49 27q-27 0 -39.5 -8.5t-25.5 -33.5zM264 191h-100q5 -92 49 -92q45 0 51 92z" />
    <glyph glyph-name="Scommaaccent" unicode="&#x218;" horiz-adv-x="494" 
d="M455 587l-101 -73q-46 67 -99 67q-71 0 -71 -76q0 -38 22.5 -59.5t80.5 -40.5q95 -31 136 -78q40 -46 40 -135q0 -88 -54 -145q-54 -56 -151 -56q-151 0 -228 113l105 74q29 -37 54 -53t59 -16q75 0 75 77q0 37 -23.5 60t-85.5 43q-88 29 -129 80.5t-41 135.5
q0 89 53 141.5t152 52.5q148 0 206 -112zM185 -51h137v-129l-137 -117v246z" />
    <glyph glyph-name="scommaaccent" unicode="&#x219;" horiz-adv-x="405" 
d="M370 425l-92 -65q-26 39 -74 39q-43 0 -43 -41q0 -21 13.5 -31t53.5 -18q77 -15 112 -53t35 -109q0 -73 -45 -114.5t-126 -41.5q-129 0 -182 83l95 69q13 -23 32 -32.5t53 -9.5q45 0 45 41q0 23 -13.5 34t-52.5 20q-72 17 -109.5 54.5t-37.5 104.5q0 72 45 113t125 41
q124 0 166 -84zM130 -51h137v-129l-137 -117v246z" />
    <glyph glyph-name="Tcommaaccent" unicode="&#x21a;" horiz-adv-x="454" 
d="M7 571v119h440v-119h-150v-571h-140v571h-150zM159 -51h137v-129l-137 -117v246z" />
    <glyph glyph-name="tcommaaccent" unicode="&#x21b;" horiz-adv-x="293" 
d="M65 392h-53v108h53v110h128v-110h76v-108h-76v-209q0 -39 9 -55t32 -16h35v-112h-48q-83 0 -119.5 36t-36.5 127v229zM97 -51h137v-129l-137 -117v246z" />
    <glyph glyph-name="uni0237" unicode="&#x237;" horiz-adv-x="214" 
d="M50 500h128v-527q0 -90 -42.5 -126.5t-135.5 -36.5v110q50 0 50 71v509z" />
    <glyph glyph-name="uni0259" unicode="&#x259;" horiz-adv-x="420" 
d="M135 359l-92 63q22 46 58.5 66.5t99.5 20.5q92 0 141.5 -61t49.5 -165v-68q0 -109 -47 -166.5t-131 -57.5q-179 0 -179 234v57h229q-2 65 -15 92t-49 27q-27 0 -39.5 -8.5t-25.5 -33.5zM264 191h-100q5 -92 49 -92q45 0 51 92z" />
    <glyph glyph-name="afii57929" unicode="&#x2bc;" horiz-adv-x="165" 
d="M25 500h136v-146l-136 -117v263z" />
    <glyph glyph-name="circumflex" unicode="&#x2c6;" horiz-adv-x="348" 
d="M19 568l96 142h118l96 -142h-120l-35 70l-35 -70h-120z" />
    <glyph glyph-name="caron" unicode="&#x2c7;" horiz-adv-x="348" 
d="M329 710l-96 -142h-118l-96 142h120l35 -70l35 70h120z" />
    <glyph glyph-name="breve" unicode="&#x2d8;" horiz-adv-x="348" 
d="M221 690h93q-2 -63 -40.5 -97.5t-99.5 -34.5t-99.5 34.5t-40.5 97.5h93q5 -53 47 -53t47 53z" />
    <glyph glyph-name="dotaccent" unicode="&#x2d9;" horiz-adv-x="283" 
d="M205 566h-128v124h128v-124z" />
    <glyph glyph-name="ring" unicode="&#x2da;" horiz-adv-x="327" 
d="M74 567q-34 31 -34 79t34 79t89 31t89 -31t34 -79t-34 -79q-34 -30 -89 -30t-89 30zM126 646q0 -20 10 -32t27 -12q37 0 37 44q0 43 -37 43t-37 -43z" />
    <glyph glyph-name="ogonek" unicode="&#x2db;" horiz-adv-x="289" 
d="M182 58l19 -58q-1 -2 -22 -31q-9 -17 -9 -30q0 -22 18 -22q5 0 15 2l13 -65q-11 -4 -44 -4q-42 0 -70.5 19t-28.5 57q0 71 109 132z" />
    <glyph glyph-name="tilde" unicode="&#x2dc;" horiz-adv-x="369" 
d="M241 561q-29 0 -62 16t-47 16q-27 0 -46 -28l-67 59q47 68 112 68q25 0 58 -16t50 -16q23 0 44 29l66 -61q-45 -67 -108 -67z" />
    <glyph glyph-name="hungarumlaut" unicode="&#x2dd;" horiz-adv-x="438" 
d="M156 567h-120l59 158h136zM327 567h-120l59 158h136z" />
    <glyph glyph-name="acutecomb" unicode="&#x301;" horiz-adv-x="0" 
d="M-150 567h-120l59 158h136z" />
    <glyph glyph-name="uni0394" unicode="&#x2206;" horiz-adv-x="510" 
d="M493 0h-476l164 690h148zM327 118l-72 386l-72 -386h144z" />
    <glyph glyph-name="uni0394" unicode="&#x394;" horiz-adv-x="510" 
d="M493 0h-476l164 690h148zM327 118l-72 386l-72 -386h144z" />
    <glyph glyph-name="uni03A9" unicode="&#x2126;" horiz-adv-x="545" 
d="M183 394v-94q0 -90 10 -126q11 -38 39 -56v-118h-189v118h53q-28 37 -40.5 78t-12.5 104v94q0 149 61.5 227t168.5 78t168.5 -78t61.5 -227v-94q0 -63 -12.5 -104t-40.5 -78h53v-118h-189v118q27 17 38 56t11 126v94q0 97 -22 142t-68 45t-68 -45t-22 -142z" />
    <glyph glyph-name="uni03A9" unicode="&#x3a9;" horiz-adv-x="545" 
d="M183 394v-94q0 -90 10 -126q11 -38 39 -56v-118h-189v118h53q-28 37 -40.5 78t-12.5 104v94q0 149 61.5 227t168.5 78t168.5 -78t61.5 -227v-94q0 -63 -12.5 -104t-40.5 -78h53v-118h-189v118q27 17 38 56t11 126v94q0 97 -22 142t-68 45t-68 -45t-22 -142z" />
    <glyph glyph-name="pi" unicode="&#x3c0;" horiz-adv-x="483" 
d="M277 160v232h-99v-392h-128v392h-61v108h470v-108h-54v-203q0 -79 54 -79v-110q-95 0 -138.5 36t-43.5 124z" />
    <glyph glyph-name="afii10023" unicode="&#x401;" horiz-adv-x="446" 
d="M58 0v690h364v-118h-224v-156h199v-118h-199v-180h224v-118h-364zM204 752h-124v117h124v-117zM401 752h-124v117h124v-117z" />
    <glyph glyph-name="afii10051" unicode="&#x402;" horiz-adv-x="613" 
d="M-2 571v119h440v-119h-150v-186q47 47 117 47q176 0 176 -214v-61q0 -103 -61 -134q-48 -23 -121 -23h-19v112h19q23 0 32.5 15.5t9.5 49.5v32q0 58 -16 81t-54 23q-52 0 -83 -51v-262h-140v571h-150z" />
    <glyph glyph-name="afii10052" unicode="&#x403;" horiz-adv-x="419" 
d="M58 690h361v-119h-221v-571h-140v690zM288 742h-122l67 129h140z" />
    <glyph glyph-name="afii10053" unicode="&#x404;" horiz-adv-x="497" 
d="M476 476h-133q-11 105 -78 105q-45 0 -66 -41.5t-22 -133.5h148v-118h-148q1 -93 22 -136t66 -43q35 0 53 24.5t25 80.5h133q-29 -223 -211 -223q-108 0 -168 77.5t-60 227.5v98q0 151 60 228t168 77q88 0 142.5 -56.5t68.5 -166.5z" />
    <glyph glyph-name="afii10054" unicode="&#x405;" horiz-adv-x="494" 
d="M455 587l-101 -73q-46 67 -99 67q-71 0 -71 -76q0 -38 22.5 -59.5t80.5 -40.5q95 -31 136 -78q40 -46 40 -135q0 -88 -54 -145q-54 -56 -151 -56q-151 0 -228 113l105 74q29 -37 54 -53t59 -16q75 0 75 77q0 37 -23.5 60t-85.5 43q-88 29 -129 80.5t-41 135.5
q0 89 53 141.5t152 52.5q148 0 206 -112z" />
    <glyph glyph-name="afii10055" unicode="&#x406;" horiz-adv-x="273" 
d="M66 690h140v-690h-140v690zM206 759h-140v110h140v-110z" />
    <glyph glyph-name="afii10056" unicode="&#x407;" horiz-adv-x="273" 
d="M66 690h140v-690h-140v690zM100 752h-124v117h124v-117zM297 752h-124v117h124v-117z" />
    <glyph glyph-name="afii10057" unicode="&#x408;" horiz-adv-x="442" 
d="M-8 94l111 70q30 -48 72 -48q39 0 54 31.5t15 117.5v425h140v-425q0 -274 -198 -274q-131 0 -194 103z" />
    <glyph glyph-name="afii10058" unicode="&#x409;" horiz-adv-x="825" 
d="M100 495v195h406v-253h71q109 0 167 -59.5t58 -159.5q0 -96 -57 -157t-168 -61h-211v571h-126v-76q0 -168 -6 -243t-22 -123q-38 -119 -201 -138v146q58 13 74 64q15 47 15 294zM566 319h-60v-201h60q96 0 96 100q0 101 -96 101z" />
    <glyph glyph-name="afii10059" unicode="&#x40a;" horiz-adv-x="829" 
d="M58 690h140v-274h172v274h140v-253h71q109 0 167 -59.5t58 -159.5q0 -96 -57 -157t-168 -61h-211v298h-172v-298h-140v690zM570 319h-60v-201h60q96 0 96 100q0 101 -96 101z" />
    <glyph glyph-name="afii10060" unicode="&#x40b;" horiz-adv-x="622" 
d="M7 571v119h440v-119h-150v-186q47 47 117 47q176 0 176 -214v-218h-140v209q0 58 -16 81t-54 23q-52 0 -83 -51v-262h-140v571h-150z" />
    <glyph glyph-name="afii10061" unicode="&#x40c;" horiz-adv-x="544" 
d="M376 356l158 -356h-155l-125 288h-56v-288h-140v690h140v-284h54l111 284h145zM319 742h-122l67 129h140z" />
    <glyph glyph-name="afii10062" unicode="&#x40e;" horiz-adv-x="494" 
d="M268 349l88 341h138l-162 -524q-33 -103 -81 -139t-150 -36v122q45 0 66.5 10.5t33.5 42.5l-194 524h153zM308 879h129q0 -151 -174 -151t-174 151h129q0 -62 45 -62t45 62z" />
    <glyph glyph-name="afii10145" unicode="&#x40f;" horiz-adv-x="558" 
d="M354 -130h-126v130h-170v690h140v-571h184v571h142v-690h-170v-130z" />
    <glyph glyph-name="afii10017" unicode="&#x410;" horiz-adv-x="528" 
d="M352 131h-176l-33 -131h-146l199 690h136l199 -690h-146zM204 249h120l-60 243z" />
    <glyph glyph-name="afii10018" unicode="&#x411;" horiz-adv-x="514" 
d="M58 690h391v-119h-251v-134h71q108 0 166.5 -59.5t58.5 -158.5t-58.5 -159t-166.5 -60h-211v690zM259 319h-61v-201h61q95 0 95 101q0 100 -95 100z" />
    <glyph glyph-name="afii10019" unicode="&#x412;" horiz-adv-x="519" 
d="M58 0v690h199q103 0 159.5 -46.5t56.5 -134.5q0 -99 -70 -147q88 -46 88 -164q0 -90 -55.5 -144t-160.5 -54h-217zM250 299h-59v-181h69q91 0 91 91q0 48 -23.5 69t-77.5 21zM240 572h-49v-155h62q80 0 80 79q0 39 -21 57.5t-72 18.5z" />
    <glyph glyph-name="afii10020" unicode="&#x413;" horiz-adv-x="419" 
d="M58 690h361v-119h-221v-571h-140v690z" />
    <glyph glyph-name="afii10021" unicode="&#x414;" horiz-adv-x="613" 
d="M469 -130v130h-334v-130h-127v248h38q15 20 32 84q24 98 24 303v185h406v-572h88v-248h-127zM242 571v-66q0 -240 -43 -387h169v453h-126z" />
    <glyph glyph-name="afii10022" unicode="&#x415;" horiz-adv-x="446" 
d="M58 0v690h364v-118h-224v-156h199v-118h-199v-180h224v-118h-364z" />
    <glyph glyph-name="afii10024" unicode="&#x416;" horiz-adv-x="786" 
d="M628 0l-125 288h-40v-288h-140v288h-40l-125 -288h-155l165 348l-139 342h143l108 -284h43v284h140v-284h43l108 284h143l-139 -342l165 -348h-155z" />
    <glyph glyph-name="afii10025" unicode="&#x417;" horiz-adv-x="506" 
d="M241 299h-67v118h67q79 0 79 84q0 81 -73 81q-43 0 -62 -20t-24 -64h-122q4 93 62.5 147t150.5 54q85 0 146 -49q62 -48 62 -136q0 -96 -69 -151q87 -47 87 -165q0 -94 -63 -151q-62 -56 -166 -56q-100 0 -159.5 53.5t-71.5 155.5h134q15 -91 94 -91q92 0 92 95t-97 95z
" />
    <glyph glyph-name="afii10026" unicode="&#x418;" horiz-adv-x="584" 
d="M57 0v690h140v-399l214 399h115v-690h-140v393l-213 -393h-116z" />
    <glyph glyph-name="afii10027" unicode="&#x419;" horiz-adv-x="584" 
d="M57 0v690h140v-399l214 399h115v-690h-140v393l-213 -393h-116zM352 879h129q0 -151 -174 -151t-174 151h129q0 -62 45 -62t45 62z" />
    <glyph glyph-name="afii10028" unicode="&#x41a;" horiz-adv-x="544" 
d="M376 356l158 -356h-155l-125 288h-56v-288h-140v690h140v-284h54l111 284h145z" />
    <glyph glyph-name="afii10029" unicode="&#x41b;" horiz-adv-x="558" 
d="M100 495v195h400v-690h-140v571h-120v-76q0 -168 -6 -243t-22 -123q-38 -119 -201 -138v146q58 13 74 64q15 47 15 294z" />
    <glyph glyph-name="afii10030" unicode="&#x41c;" horiz-adv-x="686" 
d="M387 164h-88l-101 212v-376h-140v690h132l153 -327l153 327h132v-690h-140v376z" />
    <glyph glyph-name="afii10031" unicode="&#x41d;" horiz-adv-x="569" 
d="M58 690h140v-274h172v274h140v-690h-140v298h-172v-298h-140v690z" />
    <glyph glyph-name="afii10032" unicode="&#x41e;" horiz-adv-x="536" 
d="M496 394v-98q0 -153 -59 -229t-169 -76t-169 76t-59 229v98q0 153 59 229t169 76t169 -76t59 -229zM180 394v-98q0 -101 21 -144t67 -43t67 43t21 144v98q0 101 -21 144t-67 43t-67 -43t-21 -144z" />
    <glyph glyph-name="afii10033" unicode="&#x41f;" horiz-adv-x="572" 
d="M58 0v690h456v-690h-142v571h-174v-571h-140z" />
    <glyph glyph-name="afii10034" unicode="&#x420;" horiz-adv-x="509" 
d="M274 243h-76v-243h-140v690h216q103 0 161.5 -57t58.5 -164t-58.5 -166.5t-161.5 -59.5zM198 571v-210h52q56 0 80 25.5t24 82.5q0 52 -25 77t-79 25h-52z" />
    <glyph glyph-name="afii10035" unicode="&#x421;" horiz-adv-x="505" 
d="M479 476h-133q-10 105 -78 105q-47 0 -67.5 -44t-20.5 -143v-98q0 -97 21 -142t67 -45q35 0 53 24.5t25 80.5h133q-29 -223 -211 -223q-108 0 -168 77.5t-60 227.5v98q0 151 60 228t168 77q88 0 142.5 -56.5t68.5 -166.5z" />
    <glyph glyph-name="afii10036" unicode="&#x422;" horiz-adv-x="454" 
d="M7 571v119h440v-119h-150v-571h-140v571h-150z" />
    <glyph glyph-name="afii10037" unicode="&#x423;" horiz-adv-x="494" 
d="M268 349l88 341h138l-162 -524q-33 -103 -81 -139t-150 -36v122q45 0 66.5 10.5t33.5 42.5l-194 524h153z" />
    <glyph glyph-name="afii10038" unicode="&#x424;" horiz-adv-x="685" 
d="M272 710h140v-70q236 0 236 -279v-32q0 -279 -236 -279v-70h-140v70q-236 0 -236 279v32q0 279 236 279v70zM176 361v-32q0 -93 20 -128q21 -33 76 -33v354q-55 0 -76 -34q-20 -34 -20 -127zM508 329v32q0 94 -21 127q-19 34 -75 34v-354q56 0 75 33q21 34 21 128z" />
    <glyph glyph-name="afii10039" unicode="&#x425;" horiz-adv-x="515" 
d="M257 234l-96 -234h-150l158 356l-140 334h150l78 -219l80 219h150l-141 -334l158 -356h-149z" />
    <glyph glyph-name="afii10040" unicode="&#x426;" horiz-adv-x="615" 
d="M475 -130v130h-417v690h142v-571h174v571h140v-572h88v-248h-127z" />
    <glyph glyph-name="afii10041" unicode="&#x427;" horiz-adv-x="517" 
d="M18 690h140v-203q0 -73 18 -102t65 -29q59 0 78 36v298h140v-690h-140v267q-41 -29 -105 -29q-104 0 -150 58.5t-46 190.5v203z" />
    <glyph glyph-name="afii10042" unicode="&#x428;" horiz-adv-x="806" 
d="M58 690h140v-572h135v572h140v-572h135v572h140v-690h-690v690z" />
    <glyph glyph-name="afii10043" unicode="&#x429;" horiz-adv-x="848" 
d="M708 -130v130h-651v690h140v-572h135v572h140v-572h135v572h140v-572h88v-248h-127z" />
    <glyph glyph-name="afii10044" unicode="&#x42a;" horiz-adv-x="565" 
d="M107 571h-130v119h270v-253h71q109 0 167 -59.5t58 -159.5q0 -96 -57 -157t-168 -61h-211v571zM307 319h-60v-201h60q96 0 96 100q0 101 -96 101z" />
    <glyph glyph-name="afii10045" unicode="&#x42b;" horiz-adv-x="728" 
d="M58 0v690h140v-253h65q109 0 167 -59.5t58 -159.5q0 -96 -57 -157t-168 -61h-205zM252 319h-54v-201h54q96 0 96 100q0 101 -96 101zM670 0h-140v690h140v-690z" />
    <glyph glyph-name="afii10046" unicode="&#x42c;" horiz-adv-x="516" 
d="M58 0v690h140v-253h71q109 0 167 -59.5t58 -159.5q0 -96 -57 -157t-168 -61h-211zM258 319h-60v-201h60q96 0 96 100q0 101 -96 101z" />
    <glyph glyph-name="afii10047" unicode="&#x42d;" horiz-adv-x="505" 
d="M325 288h-155v118h155q-2 93 -22.5 134t-65.5 41q-67 0 -78 -105h-133q14 110 68.5 166.5t142.5 56.5q108 0 168 -77t60 -228v-98q0 -150 -60 -227.5t-168 -77.5q-182 0 -211 223h133q7 -56 25 -80.5t53 -24.5q45 0 66 43.5t22 135.5z" />
    <glyph glyph-name="afii10048" unicode="&#x42e;" horiz-adv-x="741" 
d="M267 290v8h-69v-298h-140v690h140v-274h69q6 283 217 283q217 0 217 -299v-110q0 -299 -217 -299t-217 299zM561 302v86q0 106 -16 149.5t-61 43.5t-61 -43.5t-16 -149.5v-86q0 -106 16 -149.5t61 -43.5t61 43.5t16 149.5z" />
    <glyph glyph-name="afii10049" unicode="&#x42f;" horiz-adv-x="526" 
d="M269 271l-111 -271h-147l129 292q-107 47 -107 189q0 101 59 155t163 54h213v-690h-140v271h-59zM270 389h58v182h-58q-97 0 -97 -90q0 -50 20.5 -71t76.5 -21z" />
    <glyph glyph-name="afii10065" unicode="&#x430;" horiz-adv-x="426" 
d="M22 148q0 74 42.5 113t116.5 39h75v29q0 45 -12.5 59.5t-54.5 14.5q-28 0 -43.5 -8.5t-27.5 -31.5l-90 63q24 44 65 63.5t109 19.5q91 0 135.5 -41.5t44.5 -139.5v-328h-126v44q-26 -53 -89 -53q-65 0 -105 42t-40 115zM256 187v19h-57q-52 0 -52 -56t50 -56q33 0 46 21
t13 72z" />
    <glyph glyph-name="afii10066" unicode="&#x431;" horiz-adv-x="436" 
d="M344 713l42 -99q-24 -24 -70 -28l-70 -5q-57 -4 -76 -44q-10 -20 -13 -59q32 31 81 31q76 0 120.5 -59.5t44.5 -168.5v-62q0 -110 -49 -169t-137 -59t-137 59t-49 169v69q0 216 36 302q40 93 144 101l84 5q33 3 49 17zM159 277v-54q0 -66 13 -95t45 -29t45 29t13 95v54
q0 66 -13 95t-45 29t-45 -29t-13 -95z" />
    <glyph glyph-name="afii10067" unicode="&#x432;" horiz-adv-x="427" 
d="M43 0v500h176q158 0 158 -127q0 -71 -59 -101q39 -13 61 -46t22 -80q0 -67 -40.5 -106.5t-124.5 -39.5h-193zM214 212h-43v-113h48q54 0 54 56q0 31 -13.5 44t-45.5 13zM200 401h-29v-95h32q46 0 46 47q0 48 -49 48z" />
    <glyph glyph-name="afii10068" unicode="&#x433;" horiz-adv-x="323" 
d="M43 500h288v-108h-160v-392h-128v500z" />
    <glyph glyph-name="afii10069" unicode="&#x434;" horiz-adv-x="497" 
d="M366 -117v117h-239v-117h-117v225h31q17 17 31 60q19 56 19 212v120h334v-392h58v-225h-117zM199 159q-7 -25 -24 -51h122v284h-86v-31q0 -161 -12 -202z" />
    <glyph glyph-name="afii10070" unicode="&#x435;" horiz-adv-x="420" 
d="M285 141l92 -63q-22 -46 -58.5 -66.5t-99.5 -20.5q-92 0 -141.5 61t-49.5 165v68q0 109 47 166.5t131 57.5q179 0 179 -234v-57h-229q2 -65 15 -92t49 -27q27 0 39.5 8.5t25.5 33.5zM156 309h100q-5 92 -49 92q-45 0 -51 -92z" />
    <glyph glyph-name="afii10072" unicode="&#x436;" horiz-adv-x="600" 
d="M236 500h128v-194h41l50 194h126l-71 -243l90 -257h-136l-59 199h-41v-199h-128v199h-41l-59 -199h-136l90 257l-71 243h126l50 -194h41v194z" />
    <glyph glyph-name="afii10073" unicode="&#x437;" horiz-adv-x="387" 
d="M154 210h-42v97h45q57 0 57 53q0 47 -48 47q-40 0 -70 -42l-83 63q59 81 171 81q76 0 117 -34.5t41 -92.5q0 -79 -61 -113q76 -34 76 -127q0 -72 -45 -111.5t-131 -39.5q-122 0 -171 88l79 65q36 -50 83 -50q57 0 57 59q0 29 -16.5 43t-58.5 14z" />
    <glyph glyph-name="afii10074" unicode="&#x438;" horiz-adv-x="457" 
d="M43 500h128v-254l139 254h103v-500h-128v261l-138 -261h-104v500z" />
    <glyph glyph-name="afii10075" unicode="&#x439;" horiz-adv-x="457" 
d="M43 500h128v-254l139 254h103v-500h-128v261l-138 -261h-104v500zM275 689h113q0 -65 -46 -98q-45 -33 -108 -33q-62 0 -109 33q-45 33 -45 98h113q0 -55 41 -55t41 55z" />
    <glyph glyph-name="afii10076" unicode="&#x43a;" horiz-adv-x="427" 
d="M212 306l72 194h131l-94 -241l105 -259h-139l-76 199h-40v-199h-128v500h128v-194h41z" />
    <glyph glyph-name="afii10077" unicode="&#x43b;" horiz-adv-x="449" 
d="M73 335v165h332v-500h-128v392h-84v-116q0 -131 -29 -191q-45 -90 -158 -96v112q41 13 55 60q12 41 12 174z" />
    <glyph glyph-name="afii10078" unicode="&#x43c;" horiz-adv-x="549" 
d="M43 500h106l125 -269l125 269h106v-500h-128v235l-65 -160h-82l-59 157v-232h-128v500z" />
    <glyph glyph-name="afii10079" unicode="&#x43d;" horiz-adv-x="441" 
d="M43 500h128v-190h99v190h128v-500h-128v201h-99v-201h-128v500z" />
    <glyph glyph-name="afii10080" unicode="&#x43e;" horiz-adv-x="428" 
d="M28 219v62q0 110 49 169t137 59t137 -59t49 -169v-62q0 -110 -49 -169t-137 -59t-137 59t-49 169zM156 277v-54q0 -66 13 -95t45 -29t45 29t13 95v54q0 66 -13 95t-45 29t-45 -29t-13 -95z" />
    <glyph glyph-name="afii10081" unicode="&#x43f;" horiz-adv-x="441" 
d="M43 0v500h355v-500h-128v392h-99v-392h-128z" />
    <glyph glyph-name="afii10082" unicode="&#x440;" horiz-adv-x="444" 
d="M43 500h128v-27q30 36 82 36q74 0 118.5 -59t44.5 -165v-68q0 -104 -43.5 -165t-119.5 -61q-53 0 -82 36v-217h-128v690zM230 99q34 0 46 29.5t12 96.5v52q0 66 -13 95t-45 29q-59 0 -59 -117v-61q-1 -63 10 -91.5t49 -32.5z" />
    <glyph glyph-name="afii10083" unicode="&#x441;" horiz-adv-x="382" 
d="M285 141l91 -63q-40 -87 -156 -87q-89 0 -140.5 61t-51.5 165v68q0 109 50.5 166.5t146.5 57.5q107 0 150 -82l-92 -65q-19 39 -59 39q-39 0 -53.5 -28.5t-14.5 -95.5v-52q0 -68 14 -97t54 -29q42 0 61 42z" />
    <glyph glyph-name="afii10084" unicode="&#x442;" horiz-adv-x="360" 
d="M0 392v108h360v-108h-116v-392h-128v392h-116z" />
    <glyph glyph-name="afii10085" unicode="&#x443;" horiz-adv-x="413" 
d="M149 -2l-144 502h136l74 -316l70 316h128l-147 -530q-27 -95 -68 -127q-41 -33 -131 -33v114q43 0 60.5 15.5t21.5 58.5z" />
    <glyph glyph-name="afii10086" unicode="&#x444;" horiz-adv-x="620" 
d="M374 -9v-181h-128v181q-218 0 -218 224v70q0 224 218 224v181h128v-181q218 0 218 -224v-70q0 -224 -218 -224zM246 99v302q-47 0 -68.5 -28t-21.5 -95v-56q0 -67 21.5 -95t68.5 -28zM374 401v-302q47 0 68.5 28t21.5 95v56q0 67 -21.5 95t-68.5 28z" />
    <glyph glyph-name="afii10087" unicode="&#x445;" horiz-adv-x="419" 
d="M282 256l132 -256h-135l-69 152l-69 -152h-135l132 256l-122 244h134l60 -143l60 143h135z" />
    <glyph glyph-name="afii10088" unicode="&#x446;" horiz-adv-x="470" 
d="M456 -117h-117v117h-296v500h128v-392h99v392h128v-392h58v-225z" />
    <glyph glyph-name="afii10089" unicode="&#x447;" horiz-adv-x="407" 
d="M21 500h128v-144q0 -46 11 -64t33 -18q29 0 42 27v199h128v-500h-128v186q-24 -24 -76 -24q-138 0 -138 154v184z" />
    <glyph glyph-name="afii10090" unicode="&#x448;" horiz-adv-x="642" 
d="M599 500v-500h-556v500h128v-392h86v392h128v-392h86v392h128z" />
    <glyph glyph-name="afii10091" unicode="&#x449;" horiz-adv-x="671" 
d="M471 500h128v-392h58v-225h-117v117h-497v500h128v-392h86v392h128v-392h86v392z" />
    <glyph glyph-name="afii10092" unicode="&#x44a;" horiz-adv-x="468" 
d="M94 392h-105v108h233v-172h51q177 0 177 -163q0 -79 -45 -122t-131 -43h-180v392zM264 220h-42v-112h51q49 0 49 57q0 28 -13.5 41.5t-44.5 13.5z" />
    <glyph glyph-name="afii10093" unicode="&#x44b;" horiz-adv-x="587" 
d="M44 0v500h128v-172h37q177 0 177 -163q0 -79 -45 -122t-131 -43h-166zM200 220h-28v-112h37q49 0 49 57q0 28 -13.5 41.5t-44.5 13.5zM543 0h-128v500h128v-500z" />
    <glyph glyph-name="afii10094" unicode="&#x44c;" horiz-adv-x="418" 
d="M43 0v500h128v-172h51q177 0 177 -163q0 -79 -45 -122t-131 -43h-180zM213 220h-42v-112h51q49 0 49 57q0 28 -13.5 41.5t-44.5 13.5z" />
    <glyph glyph-name="afii10095" unicode="&#x44d;" horiz-adv-x="387" 
d="M231 204h-118v99h117q-2 52 -17.5 75t-49.5 23q-39 0 -59 -39l-92 65q43 82 150 82q96 0 146.5 -57.5t50.5 -166.5v-68q0 -104 -51.5 -165t-140.5 -61q-116 0 -156 87l91 63q20 -42 61 -42q37 0 51.5 25t16.5 80z" />
    <glyph glyph-name="afii10096" unicode="&#x44e;" horiz-adv-x="605" 
d="M399 -9q-82 0 -129.5 55t-48.5 155h-50v-201h-128v500h128v-190h50q4 95 51.5 147t126.5 52q82 0 130 -56.5t48 -157.5v-90q0 -101 -48 -157.5t-130 -56.5zM449 212v76q0 113 -50 113t-50 -113v-76q0 -113 50 -113t50 113z" />
    <glyph glyph-name="afii10097" unicode="&#x44f;" horiz-adv-x="430" 
d="M386 500v-500h-128v178h-32l-82 -178h-129l98 201q-73 42 -73 139q0 74 44 117t131 43h171zM222 284h36v108h-40q-50 0 -50 -53q0 -55 54 -55z" />
    <glyph glyph-name="afii10071" unicode="&#x451;" horiz-adv-x="420" 
d="M285 141l92 -63q-22 -46 -58.5 -66.5t-99.5 -20.5q-92 0 -141.5 61t-49.5 165v68q0 109 47 166.5t131 57.5q179 0 179 -234v-57h-229q2 -65 15 -92t49 -27q27 0 39.5 8.5t25.5 33.5zM156 309h100q-5 92 -49 92q-45 0 -51 -92zM186 573h-124v117h124v-117zM350 573h-123
v117h123v-117z" />
    <glyph glyph-name="afii10099" unicode="&#x452;" horiz-adv-x="441" 
d="M39 538h-63v105h63v47h128v-47h105v-105h-105v-77q30 48 95 48q66 0 106 -49t40 -147v-340q0 -90 -42.5 -126.5t-135.5 -36.5v110q50 0 50 71v302q0 60 -11 83t-41 23q-61 0 -61 -105v-294h-128v538z" />
    <glyph glyph-name="afii10100" unicode="&#x453;" horiz-adv-x="323" 
d="M43 500h288v-108h-160v-392h-128v500zM243 567h-120l59 158h136z" />
    <glyph glyph-name="afii10101" unicode="&#x454;" horiz-adv-x="393" 
d="M282 141l91 -63q-40 -87 -156 -87q-89 0 -140.5 61t-51.5 165v68q0 109 50.5 166.5t146.5 57.5q107 0 150 -82l-92 -65q-20 39 -59 39q-35 0 -50.5 -23t-17.5 -75h114v-99h-114q1 -54 16 -79.5t52 -25.5q41 0 61 42z" />
    <glyph glyph-name="afii10102" unicode="&#x455;" horiz-adv-x="405" 
d="M370 425l-92 -65q-26 39 -74 39q-43 0 -43 -41q0 -21 13.5 -31t53.5 -18q77 -15 112 -53t35 -109q0 -73 -45 -114.5t-126 -41.5q-129 0 -182 83l95 69q13 -23 32 -32.5t53 -9.5q45 0 45 41q0 23 -13.5 34t-52.5 20q-72 17 -109.5 54.5t-37.5 104.5q0 72 45 113t125 41
q124 0 166 -84z" />
    <glyph glyph-name="afii10103" unicode="&#x456;" horiz-adv-x="241" 
d="M185 0h-128v500h128v-500zM185 566h-128v124h128v-124z" />
    <glyph glyph-name="afii10104" unicode="&#x457;" horiz-adv-x="241" 
d="M185 0h-128v500h128v-500zM100 573h-124v117h124v-117zM264 573h-123v117h123v-117z" />
    <glyph glyph-name="afii10105" unicode="&#x458;" horiz-adv-x="226" 
d="M50 500h128v-527q0 -90 -42.5 -126.5t-135.5 -36.5v110q50 0 50 71v509zM178 566h-128v124h128v-124z" />
    <glyph glyph-name="afii10106" unicode="&#x459;" horiz-adv-x="652" 
d="M74 335v165h332v-172h51q177 0 177 -163q0 -79 -45 -122t-131 -43h-180v392h-84v-116q0 -131 -29 -191q-45 -90 -158 -96v112q41 13 55 60q12 41 12 174zM448 220h-42v-112h51q49 0 49 57q0 28 -13.5 41.5t-44.5 13.5z" />
    <glyph glyph-name="afii10107" unicode="&#x45a;" horiz-adv-x="645" 
d="M43 500h128v-190h99v190h128v-172h51q177 0 177 -163q0 -79 -45 -122t-131 -43h-180v201h-99v-201h-128v500zM440 220h-42v-112h51q49 0 49 57q0 28 -13.5 41.5t-44.5 13.5z" />
    <glyph glyph-name="afii10108" unicode="&#x45b;" horiz-adv-x="454" 
d="M41 538h-63v105h63v47h128v-47h105v-105h-105v-77q30 48 95 48q66 0 106 -49t40 -147v-313h-128v293q0 60 -11 83t-41 23q-61 0 -61 -105v-294h-128v538z" />
    <glyph glyph-name="afii10109" unicode="&#x45c;" horiz-adv-x="427" 
d="M212 306l72 194h131l-94 -241l105 -259h-139l-76 199h-40v-199h-128v500h128v-194h41zM278 567h-120l59 158h136z" />
    <glyph glyph-name="afii10110" unicode="&#x45e;" horiz-adv-x="413" 
d="M149 -2l-144 502h136l74 -316l70 316h128l-147 -530q-27 -95 -68 -127q-41 -33 -131 -33v114q43 0 60.5 15.5t21.5 58.5zM256 689h113q0 -65 -46 -98q-45 -33 -108 -33t-109 33q-45 33 -45 98h113q0 -55 41 -55t41 55z" />
    <glyph glyph-name="afii10193" unicode="&#x45f;" horiz-adv-x="451" 
d="M398 500v-500h-119v-117h-117v117h-119v500h128v-392h99v392h128z" />
    <glyph glyph-name="afii10146" unicode="&#x462;" horiz-adv-x="525" 
d="M67 500h-75v118h75v72h140v-72h117v-118h-117v-63h71q109 0 167 -59.5t58 -159.5q0 -96 -57 -157t-168 -61h-211v500zM267 319h-60v-201h60q96 0 96 100q0 101 -96 101z" />
    <glyph glyph-name="afii10194" unicode="&#x463;" horiz-adv-x="413" 
d="M38 500v190h128v-190h123v-108h-123v-64h51q177 0 177 -163q0 -79 -45 -122t-131 -43h-180v392h-63v108h63zM208 220h-42v-112h51q49 0 49 57q0 28 -13.5 41.5t-44.5 13.5z" />
    <glyph glyph-name="afii10147" unicode="&#x472;" horiz-adv-x="536" 
d="M496 394v-98q0 -153 -59 -229t-169 -76t-169 76t-59 229v98q0 153 59 229t169 76t169 -76t59 -229zM180 298v-2q0 -101 21 -144t67 -43t67 43t21 144v2h-176zM268 581q-45 0 -65.5 -38t-22.5 -127h176q-2 88 -23.5 126.5t-64.5 38.5z" />
    <glyph glyph-name="afii10195" unicode="&#x473;" horiz-adv-x="428" 
d="M28 219v62q0 110 49 169t137 59t137 -59t49 -169v-62q0 -110 -49 -169t-137 -59t-137 59t-49 169zM272 201h-116q2 -53 15.5 -77.5t42.5 -24.5t42.5 24.5t15.5 77.5zM214 401q-52 0 -58 -91h115q-4 91 -57 91z" />
    <glyph glyph-name="afii10148" unicode="&#x474;" horiz-adv-x="517" 
d="M196 0l-194 690h149l109 -456l78 324q16 75 59 108q42 33 133 33v-115q-26 0 -38 -15t-25 -60l-143 -509h-128z" />
    <glyph glyph-name="afii10196" unicode="&#x475;" horiz-adv-x="425" 
d="M434 509v-107q-22 0 -31.5 -12t-21.5 -50l-107 -340h-116l-158 500h141l75 -324l51 220q17 71 53 92t114 21z" />
    <glyph glyph-name="afii10050" unicode="&#x490;" horiz-adv-x="419" 
d="M58 690h245v108h116v-227h-221v-571h-140v690z" />
    <glyph glyph-name="afii10098" unicode="&#x491;" horiz-adv-x="323" 
d="M43 500h180v93h108v-201h-160v-392h-128v500z" />
    <glyph glyph-name="uni0492" unicode="&#x492;" horiz-adv-x="428" 
d="M67 298h-75v118h75v274h361v-119h-221v-155h103v-118h-103v-298h-140v298z" />
    <glyph glyph-name="uni0493" unicode="&#x493;" horiz-adv-x="331" 
d="M52 500h288v-108h-160v-82h85v-105h-85v-205h-128v205h-63v105h63v190z" />
    <glyph glyph-name="uni0496" unicode="&#x496;" horiz-adv-x="834" 
d="M628 0l-125 288h-40v-288h-140v288h-40l-125 -288h-155l165 348l-139 342h143l108 -284h43v284h140v-284h43l108 284h143l-139 -342l109 -230h93v-248h-127v130h-65z" />
    <glyph glyph-name="uni0497" unicode="&#x497;" horiz-adv-x="630" 
d="M504 -117v117h-40l-59 199h-41v-199h-128v199h-41l-59 -199h-136l90 257l-71 243h126l50 -194h41v194h128v-194h41l50 194h126l-71 -243l52 -149h59v-225h-117z" />
    <glyph glyph-name="uni0498" unicode="&#x498;" horiz-adv-x="517" 
d="M252 299h-67v118h67q79 0 79 84q0 81 -77 81q-40 0 -59.5 -20.5t-28.5 -63.5h-122q6 91 67 146t152 55q85 0 146 -49q62 -48 62 -136q0 -96 -69 -151q87 -47 87 -165q0 -78 -44 -131t-121 -69v-128h-126v127q-150 28 -175 203h134q22 -91 96 -91q96 0 96 95t-97 95z" />
    <glyph glyph-name="uni0499" unicode="&#x499;" horiz-adv-x="387" 
d="M154 212h-41v94h44q57 0 57 54q0 22 -12.5 35.5t-35.5 13.5q-39 0 -69 -41l-82 61q56 80 169 80q76 0 117 -34.5t41 -92.5q0 -79 -61 -113q76 -34 76 -127q0 -55 -29 -92.5t-82 -50.5v-116h-117v113q-79 13 -117 82l76 63q19 -27 34.5 -37.5t48.5 -12.5q58 0 58 62
q0 31 -16.5 45t-58.5 14z" />
    <glyph glyph-name="uni049A" unicode="&#x49a;" horiz-adv-x="579" 
d="M437 -130v130h-71l-125 288h-44v-288h-140v690h140v-284h42l111 284h145l-132 -334l105 -238h96v-248h-127z" />
    <glyph glyph-name="uni049B" unicode="&#x49b;" horiz-adv-x="460" 
d="M212 306l72 194h131l-94 -241l61 -151h67v-225h-117v117h-45l-76 199h-40v-199h-128v500h128v-194h41z" />
    <glyph glyph-name="uni049C" unicode="&#x49c;" horiz-adv-x="627" 
d="M334 181h-109v107h-27v-288h-140v690h140v-284h27v114h109v-114h19l91 284h145l-111 -334l137 -356h-155l-105 288h-21v-107z" />
    <glyph glyph-name="uni049D" unicode="&#x49d;" horiz-adv-x="497" 
d="M286 103h-91v96h-23v-199h-128v500h128v-194h23v98h91v-98h16l52 194h131l-74 -241l85 -259h-139l-56 199h-15v-96z" />
    <glyph glyph-name="uni04A0" unicode="&#x4a0;" horiz-adv-x="582" 
d="M413 356l158 -356h-155l-125 288h-44v-288h-140v571h-130v119h270v-284h42l111 284h145z" />
    <glyph glyph-name="uni04A1" unicode="&#x4a1;" 
d="M263 306l72 194h131l-94 -241l105 -259h-139l-76 199h-40v-199h-128v392h-105v108h233v-194h41z" />
    <glyph glyph-name="uni04A2" unicode="&#x4a2;" horiz-adv-x="611" 
d="M57 690h140v-274h172v274h140v-572h88v-248h-127v130h-101v298h-172v-298h-140v690z" />
    <glyph glyph-name="uni04A3" unicode="&#x4a3;" horiz-adv-x="480" 
d="M43 500h128v-190h99v190h128v-392h68v-225h-117v117h-79v201h-99v-201h-128v500z" />
    <glyph glyph-name="uni04AA" unicode="&#x4aa;" horiz-adv-x="505" 
d="M479 476h-133q-10 105 -78 105q-47 0 -67.5 -44t-20.5 -143v-98q0 -97 21 -142t67 -45q35 0 53 24.5t25 80.5h133q-26 -185 -149 -215v-129h-126v130q-164 44 -164 296v98q0 151 60 228t168 77q88 0 142.5 -56.5t68.5 -166.5z" />
    <glyph glyph-name="uni04AB" unicode="&#x4ab;" horiz-adv-x="382" 
d="M285 141l91 -63q-32 -65 -94 -80v-115h-117v115q-66 17 -101.5 74.5t-35.5 144.5v68q0 109 50.5 166.5t146.5 57.5q107 0 150 -82l-92 -65q-19 39 -59 39q-39 0 -53.5 -28.5t-14.5 -95.5v-52q0 -68 14 -97t54 -29q42 0 61 42z" />
    <glyph glyph-name="uni04AE" unicode="&#x4ae;" horiz-adv-x="507" 
d="M165 690l88 -253l88 253h160l-178 -408v-282h-140v282l-178 408h160z" />
    <glyph glyph-name="uni04AF" unicode="&#x4af;" horiz-adv-x="432" 
d="M280 -190h-128v199l-152 491h141l75 -327l75 327h141l-152 -491v-199z" />
    <glyph glyph-name="uni04B0" unicode="&#x4b0;" horiz-adv-x="507" 
d="M183 191h-105v118h93l-166 381h160l88 -253l88 253h160l-166 -381h93v-118h-105v-191h-140v191z" />
    <glyph glyph-name="uni04B1" unicode="&#x4b1;" horiz-adv-x="432" 
d="M152 -108h-80v108h80v9l-152 491h141l75 -327l75 327h141l-152 -491v-9h80v-108h-80v-82h-128v82z" />
    <glyph glyph-name="uni04B2" unicode="&#x4b2;" horiz-adv-x="567" 
d="M257 234l-96 -234h-150l158 356l-140 334h150l78 -219l80 219h150l-141 -334l105 -238h101v-248h-127v130h-70z" />
    <glyph glyph-name="uni04B3" unicode="&#x4b3;" horiz-adv-x="437" 
d="M312 -117v117h-33l-69 152l-69 -152h-135l132 256l-122 244h134l60 -143l60 143h135l-123 -244l76 -148h71v-225h-117z" />
    <glyph glyph-name="uni04B6" unicode="&#x4b6;" horiz-adv-x="562" 
d="M18 690h140v-203q0 -73 18 -102t65 -29q59 0 78 36v298h140v-572h88v-248h-127v130h-101v267q-41 -29 -105 -29q-104 0 -150 58.5t-46 190.5v203z" />
    <glyph glyph-name="uni04B7" unicode="&#x4b7;" horiz-adv-x="447" 
d="M23 500h128v-144q0 -46 11 -64t33 -18q29 0 42 27v199h128v-392h68v-225h-117v117h-79v186q-24 -24 -76 -24q-138 0 -138 154v184z" />
    <glyph glyph-name="uni04B8" unicode="&#x4b8;" horiz-adv-x="541" 
d="M306 134h-109v105q-96 7 -137.5 65.5t-41.5 182.5v203h140v-203q0 -56 8 -83t31 -38v107h109v-109q22 9 37 28v298h140v-690h-140v267q-17 -11 -37 -17v-116z" />
    <glyph glyph-name="uni04B9" unicode="&#x4b9;" horiz-adv-x="465" 
d="M179 381h91v-94q11 5 22 14v199h128v-500h-128v186l-22 -11v-95h-91v82q-78 2 -117 38.5t-39 115.5v184h128v-144q0 -68 28 -78v103z" />
    <glyph glyph-name="uni04BA" unicode="&#x4ba;" horiz-adv-x="517" 
d="M499 0h-140v260q0 73 -18 102t-65 29q-58 0 -78 -36v-355h-140v690h140v-210q41 29 105 29q104 0 150 -58.5t46 -190.5v-260z" />
    <glyph glyph-name="uni04BB" unicode="&#x4bb;" horiz-adv-x="457" 
d="M172 0h-128v690h128v-228q32 47 95 47q66 0 106 -49t40 -147v-313h-128v293q0 60 -11 83t-41 23q-61 0 -61 -105v-294z" />
    <glyph glyph-name="uni04D8" unicode="&#x4d8;" horiz-adv-x="513" 
d="M175 476h-133q14 110 68.5 166.5t142.5 56.5q108 0 168 -77t60 -228v-98q0 -150 -60 -227.5t-168 -77.5q-110 0 -161.5 75.5t-51.5 230.5v72h301v25q0 99 -20.5 143t-67.5 44q-67 0 -78 -105zM253 109q78 0 87 142h-166q0 -142 79 -142z" />
    <glyph glyph-name="afii10846" unicode="&#x4d9;" horiz-adv-x="420" 
d="M135 359l-92 63q22 46 58.5 66.5t99.5 20.5q92 0 141.5 -61t49.5 -165v-68q0 -109 -47 -166.5t-131 -57.5q-179 0 -179 234v57h229q-2 65 -15 92t-49 27q-27 0 -39.5 -8.5t-25.5 -33.5zM264 191h-100q5 -92 49 -92q45 0 51 92z" />
    <glyph glyph-name="uni04E2" unicode="&#x4e2;" horiz-adv-x="584" 
d="M57 0v690h140v-399l214 399h115v-690h-140v393l-213 -393h-116zM429 744h-274v112h274v-112z" />
    <glyph glyph-name="uni04E3" unicode="&#x4e3;" horiz-adv-x="457" 
d="M43 500h128v-254l139 254h103v-500h-128v261l-138 -261h-104v500zM348 573h-240v111h240v-111z" />
    <glyph glyph-name="uni04E8" unicode="&#x4e8;" horiz-adv-x="536" 
d="M496 394v-98q0 -153 -59 -229t-169 -76t-169 76t-59 229v98q0 153 59 229t169 76t169 -76t59 -229zM180 298v-2q0 -101 21 -144t67 -43t67 43t21 144v2h-176zM268 581q-45 0 -65.5 -38t-22.5 -127h176q-2 88 -23.5 126.5t-64.5 38.5z" />
    <glyph glyph-name="uni04E9" unicode="&#x4e9;" horiz-adv-x="428" 
d="M28 219v62q0 110 49 169t137 59t137 -59t49 -169v-62q0 -110 -49 -169t-137 -59t-137 59t-49 169zM272 201h-116q2 -53 15.5 -77.5t42.5 -24.5t42.5 24.5t15.5 77.5zM214 401q-52 0 -58 -91h115q-4 91 -57 91z" />
    <glyph glyph-name="uni04EE" unicode="&#x4ee;" horiz-adv-x="494" 
d="M268 349l88 341h138l-162 -524q-33 -103 -81 -139t-150 -36v122q45 0 66.5 10.5t33.5 42.5l-194 524h153zM399 744h-274v112h274v-112z" />
    <glyph glyph-name="uni04EF" unicode="&#x4ef;" horiz-adv-x="413" 
d="M149 -2l-144 502h136l74 -316l70 316h128l-147 -530q-27 -95 -68 -127q-41 -33 -131 -33v114q43 0 60.5 15.5t21.5 58.5zM333 573h-240v111h240v-111z" />
    <glyph glyph-name="uni1E9E" unicode="&#x1e9e;" horiz-adv-x="521" 
d="M464 642l-76 -179q41 -12 59 -42t18 -85v-196q0 -85 -28 -113q-29 -27 -94 -27h-84v118h31q20 0 27.5 13t7.5 43v132q0 32 -7.5 45.5t-27.5 13.5h-31v90l45 116q-21 10 -42 10q-36 0 -50.5 -23t-14.5 -78v-480h-140v488q0 211 205 211q60 0 117 -19q61 -20 85 -38z" />
    <glyph glyph-name="uni2010" unicode="&#x2010;" horiz-adv-x="266" 
d="M241 233h-216v112h216v-112z" />
    <glyph glyph-name="uni2011" unicode="&#x2011;" horiz-adv-x="266" 
d="M241 233h-216v112h216v-112z" />
    <glyph glyph-name="figuredash" unicode="&#x2012;" 
d="M421 287h-364v124h364v-124z" />
    <glyph glyph-name="endash" unicode="&#x2013;" horiz-adv-x="427" 
d="M376 227h-325v124h325v-124z" />
    <glyph glyph-name="emdash" unicode="&#x2014;" horiz-adv-x="598" 
d="M581 227h-564v124h564v-124z" />
    <glyph glyph-name="quoteleft" unicode="&#x2018;" horiz-adv-x="227" 
d="M176 534h-137v162l137 117v-279z" />
    <glyph glyph-name="quoteright" unicode="&#x2019;" horiz-adv-x="232" 
d="M39 706h134v-165l-134 -114v279z" />
    <glyph glyph-name="quotesinglbase" unicode="&#x201a;" horiz-adv-x="238" 
d="M51 136h136v-162l-136 -117v279z" />
    <glyph glyph-name="quotedblleft" unicode="&#x201c;" horiz-adv-x="372" 
d="M153 534h-137v162l137 117v-279zM328 534h-136v162l136 117v-279z" />
    <glyph glyph-name="quotedblright" unicode="&#x201d;" horiz-adv-x="372" 
d="M191 706h137v-162l-137 -117v279zM16 706h136v-162l-136 -117v279z" />
    <glyph glyph-name="quotedblbase" unicode="&#x201e;" horiz-adv-x="407" 
d="M226 136h137v-162l-137 -117v279zM51 136h136v-162l-136 -117v279z" />
    <glyph glyph-name="dagger" unicode="&#x2020;" horiz-adv-x="498" 
d="M28 381v119h151v190h140v-190h151v-119h-151v-571h-140v571h-151z" />
    <glyph glyph-name="daggerdbl" unicode="&#x2021;" horiz-adv-x="498" 
d="M28 381v119h151v190h140v-190h151v-119h-151v-263h151v-118h-151v-190h-140v190h-151v118h151v263h-151z" />
    <glyph glyph-name="bullet" unicode="&#x2022;" horiz-adv-x="286" 
d="M62 259q-34 34 -34 82t34 82t82 34t82 -34t34 -82t-34 -82t-82 -34t-82 34z" />
    <glyph glyph-name="ellipsis" unicode="&#x2026;" horiz-adv-x="836" 
d="M51 156h156v-156h-156v156zM629 156h156v-156h-156v156zM340 156h156v-156h-156v156z" />
    <glyph glyph-name="perthousand" unicode="&#x2030;" horiz-adv-x="955" 
d="M105 0l322 690h117l-322 -690h-117zM275 563v-85q0 -64 -33.5 -100t-94.5 -36t-94.5 36t-33.5 100v85q0 64 33.5 100t94.5 36t94.5 -36t33.5 -100zM175 479v83q0 49 -28 49t-28 -49v-83q0 -49 28 -49t28 49zM630 212v-85q0 -64 -33.5 -100t-94.5 -36t-94.5 36t-33.5 100
v85q0 64 33.5 100t94.5 36t94.5 -36t33.5 -100zM530 128v83q0 49 -28 49t-28 -49v-83q0 -49 28 -49t28 49zM925 212v-85q0 -64 -33.5 -100t-94.5 -36t-94.5 36t-33.5 100v85q0 64 33.5 100t94.5 36t94.5 -36t33.5 -100zM825 128v83q0 49 -28 49t-28 -49v-83q0 -49 28 -49
t28 49z" />
    <glyph glyph-name="guilsinglleft" unicode="&#x2039;" horiz-adv-x="276" 
d="M219 206v-154l-194 231l194 231v-154l-64 -77z" />
    <glyph glyph-name="guilsinglright" unicode="&#x203a;" horiz-adv-x="277" 
d="M49 514l194 -231l-194 -231v154l64 77l-64 77v154z" />
    <glyph glyph-name="fraction" unicode="&#x2044;" horiz-adv-x="485" 
d="M8 0l396 690h120l-396 -690h-120z" />
    <glyph glyph-name="uni2074" unicode="&#x2074;" horiz-adv-x="313" 
d="M16 485l110 205h96l-102 -198h36v45h88v-45h32v-71h-32v-47h-88v47h-140v64z" />
    <glyph glyph-name="Euro" unicode="&#x20ac;" 
d="M14 204v112h58v51h-58v112h63q25 220 198 220q167 0 185 -223h-130q-4 57 -16 81t-39 24q-28 0 -41.5 -23t-17.5 -79h78v-112h-82v-51h82v-112h-77q6 -51 19 -73t39 -22t38 23.5t17 81.5h130q-9 -116 -53 -169.5t-132 -53.5q-169 0 -197 213h-64z" />
    <glyph glyph-name="uni20B4" unicode="&#x20b4;" 
d="M52 219h-37v106h449v-106h-271q-3 -15 -3 -33q0 -77 65 -77q28 0 45.5 14t42.5 55l104 -74q-41 -62 -87 -87q-46 -26 -118 -26q-91 0 -142 55q-50 56 -50 139q0 8 2 34zM464 366h-449v106h270q5 17 5 37q0 72 -55 72q-43 0 -78 -70l-103 75q63 113 182 113q94 0 144 -53
t50 -133q0 -20 -4 -41h38v-106z" />
    <glyph glyph-name="uni20B8" unicode="&#x20b8;" 
d="M19 405v119h440v-119h-150v-405h-140v405h-150zM459 690v-119h-440v119h440z" />
    <glyph glyph-name="uni20BD" unicode="&#x20bd;" 
d="M78 86h-68v118h68v39h-68v118h68v329h170q103 0 161.5 -57t58.5 -164t-58.5 -166.5t-161.5 -59.5h-30v-39h89v-118h-89v-86h-140v86zM218 571v-210h6q56 0 80 25.5t24 82.5q0 52 -25 77t-79 25h-6z" />
    <glyph glyph-name="afii61352" unicode="&#x2116;" horiz-adv-x="829" 
d="M815 537v-48q0 -78 -34.5 -120t-99.5 -42t-99.5 42t-34.5 120v48q0 78 34.5 120t99.5 42t99.5 -42t34.5 -120zM569 285h224v-119h-224v119zM708 502v22q0 76 -27 76t-27 -76v-22q0 -76 27 -76t27 76zM370 307v383h140v-690h-117l-195 377v-377h-140v690h116z" />
    <glyph glyph-name="trademark" unicode="&#x2122;" horiz-adv-x="899" 
d="M402 690h105l123 -215l123 215h106v-417h-112v195l-77 -131h-85l-72 131v-195h-111v417zM20 590v100h351v-100h-119v-317h-112v317h-120z" />
    <glyph glyph-name="uni2190" unicode="&#x2190;" horiz-adv-x="875" 
d="M209 222l314 -314h-110l-353 353l353 353h110l-314 -314h606v-78h-606z" />
    <glyph glyph-name="uni2191" unicode="&#x2191;" horiz-adv-x="826" 
d="M413 639l353 -353v-110l-314 314v-606h-78v606l-314 -314v110z" />
    <glyph glyph-name="uni2192" unicode="&#x2192;" horiz-adv-x="875" 
d="M815 261l-353 -353h-110l314 314h-606v78h606l-314 314h110z" />
    <glyph glyph-name="uni2193" unicode="&#x2193;" horiz-adv-x="826" 
d="M413 -117l-353 353v110l314 -314v606h78v-606l314 314v-110z" />
    <glyph glyph-name="uni2196" unicode="&#x2196;" horiz-adv-x="698" 
d="M137 367v-445l-77 78v500h500l78 -77h-445l428 -429l-55 -55z" />
    <glyph glyph-name="uni2197" unicode="&#x2197;" horiz-adv-x="698" 
d="M638 500v-500l-77 -78v445l-429 -428l-55 55l428 429h-445l78 77h500z" />
    <glyph glyph-name="uni2198" unicode="&#x2198;" horiz-adv-x="698" 
d="M561 133v445l77 -78v-500h-500l-78 77h445l-428 429l55 55z" />
    <glyph glyph-name="uni2199" unicode="&#x2199;" horiz-adv-x="698" 
d="M60 0v500l77 78v-445l429 428l55 -55l-428 -429h445l-78 -77h-500z" />
    <glyph glyph-name="uni21A3" unicode="&#x21a3;" horiz-adv-x="1375" 
d="M203 405l61 59l124 -124h768l-64 65l60 59l183 -183l-183 -183l-60 59l64 65h-768l-124 -124l-61 59l124 124zM40 405l60 59l183 -183l-183 -183l-60 59l124 124z" />
    <glyph glyph-name="partialdiff" unicode="&#x2202;" 
d="M53 219v62q0 107 46 167.5t123 60.5q42 0 74 -21q-1 60 -15 82t-53 22q-42 0 -88 -36l-53 82q58 61 157 61q181 0 181 -239v-175v-4v-62q0 -110 -49 -169t-137 -59t-137 59t-49 169zM181 277v-54q0 -66 13 -95t45 -29t45 29t13 95v54q0 66 -13 95t-45 29t-45 -29t-13 -95
z" />
    <glyph glyph-name="product" unicode="&#x220f;" horiz-adv-x="555" 
d="M49 -190v880h457v-880h-140v761h-177v-761h-140z" />
    <glyph glyph-name="summation" unicode="&#x2211;" horiz-adv-x="440" 
d="M25 690h398v-118h-232l148 -268v-110l-148 -266h232v-118h-398v103l186 337l-186 337v103z" />
    <glyph glyph-name="minus" unicode="&#x2212;" 
d="M405 298h-332v112h332v-112z" />
    <glyph glyph-name="uni2215" unicode="&#x2215;" horiz-adv-x="418" 
d="M429 812l-278 -928h-111l278 928h111z" />
    <glyph glyph-name="radical" unicode="&#x221a;" horiz-adv-x="629" 
d="M6 381v119h195l98 -302l82 492h274v-119h-163l-115 -571h-135l-146 381h-90z" />
    <glyph glyph-name="infinity" unicode="&#x221e;" horiz-adv-x="688" 
d="M343 262q-41 -54 -78 -78.5t-86 -24.5q-67 0 -109 53q-42 52 -42 130t43 130q44 53 113 53q90 0 164 -101q40 54 76 77.5t83 23.5q65 0 108 -54q44 -53 44 -129q0 -77 -43 -130q-42 -53 -102 -53q-52 0 -91.5 24.5t-79.5 78.5zM500 272q21 0 34 19t13 51q0 31 -13.5 49.5
t-36.5 18.5q-19 0 -36.5 -15.5t-43.5 -51.5q50 -71 83 -71zM189 272q41 0 84 70q-44 68 -84 68q-21 0 -35 -19t-14 -49q0 -31 14 -50.5t35 -19.5z" />
    <glyph glyph-name="integral" unicode="&#x222b;" horiz-adv-x="271" 
d="M195 507v-534q0 -91 -37 -127t-121 -36h-35v114h21q23 0 32.5 15.5t9.5 52.5v535q0 91 37 127t121 36h35v-114h-21q-42 0 -42 -69z" />
    <glyph glyph-name="approxequal" unicode="&#x2248;" 
d="M377 485l40 -93q-41 -53 -96 -53q-31 0 -85 26q-51 27 -74 27q-32 0 -58 -29l-42 95q44 53 95 53q31 0 85 -27q57 -26 81 -26q25 0 54 27zM377 311l40 -92q-41 -53 -96 -53q-31 0 -85 26q-51 27 -74 27q-32 0 -58 -29l-42 95q44 53 95 53q31 0 85 -27q57 -26 81 -26
q25 0 54 26z" />
    <glyph glyph-name="notequal" unicode="&#x2260;" 
d="M190 359h-113v120h158l59 156l103 -39l-44 -117h48v-120h-93l-22 -58h115v-119h-160l-56 -148l-103 39l41 109h-46v119h91z" />
    <glyph glyph-name="lessequal" unicode="&#x2264;" 
d="M360 690v-150l-131 -88l131 -88v-150l-271 183v110zM89 182v150l271 -183v-150z" />
    <glyph glyph-name="greaterequal" unicode="&#x2265;" 
d="M118 364l131 88l-131 88v150l271 -183v-110l-271 -183v150zM118 -1v150l271 183v-150z" />
    <glyph glyph-name="uni231A" unicode="&#x231a;" horiz-adv-x="666" 
d="M446 -205h-261v235q-58 34 -91.5 93t-33.5 127t33.5 126.5t91.5 92.5v235h261v-234q49 -30 81 -77t41 -103h38v-80h-38q-19 -118 -122 -180v-235zM167 398q-62 -62 -62 -148q0 -87 62 -149t149 -62q86 0 148 62t62 149q0 86 -62 148t-148 62q-87 0 -149 -62zM488 337
l-6 -19l-166 -93l-133 75l-6 20l20 5l119 -70l153 87z" />
    <glyph glyph-name="uni23F2" unicode="&#x23f2;" horiz-adv-x="1072" 
d="M199 5q-139 139 -139 337q0 197 139 336q140 140 337 140q196 0 336 -140t140 -336q0 -197 -140 -337q-139 -139 -336 -139q-198 0 -337 139zM237 640q-123 -123 -123 -298q0 -174 123 -299q124 -123 299 -123t298 123q123 125 123 299q0 175 -123 298t-298 123
t-299 -123zM881 544l-10 -36l-335 -192l-248 142l-10 35l36 10l222 -129l309 179zM802 318v46h126v-46h-126zM559 -50h-46v126h46v-126zM145 318v46h126v-46h-126zM559 607h-46v126h46v-126z" />
    <glyph glyph-name="uni2550" unicode="&#x2550;" horiz-adv-x="2158" 
d="M0 417h2158v-119h-2158v119zM0 255h2158v-119h-2158v119z" />
    <glyph glyph-name="lozenge" unicode="&#x25ca;" horiz-adv-x="482" 
d="M308 5h-134l-154 291l154 291h134l154 -291zM320 296l-79 180l-79 -180l79 -180z" />
    <glyph glyph-name="uni261D" unicode="&#x261d;" horiz-adv-x="705" 
d="M645 249v-277h-370l-215 292q8 8 29 19q62 30 115 -25l71 -74v450q0 61 50 61t50 -58v-229h36q29 0 41.5 -13t12.5 -41h36q29 0 41.5 -13t12.5 -41h34q30 0 43 -12t13 -39zM645 -243h-370v161h370v-161zM584 -142q-11 11 -26 5.5t-19.5 -18.5t6.5 -27q12 -12 27 -6.5
t18.5 19.5t-6.5 27z" />
    <glyph glyph-name="uni261E" unicode="&#x261e;" horiz-adv-x="1061" 
d="M555 51h-277v370l292 215q9 -9 19 -30q31 -62 -25 -114l-74 -71h450q61 0 61 -50t-58 -50h-229v-36q0 -29 -13 -41.5t-41 -12.5v-36q0 -29 -13 -41.5t-41 -12.5v-34q0 -30 -12 -43t-39 -13zM60 51v370h164v-370h-164zM161 111q12 12 7 27.5t-18.5 19.5t-27.5 -7
q-12 -12 -6.5 -27t19.5 -18.5t26 5.5z" />
    <glyph glyph-name="uni26F3" unicode="&#x26f3;" horiz-adv-x="674" 
d="M60 513q0 115 81 196t196 81t196 -81t81 -196q0 -86 -82 -216l-195 -307l-197 309q-80 128 -80 214zM258 591q-32 -32 -32 -78t32 -78q34 -32 79 -32q46 0 78 32t32 78t-32 78t-78 32q-45 0 -79 -32z" />
    <glyph glyph-name="uni2709" unicode="&#x2709;" horiz-adv-x="1236" 
d="M60 518v60h1116v-60l-558 -334zM60 37v444l338 -201zM810 263l366 -263h-1116l366 263l192 -114zM1176 37l-338 243l338 201v-444z" />
    <glyph glyph-name="uniF040" unicode="&#xf040;" horiz-adv-x="3054" 
d="M1576 409l61 60l129 -129h1288v-118h-1286l-131 -131l-61 59l130 130zM1286 222h-1286v118h1288l129 129l61 -60l-130 -129l130 -130l-61 -59z" />
    <glyph glyph-name="uniF041" unicode="&#xf041;" horiz-adv-x="2855" 
d="M1403 168l156 272l80 -46l-31 -54h1247v-118h-1316l-57 -99zM1315 340l58 100l79 -46l-156 -271l-80 45l31 54h-1247v118h1315z" />
    <glyph glyph-name="uniF042" unicode="&#xf042;" horiz-adv-x="2825" 
d="M2825 222h-1388v118h1388v-118zM0 340h1268v-118h-1268v118z" />
    <glyph glyph-name="uniF043" unicode="&#xf043;" horiz-adv-x="705" 
d="M275 -28l-215 292l8 6q13 12 31.5 19t48.5 1.5t56 -32.5l71 -74v450q0 61 50 61t50 -58v-229h36q29 0 41.5 -13t12.5 -41h36q29 0 41.5 -13t12.5 -41h34q30 0 43 -12t13 -39v-277h-370zM275 -82h370v-161h-370v161zM545 -142q-12 -12 -6.5 -27.5t19.5 -19.5t26 7
q19 19 0 38t-39 2zM83 605v55h158v-55h-158zM409 605v55h158v-55h-158zM352 725h-55v158h55v-158z" />
    <glyph glyph-name="uniF044" unicode="&#xf044;" horiz-adv-x="931" 
d="M177 126l3 10q9 29 38.5 52t81.5 13l201 -45v478q0 61 50 61t50 -58v-229h36q29 0 41.5 -13t12.5 -41h36q29 0 41.5 -13t12.5 -41h34q30 0 43 -12t13 -39v-277h-370zM501 -82h370v-161h-370v161zM553 759v55h158v-158h-55v103h-103zM218 70v-55h-158v158h55v-103h103z
M771 -142q-12 -12 -6.5 -27.5t19.5 -19.5t26 7q19 19 0 38t-39 2z" />
    <glyph glyph-name="uniF045" unicode="&#xf045;" horiz-adv-x="903" 
d="M370 665h503v-55h-498v-202h36q29 0 41.5 -13t12.5 -41h36q29 0 41.5 -13t12.5 -41h34q30 0 43 -12t13 -39v-277h-370l-215 292q8 8 29 19q62 30 115 -25l71 -74v450q0 61 50 61q35 0 45 -30zM645 -243h-370v161h370v-161zM199 525l-112 112l112 112l39 -39l-73 -73
l73 -73zM584 -142q-11 11 -26 5.5t-19.5 -18.5t6.5 -27q12 -12 27 -6.5t18.5 19.5t-6.5 27z" />
    <glyph glyph-name="uniF046" unicode="&#xf046;" horiz-adv-x="952" 
d="M892 249v-277h-370l-215 292q8 8 29 19q62 30 115 -25l71 -74v426h-492v55h497q11 30 45 30q50 0 50 -58v-229h36q54 0 54 -54h36q54 0 54 -54h34q30 0 43 -12t13 -39zM892 -243h-370v161h370v-161zM704 749l112 -112l-112 -112l-39 39l73 73l-73 73zM831 -142
q-11 11 -26 5.5t-19.5 -18.5t6.5 -27q12 -12 27 -6.5t18.5 19.5t-6.5 27z" />
    <glyph glyph-name="uniF047" unicode="&#xf047;" horiz-adv-x="1010" 
d="M872 514l-6 -4v-634h-55v603l-137 -79l17 -31q27 -48 -19 -73l18 -32q27 -46 -20 -73l17 -30q29 -48 -17 -74l-239 -139l-185 321l145 332l5 -2q5 -2 13.5 -6t17 -11t17.5 -17t14 -23t6 -30.5t-6 -38.5l-29 -99l391 226q53 29 78 -13q25 -43 -26 -73zM245 -159l-185 321
l140 81l184 -321zM765 651l-39 39l112 112l112 -112l-39 -39l-73 73zM295 -27q-11 11 -26 5.5t-19.5 -18.5t6.5 -27q12 -12 27 -6.5t18.5 19.5t-6.5 27z" />
    <glyph glyph-name="uniF048" unicode="&#xf048;" horiz-adv-x="1145" 
d="M485 0l-240 137l186 321l360 40q3 -17 1 -35q-4 -69 -78 -87l-100 -24l332 -192v603h55v-635l4 -2q51 -30 27 -74q-25 -43 -76 -14l-198 115l-18 -30q-28 -48 -73 -21l-18 -31q-27 -46 -74 -19l-17 -30q-28 -47 -73 -22zM60 245l185 320l140 -80l-186 -320zM1085 -51
l-112 -112l-112 112l39 39l73 -73l73 73zM191 293q-11 12 -26 7t-19.5 -18.5t6.5 -27.5q12 -12 27.5 -6.5t19 19.5t-7.5 26z" />
    <glyph glyph-name="uniF400" unicode="&#xf400;" horiz-adv-x="0" 
d="M-150 567h-120l59 158h136z" />
    <glyph glyph-name="uniF401" unicode="&#xf401;" horiz-adv-x="0" 
d="M-201 742h-122l67 129h140z" />
    <glyph glyph-name="uniF406" unicode="&#xf406;" horiz-adv-x="438" 
d="M277 879h111q0 -70 -47 -111t-122 -41t-122 41t-47 111h111q11 -54 58 -54t58 54z" />
    <glyph glyph-name="uniF407" unicode="&#xf407;" horiz-adv-x="341" 
d="M114 -72l18 97l77 -3l-9 -44q21 -9 33.5 -28.5t12.5 -43.5q0 -42 -29.5 -64t-79.5 -22q-30 0 -42 4l14 65q14 -2 16 -2q23 0 23 21q0 20 -34 20z" />
    <glyph glyph-name="uniF408" unicode="&#xf408;" horiz-adv-x="438" 
d="M273 738l-54 75l-54 -75h-123l119 142h116l119 -142h-123z" />
    <glyph glyph-name="uniF409" unicode="&#xf409;" horiz-adv-x="340" 
d="M101 -51h137v-129l-137 -117v246z" />
    <glyph glyph-name="uniF40A" unicode="&#xf40a;" horiz-adv-x="185" 
d="M45 690h136v-150l-136 -116v266z" />
    <glyph glyph-name="uniF40B" unicode="&#xf40b;" horiz-adv-x="344" 
d="M242 759h-140v110h140v-110z" />
    <glyph glyph-name="uniF40C" unicode="&#xf40c;" horiz-adv-x="377" 
d="M72 800q0 45 32 72t83 27q52 0 84.5 -27t32.5 -72q0 -44 -32.5 -71t-84.5 -27q-51 0 -83 27t-32 71zM187 769q37 0 37 31t-37 31q-36 0 -36 -31t36 -31z" />
    <glyph glyph-name="uniF40D" unicode="&#xf40d;" horiz-adv-x="426" 
d="M271 738q-29 0 -62 16t-47 16q-27 0 -46 -28l-69 61q21 30 51 48t60 18q26 0 59 -16q35 -16 50 -16q23 0 44 29l68 -61q-45 -67 -108 -67z" />
    <glyph glyph-name="uniF40E" unicode="&#xf40e;" horiz-adv-x="348" 
d="M198 49l32 -49q-31 -40 -31 -61q0 -22 17 -22q6 0 16 2l13 -65q-12 -4 -44 -4q-43 0 -71 19.5t-28 56.5q0 64 96 123z" />
    <glyph glyph-name="dollar.fitted" unicode="&#xf5f5;" horiz-adv-x="494" 
d="M455 587l-101 -73q-29 41 -53 54v-169q87 -30 124 -76q38 -46 38 -131q0 -76 -40 -128.5t-112 -67.5v-112h-116v112q-103 16 -165 108l105 74q36 -47 70 -61v176q-84 30 -122.5 80.5t-38.5 131.5q0 74 38.5 124t112.5 65v118h116v-119q97 -19 144 -106zM323 186
q0 38 -22 60v-120q22 19 22 60zM205 445v119q-21 -20 -21 -59t21 -60z" />
    <glyph glyph-name="Euro.fitted" unicode="&#xf5f6;" horiz-adv-x="549" 
d="M85 367h-78v112h83q15 109 73 164.5t150 55.5q88 0 142.5 -56.5t68.5 -166.5h-133q-11 105 -78 105q-69 0 -83 -102h105v-112h-110v-51h110v-112h-104q17 -95 82 -95q35 0 53 24.5t25 80.5h133q-29 -223 -211 -223q-89 0 -146 53.5t-75 159.5h-85v112h78v51z" />
    <glyph glyph-name="cent.fitted" unicode="&#xf5f7;" horiz-adv-x="382" 
d="M274 -116h-114v115q-63 19 -98 76.5t-35 141.5v68q0 182 133 216v121h114v-118q68 -17 100 -77l-92 -65q-20 39 -59 39t-53.5 -28.5t-14.5 -95.5v-52q0 -68 14 -97t54 -29q41 0 61 42l91 -63q-31 -67 -101 -82v-112z" />
    <glyph glyph-name="sterling.fitted" unicode="&#xf5f8;" horiz-adv-x="469" 
d="M434 0h-413v118h63v159h-63v119h63v31q0 138 51 205t143 67q114 0 177 -102l-111 -66q-27 50 -63 50q-57 0 -57 -154v-31h103v-119h-103v-159h210v-118z" />
    <glyph glyph-name="yen.fitted" unicode="&#xf5f9;" horiz-adv-x="518" 
d="M189 282h-127v112h78l-129 296h160l88 -253l88 253h160l-129 -296h79v-112h-128v-51h128v-112h-128v-119h-140v119h-127v112h127v51z" />
    <glyph glyph-name="florin.fitted" unicode="&#xf5fa;" horiz-adv-x="287" 
d="M18 381v119h53v27q0 88 40.5 125.5t124.5 37.5h35v-119h-18q-45 0 -45 -71h63v-119h-63v-395q0 -94 -47 -135t-143 -41v119q29 0 41 16.5t12 53.5v382h-53z" />
    <glyph glyph-name="uni20B4.fitted" unicode="&#xf5fb;" horiz-adv-x="507" 
d="M66 219h-37v106h449v-106h-271q-3 -15 -3 -33q0 -77 65 -77q28 0 45.5 14t42.5 55l104 -74q-41 -62 -87 -87q-46 -26 -118 -26q-91 0 -142 55q-50 56 -50 139q0 8 2 34zM478 366h-449v106h270q5 17 5 37q0 72 -55 72q-43 0 -78 -70l-103 75q63 113 182 113q94 0 144 -53
t50 -133q0 -20 -4 -41h38v-106z" />
    <glyph glyph-name="uni20BD.fitted" unicode="&#xf5fc;" horiz-adv-x="473" 
d="M76 86h-68v118h68v39h-68v118h68v329h170q103 0 161.5 -57t58.5 -164t-58.5 -166.5t-161.5 -59.5h-30v-39h89v-118h-89v-86h-140v86zM216 571v-210h6q56 0 80 25.5t24 82.5q0 52 -25 77t-79 25h-6z" />
    <glyph glyph-name="uni20B8.fitted" unicode="&#xf5fd;" horiz-adv-x="453" 
d="M7 405v119h440v-119h-150v-405h-140v405h-150zM447 690v-119h-440v119h440z" />
    <glyph glyph-name="currency.fitted" unicode="&#xf5fe;" horiz-adv-x="504" 
d="M77 367q0 55 19 94l-69 82l91 76l58 -70q38 18 75 18q40 0 74 -19l60 71l91 -76l-70 -83q19 -42 19 -93t-19 -93l70 -83l-90 -76l-60 71q-35 -19 -75 -19q-42 0 -75 18l-59 -70l-90 76l69 82q-19 42 -19 94zM204 437q-17 -26 -17 -70t17 -70t47 -26t47 26t17 70t-17 70
t-47 26t-47 -26z" />
    <glyph glyph-name="uniF639" unicode="&#xf639;" horiz-adv-x="505" 
d="M46 206v278q0 106 56 160.5t151 54.5t151 -54.5t56 -160.5v-278q0 -106 -56 -160.5t-151 -54.5t-151 54.5t-56 160.5zM320 211v268q0 55 -15 78.5t-52 23.5t-52 -23.5t-15 -78.5v-268q0 -55 15 -78.5t52 -23.5t52 23.5t15 78.5z" />
    <glyph glyph-name="uniF63A" unicode="&#xf63a;" horiz-adv-x="448" 
d="M215 118h186v-118h-366v90l189 272q45 66 45 137q0 41 -16 62.5t-43 21.5q-60 0 -60 -84h-120q0 89 55 144q56 56 138 56q78 0 132 -58q54 -57 54 -142q0 -51 -24 -105q-10 -25 -32 -59q-9 -15 -18 -28l-15 -23z" />
    <glyph glyph-name="uniF63B" unicode="&#xf63b;" horiz-adv-x="447" 
d="M204 297h-44v118h44q30 0 48.5 23.5t18.5 64.5q0 35 -16.5 57.5t-43.5 22.5q-49 0 -60 -74h-121q4 85 56 137q53 53 132 53q82 0 138 -56q55 -55 55 -134q0 -92 -80 -151q88 -52 88 -165q0 -87 -50 -145q-49 -57 -144 -57q-92 0 -146 53t-57 141h120q10 -76 73 -76
q31 0 47.5 25t16.5 66q0 97 -75 97z" />
    <glyph glyph-name="uniF63C" unicode="&#xf63c;" 
d="M10 195l195 495h150l-185 -473h95v176h140v-176h53v-119h-53v-98h-140v98h-255v97z" />
    <glyph glyph-name="uniF63D" unicode="&#xf63d;" horiz-adv-x="460" 
d="M234 355q-36 0 -50 -51h-126v386h346v-127h-209v-115q29 33 79 33q67 0 109.5 -65.5t42.5 -180.5q0 -244 -188 -244q-79 0 -135 49t-64 138h138q12 -69 57 -69q52 0 52 119q0 127 -52 127z" />
    <glyph glyph-name="uniF63E" unicode="&#xf63e;" horiz-adv-x="471" 
d="M203 690h146l-123 -282q25 11 53 11q67 0 115 -59q49 -58 49 -147q0 -110 -59 -166t-148 -56q-90 0 -148 54q-59 56 -59 158q0 81 56 207zM169 207q0 -98 67 -98t67 98q0 97 -67 97t-67 -97z" />
    <glyph glyph-name="uniF63F" unicode="&#xf63f;" horiz-adv-x="396" 
d="M133 571v-107h-120v226h370v-98l-163 -592h-142l159 571h-104z" />
    <glyph glyph-name="uniF640" unicode="&#xf640;" horiz-adv-x="474" 
d="M437 510q0 -50 -21 -90t-58 -62q37 -21 62.5 -67t25.5 -99q0 -93 -60 -147t-149 -54t-149 54t-60 147q0 53 25.5 99t62.5 67q-37 22 -58 62t-21 90q0 90 58 139q59 50 142 50q82 0 141 -50t59 -139zM306 205q0 43 -19.5 69.5t-49.5 26.5t-49.5 -26.5t-19.5 -69.5
q0 -42 19 -69.5t50 -27.5t50 27.5t19 69.5zM175 496q0 -37 17.5 -62t44.5 -25t44.5 25t17.5 62q0 36 -17.5 60.5t-44.5 24.5t-44.5 -24.5t-17.5 -60.5z" />
    <glyph glyph-name="uniF641" unicode="&#xf641;" horiz-adv-x="470" 
d="M268 0h-146l123 282q-25 -11 -53 -11q-66 0 -116 59q-48 58 -48 147q0 110 59 166t148 56q90 0 148 -55q59 -54 59 -157q0 -81 -56 -207zM302 483q0 98 -67 98t-67 -98q0 -97 67 -97t67 97z" />
    <glyph glyph-name="uniF6BA" unicode="&#xf6ba;" horiz-adv-x="266" 
d="M241 289h-216v112h216v-112z" />
    <glyph glyph-name="uniF6BB" unicode="&#xf6bb;" horiz-adv-x="427" 
d="M376 283h-325v124h325v-124z" />
    <glyph glyph-name="uniF6BC" unicode="&#xf6bc;" horiz-adv-x="598" 
d="M581 283h-564v124h564v-124z" />
    <glyph glyph-name="uniF6C3" unicode="&#xf6c3;" horiz-adv-x="282" 
d="M72 -51h137v-129l-137 -117v246z" />
    <glyph glyph-name="uniF6C9" unicode="&#xf6c9;" horiz-adv-x="297" 
d="M167 742h-122l67 129h140z" />
    <glyph glyph-name="uniF6CA" unicode="&#xf6ca;" horiz-adv-x="438" 
d="M42 880h123l54 -75l54 75h123l-119 -142h-116z" />
    <glyph glyph-name="uniF6CB" unicode="&#xf6cb;" horiz-adv-x="417" 
d="M172 752h-124v117h124v-117zM369 752h-124v117h124v-117z" />
    <glyph glyph-name="uniF6CE" unicode="&#xf6ce;" horiz-adv-x="347" 
d="M70 871h140l67 -129h-122z" />
    <glyph glyph-name="uniF6CF" unicode="&#xf6cf;" horiz-adv-x="506" 
d="M170 742h-122l67 129h140zM373 742h-122l67 129h140z" />
    <glyph glyph-name="uniF6D0" unicode="&#xf6d0;" horiz-adv-x="414" 
d="M344 744h-274v112h274v-112z" />
    <glyph glyph-name="uniF6D1" unicode="&#xf6d1;" horiz-adv-x="368" 
d="M229 879h129q0 -151 -174 -151t-174 151h129q0 -62 45 -62t45 62z" />
    <glyph glyph-name="uniF6D4" unicode="&#xf6d4;" horiz-adv-x="352" 
d="M217 689h113q0 -65 -46 -98q-45 -33 -108 -33q-62 0 -109 33q-45 33 -45 98h113q0 -55 41 -55t41 55z" />
    <glyph glyph-name="uniF6DC" unicode="&#xf6dc;" horiz-adv-x="305" 
d="M123 690h124v-690h-140v535l-82 -65v144z" />
    <glyph glyph-name="uniFEFF" unicode="&#xfeff;" horiz-adv-x="0" 
 />
    <glyph glyph-name="uniF4D3" unicode="&#x1f4d3;" horiz-adv-x="752" 
d="M60 60v815q0 25 18 43t43 18h510q25 0 43 -18t18 -43v-815q0 -25 -18 -42.5t-43 -17.5h-510q-25 0 -43 17.5t-18 42.5zM376 25q17 0 29 12t12 29t-12 29t-29 12q-18 0 -30 -12t-12 -29t12 -29t30 -12zM648 132v691h-544v-691h544zM357 879q0 -17 18 -17t18 17t-18 17
t-18 -17z" />
    <glyph glyph-name="uniF4F1" unicode="&#x1f4f1;" horiz-adv-x="552" 
d="M60 60v715q0 25 18 43t43 18h310q25 0 43 -18t18 -43v-715q0 -25 -18 -42.5t-43 -17.5h-310q-25 0 -43 17.5t-18 42.5zM276 25q17 0 29 12t12 29t-12 29t-29 12q-18 0 -30 -12t-12 -29t12 -29t30 -12zM448 132v591h-344v-591h344zM323 790h-94q-11 0 -11 -12t11 -12h94
q11 0 11 12t-11 12z" />
    <glyph glyph-name="NULL" horiz-adv-x="0" 
 />
    <glyph glyph-name="CR" horiz-adv-x="333" 
 />
    <glyph glyph-name="uni2197.ss02" horiz-adv-x="667" 
d="M607 500v-500h-78v367l-414 -414l-55 55l414 414h-367v78h500z" />
    <glyph glyph-name="uni2199.ss02" horiz-adv-x="667" 
d="M60 0v500h78v-367l414 414l55 -55l-414 -414h367v-78h-500z" />
    <glyph glyph-name="a.ss01" horiz-adv-x="445" 
d="M273 473v27h128v-500h-128v27q-29 -36 -82 -36q-76 0 -119.5 61t-43.5 165v68q0 106 44.5 165t118.5 59q52 0 82 -36zM214 99q38 4 49 32.5t10 91.5v61q0 117 -59 117q-32 0 -45 -29t-13 -95v-52q0 -67 12 -96.5t46 -29.5z" />
    <glyph glyph-name="uni2198.ss02" horiz-adv-x="667" 
d="M529 133v367h78v-500h-500v78h367l-414 414l55 55z" />
    <glyph glyph-name="afii10069.ss01" horiz-adv-x="444" 
d="M28 219v62q0 107 46 167.5t123 60.5q43 0 74 -21q-1 60 -15 82t-53 22q-41 0 -88 -36l-53 82q58 61 157 61q181 0 181 -239v-175v-4v-62q0 -110 -49 -169t-137 -59t-137 59t-49 169zM156 277v-54q0 -66 13 -95t45 -29t45 29t13 95v54q0 66 -13 95t-45 29t-45 -29t-13 -95
z" />
    <glyph glyph-name="afii10074.ss01" horiz-adv-x="457" 
d="M285 500h128v-500h-125v38q-15 -25 -35 -36t-55 -11q-70 0 -112 48.5t-42 147.5v313h128v-293q0 -60 11 -83t41 -23q61 0 61 105v294z" />
    <glyph glyph-name="afii10075.ss01" horiz-adv-x="457" 
d="M285 500h128v-500h-125v38q-15 -25 -35 -36t-55 -11q-70 0 -112 48.5t-42 147.5v313h128v-293q0 -60 11 -83t41 -23q61 0 61 105v294zM269 689h113q0 -65 -46 -98q-45 -33 -108 -33q-62 0 -109 33q-45 33 -45 98h113q0 -55 41 -55t41 55z" />
    <glyph glyph-name="afii10081.ss01" horiz-adv-x="457" 
d="M172 0h-128v500h125v-39q30 48 98 48q66 0 106 -49t40 -147v-313h-128v293q0 60 -11 83t-41 23q-61 0 -61 -105v-294z" />
    <glyph glyph-name="afii10084.ss01" horiz-adv-x="680" 
d="M171 0h-128v500h125v-42q28 51 93 51q69 0 108 -67q43 67 117 67q72 0 111.5 -50.5t39.5 -145.5v-313h-128v293q0 56 -12 81t-40 25q-53 0 -53 -98v-301h-128v293q0 106 -52 106q-53 0 -53 -105v-294z" />
    <glyph glyph-name="uni2193.ss02" horiz-adv-x="826" 
d="M413 -107l-353 353l55 55l259 -259v586h78v-586l259 259l55 -55z" />
    <glyph glyph-name="uni2196.ss02" horiz-adv-x="667" 
d="M138 367v-367h-78v500h500v-78h-367l414 -414l-55 -55z" />
    <glyph glyph-name="uni261E.ss02" horiz-adv-x="1061" 
d="M555 51h-277v370l292 215q9 -9 19 -30q31 -62 -25 -114l-74 -71h450q61 0 61 -50t-58 -50h-229v-36q0 -29 -13 -41.5t-41 -12.5v-36q0 -29 -13 -41.5t-41 -12.5v-34q0 -30 -12 -43t-39 -13zM60 51v370h164v-370h-164zM106 396h-20v-319h20v319zM178 77h20v319h-20v-319z
M152 396h-20v-222h20v222zM152 112h-20v-35h20v35z" />
    <glyph glyph-name="uni2191.ss02" horiz-adv-x="826" 
d="M413 629l353 -353l-55 -55l-259 259v-586h-78v586l-259 -259l-55 55z" />
    <glyph glyph-name="uni2192.ss02" horiz-adv-x="855" 
d="M795 261l-353 -353l-55 55l259 259h-586v78h586l-259 259l55 55z" />
    <glyph glyph-name="acircumflex.ss01" horiz-adv-x="445" 
d="M273 473v27h128v-500h-128v27q-29 -36 -82 -36q-76 0 -119.5 61t-43.5 165v68q0 106 44.5 165t118.5 59q52 0 82 -36zM214 99q38 4 49 32.5t10 91.5v61q0 117 -59 117q-32 0 -45 -29t-13 -95v-52q0 -67 12 -96.5t46 -29.5zM80 568l96 142h118l96 -142h-120l-35 70
l-35 -70h-120z" />
    <glyph glyph-name="atilde.ss01" horiz-adv-x="445" 
d="M273 473v27h128v-500h-128v27q-29 -36 -82 -36q-76 0 -119.5 61t-43.5 165v68q0 106 44.5 165t118.5 59q52 0 82 -36zM214 99q38 4 49 32.5t10 91.5v61q0 117 -59 117q-32 0 -45 -29t-13 -95v-52q0 -67 12 -96.5t46 -29.5zM292 561q-29 0 -62 16t-47 16q-27 0 -46 -28
l-67 59q47 68 112 68q26 0 59 -16t49 -16q23 0 44 29l66 -61q-45 -67 -108 -67z" />
    <glyph glyph-name="adieresis.ss01" horiz-adv-x="445" 
d="M273 473v27h128v-500h-128v27q-29 -36 -82 -36q-76 0 -119.5 61t-43.5 165v68q0 106 44.5 165t118.5 59q52 0 82 -36zM214 99q38 4 49 32.5t10 91.5v61q0 117 -59 117q-32 0 -45 -29t-13 -95v-52q0 -67 12 -96.5t46 -29.5zM208 573h-124v117h124v-117zM372 573h-123v117
h123v-117z" />
    <glyph glyph-name="aring.ss01" horiz-adv-x="445" 
d="M273 473v27h128v-500h-128v27q-29 -36 -82 -36q-76 0 -119.5 61t-43.5 165v68q0 106 44.5 165t118.5 59q52 0 82 -36zM214 99q38 4 49 32.5t10 91.5v61q0 117 -59 117q-32 0 -45 -29t-13 -95v-52q0 -67 12 -96.5t46 -29.5zM148 567q-34 31 -34 79t34 79t89 31t89 -31
t34 -79t-34 -79q-34 -30 -89 -30t-89 30zM200 646q0 -20 10 -32t27 -12q37 0 37 44q0 43 -37 43t-37 -43z" />
    <glyph glyph-name="egrave.ss01" horiz-adv-x="420" 
d="M285 141l92 -63q-22 -46 -58.5 -66.5t-99.5 -20.5q-92 0 -141.5 61t-49.5 165v68q0 110 47.5 167t135.5 57q79 0 126.5 -41t47.5 -116q0 -154 -174 -154h-55q2 -99 66 -99q25 0 37.5 8.5t25.5 33.5zM212 401q-56 0 -56 -108h49q25 0 38.5 14t13.5 39q0 55 -45 55z
M101 725h136l59 -158h-120z" />
    <glyph glyph-name="eacute.ss01" horiz-adv-x="420" 
d="M285 141l92 -63q-22 -46 -58.5 -66.5t-99.5 -20.5q-92 0 -141.5 61t-49.5 165v68q0 110 47.5 167t135.5 57q79 0 126.5 -41t47.5 -116q0 -154 -174 -154h-55q2 -99 66 -99q25 0 37.5 8.5t25.5 33.5zM212 401q-56 0 -56 -108h49q25 0 38.5 14t13.5 39q0 55 -45 55z
M261 567h-120l59 158h136z" />
    <glyph glyph-name="ecircumflex.ss01" horiz-adv-x="420" 
d="M285 141l92 -63q-22 -46 -58.5 -66.5t-99.5 -20.5q-92 0 -141.5 61t-49.5 165v68q0 110 47.5 167t135.5 57q79 0 126.5 -41t47.5 -116q0 -154 -174 -154h-55q2 -99 66 -99q25 0 37.5 8.5t25.5 33.5zM212 401q-56 0 -56 -108h49q25 0 38.5 14t13.5 39q0 55 -45 55zM57 568
l96 142h118l96 -142h-120l-35 70l-35 -70h-120z" />
    <glyph glyph-name="edieresis.ss01" horiz-adv-x="420" 
d="M285 141l92 -63q-22 -46 -58.5 -66.5t-99.5 -20.5q-92 0 -141.5 61t-49.5 165v68q0 110 47.5 167t135.5 57q79 0 126.5 -41t47.5 -116q0 -154 -174 -154h-55q2 -99 66 -99q25 0 37.5 8.5t25.5 33.5zM212 401q-56 0 -56 -108h49q25 0 38.5 14t13.5 39q0 55 -45 55z
M191 573h-124v117h124v-117zM355 573h-123v117h123v-117z" />
    <glyph glyph-name="afii10065.ss01" horiz-adv-x="445" 
d="M273 473v27h128v-500h-128v27q-29 -36 -82 -36q-76 0 -119.5 61t-43.5 165v68q0 106 44.5 165t118.5 59q52 0 82 -36zM214 99q38 4 49 32.5t10 91.5v61q0 117 -59 117q-32 0 -45 -29t-13 -95v-52q0 -67 12 -96.5t46 -29.5z" />
    <glyph glyph-name="afii10070.ss01" horiz-adv-x="420" 
d="M285 141l92 -63q-22 -46 -58.5 -66.5t-99.5 -20.5q-92 0 -141.5 61t-49.5 165v68q0 110 47.5 167t135.5 57q79 0 126.5 -41t47.5 -116q0 -154 -174 -154h-55q2 -99 66 -99q25 0 37.5 8.5t25.5 33.5zM212 401q-56 0 -56 -108h49q25 0 38.5 14t13.5 39q0 55 -45 55z" />
    <glyph glyph-name="afii10071.ss01" horiz-adv-x="420" 
d="M285 141l92 -63q-22 -46 -58.5 -66.5t-99.5 -20.5q-92 0 -141.5 61t-49.5 165v68q0 110 47.5 167t135.5 57q79 0 126.5 -41t47.5 -116q0 -154 -174 -154h-55q2 -99 66 -99q25 0 37.5 8.5t25.5 33.5zM212 401q-56 0 -56 -108h49q25 0 38.5 14t13.5 39q0 55 -45 55z
M191 573h-124v117h124v-117zM355 573h-123v117h123v-117z" />
    <glyph glyph-name="aogonek.ss01" horiz-adv-x="446" 
d="M273 500h128v-500q-1 -2 -22 -31q-9 -16 -9 -30q0 -22 18 -22q5 0 15 2l13 -65q-11 -4 -44 -4q-39 0 -69 18t-30 58t31 74h-31v27q-29 -36 -82 -36q-76 0 -119.5 61t-43.5 165v68q0 106 44.5 165t118.5 59q52 0 82 -36v27zM214 99q38 4 49 32.5t10 91.5v61q0 117 -59 117
q-32 0 -45 -29t-13 -95v-52q0 -67 12 -96.5t46 -29.5z" />
    <glyph glyph-name="abreve.ss01" horiz-adv-x="445" 
d="M273 473v27h128v-500h-128v27q-29 -36 -82 -36q-76 0 -119.5 61t-43.5 165v68q0 106 44.5 165t118.5 59q52 0 82 -36zM214 99q38 4 49 32.5t10 91.5v61q0 117 -59 117q-32 0 -45 -29t-13 -95v-52q0 -67 12 -96.5t46 -29.5zM292 690h93q-2 -63 -40.5 -97.5t-99.5 -34.5
t-99.5 34.5t-40.5 97.5h93q5 -53 47 -53t47 53z" />
    <glyph glyph-name="eogonek.ss01" horiz-adv-x="420" 
d="M285 141l92 -63q-30 -62 -88 -78q-30 -40 -30 -61q0 -22 18 -22q5 0 15 2l13 -65q-11 -4 -44 -4q-42 0 -70.5 19t-28.5 57q0 36 25 67q-77 10 -118 70t-41 154v68q0 110 47.5 167t135.5 57q79 0 126.5 -41t47.5 -116q0 -154 -174 -154h-55q2 -99 66 -99q25 0 37.5 8.5
t25.5 33.5zM212 401q-56 0 -56 -108h49q25 0 38.5 14t13.5 39q0 55 -45 55z" />
    <glyph glyph-name="ecaron.ss01" horiz-adv-x="420" 
d="M285 141l92 -63q-22 -46 -58.5 -66.5t-99.5 -20.5q-92 0 -141.5 61t-49.5 165v68q0 110 47.5 167t135.5 57q79 0 126.5 -41t47.5 -116q0 -154 -174 -154h-55q2 -99 66 -99q25 0 37.5 8.5t25.5 33.5zM212 401q-56 0 -56 -108h49q25 0 38.5 14t13.5 39q0 55 -45 55z
M367 710l-96 -142h-118l-96 142h120l35 -70l35 70h120z" />
    <glyph glyph-name="amacron.ss01" horiz-adv-x="445" 
d="M273 473v27h128v-500h-128v27q-29 -36 -82 -36q-76 0 -119.5 61t-43.5 165v68q0 106 44.5 165t118.5 59q52 0 82 -36zM214 99q38 4 49 32.5t10 91.5v61q0 117 -59 117q-32 0 -45 -29t-13 -95v-52q0 -67 12 -96.5t46 -29.5zM350 573h-240v111h240v-111z" />
    <glyph glyph-name="emacron.ss01" horiz-adv-x="420" 
d="M285 141l92 -63q-22 -46 -58.5 -66.5t-99.5 -20.5q-92 0 -141.5 61t-49.5 165v68q0 110 47.5 167t135.5 57q79 0 126.5 -41t47.5 -116q0 -154 -174 -154h-55q2 -99 66 -99q25 0 37.5 8.5t25.5 33.5zM212 401q-56 0 -56 -108h49q25 0 38.5 14t13.5 39q0 55 -45 55z
M336 573h-240v111h240v-111z" />
    <glyph glyph-name="edotaccent.ss01" horiz-adv-x="420" 
d="M285 141l92 -63q-22 -46 -58.5 -66.5t-99.5 -20.5q-92 0 -141.5 61t-49.5 165v68q0 110 47.5 167t135.5 57q79 0 126.5 -41t47.5 -116q0 -154 -174 -154h-55q2 -99 66 -99q25 0 37.5 8.5t25.5 33.5zM212 401q-56 0 -56 -108h49q25 0 38.5 14t13.5 39q0 55 -45 55z
M274 566h-128v124h128v-124z" />
    <glyph glyph-name="afii10065.var.accented.ss01" horiz-adv-x="445" 
d="M273 473v27h128v-500h-128v27q-29 -36 -82 -36q-76 0 -119.5 61t-43.5 165v68q0 106 44.5 165t118.5 59q52 0 82 -36zM214 99q38 4 49 32.5t10 91.5v61q0 117 -59 117q-32 0 -45 -29t-13 -95v-52q0 -67 12 -96.5t46 -29.5zM270 567h-120l59 158h136z" />
    <glyph glyph-name="afii10070.var.accented.ss01" horiz-adv-x="420" 
d="M285 141l92 -63q-22 -46 -58.5 -66.5t-99.5 -20.5q-92 0 -141.5 61t-49.5 165v68q0 110 47.5 167t135.5 57q79 0 126.5 -41t47.5 -116q0 -154 -174 -154h-55q2 -99 66 -99q25 0 37.5 8.5t25.5 33.5zM212 401q-56 0 -56 -108h49q25 0 38.5 14t13.5 39q0 55 -45 55z
M263 567h-120l59 158h136z" />
    <glyph glyph-name="afii10074.var.accented.ss01" horiz-adv-x="457" 
d="M285 500h128v-500h-125v38q-15 -25 -35 -36t-55 -11q-70 0 -112 48.5t-42 147.5v313h128v-293q0 -60 11 -83t41 -23q61 0 61 105v294zM272 567h-120l59 158h136z" />
    <glyph glyph-name="afii10071.var.accented.ss01" horiz-adv-x="420" 
d="M285 141l92 -63q-22 -46 -58.5 -66.5t-99.5 -20.5q-92 0 -141.5 61t-49.5 165v68q0 110 47.5 167t135.5 57q79 0 126.5 -41t47.5 -116q0 -154 -174 -154h-55q2 -99 66 -99q25 0 37.5 8.5t25.5 33.5zM212 401q-56 0 -56 -108h49q25 0 38.5 14t13.5 39q0 55 -45 55z
M190 573h-124v117h124v-117zM354 573h-123v117h123v-117zM265 717h-120l59 158h136z" />
    <glyph glyph-name="uni04E3.ss01" horiz-adv-x="457" 
d="M285 500h128v-500h-125v38q-15 -25 -35 -36t-55 -11q-70 0 -112 48.5t-42 147.5v313h128v-293q0 -60 11 -83t41 -23q61 0 61 105v294zM348 573h-240v111h240v-111z" />
    <glyph glyph-name="afii10193.ss01" horiz-adv-x="457" 
d="M285 500h128v-500h-125v38q-16 -26 -33 -36v-119h-117v119q-94 37 -94 185v313h128v-293q0 -60 11 -83t41 -23q61 0 61 105v294z" />
    <glyph glyph-name="uni2190.ss02" horiz-adv-x="855" 
d="M209 222l259 -259l-55 -55l-353 353l353 353l55 -55l-259 -259h586v-78h-586z" />
    <glyph glyph-name="aacute.ss01" horiz-adv-x="445" 
d="M273 473v27h128v-500h-128v27q-29 -36 -82 -36q-76 0 -119.5 61t-43.5 165v68q0 106 44.5 165t118.5 59q52 0 82 -36zM214 99q38 4 49 32.5t10 91.5v61q0 117 -59 117q-32 0 -45 -29t-13 -95v-52q0 -67 12 -96.5t46 -29.5zM286 567h-120l59 158h136z" />
    <glyph glyph-name="agrave.ss01" horiz-adv-x="445" 
d="M273 473v27h128v-500h-128v27q-29 -36 -82 -36q-76 0 -119.5 61t-43.5 165v68q0 106 44.5 165t118.5 59q52 0 82 -36zM214 99q38 4 49 32.5t10 91.5v61q0 117 -59 117q-32 0 -45 -29t-13 -95v-52q0 -67 12 -96.5t46 -29.5zM121 725h136l59 -158h-120z" />
    <glyph glyph-name="afii10091.ss01" horiz-adv-x="709" 
d="M509 500h128v-392h58v-225h-117v117h-66v42q-28 -51 -93 -51q-69 0 -108 67q-43 -67 -117 -67q-72 0 -111.5 50.5t-39.5 145.5v313h128v-293q0 -56 12 -81t40 -25q53 0 53 98v301h128v-293q0 -106 52 -106q53 0 53 105v294z" />
    <glyph glyph-name="afii10090.ss01" horiz-adv-x="681" 
d="M509 500h128v-500h-125v42q-28 -51 -93 -51q-69 0 -108 67q-43 -67 -117 -67q-72 0 -111.5 50.5t-39.5 145.5v313h128v-293q0 -56 12 -81t40 -25q53 0 53 98v301h128v-293q0 -106 52 -106q53 0 53 105v294z" />
    <glyph glyph-name="afii10088.ss01" horiz-adv-x="486" 
d="M285 500h128v-392h58v-225h-117v117h-66v38q-15 -25 -35 -36t-55 -11q-70 0 -112 48.5t-42 147.5v313h128v-293q0 -60 11 -83t41 -23q61 0 61 105v294z" />
    <glyph glyph-name="e.ss01" horiz-adv-x="420" 
d="M285 141l92 -63q-22 -46 -58.5 -66.5t-99.5 -20.5q-92 0 -141.5 61t-49.5 165v68q0 110 47.5 167t135.5 57q79 0 126.5 -41t47.5 -116q0 -154 -174 -154h-55q2 -99 66 -99q25 0 37.5 8.5t25.5 33.5zM212 401q-56 0 -56 -108h49q25 0 38.5 14t13.5 39q0 55 -45 55z" />
    </font>
</defs>
</svg>
