<?xml version="1.0" standalone="no"?>
<!DOCTYPE svg PUBLIC "-//W3C//DTD SVG 1.1//EN" "http://www.w3.org/Graphics/SVG/1.1/DTD/svg11.dtd" >
<svg xmlns="http://www.w3.org/2000/svg" xmlns:xlink="http://www.w3.org/1999/xlink" version="1.1">
<metadata>
Created by FontForge 20190801 at Sun Jan 31 01:48:39 2016
 By root
DIN 2014 is a contemporary version of a well-known DIN typeface. The Regular performs well in long text settings, while Light and Bold faces are extremely legible at large sizes. Type family spans 18 faces: 6 Upright with the matching Italics of normal width and 6 Narrow ones. The typeface was designed by Vasily Biryukov and released by Paratype in 2015.
</metadata>
<defs>
<font id="DIN2014Narrow-Regular" horiz-adv-x="405" >
  <font-face 
    font-family="DIN 2014 Narrow"
    font-weight="400"
    font-stretch="normal"
    units-per-em="1000"
    panose-1="2 11 5 6 2 2 2 2 2 4"
    ascent="779"
    descent="-221"
    x-height="500"
    cap-height="690"
    bbox="-279 -243 3054 1010"
    underline-thickness="50"
    underline-position="-150"
    unicode-range="U+0020-1F4F1"
  />
<missing-glyph horiz-adv-x="200" 
 />
    <glyph glyph-name="afii10017.var.accented" unicode="&#x410;`" horiz-adv-x="477" 
d="M137 158l-39 -158h-90l192 690h76l193 -690h-90l-39 158h-203zM314 236l-76 308l-76 -308h152zM275 747h-71l67 129h92z" />
    <glyph glyph-name="afii10022.var.accented" unicode="&#x415;`" horiz-adv-x="437" 
d="M68 0v690h337v-78h-251v-216h227v-78h-227v-240h251v-78h-337zM263 747h-71l67 129h92z" />
    <glyph glyph-name="afii10026.var.accented" unicode="&#x418;`" horiz-adv-x="533" 
d="M68 0v690h86v-491l236 491h75v-690h-86v486l-234 -486h-77zM298 747h-71l67 129h92z" />
    <glyph glyph-name="afii10032.var.accented" unicode="&#x41e;`" horiz-adv-x="484" 
d="M444 383v-76c0 -210 -67 -315 -202 -315s-202 105 -202 315v76c0 210 67 315 202 315s202 -105 202 -315zM126 383v-76c0 -173 33 -237 116 -237s116 64 116 237v76c0 173 -33 237 -116 237s-116 -64 -116 -237zM272 747h-71l67 129h92z" />
    <glyph glyph-name="afii10037.var.accented" unicode="&#x423;`" horiz-adv-x="469" 
d="M246 274l122 416h90l-182 -574c-15 -48 -35 -81 -58 -98s-60 -26 -110 -26v79c29 0 50 5 62 14c12 10 23 33 32 70l-182 535h95zM271 747h-71l67 129h92z" />
    <glyph glyph-name="afii10045.var.accented" unicode="&#x42b;`" horiz-adv-x="642" 
d="M68 0v690h86v-273h80c65 0 113 -21 144 -62s47 -90 47 -147s-16 -106 -47 -147s-79 -61 -144 -61h-166zM234 339h-80v-261h80c70 0 105 43 105 130s-35 131 -105 131zM488 690h86v-690h-86v690zM338 747h-71l67 129h92z" />
    <glyph glyph-name="afii10047.var.accented" unicode="&#x42d;`" horiz-adv-x="466" 
d="M147 308v78h193c-1 169 -36 234 -116 234c-65 0 -99 -38 -119 -145h-81c18 149 85 223 200 223c135 0 202 -105 202 -315v-76c0 -210 -67 -315 -202 -315c-117 0 -183 74 -199 223h80c19 -103 52 -145 119 -145c83 0 116 65 116 237v1h-193zM246 747h-71l67 129h92z" />
    <glyph glyph-name="afii10048.var.accented" unicode="&#x42e;`" horiz-adv-x="634" 
d="M594 383v-76c0 -210 -62 -315 -185 -315s-185 105 -185 315v11h-70v-318h-86v690h86v-294h70c5 209 66 302 185 302c123 0 185 -105 185 -315zM310 383v-76c0 -172 26 -237 99 -237s99 65 99 237v76c0 172 -26 237 -99 237s-99 -65 -99 -237zM296 747h-71l67 129h92z" />
    <glyph glyph-name="afii10049.var.accented" unicode="&#x42f;`" horiz-adv-x="489" 
d="M239 291l-131 -291h-92l141 303c-78 25 -117 88 -117 187c0 132 72 200 203 200h178v-690h-86v291h-96zM243 369h92v243h-92c-87 0 -117 -34 -117 -122c0 -87 30 -121 117 -121zM278 747h-71l67 129h92z" />
    <glyph glyph-name="afii10023.var.accented" unicode="&#x401;`" horiz-adv-x="437" 
d="M68 0v690h337v-78h-251v-216h227v-78h-227v-240h251v-78h-337zM266 881h-71l67 129h92zM366 779h-90v90h90v-90zM192 779h-90v90h90v-90z" />
    <glyph glyph-name="afii10065.var.accented" unicode="&#x430;`" horiz-adv-x="399" 
d="M32 146c0 95 52 143 156 143h79v58c0 68 -18 87 -77 87c-49 0 -67 -8 -87 -48l-61 39c28 59 70 83 149 83c107 0 156 -45 156 -161v-347h-80v49c-16 -37 -41 -57 -93 -57c-92 0 -142 57 -142 154zM267 192v29h-74c-57 0 -81 -25 -81 -77s25 -78 75 -78c26 0 46 8 59 25
c14 17 21 50 21 101zM224 567h-69l54 158h89z" />
    <glyph glyph-name="afii10070.var.accented" unicode="&#x435;`" horiz-adv-x="395" 
d="M289 116l59 -41c-25 -55 -73 -83 -143 -83c-113 0 -173 85 -173 226v66c0 143 57 224 160 224c109 0 161 -69 161 -224v-52h-241v-14c0 -103 31 -154 92 -154c44 0 62 15 85 52zM112 302h161c0 101 -22 134 -81 134s-80 -42 -80 -134zM224 567h-69l54 158h89z" />
    <glyph glyph-name="afii10074.var.accented" unicode="&#x438;`" horiz-adv-x="437" 
d="M52 500h80v-342l176 342h77v-500h-80v349l-178 -349h-75v500zM249 567h-69l54 158h89z" />
    <glyph glyph-name="afii10080.var.accented" unicode="&#x43e;`" horiz-adv-x="401" 
d="M369 284v-66c0 -144 -61 -226 -169 -226s-168 82 -168 226v66c0 143 60 224 168 224s169 -81 169 -224zM200 64c59 0 89 51 89 154v66c0 100 -24 152 -89 152s-88 -51 -88 -152v-66c0 -103 29 -154 88 -154zM221 567h-69l54 158h89z" />
    <glyph glyph-name="afii10085.var.accented" unicode="&#x443;`" horiz-adv-x="382" 
d="M155 -19l4 14l-155 505h86l93 -322l15 -53l93 375h83l-138 -516c-18 -66 -38 -111 -61 -136c-22 -25 -61 -38 -117 -38v78c52 0 76 17 97 93zM224 567h-69l54 158h89z" />
    <glyph glyph-name="afii10093.var.accented" unicode="&#x44b;`" horiz-adv-x="523" 
d="M52 0v500h80v-192h52c109 0 164 -50 164 -151c0 -95 -47 -157 -144 -157h-152zM397 0v500h74v-500h-74zM181 236h-49v-164h53c53 0 80 29 80 86c0 56 -24 78 -84 78zM280 567h-69l54 158h89z" />
    <glyph glyph-name="afii10095.var.accented" unicode="&#x44d;`" horiz-adv-x="372" 
d="M260 218h-144v72h144c-3 92 -34 146 -95 146c-34 0 -61 -16 -80 -47l-61 42c29 51 76 77 141 77c109 0 175 -83 175 -224v-66c0 -143 -58 -226 -175 -226c-71 0 -118 28 -141 83l59 41c19 -35 47 -52 82 -52c63 0 95 51 95 154zM204 567h-69l54 158h89z" />
    <glyph glyph-name="afii10096.var.accented" unicode="&#x44e;`" horiz-adv-x="538" 
d="M506 284v-66c0 -151 -52 -226 -156 -226c-100 0 -155 85 -155 226h-63v-218h-80v500h80v-210h63c0 136 59 218 155 218c103 0 156 -80 156 -224zM350 64c56 0 76 49 76 154v66c0 104 -20 152 -76 152c-55 0 -76 -49 -76 -152v-66c0 -105 21 -154 76 -154zM276 567h-69
l54 158h89z" />
    <glyph glyph-name="afii10097.var.accented" unicode="&#x44f;`" horiz-adv-x="404" 
d="M352 500v-500h-80v192h-60l-96 -192h-88l105 203c-61 23 -91 72 -91 149c0 41 12 76 36 105c25 29 64 43 117 43h157zM217 264h55v164h-67c-55 0 -83 -25 -83 -76c0 -59 32 -88 95 -88zM247 567h-69l54 158h89z" />
    <glyph glyph-name="afii10071.var.accented" unicode="&#x451;`" horiz-adv-x="395" 
d="M289 116l59 -41c-25 -55 -73 -83 -143 -83c-113 0 -173 85 -173 226v66c0 143 57 224 160 224c109 0 161 -69 161 -224v-52h-241v-14c0 -103 31 -154 92 -154c44 0 62 15 85 52zM112 302h161c0 101 -22 134 -81 134s-80 -42 -80 -134zM226 717h-69l54 158h89zM164 600
h-88v90h88v-90zM318 600h-88v90h88v-90z" />
    <glyph glyph-name="fi" unicode="fi" horiz-adv-x="406" 
d="M354 0h-80v428h-126v-428h-80v428h-51v72h51v36c0 108 31 154 126 154h24v-76h-19c-43 0 -51 -21 -51 -92v-22h206v-500z" />
    <glyph glyph-name="fl" unicode="fl" horiz-adv-x="439" 
d="M277 154v460h-79c-43 0 -51 -21 -51 -92v-22h70v-72h-70v-428h-80v428h-51v72h51v36c0 108 31 154 126 154h164v-516c0 -31 0 -35 3 -58c6 -31 21 -38 59 -42v-74c-105 0 -142 46 -142 154z" />
    <glyph glyph-name=".notdef" horiz-adv-x="200" 
 />
    <glyph glyph-name="NULL" horiz-adv-x="0" 
 />
    <glyph glyph-name="CR" horiz-adv-x="333" 
 />
    <glyph glyph-name="space" unicode=" " horiz-adv-x="200" 
 />
    <glyph glyph-name="exclam" unicode="!" horiz-adv-x="192" 
d="M53 690h86v-501h-86v501zM144 0h-96v96h96v-96z" />
    <glyph glyph-name="quotedbl" unicode="&#x22;" horiz-adv-x="296" 
d="M32 690h86v-169h-86v169zM178 690h86v-169h-86v169z" />
    <glyph glyph-name="numbersign" unicode="#" horiz-adv-x="488" 
d="M15 416v78h99l29 196h86l-29 -196h102l28 196h87l-28 -196h80v-78h-94l-17 -132h81v-78h-95l-30 -206h-86l29 206h-101l-29 -206h-88l30 206h-84v78h98l17 132h-85zM289 416h-101l-19 -132h101z" />
    <glyph glyph-name="dollar" unicode="$" 
d="M243 616v-240c103 -41 149 -94 149 -194c0 -97 -44 -173 -149 -188v-110h-74v110c-67 7 -120 44 -157 113l68 46c32 -52 52 -73 89 -81v241c-95 39 -143 105 -143 198c0 99 47 173 143 185v116h74v-116c58 -8 105 -46 140 -113l-66 -40c-21 43 -46 68 -74 73zM243 289
v-217c49 11 63 49 63 110c0 54 -21 90 -63 107zM169 403v215c-38 -7 -57 -42 -57 -107c0 -55 19 -91 57 -108z" />
    <glyph glyph-name="percent" unicode="%" horiz-adv-x="588" 
d="M98 0l309 690h78l-308 -690h-79zM20 488v65c0 95 45 145 118 145s118 -50 118 -145v-65c0 -95 -45 -145 -118 -145s-118 50 -118 145zM83 551v-61c0 -60 16 -86 55 -86s55 26 55 86v61c0 60 -16 86 -55 86s-55 -26 -55 -86zM336 137v65c0 95 45 145 118 145
s118 -50 118 -145v-65c0 -95 -45 -145 -118 -145s-118 50 -118 145zM399 200v-61c0 -60 16 -86 55 -86s55 26 55 86v61c0 60 -16 86 -55 86s-55 -26 -55 -86z" />
    <glyph glyph-name="ampersand" unicode="&#x26;" horiz-adv-x="534" 
d="M36 186c0 75 31 143 92 203c-39 60 -58 112 -58 157c0 89 59 152 144 152c97 0 142 -62 142 -135c0 -24 -7 -48 -21 -72c-13 -23 -26 -41 -39 -52c-12 -11 -32 -29 -61 -54l137 -199c13 34 20 79 20 136h77c0 -71 -15 -137 -46 -196l95 -126h-104l-41 62
c-43 -47 -97 -70 -161 -70c-56 0 -99 19 -130 57s-46 84 -46 137zM218 70c41 0 76 17 106 50l-151 215c-37 -41 -55 -90 -55 -148c0 -73 35 -117 100 -117zM156 543c0 -35 12 -70 35 -106c55 47 80 78 80 123c0 32 -18 61 -57 61c-36 0 -58 -30 -58 -78z" />
    <glyph glyph-name="quotesingle" unicode="'" horiz-adv-x="150" 
d="M32 690h86v-169h-86v169z" />
    <glyph glyph-name="parenleft" unicode="(" horiz-adv-x="266" 
d="M242 -52l-50 -64c-55 49 -92 93 -110 132c-17 39 -26 87 -26 146v372c0 59 9 107 26 146c18 39 55 83 110 132l49 -64c-41 -41 -69 -76 -84 -105c-14 -29 -21 -72 -21 -128v-334c0 -39 4 -71 11 -98c8 -26 19 -48 32 -66s34 -41 63 -69z" />
    <glyph glyph-name="parenright" unicode=")" horiz-adv-x="266" 
d="M74 -116l-50 64c29 28 50 51 63 69c27 36 43 87 43 164v334c0 56 -7 99 -22 128c-14 29 -42 64 -83 105l49 64c55 -49 92 -93 109 -132c18 -39 27 -87 27 -146v-372c0 -59 -9 -107 -27 -146c-17 -39 -54 -83 -109 -132z" />
    <glyph glyph-name="asterisk" unicode="*" horiz-adv-x="358" 
d="M144 690h68l-3 -121l79 63l38 -55l-88 -62l87 -61l-37 -55l-79 62l3 -120h-68l2 120l-78 -62l-36 55l85 61l-85 62l36 55l78 -63z" />
    <glyph glyph-name="plus" unicode="+" 
d="M166 318h-123v72h123v159h72v-159h124v-72h-124v-158h-72v158z" />
    <glyph glyph-name="comma" unicode="," horiz-adv-x="192" 
d="M48 116h96v-175l-96 -83v258z" />
    <glyph glyph-name="hyphen" unicode="-" horiz-adv-x="259" 
d="M235 253h-211v72h211v-72z" />
    <glyph glyph-name="period" unicode="." horiz-adv-x="212" 
d="M48 116h116v-116h-116v116z" />
    <glyph glyph-name="slash" unicode="/" horiz-adv-x="396" 
d="M376 812l-264 -928h-75l264 928h75z" />
    <glyph glyph-name="zero" unicode="0" 
d="M363 515v-340c0 -120 -70 -183 -161 -183s-160 63 -160 183v340c0 120 69 183 160 183s161 -63 161 -183zM277 175v340c0 70 -25 105 -75 105s-75 -35 -75 -105v-340c0 -70 25 -105 75 -105s75 35 75 105z" />
    <glyph glyph-name="one" unicode="1" 
d="M173 690h86v-690h-86v591l-79 -71v94z" />
    <glyph glyph-name="two" unicode="2" 
d="M143 78h221v-78h-328v72l184 281c40 61 60 116 60 164c0 67 -27 104 -75 104c-47 0 -77 -39 -78 -108h-82c0 55 15 100 46 134s70 51 115 51c95 0 160 -72 160 -181c0 -28 -5 -56 -15 -85c-9 -29 -18 -50 -26 -65c-8 -14 -20 -34 -36 -59z" />
    <glyph glyph-name="three" unicode="3" 
d="M188 317h-36v78h36c64 0 89 41 89 120c0 61 -27 106 -74 106c-48 0 -74 -33 -77 -99h-83c0 55 15 98 46 129s69 47 114 47c95 0 160 -70 160 -183c0 -73 -26 -126 -79 -157c58 -30 87 -87 87 -170c0 -59 -15 -106 -45 -142c-29 -36 -69 -54 -118 -54
c-104 0 -164 68 -172 181h84c7 -69 35 -103 84 -103c54 0 81 39 81 118c0 86 -32 129 -97 129z" />
    <glyph glyph-name="four" unicode="4" 
d="M11 175l193 515h85l-179 -500h137v203h86v-203h48v-78h-48v-112h-86v112h-236v63z" />
    <glyph glyph-name="five" unicode="5" 
d="M210 382c-27 0 -49 -17 -66 -51h-79v359h284v-86h-202v-177c21 27 50 41 85 41c91 0 140 -88 140 -253c0 -144 -57 -223 -164 -223c-43 0 -79 16 -108 49s-45 73 -48 121h84c11 -61 37 -92 77 -92c49 0 73 41 73 145c0 113 -20 167 -76 167z" />
    <glyph glyph-name="six" unicode="6" 
d="M190 690h94l-105 -299c10 6 23 9 40 9c87 0 141 -78 141 -202c0 -129 -64 -206 -161 -206c-96 0 -161 74 -161 198c0 33 13 88 38 164zM124 198c0 -80 27 -128 75 -128s76 49 76 128s-28 128 -76 128s-75 -49 -75 -128z" />
    <glyph glyph-name="seven" unicode="7" 
d="M125 612v-121h-78v199h314v-78l-167 -612h-89l168 612h-148z" />
    <glyph glyph-name="eight" unicode="8" 
d="M32 194c0 73 38 139 82 164c-44 28 -74 86 -74 150c0 59 16 106 47 139c32 34 70 51 115 51s84 -17 115 -51c31 -33 47 -80 47 -139c0 -64 -31 -122 -74 -150c45 -24 82 -89 82 -164c0 -63 -17 -112 -50 -148s-73 -54 -120 -54s-87 18 -120 54s-50 85 -50 148zM112 194
c0 -76 37 -124 90 -124c52 0 91 48 91 124c0 80 -44 123 -91 123c-48 0 -90 -43 -90 -123zM118 508c0 -71 36 -114 84 -114s83 43 83 114c0 69 -35 112 -83 112c-49 0 -84 -43 -84 -112z" />
    <glyph glyph-name="nine" unicode="9" 
d="M215 0h-94l105 299c-10 -6 -23 -9 -40 -9c-87 0 -141 78 -141 202c0 129 64 206 161 206c47 0 86 -18 116 -54c30 -35 45 -82 45 -141c0 -35 -13 -91 -38 -167zM281 492c0 80 -27 128 -75 128s-76 -49 -76 -128s28 -128 76 -128s75 49 75 128z" />
    <glyph glyph-name="colon" unicode=":" horiz-adv-x="192" 
d="M48 96h96v-96h-96v96zM48 500h96v-96h-96v96z" />
    <glyph glyph-name="semicolon" unicode=";" horiz-adv-x="192" 
d="M48 96h96v-175l-96 -83v258zM48 500h96v-96h-96v96z" />
    <glyph glyph-name="less" unicode="&#x3c;" 
d="M326 580v-95l-189 -129l189 -129v-95l-264 183v82z" />
    <glyph glyph-name="equal" unicode="=" 
d="M358 400h-311v72h311v-72zM358 236h-311v72h311v-72z" />
    <glyph glyph-name="greater" unicode="&#x3e;" 
d="M79 227l189 129l-189 129v95l264 -183v-82l-264 -183v95z" />
    <glyph glyph-name="question" unicode="?" horiz-adv-x="393" 
d="M238 226v-37h-80v77c0 30 8 54 23 71l39 45c41 47 55 79 55 131c0 69 -31 108 -75 108c-45 0 -73 -37 -74 -108h-86c0 56 15 101 45 134c31 34 69 51 115 51c97 0 161 -72 161 -184c0 -41 -6 -75 -29 -111l-24 -38c-5 -7 -15 -21 -30 -40l-21 -28
c-13 -17 -19 -40 -19 -71zM244 0h-96v96h96v-96z" />
    <glyph glyph-name="at" unicode="@" horiz-adv-x="730" 
d="M428 484h76v-259c0 -63 18 -95 54 -95c47 0 61 51 61 146c0 116 -32 209 -81 260c-49 52 -109 77 -173 77c-183 0 -253 -180 -253 -337c0 -107 24 -189 72 -248c49 -59 110 -88 184 -88c67 0 110 13 170 52l32 -59c-13 -15 -39 -29 -78 -43c-39 -15 -82 -22 -129 -22
c-85 0 -166 37 -229 104c-61 67 -102 176 -102 304c0 124 32 223 97 297c65 75 143 112 236 112s172 -37 236 -111c65 -73 97 -173 97 -298c0 -129 -49 -218 -142 -218c-43 0 -81 24 -100 69c-16 -46 -49 -69 -99 -69c-89 0 -136 77 -136 190v52c0 120 51 189 136 189
c29 0 52 -11 71 -33v28zM363 130c51 0 62 39 61 122v55c1 73 -19 110 -61 110c-47 0 -63 -37 -63 -121v-44c0 -81 21 -122 63 -122z" />
    <glyph glyph-name="A" unicode="A" horiz-adv-x="477" 
d="M137 158l-39 -158h-90l192 690h76l193 -690h-90l-39 158h-203zM314 236l-76 308l-76 -308h152z" />
    <glyph glyph-name="B" unicode="B" horiz-adv-x="483" 
d="M68 0v690h171c129 0 194 -59 194 -176c0 -72 -38 -138 -91 -154c69 -16 109 -74 109 -162c0 -56 -16 -103 -48 -141c-31 -38 -80 -57 -147 -57h-188zM244 319h-90v-241h102c73 0 109 40 109 120c0 84 -37 121 -121 121zM239 613h-85v-216h96c65 0 97 39 97 117
c0 67 -24 99 -108 99z" />
    <glyph glyph-name="C" unicode="C" horiz-adv-x="466" 
d="M442 475h-81c-20 107 -54 145 -119 145c-81 0 -116 -65 -116 -237v-76c0 -172 33 -237 116 -237c67 0 100 42 119 145h80c-16 -149 -82 -223 -199 -223c-135 0 -202 105 -202 315v76c0 210 67 315 202 315c115 0 182 -74 200 -223z" />
    <glyph glyph-name="D" unicode="D" horiz-adv-x="488" 
d="M248 0h-180v690h180c133 0 200 -103 200 -309v-72c0 -206 -67 -309 -200 -309zM154 78h94c81 0 114 62 114 231v72c0 168 -34 231 -114 231h-94v-534z" />
    <glyph glyph-name="E" unicode="E" horiz-adv-x="437" 
d="M68 0v690h337v-78h-251v-216h227v-78h-227v-240h251v-78h-337z" />
    <glyph glyph-name="F" unicode="F" horiz-adv-x="429" 
d="M68 0v690h337v-78h-251v-232h227v-78h-227v-302h-86z" />
    <glyph glyph-name="G" unicode="G" horiz-adv-x="486" 
d="M243 269v78h203v-40c0 -215 -76 -315 -204 -315c-135 0 -202 105 -202 315v76c0 210 67 315 202 315c116 0 183 -74 200 -223h-81c-19 103 -52 145 -119 145c-83 0 -116 -65 -116 -237v-76c0 -172 33 -237 116 -237c76 0 115 66 118 199h-117z" />
    <glyph glyph-name="H" unicode="H" horiz-adv-x="514" 
d="M68 690h86v-294h206v294h86v-690h-86v318h-206v-318h-86v690z" />
    <glyph glyph-name="I" unicode="I" horiz-adv-x="238" 
d="M76 690h86v-690h-86v690z" />
    <glyph glyph-name="J" unicode="J" horiz-adv-x="408" 
d="M4 78l71 44c18 -35 44 -52 77 -52c37 0 63 15 78 46c16 31 24 87 24 168v406h86v-406c0 -207 -65 -292 -188 -292c-70 0 -119 29 -148 86z" />
    <glyph glyph-name="K" unicode="K" horiz-adv-x="520" 
d="M303 414l213 -414h-101l-169 339l-92 -145v-194h-86v690h86v-355l226 355h96z" />
    <glyph glyph-name="L" unicode="L" 
d="M68 690h86v-612h251v-78h-337v690z" />
    <glyph glyph-name="M" unicode="M" horiz-adv-x="614" 
d="M68 690h86l153 -417l152 417h87v-690h-86v463l-119 -319h-71l-116 319v-463h-86v690z" />
    <glyph glyph-name="N" unicode="N" horiz-adv-x="515" 
d="M361 207v483h86v-690h-80l-213 478v-478h-86v690h77z" />
    <glyph glyph-name="O" unicode="O" horiz-adv-x="484" 
d="M444 383v-76c0 -210 -67 -315 -202 -315s-202 105 -202 315v76c0 210 67 315 202 315s202 -105 202 -315zM126 383v-76c0 -173 33 -237 116 -237s116 64 116 237v76c0 173 -33 237 -116 237s-116 -64 -116 -237z" />
    <glyph glyph-name="P" unicode="P" horiz-adv-x="474" 
d="M248 263h-94v-263h-86v690h180c127 0 201 -79 201 -214c0 -133 -73 -213 -201 -213zM154 612v-271h94c84 0 115 46 115 135c0 91 -31 136 -115 136h-94z" />
    <glyph glyph-name="Q" unicode="Q" horiz-adv-x="481" 
d="M444 383v-76c0 -83 -12 -152 -35 -205l74 -81l-59 -51l-60 66c-31 -29 -72 -44 -122 -44c-135 0 -202 105 -202 315v76c0 210 67 315 202 315s202 -105 202 -315zM311 95l-85 96l59 51l62 -70c7 37 11 82 11 135v76c0 173 -33 237 -116 237s-116 -64 -116 -237v-76
c0 -173 33 -237 116 -237c29 0 52 8 69 25z" />
    <glyph glyph-name="R" unicode="R" horiz-adv-x="487" 
d="M342 306l121 -306h-91l-111 291h-107v-291h-86v690h178c131 0 203 -68 203 -200c0 -96 -36 -157 -107 -184zM154 612v-243h92c87 0 117 34 117 121c0 88 -30 122 -117 122h-92z" />
    <glyph glyph-name="S" unicode="S" horiz-adv-x="463" 
d="M413 585l-65 -44c-31 53 -61 79 -122 79c-59 0 -94 -40 -94 -108c0 -73 32 -103 120 -128c112 -32 172 -90 172 -199c0 -33 -6 -63 -17 -91c-23 -55 -84 -102 -172 -102c-91 0 -157 38 -199 113l68 46c40 -57 71 -81 131 -81c69 0 104 37 104 111c0 65 -25 102 -121 129
c-115 31 -172 99 -172 202c0 52 15 96 46 132s76 54 136 54c84 0 146 -38 185 -113z" />
    <glyph glyph-name="T" unicode="T" horiz-adv-x="417" 
d="M4 612v78h409v-78h-162v-612h-86v612h-161z" />
    <glyph glyph-name="U" unicode="U" horiz-adv-x="540" 
d="M386 280v410h86v-409c0 -197 -74 -289 -202 -289c-135 0 -202 96 -202 288v410h86v-410c0 -152 35 -210 116 -210s116 58 116 210z" />
    <glyph glyph-name="V" unicode="V" horiz-adv-x="490" 
d="M208 0l-200 690h91l146 -540l146 540h91l-199 -690h-75z" />
    <glyph glyph-name="W" unicode="W" horiz-adv-x="686" 
d="M461 0l-119 506l-118 -506h-84l-132 690h89l90 -522l113 522h84l115 -525l90 525h89l-132 -690h-85z" />
    <glyph glyph-name="X" unicode="X" horiz-adv-x="447" 
d="M223 268l-114 -268h-93l158 356l-140 334h93l96 -253l97 253h93l-141 -334l159 -356h-93z" />
    <glyph glyph-name="Y" unicode="Y" horiz-adv-x="449" 
d="M181 296l-165 394h98l110 -290l111 290h98l-166 -394v-296h-86v296z" />
    <glyph glyph-name="Z" unicode="Z" horiz-adv-x="419" 
d="M24 612v78h363v-58l-261 -554h269v-78h-371v58l260 554h-260z" />
    <glyph glyph-name="bracketleft" unicode="[" horiz-adv-x="280" 
d="M232 -102h-176v894h176v-72h-96v-750h96v-72z" />
    <glyph glyph-name="backslash" unicode="\" horiz-adv-x="396" 
d="M299 -116l-262 928h77l262 -928h-77z" />
    <glyph glyph-name="bracketright" unicode="]" horiz-adv-x="280" 
d="M48 720v72h176v-894h-176v72h96v750h-96z" />
    <glyph glyph-name="asciicircum" unicode="^" horiz-adv-x="410" 
d="M25 437l137 253h84l139 -253h-87l-93 190l-93 -190h-87z" />
    <glyph glyph-name="underscore" unicode="_" horiz-adv-x="421" 
d="M0 -155v62h421v-62h-421z" />
    <glyph glyph-name="grave" unicode="`" horiz-adv-x="267" 
d="M60 725h91l55 -158h-72z" />
    <glyph glyph-name="a" unicode="a" horiz-adv-x="399" 
d="M32 146c0 95 52 143 156 143h79v58c0 68 -18 87 -77 87c-49 0 -67 -8 -87 -48l-61 39c28 59 70 83 149 83c107 0 156 -45 156 -161v-347h-80v49c-16 -37 -41 -57 -93 -57c-92 0 -142 57 -142 154zM267 192v29h-74c-57 0 -81 -25 -81 -77s25 -78 75 -78c26 0 46 8 59 25
c14 17 21 50 21 101z" />
    <glyph glyph-name="b" unicode="b" horiz-adv-x="423" 
d="M52 690h80v-240c21 39 55 58 102 58c96 0 157 -83 157 -224v-66c0 -136 -54 -226 -157 -226c-47 0 -81 17 -102 52v-44h-80v690zM221 64c60 0 90 63 90 154v66c0 96 -31 152 -90 152c-55 0 -89 -56 -89 -145v-73c0 -103 30 -154 89 -154z" />
    <glyph glyph-name="c" unicode="c" horiz-adv-x="360" 
d="M289 116l59 -41c-23 -55 -70 -83 -141 -83c-117 0 -175 83 -175 226v66c0 141 66 224 175 224c65 0 112 -26 141 -77l-61 -42c-19 31 -46 47 -80 47c-63 0 -95 -56 -95 -152v-66c0 -103 32 -154 95 -154c35 0 63 17 82 52z" />
    <glyph glyph-name="d" unicode="d" horiz-adv-x="423" 
d="M291 450v240h80v-690h-80v44c-21 -35 -55 -52 -102 -52c-103 0 -157 90 -157 226v66c0 141 61 224 157 224c47 0 81 -19 102 -58zM202 64c59 0 89 51 89 154v73c0 89 -34 145 -89 145c-59 0 -90 -56 -90 -152v-66c0 -91 30 -154 90 -154z" />
    <glyph glyph-name="e" unicode="e" horiz-adv-x="395" 
d="M289 116l59 -41c-25 -55 -73 -83 -143 -83c-113 0 -173 85 -173 226v66c0 143 57 224 160 224c109 0 161 -69 161 -224v-52h-241v-14c0 -103 31 -154 92 -154c44 0 62 15 85 52zM112 302h161c0 101 -22 134 -81 134s-80 -42 -80 -134z" />
    <glyph glyph-name="f" unicode="f" horiz-adv-x="238" 
d="M17 428v72h51v36c0 108 31 154 126 154h24v-76h-19c-43 0 -51 -21 -51 -92v-22h70v-72h-70v-428h-80v428h-51z" />
    <glyph glyph-name="g" unicode="g" horiz-adv-x="423" 
d="M291 450v50h80v-490c0 -137 -57 -206 -172 -206c-73 0 -122 28 -149 83l61 42c19 -37 41 -53 86 -53c67 0 94 45 94 134v34c-21 -35 -55 -52 -102 -52c-103 0 -157 90 -157 226v66c0 141 61 224 157 224c47 0 81 -19 102 -58zM202 64c59 0 89 51 89 154v73
c0 89 -34 145 -89 145c-59 0 -90 -56 -90 -152v-66c0 -91 30 -154 90 -154z" />
    <glyph glyph-name="h" unicode="h" horiz-adv-x="425" 
d="M132 0h-80v690h81v-239c19 38 52 57 98 57c87 0 142 -63 142 -196v-312h-80v311c0 93 -28 123 -77 123c-56 0 -84 -41 -84 -122v-312z" />
    <glyph glyph-name="i" unicode="i" horiz-adv-x="208" 
d="M144 0h-80v500h80v-500zM148 600h-88v90h88v-90z" />
    <glyph glyph-name="j" unicode="j" horiz-adv-x="198" 
d="M63 500h80v-536c0 -108 -36 -154 -143 -154v74c24 0 41 10 49 19c5 5 8 12 10 23c4 21 4 30 4 58v516zM146 600h-88v90h88v-90z" />
    <glyph glyph-name="k" unicode="k" horiz-adv-x="393" 
d="M132 299l142 201h92l-145 -204l168 -296h-94l-126 227l-37 -51v-176h-80v690h80v-391z" />
    <glyph glyph-name="l" unicode="l" horiz-adv-x="228" 
d="M52 154v536h80v-516c0 -31 0 -35 3 -58c6 -31 21 -38 59 -42v-74c-105 0 -142 46 -142 154z" />
    <glyph glyph-name="m" unicode="m" horiz-adv-x="654" 
d="M132 0h-80v500h80v-49c19 38 51 57 96 57c57 0 96 -26 117 -79c25 53 64 79 117 79c84 0 140 -69 140 -196v-312h-80v311c0 82 -26 123 -77 123c-47 0 -78 -41 -78 -122v-312h-80v311c0 82 -26 123 -77 123c-47 0 -78 -43 -78 -122v-312z" />
    <glyph glyph-name="n" unicode="n" horiz-adv-x="425" 
d="M132 0h-80v500h81v-49c19 38 52 57 98 57c87 0 142 -63 142 -196v-312h-80v311c0 93 -28 123 -77 123c-56 0 -84 -41 -84 -122v-312z" />
    <glyph glyph-name="o" unicode="o" horiz-adv-x="401" 
d="M369 284v-66c0 -144 -61 -226 -169 -226s-168 82 -168 226v66c0 143 60 224 168 224s169 -81 169 -224zM200 64c59 0 89 51 89 154v66c0 100 -24 152 -89 152s-88 -51 -88 -152v-66c0 -103 29 -154 88 -154z" />
    <glyph glyph-name="p" unicode="p" horiz-adv-x="423" 
d="M52 500h80v-50c21 39 55 58 102 58c96 0 157 -83 157 -224v-66c0 -136 -54 -226 -157 -226c-47 0 -81 17 -102 52v-234h-80v690zM221 64c60 0 90 63 90 154v66c0 96 -31 152 -90 152c-55 0 -89 -56 -89 -145v-73c0 -103 30 -154 89 -154z" />
    <glyph glyph-name="q" unicode="q" horiz-adv-x="423" 
d="M291 450v50h80v-690h-80v234c-21 -35 -55 -52 -102 -52c-103 0 -157 90 -157 226v66c0 141 61 224 157 224c47 0 81 -19 102 -58zM202 64c59 0 89 51 89 154v73c0 89 -34 145 -89 145c-59 0 -90 -56 -90 -152v-66c0 -91 30 -154 90 -154z" />
    <glyph glyph-name="r" unicode="r" horiz-adv-x="322" 
d="M330 440l-62 -47c-16 27 -37 41 -62 41c-49 0 -74 -40 -74 -121v-313h-80v500h80v-49c18 38 48 57 91 57c46 0 82 -23 107 -68z" />
    <glyph glyph-name="s" unicode="s" horiz-adv-x="378" 
d="M330 425l-58 -42c-21 37 -40 51 -87 51c-45 0 -68 -22 -68 -67s24 -67 80 -79c88 -20 145 -56 145 -149c0 -89 -54 -147 -153 -147c-73 0 -125 27 -157 81l57 46c19 -35 51 -53 95 -53c52 0 78 24 78 71c0 45 -20 64 -89 80c-91 20 -136 70 -136 149c0 84 56 142 145 142
c70 0 119 -28 148 -83z" />
    <glyph glyph-name="t" unicode="t" horiz-adv-x="259" 
d="M68 428h-51v72h51v110h80v-110h83v-72h-83v-254c0 -76 6 -98 54 -98h29v-76h-35c-96 0 -128 46 -128 154v274z" />
    <glyph glyph-name="u" unicode="u" horiz-adv-x="425" 
d="M293 500h80v-500h-80v49c-20 -37 -44 -57 -99 -57c-95 0 -142 65 -142 196v312h80v-311c0 -93 28 -123 77 -123c52 0 84 45 84 122v312z" />
    <glyph glyph-name="v" unicode="v" horiz-adv-x="412" 
d="M206 114l114 386h84l-154 -500h-85l-157 500h86z" />
    <glyph glyph-name="w" unicode="w" horiz-adv-x="585" 
d="M391 0l-98 367l-98 -367h-67l-120 500h86l71 -351l90 351h76l91 -354l70 354h85l-118 -500h-68z" />
    <glyph glyph-name="x" unicode="x" horiz-adv-x="396" 
d="M246 256l142 -256h-90l-100 184l-100 -184h-90l143 255l-125 245h90l82 -175l82 175h90z" />
    <glyph glyph-name="y" unicode="y" horiz-adv-x="382" 
d="M155 -19l4 14l-155 505h86l93 -322l15 -53l93 375h83l-138 -516c-18 -66 -38 -111 -61 -136c-22 -25 -61 -38 -117 -38v78c52 0 76 17 97 93z" />
    <glyph glyph-name="z" unicode="z" horiz-adv-x="364" 
d="M33 0v62l205 366h-205v72h299v-62l-203 -366h203v-72h-299z" />
    <glyph glyph-name="braceleft" unicode="{" horiz-adv-x="258" 
d="M160 629v-213c0 -44 -10 -59 -38 -70c25 -10 38 -33 38 -70v-213c0 -73 13 -86 53 -86h21v-72h-23c-45 0 -78 11 -99 32s-32 62 -32 123v198c0 37 -12 52 -40 52h-15v72h15c28 0 40 15 40 52v198c0 61 11 102 32 123s54 32 99 32h23v-72h-21c-40 0 -53 -13 -53 -86z" />
    <glyph glyph-name="bar" unicode="|" horiz-adv-x="218" 
d="M68 812h74v-928h-74v928z" />
    <glyph glyph-name="braceright" unicode="}" horiz-adv-x="258" 
d="M99 416v213c0 73 -13 86 -53 86h-21v72h23c45 0 78 -11 99 -32s32 -62 32 -123v-198c0 -37 12 -52 40 -52h15v-72h-15c-28 0 -40 -15 -40 -52v-198c0 -61 -11 -102 -32 -123s-54 -32 -99 -32h-23v72h21c40 0 53 13 53 86v213c0 37 13 60 38 70c-28 11 -38 26 -38 70z" />
    <glyph glyph-name="asciitilde" unicode="~" 
d="M268 277c-24 0 -49 8 -74 23s-44 23 -59 23c-31 0 -56 -16 -77 -48l-51 46c32 49 75 74 128 74c25 0 49 -8 74 -23s45 -23 59 -23c31 0 56 16 77 48l52 -46c-33 -49 -76 -74 -129 -74z" />
    <glyph glyph-name="uni00A0" unicode="&#xa0;" horiz-adv-x="200" 
 />
    <glyph glyph-name="exclamdown" unicode="&#xa1;" horiz-adv-x="192" 
d="M139 -190h-86v501h86v-501zM48 500h96v-96h-96v96z" />
    <glyph glyph-name="cent" unicode="&#xa2;" 
d="M244 -116h-74v112c-88 17 -138 99 -138 222v66c0 124 50 203 138 220v118h74v-118c46 -9 81 -33 104 -73l-61 -42c-19 31 -46 47 -80 47c-63 0 -95 -56 -95 -152v-66c0 -103 32 -154 95 -154c35 0 63 17 82 52l59 -41c-19 -45 -54 -71 -104 -80v-111z" />
    <glyph glyph-name="sterling" unicode="&#xa3;" 
d="M377 0h-362v78h57v240h-57v78h57v10c0 195 59 292 177 292c67 0 115 -29 144 -86l-69 -42c-17 33 -42 50 -75 50c-34 0 -58 -16 -71 -48c-13 -31 -20 -87 -20 -166v-10h128v-78h-128v-240h219v-78z" />
    <glyph glyph-name="currency" unicode="&#xa4;" 
d="M53 366c0 43 6 79 19 108l-51 68l64 47l36 -49c23 17 50 26 82 26c31 0 59 -9 82 -26l36 49l64 -47l-51 -68c13 -31 19 -67 19 -108c0 -43 -7 -79 -20 -110l52 -68l-63 -48l-38 51c-23 -17 -50 -25 -81 -25c-33 0 -60 8 -81 25l-38 -51l-63 48l51 68
c-13 32 -19 69 -19 110zM203 483c-43 0 -64 -39 -64 -117s21 -117 64 -117s64 39 64 117s-21 117 -64 117z" />
    <glyph glyph-name="yen" unicode="&#xa5;" 
d="M61 146v78h99v72h-99v78h63l-100 316h92l87 -311l84 311h95l-100 -316h63v-78h-99v-72h99v-78h-99v-146h-86v146h-99z" />
    <glyph glyph-name="brokenbar" unicode="&#xa6;" horiz-adv-x="214" 
d="M64 243h86v-243h-86v243zM64 690h86v-243h-86v243z" />
    <glyph glyph-name="section" unicode="&#xa7;" horiz-adv-x="403" 
d="M61 -47h84c5 -41 8 -61 55 -66c39 0 58 23 58 68c0 44 -17 68 -70 91l-18 7l-20 8l-19 10c-19 11 -23 15 -39 28c-32 29 -53 73 -54 151c0 80 24 134 73 163c-37 33 -56 76 -56 129c0 87 57 149 144 149c91 0 136 -53 139 -144h-84c-5 41 -8 61 -55 66
c-39 0 -58 -23 -58 -68c0 -47 15 -68 70 -91l10 -4c21 -8 37 -15 48 -22c11 -6 25 -16 42 -31c33 -29 50 -79 50 -147c0 -81 -24 -135 -73 -164c37 -32 56 -75 56 -128c0 -87 -57 -149 -144 -149c-91 0 -136 53 -139 144zM275 250c0 75 -19 111 -75 111
c-51 0 -76 -37 -76 -111c0 -73 20 -111 76 -111c50 0 75 37 75 111z" />
    <glyph glyph-name="dieresis" unicode="&#xa8;" horiz-adv-x="338" 
d="M136 600h-88v90h88v-90zM290 600h-88v90h88v-90z" />
    <glyph glyph-name="copyright" unicode="&#xa9;" horiz-adv-x="960" 
d="M168 -62c-85 85 -128 189 -128 312s43 227 128 312c86 85 190 128 312 128s226 -43 311 -128c86 -85 129 -189 129 -312s-43 -227 -129 -312c-85 -85 -189 -128 -311 -128s-226 43 -312 128zM224 511c-69 -71 -104 -158 -104 -261s35 -190 104 -261
c70 -72 155 -108 256 -108s186 36 255 108c70 71 105 158 105 261s-35 190 -105 261c-69 71 -154 107 -255 107s-186 -36 -256 -107zM599 120l62 -44c-30 -56 -88 -84 -173 -84c-136 0 -216 87 -216 226v66c0 141 80 224 216 224c79 0 136 -26 173 -78l-63 -44
c-23 33 -59 50 -110 50c-85 0 -136 -57 -136 -152v-66c0 -92 44 -154 136 -154c55 0 92 19 111 56z" />
    <glyph glyph-name="ordfeminine" unicode="&#xaa;" horiz-adv-x="262" 
d="M20 466c0 61 33 92 99 92h55v28c0 44 -12 57 -51 57c-31 0 -42 -6 -57 -33l-42 27c19 37 52 55 100 55c69 0 103 -34 103 -101v-217h-53v30c-13 -23 -32 -34 -59 -34c-60 0 -95 35 -95 96zM174 496v16h-52c-32 0 -48 -16 -48 -48c0 -30 15 -45 46 -45c37 0 54 20 54 77z
" />
    <glyph glyph-name="guillemotleft" unicode="&#xab;" horiz-adv-x="415" 
d="M210 52l-186 231l186 231v-114l-93 -117l93 -117v-114zM371 52l-186 231l186 231v-114l-93 -117l93 -117v-114z" />
    <glyph glyph-name="logicalnot" unicode="&#xac;" 
d="M372 392v-205h-73v127h-277v78h350z" />
    <glyph glyph-name="uni00AD" unicode="&#xad;" horiz-adv-x="259" 
d="M235 253h-211v72h211v-72z" />
    <glyph glyph-name="registered" unicode="&#xae;" horiz-adv-x="562" 
d="M102 322c-49 50 -74 110 -74 179s25 129 74 178c50 50 110 75 179 75s129 -25 178 -75c50 -49 75 -109 75 -178s-25 -129 -75 -179c-49 -49 -109 -74 -178 -74s-129 25 -179 74zM142 639c-38 -38 -57 -84 -57 -138s19 -100 57 -139c39 -38 85 -57 139 -57s100 19 138 57
c39 39 58 85 58 139s-19 100 -58 138c-38 39 -84 58 -138 58s-100 -19 -139 -58zM231 471v-97h-52v261h107c67 0 97 -36 97 -79c0 -39 -19 -65 -56 -78l69 -104h-59l-64 97h-42zM231 590v-75h44c37 0 56 13 56 40c0 23 -17 35 -51 35h-49z" />
    <glyph glyph-name="overscore" unicode="&#xaf;" horiz-adv-x="323" 
d="M271 600h-219v72h219v-72z" />
    <glyph glyph-name="degree" unicode="&#xb0;" horiz-adv-x="300" 
d="M55 463c-26 26 -39 58 -39 96s13 70 39 95c26 26 58 39 95 39s69 -13 95 -39c26 -25 39 -57 39 -95s-13 -70 -39 -96c-26 -25 -58 -38 -95 -38s-69 13 -95 38zM84 559c0 -39 29 -68 66 -68s65 29 65 68s-28 67 -65 67s-66 -30 -66 -67z" />
    <glyph glyph-name="plusminus" unicode="&#xb1;" 
d="M166 358h-123v72h123v159h72v-159h124v-72h-124v-128h-72v128zM362 128h-319v72h319v-72z" />
    <glyph glyph-name="twosuperior" unicode="&#xb2;" horiz-adv-x="227" 
d="M94 424h106v-50h-169v50l87 103c19 22 28 45 28 69c0 31 -10 47 -31 47c-20 0 -36 -19 -37 -47h-46c0 57 38 97 83 97c51 0 85 -36 85 -93c0 -33 -15 -67 -45 -103z" />
    <glyph glyph-name="threesuperior" unicode="&#xb3;" horiz-adv-x="248" 
d="M104 512h-16v50h16c27 0 41 14 41 43c0 25 -9 38 -28 38c-20 0 -28 -13 -32 -38h-53c0 49 38 88 85 88c51 0 81 -31 81 -84c0 -31 -14 -55 -43 -71c32 -11 48 -36 48 -75c0 -59 -33 -92 -86 -92c-52 0 -85 39 -88 90h54c3 -27 15 -40 34 -40c21 0 32 15 32 44
c0 31 -15 47 -45 47z" />
    <glyph glyph-name="acute" unicode="&#xb4;" horiz-adv-x="298" 
d="M146 567h-69l54 158h89z" />
    <glyph glyph-name="mu" unicode="&#x3bc;" 
d="M122 21v-158h-80v637h80v-309c0 -95 26 -125 77 -125c56 0 84 49 84 122v312h80v-500h-80v49c-19 -38 -50 -57 -93 -57c-31 0 -54 10 -68 29z" />
    <glyph glyph-name="mu" unicode="&#xb5;" 
d="M122 21v-158h-80v637h80v-309c0 -95 26 -125 77 -125c56 0 84 49 84 122v312h80v-500h-80v49c-19 -38 -50 -57 -93 -57c-31 0 -54 10 -68 29z" />
    <glyph glyph-name="paragraph" unicode="&#xb6;" horiz-adv-x="537" 
d="M226 690h231v-880h-86v802h-59v-802h-86v500c-53 0 -98 18 -135 55s-55 82 -55 135s18 97 55 134s82 56 135 56z" />
    <glyph glyph-name="middot" unicode="&#xb7;" horiz-adv-x="192" 
d="M48 396h96v-96h-96v96z" />
    <glyph glyph-name="cedilla" unicode="&#xb8;" horiz-adv-x="275" 
d="M93 -69l16 94l55 -3l-11 -45c30 -14 45 -39 45 -74c0 -52 -40 -82 -92 -82c-14 0 -24 1 -30 3l11 52c3 -1 7 -1 13 -1c21 0 31 9 31 28s-13 28 -38 28z" />
    <glyph glyph-name="onesuperior" unicode="&#xb9;" horiz-adv-x="232" 
d="M102 690h53v-316h-53v254l-46 -41v60z" />
    <glyph glyph-name="ordmasculine" unicode="&#xba;" horiz-adv-x="279" 
d="M250 555v-45c0 -85 -40 -139 -111 -139c-68 0 -111 51 -111 139v45c0 89 43 138 111 138s111 -49 111 -138zM196 510v45c0 59 -19 88 -57 88s-57 -29 -57 -88v-45c0 -59 19 -89 57 -89s57 30 57 89z" />
    <glyph glyph-name="guillemotright" unicode="&#xbb;" horiz-adv-x="415" 
d="M205 400v114l186 -231l-186 -231v114l93 117zM44 400v114l186 -231l-186 -231v114l93 117z" />
    <glyph glyph-name="onequarter" unicode="&#xbc;" horiz-adv-x="497" 
d="M10 0l378 690h73l-377 -690h-74zM87 690h53v-316h-53v254l-46 -41v60zM251 104l105 212h57l-97 -205h60v56h54v-56h31v-50h-31v-61h-54v61h-125v43z" />
    <glyph glyph-name="onehalf" unicode="&#xbd;" horiz-adv-x="497" 
d="M10 0l378 690h73l-377 -690h-74zM87 690h53v-316h-53v254l-46 -41v60zM353 50h106v-50h-169v50l87 103c19 22 28 45 28 69c0 31 -10 47 -31 47c-20 0 -36 -19 -37 -47h-46c0 57 38 97 83 97c51 0 85 -36 85 -93c0 -33 -15 -67 -45 -103z" />
    <glyph glyph-name="threequarters" unicode="&#xbe;" horiz-adv-x="497" 
d="M10 0l378 690h73l-377 -690h-74zM90 512h-16v50h16c27 0 41 14 41 43c0 25 -9 38 -28 38c-20 0 -28 -13 -32 -38h-53c0 49 38 88 85 88c51 0 81 -31 81 -84c0 -31 -14 -55 -43 -71c32 -11 48 -36 48 -75c0 -59 -33 -92 -86 -92c-52 0 -85 39 -88 90h54
c3 -27 15 -40 34 -40c21 0 32 15 32 44c0 31 -15 47 -45 47zM251 104l105 212h57l-97 -205h60v56h54v-56h31v-50h-31v-61h-54v61h-125v43z" />
    <glyph glyph-name="questiondown" unicode="&#xbf;" horiz-adv-x="393" 
d="M155 274v37h80v-77c0 -30 -8 -54 -23 -71l-39 -45c-41 -47 -55 -79 -55 -131c0 -69 31 -108 75 -108c45 0 73 37 74 108h86c0 -56 -15 -101 -46 -134c-30 -34 -68 -51 -114 -51c-97 0 -161 72 -161 184c0 41 7 75 28 111l24 38l31 40l21 28c13 17 19 40 19 71zM245 404
h-96v96h96v-96z" />
    <glyph glyph-name="Agrave" unicode="&#xc0;" horiz-adv-x="477" 
d="M137 158l-39 -158h-90l192 690h76l193 -690h-90l-39 158h-203zM314 236l-76 308l-76 -308h152zM108 876h92l67 -129h-71z" />
    <glyph glyph-name="Aacute" unicode="&#xc1;" horiz-adv-x="477" 
d="M137 158l-39 -158h-90l192 690h76l193 -690h-90l-39 158h-203zM314 236l-76 308l-76 -308h152zM278 747h-71l67 129h92z" />
    <glyph glyph-name="Acircumflex" unicode="&#xc2;" horiz-adv-x="477" 
d="M137 158l-39 -158h-90l192 690h76l193 -690h-90l-39 158h-203zM314 236l-76 308l-76 -308h152zM86 737l116 142h71l117 -142h-84l-68 92l-68 -92h-84z" />
    <glyph glyph-name="Atilde" unicode="&#xc3;" horiz-adv-x="477" 
d="M137 158l-39 -158h-90l192 690h76l193 -690h-90l-39 158h-203zM314 236l-76 308l-76 -308h152zM290 762c-13 0 -31 5 -52 14c-21 10 -38 15 -50 15c-19 0 -36 -9 -49 -28l-46 37c26 37 58 55 95 55c13 0 30 -5 51 -15c22 -9 39 -14 52 -14c17 0 33 9 47 28l46 -37
c-27 -37 -58 -55 -94 -55z" />
    <glyph glyph-name="Adieresis" unicode="&#xc4;" horiz-adv-x="477" 
d="M137 158l-39 -158h-90l192 690h76l193 -690h-90l-39 158h-203zM314 236l-76 308l-76 -308h152zM370 779h-90v90h90v-90zM196 779h-90v90h90v-90z" />
    <glyph glyph-name="Aring" unicode="&#xc5;" horiz-adv-x="477" 
d="M137 158l-39 -158h-90l180 649c-37 17 -55 46 -55 88c0 60 44 99 105 99c63 0 106 -39 106 -99c0 -43 -19 -72 -57 -88l182 -649h-90l-39 158h-203zM314 236l-76 308l-76 -308h152zM185 737c0 -31 21 -47 53 -47c35 0 53 16 53 47s-18 47 -53 47s-53 -16 -53 -47z" />
    <glyph glyph-name="AE" unicode="&#xc6;" horiz-adv-x="689" 
d="M170 158l-68 -158h-94l304 690h345v-78h-254v-216h230v-78h-230v-240h254v-78h-340v158h-147zM317 509l-109 -273h109v273z" />
    <glyph glyph-name="Ccedilla" unicode="&#xc7;" horiz-adv-x="466" 
d="M215 -69l10 62c-123 7 -185 112 -185 314v76c0 210 67 315 202 315c115 0 182 -74 200 -223h-81c-20 107 -54 145 -119 145c-81 0 -116 -65 -116 -237v-76c0 -172 33 -237 116 -237c67 0 100 42 119 145h80c-15 -132 -69 -205 -162 -220l-4 -18c31 -11 46 -35 46 -74
c0 -52 -40 -82 -93 -82c-14 0 -24 1 -30 3l11 52c3 -1 7 -1 13 -1c21 0 31 9 31 28s-13 28 -38 28z" />
    <glyph glyph-name="Egrave" unicode="&#xc8;" horiz-adv-x="437" 
d="M68 0v690h337v-78h-251v-216h227v-78h-227v-240h251v-78h-337zM126 876h92l67 -129h-71z" />
    <glyph glyph-name="Eacute" unicode="&#xc9;" horiz-adv-x="437" 
d="M68 0v690h337v-78h-251v-216h227v-78h-227v-240h251v-78h-337zM263 747h-71l67 129h92z" />
    <glyph glyph-name="Ecircumflex" unicode="&#xca;" horiz-adv-x="437" 
d="M68 0v690h337v-78h-251v-216h227v-78h-227v-240h251v-78h-337zM83 737l116 142h71l117 -142h-84l-68 92l-68 -92h-84z" />
    <glyph glyph-name="Edieresis" unicode="&#xcb;" horiz-adv-x="437" 
d="M68 0v690h337v-78h-251v-216h227v-78h-227v-240h251v-78h-337zM366 779h-90v90h90v-90zM192 779h-90v90h90v-90z" />
    <glyph glyph-name="Igrave" unicode="&#xcc;" horiz-adv-x="238" 
d="M76 690h86v-690h-86v690zM-5 876h92l67 -129h-71z" />
    <glyph glyph-name="Iacute" unicode="&#xcd;" horiz-adv-x="238" 
d="M76 690h86v-690h-86v690zM153 747h-71l67 129h92z" />
    <glyph glyph-name="Icircumflex" unicode="&#xce;" horiz-adv-x="238" 
d="M76 690h86v-690h-86v690zM-33 737l116 142h71l117 -142h-84l-68 92l-68 -92h-84z" />
    <glyph glyph-name="Idieresis" unicode="&#xcf;" horiz-adv-x="238" 
d="M76 690h86v-690h-86v690zM251 779h-90v90h90v-90zM77 779h-90v90h90v-90z" />
    <glyph glyph-name="Eth" unicode="&#xd0;" horiz-adv-x="494" 
d="M74 318h-82v78h82v294h180c133 0 200 -103 200 -309v-72c0 -206 -67 -309 -200 -309h-180v318zM160 78h94c81 0 114 62 114 231v72c0 168 -34 231 -114 231h-94v-216h131v-78h-131v-240z" />
    <glyph glyph-name="Ntilde" unicode="&#xd1;" horiz-adv-x="515" 
d="M361 207v483h86v-690h-80l-213 478v-478h-86v690h77zM309 762c-13 0 -31 5 -52 14c-21 10 -38 15 -50 15c-19 0 -36 -9 -49 -28l-46 37c26 37 58 55 95 55c13 0 30 -5 51 -15c22 -9 39 -14 52 -14c17 0 33 9 47 28l46 -37c-27 -37 -58 -55 -94 -55z" />
    <glyph glyph-name="Ograve" unicode="&#xd2;" horiz-adv-x="484" 
d="M444 383v-76c0 -210 -67 -315 -202 -315s-202 105 -202 315v76c0 210 67 315 202 315s202 -105 202 -315zM126 383v-76c0 -173 33 -237 116 -237s116 64 116 237v76c0 173 -33 237 -116 237s-116 -64 -116 -237zM130 876h92l67 -129h-71z" />
    <glyph glyph-name="Oacute" unicode="&#xd3;" horiz-adv-x="484" 
d="M444 383v-76c0 -210 -67 -315 -202 -315s-202 105 -202 315v76c0 210 67 315 202 315s202 -105 202 -315zM126 383v-76c0 -173 33 -237 116 -237s116 64 116 237v76c0 173 -33 237 -116 237s-116 -64 -116 -237zM262 747h-71l67 129h92z" />
    <glyph glyph-name="Ocircumflex" unicode="&#xd4;" horiz-adv-x="484" 
d="M444 383v-76c0 -210 -67 -315 -202 -315s-202 105 -202 315v76c0 210 67 315 202 315s202 -105 202 -315zM126 383v-76c0 -173 33 -237 116 -237s116 64 116 237v76c0 173 -33 237 -116 237s-116 -64 -116 -237zM90 737l116 142h71l117 -142h-84l-68 92l-68 -92h-84z" />
    <glyph glyph-name="Otilde" unicode="&#xd5;" horiz-adv-x="484" 
d="M444 383v-76c0 -210 -67 -315 -202 -315s-202 105 -202 315v76c0 210 67 315 202 315s202 -105 202 -315zM126 383v-76c0 -173 33 -237 116 -237s116 64 116 237v76c0 173 -33 237 -116 237s-116 -64 -116 -237zM294 762c-13 0 -31 5 -52 14c-21 10 -38 15 -50 15
c-19 0 -36 -9 -49 -28l-46 37c26 37 58 55 95 55c13 0 30 -5 51 -15c22 -9 39 -14 52 -14c17 0 33 9 47 28l46 -37c-27 -37 -58 -55 -94 -55z" />
    <glyph glyph-name="Odieresis" unicode="&#xd6;" horiz-adv-x="484" 
d="M444 383v-76c0 -210 -67 -315 -202 -315s-202 105 -202 315v76c0 210 67 315 202 315s202 -105 202 -315zM126 383v-76c0 -173 33 -237 116 -237s116 64 116 237v76c0 173 -33 237 -116 237s-116 -64 -116 -237zM374 779h-90v90h90v-90zM200 779h-90v90h90v-90z" />
    <glyph glyph-name="multiply" unicode="&#xd7;" horiz-adv-x="404" 
d="M202 409l97 117l55 -46l-106 -126l106 -126l-55 -46l-97 116l-97 -116l-55 46l105 126l-105 126l55 46z" />
    <glyph glyph-name="Oslash" unicode="&#xd8;" horiz-adv-x="484" 
d="M152 -116h-80l44 155c-51 51 -76 140 -76 268v76c0 210 67 315 202 315c21 0 41 -3 59 -9l35 122h80l-47 -163c50 -51 75 -140 75 -265v-76c0 -210 -67 -315 -202 -315c-20 0 -39 3 -57 8zM126 383v-76c0 -75 6 -130 19 -166l135 473c-12 4 -25 6 -38 6
c-83 0 -116 -64 -116 -237zM358 307v76c0 70 -6 124 -18 161l-134 -469c9 -3 21 -5 36 -5c83 0 116 64 116 237z" />
    <glyph glyph-name="Ugrave" unicode="&#xd9;" horiz-adv-x="540" 
d="M386 280v410h86v-409c0 -197 -74 -289 -202 -289c-135 0 -202 96 -202 288v410h86v-410c0 -152 35 -210 116 -210s116 58 116 210zM159 876h92l67 -129h-71z" />
    <glyph glyph-name="Uacute" unicode="&#xda;" horiz-adv-x="540" 
d="M386 280v410h86v-409c0 -197 -74 -289 -202 -289c-135 0 -202 96 -202 288v410h86v-410c0 -152 35 -210 116 -210s116 58 116 210zM299 747h-71l67 129h92z" />
    <glyph glyph-name="Ucircumflex" unicode="&#xdb;" horiz-adv-x="540" 
d="M386 280v410h86v-409c0 -197 -74 -289 -202 -289c-135 0 -202 96 -202 288v410h86v-410c0 -152 35 -210 116 -210s116 58 116 210zM118 737l116 142h71l117 -142h-84l-68 92l-68 -92h-84z" />
    <glyph glyph-name="Udieresis" unicode="&#xdc;" horiz-adv-x="540" 
d="M386 280v410h86v-409c0 -197 -74 -289 -202 -289c-135 0 -202 96 -202 288v410h86v-410c0 -152 35 -210 116 -210s116 58 116 210zM402 779h-90v90h90v-90zM228 779h-90v90h90v-90z" />
    <glyph glyph-name="Yacute" unicode="&#xdd;" horiz-adv-x="449" 
d="M181 296l-165 394h98l110 -290l111 290h98l-166 -394v-296h-86v296zM253 747h-71l67 129h92z" />
    <glyph glyph-name="Thorn" unicode="&#xde;" horiz-adv-x="474" 
d="M248 143h-94v-143h-86v690h86v-120h94c127 0 201 -79 201 -214c0 -133 -73 -213 -201 -213zM154 492v-271h94c84 0 115 46 115 135c0 91 -31 136 -115 136h-94z" />
    <glyph glyph-name="germandbls" unicode="&#xdf;" horiz-adv-x="425" 
d="M373 564c0 -45 -16 -78 -48 -97c37 -17 48 -51 48 -115v-212c0 -57 -10 -94 -29 -113c-19 -18 -51 -27 -98 -27h-26v72h26c35 0 48 17 48 68v212c0 57 -11 76 -48 76h-26v72h26c32 0 48 20 48 59c0 45 -25 67 -74 67c-60 0 -88 -35 -88 -135v-491h-80v499
c0 133 56 199 168 199c105 0 153 -58 153 -134z" />
    <glyph glyph-name="agrave" unicode="&#xe0;" horiz-adv-x="399" 
d="M32 146c0 95 52 143 156 143h79v58c0 68 -18 87 -77 87c-49 0 -67 -8 -87 -48l-61 39c28 59 70 83 149 83c107 0 156 -45 156 -161v-347h-80v49c-16 -37 -41 -57 -93 -57c-92 0 -142 57 -142 154zM267 192v29h-74c-57 0 -81 -25 -81 -77s25 -78 75 -78c26 0 46 8 59 25
c14 17 21 50 21 101zM101 725h91l55 -158h-72z" />
    <glyph glyph-name="aacute" unicode="&#xe1;" horiz-adv-x="399" 
d="M32 146c0 95 52 143 156 143h79v58c0 68 -18 87 -77 87c-49 0 -67 -8 -87 -48l-61 39c28 59 70 83 149 83c107 0 156 -45 156 -161v-347h-80v49c-16 -37 -41 -57 -93 -57c-92 0 -142 57 -142 154zM267 192v29h-74c-57 0 -81 -25 -81 -77s25 -78 75 -78c26 0 46 8 59 25
c14 17 21 50 21 101zM224 567h-69l54 158h89z" />
    <glyph glyph-name="acircumflex" unicode="&#xe2;" horiz-adv-x="399" 
d="M32 146c0 95 52 143 156 143h79v58c0 68 -18 87 -77 87c-49 0 -67 -8 -87 -48l-61 39c28 59 70 83 149 83c107 0 156 -45 156 -161v-347h-80v49c-16 -37 -41 -57 -93 -57c-92 0 -142 57 -142 154zM267 192v29h-74c-57 0 -81 -25 -81 -77s25 -78 75 -78c26 0 46 8 59 25
c14 17 21 50 21 101zM61 558l95 142h86l95 -142h-77l-61 97l-61 -97h-77z" />
    <glyph glyph-name="atilde" unicode="&#xe3;" horiz-adv-x="399" 
d="M32 146c0 95 52 143 156 143h79v58c0 68 -18 87 -77 87c-49 0 -67 -8 -87 -48l-61 39c28 59 70 83 149 83c107 0 156 -45 156 -161v-347h-80v49c-16 -37 -41 -57 -93 -57c-92 0 -142 57 -142 154zM267 192v29h-74c-57 0 -81 -25 -81 -77s25 -78 75 -78c26 0 46 8 59 25
c14 17 21 50 21 101zM250 589c-13 0 -31 5 -52 14c-21 10 -38 15 -50 15c-19 0 -36 -9 -49 -28l-45 40c26 37 58 55 95 55c13 0 30 -5 51 -15c22 -9 39 -14 52 -14c17 0 33 9 47 28l45 -40c-27 -37 -58 -55 -94 -55z" />
    <glyph glyph-name="adieresis" unicode="&#xe4;" horiz-adv-x="399" 
d="M32 146c0 95 52 143 156 143h79v58c0 68 -18 87 -77 87c-49 0 -67 -8 -87 -48l-61 39c28 59 70 83 149 83c107 0 156 -45 156 -161v-347h-80v49c-16 -37 -41 -57 -93 -57c-92 0 -142 57 -142 154zM267 192v29h-74c-57 0 -81 -25 -81 -77s25 -78 75 -78c26 0 46 8 59 25
c14 17 21 50 21 101zM157 600h-88v90h88v-90zM311 600h-88v90h88v-90z" />
    <glyph glyph-name="aring" unicode="&#xe5;" horiz-adv-x="399" 
d="M32 146c0 95 52 143 156 143h79v58c0 68 -18 87 -77 87c-49 0 -67 -8 -87 -48l-61 39c28 59 70 83 149 83c107 0 156 -45 156 -161v-347h-80v49c-16 -37 -41 -57 -93 -57c-92 0 -142 57 -142 154zM267 192v29h-74c-57 0 -81 -25 -81 -77s25 -78 75 -78c26 0 46 8 59 25
c14 17 21 50 21 101zM86 646c0 61 49 110 109 110c61 0 110 -49 110 -110c0 -60 -49 -109 -110 -109c-60 0 -109 49 -109 109zM138 646c0 -31 26 -57 57 -57c32 0 57 26 57 57c0 32 -25 57 -57 57c-31 0 -57 -25 -57 -57z" />
    <glyph glyph-name="ae" unicode="&#xe6;" horiz-adv-x="629" 
d="M524 116l59 -41c-25 -55 -73 -83 -143 -83c-65 0 -109 27 -133 82c-22 -55 -66 -82 -133 -82c-92 0 -142 57 -142 154c0 95 52 143 156 143h79v58c0 68 -18 87 -77 87c-49 0 -67 -8 -87 -48l-61 39c28 59 70 83 149 83c58 0 99 -21 122 -63c26 42 66 63 120 63
c104 0 155 -71 155 -224v-63h-241v-3c0 -103 31 -154 92 -154c44 0 62 15 85 52zM267 192v29h-74c-57 0 -81 -25 -81 -77s25 -78 75 -78c26 0 46 8 59 25c14 17 21 50 21 101zM427 436c-60 0 -80 -43 -80 -147h161c0 113 -22 147 -81 147z" />
    <glyph glyph-name="ccedilla" unicode="&#xe7;" horiz-adv-x="360" 
d="M289 116l59 -41c-21 -47 -58 -74 -112 -81l-4 -17c30 -14 45 -39 45 -74c0 -52 -40 -82 -92 -82c-14 0 -24 1 -30 3l11 52c3 -1 7 -1 13 -1c21 0 31 9 31 28s-13 28 -38 28l10 63c-100 9 -150 92 -150 224v66c0 141 66 224 175 224c65 0 112 -26 141 -77l-61 -42
c-19 31 -46 47 -80 47c-63 0 -95 -56 -95 -152v-66c0 -103 32 -154 95 -154c35 0 63 17 82 52z" />
    <glyph glyph-name="egrave" unicode="&#xe8;" horiz-adv-x="395" 
d="M289 116l59 -41c-25 -55 -73 -83 -143 -83c-113 0 -173 85 -173 226v66c0 143 57 224 160 224c109 0 161 -69 161 -224v-52h-241v-14c0 -103 31 -154 92 -154c44 0 62 15 85 52zM112 302h161c0 101 -22 134 -81 134s-80 -42 -80 -134zM92 725h91l55 -158h-72z" />
    <glyph glyph-name="eacute" unicode="&#xe9;" horiz-adv-x="395" 
d="M289 116l59 -41c-25 -55 -73 -83 -143 -83c-113 0 -173 85 -173 226v66c0 143 57 224 160 224c109 0 161 -69 161 -224v-52h-241v-14c0 -103 31 -154 92 -154c44 0 62 15 85 52zM112 302h161c0 101 -22 134 -81 134s-80 -42 -80 -134zM216 567h-69l54 158h89z" />
    <glyph glyph-name="ecircumflex" unicode="&#xea;" horiz-adv-x="395" 
d="M289 116l59 -41c-25 -55 -73 -83 -143 -83c-113 0 -173 85 -173 226v66c0 143 57 224 160 224c109 0 161 -69 161 -224v-52h-241v-14c0 -103 31 -154 92 -154c44 0 62 15 85 52zM112 302h161c0 101 -22 134 -81 134s-80 -42 -80 -134zM57 558l95 142h86l95 -142h-77
l-61 97l-61 -97h-77z" />
    <glyph glyph-name="edieresis" unicode="&#xeb;" horiz-adv-x="395" 
d="M289 116l59 -41c-25 -55 -73 -83 -143 -83c-113 0 -173 85 -173 226v66c0 143 57 224 160 224c109 0 161 -69 161 -224v-52h-241v-14c0 -103 31 -154 92 -154c44 0 62 15 85 52zM112 302h161c0 101 -22 134 -81 134s-80 -42 -80 -134zM162 600h-88v90h88v-90zM316 600
h-88v90h88v-90z" />
    <glyph glyph-name="igrave" unicode="&#xec;" horiz-adv-x="208" 
d="M144 0h-80v500h80v-500zM-9 725h91l55 -158h-72z" />
    <glyph glyph-name="iacute" unicode="&#xed;" horiz-adv-x="208" 
d="M144 0h-80v500h80v-500zM134 567h-69l54 158h89z" />
    <glyph glyph-name="icircumflex" unicode="&#xee;" horiz-adv-x="208" 
d="M144 0h-80v500h80v-500zM-38 558l95 142h86l95 -142h-77l-61 97l-61 -97h-77z" />
    <glyph glyph-name="idieresis" unicode="&#xef;" horiz-adv-x="208" 
d="M73 600h-81v90h81v-90zM216 600h-81v90h81v-90zM144 0h-80v500h80v-500z" />
    <glyph glyph-name="eth" unicode="&#xf0;" horiz-adv-x="401" 
d="M155 617l-38 18l30 68l40 -19l26 58l64 -28l-29 -60l19 -14c11 -8 19 -14 22 -17c8 -5 32 -27 39 -42c8 -15 25 -44 30 -72s11 -70 11 -117v-174c0 -144 -61 -226 -169 -226s-168 82 -168 226v66c0 143 60 224 163 224c42 0 73 -12 94 -36c-9 55 -30 82 -74 113l-24 -49
l-60 27zM200 64c59 0 89 51 89 154v66c0 100 -24 152 -89 152s-88 -51 -88 -152v-66c0 -103 29 -154 88 -154z" />
    <glyph glyph-name="ntilde" unicode="&#xf1;" horiz-adv-x="425" 
d="M132 0h-80v500h81v-49c19 38 52 57 98 57c87 0 142 -63 142 -196v-312h-80v311c0 93 -28 123 -77 123c-56 0 -84 -41 -84 -122v-312zM261 589c-13 0 -31 5 -52 14c-21 10 -38 15 -50 15c-19 0 -36 -9 -49 -28l-45 40c26 37 58 55 95 55c13 0 30 -5 51 -15
c22 -9 39 -14 52 -14c17 0 33 9 47 28l45 -40c-27 -37 -58 -55 -94 -55z" />
    <glyph glyph-name="ograve" unicode="&#xf2;" horiz-adv-x="401" 
d="M369 284v-66c0 -144 -61 -226 -169 -226s-168 82 -168 226v66c0 143 60 224 168 224s169 -81 169 -224zM200 64c59 0 89 51 89 154v66c0 100 -24 152 -89 152s-88 -51 -88 -152v-66c0 -103 29 -154 88 -154zM96 725h91l55 -158h-72z" />
    <glyph glyph-name="oacute" unicode="&#xf3;" horiz-adv-x="401" 
d="M369 284v-66c0 -144 -61 -226 -169 -226s-168 82 -168 226v66c0 143 60 224 168 224s169 -81 169 -224zM200 64c59 0 89 51 89 154v66c0 100 -24 152 -89 152s-88 -51 -88 -152v-66c0 -103 29 -154 88 -154zM221 567h-69l54 158h89z" />
    <glyph glyph-name="ocircumflex" unicode="&#xf4;" horiz-adv-x="401" 
d="M369 284v-66c0 -144 -61 -226 -169 -226s-168 82 -168 226v66c0 143 60 224 168 224s169 -81 169 -224zM200 64c59 0 89 51 89 154v66c0 100 -24 152 -89 152s-88 -51 -88 -152v-66c0 -103 29 -154 88 -154zM62 558l95 142h86l95 -142h-77l-61 97l-61 -97h-77z" />
    <glyph glyph-name="otilde" unicode="&#xf5;" horiz-adv-x="401" 
d="M369 284v-66c0 -144 -61 -226 -169 -226s-168 82 -168 226v66c0 143 60 224 168 224s169 -81 169 -224zM200 64c59 0 89 51 89 154v66c0 100 -24 152 -89 152s-88 -51 -88 -152v-66c0 -103 29 -154 88 -154zM251 589c-13 0 -31 5 -52 14c-21 10 -38 15 -50 15
c-19 0 -36 -9 -49 -28l-45 40c26 37 58 55 95 55c13 0 30 -5 51 -15c22 -9 39 -14 52 -14c17 0 33 9 47 28l45 -40c-27 -37 -58 -55 -94 -55z" />
    <glyph glyph-name="odieresis" unicode="&#xf6;" horiz-adv-x="401" 
d="M369 284v-66c0 -144 -61 -226 -169 -226s-168 82 -168 226v66c0 143 60 224 168 224s169 -81 169 -224zM200 64c59 0 89 51 89 154v66c0 100 -24 152 -89 152s-88 -51 -88 -152v-66c0 -103 29 -154 88 -154zM167 600h-88v90h88v-90zM321 600h-88v90h88v-90z" />
    <glyph glyph-name="divide" unicode="&#xf7;" 
d="M246 150h-88v90h88v-90zM246 469h-88v90h88v-90zM362 318h-319v72h319v-72z" />
    <glyph glyph-name="oslash" unicode="&#xf8;" horiz-adv-x="401" 
d="M254 500l30 82h70l-42 -118c38 -38 57 -98 57 -180v-66c0 -144 -61 -226 -169 -226c-19 0 -37 3 -55 8l-28 -79h-70l41 115c-37 39 -56 99 -56 182v66c0 143 60 224 168 224c19 0 37 -3 54 -8zM200 64c59 0 89 51 89 154v66c0 37 -3 66 -10 89l-109 -304
c7 -3 17 -5 30 -5zM112 284v-66c0 -35 3 -64 10 -88l108 301c-10 3 -20 5 -30 5c-65 0 -88 -51 -88 -152z" />
    <glyph glyph-name="ugrave" unicode="&#xf9;" horiz-adv-x="425" 
d="M293 500h80v-500h-80v49c-20 -37 -44 -57 -99 -57c-95 0 -142 65 -142 196v312h80v-311c0 -93 28 -123 77 -123c52 0 84 45 84 122v312zM112 725h91l55 -158h-72z" />
    <glyph glyph-name="uacute" unicode="&#xfa;" horiz-adv-x="425" 
d="M293 500h80v-500h-80v49c-20 -37 -44 -57 -99 -57c-95 0 -142 65 -142 196v312h80v-311c0 -93 28 -123 77 -123c52 0 84 45 84 122v312zM242 567h-69l54 158h89z" />
    <glyph glyph-name="ucircumflex" unicode="&#xfb;" horiz-adv-x="425" 
d="M293 500h80v-500h-80v49c-20 -37 -44 -57 -99 -57c-95 0 -142 65 -142 196v312h80v-311c0 -93 28 -123 77 -123c52 0 84 45 84 122v312zM74 558l95 142h86l95 -142h-77l-61 97l-61 -97h-77z" />
    <glyph glyph-name="udieresis" unicode="&#xfc;" horiz-adv-x="425" 
d="M293 500h80v-500h-80v49c-20 -37 -44 -57 -99 -57c-95 0 -142 65 -142 196v312h80v-311c0 -93 28 -123 77 -123c52 0 84 45 84 122v312zM179 600h-88v90h88v-90zM333 600h-88v90h88v-90z" />
    <glyph glyph-name="yacute" unicode="&#xfd;" horiz-adv-x="382" 
d="M155 -19l4 14l-155 505h86l93 -322l15 -53l93 375h83l-138 -516c-18 -66 -38 -111 -61 -136c-22 -25 -61 -38 -117 -38v78c52 0 76 17 97 93zM219 567h-69l54 158h89z" />
    <glyph glyph-name="thorn" unicode="&#xfe;" horiz-adv-x="423" 
d="M52 690h80v-240c21 39 55 58 102 58c96 0 157 -83 157 -224v-66c0 -136 -54 -226 -157 -226c-47 0 -81 17 -102 52v-234h-80v880zM221 64c60 0 90 63 90 154v66c0 96 -31 152 -90 152c-55 0 -89 -56 -89 -145v-73c0 -103 30 -154 89 -154z" />
    <glyph glyph-name="ydieresis" unicode="&#xff;" horiz-adv-x="382" 
d="M155 -19l4 14l-155 505h86l93 -322l15 -53l93 375h83l-138 -516c-18 -66 -38 -111 -61 -136c-22 -25 -61 -38 -117 -38v78c52 0 76 17 97 93zM158 600h-88v90h88v-90zM312 600h-88v90h88v-90z" />
    <glyph glyph-name="Amacron" unicode="&#x100;" horiz-adv-x="477" 
d="M137 158l-39 -158h-90l192 690h76l193 -690h-90l-39 158h-203zM314 236l-76 308l-76 -308h152zM364 768h-251v72h251v-72z" />
    <glyph glyph-name="amacron" unicode="&#x101;" horiz-adv-x="399" 
d="M32 146c0 95 52 143 156 143h79v58c0 68 -18 87 -77 87c-49 0 -67 -8 -87 -48l-61 39c28 59 70 83 149 83c107 0 156 -45 156 -161v-347h-80v49c-16 -37 -41 -57 -93 -57c-92 0 -142 57 -142 154zM267 192v29h-74c-57 0 -81 -25 -81 -77s25 -78 75 -78c26 0 46 8 59 25
c14 17 21 50 21 101zM308 600h-219v72h219v-72z" />
    <glyph glyph-name="Abreve" unicode="&#x102;" horiz-adv-x="477" 
d="M137 158l-39 -158h-90l192 690h76l193 -690h-90l-39 158h-203zM314 236l-76 308l-76 -308h152zM312 879h76c0 -97 -57 -151 -149 -151s-150 54 -150 151h76c3 -51 27 -76 74 -76c46 0 70 25 73 76z" />
    <glyph glyph-name="abreve" unicode="&#x103;" horiz-adv-x="399" 
d="M32 146c0 95 52 143 156 143h79v58c0 68 -18 87 -77 87c-49 0 -67 -8 -87 -48l-61 39c28 59 70 83 149 83c107 0 156 -45 156 -161v-347h-80v49c-16 -37 -41 -57 -93 -57c-92 0 -142 57 -142 154zM267 192v29h-74c-57 0 -81 -25 -81 -77s25 -78 75 -78c26 0 46 8 59 25
c14 17 21 50 21 101zM262 690h61c-1 -76 -50 -118 -121 -118c-72 0 -121 42 -122 118h63c3 -40 23 -60 59 -60c37 0 57 20 60 60z" />
    <glyph glyph-name="Aogonek" unicode="&#x104;" horiz-adv-x="476" 
d="M137 158l-39 -158h-90l192 690h76l193 -690c-31 -22 -46 -45 -46 -68c0 -19 10 -28 31 -28c7 0 12 0 15 1l10 -51c-8 -3 -20 -4 -36 -4c-49 0 -90 24 -90 76c0 24 9 49 26 74l-39 158h-203zM314 236l-76 308l-76 -308h152z" />
    <glyph glyph-name="aogonek" unicode="&#x105;" horiz-adv-x="399" 
d="M32 146c0 95 52 143 156 143h79v58c0 68 -18 87 -77 87c-49 0 -67 -8 -87 -48l-61 39c28 59 70 83 149 83c107 0 156 -45 156 -161v-347c-31 -23 -46 -45 -46 -68c0 -19 10 -28 31 -28c3 0 8 1 15 2l10 -53c-6 -2 -18 -3 -36 -3c-52 0 -90 23 -90 76c0 30 12 56 36 78v45
c-16 -37 -41 -57 -93 -57c-92 0 -142 57 -142 154zM267 192v29h-74c-57 0 -81 -25 -81 -77s25 -78 75 -78c26 0 46 8 59 25c14 17 21 50 21 101z" />
    <glyph glyph-name="Cacute" unicode="&#x106;" horiz-adv-x="466" 
d="M442 475h-81c-20 107 -54 145 -119 145c-81 0 -116 -65 -116 -237v-76c0 -172 33 -237 116 -237c67 0 100 42 119 145h80c-16 -149 -82 -223 -199 -223c-135 0 -202 105 -202 315v76c0 210 67 315 202 315c115 0 182 -74 200 -223zM264 747h-71l67 129h92z" />
    <glyph glyph-name="cacute" unicode="&#x107;" horiz-adv-x="360" 
d="M289 116l59 -41c-23 -55 -70 -83 -141 -83c-117 0 -175 83 -175 226v66c0 141 66 224 175 224c65 0 112 -26 141 -77l-61 -42c-19 31 -46 47 -80 47c-63 0 -95 -56 -95 -152v-66c0 -103 32 -154 95 -154c35 0 63 17 82 52zM229 567h-69l54 158h89z" />
    <glyph glyph-name="Ccircumflex" unicode="&#x108;" horiz-adv-x="466" 
d="M442 475h-81c-20 107 -54 145 -119 145c-81 0 -116 -65 -116 -237v-76c0 -172 33 -237 116 -237c67 0 100 42 119 145h80c-16 -149 -82 -223 -199 -223c-135 0 -202 105 -202 315v76c0 210 67 315 202 315c115 0 182 -74 200 -223zM90 737l116 142h71l117 -142h-84
l-68 92l-68 -92h-84z" />
    <glyph glyph-name="ccircumflex" unicode="&#x109;" horiz-adv-x="360" 
d="M289 116l59 -41c-23 -55 -70 -83 -141 -83c-117 0 -175 83 -175 226v66c0 141 66 224 175 224c65 0 112 -26 141 -77l-61 -42c-19 31 -46 47 -80 47c-63 0 -95 -56 -95 -152v-66c0 -103 32 -154 95 -154c35 0 63 17 82 52zM70 558l95 142h86l95 -142h-77l-61 97l-61 -97
h-77z" />
    <glyph glyph-name="Cdotaccent" unicode="&#x10a;" horiz-adv-x="466" 
d="M442 475h-81c-20 107 -54 145 -119 145c-81 0 -116 -65 -116 -237v-76c0 -172 33 -237 116 -237c67 0 100 42 119 145h80c-16 -149 -82 -223 -199 -223c-135 0 -202 105 -202 315v76c0 210 67 315 202 315c115 0 182 -74 200 -223zM288 779h-90v90h90v-90z" />
    <glyph glyph-name="cdotaccent" unicode="&#x10b;" horiz-adv-x="360" 
d="M289 116l59 -41c-23 -55 -70 -83 -141 -83c-117 0 -175 83 -175 226v66c0 141 66 224 175 224c65 0 112 -26 141 -77l-61 -42c-19 31 -46 47 -80 47c-63 0 -95 -56 -95 -152v-66c0 -103 32 -154 95 -154c35 0 63 17 82 52zM248 600h-88v90h88v-90z" />
    <glyph glyph-name="Ccaron" unicode="&#x10c;" horiz-adv-x="466" 
d="M442 475h-81c-20 107 -54 145 -119 145c-81 0 -116 -65 -116 -237v-76c0 -172 33 -237 116 -237c67 0 100 42 119 145h80c-16 -149 -82 -223 -199 -223c-135 0 -202 105 -202 315v76c0 210 67 315 202 315c115 0 182 -74 200 -223zM391 879l-117 -142h-71l-116 142h84
l68 -92l68 92h84z" />
    <glyph glyph-name="ccaron" unicode="&#x10d;" horiz-adv-x="360" 
d="M289 116l59 -41c-23 -55 -70 -83 -141 -83c-117 0 -175 83 -175 226v66c0 141 66 224 175 224c65 0 112 -26 141 -77l-61 -42c-19 31 -46 47 -80 47c-63 0 -95 -56 -95 -152v-66c0 -103 32 -154 95 -154c35 0 63 17 82 52zM343 700l-95 -142h-86l-95 142h77l61 -97l61 97
h77z" />
    <glyph glyph-name="Dcaron" unicode="&#x10e;" horiz-adv-x="488" 
d="M248 0h-180v690h180c133 0 200 -103 200 -309v-72c0 -206 -67 -309 -200 -309zM154 78h94c81 0 114 62 114 231v72c0 168 -34 231 -114 231h-94v-534zM371 879l-117 -142h-71l-116 142h84l68 -92l68 92h84z" />
    <glyph glyph-name="dcaron" unicode="&#x10f;" horiz-adv-x="457" 
d="M291 450v240h80v-690h-80v44c-21 -35 -55 -52 -102 -52c-103 0 -157 90 -157 226v66c0 141 61 224 157 224c47 0 81 -19 102 -58zM202 64c59 0 89 51 89 154v73c0 89 -34 145 -89 145c-59 0 -90 -56 -90 -152v-66c0 -91 30 -154 90 -154zM431 690h96v-96l-96 -83v179z
" />
    <glyph glyph-name="Dcroat" unicode="&#x110;" horiz-adv-x="494" 
d="M74 318h-82v78h82v294h180c133 0 200 -103 200 -309v-72c0 -206 -67 -309 -200 -309h-180v318zM160 78h94c81 0 114 62 114 231v72c0 168 -34 231 -114 231h-94v-216h131v-78h-131v-240z" />
    <glyph glyph-name="dslash" unicode="&#x111;" horiz-adv-x="446" 
d="M291 558h-121v72h121v60h80v-60h74v-72h-74v-558h-80v44c-21 -35 -55 -52 -102 -52c-103 0 -157 90 -157 226v66c0 141 61 224 157 224c47 0 81 -19 102 -58v108zM202 64c59 0 89 51 89 154v73c0 89 -34 145 -89 145c-59 0 -90 -56 -90 -152v-66c0 -91 30 -154 90 -154z
" />
    <glyph glyph-name="Emacron" unicode="&#x112;" horiz-adv-x="437" 
d="M68 0v690h337v-78h-251v-216h227v-78h-227v-240h251v-78h-337zM362 768h-251v72h251v-72z" />
    <glyph glyph-name="emacron" unicode="&#x113;" horiz-adv-x="395" 
d="M289 116l59 -41c-25 -55 -73 -83 -143 -83c-113 0 -173 85 -173 226v66c0 143 57 224 160 224c109 0 161 -69 161 -224v-52h-241v-14c0 -103 31 -154 92 -154c44 0 62 15 85 52zM112 302h161c0 101 -22 134 -81 134s-80 -42 -80 -134zM308 600h-219v72h219v-72z" />
    <glyph glyph-name="Edotaccent" unicode="&#x116;" horiz-adv-x="437" 
d="M68 0v690h337v-78h-251v-216h227v-78h-227v-240h251v-78h-337zM283 779h-90v90h90v-90z" />
    <glyph glyph-name="edotaccent" unicode="&#x117;" horiz-adv-x="395" 
d="M289 116l59 -41c-25 -55 -73 -83 -143 -83c-113 0 -173 85 -173 226v66c0 143 57 224 160 224c109 0 161 -69 161 -224v-52h-241v-14c0 -103 31 -154 92 -154c44 0 62 15 85 52zM112 302h161c0 101 -22 134 -81 134s-80 -42 -80 -134zM241 600h-88v90h88v-90z" />
    <glyph glyph-name="Eogonek" unicode="&#x118;" horiz-adv-x="437" 
d="M68 0v690h337v-78h-251v-216h227v-78h-227v-240h251v-78h-87c-31 -23 -46 -45 -46 -68c0 -19 10 -28 31 -28c7 0 12 0 15 1l10 -51c-8 -3 -20 -4 -36 -4c-49 0 -90 24 -90 76c0 27 10 52 31 74h-165z" />
    <glyph glyph-name="eogonek" unicode="&#x119;" horiz-adv-x="395" 
d="M289 116l59 -41c-19 -42 -50 -68 -93 -78c-27 -21 -41 -42 -41 -65c0 -19 10 -28 31 -28c3 0 8 1 15 2l10 -53c-6 -2 -18 -3 -36 -3c-26 0 -48 6 -65 18s-25 31 -25 58s9 50 26 69c-91 16 -138 96 -138 223v66c0 143 57 224 160 224c109 0 161 -69 161 -224v-52h-241v-14
c0 -103 31 -154 92 -154c44 0 62 15 85 52zM112 302h161c0 101 -22 134 -81 134s-80 -42 -80 -134z" />
    <glyph glyph-name="Ecaron" unicode="&#x11a;" horiz-adv-x="437" 
d="M68 0v690h337v-78h-251v-216h227v-78h-227v-240h251v-78h-337zM390 879l-117 -142h-71l-116 142h84l68 -92l68 92h84z" />
    <glyph glyph-name="ecaron" unicode="&#x11b;" horiz-adv-x="395" 
d="M289 116l59 -41c-25 -55 -73 -83 -143 -83c-113 0 -173 85 -173 226v66c0 143 57 224 160 224c109 0 161 -69 161 -224v-52h-241v-14c0 -103 31 -154 92 -154c44 0 62 15 85 52zM112 302h161c0 101 -22 134 -81 134s-80 -42 -80 -134zM335 700l-95 -142h-86l-95 142h77
l61 -97l61 97h77z" />
    <glyph glyph-name="Gcircumflex" unicode="&#x11c;" horiz-adv-x="486" 
d="M243 269v78h203v-40c0 -215 -76 -315 -204 -315c-135 0 -202 105 -202 315v76c0 210 67 315 202 315c116 0 183 -74 200 -223h-81c-19 103 -52 145 -119 145c-83 0 -116 -65 -116 -237v-76c0 -172 33 -237 116 -237c76 0 115 66 118 199h-117zM90 737l116 142h71
l117 -142h-84l-68 92l-68 -92h-84z" />
    <glyph glyph-name="gcircumflex" unicode="&#x11d;" horiz-adv-x="423" 
d="M291 450v50h80v-490c0 -137 -57 -206 -172 -206c-73 0 -122 28 -149 83l61 42c19 -37 41 -53 86 -53c67 0 94 45 94 134v34c-21 -35 -55 -52 -102 -52c-103 0 -157 90 -157 226v66c0 141 61 224 157 224c47 0 81 -19 102 -58zM202 64c59 0 89 51 89 154v73
c0 89 -34 145 -89 145c-59 0 -90 -56 -90 -152v-66c0 -91 30 -154 90 -154zM78 558l95 142h86l95 -142h-77l-61 97l-61 -97h-77z" />
    <glyph glyph-name="Gbreve" unicode="&#x11e;" horiz-adv-x="486" 
d="M243 269v78h203v-40c0 -215 -76 -315 -204 -315c-135 0 -202 105 -202 315v76c0 210 67 315 202 315c116 0 183 -74 200 -223h-81c-19 103 -52 145 -119 145c-83 0 -116 -65 -116 -237v-76c0 -172 33 -237 116 -237c76 0 115 66 118 199h-117zM323 879h76
c0 -97 -57 -151 -149 -151s-150 54 -150 151h76c3 -51 27 -76 74 -76c46 0 70 25 73 76z" />
    <glyph glyph-name="gbreve" unicode="&#x11f;" horiz-adv-x="423" 
d="M291 450v50h80v-490c0 -137 -57 -206 -172 -206c-73 0 -122 28 -149 83l61 42c19 -37 41 -53 86 -53c67 0 94 45 94 134v34c-21 -35 -55 -52 -102 -52c-103 0 -157 90 -157 226v66c0 141 61 224 157 224c47 0 81 -19 102 -58zM202 64c59 0 89 51 89 154v73
c0 89 -34 145 -89 145c-59 0 -90 -56 -90 -152v-66c0 -91 30 -154 90 -154zM292 690h61c-1 -76 -50 -118 -121 -118c-72 0 -121 42 -122 118h63c3 -40 23 -60 59 -60c37 0 57 20 60 60z" />
    <glyph glyph-name="Gdotaccent" unicode="&#x120;" horiz-adv-x="486" 
d="M243 269v78h203v-40c0 -215 -76 -315 -204 -315c-135 0 -202 105 -202 315v76c0 210 67 315 202 315c116 0 183 -74 200 -223h-81c-19 103 -52 145 -119 145c-83 0 -116 -65 -116 -237v-76c0 -172 33 -237 116 -237c76 0 115 66 118 199h-117zM288 779h-90v90h90v-90z
" />
    <glyph glyph-name="gdotaccent" unicode="&#x121;" horiz-adv-x="423" 
d="M291 450v50h80v-490c0 -137 -57 -206 -172 -206c-73 0 -122 28 -149 83l61 42c19 -37 41 -53 86 -53c67 0 94 45 94 134v34c-21 -35 -55 -52 -102 -52c-103 0 -157 90 -157 226v66c0 141 61 224 157 224c47 0 81 -19 102 -58zM202 64c59 0 89 51 89 154v73
c0 89 -34 145 -89 145c-59 0 -90 -56 -90 -152v-66c0 -91 30 -154 90 -154zM243 600h-88v90h88v-90z" />
    <glyph glyph-name="Gcommaaccent" unicode="&#x122;" horiz-adv-x="486" 
d="M243 269v78h203v-40c0 -215 -76 -315 -204 -315c-135 0 -202 105 -202 315v76c0 210 67 315 202 315c116 0 183 -74 200 -223h-81c-19 103 -52 145 -119 145c-83 0 -116 -65 -116 -237v-76c0 -172 33 -237 116 -237c76 0 115 66 118 199h-117zM199 -64h96v-96l-96 -83
v179z" />
    <glyph glyph-name="gcommaaccent" unicode="&#x123;" horiz-adv-x="423" 
d="M291 450v50h80v-490c0 -137 -57 -206 -172 -206c-73 0 -122 28 -149 83l61 42c19 -37 41 -53 86 -53c67 0 94 45 94 134v34c-21 -35 -55 -52 -102 -52c-103 0 -157 90 -157 226v66c0 141 61 224 157 224c47 0 81 -19 102 -58zM202 64c59 0 89 51 89 154v73
c0 89 -34 145 -89 145c-59 0 -90 -56 -90 -152v-66c0 -91 30 -154 90 -154zM254 593h-96v96l96 83v-179z" />
    <glyph glyph-name="Hcircumflex" unicode="&#x124;" horiz-adv-x="514" 
d="M68 690h86v-294h206v294h86v-690h-86v318h-206v-318h-86v690zM105 737l116 142h71l117 -142h-84l-68 92l-68 -92h-84z" />
    <glyph glyph-name="hcircumflex" unicode="&#x125;" horiz-adv-x="425" 
d="M132 0h-80v690h81v-239c19 38 52 57 98 57c87 0 142 -63 142 -196v-312h-80v311c0 93 -28 123 -77 123c-56 0 -84 -41 -84 -122v-312zM-46 724l95 142h86l95 -142h-77l-61 97l-61 -97h-77z" />
    <glyph glyph-name="Hbar" unicode="&#x126;" horiz-adv-x="522" 
d="M72 468h-80v78h80v144h86v-144h206v144h86v-144h80v-78h-80v-468h-86v318h-206v-318h-86v468zM158 468v-72h206v72h-206z" />
    <glyph glyph-name="hbar" unicode="&#x127;" horiz-adv-x="425" 
d="M52 558h-75v72h75v60h81v-60h129v-72h-129v-107c19 38 52 57 98 57c87 0 142 -63 142 -196v-312h-80v311c0 93 -28 123 -77 123c-56 0 -84 -41 -84 -122v-312h-80v558z" />
    <glyph glyph-name="Imacron" unicode="&#x12a;" horiz-adv-x="238" 
d="M76 690h86v-690h-86v690zM245 768h-251v72h251v-72z" />
    <glyph glyph-name="imacron" unicode="&#x12b;" horiz-adv-x="208" 
d="M144 0h-80v500h80v-500zM214 600h-219v72h219v-72z" />
    <glyph glyph-name="Iogonek" unicode="&#x12e;" horiz-adv-x="238" 
d="M76 690h86v-690c-31 -23 -46 -45 -46 -68c0 -19 10 -28 31 -28c7 0 12 0 15 1l10 -51c-8 -3 -20 -4 -36 -4c-49 0 -90 24 -90 76c0 27 10 52 30 74v690z" />
    <glyph glyph-name="iogonek" unicode="&#x12f;" horiz-adv-x="208" 
d="M28 -74c0 30 12 56 36 78v496h80v-500c-31 -23 -46 -45 -46 -68c0 -19 10 -28 31 -28c3 0 8 1 15 2l10 -53c-6 -2 -18 -3 -36 -3c-52 0 -90 23 -90 76zM151 600h-93v90h93v-90z" />
    <glyph glyph-name="Idot" unicode="&#x130;" horiz-adv-x="238" 
d="M76 690h86v-690h-86v690zM164 779h-90v90h90v-90z" />
    <glyph glyph-name="dotlessi" unicode="&#x131;" horiz-adv-x="208" 
d="M144 0h-80v500h80v-500z" />
    <glyph glyph-name="Jcircumflex" unicode="&#x134;" horiz-adv-x="408" 
d="M4 78l71 44c18 -35 44 -52 77 -52c37 0 63 15 78 46c16 31 24 87 24 168v406h86v-406c0 -207 -65 -292 -188 -292c-70 0 -119 29 -148 86zM147 737l116 142h71l117 -142h-84l-68 92l-68 -92h-84z" />
    <glyph glyph-name="jcircumflex" unicode="&#x135;" horiz-adv-x="198" 
d="M63 500h80v-536c0 -108 -36 -154 -143 -154v74c24 0 41 10 49 19c5 5 8 12 10 23c4 21 4 30 4 58v516zM-36 558l95 142h86l95 -142h-77l-61 97l-61 -97h-77z" />
    <glyph glyph-name="Kcommaaccent" unicode="&#x136;" horiz-adv-x="520" 
d="M303 414l213 -414h-101l-169 339l-92 -145v-194h-86v690h86v-355l226 355h96zM224 -64h96v-96l-96 -83v179z" />
    <glyph glyph-name="kcommaaccent" unicode="&#x137;" horiz-adv-x="393" 
d="M132 299l142 201h92l-145 -204l168 -296h-94l-126 227l-37 -51v-176h-80v690h80v-391zM157 -64h96v-96l-96 -83v179z" />
    <glyph glyph-name="Lacute" unicode="&#x139;" 
d="M68 690h86v-612h251v-78h-337v690zM146 747h-71l67 129h92z" />
    <glyph glyph-name="lacute" unicode="&#x13a;" horiz-adv-x="228" 
d="M52 154v536h80v-516c0 -31 0 -35 3 -58c6 -31 21 -38 59 -42v-74c-105 0 -142 46 -142 154zM121 718h-69l54 158h89z" />
    <glyph glyph-name="Lcommaaccent" unicode="&#x13b;" 
d="M68 690h86v-612h251v-78h-337v690zM194 -64h96v-96l-96 -83v179z" />
    <glyph glyph-name="lcommaaccent" unicode="&#x13c;" horiz-adv-x="228" 
d="M52 154v536h80v-516c0 -31 0 -35 3 -58c6 -31 21 -38 59 -42v-74c-105 0 -142 46 -142 154zM73 -64h96v-96l-96 -83v179z" />
    <glyph glyph-name="Lcaron" unicode="&#x13d;" 
d="M68 690h86v-612h251v-78h-337v690zM242 740h86v-185l-86 -74v259z" />
    <glyph glyph-name="lcaron" unicode="&#x13e;" horiz-adv-x="228" 
d="M52 154v536h80v-516c0 -31 0 -35 3 -58c6 -31 21 -38 59 -42v-74c-105 0 -142 46 -142 154zM171 690h96v-96l-96 -83v179z" />
    <glyph glyph-name="Ldot" unicode="&#x13f;" horiz-adv-x="418" 
d="M68 690h86v-612h251v-78h-337v690zM370 350h-88v90h88v-90z" />
    <glyph glyph-name="ldot" unicode="&#x140;" horiz-adv-x="274" 
d="M52 154v536h80v-516c0 -31 0 -35 3 -58c6 -31 21 -38 59 -42v-74c-105 0 -142 46 -142 154zM274 344h-90v90h90v-90z" />
    <glyph glyph-name="Lslash" unicode="&#x141;" horiz-adv-x="430" 
d="M93 268l-47 -46l-54 56l101 99v313h86v-229l89 87l54 -56l-143 -140v-274h251v-78h-337v268z" />
    <glyph glyph-name="lslash" unicode="&#x142;" horiz-adv-x="234" 
d="M77 278l-40 -34l-45 52l85 72v322h80v-253l47 40l45 -52l-92 -79v-172c0 -31 0 -35 3 -58c6 -31 21 -38 59 -42v-74c-105 0 -142 46 -142 154v124z" />
    <glyph glyph-name="Nacute" unicode="&#x143;" horiz-adv-x="515" 
d="M361 207v483h86v-690h-80l-213 478v-478h-86v690h77zM286 747h-71l67 129h92z" />
    <glyph glyph-name="nacute" unicode="&#x144;" horiz-adv-x="425" 
d="M132 0h-80v500h81v-49c19 38 52 57 98 57c87 0 142 -63 142 -196v-312h-80v311c0 93 -28 123 -77 123c-56 0 -84 -41 -84 -122v-312zM237 567h-69l54 158h89z" />
    <glyph glyph-name="Ncommaaccent" unicode="&#x145;" horiz-adv-x="515" 
d="M361 207v483h86v-690h-80l-213 478v-478h-86v690h77zM210 -64h96v-96l-96 -83v179z" />
    <glyph glyph-name="ncommaaccent" unicode="&#x146;" horiz-adv-x="425" 
d="M132 0h-80v500h81v-49c19 38 52 57 98 57c87 0 142 -63 142 -196v-312h-80v311c0 93 -28 123 -77 123c-56 0 -84 -41 -84 -122v-312zM164 -64h96v-96l-96 -83v179z" />
    <glyph glyph-name="Ncaron" unicode="&#x147;" horiz-adv-x="515" 
d="M361 207v483h86v-690h-80l-213 478v-478h-86v690h77zM409 879l-117 -142h-71l-116 142h84l68 -92l68 92h84z" />
    <glyph glyph-name="ncaron" unicode="&#x148;" horiz-adv-x="425" 
d="M132 0h-80v500h81v-49c19 38 52 57 98 57c87 0 142 -63 142 -196v-312h-80v311c0 93 -28 123 -77 123c-56 0 -84 -41 -84 -122v-312zM357 700l-95 -142h-86l-95 142h77l61 -97l61 97h77z" />
    <glyph glyph-name="Omacron" unicode="&#x14c;" horiz-adv-x="484" 
d="M444 383v-76c0 -210 -67 -315 -202 -315s-202 105 -202 315v76c0 210 67 315 202 315s202 -105 202 -315zM126 383v-76c0 -173 33 -237 116 -237s116 64 116 237v76c0 173 -33 237 -116 237s-116 -64 -116 -237zM368 768h-251v72h251v-72z" />
    <glyph glyph-name="omacron" unicode="&#x14d;" horiz-adv-x="401" 
d="M369 284v-66c0 -144 -61 -226 -169 -226s-168 82 -168 226v66c0 143 60 224 168 224s169 -81 169 -224zM200 64c59 0 89 51 89 154v66c0 100 -24 152 -89 152s-88 -51 -88 -152v-66c0 -103 29 -154 88 -154zM310 600h-219v72h219v-72z" />
    <glyph glyph-name="Ohungarumlaut" unicode="&#x150;" horiz-adv-x="484" 
d="M444 383v-76c0 -210 -67 -315 -202 -315s-202 105 -202 315v76c0 210 67 315 202 315s202 -105 202 -315zM126 383v-76c0 -173 33 -237 116 -237s116 64 116 237v76c0 173 -33 237 -116 237s-116 -64 -116 -237zM195 747h-71l64 129h92zM328 747h-71l74 129h93z" />
    <glyph glyph-name="ohungarumlaut" unicode="&#x151;" horiz-adv-x="401" 
d="M369 284v-66c0 -144 -61 -226 -169 -226s-168 82 -168 226v66c0 143 60 224 168 224s169 -81 169 -224zM200 64c59 0 89 51 89 154v66c0 100 -24 152 -89 152s-88 -51 -88 -152v-66c0 -103 29 -154 88 -154zM172 567h-69l54 158h89zM289 567h-69l74 158h89z" />
    <glyph glyph-name="OE" unicode="&#x152;" horiz-adv-x="727" 
d="M358 648v42h337v-78h-251v-216h227v-78h-227v-240h251v-78h-337v43c-27 -34 -65 -51 -116 -51c-135 0 -202 105 -202 315v76c0 210 67 315 202 315c51 0 89 -17 116 -50zM126 383v-76c0 -173 33 -237 116 -237s116 64 116 237v76c0 173 -33 237 -116 237
s-116 -64 -116 -237z" />
    <glyph glyph-name="oe" unicode="&#x153;" horiz-adv-x="651" 
d="M546 116l59 -41c-25 -55 -73 -83 -143 -83c-66 0 -110 30 -133 91c-23 -61 -66 -91 -129 -91c-108 0 -168 82 -168 226v66c0 143 60 224 168 224c63 0 106 -29 129 -87c23 58 65 87 126 87c104 0 155 -71 155 -224v-52h-241v-14c0 -103 31 -154 92 -154c44 0 62 15 85 52
zM200 64c59 0 89 51 89 154v66c0 100 -24 152 -89 152s-88 -51 -88 -152v-66c0 -103 29 -154 88 -154zM369 302h161c0 101 -22 134 -81 134s-80 -42 -80 -134z" />
    <glyph glyph-name="Racute" unicode="&#x154;" horiz-adv-x="487" 
d="M342 306l121 -306h-91l-111 291h-107v-291h-86v690h178c131 0 203 -68 203 -200c0 -96 -36 -157 -107 -184zM154 612v-243h92c87 0 117 34 117 121c0 88 -30 122 -117 122h-92zM244 747h-71l67 129h92z" />
    <glyph glyph-name="racute" unicode="&#x155;" horiz-adv-x="322" 
d="M330 440l-62 -47c-16 27 -37 41 -62 41c-49 0 -74 -40 -74 -121v-313h-80v500h80v-49c18 38 48 57 91 57c46 0 82 -23 107 -68zM186 567h-69l54 158h89z" />
    <glyph glyph-name="Rcommaaccent" unicode="&#x156;" horiz-adv-x="487" 
d="M342 306l121 -306h-91l-111 291h-107v-291h-86v690h178c131 0 203 -68 203 -200c0 -96 -36 -157 -107 -184zM154 612v-243h92c87 0 117 34 117 121c0 88 -30 122 -117 122h-92zM206 -64h96v-96l-96 -83v179z" />
    <glyph glyph-name="rcommaaccent" unicode="&#x157;" horiz-adv-x="322" 
d="M330 440l-62 -47c-16 27 -37 41 -62 41c-49 0 -74 -40 -74 -121v-313h-80v500h80v-49c18 38 48 57 91 57c46 0 82 -23 107 -68zM46 -64h96v-96l-96 -83v179z" />
    <glyph glyph-name="Rcaron" unicode="&#x158;" horiz-adv-x="487" 
d="M342 306l121 -306h-91l-111 291h-107v-291h-86v690h178c131 0 203 -68 203 -200c0 -96 -36 -157 -107 -184zM154 612v-243h92c87 0 117 34 117 121c0 88 -30 122 -117 122h-92zM395 879l-117 -142h-71l-116 142h84l68 -92l68 92h84z" />
    <glyph glyph-name="rcaron" unicode="&#x159;" horiz-adv-x="322" 
d="M330 440l-62 -47c-16 27 -37 41 -62 41c-49 0 -74 -40 -74 -121v-313h-80v500h80v-49c18 38 48 57 91 57c46 0 82 -23 107 -68zM321 700l-95 -142h-86l-95 142h77l61 -97l61 97h77z" />
    <glyph glyph-name="Sacute" unicode="&#x15a;" horiz-adv-x="463" 
d="M413 585l-65 -44c-31 53 -61 79 -122 79c-59 0 -94 -40 -94 -108c0 -73 32 -103 120 -128c112 -32 172 -90 172 -199c0 -33 -6 -63 -17 -91c-23 -55 -84 -102 -172 -102c-91 0 -157 38 -199 113l68 46c40 -57 71 -81 131 -81c69 0 104 37 104 111c0 65 -25 102 -121 129
c-115 31 -172 99 -172 202c0 52 15 96 46 132s76 54 136 54c84 0 146 -38 185 -113zM252 747h-71l67 129h92z" />
    <glyph glyph-name="sacute" unicode="&#x15b;" horiz-adv-x="378" 
d="M330 425l-58 -42c-21 37 -40 51 -87 51c-45 0 -68 -22 -68 -67s24 -67 80 -79c88 -20 145 -56 145 -149c0 -89 -54 -147 -153 -147c-73 0 -125 27 -157 81l57 46c19 -35 51 -53 95 -53c52 0 78 24 78 71c0 45 -20 64 -89 80c-91 20 -136 70 -136 149c0 84 56 142 145 142
c70 0 119 -28 148 -83zM206 567h-69l54 158h89z" />
    <glyph glyph-name="Scircumflex" unicode="&#x15c;" horiz-adv-x="463" 
d="M413 585l-65 -44c-31 53 -61 79 -122 79c-59 0 -94 -40 -94 -108c0 -73 32 -103 120 -128c112 -32 172 -90 172 -199c0 -33 -6 -63 -17 -91c-23 -55 -84 -102 -172 -102c-91 0 -157 38 -199 113l68 46c40 -57 71 -81 131 -81c69 0 104 37 104 111c0 65 -25 102 -121 129
c-115 31 -172 99 -172 202c0 52 15 96 46 132s76 54 136 54c84 0 146 -38 185 -113zM79 737l116 142h71l117 -142h-84l-68 92l-68 -92h-84z" />
    <glyph glyph-name="scircumflex" unicode="&#x15d;" horiz-adv-x="378" 
d="M330 425l-58 -42c-21 37 -40 51 -87 51c-45 0 -68 -22 -68 -67s24 -67 80 -79c88 -20 145 -56 145 -149c0 -89 -54 -147 -153 -147c-73 0 -125 27 -157 81l57 46c19 -35 51 -53 95 -53c52 0 78 24 78 71c0 45 -20 64 -89 80c-91 20 -136 70 -136 149c0 84 56 142 145 142
c70 0 119 -28 148 -83zM48 558l95 142h86l95 -142h-77l-61 97l-61 -97h-77z" />
    <glyph glyph-name="Scedilla" unicode="&#x15e;" horiz-adv-x="463" 
d="M197 -69l10 62c-77 7 -134 44 -171 112l68 45c40 -57 71 -80 131 -80c69 0 104 37 104 111c0 65 -25 102 -121 129c-115 31 -172 99 -172 202c0 52 15 96 46 132s76 54 136 54c84 0 146 -38 185 -113l-65 -44c-31 53 -61 79 -122 79c-59 0 -94 -40 -94 -108
c0 -73 32 -103 120 -128c112 -32 172 -90 172 -199c0 -48 -13 -91 -40 -128s-68 -59 -123 -64l-4 -16c31 -11 46 -35 46 -74c0 -52 -40 -82 -93 -82c-14 0 -24 1 -30 3l11 52c3 -1 7 -1 13 -1c21 0 31 9 31 28s-13 28 -38 28z" />
    <glyph glyph-name="scedilla" unicode="&#x15f;" horiz-adv-x="378" 
d="M158 -69l10 62c-61 3 -107 30 -136 80l57 46c19 -35 51 -53 95 -53c52 0 78 24 78 71c0 45 -20 64 -89 80c-91 20 -136 70 -136 149c0 84 56 142 145 142c70 0 119 -28 148 -83l-58 -42c-21 37 -40 51 -87 51c-45 0 -68 -22 -68 -67s24 -67 80 -79
c88 -20 145 -56 145 -149c0 -79 -41 -133 -120 -145l-4 -17c30 -14 45 -39 45 -74c0 -52 -40 -82 -92 -82c-14 0 -24 1 -30 3l11 52c3 -1 7 -1 13 -1c21 0 31 9 31 28s-13 28 -38 28z" />
    <glyph glyph-name="Scaron" unicode="&#x160;" horiz-adv-x="463" 
d="M413 585l-65 -44c-31 53 -61 79 -122 79c-59 0 -94 -40 -94 -108c0 -73 32 -103 120 -128c112 -32 172 -90 172 -199c0 -33 -6 -63 -17 -91c-23 -55 -84 -102 -172 -102c-91 0 -157 38 -199 113l68 46c40 -57 71 -81 131 -81c69 0 104 37 104 111c0 65 -25 102 -121 129
c-115 31 -172 99 -172 202c0 52 15 96 46 132s76 54 136 54c84 0 146 -38 185 -113zM379 879l-117 -142h-71l-116 142h84l68 -92l68 92h84z" />
    <glyph glyph-name="scaron" unicode="&#x161;" horiz-adv-x="378" 
d="M330 425l-58 -42c-21 37 -40 51 -87 51c-45 0 -68 -22 -68 -67s24 -67 80 -79c88 -20 145 -56 145 -149c0 -89 -54 -147 -153 -147c-73 0 -125 27 -157 81l57 46c19 -35 51 -53 95 -53c52 0 78 24 78 71c0 45 -20 64 -89 80c-91 20 -136 70 -136 149c0 84 56 142 145 142
c70 0 119 -28 148 -83zM321 700l-95 -142h-86l-95 142h77l61 -97l61 97h77z" />
    <glyph glyph-name="Tcedilla" unicode="&#x162;" horiz-adv-x="417" 
d="M171 -69l11 69h-17v612h-161v78h409v-78h-162v-612h-15l-5 -23c31 -11 46 -35 46 -74c0 -52 -40 -82 -93 -82c-14 0 -24 1 -30 3l11 52c3 -1 7 -1 13 -1c21 0 31 9 31 28s-13 28 -38 28z" />
    <glyph glyph-name="tcedilla" unicode="&#x163;" horiz-adv-x="256" 
d="M126 -69l13 76c-52 17 -71 63 -71 147v274h-51v72h51v110h80v-110h83v-72h-83v-254c0 -76 6 -98 54 -98h29v-76h-40l-5 -23c30 -14 45 -39 45 -74c0 -52 -40 -82 -92 -82c-14 0 -24 1 -30 3l11 52c3 -1 7 -1 13 -1c21 0 31 9 31 28s-13 28 -38 28z" />
    <glyph glyph-name="Tcaron" unicode="&#x164;" horiz-adv-x="417" 
d="M4 612v78h409v-78h-162v-612h-86v612h-161zM360 879l-117 -142h-71l-116 142h84l68 -92l68 92h84z" />
    <glyph glyph-name="tcaron" unicode="&#x165;" horiz-adv-x="259" 
d="M68 428h-51v72h51v110h80v-110h83v-72h-83v-254c0 -76 6 -98 54 -98h29v-76h-35c-96 0 -128 46 -128 154v274zM231 690h96v-96l-96 -83v179z" />
    <glyph glyph-name="Umacron" unicode="&#x16a;" horiz-adv-x="540" 
d="M386 280v410h86v-409c0 -197 -74 -289 -202 -289c-135 0 -202 96 -202 288v410h86v-410c0 -152 35 -210 116 -210s116 58 116 210zM396 768h-251v72h251v-72z" />
    <glyph glyph-name="umacron" unicode="&#x16b;" horiz-adv-x="425" 
d="M293 500h80v-500h-80v49c-20 -37 -44 -57 -99 -57c-95 0 -142 65 -142 196v312h80v-311c0 -93 28 -123 77 -123c52 0 84 45 84 122v312zM322 600h-219v72h219v-72z" />
    <glyph glyph-name="Ubreve" unicode="&#x16c;" horiz-adv-x="540" 
d="M386 280v410h86v-409c0 -197 -74 -289 -202 -289c-135 0 -202 96 -202 288v410h86v-410c0 -152 35 -210 116 -210s116 58 116 210zM344 879h76c0 -97 -57 -151 -149 -151s-150 54 -150 151h76c3 -51 27 -76 74 -76c46 0 70 25 73 76z" />
    <glyph glyph-name="ubreve" unicode="&#x16d;" horiz-adv-x="425" 
d="M293 500h80v-500h-80v49c-20 -37 -44 -57 -99 -57c-95 0 -142 65 -142 196v312h80v-311c0 -93 28 -123 77 -123c52 0 84 45 84 122v312zM273 690h61c-1 -76 -50 -118 -121 -118c-72 0 -121 42 -122 118h63c3 -40 23 -60 59 -60c37 0 57 20 60 60z" />
    <glyph glyph-name="Uring" unicode="&#x16e;" horiz-adv-x="540" 
d="M386 280v410h86v-409c0 -197 -74 -289 -202 -289c-135 0 -202 96 -202 288v410h86v-410c0 -152 35 -210 116 -210s116 58 116 210zM165 800c0 60 44 99 105 99c63 0 106 -39 106 -99c0 -59 -45 -98 -106 -98s-105 39 -105 98zM217 800c0 -31 21 -47 53 -47
c35 0 53 16 53 47s-18 47 -53 47s-53 -16 -53 -47z" />
    <glyph glyph-name="uring" unicode="&#x16f;" horiz-adv-x="425" 
d="M293 500h80v-500h-80v49c-20 -37 -44 -57 -99 -57c-95 0 -142 65 -142 196v312h80v-311c0 -93 28 -123 77 -123c52 0 84 45 84 122v312zM103 646c0 61 49 110 109 110c61 0 110 -49 110 -110c0 -60 -49 -109 -110 -109c-60 0 -109 49 -109 109zM155 646
c0 -31 26 -57 57 -57c32 0 57 26 57 57c0 32 -25 57 -57 57c-31 0 -57 -25 -57 -57z" />
    <glyph glyph-name="Uhungarumlaut" unicode="&#x170;" horiz-adv-x="540" 
d="M386 280v410h86v-409c0 -197 -74 -289 -202 -289c-135 0 -202 96 -202 288v410h86v-410c0 -152 35 -210 116 -210s116 58 116 210zM230 747h-71l64 129h92zM363 747h-71l74 129h93z" />
    <glyph glyph-name="uhungarumlaut" unicode="&#x171;" horiz-adv-x="425" 
d="M293 500h80v-500h-80v49c-20 -37 -44 -57 -99 -57c-95 0 -142 65 -142 196v312h80v-311c0 -93 28 -123 77 -123c52 0 84 45 84 122v312zM185 567h-69l54 158h89zM302 567h-69l74 158h89z" />
    <glyph glyph-name="Uogonek" unicode="&#x172;" horiz-adv-x="540" 
d="M386 280v410h86v-409c0 -173 -55 -269 -164 -286c-26 -20 -39 -41 -39 -63c0 -19 10 -28 31 -28c7 0 12 0 15 1l10 -51c-8 -3 -20 -4 -36 -4c-49 0 -90 24 -90 76c0 25 9 49 27 70c-105 19 -158 114 -158 284v410h86v-410c0 -152 35 -210 116 -210s116 58 116 210z" />
    <glyph glyph-name="uogonek" unicode="&#x173;" horiz-adv-x="425" 
d="M293 500h80v-500c-31 -23 -46 -45 -46 -68c0 -19 10 -28 31 -28c3 0 8 1 15 2l10 -53c-6 -2 -18 -3 -36 -3c-52 0 -90 23 -90 76c0 30 12 56 36 78v45c-20 -37 -44 -57 -99 -57c-95 0 -142 65 -142 196v312h80v-311c0 -93 28 -123 77 -123c52 0 84 45 84 122v312z" />
    <glyph glyph-name="Ydieresis" unicode="&#x178;" horiz-adv-x="449" 
d="M181 296l-165 394h98l110 -290l111 290h98l-166 -394v-296h-86v296zM356 779h-90v90h90v-90zM182 779h-90v90h90v-90z" />
    <glyph glyph-name="Zacute" unicode="&#x179;" horiz-adv-x="419" 
d="M24 612v78h363v-58l-261 -554h269v-78h-371v58l260 554h-260zM236 747h-71l67 129h92z" />
    <glyph glyph-name="zacute" unicode="&#x17a;" horiz-adv-x="364" 
d="M33 0v62l205 366h-205v72h299v-62l-203 -366h203v-72h-299zM211 567h-69l54 158h89z" />
    <glyph glyph-name="Zdotaccent" unicode="&#x17b;" horiz-adv-x="419" 
d="M24 612v78h363v-58l-261 -554h269v-78h-371v58l260 554h-260zM258 779h-90v90h90v-90z" />
    <glyph glyph-name="zdotaccent" unicode="&#x17c;" horiz-adv-x="364" 
d="M33 0v62l205 366h-205v72h299v-62l-203 -366h203v-72h-299zM232 600h-88v90h88v-90z" />
    <glyph glyph-name="Zcaron" unicode="&#x17d;" horiz-adv-x="419" 
d="M24 612v78h363v-58l-261 -554h269v-78h-371v58l260 554h-260zM371 879l-117 -142h-71l-116 142h84l68 -92l68 92h84z" />
    <glyph glyph-name="zcaron" unicode="&#x17e;" horiz-adv-x="364" 
d="M33 0v62l205 366h-205v72h299v-62l-203 -366h203v-72h-299zM330 700l-95 -142h-86l-95 142h77l61 -97l61 97h77z" />
    <glyph glyph-name="uni018F" unicode="&#x18f;" horiz-adv-x="487" 
d="M40 307v40h321v36c0 171 -35 237 -116 237c-68 0 -101 -40 -117 -145h-84c15 149 82 223 201 223c135 0 202 -105 202 -315v-76c0 -210 -67 -315 -202 -315c-129 0 -205 100 -205 315zM361 269h-234c8 -144 45 -199 118 -199s107 56 116 199z" />
    <glyph glyph-name="florin" unicode="&#x192;" 
d="M106 422v78h51v36c0 107 36 154 132 154h18v-78h-15c-45 0 -52 -20 -52 -96v-16h67v-78h-67v-458c0 -105 -43 -154 -147 -154v78c24 0 41 9 49 18c15 20 15 44 15 78v438h-51z" />
    <glyph glyph-name="uni01DD" unicode="&#x1dd;" horiz-adv-x="395" 
d="M106 384l-59 41c25 55 73 83 143 83c113 0 173 -85 173 -226v-66c0 -143 -57 -224 -160 -224c-109 0 -161 69 -161 224v52h241v14c0 103 -31 154 -92 154c-44 0 -62 -15 -85 -52zM283 198h-161c0 -101 22 -134 81 -134s80 42 80 134z" />
    <glyph glyph-name="Scommaaccent" unicode="&#x218;" horiz-adv-x="463" 
d="M413 585l-65 -44c-31 53 -61 79 -122 79c-59 0 -94 -40 -94 -108c0 -73 32 -103 120 -128c112 -32 172 -90 172 -199c0 -33 -6 -63 -17 -91c-23 -55 -84 -102 -172 -102c-91 0 -157 38 -199 113l68 46c40 -57 71 -81 131 -81c69 0 104 37 104 111c0 65 -25 102 -121 129
c-115 31 -172 99 -172 202c0 52 15 96 46 132s76 54 136 54c84 0 146 -38 185 -113zM192 -64h96v-96l-96 -83v179z" />
    <glyph glyph-name="scommaaccent" unicode="&#x219;" horiz-adv-x="378" 
d="M330 425l-58 -42c-21 37 -40 51 -87 51c-45 0 -68 -22 -68 -67s24 -67 80 -79c88 -20 145 -56 145 -149c0 -89 -54 -147 -153 -147c-73 0 -125 27 -157 81l57 46c19 -35 51 -53 95 -53c52 0 78 24 78 71c0 45 -20 64 -89 80c-91 20 -136 70 -136 149c0 84 56 142 145 142
c70 0 119 -28 148 -83zM142 -64h96v-96l-96 -83v179z" />
    <glyph glyph-name="Tcommaaccent" unicode="&#x21a;" horiz-adv-x="417" 
d="M4 612v78h409v-78h-162v-612h-86v612h-161zM160 -64h96v-96l-96 -83v179z" />
    <glyph glyph-name="tcommaaccent" unicode="&#x21b;" horiz-adv-x="259" 
d="M68 428h-51v72h51v110h80v-110h83v-72h-83v-254c0 -76 6 -98 54 -98h29v-76h-35c-96 0 -128 46 -128 154v274zM98 -64h96v-96l-96 -83v179z" />
    <glyph glyph-name="uni0237" unicode="&#x237;" horiz-adv-x="198" 
d="M63 500h80v-536c0 -108 -36 -154 -143 -154v74c24 0 41 10 49 19c5 5 8 12 10 23c4 21 4 30 4 58v516z" />
    <glyph glyph-name="uni0259" unicode="&#x259;" horiz-adv-x="395" 
d="M106 384l-59 41c25 55 73 83 143 83c113 0 173 -85 173 -226v-66c0 -143 -57 -224 -160 -224c-109 0 -161 69 -161 224v52h241v14c0 103 -31 154 -92 154c-44 0 -62 -15 -85 -52zM283 198h-161c0 -101 22 -134 81 -134s80 42 80 134z" />
    <glyph glyph-name="afii57929" unicode="&#x2bc;" horiz-adv-x="130" 
d="M27 500h93v-146l-93 -83v229z" />
    <glyph glyph-name="circumflex" unicode="&#x2c6;" horiz-adv-x="332" 
d="M28 558l95 142h86l95 -142h-77l-61 97l-61 -97h-77z" />
    <glyph glyph-name="caron" unicode="&#x2c7;" horiz-adv-x="332" 
d="M304 700l-95 -142h-86l-95 142h77l61 -97l61 97h77z" />
    <glyph glyph-name="breve" unicode="&#x2d8;" horiz-adv-x="324" 
d="M222 690h61c-1 -76 -50 -118 -121 -118c-72 0 -121 42 -122 118h63c3 -40 23 -60 59 -60c37 0 57 20 60 60z" />
    <glyph glyph-name="dotaccent" unicode="&#x2d9;" horiz-adv-x="245" 
d="M166 600h-88v90h88v-90z" />
    <glyph glyph-name="ring" unicode="&#x2da;" horiz-adv-x="301" 
d="M41 646c0 61 49 110 109 110c61 0 110 -49 110 -110c0 -60 -49 -109 -110 -109c-60 0 -109 49 -109 109zM93 646c0 -31 26 -57 57 -57c32 0 57 26 57 57c0 32 -25 57 -57 57c-31 0 -57 -25 -57 -57z" />
    <glyph glyph-name="ogonek" unicode="&#x2db;" horiz-adv-x="269" 
d="M177 52l10 -52c-31 -23 -46 -45 -46 -68c0 -19 10 -28 31 -28c3 0 8 1 15 2l10 -53c-6 -2 -18 -3 -36 -3c-52 0 -90 23 -90 76s37 89 106 126z" />
    <glyph glyph-name="tilde" unicode="&#x2dc;" horiz-adv-x="337" 
d="M219 589c-13 0 -31 5 -52 14c-21 10 -38 15 -50 15c-19 0 -36 -9 -49 -28l-45 40c26 37 58 55 95 55c13 0 30 -5 51 -15c22 -9 39 -14 52 -14c17 0 33 9 47 28l45 -40c-27 -37 -58 -55 -94 -55z" />
    <glyph glyph-name="hungarumlaut" unicode="&#x2dd;" horiz-adv-x="369" 
d="M113 567h-69l54 158h89zM230 567h-69l74 158h89z" />
    <glyph glyph-name="acutecomb" unicode="&#x301;" horiz-adv-x="0" 
d="M-177 567h-69l54 158h89z" />
    <glyph glyph-name="uni0394" unicode="&#x2206;" horiz-adv-x="428" 
d="M264 690l149 -690h-398l148 690h101zM120 78h187l-93 497z" />
    <glyph glyph-name="uni0394" unicode="&#x394;" horiz-adv-x="428" 
d="M264 690l149 -690h-398l148 690h101zM120 78h187l-93 497z" />
    <glyph glyph-name="uni03A9" unicode="&#x2126;" horiz-adv-x="500" 
d="M401 78h51v-78h-147v78c19 19 34 44 45 76s16 84 16 155v74c0 171 -33 237 -116 237s-116 -66 -116 -237v-74c0 -71 5 -123 16 -155s26 -57 45 -76v-78h-147v78h51c-34 53 -51 130 -51 231v74c0 210 67 315 202 315s202 -105 202 -315v-74c0 -101 -17 -178 -51 -231z" />
    <glyph glyph-name="uni03A9" unicode="&#x3a9;" horiz-adv-x="500" 
d="M401 78h51v-78h-147v78c19 19 34 44 45 76s16 84 16 155v74c0 171 -33 237 -116 237s-116 -66 -116 -237v-74c0 -71 5 -123 16 -155s26 -57 45 -76v-78h-147v78h51c-34 53 -51 130 -51 231v74c0 210 67 315 202 315s202 -105 202 -315v-74c0 -101 -17 -178 -51 -231z" />
    <glyph glyph-name="pi" unicode="&#x3c0;" horiz-adv-x="459" 
d="M296 154v274h-161v-428h-80v428h-65v72h450v-72h-64v-254c0 -28 0 -37 4 -58c6 -29 21 -39 60 -42v-74c-108 0 -144 46 -144 154z" />
    <glyph glyph-name="afii10023" unicode="&#x401;" horiz-adv-x="437" 
d="M68 0v690h337v-78h-251v-216h227v-78h-227v-240h251v-78h-337zM368 779h-90v90h90v-90zM194 779h-90v90h90v-90z" />
    <glyph glyph-name="afii10051" unicode="&#x402;" horiz-adv-x="591" 
d="M4 612v78h408v-78h-161v-225c32 30 74 45 125 45c131 0 180 -71 180 -238v-27c0 -127 -49 -167 -133 -167h-27v78h27c36 0 47 29 47 93v23c0 120 -31 160 -110 160c-50 0 -86 -20 -109 -60v-294h-86v612h-161z" />
    <glyph glyph-name="afii10052" unicode="&#x403;" horiz-adv-x="389" 
d="M68 690h321v-78h-235v-612h-86v690zM257 747h-71l67 129h92z" />
    <glyph glyph-name="afii10053" unicode="&#x404;" horiz-adv-x="466" 
d="M126 386h193v-78h-193v-1c0 -172 33 -237 116 -237c67 0 100 42 119 145h80c-16 -149 -82 -223 -199 -223c-135 0 -202 105 -202 315v76c0 210 67 315 202 315c115 0 182 -74 200 -223h-81c-20 107 -54 145 -119 145c-80 0 -115 -65 -116 -234z" />
    <glyph glyph-name="afii10054" unicode="&#x405;" horiz-adv-x="463" 
d="M413 585l-65 -44c-31 53 -61 79 -122 79c-59 0 -94 -40 -94 -108c0 -73 32 -103 120 -128c112 -32 172 -90 172 -199c0 -33 -6 -63 -17 -91c-23 -55 -84 -102 -172 -102c-91 0 -157 38 -199 113l68 46c40 -57 71 -81 131 -81c69 0 104 37 104 111c0 65 -25 102 -121 129
c-115 31 -172 99 -172 202c0 52 15 96 46 132s76 54 136 54c84 0 146 -38 185 -113z" />
    <glyph glyph-name="afii10055" unicode="&#x406;" horiz-adv-x="238" 
d="M76 690h86v-690h-86v690zM159 779h-90v90h90v-90z" />
    <glyph glyph-name="afii10056" unicode="&#x407;" horiz-adv-x="238" 
d="M76 690h86v-690h-86v690zM251 779h-90v90h90v-90zM77 779h-90v90h90v-90z" />
    <glyph glyph-name="afii10057" unicode="&#x408;" horiz-adv-x="408" 
d="M4 78l71 44c18 -35 44 -52 77 -52c37 0 63 15 78 46c16 31 24 87 24 168v406h86v-406c0 -207 -65 -292 -188 -292c-70 0 -119 29 -148 86z" />
    <glyph glyph-name="afii10058" unicode="&#x409;" horiz-adv-x="777" 
d="M115 530v160h335v-273h104c65 0 113 -21 144 -62s47 -90 47 -147s-16 -106 -47 -147s-79 -61 -144 -61h-190v612h-163v-82c0 -206 -9 -339 -28 -400c-25 -83 -69 -115 -157 -138v97c38 11 63 37 75 78c16 55 24 176 24 363zM554 339h-104v-261h104c70 0 105 43 105 130
s-35 131 -105 131z" />
    <glyph glyph-name="afii10059" unicode="&#x40a;" horiz-adv-x="773" 
d="M68 690h86v-294h206v294h86v-273h104c65 0 113 -21 144 -62s47 -90 47 -147s-16 -106 -47 -147s-79 -61 -144 -61h-190v318h-206v-318h-86v690zM550 339h-104v-261h104c70 0 105 43 105 130s-35 131 -105 131z" />
    <glyph glyph-name="afii10060" unicode="&#x40b;" horiz-adv-x="591" 
d="M4 612v78h408v-78h-161v-225c32 30 74 45 125 45c131 0 180 -71 180 -238v-194h-86v194c0 120 -31 160 -112 160c-47 0 -87 -25 -107 -60v-294h-86v612h-161z" />
    <glyph glyph-name="afii10061" unicode="&#x40c;" horiz-adv-x="486" 
d="M289 350l189 -350h-97l-163 308h-64v-308h-86v690h86v-304h65l138 304h88zM266 747h-71l67 129h92z" />
    <glyph glyph-name="afii10062" unicode="&#x40e;" horiz-adv-x="469" 
d="M246 274l122 416h90l-182 -574c-15 -48 -35 -81 -58 -98s-60 -26 -110 -26v79c29 0 50 5 62 14c12 10 23 33 32 70l-182 535h95zM311 879h82c0 -95 -49 -142 -146 -142s-146 47 -146 142h82c0 -53 21 -80 64 -80s64 27 64 80z" />
    <glyph glyph-name="afii10145" unicode="&#x40f;" horiz-adv-x="514" 
d="M300 0v-130h-86v130h-146v690h86v-612h206v612h86v-690h-146z" />
    <glyph glyph-name="afii10017" unicode="&#x410;" horiz-adv-x="477" 
d="M137 158l-39 -158h-90l192 690h76l193 -690h-90l-39 158h-203zM314 236l-76 308l-76 -308h152z" />
    <glyph glyph-name="afii10018" unicode="&#x411;" horiz-adv-x="481" 
d="M68 690h346v-78h-260v-195h104c65 0 113 -21 144 -62s47 -90 47 -147s-16 -106 -47 -147s-79 -61 -144 -61h-190v690zM258 339h-104v-261h104c70 0 105 43 105 130s-35 131 -105 131z" />
    <glyph glyph-name="afii10019" unicode="&#x412;" horiz-adv-x="483" 
d="M68 0v690h171c129 0 194 -59 194 -176c0 -72 -38 -138 -91 -154c69 -16 109 -74 109 -162c0 -56 -16 -103 -48 -141c-31 -38 -80 -57 -147 -57h-188zM244 319h-90v-241h102c73 0 109 40 109 120c0 84 -37 121 -121 121zM239 613h-85v-216h96c65 0 97 39 97 117
c0 67 -24 99 -108 99z" />
    <glyph glyph-name="afii10020" unicode="&#x413;" horiz-adv-x="389" 
d="M68 690h321v-78h-235v-612h-86v690z" />
    <glyph glyph-name="afii10021" unicode="&#x414;" horiz-adv-x="537" 
d="M94 0v-130h-86v208h23c23 17 42 56 58 119c17 68 26 180 26 335v158h339v-612h67v-208h-86v130h-341zM172 171c-10 -37 -22 -68 -35 -93h232v534h-168v-80c0 -170 -10 -290 -29 -361z" />
    <glyph glyph-name="afii10022" unicode="&#x415;" horiz-adv-x="437" 
d="M68 0v690h337v-78h-251v-216h227v-78h-227v-240h251v-78h-337z" />
    <glyph glyph-name="afii10024" unicode="&#x416;" horiz-adv-x="698" 
d="M236 308l-133 -308h-95l154 349l-121 341h86l106 -304h73v304h86v-304h72l107 304h86l-122 -341l155 -349h-95l-132 308h-71v-308h-86v308h-70z" />
    <glyph glyph-name="afii10025" unicode="&#x417;" horiz-adv-x="452" 
d="M214 319h-41v78h50c64 0 96 39 96 118c0 71 -29 106 -86 106c-61 0 -93 -32 -109 -107h-79c19 123 92 184 188 184c109 0 172 -67 172 -183c0 -69 -29 -120 -87 -152c60 -23 102 -86 102 -166c0 -57 -15 -105 -46 -145s-78 -60 -142 -60c-108 0 -175 59 -199 196h84
c20 -81 51 -118 116 -118c68 0 102 48 102 127c0 81 -40 122 -121 122z" />
    <glyph glyph-name="afii10026" unicode="&#x418;" horiz-adv-x="533" 
d="M68 0v690h86v-491l236 491h75v-690h-86v486l-234 -486h-77z" />
    <glyph glyph-name="afii10027" unicode="&#x419;" horiz-adv-x="533" 
d="M68 0v690h86v-491l236 491h75v-690h-86v486l-234 -486h-77zM337 879h82c0 -95 -49 -142 -146 -142s-146 47 -146 142h82c0 -53 21 -80 64 -80s64 27 64 80z" />
    <glyph glyph-name="afii10028" unicode="&#x41a;" horiz-adv-x="486" 
d="M289 350l189 -350h-97l-163 308h-64v-308h-86v690h86v-304h65l138 304h88z" />
    <glyph glyph-name="afii10029" unicode="&#x41b;" horiz-adv-x="518" 
d="M115 530v160h335v-690h-86v612h-163v-82c0 -206 -9 -339 -28 -400c-25 -83 -69 -115 -157 -138v97c38 11 63 37 75 78c16 55 24 176 24 363z" />
    <glyph glyph-name="afii10030" unicode="&#x41c;" horiz-adv-x="614" 
d="M68 690h86l153 -417l152 417h87v-690h-86v463l-119 -319h-71l-116 319v-463h-86v690z" />
    <glyph glyph-name="afii10031" unicode="&#x41d;" horiz-adv-x="514" 
d="M68 690h86v-294h206v294h86v-690h-86v318h-206v-318h-86v690z" />
    <glyph glyph-name="afii10032" unicode="&#x41e;" horiz-adv-x="484" 
d="M444 383v-76c0 -210 -67 -315 -202 -315s-202 105 -202 315v76c0 210 67 315 202 315s202 -105 202 -315zM126 383v-76c0 -173 33 -237 116 -237s116 64 116 237v76c0 173 -33 237 -116 237s-116 -64 -116 -237z" />
    <glyph glyph-name="afii10033" unicode="&#x41f;" horiz-adv-x="514" 
d="M68 0v690h378v-690h-86v612h-206v-612h-86z" />
    <glyph glyph-name="afii10034" unicode="&#x420;" horiz-adv-x="474" 
d="M248 263h-94v-263h-86v690h180c127 0 201 -79 201 -214c0 -133 -73 -213 -201 -213zM154 612v-271h94c84 0 115 46 115 135c0 91 -31 136 -115 136h-94z" />
    <glyph glyph-name="afii10035" unicode="&#x421;" horiz-adv-x="466" 
d="M442 475h-81c-20 107 -54 145 -119 145c-81 0 -116 -65 -116 -237v-76c0 -172 33 -237 116 -237c67 0 100 42 119 145h80c-16 -149 -82 -223 -199 -223c-135 0 -202 105 -202 315v76c0 210 67 315 202 315c115 0 182 -74 200 -223z" />
    <glyph glyph-name="afii10036" unicode="&#x422;" horiz-adv-x="417" 
d="M4 612v78h409v-78h-162v-612h-86v612h-161z" />
    <glyph glyph-name="afii10037" unicode="&#x423;" horiz-adv-x="469" 
d="M246 274l122 416h90l-182 -574c-15 -48 -35 -81 -58 -98s-60 -26 -110 -26v79c29 0 50 5 62 14c12 10 23 33 32 70l-182 535h95z" />
    <glyph glyph-name="afii10038" unicode="&#x424;" horiz-adv-x="601" 
d="M258 636v54h85v-54c145 0 218 -92 218 -275v-32c0 -183 -73 -275 -218 -275v-54h-85v54c-145 0 -218 92 -218 275v32c0 183 73 275 218 275zM343 558v-426c44 0 77 14 99 41c22 28 33 80 33 156v32c0 75 -11 127 -34 155c-22 28 -55 42 -98 42zM258 132v426
c-43 0 -76 -14 -99 -42c-22 -28 -33 -80 -33 -155v-32c0 -76 11 -128 33 -156c22 -27 55 -41 99 -41z" />
    <glyph glyph-name="afii10039" unicode="&#x425;" horiz-adv-x="447" 
d="M223 268l-114 -268h-93l158 356l-140 334h93l96 -253l97 253h93l-141 -334l159 -356h-93z" />
    <glyph glyph-name="afii10040" unicode="&#x426;" horiz-adv-x="525" 
d="M68 690h86v-612h211v612h85v-612h67v-208h-86v130h-363v690z" />
    <glyph glyph-name="afii10041" unicode="&#x427;" horiz-adv-x="476" 
d="M28 690h86v-194c0 -61 8 -103 23 -126s45 -34 88 -34c56 0 89 21 98 48v306h85v-690h-85v291c-25 -22 -62 -33 -112 -33c-70 0 -118 18 -144 55s-39 98 -39 183v194z" />
    <glyph glyph-name="afii10042" unicode="&#x428;" horiz-adv-x="705" 
d="M68 690h86v-612h156v612h86v-612h156v612h85v-690h-569v690z" />
    <glyph glyph-name="afii10043" unicode="&#x429;" horiz-adv-x="712" 
d="M68 690h86v-612h156v612h86v-612h156v612h85v-612h67v-208h-86v130h-550v690z" />
    <glyph glyph-name="afii10044" unicode="&#x42a;" horiz-adv-x="517" 
d="M-16 612v78h206v-273h105c45 0 82 -11 111 -33c60 -43 79 -104 79 -176c3 -102 -52 -206 -190 -208h-191v612h-120zM295 339h-105v-261h105c69 0 104 43 104 130s-35 131 -104 131z" />
    <glyph glyph-name="afii10045" unicode="&#x42b;" horiz-adv-x="642" 
d="M68 0v690h86v-273h80c65 0 113 -21 144 -62s47 -90 47 -147s-16 -106 -47 -147s-79 -61 -144 -61h-166zM234 339h-80v-261h80c70 0 105 43 105 130s-35 131 -105 131zM488 690h86v-690h-86v690z" />
    <glyph glyph-name="afii10046" unicode="&#x42c;" horiz-adv-x="481" 
d="M68 0v690h86v-273h104c65 0 113 -21 144 -62s47 -90 47 -147s-16 -106 -47 -147s-79 -61 -144 -61h-190zM258 339h-104v-261h104c70 0 105 43 105 130s-35 131 -105 131z" />
    <glyph glyph-name="afii10047" unicode="&#x42d;" horiz-adv-x="466" 
d="M147 308v78h193c-1 169 -36 234 -116 234c-65 0 -99 -38 -119 -145h-81c18 149 85 223 200 223c135 0 202 -105 202 -315v-76c0 -210 -67 -315 -202 -315c-117 0 -183 74 -199 223h80c19 -103 52 -145 119 -145c83 0 116 65 116 237v1h-193z" />
    <glyph glyph-name="afii10048" unicode="&#x42e;" horiz-adv-x="634" 
d="M594 383v-76c0 -210 -62 -315 -185 -315s-185 105 -185 315v11h-70v-318h-86v690h86v-294h70c5 209 66 302 185 302c123 0 185 -105 185 -315zM310 383v-76c0 -172 26 -237 99 -237s99 65 99 237v76c0 172 -26 237 -99 237s-99 -65 -99 -237z" />
    <glyph glyph-name="afii10049" unicode="&#x42f;" horiz-adv-x="489" 
d="M239 291l-131 -291h-92l141 303c-78 25 -117 88 -117 187c0 132 72 200 203 200h178v-690h-86v291h-96zM243 369h92v243h-92c-87 0 -117 -34 -117 -122c0 -87 30 -121 117 -121z" />
    <glyph glyph-name="afii10065" unicode="&#x430;" horiz-adv-x="399" 
d="M32 146c0 95 52 143 156 143h79v58c0 68 -18 87 -77 87c-49 0 -67 -8 -87 -48l-61 39c28 59 70 83 149 83c107 0 156 -45 156 -161v-347h-80v49c-16 -37 -41 -57 -93 -57c-92 0 -142 57 -142 154zM267 192v29h-74c-57 0 -81 -25 -81 -77s25 -78 75 -78c26 0 46 8 59 25
c14 17 21 50 21 101z" />
    <glyph glyph-name="afii10066" unicode="&#x431;" horiz-adv-x="402" 
d="M322 716l28 -68c-15 -16 -36 -25 -64 -28l-69 -6c-45 -4 -64 -24 -79 -57c-9 -23 -16 -59 -21 -108c23 39 56 59 99 59c92 0 153 -83 153 -224v-66c0 -137 -56 -226 -169 -226c-109 0 -168 85 -168 226v64c0 147 12 250 35 308c24 59 68 92 132 99l79 8c15 1 30 8 44 19z
M200 64c59 0 89 51 89 154v66c0 109 -29 152 -89 152s-88 -45 -88 -152v-66c0 -103 29 -154 88 -154z" />
    <glyph glyph-name="afii10067" unicode="&#x432;" horiz-adv-x="399" 
d="M52 0v500h154c88 0 142 -46 142 -130c0 -43 -20 -79 -48 -98c40 -17 71 -66 71 -129c0 -80 -48 -143 -144 -143h-175zM200 226h-68v-154h77c53 0 79 26 79 78c0 56 -25 76 -88 76zM185 428h-53v-130h62c47 0 71 22 71 66c0 41 -21 64 -80 64z" />
    <glyph glyph-name="afii10068" unicode="&#x433;" horiz-adv-x="291" 
d="M52 500h247v-72h-167v-428h-80v500z" />
    <glyph glyph-name="afii10069" unicode="&#x434;" horiz-adv-x="434" 
d="M94 0v-117h-80v189h30c9 8 20 30 32 66c12 37 18 116 18 237v125h268v-428h56v-189h-80v117h-244zM143 90l-6 -18h145v356h-110v-67c0 -129 -10 -219 -29 -271z" />
    <glyph glyph-name="afii10070" unicode="&#x435;" horiz-adv-x="395" 
d="M289 116l59 -41c-25 -55 -73 -83 -143 -83c-113 0 -173 85 -173 226v66c0 143 57 224 160 224c109 0 161 -69 161 -224v-52h-241v-14c0 -103 31 -154 92 -154c44 0 62 15 85 52zM112 302h161c0 101 -22 134 -81 134s-80 -42 -80 -134z" />
    <glyph glyph-name="afii10072" unicode="&#x436;" horiz-adv-x="540" 
d="M357 286l77 214h81l-91 -243l108 -257h-91l-83 216h-48v-216h-80v216h-51l-82 -216h-89l108 257l-92 243h84l76 -214h46v214h80v-214h47z" />
    <glyph glyph-name="afii10073" unicode="&#x437;" horiz-adv-x="365" 
d="M147 226h-30v72h33c51 0 81 26 81 73c0 39 -23 65 -66 65c-36 0 -55 -14 -79 -51l-60 45c29 52 77 78 144 78c84 0 141 -54 141 -127c0 -53 -21 -90 -62 -113c45 -17 77 -63 77 -127c0 -41 -13 -76 -39 -105c-25 -29 -63 -44 -113 -44c-77 0 -128 28 -155 84l57 44
c14 -28 34 -52 95 -56c47 0 75 29 75 82s-33 80 -99 80z" />
    <glyph glyph-name="afii10074" unicode="&#x438;" horiz-adv-x="437" 
d="M52 500h80v-342l176 342h77v-500h-80v349l-178 -349h-75v500z" />
    <glyph glyph-name="afii10075" unicode="&#x439;" horiz-adv-x="437" 
d="M52 500h80v-342l176 342h77v-500h-80v349l-178 -349h-75v500zM278 690h75c0 -76 -54 -118 -131 -118c-79 0 -132 42 -132 118h76c0 -40 19 -60 56 -60s56 20 56 60z" />
    <glyph glyph-name="afii10076" unicode="&#x43a;" horiz-adv-x="377" 
d="M175 286l96 214h86l-112 -242l124 -258h-89l-100 216h-48v-216h-80v500h80v-214h43z" />
    <glyph glyph-name="afii10077" unicode="&#x43b;" horiz-adv-x="412" 
d="M85 299v201h275v-500h-80v428h-115v-157c0 -82 -7 -143 -21 -183c-21 -61 -63 -94 -128 -100v80c28 10 47 33 57 69c8 29 12 83 12 162z" />
    <glyph glyph-name="afii10078" unicode="&#x43c;" horiz-adv-x="517" 
d="M52 500h78l128 -288l129 288h78v-500h-80v320l-100 -225h-61l-92 222v-317h-80v500z" />
    <glyph glyph-name="afii10079" unicode="&#x43d;" horiz-adv-x="425" 
d="M52 500h80v-210h161v210h80v-500h-80v218h-161v-218h-80v500z" />
    <glyph glyph-name="afii10080" unicode="&#x43e;" horiz-adv-x="401" 
d="M369 284v-66c0 -144 -61 -226 -169 -226s-168 82 -168 226v66c0 143 60 224 168 224s169 -81 169 -224zM200 64c59 0 89 51 89 154v66c0 100 -24 152 -89 152s-88 -51 -88 -152v-66c0 -103 29 -154 88 -154z" />
    <glyph glyph-name="afii10081" unicode="&#x43f;" horiz-adv-x="425" 
d="M52 0v500h321v-500h-80v428h-161v-428h-80z" />
    <glyph glyph-name="afii10082" unicode="&#x440;" horiz-adv-x="423" 
d="M52 500h80v-50c21 39 55 58 102 58c96 0 157 -83 157 -224v-66c0 -136 -54 -226 -157 -226c-47 0 -81 17 -102 52v-234h-80v690zM221 64c60 0 90 63 90 154v66c0 96 -31 152 -90 152c-55 0 -89 -56 -89 -145v-73c0 -103 30 -154 89 -154z" />
    <glyph glyph-name="afii10083" unicode="&#x441;" horiz-adv-x="360" 
d="M289 116l59 -41c-23 -55 -70 -83 -141 -83c-117 0 -175 83 -175 226v66c0 141 66 224 175 224c65 0 112 -26 141 -77l-61 -42c-19 31 -46 47 -80 47c-63 0 -95 -56 -95 -152v-66c0 -103 32 -154 95 -154c35 0 63 17 82 52z" />
    <glyph glyph-name="afii10084" unicode="&#x442;" horiz-adv-x="329" 
d="M0 428v72h329v-72h-125v-428h-80v428h-124z" />
    <glyph glyph-name="afii10085" unicode="&#x443;" horiz-adv-x="382" 
d="M155 -19l4 14l-155 505h86l93 -322l15 -53l93 375h83l-138 -516c-18 -66 -38 -111 -61 -136c-22 -25 -61 -38 -117 -38v78c52 0 76 17 97 93z" />
    <glyph glyph-name="afii10086" unicode="&#x444;" horiz-adv-x="526" 
d="M223 690h80v-182c125 0 191 -77 191 -224v-66c0 -144 -66 -226 -191 -226v-182h-80v182c-125 0 -191 82 -191 226v66c0 147 66 224 191 224v182zM414 218v66c0 103 -34 152 -111 152v-372c83 0 111 54 111 154zM112 284v-66c0 -100 28 -154 111 -154v372
c-77 0 -111 -49 -111 -152z" />
    <glyph glyph-name="afii10087" unicode="&#x445;" horiz-adv-x="396" 
d="M246 256l142 -256h-90l-100 184l-100 -184h-90l143 255l-125 245h90l82 -175l82 175h90z" />
    <glyph glyph-name="afii10088" unicode="&#x446;" horiz-adv-x="445" 
d="M429 72v-189h-80v117h-297v500h80v-428h161v428h80v-428h56z" />
    <glyph glyph-name="afii10089" unicode="&#x447;" horiz-adv-x="389" 
d="M36 500h80v-120c0 -92 24 -119 73 -119c32 0 55 11 69 34v205h79v-500h-79v213c-18 -18 -44 -27 -79 -27c-93 0 -143 51 -143 194v120z" />
    <glyph glyph-name="afii10090" unicode="&#x448;" horiz-adv-x="584" 
d="M532 500v-500h-480v500h80v-428h120v428h80v-428h120v428h80z" />
    <glyph glyph-name="afii10091" unicode="&#x449;" horiz-adv-x="604" 
d="M588 72v-189h-80v117h-456v500h80v-428h120v428h80v-428h120v428h80v-428h56z" />
    <glyph glyph-name="afii10092" unicode="&#x44a;" horiz-adv-x="431" 
d="M-16 428v72h184v-192h70c115 0 173 -50 173 -151c0 -95 -48 -157 -145 -157h-177v428h-105zM235 236h-67v-164h79c54 0 81 29 81 86c0 55 -26 78 -93 78z" />
    <glyph glyph-name="afii10093" unicode="&#x44b;" horiz-adv-x="523" 
d="M52 0v500h80v-192h52c109 0 164 -50 164 -151c0 -95 -47 -157 -144 -157h-152zM397 0v500h74v-500h-74zM181 236h-49v-164h53c53 0 80 29 80 86c0 56 -24 78 -84 78z" />
    <glyph glyph-name="afii10094" unicode="&#x44c;" horiz-adv-x="391" 
d="M52 0v500h80v-192h67c115 0 172 -50 172 -151c0 -95 -47 -157 -144 -157h-175zM196 236h-64v-164h76c53 0 80 29 80 86c0 55 -27 78 -92 78z" />
    <glyph glyph-name="afii10095" unicode="&#x44d;" horiz-adv-x="372" 
d="M260 218h-144v72h144c-3 92 -34 146 -95 146c-34 0 -61 -16 -80 -47l-61 42c29 51 76 77 141 77c109 0 175 -83 175 -224v-66c0 -143 -58 -226 -175 -226c-71 0 -118 28 -141 83l59 41c19 -35 47 -52 82 -52c63 0 95 51 95 154z" />
    <glyph glyph-name="afii10096" unicode="&#x44e;" horiz-adv-x="538" 
d="M506 284v-66c0 -151 -52 -226 -156 -226c-100 0 -155 85 -155 226h-63v-218h-80v500h80v-210h63c0 136 59 218 155 218c103 0 156 -80 156 -224zM350 64c56 0 76 49 76 154v66c0 104 -20 152 -76 152c-55 0 -76 -49 -76 -152v-66c0 -105 21 -154 76 -154z" />
    <glyph glyph-name="afii10097" unicode="&#x44f;" horiz-adv-x="404" 
d="M352 500v-500h-80v192h-60l-96 -192h-88l105 203c-61 23 -91 72 -91 149c0 41 12 76 36 105c25 29 64 43 117 43h157zM217 264h55v164h-67c-55 0 -83 -25 -83 -76c0 -59 32 -88 95 -88z" />
    <glyph glyph-name="afii10071" unicode="&#x451;" horiz-adv-x="395" 
d="M289 116l59 -41c-25 -55 -73 -83 -143 -83c-113 0 -173 85 -173 226v66c0 143 57 224 160 224c109 0 161 -69 161 -224v-52h-241v-14c0 -103 31 -154 92 -154c44 0 62 15 85 52zM112 302h161c0 101 -22 134 -81 134s-80 -42 -80 -134zM162 600h-88v90h88v-90zM316 600
h-88v90h88v-90z" />
    <glyph glyph-name="afii10099" unicode="&#x452;" horiz-adv-x="425" 
d="M293 -44v355c0 93 -28 123 -77 123c-56 0 -84 -41 -84 -122v-312h-80v558h-75v72h75v60h81v-60h129v-72h-129v-107c19 38 52 57 98 57c87 0 142 -63 142 -196v-356c0 -105 -41 -146 -132 -146v72h12c27 0 40 25 40 74z" />
    <glyph glyph-name="afii10100" unicode="&#x453;" horiz-adv-x="291" 
d="M52 500h247v-72h-167v-428h-80v500zM193 567h-69l54 158h89z" />
    <glyph glyph-name="afii10101" unicode="&#x454;" horiz-adv-x="372" 
d="M281 116l59 -41c-23 -55 -70 -83 -141 -83c-117 0 -175 83 -175 226v66c0 141 66 224 175 224c65 0 112 -26 141 -77l-61 -42c-19 31 -46 47 -80 47c-61 0 -94 -54 -95 -146h144v-72h-144c0 -103 32 -154 95 -154c35 0 63 17 82 52z" />
    <glyph glyph-name="afii10102" unicode="&#x455;" horiz-adv-x="378" 
d="M330 425l-58 -42c-21 37 -40 51 -87 51c-45 0 -68 -22 -68 -67s24 -67 80 -79c88 -20 145 -56 145 -149c0 -89 -54 -147 -153 -147c-73 0 -125 27 -157 81l57 46c19 -35 51 -53 95 -53c52 0 78 24 78 71c0 45 -20 64 -89 80c-91 20 -136 70 -136 149c0 84 56 142 145 142
c70 0 119 -28 148 -83z" />
    <glyph glyph-name="afii10103" unicode="&#x456;" horiz-adv-x="208" 
d="M144 0h-80v500h80v-500zM148 600h-88v90h88v-90z" />
    <glyph glyph-name="afii10104" unicode="&#x457;" horiz-adv-x="208" 
d="M60 600h-81v90h81v-90zM230 600h-84v90h84v-90zM144 0h-80v500h80v-500z" />
    <glyph glyph-name="afii10105" unicode="&#x458;" horiz-adv-x="198" 
d="M63 500h80v-536c0 -108 -36 -154 -143 -154v74c24 0 41 10 49 19c5 5 8 12 10 23c4 21 4 30 4 58v516zM146 600h-88v90h88v-90z" />
    <glyph glyph-name="afii10106" unicode="&#x459;" horiz-adv-x="619" 
d="M85 299v201h275v-192h67c115 0 172 -50 172 -151c0 -95 -47 -157 -144 -157h-175v428h-115v-157c0 -82 -7 -143 -21 -183c-21 -61 -63 -94 -128 -100v80c28 10 47 33 57 69c8 29 12 83 12 162zM424 236h-64v-164h76c53 0 80 29 80 86c0 55 -27 78 -92 78z" />
    <glyph glyph-name="afii10107" unicode="&#x45a;" horiz-adv-x="632" 
d="M52 500h80v-210h161v210h80v-192h67c115 0 172 -50 172 -151c0 -95 -47 -157 -144 -157h-175v218h-161v-218h-80v500zM437 236h-64v-164h76c53 0 80 29 80 86c0 55 -27 78 -92 78z" />
    <glyph glyph-name="afii10108" unicode="&#x45b;" horiz-adv-x="425" 
d="M52 558h-75v72h75v60h81v-60h129v-72h-129v-107c19 38 52 57 98 57c87 0 142 -63 142 -196v-312h-80v311c0 93 -28 123 -77 123c-56 0 -84 -41 -84 -122v-312h-80v558z" />
    <glyph glyph-name="afii10109" unicode="&#x45c;" horiz-adv-x="377" 
d="M175 286l96 214h86l-112 -242l124 -258h-89l-100 216h-48v-216h-80v500h80v-214h43zM224 567h-69l54 158h89z" />
    <glyph glyph-name="afii10110" unicode="&#x45e;" horiz-adv-x="382" 
d="M155 -19l4 14l-155 505h86l93 -322l15 -53l93 375h83l-138 -516c-18 -66 -38 -111 -61 -136c-22 -25 -61 -38 -117 -38v78c52 0 76 17 97 93zM250 690h75c0 -76 -54 -118 -131 -118c-79 0 -132 42 -132 118h76c0 -40 19 -60 56 -60s56 20 56 60z" />
    <glyph glyph-name="afii10193" unicode="&#x45f;" horiz-adv-x="425" 
d="M252 0v-117h-79v117h-121v500h80v-428h161v428h80v-500h-121z" />
    <glyph glyph-name="afii10146" unicode="&#x462;" horiz-adv-x="479" 
d="M66 528h-74v78h74v84h86v-84h135v-78h-135v-111h104c65 0 113 -21 144 -62s47 -90 47 -147s-16 -106 -47 -147s-79 -61 -144 -61h-190v528zM256 339h-104v-261h104c70 0 105 43 105 130s-35 131 -105 131z" />
    <glyph glyph-name="afii10194" unicode="&#x463;" horiz-adv-x="391" 
d="M52 428h-75v72h75v190h80v-190h126v-72h-126v-120h67c115 0 172 -50 172 -151c0 -95 -47 -157 -144 -157h-175v428zM196 236h-64v-164h76c53 0 80 29 80 86c0 55 -27 78 -92 78z" />
    <glyph glyph-name="afii10147" unicode="&#x472;" horiz-adv-x="484" 
d="M444 383v-76c0 -210 -67 -315 -202 -315s-202 105 -202 315v76c0 210 67 315 202 315s202 -105 202 -315zM358 307v11h-232v-11c0 -173 33 -237 116 -237s116 64 116 237zM126 396h232c-1 163 -35 224 -116 224s-115 -61 -116 -224z" />
    <glyph glyph-name="afii10195" unicode="&#x473;" horiz-adv-x="401" 
d="M369 284v-66c0 -144 -61 -226 -169 -226s-168 82 -168 226v66c0 143 60 224 168 224s169 -81 169 -224zM200 64c59 0 89 51 89 154h-177c0 -103 29 -154 88 -154zM112 290h177c-1 96 -25 146 -89 146s-87 -49 -88 -146z" />
    <glyph glyph-name="afii10148" unicode="&#x474;" horiz-adv-x="491" 
d="M208 0l-200 690h91l146 -541l114 420c25 89 66 129 154 129v-78c-41 0 -57 -20 -73 -73l-157 -547h-75z" />
    <glyph glyph-name="afii10196" unicode="&#x475;" horiz-adv-x="413" 
d="M421 508v-72c-33 0 -42 -15 -57 -63l-114 -373h-85l-157 500h86l112 -386l90 305c20 68 49 89 125 89z" />
    <glyph glyph-name="afii10050" unicode="&#x490;" horiz-adv-x="389" 
d="M68 690h235v108h86v-186h-235v-612h-86v690z" />
    <glyph glyph-name="afii10098" unicode="&#x491;" horiz-adv-x="291" 
d="M52 500h167v93h80v-165h-167v-428h-80v500z" />
    <glyph glyph-name="uni0492" unicode="&#x492;" horiz-adv-x="393" 
d="M72 690h321v-78h-235v-216h133v-78h-133v-318h-86v318h-80v78h80v294z" />
    <glyph glyph-name="uni0493" unicode="&#x493;" horiz-adv-x="310" 
d="M71 500h247v-72h-167v-138h91v-72h-91v-218h-80v218h-79v72h79v210z" />
    <glyph glyph-name="uni0496" unicode="&#x496;" horiz-adv-x="718" 
d="M236 308l-133 -308h-95l154 349l-121 341h86l106 -304h73v304h86v-304h72l107 304h86l-122 -341l120 -271h55v-208h-86v130h-29l-132 308h-71v-308h-86v308h-70z" />
    <glyph glyph-name="uni0497" unicode="&#x497;" horiz-adv-x="559" 
d="M357 286l77 214h81l-91 -243l73 -185h54v-189h-80v117h-30l-83 216h-48v-216h-80v216h-50l-83 -216h-89l108 257l-92 243h84l76 -214h46v214h80v-214h47z" />
    <glyph glyph-name="uni0498" unicode="&#x498;" horiz-adv-x="452" 
d="M272 -130h-79v125c-87 13 -141 78 -160 193h84c20 -81 51 -118 116 -118c68 0 102 48 102 127c0 81 -40 122 -121 122h-41v78h50c64 0 96 39 96 118c0 71 -29 106 -86 106c-61 0 -93 -32 -109 -107h-79c19 123 92 184 188 184c109 0 172 -67 172 -183
c0 -69 -29 -120 -87 -152c60 -23 102 -86 102 -166c0 -100 -48 -185 -148 -202v-125z" />
    <glyph glyph-name="uni0499" unicode="&#x499;" horiz-adv-x="365" 
d="M216 -117h-80v112c-57 7 -96 34 -117 81l57 44c14 -28 34 -52 95 -56c47 0 75 29 75 82s-33 80 -99 80h-30v72h33c51 0 81 26 81 73c0 39 -23 65 -66 65c-36 0 -55 -14 -79 -51l-60 45c29 52 77 78 144 78c84 0 141 -54 141 -127c0 -53 -21 -90 -62 -113
c45 -17 77 -63 77 -127c0 -69 -37 -129 -110 -144v-114z" />
    <glyph glyph-name="uni049A" unicode="&#x49a;" horiz-adv-x="496" 
d="M402 -130v130h-21l-163 308h-64v-308h-86v690h86v-304h65l138 304h88l-156 -340l147 -272h52v-208h-86z" />
    <glyph glyph-name="uni049B" unicode="&#x49b;" horiz-adv-x="390" 
d="M175 286l96 214h86l-112 -242l89 -186h48v-189h-80v117h-22l-100 216h-48v-216h-80v500h80v-214h43z" />
    <glyph glyph-name="uni049C" unicode="&#x49c;" horiz-adv-x="506" 
d="M268 192h-78v116h-36v-308h-86v690h86v-304h36v125h78v-125h28l84 304h85l-96 -340l129 -350h-91l-110 308h-29v-116z" />
    <glyph glyph-name="uni049D" unicode="&#x49d;" horiz-adv-x="416" 
d="M223 108h-70v108h-21v-216h-80v500h80v-214h21v109h70v-109h12l75 214h86l-87 -242l99 -258h-89l-79 216h-17v-108z" />
    <glyph glyph-name="uni04A0" unicode="&#x4a0;" horiz-adv-x="522" 
d="M104 612h-120v78h206v-304h65l138 304h88l-156 -340l189 -350h-97l-163 308h-64v-308h-86v612z" />
    <glyph glyph-name="uni04A1" unicode="&#x4a1;" horiz-adv-x="417" 
d="M92 428h-108v72h188v-214h43l96 214h86l-112 -242l124 -258h-89l-100 216h-48v-216h-80v428z" />
    <glyph glyph-name="uni04A2" unicode="&#x4a2;" horiz-adv-x="521" 
d="M427 -130v130h-67v318h-206v-318h-86v690h86v-294h206v294h86v-612h67v-208h-86z" />
    <glyph glyph-name="uni04A3" unicode="&#x4a3;" horiz-adv-x="445" 
d="M52 500h80v-210h161v210h80v-428h56v-189h-80v117h-56v218h-161v-218h-80v500z" />
    <glyph glyph-name="uni04AA" unicode="&#x4aa;" horiz-adv-x="466" 
d="M281 -130h-79v126c-108 19 -162 123 -162 311v76c0 210 67 315 202 315c115 0 182 -74 200 -223h-81c-20 107 -54 145 -119 145c-81 0 -116 -65 -116 -237v-76c0 -172 33 -237 116 -237c67 0 100 42 119 145h80c-15 -131 -68 -204 -160 -220v-125z" />
    <glyph glyph-name="uni04AB" unicode="&#x4ab;" horiz-adv-x="360" 
d="M247 -117h-80v113c-90 17 -135 91 -135 222v66c0 141 66 224 175 224c65 0 112 -26 141 -77l-61 -42c-19 31 -46 47 -80 47c-63 0 -95 -56 -95 -152v-66c0 -103 32 -154 95 -154c35 0 63 17 82 52l59 -41c-18 -44 -52 -70 -101 -79v-113z" />
    <glyph glyph-name="uni04AE" unicode="&#x4ae;" horiz-adv-x="449" 
d="M181 296l-165 394h98l110 -290l111 290h98l-166 -394v-296h-86v296z" />
    <glyph glyph-name="uni04AF" unicode="&#x4af;" horiz-adv-x="412" 
d="M206 113l114 387h84l-154 -500v-190h-85v190l-157 500h86z" />
    <glyph glyph-name="uni04B0" unicode="&#x4b0;" horiz-adv-x="449" 
d="M181 218h-108v78h108l-165 394h98l110 -290l111 290h98l-166 -394h109v-78h-109v-218h-86v218z" />
    <glyph glyph-name="uni04B1" unicode="&#x4b1;" horiz-adv-x="412" 
d="M165 -72h-82v72h82l-157 500h86l112 -387l114 387h84l-154 -500h82v-72h-82v-118h-85v118z" />
    <glyph glyph-name="uni04B2" unicode="&#x4b2;" horiz-adv-x="460" 
d="M223 268l-114 -268h-93l158 356l-140 334h93l96 -253l97 253h93l-141 -334l124 -278h56v-208h-86v130h-28z" />
    <glyph glyph-name="uni04B3" unicode="&#x4b3;" horiz-adv-x="408" 
d="M320 -117v117h-22l-100 184l-100 -184h-90l143 255l-125 245h90l82 -175l82 175h90l-124 -244l102 -184h52v-189h-80z" />
    <glyph glyph-name="uni04B6" unicode="&#x4b6;" horiz-adv-x="483" 
d="M28 690h86v-194c0 -61 8 -103 23 -126s45 -34 88 -34c56 0 89 21 98 48v306h85v-612h67v-208h-86v130h-66v291c-25 -22 -62 -33 -112 -33c-70 0 -118 18 -144 55s-39 98 -39 183v194z" />
    <glyph glyph-name="uni04B7" unicode="&#x4b7;" horiz-adv-x="414" 
d="M398 -117h-80v117h-56v213c-18 -18 -44 -27 -79 -27c-93 0 -143 51 -143 194v120h80v-120c0 -92 24 -119 73 -119c32 0 55 11 69 34v205h79v-428h57v-189z" />
    <glyph glyph-name="uni04B8" unicode="&#x4b8;" horiz-adv-x="476" 
d="M258 142h-77v117c-116 11 -153 78 -153 237v194h86v-194c0 -104 15 -149 67 -157v122h77v-122c35 7 56 22 65 45v306h85v-690h-85v291c-17 -15 -38 -25 -65 -30v-119z" />
    <glyph glyph-name="uni04B9" unicode="&#x4b9;" horiz-adv-x="393" 
d="M228 88h-71v99c-76 9 -117 64 -117 193v120h80v-120c0 -73 9 -108 37 -112v107h71v-109c14 6 25 16 34 29v205h79v-500h-79v213c-9 -9 -21 -16 -34 -20v-105z" />
    <glyph glyph-name="uni04BA" unicode="&#x4ba;" horiz-adv-x="476" 
d="M448 0h-86v270c0 61 -8 103 -23 126s-45 34 -88 34c-51 0 -83 -18 -97 -55v-375h-86v690h86v-217c28 23 65 35 111 35c70 0 118 -19 144 -57c26 -37 39 -98 39 -181v-270z" />
    <glyph glyph-name="uni04BB" unicode="&#x4bb;" horiz-adv-x="425" 
d="M132 0h-80v690h81v-239c19 38 52 57 98 57c87 0 142 -63 142 -196v-312h-80v311c0 93 -28 123 -77 123c-56 0 -84 -41 -84 -122v-312z" />
    <glyph glyph-name="uni04D8" unicode="&#x4d8;" horiz-adv-x="487" 
d="M40 307v40h321v36c0 171 -35 237 -116 237c-68 0 -101 -40 -117 -145h-84c15 149 82 223 201 223c135 0 202 -105 202 -315v-76c0 -210 -67 -315 -202 -315c-129 0 -205 100 -205 315zM361 269h-234c8 -144 45 -199 118 -199s107 56 116 199z" />
    <glyph glyph-name="afii10846" unicode="&#x4d9;" horiz-adv-x="395" 
d="M106 384l-59 41c25 55 73 83 143 83c113 0 173 -85 173 -226v-66c0 -143 -57 -224 -160 -224c-109 0 -161 69 -161 224v52h241v14c0 103 -31 154 -92 154c-44 0 -62 -15 -85 -52zM283 198h-161c0 -101 22 -134 81 -134s80 42 80 134z" />
    <glyph glyph-name="uni04E2" unicode="&#x4e2;" horiz-adv-x="533" 
d="M68 0v690h86v-491l236 491h75v-690h-86v486l-234 -486h-77zM392 768h-251v72h251v-72z" />
    <glyph glyph-name="uni04E3" unicode="&#x4e3;" horiz-adv-x="437" 
d="M52 500h80v-342l176 342h77v-500h-80v349l-178 -349h-75v500zM328 600h-219v72h219v-72z" />
    <glyph glyph-name="uni04E8" unicode="&#x4e8;" horiz-adv-x="484" 
d="M444 383v-76c0 -210 -67 -315 -202 -315s-202 105 -202 315v76c0 210 67 315 202 315s202 -105 202 -315zM358 307v11h-232v-11c0 -173 33 -237 116 -237s116 64 116 237zM126 396h232c-1 163 -35 224 -116 224s-115 -61 -116 -224z" />
    <glyph glyph-name="uni04E9" unicode="&#x4e9;" horiz-adv-x="401" 
d="M369 284v-66c0 -144 -61 -226 -169 -226s-168 82 -168 226v66c0 143 60 224 168 224s169 -81 169 -224zM200 64c59 0 89 51 89 154h-177c0 -103 29 -154 88 -154zM112 290h177c-1 96 -25 146 -89 146s-87 -49 -88 -146z" />
    <glyph glyph-name="uni04EE" unicode="&#x4ee;" horiz-adv-x="469" 
d="M246 274l122 416h90l-182 -574c-15 -48 -35 -81 -58 -98s-60 -26 -110 -26v79c29 0 50 5 62 14c12 10 23 33 32 70l-182 535h95zM367 768h-251v72h251v-72z" />
    <glyph glyph-name="uni04EF" unicode="&#x4ef;" horiz-adv-x="382" 
d="M155 -19l4 14l-155 505h86l93 -322l15 -53l93 375h83l-138 -516c-18 -66 -38 -111 -61 -136c-22 -25 -61 -38 -117 -38v78c52 0 76 17 97 93zM304 600h-219v72h219v-72z" />
    <glyph glyph-name="uni1E9E" unicode="&#x1e9e;" horiz-adv-x="487" 
d="M423 636l-88 -191c64 -9 88 -51 88 -143v-162c0 -57 -9 -95 -28 -113c-18 -18 -50 -27 -95 -27h-58v78h55c32 0 40 15 40 68v150c0 56 -12 76 -45 76h-54v63l76 167c-7 8 -40 18 -64 18c-69 0 -96 -36 -96 -129v-491h-86v499c0 127 61 199 182 199c37 0 72 -7 104 -21
c33 -14 56 -28 69 -41z" />
    <glyph glyph-name="uni2010" unicode="&#x2010;" horiz-adv-x="259" 
d="M235 253h-211v72h211v-72z" />
    <glyph glyph-name="uni2011" unicode="&#x2011;" horiz-adv-x="259" 
d="M235 253h-211v72h211v-72z" />
    <glyph glyph-name="figuredash" unicode="&#x2012;" 
d="M358 313h-311v72h311v-72z" />
    <glyph glyph-name="endash" unicode="&#x2013;" horiz-adv-x="411" 
d="M363 253h-315v72h315v-72z" />
    <glyph glyph-name="emdash" unicode="&#x2014;" horiz-adv-x="537" 
d="M521 253h-505v72h505v-72z" />
    <glyph glyph-name="quoteleft" unicode="&#x2018;" horiz-adv-x="192" 
d="M144 534h-96v176l96 83v-259z" />
    <glyph glyph-name="quoteright" unicode="&#x2019;" horiz-adv-x="182" 
d="M48 740h86v-185l-86 -74v259z" />
    <glyph glyph-name="quotesinglbase" unicode="&#x201a;" horiz-adv-x="192" 
d="M48 96h96v-176l-96 -83v259z" />
    <glyph glyph-name="quotedblleft" unicode="&#x201c;" horiz-adv-x="348" 
d="M144 534h-96v176l96 83v-259zM300 534h-96v176l96 83v-259z" />
    <glyph glyph-name="quotedblright" unicode="&#x201d;" horiz-adv-x="348" 
d="M204 740h96v-176l-96 -83v259zM48 740h96v-176l-96 -83v259z" />
    <glyph glyph-name="quotedblbase" unicode="&#x201e;" horiz-adv-x="348" 
d="M204 96h96v-176l-96 -83v259zM48 96h96v-176l-96 -83v259z" />
    <glyph glyph-name="dagger" unicode="&#x2020;" horiz-adv-x="425" 
d="M16 422v78h153v190h86v-190h154v-78h-154v-612h-86v612h-153z" />
    <glyph glyph-name="daggerdbl" unicode="&#x2021;" horiz-adv-x="425" 
d="M16 422v78h153v190h86v-190h154v-78h-154v-344h154v-78h-154v-190h-86v190h-153v78h153v344h-153z" />
    <glyph glyph-name="bullet" unicode="&#x2022;" horiz-adv-x="272" 
d="M77 281c-33 33 -33 87 0 119c33 33 85 33 118 0c33 -32 33 -86 0 -119c-33 -32 -85 -32 -118 0z" />
    <glyph glyph-name="ellipsis" unicode="&#x2026;" horiz-adv-x="692" 
d="M48 116h116v-116h-116v116zM528 116h116v-116h-116v116zM288 116h116v-116h-116v116z" />
    <glyph glyph-name="perthousand" unicode="&#x2030;" horiz-adv-x="857" 
d="M98 0l309 690h78l-308 -690h-79zM20 488v65c0 95 45 145 118 145s118 -50 118 -145v-65c0 -95 -45 -145 -118 -145s-118 50 -118 145zM83 551v-61c0 -60 16 -86 55 -86s55 26 55 86v61c0 60 -16 86 -55 86s-55 -26 -55 -86zM336 137v65c0 95 45 145 118 145
s118 -50 118 -145v-65c0 -95 -45 -145 -118 -145s-118 50 -118 145zM399 200v-61c0 -60 16 -86 55 -86s55 26 55 86v61c0 60 -16 86 -55 86s-55 -26 -55 -86zM605 137v65c0 95 45 145 118 145s118 -50 118 -145v-65c0 -95 -45 -145 -118 -145s-118 50 -118 145zM668 200v-61
c0 -60 16 -86 55 -86s55 26 55 86v61c0 60 -16 86 -55 86s-55 -26 -55 -86z" />
    <glyph glyph-name="guilsinglleft" unicode="&#x2039;" horiz-adv-x="264" 
d="M210 52l-186 231l186 231v-114l-93 -117l93 -117v-114z" />
    <glyph glyph-name="guilsinglright" unicode="&#x203a;" horiz-adv-x="264" 
d="M46 400v114l186 -231l-186 -231v114l93 117z" />
    <glyph glyph-name="fraction" unicode="&#x2044;" horiz-adv-x="459" 
d="M0 0l378 690h73l-377 -690h-74z" />
    <glyph glyph-name="uni2074" unicode="&#x2074;" horiz-adv-x="280" 
d="M42 478l105 212h57l-97 -205h60v56h54v-56h31v-50h-31v-61h-54v61h-125v43z" />
    <glyph glyph-name="Euro" unicode="&#x20ac;" 
d="M8 231v78h51v72h-51v78h54c14 159 70 239 169 239c104 0 150 -75 161 -223h-78c-11 111 -34 145 -83 145c-52 0 -75 -41 -84 -161h99v-78h-101v-72h101v-78h-99c11 -111 35 -161 84 -161c51 0 73 41 84 145h77c-13 -152 -62 -223 -161 -223c-93 0 -154 82 -169 239h-54z
" />
    <glyph glyph-name="uni20B4" unicode="&#x20b4;" horiz-adv-x="406" 
d="M38 236h-35v80h401v-80h-279c-4 -16 -6 -34 -6 -55c0 -74 30 -111 89 -111c23 0 42 5 55 16c14 11 31 32 52 62l68 -41c-52 -79 -96 -115 -175 -115c-57 0 -101 19 -131 56c-29 37 -44 81 -44 131c0 11 2 30 5 57zM404 376h-401v80h276c5 16 8 35 8 56
c0 72 -26 108 -79 108c-16 0 -31 -4 -44 -12s-23 -15 -28 -22l-24 -34l-5 -7l-64 40c39 75 93 113 162 113c113 0 168 -78 168 -186c0 -19 -2 -37 -6 -56h37v-80z" />
    <glyph glyph-name="uni20B8" unicode="&#x20b8;" 
d="M5 482v78h396v-78h-155v-482h-86v482h-155zM5 612v78h396v-78h-396z" />
    <glyph glyph-name="uni20BD" unicode="&#x20bd;" 
d="M84 133h-74v78h74v52h-74v78h74v349h110c127 0 201 -79 201 -214c0 -133 -73 -213 -201 -213h-24v-52h81v-78h-81v-133h-86v133zM170 612v-271h24c84 0 115 46 115 135c0 91 -31 136 -115 136h-24z" />
    <glyph glyph-name="afii61352" unicode="&#x2116;" horiz-adv-x="762" 
d="M738 536v-45c0 -100 -39 -163 -122 -163c-77 0 -122 63 -122 163v45c0 103 45 162 122 162s122 -59 122 -162zM670 495v37c0 65 -18 98 -54 98s-54 -33 -54 -98v-37c0 -66 18 -99 54 -99s54 33 54 99zM722 215h-211v70h211v-70zM361 207v483h86v-690h-80l-213 478v-478
h-86v690h77z" />
    <glyph glyph-name="trademark" unicode="&#x2122;" horiz-adv-x="868" 
d="M406 690h65l150 -260l150 260h65v-417h-71v278l-115 -198h-64l-109 198v-278h-71v417zM24 624v66h338v-66h-134v-351h-71v351h-133z" />
    <glyph glyph-name="uni2190" unicode="&#x2190;" horiz-adv-x="875" 
d="M209 222l314 -314h-110l-353 353l353 353h110l-314 -314h606v-78h-606z" />
    <glyph glyph-name="uni2191" unicode="&#x2191;" horiz-adv-x="826" 
d="M413 639l353 -353v-110l-314 314v-606h-78v606l-314 -314v110z" />
    <glyph glyph-name="uni2192" unicode="&#x2192;" horiz-adv-x="875" 
d="M815 261l-353 -353h-110l314 314h-606v78h606l-314 314h110z" />
    <glyph glyph-name="uni2193" unicode="&#x2193;" horiz-adv-x="826" 
d="M413 -117l-353 353v110l314 -314v606h78v-606l314 314v-110z" />
    <glyph glyph-name="uni2196" unicode="&#x2196;" horiz-adv-x="698" 
d="M137 367v-445l-77 78v500h500l78 -77h-445l428 -429l-55 -55z" />
    <glyph glyph-name="uni2197" unicode="&#x2197;" horiz-adv-x="698" 
d="M638 500v-500l-77 -78v445l-429 -428l-55 55l428 429h-445l78 77h500z" />
    <glyph glyph-name="uni2198" unicode="&#x2198;" horiz-adv-x="698" 
d="M561 133v445l77 -78v-500h-500l-78 77h445l-428 429l55 55z" />
    <glyph glyph-name="uni2199" unicode="&#x2199;" horiz-adv-x="698" 
d="M60 0v500l77 78v-445l429 428l55 -55l-428 -429h445l-78 -77h-500z" />
    <glyph glyph-name="uni21A3" unicode="&#x21a3;" horiz-adv-x="1252" 
d="M168 375l39 39l94 -94h794l-55 55l39 39l133 -133l-133 -133l-39 39l55 55h-794l-94 -94l-39 39l94 94zM40 375l39 39l133 -133l-133 -133l-39 39l94 94z" />
    <glyph glyph-name="partialdiff" unicode="&#x2202;" 
d="M371 464v-246c0 -144 -61 -226 -169 -226s-168 82 -168 226v66c0 143 60 224 163 224c41 0 72 -12 94 -36v33c0 37 -8 67 -23 88c-15 22 -37 33 -67 33s-61 -15 -92 -45l-41 59c35 39 78 58 130 58c115 0 173 -70 173 -234zM202 64c59 0 89 51 89 154v80
c-3 91 -26 138 -89 138c-65 0 -88 -51 -88 -152v-66c0 -103 29 -154 88 -154z" />
    <glyph glyph-name="product" unicode="&#x220f;" horiz-adv-x="514" 
d="M68 -190v880h378v-880h-85v802h-207v-802h-86z" />
    <glyph glyph-name="summation" unicode="&#x2211;" horiz-adv-x="419" 
d="M24 690h363v-78h-260l150 -321v-83l-150 -320h260v-78h-363v58l177 382l-177 382v58z" />
    <glyph glyph-name="minus" unicode="&#x2212;" 
d="M362 318h-319v72h319v-72z" />
    <glyph glyph-name="uni2215" unicode="&#x2215;" horiz-adv-x="396" 
d="M376 812l-264 -928h-75l264 928h75z" />
    <glyph glyph-name="radical" unicode="&#x221a;" horiz-adv-x="524" 
d="M18 422v78h152l108 -356l89 546h212v-78h-146l-109 -612h-78l-141 422h-87z" />
    <glyph glyph-name="infinity" unicode="&#x221e;" horiz-adv-x="618" 
d="M308 284c-45 -77 -92 -116 -140 -116c-43 0 -79 17 -106 50s-41 75 -41 124s14 91 41 124s63 50 106 50c51 0 100 -38 146 -114c44 72 84 114 137 114c43 0 78 -17 105 -50c28 -33 42 -75 42 -124s-14 -91 -42 -124c-27 -33 -62 -50 -105 -50c-50 0 -98 39 -143 116z
M458 247c37 0 67 38 67 95c0 56 -30 94 -71 94c-21 0 -33 -7 -46 -18c-7 -5 -18 -22 -23 -31l-27 -43c41 -69 64 -97 100 -97zM162 247c23 0 40 6 57 27c9 11 17 20 22 28l26 41c-41 67 -65 93 -105 93c-39 0 -68 -38 -68 -94c0 -57 29 -95 68 -95z" />
    <glyph glyph-name="integral" unicode="&#x222b;" horiz-adv-x="236" 
d="M59 -10v546c0 107 39 154 136 154h21v-82h-18c-24 0 -39 -7 -45 -20c-5 -13 -8 -39 -8 -78v-546c0 -107 -39 -154 -136 -154h-21v82h18c24 0 39 7 44 20c6 13 9 39 9 78z" />
    <glyph glyph-name="approxequal" unicode="&#x2248;" 
d="M337 465l33 -54c-33 -35 -64 -52 -91 -52c-18 0 -45 9 -82 26c-36 18 -61 27 -76 27c-13 0 -31 -11 -52 -34l-33 54c31 35 59 52 86 52c18 0 45 -9 82 -27c37 -17 63 -26 76 -26c18 0 37 11 57 34zM337 306l33 -54c-33 -35 -64 -52 -91 -52c-18 0 -45 9 -82 26
c-36 18 -61 27 -76 27c-14 0 -31 -11 -52 -34l-33 54c31 35 59 52 86 52c18 0 45 -9 82 -27c37 -17 63 -26 76 -26c18 0 37 11 57 34z" />
    <glyph glyph-name="notequal" unicode="&#x2260;" 
d="M178 400h-131v72h155l60 178l68 -23l-52 -155h80v-72h-105l-31 -92h136v-72h-160l-55 -165l-68 23l48 142h-76v72h100z" />
    <glyph glyph-name="lessequal" unicode="&#x2264;" 
d="M326 655v-95l-189 -129l189 -129v-95l-264 183v82zM62 220v95l264 -183v-95z" />
    <glyph glyph-name="greaterequal" unicode="&#x2265;" 
d="M79 302l189 129l-189 129v95l264 -183v-82l-264 -183v95zM79 37v95l264 183v-95z" />
    <glyph glyph-name="uni231A" unicode="&#x231a;" horiz-adv-x="666" 
d="M446 -205h-261v235c-76 45 -125 128 -125 220s49 174 125 219v235h261v-234c64 -39 110 -104 122 -180h38v-80h-38c-12 -76 -57 -141 -122 -180v-235zM167 398c-41 -41 -62 -90 -62 -148s21 -108 62 -149s91 -62 149 -62s107 21 148 62s62 91 62 149s-21 107 -62 148
s-90 62 -148 62s-108 -21 -149 -62zM488 337l-6 -19l-166 -93l-133 75l-6 20l20 5l119 -70l153 87z" />
    <glyph glyph-name="uni23F2" unicode="&#x23f2;" horiz-adv-x="1072" 
d="M199 5c-93 93 -139 206 -139 337s46 243 139 336s206 140 337 140s243 -47 336 -140s140 -205 140 -336s-47 -244 -140 -337s-205 -139 -336 -139s-244 46 -337 139zM237 640c-82 -82 -123 -181 -123 -298s41 -216 123 -299c83 -82 182 -123 299 -123s216 41 298 123
c82 83 123 182 123 299s-41 216 -123 298s-181 123 -298 123s-216 -41 -299 -123zM881 544l-10 -36l-335 -192l-248 142l-10 35l36 10l222 -129l309 179zM802 318v46h126v-46h-126zM559 -50h-46v126h46v-126zM145 318v46h126v-46h-126zM559 607h-46v126h46v-126z" />
    <glyph glyph-name="uni2550" unicode="&#x2550;" horiz-adv-x="2158" 
d="M0 387h2158v-78h-2158v78zM0 259h2158v-78h-2158v78z" />
    <glyph glyph-name="lozenge" unicode="&#x25ca;" horiz-adv-x="445" 
d="M22 296l153 291h96l152 -291l-152 -296h-96zM326 296l-104 221l-104 -221l104 -226z" />
    <glyph glyph-name="uni261D" unicode="&#x261d;" horiz-adv-x="705" 
d="M645 249v-277h-370l-215 292c4 4 8 8 29 19c29 14 72 20 115 -25l71 -74v450c0 41 17 61 50 61s50 -19 50 -58v-229h36c39 0 54 -17 54 -54h36c39 0 54 -17 54 -54h34c40 0 56 -15 56 -51zM645 -243h-370v161h370v-161zM584 -142c-23 23 -65 -14 -39 -40s64 15 39 40z
" />
    <glyph glyph-name="uni261E" unicode="&#x261e;" horiz-adv-x="1061" 
d="M555 51h-277v370l292 215c4 -4 8 -7 19 -30c14 -28 20 -72 -25 -114l-74 -71h450c41 0 61 -17 61 -50s-19 -50 -58 -50h-229v-36c0 -39 -17 -54 -54 -54v-36c0 -39 -17 -54 -54 -54v-34c0 -40 -15 -56 -51 -56zM60 51v370h164v-370h-164zM161 111c25 25 -13 66 -39 40
s16 -63 39 -40z" />
    <glyph glyph-name="uni26F3" unicode="&#x26f3;" horiz-adv-x="674" 
d="M60 513c0 77 27 142 81 196s119 81 196 81s142 -27 196 -81s81 -119 81 -196c0 -57 -27 -129 -82 -216l-195 -307l-197 309c-53 85 -80 157 -80 214zM258 591c-21 -21 -32 -47 -32 -78s11 -57 32 -78c22 -21 48 -32 79 -32s57 11 78 32s32 47 32 78s-11 57 -32 78
s-47 32 -78 32s-57 -11 -79 -32z" />
    <glyph glyph-name="uni2709" unicode="&#x2709;" horiz-adv-x="1236" 
d="M60 518v60h1116v-60l-558 -334zM60 37v444l338 -201zM810 263l366 -263h-1116l366 263l192 -114zM1176 37l-338 243l338 201v-444z" />
    <glyph glyph-name="uniF040" unicode="&#xf040;" horiz-adv-x="3054" 
d="M1580 375l39 39l94 -94h1341v-78h-1341l-94 -94l-39 39l94 94zM1341 242h-1341v78h1341l94 94l39 -39l-94 -94l94 -94l-39 -39z" />
    <glyph glyph-name="uniF041" unicode="&#xf041;" horiz-adv-x="2855" 
d="M1417 180l139 242l68 -39l-37 -63h1268v-78h-1313l-58 -101zM1312 320l59 102l68 -39l-140 -242l-67 39l35 62h-1267v78h1312z" />
    <glyph glyph-name="uniF042" unicode="&#xf042;" horiz-adv-x="2825" 
d="M2825 242h-1361v78h1361v-78zM0 320h1241v-78h-1241v78z" />
    <glyph glyph-name="uniF043" unicode="&#xf043;" horiz-adv-x="705" 
d="M275 -28l-215 292l8 6c20 18 79 48 136 -12l71 -74v450c0 41 17 61 50 61s50 -19 50 -58v-229h36c39 0 54 -17 54 -54h36c39 0 54 -17 54 -54h34c40 0 56 -15 56 -51v-277h-370zM275 -82h370v-161h-370v161zM545 -142c-26 -26 16 -66 39 -40c26 26 -13 63 -39 40zM83 605
v55h158v-55h-158zM409 605v55h158v-55h-158zM352 725h-55v158h55v-158z" />
    <glyph glyph-name="uniF044" unicode="&#xf044;" horiz-adv-x="931" 
d="M177 126l3 10c8 26 40 81 120 65l201 -45v478c0 41 17 61 50 61s50 -19 50 -58v-229h36c39 0 54 -17 54 -54h36c39 0 54 -17 54 -54h34c40 0 56 -15 56 -51v-277h-370zM501 -82h370v-161h-370v161zM553 759v55h158v-158h-55v103h-103zM218 70v-55h-158v158h55v-103h103z
M771 -142c-26 -26 16 -66 39 -40c26 26 -13 63 -39 40z" />
    <glyph glyph-name="uniF045" unicode="&#xf045;" horiz-adv-x="903" 
d="M370 665h503v-55h-498v-202h36c39 0 54 -17 54 -54h36c39 0 54 -17 54 -54h34c40 0 56 -15 56 -51v-277h-370l-215 292c4 4 8 8 29 19c29 14 72 20 115 -25l71 -74v450c0 41 17 61 50 61c23 0 38 -10 45 -30zM645 -243h-370v161h370v-161zM199 525l-112 112l112 112
l39 -39l-73 -73l73 -73zM584 -142c-23 23 -65 -14 -39 -40s64 15 39 40z" />
    <glyph glyph-name="uniF046" unicode="&#xf046;" horiz-adv-x="952" 
d="M892 249v-277h-370l-215 292c4 4 8 8 29 19c29 14 72 20 115 -25l71 -74v426h-492v55h497c7 20 22 30 45 30c33 0 50 -19 50 -58v-229h36c37 0 54 -17 54 -54h36c37 0 54 -17 54 -54h34c40 0 56 -15 56 -51zM892 -243h-370v161h370v-161zM704 749l112 -112l-112 -112
l-39 39l73 73l-73 73zM831 -142c-23 23 -65 -14 -39 -40s64 15 39 40z" />
    <glyph glyph-name="uniF047" unicode="&#xf047;" horiz-adv-x="1010" 
d="M872 514l-6 -4v-634h-55v603l-137 -79l17 -31c18 -32 12 -56 -19 -73l18 -32c18 -31 11 -55 -20 -73l17 -30c19 -32 13 -57 -17 -74l-239 -139l-185 321l145 332c-1 0 97 -28 67 -128l-29 -99l391 226c35 19 61 15 78 -13c17 -29 8 -53 -26 -73zM245 -159l-185 321
l140 81l184 -321zM765 651l-39 39l112 112l112 -112l-39 -39l-73 73zM295 -27c-23 23 -65 -14 -39 -40s64 15 39 40z" />
    <glyph glyph-name="uniF048" unicode="&#xf048;" horiz-adv-x="1145" 
d="M485 0l-240 137l186 321l360 40c1 -5 4 -11 1 -35c-2 -32 -17 -72 -78 -87l-100 -24l332 -192v603h55v-635l4 -2c34 -20 43 -45 27 -74c-17 -29 -42 -33 -76 -14l-198 115l-18 -30c-19 -32 -43 -39 -73 -21l-18 -31c-18 -31 -43 -37 -74 -19l-17 -30
c-19 -32 -43 -39 -73 -22zM60 245l185 320l140 -80l-186 -320zM1085 -51l-112 -112l-112 112l39 39l73 -73l73 73zM191 293c-23 26 -65 -13 -39 -39s65 16 39 39z" />
    <glyph glyph-name="uniF400" unicode="&#xf400;" horiz-adv-x="0" 
d="M-177 567h-69l54 158h89z" />
    <glyph glyph-name="uniF401" unicode="&#xf401;" horiz-adv-x="0" 
d="M-208 747h-71l67 129h92z" />
    <glyph glyph-name="uniF406" unicode="&#xf406;" horiz-adv-x="399" 
d="M273 879h76c0 -97 -57 -151 -149 -151s-150 54 -150 151h76c3 -51 27 -76 74 -76c46 0 70 25 73 76z" />
    <glyph glyph-name="uniF407" unicode="&#xf407;" horiz-adv-x="335" 
d="M123 -69l16 94l55 -3l-11 -45c31 -11 46 -35 46 -74c0 -52 -40 -82 -93 -82c-14 0 -24 1 -30 3l11 52c3 -1 7 -1 13 -1c21 0 31 9 31 28s-13 28 -38 28z" />
    <glyph glyph-name="uniF408" unicode="&#xf408;" horiz-adv-x="408" 
d="M52 737l116 142h71l117 -142h-84l-68 92l-68 -92h-84z" />
    <glyph glyph-name="uniF409" unicode="&#xf409;" horiz-adv-x="301" 
d="M102 -64h96v-96l-96 -83v179z" />
    <glyph glyph-name="uniF40A" unicode="&#xf40a;" horiz-adv-x="142" 
d="M42 690h93v-136l-93 -83v219z" />
    <glyph glyph-name="uniF40B" unicode="&#xf40b;" horiz-adv-x="298" 
d="M194 779h-90v90h90v-90z" />
    <glyph glyph-name="uniF40C" unicode="&#xf40c;" horiz-adv-x="345" 
d="M67 800c0 60 44 99 105 99c63 0 106 -39 106 -99c0 -59 -45 -98 -106 -98s-105 39 -105 98zM119 800c0 -31 21 -47 53 -47c35 0 53 16 53 47s-18 47 -53 47s-53 -16 -53 -47z" />
    <glyph glyph-name="uniF40D" unicode="&#xf40d;" horiz-adv-x="389" 
d="M246 762c-13 0 -31 5 -52 14c-21 10 -38 15 -50 15c-19 0 -36 -9 -49 -28l-46 37c26 37 58 55 95 55c13 0 30 -5 51 -15c22 -9 39 -14 52 -14c17 0 33 9 47 28l46 -37c-27 -37 -58 -55 -94 -55z" />
    <glyph glyph-name="uniF40E" unicode="&#xf40e;" horiz-adv-x="326" 
d="M191 45l25 -45c-31 -23 -46 -45 -46 -68c0 -19 10 -28 31 -28c7 0 12 0 15 1l10 -51c-8 -3 -20 -4 -36 -4c-49 0 -90 24 -90 76c0 45 30 85 91 119z" />
    <glyph glyph-name="dollar.fitted" unicode="&#xf5f5;" horiz-adv-x="463" 
d="M260 -116h-68v111c-69 10 -121 47 -156 110l68 46c28 -41 57 -67 88 -76v243c-97 33 -146 97 -146 194c0 93 50 168 146 183v117h68v-116c67 -7 118 -44 153 -111l-65 -44c-25 43 -55 68 -88 75v-235c107 -32 164 -91 164 -196c0 -49 -13 -92 -40 -129s-68 -58 -124 -63
v-109zM339 181c0 55 -18 90 -79 115v-225c53 8 79 45 79 110zM132 512c0 -51 20 -86 60 -106v209c-40 -14 -60 -48 -60 -103z" />
    <glyph glyph-name="Euro.fitted" unicode="&#xf5f6;" horiz-adv-x="493" 
d="M67 381h-63v78h66c16 159 82 239 199 239c115 0 182 -74 200 -223h-81c-20 107 -54 145 -119 145c-68 0 -104 -46 -113 -161h144v-78h-147v-72h147v-78h-144c9 -115 44 -161 113 -161c67 0 100 42 119 145h80c-16 -149 -82 -223 -199 -223s-183 80 -199 239h-66v78h63v72
z" />
    <glyph glyph-name="cent.fitted" unicode="&#xf5f7;" horiz-adv-x="360" 
d="M244 -116h-74v112c-88 17 -138 99 -138 222v66c0 124 50 203 138 220v118h74v-118c46 -9 81 -33 104 -73l-61 -42c-19 31 -46 47 -80 47c-63 0 -95 -56 -95 -152v-66c0 -103 32 -154 95 -154c35 0 63 17 82 52l59 -41c-19 -45 -54 -71 -104 -80v-111z" />
    <glyph glyph-name="sterling.fitted" unicode="&#xf5f8;" horiz-adv-x="445" 
d="M432 0h-362v78h57v240h-57v78h57v17c0 196 70 285 177 285c67 0 115 -29 144 -86l-69 -42c-17 33 -42 50 -75 50c-65 0 -91 -54 -91 -207v-17h124v-78h-124v-240h219v-78z" />
    <glyph glyph-name="yen.fitted" unicode="&#xf5f9;" horiz-adv-x="449" 
d="M181 146h-99v78h99v72h-99v78h66l-132 316h98l110 -290l111 290h98l-133 -316h67v-78h-100v-72h100v-78h-100v-146h-86v146z" />
    <glyph glyph-name="florin.fitted" unicode="&#xf5fa;" horiz-adv-x="249" 
d="M30 422v78h50v36c0 108 34 154 129 154h20v-78h-17c-40 0 -49 -19 -49 -80v-32h66v-78h-66v-458c0 -105 -42 -154 -146 -154v78c48 0 63 24 63 96v438h-50z" />
    <glyph glyph-name="uni20B4.fitted" unicode="&#xf5fb;" horiz-adv-x="473" 
d="M71 236h-35v80h401v-80h-279c-4 -16 -6 -34 -6 -55c0 -74 30 -111 89 -111c23 0 42 5 55 16c14 11 31 32 52 62l68 -41c-52 -79 -96 -115 -175 -115c-57 0 -101 19 -131 56c-29 37 -44 81 -44 131c0 11 2 30 5 57zM437 376h-401v80h276c5 16 8 35 8 56
c0 72 -26 108 -79 108c-16 0 -31 -4 -44 -12s-23 -15 -28 -22l-24 -34l-5 -7l-64 40c39 75 93 113 162 113c113 0 168 -78 168 -186c0 -19 -2 -37 -6 -56h37v-80z" />
    <glyph glyph-name="uni20BD.fitted" unicode="&#xf5fc;" horiz-adv-x="404" 
d="M79 133h-74v78h74v52h-74v78h74v349h110c127 0 201 -79 201 -214c0 -133 -73 -213 -201 -213h-24v-52h81v-78h-81v-133h-86v133zM165 612v-271h24c84 0 115 46 115 135c0 91 -31 136 -115 136h-24z" />
    <glyph glyph-name="uni20B8.fitted" unicode="&#xf5fd;" horiz-adv-x="413" 
d="M2 482v78h409v-78h-162v-482h-86v482h-161zM2 612v78h409v-78h-409z" />
    <glyph glyph-name="currency.fitted" unicode="&#xf5fe;" horiz-adv-x="412" 
d="M56 366c0 43 6 79 19 108l-51 68l64 47l36 -49c23 17 50 26 82 26c31 0 59 -9 82 -26l36 49l64 -47l-51 -68c13 -31 19 -67 19 -108c0 -43 -7 -79 -20 -110l52 -68l-63 -48l-38 51c-23 -17 -50 -25 -81 -25c-33 0 -60 8 -81 25l-38 -51l-63 48l51 68
c-13 32 -19 69 -19 110zM206 483c-43 0 -64 -39 -64 -117s21 -117 64 -117s64 39 64 117s-21 117 -64 117z" />
    <glyph glyph-name="uniF639" unicode="&#xf639;" horiz-adv-x="457" 
d="M389 515v-340c0 -120 -70 -183 -161 -183s-160 63 -160 183v340c0 120 69 183 160 183s161 -63 161 -183zM303 175v340c0 70 -25 105 -75 105s-75 -35 -75 -105v-340c0 -70 25 -105 75 -105s75 35 75 105z" />
    <glyph glyph-name="uniF63A" unicode="&#xf63a;" horiz-adv-x="390" 
d="M131 78h221v-78h-328v72l184 281c40 61 60 116 60 164c0 67 -27 104 -75 104c-47 0 -77 -39 -78 -108h-82c0 55 15 100 46 134s70 51 115 51c95 0 160 -72 160 -181c0 -28 -5 -56 -15 -85c-9 -29 -18 -50 -26 -65c-8 -14 -20 -34 -36 -59z" />
    <glyph glyph-name="uniF63B" unicode="&#xf63b;" horiz-adv-x="368" 
d="M166 317h-36v78h36c64 0 89 41 89 120c0 61 -27 106 -74 106c-48 0 -74 -33 -77 -99h-83c0 55 15 98 46 129s69 47 114 47c95 0 160 -70 160 -183c0 -73 -26 -126 -79 -157c58 -30 87 -87 87 -170c0 -59 -15 -106 -45 -142c-29 -36 -69 -54 -118 -54
c-104 0 -164 68 -172 181h84c7 -69 35 -103 84 -103c54 0 81 39 81 118c0 86 -32 129 -97 129z" />
    <glyph glyph-name="uniF63C" unicode="&#xf63c;" horiz-adv-x="406" 
d="M12 175l193 515h85l-179 -500h137v203h86v-203h48v-78h-48v-112h-86v112h-236v63z" />
    <glyph glyph-name="uniF63D" unicode="&#xf63d;" horiz-adv-x="402" 
d="M200 382c-27 0 -49 -17 -66 -51h-79v359h284v-86h-202v-177c21 27 50 41 85 41c91 0 140 -88 140 -253c0 -144 -57 -223 -164 -223c-43 0 -79 16 -108 49s-45 73 -48 121h84c11 -61 37 -92 77 -92c49 0 73 41 73 145c0 113 -20 167 -76 167z" />
    <glyph glyph-name="uniF63E" unicode="&#xf63e;" horiz-adv-x="380" 
d="M178 690h94l-105 -299c10 6 23 9 40 9c87 0 141 -78 141 -202c0 -129 -64 -206 -161 -206c-96 0 -161 74 -161 198c0 33 13 88 38 164zM112 198c0 -80 27 -128 75 -128s76 49 76 128s-28 128 -76 128s-75 -49 -75 -128z" />
    <glyph glyph-name="uniF63F" unicode="&#xf63f;" horiz-adv-x="362" 
d="M104 612v-121h-78v199h314v-78l-167 -612h-89l168 612h-148z" />
    <glyph glyph-name="uniF640" unicode="&#xf640;" horiz-adv-x="412" 
d="M36 194c0 73 38 139 82 164c-44 28 -74 86 -74 150c0 59 16 106 47 139c32 34 70 51 115 51s84 -17 115 -51c31 -33 47 -80 47 -139c0 -64 -31 -122 -74 -150c45 -24 82 -89 82 -164c0 -63 -17 -112 -50 -148s-73 -54 -120 -54s-87 18 -120 54s-50 85 -50 148zM116 194
c0 -76 37 -124 90 -124c52 0 91 48 91 124c0 80 -44 123 -91 123c-48 0 -90 -43 -90 -123zM122 508c0 -71 36 -114 84 -114s83 43 83 114c0 69 -35 112 -83 112c-49 0 -84 -43 -84 -112z" />
    <glyph glyph-name="uniF641" unicode="&#xf641;" horiz-adv-x="372" 
d="M192 0h-94l105 299c-10 -6 -23 -9 -40 -9c-87 0 -141 78 -141 202c0 129 64 206 161 206c47 0 86 -18 116 -54c30 -35 45 -82 45 -141c0 -35 -13 -91 -38 -167zM258 492c0 80 -27 128 -75 128s-76 -49 -76 -128s28 -128 76 -128s75 49 75 128z" />
    <glyph glyph-name="uniF6BA" unicode="&#xf6ba;" horiz-adv-x="259" 
d="M235 309h-211v72h211v-72z" />
    <glyph glyph-name="uniF6BB" unicode="&#xf6bb;" horiz-adv-x="411" 
d="M363 309h-315v72h315v-72z" />
    <glyph glyph-name="uniF6BC" unicode="&#xf6bc;" horiz-adv-x="537" 
d="M521 309h-505v72h505v-72z" />
    <glyph glyph-name="uniF6C3" unicode="&#xf6c3;" horiz-adv-x="259" 
d="M81 -64h96v-96l-96 -83v179z" />
    <glyph glyph-name="uniF6C9" unicode="&#xf6c9;" horiz-adv-x="366" 
d="M174 747h-71l67 129h92z" />
    <glyph glyph-name="uniF6CA" unicode="&#xf6ca;" horiz-adv-x="404" 
d="M354 879l-117 -142h-71l-116 142h84l68 -92l68 92h84z" />
    <glyph glyph-name="uniF6CB" unicode="&#xf6cb;" horiz-adv-x="382" 
d="M323 779h-90v90h90v-90zM149 779h-90v90h90v-90z" />
    <glyph glyph-name="uniF6CE" unicode="&#xf6ce;" horiz-adv-x="299" 
d="M70 876h92l67 -129h-71z" />
    <glyph glyph-name="uniF6CF" unicode="&#xf6cf;" horiz-adv-x="452" 
d="M147 747h-71l64 129h92zM280 747h-71l74 129h93z" />
    <glyph glyph-name="uniF6D0" unicode="&#xf6d0;" horiz-adv-x="383" 
d="M317 768h-251v72h251v-72z" />
    <glyph glyph-name="uniF6D1" unicode="&#xf6d1;" horiz-adv-x="398" 
d="M263 879h82c0 -95 -49 -142 -146 -142s-146 47 -146 142h82c0 -53 21 -80 64 -80s64 27 64 80z" />
    <glyph glyph-name="uniF6D4" unicode="&#xf6d4;" horiz-adv-x="330" 
d="M221 690h75c0 -76 -54 -118 -131 -118c-79 0 -132 42 -132 118h76c0 -40 19 -60 56 -60s56 20 56 60z" />
    <glyph glyph-name="uniF6DC" unicode="&#xf6dc;" horiz-adv-x="263" 
d="M109 690h86v-690h-86v591l-79 -71v94z" />
    <glyph glyph-name="uniFEFF" unicode="&#xfeff;" horiz-adv-x="0" 
 />
    <glyph glyph-name="uniF4D3" unicode="&#x1f4d3;" horiz-adv-x="752" 
d="M60 60v815c0 33 28 61 61 61h510c33 0 61 -28 61 -61v-815c0 -33 -28 -60 -61 -60h-510c-33 0 -61 27 -61 60zM376 25c23 0 41 18 41 41s-18 41 -41 41c-24 0 -42 -18 -42 -41s18 -41 42 -41zM648 132v691h-544v-691h544zM357 879c0 -23 36 -23 36 0c0 11 -6 17 -18 17
s-18 -6 -18 -17z" />
    <glyph glyph-name="uniF4F1" unicode="&#x1f4f1;" horiz-adv-x="552" 
d="M60 60v715c0 33 28 61 61 61h310c33 0 61 -28 61 -61v-715c0 -33 -28 -60 -61 -60h-310c-33 0 -61 27 -61 60zM276 25c23 0 41 18 41 41s-18 41 -41 41c-24 0 -42 -18 -42 -41s18 -41 42 -41zM448 132v591h-344v-591h344zM323 790h-94c-15 0 -15 -24 0 -24h94
c7 0 11 4 11 11c0 9 -4 13 -11 13z" />
    <glyph glyph-name="e.ss01" horiz-adv-x="395" 
d="M289 116l59 -41c-28 -60 -71 -83 -143 -83c-113 0 -173 85 -173 226v66c0 141 61 224 168 224c100 0 153 -59 153 -146s-52 -144 -151 -144h-90c0 -92 29 -154 90 -154c47 0 64 15 87 52zM200 436c-57 0 -88 -55 -88 -148h87c53 0 74 25 74 74s-24 74 -73 74z" />
    <glyph glyph-name="uni2196.ss02" horiz-adv-x="667" 
d="M138 367v-367h-78v500h500v-78h-367l414 -414l-55 -55z" />
    <glyph glyph-name="afii10081.ss01" horiz-adv-x="425" 
d="M132 0h-80v500h81v-49c19 38 52 57 98 57c87 0 142 -63 142 -196v-312h-80v311c0 93 -28 123 -77 123c-56 0 -84 -41 -84 -122v-312z" />
    <glyph glyph-name="afii10069.ss01" horiz-adv-x="421" 
d="M369 464v-246c0 -144 -61 -226 -169 -226s-168 82 -168 226v66c0 143 60 224 163 224c41 0 72 -12 94 -36v33c0 37 -8 67 -23 88c-15 22 -37 33 -67 33s-61 -15 -92 -45l-41 59c35 39 78 58 130 58c115 0 173 -70 173 -234zM200 64c59 0 89 51 89 154v80
c-3 91 -26 138 -89 138c-65 0 -88 -51 -88 -152v-66c0 -103 29 -154 88 -154z" />
    <glyph glyph-name="uni261E.ss02" horiz-adv-x="1061" 
d="M555 51h-277v370l292 215c4 -4 8 -7 19 -30c14 -28 20 -72 -25 -114l-74 -71h450c41 0 61 -17 61 -50s-19 -50 -58 -50h-229v-36c0 -39 -17 -54 -54 -54v-36c0 -39 -17 -54 -54 -54v-34c0 -40 -15 -56 -51 -56zM60 51v370h164v-370h-164zM106 396h-20v-319h20v319z
M178 77h20v319h-20v-319zM152 396h-20v-222h20v222zM152 112h-20v-35h20v35z" />
    <glyph glyph-name="uni2191.ss02" horiz-adv-x="826" 
d="M413 629l353 -353l-55 -55l-259 259v-586h-78v586l-259 -259l-55 55z" />
    <glyph glyph-name="afii10075.ss01" horiz-adv-x="425" 
d="M293 500h80v-500h-80v49c-20 -37 -44 -57 -99 -57c-95 0 -142 65 -142 196v312h80v-311c0 -93 28 -123 77 -123c52 0 84 45 84 122v312zM269 690h75c0 -76 -54 -118 -131 -118c-79 0 -132 42 -132 118h76c0 -40 19 -60 56 -60s56 20 56 60z" />
    <glyph glyph-name="afii10074.ss01" horiz-adv-x="425" 
d="M293 500h80v-500h-80v49c-20 -37 -44 -57 -99 -57c-95 0 -142 65 -142 196v312h80v-311c0 -93 28 -123 77 -123c52 0 84 45 84 122v312z" />
    <glyph glyph-name="uni2197.ss02" horiz-adv-x="667" 
d="M607 500v-500h-78v367l-414 -414l-55 55l414 414h-367v78h500z" />
    <glyph glyph-name="a.ss01" horiz-adv-x="423" 
d="M291 450v50h80v-500h-80v44c-21 -35 -55 -52 -102 -52c-103 0 -157 90 -157 226v66c0 141 61 224 157 224c47 0 81 -19 102 -58zM202 64c59 0 89 51 89 154v73c0 89 -34 145 -89 145c-59 0 -90 -56 -90 -152v-66c0 -91 30 -154 90 -154z" />
    <glyph glyph-name="uni2190.ss02" horiz-adv-x="855" 
d="M209 222l259 -259l-55 -55l-353 353l353 353l55 -55l-259 -259h586v-78h-586z" />
    <glyph glyph-name="uni2192.ss02" horiz-adv-x="855" 
d="M795 261l-353 -353l-55 55l259 259h-586v78h586l-259 259l55 55z" />
    <glyph glyph-name="uni2198.ss02" horiz-adv-x="667" 
d="M529 133v367h78v-500h-500v78h367l-414 414l55 55z" />
    <glyph glyph-name="uni2199.ss02" horiz-adv-x="667" 
d="M60 0v500h78v-367l414 414l55 -55l-414 -414h367v-78h-500z" />
    <glyph glyph-name="eacute.ss01" horiz-adv-x="395" 
d="M289 116l59 -41c-28 -60 -71 -83 -143 -83c-113 0 -173 85 -173 226v66c0 141 61 224 168 224c100 0 153 -59 153 -146s-52 -144 -151 -144h-90c0 -92 29 -154 90 -154c47 0 64 15 87 52zM200 436c-57 0 -88 -55 -88 -148h87c53 0 74 25 74 74s-24 74 -73 74zM224 567
h-69l54 158h89z" />
    <glyph glyph-name="ecircumflex.ss01" horiz-adv-x="395" 
d="M289 116l59 -41c-28 -60 -71 -83 -143 -83c-113 0 -173 85 -173 226v66c0 141 61 224 168 224c100 0 153 -59 153 -146s-52 -144 -151 -144h-90c0 -92 29 -154 90 -154c47 0 64 15 87 52zM200 436c-57 0 -88 -55 -88 -148h87c53 0 74 25 74 74s-24 74 -73 74zM65 558
l95 142h86l95 -142h-77l-61 97l-61 -97h-77z" />
    <glyph glyph-name="edieresis.ss01" horiz-adv-x="395" 
d="M289 116l59 -41c-28 -60 -71 -83 -143 -83c-113 0 -173 85 -173 226v66c0 141 61 224 168 224c100 0 153 -59 153 -146s-52 -144 -151 -144h-90c0 -92 29 -154 90 -154c47 0 64 15 87 52zM200 436c-57 0 -88 -55 -88 -148h87c53 0 74 25 74 74s-24 74 -73 74zM161 600
h-88v90h88v-90zM315 600h-88v90h88v-90z" />
    <glyph glyph-name="afii10065.ss01" horiz-adv-x="423" 
d="M291 450v50h80v-500h-80v44c-21 -35 -55 -52 -102 -52c-103 0 -157 90 -157 226v66c0 141 61 224 157 224c47 0 81 -19 102 -58zM202 64c59 0 89 51 89 154v73c0 89 -34 145 -89 145c-59 0 -90 -56 -90 -152v-66c0 -91 30 -154 90 -154z" />
    <glyph glyph-name="afii10070.ss01" horiz-adv-x="395" 
d="M289 116l59 -41c-28 -60 -71 -83 -143 -83c-113 0 -173 85 -173 226v66c0 141 61 224 168 224c100 0 153 -59 153 -146s-52 -144 -151 -144h-90c0 -92 29 -154 90 -154c47 0 64 15 87 52zM200 436c-57 0 -88 -55 -88 -148h87c53 0 74 25 74 74s-24 74 -73 74z" />
    <glyph glyph-name="afii10071.ss01" horiz-adv-x="395" 
d="M289 116l59 -41c-28 -60 -71 -83 -143 -83c-113 0 -173 85 -173 226v66c0 141 61 224 168 224c100 0 153 -59 153 -146s-52 -144 -151 -144h-90c0 -92 29 -154 90 -154c47 0 64 15 87 52zM200 436c-57 0 -88 -55 -88 -148h87c53 0 74 25 74 74s-24 74 -73 74zM161 600
h-88v90h88v-90zM315 600h-88v90h88v-90z" />
    <glyph glyph-name="aogonek.ss01" horiz-adv-x="421" 
d="M289 450v50h80v-500c-31 -23 -46 -45 -46 -68c0 -19 10 -28 31 -28c3 0 8 1 15 2l10 -53c-6 -2 -18 -3 -36 -3c-52 0 -90 23 -90 76c0 30 12 56 36 78v40c-21 -35 -55 -52 -102 -52c-103 0 -157 90 -157 226v66c0 141 61 224 157 224c47 0 81 -19 102 -58zM200 64
c59 0 89 51 89 154v73c0 89 -34 145 -89 145c-59 0 -90 -56 -90 -152v-66c0 -91 30 -154 90 -154z" />
    <glyph glyph-name="abreve.ss01" horiz-adv-x="423" 
d="M291 450v50h80v-500h-80v44c-21 -35 -55 -52 -102 -52c-103 0 -157 90 -157 226v66c0 141 61 224 157 224c47 0 81 -19 102 -58zM202 64c59 0 89 51 89 154v73c0 89 -34 145 -89 145c-59 0 -90 -56 -90 -152v-66c0 -91 30 -154 90 -154zM274 690h61
c-1 -76 -50 -118 -121 -118c-72 0 -121 42 -122 118h63c3 -40 23 -60 59 -60c37 0 57 20 60 60z" />
    <glyph glyph-name="eogonek.ss01" horiz-adv-x="395" 
d="M289 116l59 -41c-18 -38 -46 -63 -83 -76c-30 -22 -45 -44 -45 -67c0 -19 10 -28 31 -28c3 0 8 1 15 2l10 -53c-6 -2 -18 -3 -36 -3c-52 0 -90 23 -90 76c0 26 9 49 26 68c-95 13 -144 95 -144 224v66c0 141 61 224 168 224c100 0 153 -59 153 -146s-52 -144 -151 -144
h-90c0 -92 29 -154 90 -154c47 0 64 15 87 52zM200 436c-57 0 -88 -55 -88 -148h87c53 0 74 25 74 74s-24 74 -73 74z" />
    <glyph glyph-name="ecaron.ss01" horiz-adv-x="395" 
d="M289 116l59 -41c-28 -60 -71 -83 -143 -83c-113 0 -173 85 -173 226v66c0 141 61 224 168 224c100 0 153 -59 153 -146s-52 -144 -151 -144h-90c0 -92 29 -154 90 -154c47 0 64 15 87 52zM200 436c-57 0 -88 -55 -88 -148h87c53 0 74 25 74 74s-24 74 -73 74zM337 700
l-95 -142h-86l-95 142h77l61 -97l61 97h77z" />
    <glyph glyph-name="amacron.ss01" horiz-adv-x="423" 
d="M291 450v50h80v-500h-80v44c-21 -35 -55 -52 -102 -52c-103 0 -157 90 -157 226v66c0 141 61 224 157 224c47 0 81 -19 102 -58zM202 64c59 0 89 51 89 154v73c0 89 -34 145 -89 145c-59 0 -90 -56 -90 -152v-66c0 -91 30 -154 90 -154zM317 600h-219v72h219v-72z" />
    <glyph glyph-name="emacron.ss01" horiz-adv-x="395" 
d="M289 116l59 -41c-28 -60 -71 -83 -143 -83c-113 0 -173 85 -173 226v66c0 141 61 224 168 224c100 0 153 -59 153 -146s-52 -144 -151 -144h-90c0 -92 29 -154 90 -154c47 0 64 15 87 52zM200 436c-57 0 -88 -55 -88 -148h87c53 0 74 25 74 74s-24 74 -73 74zM314 600
h-219v72h219v-72z" />
    <glyph glyph-name="edotaccent.ss01" horiz-adv-x="395" 
d="M289 116l59 -41c-28 -60 -71 -83 -143 -83c-113 0 -173 85 -173 226v66c0 141 61 224 168 224c100 0 153 -59 153 -146s-52 -144 -151 -144h-90c0 -92 29 -154 90 -154c47 0 64 15 87 52zM200 436c-57 0 -88 -55 -88 -148h87c53 0 74 25 74 74s-24 74 -73 74zM248 600
h-88v90h88v-90z" />
    <glyph glyph-name="afii10065.var.accented.ss01" horiz-adv-x="423" 
d="M291 450v50h80v-500h-80v44c-21 -35 -55 -52 -102 -52c-103 0 -157 90 -157 226v66c0 141 61 224 157 224c47 0 81 -19 102 -58zM202 64c59 0 89 51 89 154v73c0 89 -34 145 -89 145c-59 0 -90 -56 -90 -152v-66c0 -91 30 -154 90 -154zM230 567h-69l54 158h89z" />
    <glyph glyph-name="afii10070.var.accented.ss01" horiz-adv-x="395" 
d="M289 116l59 -41c-28 -60 -71 -83 -143 -83c-113 0 -173 85 -173 226v66c0 141 61 224 168 224c100 0 153 -59 153 -146s-52 -144 -151 -144h-90c0 -92 29 -154 90 -154c47 0 64 15 87 52zM200 436c-57 0 -88 -55 -88 -148h87c53 0 74 25 74 74s-24 74 -73 74zM224 567
h-69l54 158h89z" />
    <glyph glyph-name="afii10074.var.accented.ss01" horiz-adv-x="425" 
d="M293 500h80v-500h-80v49c-20 -37 -44 -57 -99 -57c-95 0 -142 65 -142 196v312h80v-311c0 -93 28 -123 77 -123c52 0 84 45 84 122v312zM242 567h-69l54 158h89z" />
    <glyph glyph-name="afii10071.var.accented.ss01" horiz-adv-x="395" 
d="M289 116l59 -41c-28 -60 -71 -83 -143 -83c-113 0 -173 85 -173 226v66c0 141 61 224 168 224c100 0 153 -59 153 -146s-52 -144 -151 -144h-90c0 -92 29 -154 90 -154c47 0 64 15 87 52zM200 436c-57 0 -88 -55 -88 -148h87c53 0 74 25 74 74s-24 74 -73 74zM161 600
h-88v90h88v-90zM315 600h-88v90h88v-90zM229 717h-69l54 158h89z" />
    <glyph glyph-name="uni04E3.ss01" horiz-adv-x="425" 
d="M293 500h80v-500h-80v49c-20 -37 -44 -57 -99 -57c-95 0 -142 65 -142 196v312h80v-311c0 -93 28 -123 77 -123c52 0 84 45 84 122v312zM322 600h-219v72h219v-72z" />
    <glyph glyph-name="afii10193.ss01" horiz-adv-x="425" 
d="M293 500h80v-500h-80v49c-14 -27 -33 -44 -56 -51v-115h-80v113c-70 16 -105 80 -105 192v312h80v-311c0 -93 28 -123 77 -123c52 0 84 45 84 122v312z" />
    <glyph glyph-name="aacute.ss01" horiz-adv-x="423" 
d="M291 450v50h80v-500h-80v44c-21 -35 -55 -52 -102 -52c-103 0 -157 90 -157 226v66c0 141 61 224 157 224c47 0 81 -19 102 -58zM202 64c59 0 89 51 89 154v73c0 89 -34 145 -89 145c-59 0 -90 -56 -90 -152v-66c0 -91 30 -154 90 -154zM230 567h-69l54 158h89z" />
    <glyph glyph-name="agrave.ss01" horiz-adv-x="423" 
d="M291 450v50h80v-500h-80v44c-21 -35 -55 -52 -102 -52c-103 0 -157 90 -157 226v66c0 141 61 224 157 224c47 0 81 -19 102 -58zM202 64c59 0 89 51 89 154v73c0 89 -34 145 -89 145c-59 0 -90 -56 -90 -152v-66c0 -91 30 -154 90 -154zM102 725h91l55 -158h-72z" />
    <glyph glyph-name="afii10091.ss01" horiz-adv-x="674" 
d="M578 -117v117h-56v49c-19 -38 -52 -57 -98 -57c-59 0 -97 26 -115 79c-25 -53 -64 -79 -119 -79c-85 0 -138 64 -138 196v312h80v-311c0 -82 26 -123 77 -123c47 0 78 41 78 122v312h80v-311c0 -82 26 -123 77 -123c47 0 78 43 78 122v312h80v-428h56v-189h-80z" />
    <glyph glyph-name="afii10090.ss01" horiz-adv-x="654" 
d="M522 500h80v-500h-80v49c-19 -38 -52 -57 -98 -57c-59 0 -97 26 -115 79c-25 -53 -64 -79 -119 -79c-85 0 -138 64 -138 196v312h80v-311c0 -82 26 -123 77 -123c47 0 78 41 78 122v312h80v-311c0 -82 26 -123 77 -123c47 0 78 43 78 122v312z" />
    <glyph glyph-name="afii10088.ss01" horiz-adv-x="445" 
d="M429 -117h-80v117h-56v49c-20 -37 -44 -57 -99 -57c-95 0 -142 65 -142 196v312h80v-311c0 -93 28 -123 77 -123c52 0 84 45 84 122v312h80v-428h56v-189z" />
    <glyph glyph-name="uni2193.ss02" horiz-adv-x="826" 
d="M413 -107l-353 353l55 55l259 -259v586h78v-586l259 259l55 -55z" />
    <glyph glyph-name="egrave.ss01" horiz-adv-x="395" 
d="M289 116l59 -41c-28 -60 -71 -83 -143 -83c-113 0 -173 85 -173 226v66c0 141 61 224 168 224c100 0 153 -59 153 -146s-52 -144 -151 -144h-90c0 -92 29 -154 90 -154c47 0 64 15 87 52zM200 436c-57 0 -88 -55 -88 -148h87c53 0 74 25 74 74s-24 74 -73 74zM104 725h91
l55 -158h-72z" />
    <glyph glyph-name="aring.ss01" horiz-adv-x="423" 
d="M291 450v50h80v-500h-80v44c-21 -35 -55 -52 -102 -52c-103 0 -157 90 -157 226v66c0 141 61 224 157 224c47 0 81 -19 102 -58zM202 64c59 0 89 51 89 154v73c0 89 -34 145 -89 145c-59 0 -90 -56 -90 -152v-66c0 -91 30 -154 90 -154zM93 646c0 61 49 110 109 110
c61 0 110 -49 110 -110c0 -60 -49 -109 -110 -109c-60 0 -109 49 -109 109zM145 646c0 -31 26 -57 57 -57c32 0 57 26 57 57c0 32 -25 57 -57 57c-31 0 -57 -25 -57 -57z" />
    <glyph glyph-name="adieresis.ss01" horiz-adv-x="423" 
d="M291 450v50h80v-500h-80v44c-21 -35 -55 -52 -102 -52c-103 0 -157 90 -157 226v66c0 141 61 224 157 224c47 0 81 -19 102 -58zM202 64c59 0 89 51 89 154v73c0 89 -34 145 -89 145c-59 0 -90 -56 -90 -152v-66c0 -91 30 -154 90 -154zM180 600h-88v90h88v-90zM334 600
h-88v90h88v-90z" />
    <glyph glyph-name="atilde.ss01" horiz-adv-x="423" 
d="M291 450v50h80v-500h-80v44c-21 -35 -55 -52 -102 -52c-103 0 -157 90 -157 226v66c0 141 61 224 157 224c47 0 81 -19 102 -58zM202 64c59 0 89 51 89 154v73c0 89 -34 145 -89 145c-59 0 -90 -56 -90 -152v-66c0 -91 30 -154 90 -154zM261 589c-13 0 -31 5 -52 14
c-21 10 -38 15 -50 15c-19 0 -36 -9 -49 -28l-45 40c26 37 58 55 95 55c13 0 30 -5 51 -15c22 -9 39 -14 52 -14c17 0 33 9 47 28l45 -40c-27 -37 -58 -55 -94 -55z" />
    <glyph glyph-name="acircumflex.ss01" horiz-adv-x="423" 
d="M291 450v50h80v-500h-80v44c-21 -35 -55 -52 -102 -52c-103 0 -157 90 -157 226v66c0 141 61 224 157 224c47 0 81 -19 102 -58zM202 64c59 0 89 51 89 154v73c0 89 -34 145 -89 145c-59 0 -90 -56 -90 -152v-66c0 -91 30 -154 90 -154zM70 558l95 142h86l95 -142h-77
l-61 97l-61 -97h-77z" />
    <glyph glyph-name="afii10084.ss01" horiz-adv-x="654" 
d="M132 0h-80v500h80v-49c19 38 51 57 96 57c57 0 96 -26 117 -79c25 53 64 79 117 79c84 0 140 -69 140 -196v-312h-80v311c0 82 -26 123 -77 123c-47 0 -78 -41 -78 -122v-312h-80v311c0 82 -26 123 -77 123c-47 0 -78 -43 -78 -122v-312z" />
    </font>
</defs>
</svg>
