<svg xmlns="http://www.w3.org/2000/svg" width="304" height="296">
  <defs/>
  <g fill="none" fill-rule="evenodd">
    <path fill="#FDF5F5" d="M150.68 0h10.64C240.12 0 304 66.26 304 148s-63.88 148-142.68 148h-10.64C71.88 296 8 229.74 8 148S71.88 0 150.68 0z" opacity=".7"/>
    <path fill="#FCDADB" d="M.62 64.86c5.56-13.76 9.96 0 17.53-8.58 7.6-8.63 6.53-21.56 17.36-7.78 5.24 6.67 9.38-18.39 20.1-16.39s-2.24 16.4 10.05 16.4 12.28-11.35 20.61 1.75 5.29 6.02 15.16 6.02 11.79 2.97 11.79 8.58c-105.18.04-92.73.17-112.6 0z">
      <animateTransform attributeName="transform" attributeType="XML" begin="0s" dur="2.31s" repeatCount="indefinite" type="translate" values="200 0 ; 0 0"/>
      <animate attributeName="opacity" begin="0s" dur="2.31s" repeatCount="indefinite" values="0 ; 1 ; 1 ; 1 ; 1 ; 1 ; 0"/>
    </path>
    <path fill="#FCDADB" d="M226 97.87c0-3.52 9.91-1.23 16.36-6.38 6.45-5.16 5.83-17.49 15.05-17.49 12.92 0 1.41 17.74 6.06 17.74 4.64 0-.16-10.36 6.57-10.36 5.25 0 9.9 12 13.04 13.5 6.87 3.27 12.92.6 12.92 3-5.21.16-4.5.16-70 0z">
      <animateTransform attributeName="transform" attributeType="XML" begin="0s" dur="1.83s" repeatCount="indefinite" type="translate" values="20 0 ; -220 0"/>
      <animate attributeName="opacity" begin="0s" dur="1.83s" repeatCount="indefinite" values="0 ; 1 ; 1 ; 1 ; 1 ; 1 ; 0"/>
    </path>
    <path fill="#BFA7A7" d="M133.53 195.95c-6.57 2.89-8.83 5.92-6.79 9.1.26.4 6.16 5.36 6.47 5.77 5.94 7.83 5.97 8.7 7.69 8.91 1.72.22 2 .73-1.29-12.32s48.08-49.84 47.87-51.87c-.17-1.58-4-1-10.99-2.46-19.89 11.57-20.27 12.9-29.74 17.66-3.05 1.53-.59 4.59-4.44 11.27-2.56 4.45-5.5 9.1-8.78 13.94z"/>
    <path fill="#E1E1E1" d="M133.53 195.96c-6.57 2.88-8.83 5.91-6.79 9.1.26.4 6.16 5.35 6.47 5.76 5.94 7.83 5.97 8.7 7.69 8.91 1.72.22 2 .73-1.29-12.32-.57-2.28-4.83-2.35-5.38-3.96-1.04-3.02-1.27-5.51-.7-7.5z"/>
    <path fill="#1961B7" d="M121 113c45.78 25.64 68.1 40.37 66.96 44.21-4.42-.39-13.06.79-20.95 4.79-8-8.42-30.93-6.03-37.1-14.1-4.1-5.37-7.08-17-8.91-34.9z"/>
    <g fill="#F67E83" transform="translate(23 108)">
      <path fill-rule="nonzero" d="M50.87 65.97a47.8 47.8 0 00-47.84 47.78 47.8 47.8 0 0047.84 47.78c26.41 0 47.83-21.39 47.83-47.78S77.28 65.97 50.86 65.97zm0 1.05a46.76 46.76 0 0146.78 46.73 46.76 46.76 0 01-46.79 46.74c-25.84 0-46.78-20.93-46.78-46.74s20.94-46.73 46.78-46.73zm167.8-1.05a47.8 47.8 0 00-47.83 47.78c0 26.39 21.42 47.78 47.83 47.78s47.84-21.39 47.84-47.78-21.42-47.78-47.84-47.78zm0 1.05a46.76 46.76 0 0146.8 46.73 46.76 46.76 0 01-46.8 46.74c-25.84 0-46.78-20.93-46.78-46.74s20.94-46.73 46.78-46.73z"/>
      <path fill-rule="nonzero" d="M25.42 54.22l-1.53.57-.25.1c-.72.27-1.35.53-1.95.8-2.45 1.12-4.17 2.36-5.12 3.94-1.2 2.02-.98 4.4.86 7.16.94 1.4 2.62 3.42 5.03 6.05l.53.57.83.9.59.61.3.32.62.65.31.33.66.67.67.7.7.71.72.73.74.75.76.77.79.79.8.8.84.83.42.42.87.85.44.44.9.88.92.9.95.92.97.93.99.96.5.49 1.02.98 1.05 1 1.07 1.03 1.09 1.04 1.11 1.06 1.14 1.07 1.16 1.1 1.18 1.12 1.82 1.7 1.23 1.17 1.26 1.18 1.94 1.8 1.7 1.6 18.86-20.69L94.9 69.24l-.51-.41C82.42 59.09 73.26 54.2 66.83 54.2h-1.08l-.8-.02h-.79l-1.56-.04-3.3-.1-10.3-.3-2.26-.06-1.49-.03-1.42-.04-1.71-.03-1.31-.02-1.26-.02-1.2-.01-.86-.01h-4.13l-.45.01-.45.01-.64.02h-.41l-.4.02-.4.01-.36.02-.37.02-.35.02-.33.02-.33.02-.31.02-.15.01-.3.03-.27.02-.14.02-.26.02-.25.03-.24.04-.23.03-.21.03-.2.04c-.36.07-.66.14-.9.23zm-1.04 1.5l1.34-.5c.26-.1.63-.19 1.1-.26l.21-.04.23-.03.11-.01.24-.03.13-.01.26-.03.13-.01.28-.02.15-.02.3-.02H29l.32-.03.5-.02.35-.02.37-.02.37-.01.6-.02.4-.01.42-.01.66-.01h.45l.7-.02h3.97l1.18.02 1.23.02.96.01 1.32.03 1.38.03 1.43.03 2.22.06 4.5.13 7.45.22 2.57.07 2 .04 1.19.02H67c5.93.1 14.51 4.6 25.68 13.54l.53.43L74.2 84.16 56 104.12l-.92-.86-1.93-1.8-1.26-1.18-1.23-1.16-1.21-1.14-1.2-1.12-1.16-1.1-1.14-1.09-1.13-1.06-1.1-1.05-1.07-1.03-1.06-1-1.03-1-1-.97-1-.95-.96-.94-.94-.92-.92-.9-.9-.87-.87-.86-.85-.84-.42-.42-.82-.8-.4-.4-.78-.8-.77-.76-.74-.74-.71-.73-.35-.36-.69-.7-.33-.34-.65-.68-.62-.65-.6-.63-.59-.62-.56-.6-.54-.57a58.83 58.83 0 01-5.24-6.27c-1.64-2.44-1.82-4.4-.83-6.04.8-1.36 2.38-2.5 4.66-3.53.2-.1.42-.19.64-.28l.34-.14.53-.22.56-.21.18-.07z"/>
      <path fill-rule="nonzero" d="M41.68 53.86l.97.38c-2.24 5.69-1.63 10.33 1.8 14.02l.1.1 23.8 22.12-.72.76-23.81-22.13-.03-.02c-3.78-3.98-4.5-9.03-2.18-15.05l.07-.18z"/>
      <path fill-rule="nonzero" d="M.39 94.9C13.05 70.9 30.85 59.62 53.66 61.18c15.58 1.07 28.03 7.33 36.83 17.18 7.04 7.89 11.17 17.73 11.17 24.95a.52.52 0 01-1.04 0c0-6.95-4.03-16.55-10.9-24.25C81.1 69.4 68.9 63.27 53.6 62.23c-22.39-1.53-39.8 9.5-52.29 33.16a.52.52 0 01-.92-.49z"/>
      <path fill-rule="nonzero" d="M91.37 27.09h1.01l.75.01h.48l.7.02.7.02.44.01.43.02.65.02.41.02.61.03.4.03.4.02.37.03.38.03.37.03.18.01.36.04.35.03.34.03.34.04.33.04.32.04.32.04.31.05.3.04.3.05.16.02-.17 1.03-.3-.04-.29-.05-.3-.04-.31-.04-.32-.04-.32-.04-.33-.04-.33-.04-.34-.03-.35-.03-.35-.03-.37-.03-.37-.03-.37-.03-.39-.02-.39-.02-.4-.03-.61-.03-.42-.01-.43-.02-.44-.01-.44-.01-.69-.02h-.46l-.72-.02h-2.62l-.43.02-.42.01-.4.02h-.2l-.4.03c-5.5.37-7.67 1.82-7.38 4 .14 1.06.77 2.23 1.79 3.5l.17.2c.23.3.49.58.76.87l.2.22.55.56.23.23.24.23.12.11.24.23.25.23.13.12c1.5 1.37 3.93 1.97 7.32 1.76l.3-.02.32-.02.63-.07.33-.03.33-.05.51-.07.34-.05.35-.06.65-.1 23.2 83.02-3.96-.36-4.15-.37-2.02-.19-2.96-.27-2.88-.27-2.8-.26-2.72-.26-2.64-.25-2.56-.25-1.66-.16-2.42-.24-2.34-.23-3-.3-1.45-.16-2.1-.22-2.02-.21-1.3-.14-1.89-.2-1.2-.14-1.18-.14-.58-.06-1.12-.13-1.09-.13-1.05-.12-.51-.06-1-.13-.96-.12-.93-.11-.89-.12-.85-.11-.41-.06-.8-.1-.77-.12-.73-.1-.69-.1-.97-.16-.6-.1c-1.18-.19-2.13-.37-2.87-.54-6.59-1.48-6.65-5.5-.44-11.38l.2-.18.7.77c-5.88 5.48-5.88 8.5-.23 9.78.8.18 1.84.37 3.14.58l.62.1.65.1.34.05.71.1.74.11.39.05.8.11.83.12.87.1.9.13.95.11.97.12.5.07 1.04.12 1.61.19 1.7.2 1.17.13 1.2.13 1.26.14 1.28.14 1.31.14 2.05.21 1.4.15 2.18.22 2.26.23 1.55.16 2.4.24 2.47.24 2.55.25 2.64.25 2.72.25 1.85.18 1.9.18 2.9.26 4 .37 2.04.19 3.15.28 1.39.12L96.02 41.2l-.25.04-.36.05c-.58.09-1.15.15-1.7.2l-.32.02-.16.01-.32.03c-3.52.18-6.14-.47-7.84-1.98l-.08-.07-.13-.12-.27-.25-.26-.24-.25-.24-.24-.24c-2.21-2.19-3.6-4.15-3.86-6.05-.44-3.4 3.14-5.26 11.39-5.26z"/>
      <path fill-rule="nonzero" d="M103.24 63.22l.55.89-9.58 5.93-.55-.89zm85.9-52.69l.1 1.04c-7.7.73-11.43 2.83-11.43 6.18 0 .42.12 1.12.34 2.09l.08.35.1.38.1.4.1.41.12.44.13.46.06.24.14.49.15.5.15.54.17.55.17.57.18.59.18.6.2.63.2.65.21.66.33 1.03.23.7.24.73.24.75.38 1.15.4 1.18.4 1.22.43 1.26.3.86.44 1.32.47 1.35.48 1.38.32.94.5 1.44.88 2.46.53 1.52.56 1.55.37 1.05 2.02 5.58.34.93.68 1.88.76 2.05.96 2.61.82 2.21.68 1.83.81 2.16.67 1.77.92 2.43.9 2.37.63 1.63.73 1.9.6 1.54.46 1.19.46 1.15.43 1.1.53 1.34.51 1.26.39.96.28.69.36.87.34.82.08.2c4.43 10.55 9.57 18.95 15.41 25.2l.2.2-.77.72c-5.95-6.3-11.17-14.75-15.65-25.37l-.32-.76-.27-.64-.37-.9-.48-1.2-.41-1-.43-1.07-.44-1.1-.56-1.44-.47-1.2-.73-1.87-.75-1.94-.64-1.67-.66-1.72-.8-2.11-.82-2.17-.7-1.83-.97-2.61-.84-2.27-.56-1.52-.85-2.3-.76-2.09c-.92-2.5-1.82-5-2.7-7.46l-.57-1.59-.74-2.07-.53-1.52-.53-1.48-.5-1.46-.5-1.41-.63-1.84-.46-1.34-.45-1.3-.28-.86-.28-.83-.28-.81-.4-1.2-.38-1.15-.36-1.12-.35-1.07-.22-.7-.21-.67-.21-.66-.2-.64-.2-.62-.17-.6-.18-.59-.17-.56-.16-.55-.15-.52-.14-.5-.13-.5-.13-.46-.06-.22-.11-.43-.06-.21-.1-.4-.09-.39a12.96 12.96 0 01-.41-2.52c0-4.04 4.11-6.4 12.12-7.2l.25-.02zM62.74 108.2l-.75.1-.7.11-.5.08-.48.08-.34.06-.31.06-.3.05-.27.06-.26.05-.16.04-.22.05-.2.05-.13.04-.11.03-.1.04c-.62.2-.91.39-.8.81.07.26.28.4.68.5l.12.03.07.01.14.03.11.02.19.03.13.02.2.03.16.02.16.01.25.03.37.03.19.02.41.03.33.02.47.03.63.03.4.02.7.03.92.03.65.02 1.03.02.92.02.96.01.81.01 1.27.01 1.12.01h2.87c12.07 0 21.03 2.7 27.44 7.22a26.87 26.87 0 014.63 4.1 21.5 21.5 0 011.87 2.38l.2.3a18.91 18.91 0 004.86 5.24c3.04 2.22 6.8 3.48 11.42 3.48 6.95 0 11.24-3.76 12.8-11.17 1.62-7.43-2.38-13-11.87-16.65-9.42-3.61-30.05-2.83-61.98 2.32zm61.7-1.59c9.16 3.52 12.91 8.75 11.39 15.76-1.5 7.06-5.48 10.54-12.04 10.54-4.46 0-8.06-1.2-10.96-3.32a17.95 17.95 0 01-4.56-4.88l-.21-.32-.21-.3-.1-.14-.2-.28c-.45-.64-.9-1.2-1.52-1.9a27.63 27.63 0 00-4.76-4.21c-6.48-4.56-15.49-7.3-27.53-7.35h-2.22l-1.52-.02h-1.43l-1.53-.03-.9-.01-1.18-.02-.94-.03-.74-.02-.95-.04-.63-.03-.47-.02-.66-.04-.5-.03-.18-.02-.35-.03-.24-.02-.15-.02-.22-.02-.2-.03-.18-.02-.08-.02.13-.03.22-.05.16-.04.25-.05.28-.06.3-.06.44-.07.47-.08.52-.09.55-.08.6-.09.46-.06c31.8-5.13 52.35-5.91 61.58-2.37z"/>
      <path fill-rule="nonzero" d="M97.82 97.03a.52.52 0 01.67-.22l.04.01 12.48 6.91 9.58 17.28a.52.52 0 01-.9.54l-.01-.04-9.44-17.01-12.22-6.76a.52.52 0 01-.22-.68l.02-.03z"/>
      <path fill-rule="nonzero" d="M119.83 121.7a.52.52 0 01.7.05l.03.03 15.25 19.39h13.86c.27 0 .5.2.52.48v.04c0 .27-.21.5-.48.52H135.3l-15.56-19.78a.52.52 0 01.09-.74z"/>
      <path fill-rule="nonzero" d="M119.05 112.77c3.1-.45 5.87.53 8.77 3.38a8.51 8.51 0 012.5 4.03c.22.94.23 1.71.1 2.86l-.04.29-.02.18-.03.25-.01.15-.02.14v.13l-.02.11v.52l.02.07c.02.16.08.28.16.4l.03.04c.2.27.61.48 1.28.64l.15.03.08.01.16.03.18.03.18.03.2.02.2.02.2.02.22.02.23.01.12.01-.04.78-.25-.01-.13-.01-.23-.02-.12-.01-.22-.02-.22-.03-.2-.03c-1.25-.18-2-.5-2.41-1.04l-.03-.04-.05-.07a1.77 1.77 0 01-.3-1.17v-.2l.01-.14v-.07l.02-.15.03-.25.04-.38.02-.1c0-.09.02-.18.03-.26l.03-.25c.1-.94.07-1.59-.12-2.35-.3-1.22-1-2.41-2.28-3.66-2.73-2.69-5.25-3.58-8.11-3.16-1.06.15-2.19.49-3.52 1.02l-.24.1-.24.1-.25.1-.39.17-.28.13-.29.13-.96.44-1.1.5-.58.26-.52.23-.12.06c-4.18 1.81-10.25.94-18.23-2.57l-.25-.11.32-.71.94.4.47.2.9.37.46.18c6.55 2.54 11.58 3.04 15.08 1.52l.25-.11.38-.17.86-.4 1.63-.74.3-.13.29-.13.4-.18.4-.16.24-.1.24-.1a16.2 16.2 0 013.7-1.08zm35.9-13.33l.41.96-.6.25-.58.25-.58.25-.86.36-.57.23-.55.23-.28.11-.55.22-.54.22-.53.21-.52.2-.52.2-.51.2-.26.1-.5.19-.49.18-.49.18-.48.17-.47.17-.46.17-.46.16-.45.15-.45.15-.43.14-.22.07-.42.14-.21.06c-.4.13-.82.24-1.26.36l-.3.07-.45.1-.31.07-.32.07-.33.07-.33.06-.34.06-.35.06-.35.06-.36.06-.18.02-.37.06-.37.05-.38.05-.4.04-.39.05-.4.05-.2.02-.41.04-.42.04-.43.04-.43.03-.44.04-.22.01-.45.04-.45.03-.7.04-.47.02-.47.03-.49.02-.49.02-.5.02-.5.01-.51.02-.52.01-.52.01-.53.01-.02-1.04h.26l.78-.02.76-.02.5-.02.5-.02.49-.01.48-.03.47-.02.7-.03.46-.03.45-.03.44-.03.44-.03.43-.04.43-.03.41-.04.42-.04.4-.04.4-.04.2-.02.38-.05.39-.04.37-.05.18-.03.37-.05.36-.05.35-.06.17-.02.35-.06.33-.06.33-.06.16-.03.32-.07.3-.06.16-.03.3-.07.59-.14.28-.07.14-.04.27-.08.52-.15.41-.13.42-.14.42-.14.43-.14.22-.07.44-.15.45-.16.46-.16.46-.17.47-.17.47-.17.48-.18.5-.19.49-.19.5-.2.5-.2.53-.2.52-.2.53-.22.53-.22.82-.33.56-.23.56-.24.57-.24.57-.24.58-.25z"/>
      <path fill-rule="nonzero" d="M185.23 45.23l.26 1.02c-11.64 2.94-23.92 24.92-28.43 49.58l-.13.75c-2.82 16.04-10.4 26.2-22.72 30.37l-.38.13-.32-1c12.02-3.93 19.45-13.64 22.3-29.2l.09-.48c4.42-25.08 16.8-47.6 28.96-51.07l.37-.1zm-21.68 67.75c5.07-35.63 25.14-53 60.08-51.98l1.06.04-.04 1.05c-34.7-1.38-54.62 15.24-59.9 49.98l-.16 1.06-1.04-.15zM201.17 4.01c4.71-3.59 16.1-4.45 34.26-2.63l1.6.16-.86.6c-4.96 3.47-8.67 16.8-11.04 39.88l-.07.7-.04.4-24-2.38v-.83l-.01-.58-.01-.64-.01-.68-.02-.96v-.5c-.08-2.86-.2-5.73-.38-8.4l-.03-.44-.04-.43-.03-.42-.03-.4-.04-.41-.04-.4-.05-.59-.04-.38-.06-.56-.04-.37-.04-.35-.05-.35-.04-.34-.07-.5-.05-.33-.04-.31-.05-.3-.03-.16-.05-.3-.05-.28-.05-.28-.05-.27-.05-.26-.05-.25-.06-.24-.05-.24-.06-.23-.05-.21-.06-.21-.06-.2-.03-.1-.06-.18-.06-.18c-.32-.93-.68-1.44-1.05-1.44-1.89 0-4.15-1.02-6.8-3.03l-.28-.21-.69-.55-.28-.24a37.8 37.8 0 01-.86-.74l-.14-.13.52-.58.28.25.28.25.28.23.27.23.14.12.27.22.8.61.25.2.39.27.25.18c2.08 1.43 3.86 2.14 5.32 2.14.94 0 1.64 1.13 2.19 3.28l.06.27.1.4.05.3.06.29.06.3.06.32.05.33.05.33.06.34.05.35.05.37.04.37.05.38.05.38.04.4.05.4.04.42.04.43.04.43.04.44.05.68.04.47.05.7.02.25c.17 2.5.3 5.19.36 7.87l.02.83.02.97.01.7.01.86v.7l22.53 2.23.03-.32c2.27-22.15 5.77-35.39 10.59-39.8l.01-.01-.14-.02c-17.45-1.7-28.49-.87-33.03 2.43l-.02.01-1.69 9.36-.77-.14 1.75-9.66.12-.09z"/>
      <path fill-rule="nonzero" d="M171.2 10.55l15.82-5.04 4.03 6.58-.9.54-3.6-5.88-15.03 4.8z"/>
      <ellipse cx="50.47" cy="113.88" rx="5.88" ry="5.87"/>
      <ellipse cx="218.54" cy="113.88" rx="4.31" ry="4.18"/>
    </g>
    <g>
      <path fill="#F5D7D7" d="M137.46 57.91l9.46-25.8h16.22l2.15 2.73h-2.16c-2.28 6.74-6 9.37-11.17 7.88-1.1 3.2-3.83 13.44-8.2 30.71l-6.3-15.52z"/>
      <path fill="#FFEECD" d="M146.91 24.3c-3.3 9.12-7.55 11.37-12.74 6.77-7.8-6.9-7.51-14.07-17.72-14.07S90.47 28.46 86.6 33.16c-3.88 4.69 26.35-18.92 25.32-7.97-1.02 10.96-4.83 17.3 7.17 21.1 12 3.8 29.93-7.14 31.5-10.14 1.05-2 2.28-5.04 3.68-9.14l-7.35-2.71z"/>
      <path fill="#BFA7A7" d="M146.91 38.89l5.25 3.86-.2-.06a399 399 0 01-1.19 3.5l-3.86-7.3z"/>
      <path fill="#F67E83" d="M145.29 61.52c-3.19-5.55-4.32-9.16-4.43-14.19-.03-2.93-11.7 11.03-18.65 26.46-9.59 21.31-17.4 34.78-23.41 40.4l23.41-.03c7.64-7.36 12.93-11.78 15.87-13.25 8.5-4.26 15.85-8.08 19.1-12.77 4.95-7.12 6.02-9.39 3.22-6.8-7.95-9.51-12.99-16.12-15.11-19.82z"/>
      <path fill="#D8232A" d="M145.1 61.52a308.74 308.74 0 0116.41 19.02c-2.3 4.11-6.72 8.89-13.27 14.32-.5-.74-1.01-1.51-1.51-2.32-7.23-11.6-7.78-21.95-1.64-31.02z"/>
      <path fill="#BFA7A7" d="M146.91 32.07l17.85 2.13-2.8-3.65z"/>
      <path fill="#F5D7D7" d="M182.62 109.54c2.04 5.46 6.08 7.7 12.14 6.73 9.09-1.46 9.09 1.31 11.06 1.31 1.97 0 3.6-4.16-12.52-8.04-6.7-1.28-10.26-2.77-10.68-4.46v4.46zM155.84 233.8c-.15 11.76 1.68 17.5 5.48 17.18.48-.04 7.69-2.92 8.2-3 9.78-1.57 10.58-1.19 11.58-2.6 1-1.42-.67.6-11.58-4.64-10.92-5.24-9.3-22.52-9.27-26.49-.11-7.23-.38-30.9-3.82-34.18-1.36-.85-12.67-19.75-15.17-14.07-7.28 16.54-21.34-10.44-21.38-4.3-.02 2.18 26.07 31.96 26.08 34.78 0 3.4 1.1 11.44 3.26 24.12l6.62 13.2z"/>
      <path fill="#F0F0F0" d="M156.46 240.63c-.54 7.22 1.08 10.66 4.88 10.35.49-.04 7.68-2.95 8.2-3.03 9.77-1.59 10.56-1.2 11.56-2.63s1.59-1.43-11.57-4.69c-2.3-.56-4.38 3.2-6.07 2.93-3.17-.5-5.5-1.48-7-2.93z"/>
      <path fill="#F67E83" d="M142.9 58.1a300.76 300.76 0 0054.94 50.29c-11.39 9.1-23.54 8.7-40.35-9.87-11.2-12.37-16.07-25.84-14.6-40.41z"/>
      <path fill="#3587EA" d="M142.11 32.37l24.49-1.84c-4.78-9.51-11.81-13.59-21.1-12.23-4.68.82-5.81 5.52-3.39 14.07z"/>
      <path fill="#3587EA" fill-rule="nonzero" d="M150.26 31.51a.66.66 0 011.3.16 40.95 40.95 0 00-.3 3.31v.35c-.16 4.62.9 6.82 3 6.82.36 0 .66.29.66.65 0 .36-.3.65-.66.65-3.76 0-4.99-4.12-4-11.94z"/>
      <path fill="#3587EA" d="M99.48 113.67c-3.85 6.26-5.77 11.53-5.77 15.81 0 6.43 2.73 10.88 17.43 24.23 1.4 1.29 19.62 19.8 29.73 36.33 9.74-6.8 9.32-7.18 15.23-9.97-.16-.33-11.7-22.46-34.65-66.4H99.48z"/>
    </g>
  </g>
</svg>
