<svg xmlns="http://www.w3.org/2000/svg" width="297" height="297">
  <defs/>
  <path fill="#fdf5f5" fill-rule="evenodd" d="M142.68 1h10.64C232.12 1 296 67.26 296 149s-63.88 148-142.68 148h-10.64C63.88 297 0 230.74 0 149S63.88 1 142.68 1z" opacity=".7"/>
  <path fill="#fcdadb" fill-rule="evenodd" d="M78.98 38.52c28.22-3.96 44.64-5.12 35.95-12.57-8.74-7.48-46.8-17.94-18.27-5.28 10.8 4.79-49.64-15.62-42.7-10.67 6.93 4.96 25 13.15 12.84 14.86-12.17 1.71-58.55-3.81-58.9 1-.33 4.8 45.45 3.29 35.67 4.66-9.78 1.38 33.48 1.48-21.6 17.16 104.17-14.6 37.35-6.23 57-9.16z" opacity="0">
    <animateTransform attributeName="transform" attributeType="XML" dur="1.23s" repeatCount="indefinite" type="translate" values="180 30 ; 0 30 ; 0 30"/>
    <animate attributeName="opacity" dur="1.23s" repeatCount="indefinite" values="0 ; 1 ; 1 ; 1 ; 1 ; 1 ; 0 ; 0;0;0;0;0"/>
  </path>
  <path fill="#fcdadb" fill-rule="evenodd" d="M296.45 34.87c0-3.52-9.92-1.23-16.36-6.38C273.64 23.33 236.26 16 227.04 16c-12.92 0 36.58 12.74 31.94 12.74-4.64 0-37.84-5.36-44.58-5.36-5.24 0 28.11 7 24.97 8.5-6.87 3.27-26.37-2.4-26.37 0 5.22.17 17.95 3.16 83.45 3z" opacity="0">
    <animateTransform attributeName="transform" attributeType="XML" begin="0.21s" dur="0.97s" repeatCount="indefinite" type="translate" values="10 0 ; -200 0 ; -200 0"/>
    <animate attributeName="opacity" begin="0.21s" dur="0.97s" repeatCount="indefinite" values="0 ; 1 ; 1 ; 1 ; 1 ; 1 ; 0 ;0;0;0;0;0"/>
  </path>
  <g fill="none" fill-rule="evenodd">
    <path fill="#bfa7a7" d="M120.53 225.92c-6.37 4.4-8.15 8.09-5.32 11.04.36.38 7.64 4.42 8.05 4.79 7.92 7.08 8.13 8 10 7.87 1.87-.13 2.27.36-3.9-12.8-2.73-5.81-.43-10.65 2.94-14.43 4.28-4.79 9.05-11.38 8.7-12.56-.6-1.96-.95-.16-3.49-1.6-1.29-.74-4-2.38-8.16-4.93a39.88 39.88 0 01-2.38 10.18c-1.18 3.02-3.33 7.16-6.44 12.44z"/>
    <path fill="#313131" d="M120.53 225.91c-6.37 4.42-8.15 8.1-5.32 11.05.36.38 7.64 4.42 8.05 4.79 7.92 7.08 8.13 8 10 7.87 1.87-.13 2.27.36-3.9-12.8-1.09-2.31-5.63-1.5-6.55-3.1-1.72-2.99-2.48-5.59-2.28-7.8z"/>
    <path fill="#bfa7a7" d="M128.43 208.5v-3.28a34 34 0 0110.49-24.56l5.85-5.61 24 3.87c-10.6 11.42-18.04 19.88-22.34 25.38a3623.6 3623.6 0 00-20.02 25.98z"/>
    <path fill="#bfa7a7" d="M146.7 194.32c-3.04-4.86-4.8-8.69-5.29-11.49-.55-3.2 4.14-5.84 2.54-9.86-2.01-5.07-8.17-11.56-12.4-19.33-2.33-4.3-6.59-12.21-12.76-23.74l38.78-7.08 5.6 51.04a18.54 18.54 0 01-16.4 20.46z"/>
  </g>
  <g fill="#f67e83" fill-rule="evenodd" transform="translate(22 125)">
    <path fill-rule="nonzero" d="M49.3 55.22C22.36 55.22.5 77.17.5 104.24c0 27.07 21.85 49.02 48.8 49.02 26.97 0 48.82-21.95 48.82-49.02 0-27.07-21.85-49.02-48.81-49.02zm0 1.01c26.4 0 47.81 21.5 47.81 48.01 0 26.51-21.4 48-47.8 48s-47.8-21.49-47.8-48 21.4-48 47.8-48zm154.4-3.04c-26.97 0-48.82 21.95-48.82 49.02 0 27.08 21.85 49.02 48.81 49.02s48.81-21.94 48.81-49.02c0-27.07-21.85-49.02-48.8-49.02zm0 1.02c26.4 0 47.8 21.5 47.8 48 0 26.52-21.4 48.01-47.8 48.01s-47.81-21.5-47.81-48c0-26.52 21.4-48.01 47.8-48.01zM80.8 12.39l33.95 105.02-.96.32L79.84 12.7z"/>
    <path fill-rule="nonzero" d="M90.6 44.74l79.8-15.23L204.16 102l-.92.43-33.4-71.77-78.65 15-43.4 58.88-.8-.6z"/>
    <path fill-rule="nonzero" d="M195.87 11.98l.15.38c3.31 8.1-1.89 14.9-15.32 20.3l-.4.17-.38-.94c13.02-5.15 18.04-11.36 15.34-18.7l-.03-.07-29.14 5.16 7.5 18.82-58.99 80.87-6.08 2.88-61.27-16.12.26-.98 60.91 16.03 5.52-2.61 58.5-80.22-7.75-19.45 31.18-5.52z"/>
    <path fill-rule="nonzero" d="M208.55.5c.32-.06.54.15.6.39.02.1.02.17.01.27l-.01.09-.03.12-.02.1-.04.17-.08.3-.79 2.88-.4 1.47-.2.81-.13.48c-.3 1.18-.56 2.29-.78 3.34l-.06.29-.07.33-.07.33-.1.49-.05.32-.06.3-.05.32-.05.3-.05.3-.05.29-.02.14-.04.28-.02.14-.03.28-.03.27-.03.26-.03.25v.13l-.03.25-.02.24-.01.24v.12l-.02.22v.33l-.01.22v.4l.01.2.02.19.01.18c.05.56.15 1.03.31 1.39l.03.05-.92.43a7.39 7.39 0 01-.47-3.15l.01-.24.01-.25.01-.25.02-.26.02-.26.03-.27v-.14l.04-.28.02-.14.03-.28.04-.3.04-.3.04-.3.05-.3.05-.32.06-.32.03-.17.05-.32.07-.34.06-.34.07-.34.07-.35.04-.18c.22-1.06.48-2.17.77-3.35l.13-.51.12-.44.27-1.02.12-.45-.07.1c-2.3 3.46-5.95 6-10.9 7.64l-.2.06-.3-.96c5.91-1.91 9.85-5.12 11.83-9.62l.3-.7.17-.37.1-.2.06-.13.05-.1.03-.07.03-.05.03-.05.03-.04.03-.03V.69a.5.5 0 01.32-.19z"/>
    <ellipse cx="48.55" cy="104.49" rx="11.73" ry="11.78"/>
    <ellipse cx="45.52" cy="127.04" rx="2.4" ry="2.41"/>
    <path fill-rule="nonzero" d="M203.7 90.05c-6.7 0-12.12 5.45-12.12 12.16 0 6.72 5.42 12.16 12.11 12.16 6.69 0 12.11-5.44 12.11-12.16 0-6.71-5.42-12.16-12.1-12.16zm0 .76c6.26 0 11.34 5.1 11.34 11.4 0 6.3-5.08 11.4-11.35 11.4s-11.35-5.1-11.35-11.4c0-6.3 5.08-11.4 11.35-11.4z"/>
    <ellipse cx="203.69" cy="102.21" rx="2.65" ry="2.53"/>
    <path fill-rule="nonzero" d="M113.89 102.47a12.13 12.13 0 00-12.11 12.16c0 6.71 5.42 12.16 12.1 12.16 6.7 0 12.12-5.45 12.12-12.16 0-6.72-5.42-12.16-12.11-12.16zm0 .76c6.27 0 11.35 5.1 11.35 11.4 0 6.3-5.08 11.4-11.35 11.4s-11.36-5.1-11.36-11.4c0-6.3 5.09-11.4 11.36-11.4z"/>
    <path fill-rule="nonzero" d="M89.02 109.44a.5.5 0 00.12.67l.04.02 12.83 8 12.41-.01a.5.5 0 00.5-.5.5.5 0 00-.46-.51h-.04l-12.12.01-12.59-7.84a.5.5 0 00-.67.12z"/>
    <path fill-rule="nonzero" d="M114.16 118.04a.5.5 0 00.63-.24l.02-.04 9.4-23.96 10.89 7.54c.22.15.51.1.68-.1l.02-.03a.5.5 0 00-.1-.68l-.03-.03-11.92-8.26-9.88 25.15a.5.5 0 00.29.65zm-62.17-4.16l.7-.28 1.54 3.8-9.26 10.44 69.3-1.65.01.76-71.03 1.69 10.1-11.4zm-2.69-12.52l.01-.5 64.37 1.6h.6v.51l-10.05-.24zM62.83 3.9h.04c.05 0 .11 0 .18.03h.05l.13.05.15.05.14.04.32.12.33.12.53.2.82.32.98.4c7.46 2.99 17.69 3.9 30.69 2.73l.4-.04.06.76-1.74.15-.68.05-.35.03-.67.05-.34.02-.67.04-.34.02-.66.03-.33.02-.65.03c-8.8.37-16.18-.36-22.12-2.18l-.2-.06 2.38 1.1 2.82 1.3 3 1.39 3.38 1.53-.32.7-4.26-1.96-3.86-1.77-2.9-1.34-1.17-.55-1.78-.84-.75-.36-.66-.32-.65-.32-.32-.16-.38-.19-.19-.1-.11-.06-.15-.08-.13-.07-.07-.04-.14-.1c-.1-.08-.16-.14-.19-.28a.39.39 0 01.38-.46z"/>
  </g>
  <g fill="none" fill-rule="evenodd">
    <path fill="#f5d7d7" d="M145.15 203.03c-6.3 4.41-8.04 8.1-5.26 11.05.36.38 7.54 4.42 7.95 4.79 7.82 7.08 8.03 8 9.87 7.87 1.84-.13 2.24.36-3.86-12.8-2.68-5.81-.41-10.65 2.91-14.43 4.22-4.8 8.93-11.4 8.58-12.57-.6-1.96-.93-.15-3.43-1.6-1.28-.74-3.96-2.38-8.06-4.93a40.12 40.12 0 01-2.35 10.18c-1.16 3.02-3.28 7.17-6.36 12.44z"/>
    <path fill="#313131" d="M145.15 203.03c-6.3 4.41-8.04 8.1-5.26 11.05.36.38 7.54 4.42 7.95 4.79 7.82 7.08 8.03 8 9.87 7.87 1.84-.13 2.24.36-3.86-12.8-1.06-2.31-5.54-1.5-6.45-3.1-1.7-2.99-2.45-5.6-2.25-7.81z"/>
  </g>
  <path fill="#313131" fill-rule="evenodd" d="M165 38l11.15 1.57.84 1.54 2.92 1.26.09.5-2.72 1.05-.47 1.96L165 46zm-59 60.04L120.12 132H156l-6.26-38z"/>
  <path fill="#f5d7d7" fill-rule="evenodd" d="M217 93.93c4.53-8.09 8.46-12.13 11.78-12.13 4.66 0 16.23-4.81 17.1-7.01 1.47-3.76 6.43-.57 7.97.33 1.27.75 7.3-.06 9.09 8.39.34 1.59-.75 4.78-3.27 9.57l.45 3.25-1.72-1.01c-4.95 4.45-9.14 4.87-12.56 1.23-3.18-2.96-9.83-3.3-16.78-3.44-1.68-.03-3.3 1.66-4.84 5.07zm-64 91.38v-3.25a34 34 0 0110.44-24.51l5.77-5.55 16.72 8.5a519.23 519.23 0 01-15.08 20.63c-4.25 5.47-10.87 14.1-19.85 25.87z"/>
  <path fill="#f5d7d7" fill-rule="evenodd" d="M180.73 166c-5.02-2.79-8.42-5.29-10.2-7.5-2.05-2.55.78-7.14-2.57-9.9-4.23-3.46-12.77-6.16-20.25-10.92a5133 5133 0 01-22.71-14.6L155.55 98l29.68 42.03a18.6 18.6 0 01-4.46 25.94z"/>
  <path fill="#555" fill-rule="evenodd" d="M124.54 123c-26.57-25.3-29.65-44.52-9.25-57.67 20.4-13.15 29.55-19.22 27.43-18.22l9.07 34.1a137.95 137.95 0 00-2.4 2.63c-2.64 3.02-1.07 7.38 5.6 14.62-7.08 7.4-17.23 15.57-30.45 24.54z"/>
  <path fill="#3587ea" fill-rule="evenodd" d="M142.72 47.1c14.68-1.21 24.74-1.5 30.18-.84 25.07 3.02 39.77 10.72 47.35 13.86 10.04 4.16 15.3 12.81 15.75 25.95v12.48c-13.85 7.3-23.11 10.37-27.8 9.22-8.67-2.13-12.89-16.7-16.88-22.87-10.85-16.75-24.02-17.97-39.53-3.69z"/>
  <path fill="#313131" fill-rule="evenodd" d="M191.9 84.5c15.34-1 24.47-.17 27.39 2.5 2.91 2.67-4.66 5.33-22.73 8z" opacity=".5"/>
  <path fill="#3587ea" fill-rule="evenodd" d="M205.58 86c-6.72.56-13.25 2.86-19.58 6.92l8.18 20.08c14.26-3.55 23.2-6.78 26.79-9.71 5.4-4.4 4.8-10.09 1.59-13.4-3.22-3.31-6.9-4.72-16.98-3.89z"/>
  <path fill="#f5d7d7" fill-rule="evenodd" d="M199 147.64c2.09 5.67 6.23 8 12.44 7 9.3-1.53 9.3 1.36 11.32 1.36 2.01 0 3.68-4.33-12.82-8.36-6.86-1.33-10.5-2.88-10.94-4.64z"/>
  <path fill="#f67e83" fill-rule="evenodd" d="M186.19 93c-27.26 12.5-41.31 21.62-42.16 27.37-.85 5.76 18.37 16.97 57.67 33.63l4.3-6.92c-27.1-13.21-40-22.12-38.69-26.7 8.78-3.51 18.28-5.8 28.5-6.9z"/>
  <path fill="#bfa7a7" fill-rule="evenodd" d="M245.17 76.39c1.33 1.55 6.36 7.1 15.1 16.61l3.73-7.32c-13.88-7.75-20.15-10.85-18.83-9.29z"/>
  <path fill="#313131" fill-rule="evenodd" d="M264.22 92c8.71-8.62 5.51-15.88-9.6-21.8-15.11-5.9-24.32-8.97-27.62-9.2z"/>
  <path fill="#313131" d="M214.18 56.42a1 1 0 011.4-.24l3.71 2.6.68.49.93.67.84.62.26.2c6.85 5.2 9.9 9.95 10.85 18.45.93 8.41-2.42 17.23-9.98 26.43a1 1 0 01-1.55-1.28c7.25-8.8 10.4-17.11 9.54-24.94-.86-7.76-3.53-12.02-9.71-16.8l-.62-.46-.54-.4-.57-.42-.61-.45-1.88-1.32-2.5-1.75a1 1 0 01-.25-1.4z"/>
  <path fill="#313131" d="M182.11 74.62c-8.1-15.52-1.97-21.43 17.12-16.84l1.42.35.7.17 1.36.35 1.34.34 1.32.35 1.28.35 1.26.35 1.23.36.6.17 1.2.36 1.16.35 1.13.36 1.11.36 1.08.36 1.05.37.51.18 1.01.36.98.37.96.37.92.37.46.18.88.38.86.37.83.38.8.38.77.38.75.38c1.1.57 2.1 1.15 3.02 1.73l.6.4a19.34 19.34 0 013.94 3.4 1 1 0 11-1.52 1.29 18.65 18.65 0 00-4.29-3.53l-.6-.36-.3-.19-.64-.36-.66-.37-.7-.36-.35-.18-.74-.36-.38-.18-.77-.36-.8-.36-.42-.18-.84-.36-.44-.18-.88-.36-.46-.18-.93-.35-.95-.36a45.8 45.8 0 00-.49-.17l-1-.36-1.02-.35-1.05-.35-1.08-.35-1.1-.34-1.14-.35-1.16-.35-1.2-.34-1.2-.35-1.25-.34-1.27-.34-.65-.17-1.31-.34-1.34-.34-1.37-.33-.7-.17-1.54-.36-1-.21c-15.13-3.13-19.03 1.2-12.75 13.71l.42.82a1 1 0 01-1.78.93z"/>
  <path fill="#3587ea" fill-rule="evenodd" d="M151.48 47c-4.4-5.99-2.94-8.98 4.39-9h12.48l8.65 9z"/>
  <path fill="#313131" d="M256.32 82.6a1 1 0 01.96 1.75l-.1.05-17.75 8.43a1 1 0 01-.96-1.75l.1-.06z"/>
</svg>
