<?xml version="1.0" encoding="UTF-8" standalone="no"?>
<svg
   width="1150.513"
   height="152.637"
   version="1.1"
   id="svg6"
   sodipodi:docname="lineFor5new.svg"
   inkscape:version="1.1 (c68e22c387, 2021-05-23)"
   xmlns:inkscape="http://www.inkscape.org/namespaces/inkscape"
   xmlns:sodipodi="http://sodipodi.sourceforge.net/DTD/sodipodi-0.dtd"
   xmlns="http://www.w3.org/2000/svg"
   xmlns:svg="http://www.w3.org/2000/svg"
   xmlns:rdf="http://www.w3.org/1999/02/22-rdf-syntax-ns#"
   xmlns:cc="http://creativecommons.org/ns#"
   xmlns:dc="http://purl.org/dc/elements/1.1/">
  <metadata
     id="metadata12">
    <rdf:RDF>
      <cc:Work
         rdf:about="">
        <dc:format>image/svg+xml</dc:format>
        <dc:type
           rdf:resource="http://purl.org/dc/dcmitype/StillImage" />
      </cc:Work>
    </rdf:RDF>
  </metadata>
  <defs
     id="defs10" />
  <sodipodi:namedview
     pagecolor="#ffffff"
     bordercolor="#666666"
     borderopacity="1"
     objecttolerance="10"
     gridtolerance="10"
     guidetolerance="10"
     inkscape:pageopacity="0"
     inkscape:pageshadow="2"
     inkscape:window-width="3698"
     inkscape:window-height="2126"
     id="namedview8"
     showgrid="false"
     inkscape:zoom="1.2377088"
     inkscape:cx="479.91903"
     inkscape:cy="145.43001"
     inkscape:window-x="3011"
     inkscape:window-y="-11"
     inkscape:window-maximized="1"
     inkscape:current-layer="svg6"
     inkscape:pagecheckerboard="0" />
  <path
     style="fill:none;stroke:#000000;stroke-width:1.03748px;stroke-linecap:butt;stroke-linejoin:miter;stroke-opacity:1"
     d="m -4.4747155,118.14513 c 0,0 23.8561655,5.0032 33.6218555,-3.3009 9.76559,-8.30412 13.0859,-17.136743 24.99999,-16.190714 11.91402,0.946052 17.21504,6.795484 36.45325,27.608314 19.23828,20.81283 37.7766,30.38421 52.22971,21.02895 14.4531,-9.35525 11.61129,-19.10724 9.5606,-33.82338 -2.05077,-14.716123 3.42778,-25.04115 24.6191,-28.40487 21.1914,-3.363666 29.42124,-1.040159 32.32418,4.730195 8.14817,16.196545 -12.49999,45.409785 -0.39057,48.878575 12.1093,3.4688 13.32491,-16.9842 14.8874,-26.97014 1.5625,-9.98595 11.23159,-2.89713 17.96988,2.8842 6.73829,5.78132 37.84581,32.91563 76.51771,21.14273 38.67179,-11.77292 39.35539,-37.315899 42.87111,-54.239432 3.5156,-16.92359 8.20308,-41.83591 19.72648,-58.128752 11.52352,-16.2928506 20.01959,-22.70487568 13.76962,-2.522776 -6.25002,20.182126 8.39837,28.381116 17.48039,30.903893 9.08209,2.522776 13.2813,1.892082 10.9375,19.866767 -2.34373,17.974728 -16.62853,54.34935 32.67568,58.21439 49.30412,3.865 83.41651,0.74327 105.5136,-0.74331 22.09701,-1.48652 40.189,-1.63521 42.5368,-40.285585 2.34792,-38.650418 0.81691,-59.231568 8.4341,-72.581225 7.61722,-13.3496207 20.8984,-12.7189256 28.51562,-5.255757 7.61719,7.463209 14.55081,18.710545 25.48831,9.355252 10.9375,-9.355252 30.92216,-25.319837 53.15736,-15.5085801 22.2352,9.8112561 33.8362,26.9066361 27.2071,57.6782751 -6.6292,30.771681 -10.1985,32.462147 -13.5188,36.824402 -3.3203,4.362298 -6.6895,5.676248 -7.9102,-4.257168 -1.2207,-9.933383 9.5215,-14.821214 19.1895,-15.872408 9.668,-1.051137 33.1055,-2.365086 43.2129,5.676258 10.1074,8.041302 31.3965,38.577266 46.2402,47.932516 14.8438,9.35525 60.9375,19.131 85.0586,1.9972 24.1211,-17.13378 22.7539,-28.80156 13.9649,-50.245084 -8.7891,-21.443481 -11.1328,-18.710509 -9.7657,-35.423839 1.3672,-16.713297 21.5821,-27.224816 27.6368,-29.747592 6.0546,-2.522779 27.2461,-8.934805 33.8867,17.238905 6.6406,26.173676 8.4961,34.793144 13.3789,50.980877 4.88284,16.187763 12.50004,31.534583 47.26564,43.202373 34.7656,11.66778 63.8672,16.29284 75.1953,9.35524 11.3281,-6.93758 9.1797,-19.86675 6.25,-26.90948 -2.9297,-7.04273 -8.7402,-10.35387 -12.3535,-13.559866 -3.6133,-3.206033 -4.1992,-8.619472 -0.3906,-13.82267 3.8085,-5.2032 10.5886,-5.010689 18.1155,0.266468 7.5268,5.277276 19.7458,16.974438 25.3671,23.607658"
     id="path3362"
     sodipodi:nodetypes="csssssssssssssssssssssssssssssssssssssssssc" />
</svg>
