<?xml version="1.0" encoding="UTF-8" standalone="no"?>
<svg
   xmlns:dc="http://purl.org/dc/elements/1.1/"
   xmlns:cc="http://creativecommons.org/ns#"
   xmlns:rdf="http://www.w3.org/1999/02/22-rdf-syntax-ns#"
   xmlns:svg="http://www.w3.org/2000/svg"
   xmlns="http://www.w3.org/2000/svg"
   xmlns:sodipodi="http://sodipodi.sourceforge.net/DTD/sodipodi-0.dtd"
   xmlns:inkscape="http://www.inkscape.org/namespaces/inkscape"
   width="1150.513"
   height="152.637"
   version="1.1"
   id="svg6"
   sodipodi:docname="line2.svg"
   inkscape:version="0.92.4 (5da689c313, 2019-01-14)">
    <metadata
     id="metadata12">
        <rdf:RDF>
            <cc:Work
         rdf:about="">
                <dc:format>image/svg+xml</dc:format>
                <dc:type
           rdf:resource="http://purl.org/dc/dcmitype/StillImage" />
                <dc:title></dc:title>
            </cc:Work>
        </rdf:RDF>
    </metadata>
    <defs
     id="defs10" />
    <sodipodi:namedview
     pagecolor="#ffffff"
     bordercolor="#666666"
     borderopacity="1"
     objecttolerance="10"
     gridtolerance="10"
     guidetolerance="10"
     inkscape:pageopacity="0"
     inkscape:pageshadow="2"
     inkscape:window-width="1836"
     inkscape:window-height="1057"
     id="namedview8"
     showgrid="false"
     inkscape:zoom="3.5007691"
     inkscape:cx="1083.8933"
     inkscape:cy="47.859369"
     inkscape:window-x="76"
     inkscape:window-y="-8"
     inkscape:window-maximized="1"
     inkscape:current-layer="svg6" />
    <path
     d="m -0.334,117.253 c 0,0 21.806,1.345 31.193,-5.54 9.387,-6.884 12.909,-14.806 27.573,-12.646 14.663,2.16 31.751,28.637 50.915,41.707 19.166,13.069 37.186,3.733 42.63,-7.617 5.443,-11.349 -4.132,-26.685 2.148,-36.229 8.89,-13.512 38.438,-15.473 50.5,-13.597 12.062,1.875 20.739,16.628 27.538,25.941 3.63,4.974 11.997,19.776 31.36,31.986 19.68,12.411 80.064,16.796 97.514,-6.923 15.086,-20.506 12.411,-39.465 5.613,-49.83 -9.975,-15.211 -20.361,-27.498 -5.267,-46.393 6.22,-7.787 15.638,-13.666 21.385,-15.736 13.041,-4.701 24.224,-6.172 28.531,22.115 4.198,27.574 6.382,62.034 37.498,81.148 15.144,9.303 86.34872,27.60569 103.84473,13.27472 11.38921,-9.32889 10.10636,-32.10555 -0.79434,-39.894131 -10.9007,-7.788579 -14.63751,-10.074757 -13.12439,-18.212347 1.32,-6.63 13.783,-9.743 26.33,1.076 15.659,13.504 29.107,25.970758 35.672,-4.359242 4.724,-21.828 3.872,-53.776889 18.992,-64.359889 15.113,-10.58 26.428,-0.439 32.653,5.785 4.82,4.82 10.123,10.845 23.87,0.438 11.908,-9.015 26.108,-17.699 48.382,-11.35 25.636,7.308 29.732,22.569889 29.7,38.197889 -0.408,12.404 -5.3,28.8 -8.085,35.731 -6.48,16.122 -15.043,19.91 -14.583,8.906 1.15755,-14.169675 20.59246,12.21676 37.06699,34.68999 11.61701,15.2423 16.93501,11.05494 19.17701,-7.12506 2.075,-16.823 6.059,-20.064998 21.34,-6.935 20.343,17.477 69.35,34.068 102.458,9.843 19.03,-13.924 20.551,-45.16493 29.29,-84.50893 5.093,-22.926 17.102,-29.53 19.694,-31.31 1.619,-1.112 5.575,-3.86 7.586,-3.637 1.206,0.134 1.713,1.338 0.593,4.606 -9.901,28.91 10.399,34.142 15.614,35.822 5.215,1.679 13.893,0.757 11.156,18.469 -2.125,13.75 -13.163,58.12798 20.25,62.60498 52.8987,7.1829 151.5621,6.4458 187.3326,-3.21812"
     id="path2"
     inkscape:connector-curvature="0"
     style="vector-effect:non-scaling-stroke;fill:none;stroke:#341eba;stroke-width:3.20000005;stroke-linecap:round"
     sodipodi:nodetypes="cccccccccccccccszcccccccccccccccccccccc" />
</svg>